<?xml version="1.0" encoding="UTF-8" standalone="no"?>
<!-- Created with Inkscape (http://www.inkscape.org/) -->

<svg
   width="14.234005"
   height="37.705627"
   viewBox="0 0 3.7660804 9.9762806"
   version="1.1"
   id="svg1"
   xml:space="preserve"
   sodipodi:docname="GranMa.svg"
   inkscape:version="1.3 (0e150ed6c4, 2023-07-21)"
   xmlns:inkscape="http://www.inkscape.org/namespaces/inkscape"
   xmlns:sodipodi="http://sodipodi.sourceforge.net/DTD/sodipodi-0.dtd"
   xmlns="http://www.w3.org/2000/svg"
   xmlns:svg="http://www.w3.org/2000/svg"><sodipodi:namedview
     id="namedview1"
     pagecolor="#505050"
     bordercolor="#eeeeee"
     borderopacity="1"
     inkscape:showpageshadow="0"
     inkscape:pageopacity="0"
     inkscape:pagecheckerboard="0"
     inkscape:deskcolor="#121212"
     inkscape:document-units="mm"
     inkscape:zoom="0.67526655"
     inkscape:cx="545.71043"
     inkscape:cy="550.89357"
     inkscape:window-width="1280"
     inkscape:window-height="961"
     inkscape:window-x="-8"
     inkscape:window-y="-8"
     inkscape:window-maximized="1"
     inkscape:current-layer="layer1" /><defs
     id="defs1"><inkscape:path-effect
       effect="bspline"
       id="path-effect604"
       is_visible="true"
       lpeversion="1.3"
       weight="33.333333"
       steps="2"
       helper_size="0"
       apply_no_weight="true"
       apply_with_weight="true"
       only_selected="false"
       uniform="false" /><linearGradient
       id="swatch2"
       inkscape:swatch="solid"><stop
         style="stop-color:#000000;stop-opacity:1;"
         offset="0"
         id="stop2-3" /></linearGradient></defs><g
     inkscape:label="Layer 1"
     inkscape:groupmode="layer"
     id="layer1"
     transform="translate(14.157371,-179.31606)"><g
       id="g226"
       inkscape:transform-center-x="0.072147499"
       inkscape:transform-center-y="3.6375175"
       transform="matrix(-0.87975022,-0.24324351,-0.24324351,0.87975022,128.54413,129.08735)"
       inkscape:export-filename="..\Binary\Data\Sprites\GranMa\Arm.svg"
       inkscape:export-xdpi="96"
       inkscape:export-ydpi="96"><path
         style="fill:#fbbb9f;fill-opacity:1;fill-rule:evenodd;stroke:#2a1e0b;stroke-width:0.264583px;stroke-linecap:butt;stroke-linejoin:miter;stroke-opacity:1"
         d="m 143.91956,156.62996 c 0.40694,-0.11541 0.81387,-0.23082 1.15321,-0.30385 0.33934,-0.073 0.61103,-0.10366 0.88465,-0.12137 0.27362,-0.0177 0.54911,-0.0225 0.78332,0.0208 0.23422,0.0433 0.4271,0.13481 0.53511,0.35083 0.108,0.21602 0.1311,0.55656 0.13398,0.87114 0.003,0.31458 -0.01,0.5257 -0.12736,0.81544 -0.11756,0.28975 -0.1941,0.36639 -0.43554,0.47479 -0.24143,0.10841 -0.39372,0.10961 -0.58658,0.0862 -0.19286,-0.0234 -0.36813,-0.0718 -0.54223,-0.1188 -0.17409,-0.047 -0.34597,-0.0925 -0.59562,-0.20236 -0.24965,-0.10988 -0.57141,-0.28175 -0.89501,-0.45459 z"
         id="path558"
         inkscape:path-effect="#path-effect604"
         inkscape:original-d="m 143.91956,156.62996 c 0,0 0.81387,-0.23082 1.22082,-0.34624 0.27173,-0.0306 0.54342,-0.0613 0.81515,-0.0919 0.27551,-0.005 0.55099,-0.01 0.82651,-0.0144 0.19291,0.0915 0.3858,0.18295 0.57871,0.27443 0.0231,0.34056 0.0462,0.6811 0.0693,1.02165 -0.0173,0.28861 -0.03,0.49973 -0.052,0.86581 -0.21314,0.21341 -0.28968,0.29005 -0.50409,0.50473 -0.26846,0.002 -0.42075,0.003 -0.63115,0.005 -0.17532,-0.0484 -0.35059,-0.0968 -0.5259,-0.14518 -0.17288,-0.0457 -0.34477,-0.0911 -0.51862,-0.13707 -0.32544,-0.17382 -0.9708,-0.51853 -0.9708,-0.51853 z"
         transform="matrix(-0.49325926,0.63950413,0.63702403,0.49398249,102.8698,-67.812549)"
         sodipodi:nodetypes="ccccccccccccc"
         inkscape:transform-center-x="0.66125221"
         inkscape:transform-center-y="0.79440731" /><path
         style="fill:#c6bbf9;fill-opacity:1;fill-rule:evenodd;stroke:#000000;stroke-width:0.264583px;stroke-linecap:butt;stroke-linejoin:miter;stroke-opacity:1"
         d="m 133.72819,94.214436 c -0.43397,-0.147167 -1.26474,-0.359428 -1.62143,0.0071 -0.3567,0.366509 -0.17618,0.703635 0.0329,1.446743 0.20913,0.743106 0.87322,1.889951 0.77634,2.964355 -0.0969,1.074404 -1.9146,2.980096 -1.74887,3.589796 0.16572,0.60968 0.31544,0.6557 0.66177,0.87691 0.74435,0.41642 2.09553,-2.56948 2.62598,-3.730769 0.53044,-1.161296 0.79976,-2.23023 0.7473,-3.006518 -0.0524,-0.77629 -0.21967,-1.132986 -0.49057,-1.491977 -0.27091,-0.358989 -0.54935,-0.50885 -0.98346,-0.655621 z"
         id="path222"
         sodipodi:nodetypes="zzzzzzzzzz"
         inkscape:transform-center-x="-0.35448108"
         inkscape:transform-center-y="3.7526827" /></g></g></svg>
