<?xml version="1.0" encoding="UTF-8" standalone="no"?>
<!-- Created with Inkscape (http://www.inkscape.org/) -->

<svg
   width="42.910736"
   height="27.424683"
   viewBox="0 0 11.353465 7.2561139"
   version="1.1"
   id="svg1"
   xml:space="preserve"
   sodipodi:docname="GranMa.svg"
   inkscape:version="1.3 (0e150ed6c4, 2023-07-21)"
   xmlns:inkscape="http://www.inkscape.org/namespaces/inkscape"
   xmlns:sodipodi="http://sodipodi.sourceforge.net/DTD/sodipodi-0.dtd"
   xmlns="http://www.w3.org/2000/svg"
   xmlns:svg="http://www.w3.org/2000/svg"><sodipodi:namedview
     id="namedview1"
     pagecolor="#505050"
     bordercolor="#eeeeee"
     borderopacity="1"
     inkscape:showpageshadow="0"
     inkscape:pageopacity="0"
     inkscape:pagecheckerboard="0"
     inkscape:deskcolor="#121212"
     inkscape:document-units="mm"
     inkscape:zoom="0.67526655"
     inkscape:cx="545.71043"
     inkscape:cy="550.89357"
     inkscape:window-width="1280"
     inkscape:window-height="961"
     inkscape:window-x="-8"
     inkscape:window-y="-8"
     inkscape:window-maximized="1"
     inkscape:current-layer="layer1" /><defs
     id="defs1"><linearGradient
       id="swatch2"
       inkscape:swatch="solid"><stop
         style="stop-color:#000000;stop-opacity:1;"
         offset="0"
         id="stop2-3" /></linearGradient></defs><g
     inkscape:label="Layer 1"
     inkscape:groupmode="layer"
     id="layer1"
     transform="translate(20.27022,-153.23288)"><g
       id="g204"
       transform="matrix(-0.91275837,0,0,0.91275837,108.80806,93.168673)"
       inkscape:export-filename="..\Binary\Data\Sprites\GranMa\Bun.svg"
       inkscape:export-xdpi="96"
       inkscape:export-ydpi="96"><path
         style="fill:#aca590;fill-opacity:1;fill-rule:evenodd;stroke:#000000;stroke-width:0.264583px;stroke-linecap:butt;stroke-linejoin:miter;stroke-opacity:1"
         d="m 136.67399,73.622485 c 0.51761,0.0023 1.35123,-0.122955 1.54381,-0.167225 0.27398,-0.06297 0.55384,-0.13522 0.79655,-0.277058 0.22597,-0.132051 0.3931,-0.345645 0.58875,-0.519485 0.22001,-0.19549 0.44116,-0.389752 0.65801,-0.588751 0.19856,-0.182219 0.40402,-0.357891 0.58875,-0.55412 0.1236,-0.1313 0.27219,-0.251211 0.34633,-0.415589 0.0624,-0.138412 0.11364,-0.304998 0.0693,-0.45022 -0.0596,-0.195334 -0.27875,-0.298601 -0.41559,-0.45022 -0.17535,-0.194294 -0.35496,-0.3852 -0.51948,-0.588751 -0.20754,-0.256785 -0.3733,-0.546361 -0.58875,-0.796544 -0.1598,-0.185562 -0.3505,-0.342253 -0.51949,-0.519486 -0.23686,-0.248406 -0.45899,-0.51049 -0.69265,-0.761912 -0.21679,-0.233275 -0.40207,-0.503146 -0.65801,-0.692648 -0.24895,-0.184328 -0.54747,-0.291236 -0.83118,-0.415589 -0.32794,-0.143739 -0.6561,-0.29771 -1.00434,-0.380955 -0.31618,-0.07558 -0.64491,-0.117618 -0.9697,-0.103896 -0.36419,0.01539 -0.71695,0.132539 -1.07361,0.207793 -0.40553,0.08557 -0.82414,0.131314 -1.21213,0.277058 -0.31912,0.119873 -0.60206,0.320003 -0.90044,0.484854 -0.34842,0.192497 -0.73294,0.334191 -1.03897,0.588751 -0.28977,0.241034 -0.49079,0.572325 -0.72728,0.86581 -0.20139,0.249918 -0.43775,0.478692 -0.58875,0.761912 -0.10305,0.19328 -0.14433,0.413746 -0.2078,0.623382 -0.0763,0.251951 -0.20153,0.498741 -0.20779,0.761913 -0.005,0.212803 0.0647,0.423741 0.13853,0.623382 0.0681,0.18406 0.15065,0.369367 0.27706,0.519486 0.0848,0.100683 0.52129,0.453889 0.82595,0.609759 0.94693,0.484471 1.99946,0.747842 3.03902,0.97304 1.07715,0.233345 2.18177,0.380405 3.2839,0.385309 z"
         id="path5"
         sodipodi:nodetypes="ssssssscssssssssssssssssccssss" /><path
         style="fill:#d2d2d1;fill-opacity:1;fill-rule:evenodd;stroke:none;stroke-width:0.264583px;stroke-linecap:butt;stroke-linejoin:miter;stroke-opacity:1"
         d="m 141.09229,70.779531 c 0,0 -0.91025,-0.490503 -1.3853,-0.692648 -0.34941,-0.148682 -0.70327,-0.297004 -1.0736,-0.380957 -0.43018,-0.09752 -0.87756,-0.0904 -1.31603,-0.138528 -0.40425,-0.04438 -0.81219,-0.212249 -1.21213,-0.138531 -0.34529,0.06364 -0.76191,0.415589 -0.93508,0.484855 -0.17316,0.06926 -0.9697,0.554116 -1.14287,0.658013 -0.17316,0.103897 -0.96643,0.468979 -1.48919,0.55412 -0.34201,0.0557 -0.70467,0.05657 -1.03897,-0.03463 -0.27909,-0.07614 -0.52733,-0.246292 -0.76191,-0.415589 -0.19207,-0.138616 -0.37973,-0.293614 -0.51949,-0.484852 -0.14321,-0.195949 -0.24542,-0.424536 -0.31169,-0.658016 -0.0571,-0.20113 -0.13267,-0.424144 -0.0693,-0.623382 0.12641,-0.397408 0.52295,-0.654159 0.83117,-0.935075 0.36007,-0.328176 0.75222,-0.62815 1.17751,-0.865809 0.40234,-0.224834 0.84134,-0.38244 1.28139,-0.519486 0.40647,-0.126589 0.82583,-0.213413 1.24677,-0.277058 0.56116,-0.08485 1.13668,-0.228888 1.69698,-0.138531 0.40854,0.06588 0.77864,0.288416 1.14287,0.484855 0.36634,0.197581 0.73297,0.410493 1.03897,0.692647 0.46524,0.428981 0.73582,1.036005 1.17751,1.489192 0.18879,0.193704 0.44007,0.320586 0.62338,0.519485 0.25829,0.28026 0.43052,0.629285 0.65801,0.935075 0.12269,0.164914 0.381,0.48485 0.381,0.48485 z"
         id="path8"
         sodipodi:nodetypes="cssssssssssssssssssssssc" /><path
         style="fill:#ffffff;fill-opacity:0.754601;fill-rule:evenodd;stroke:none;stroke-width:0.264583px;stroke-linecap:butt;stroke-linejoin:miter;stroke-opacity:1"
         d="m 137.81125,66.979011 c 0,0 -1.38529,0.623382 -1.52382,0.692647 -0.13853,0.06927 -0.73043,0.243863 -1.07361,0.415589 -0.29218,0.146207 -0.58594,0.303601 -0.83118,0.519486 -0.12315,0.108413 -0.31169,0.380955 -0.31169,0.380955 0,0 0.35038,0.0044 0.51949,-0.03463 0.32795,-0.07565 0.61193,-0.286858 0.93507,-0.380957 0.24784,-0.07217 0.50483,-0.115346 0.76192,-0.138528 0.29893,-0.02695 0.60044,-0.0094 0.90044,0 0.36995,0.01155 0.73874,0.09098 1.10823,0.06926 0.12885,-0.0076 0.25692,-0.03357 0.38096,-0.06926 0.11948,-0.03438 0.34632,-0.138531 0.34632,-0.138531 0,0 -0.37677,-0.498475 -0.58875,-0.727278 -0.19425,-0.209668 -0.62338,-0.588753 -0.62338,-0.588753 z"
         id="path6"
         sodipodi:nodetypes="cssscsssssscsc" /><path
         style="fill:#f4f4f4;fill-opacity:1;fill-rule:evenodd;stroke:none;stroke-width:0.264583px;stroke-linecap:butt;stroke-linejoin:miter;stroke-opacity:1"
         d="m 137.35199,66.771215 c 0,0 -0.84123,0.120824 -1.24676,0.242427 -0.40659,0.121919 -0.79658,0.297575 -1.1775,0.484854 -0.31097,0.152886 -0.69265,0.380955 -0.90045,0.519486 -0.20779,0.138528 -0.60626,0.429522 -0.86581,0.692647 -0.18486,0.187413 -0.29444,0.441605 -0.48485,0.623382 -0.17375,0.165875 -0.58875,0.415589 -0.58875,0.415589 0,0 0.12301,-0.760006 0.27706,-1.108236 0.10103,-0.228389 0.38096,-0.484854 0.41559,-0.623382 0.0346,-0.138531 0.32861,-0.611239 0.51949,-0.900443 0.12718,-0.192693 0.25977,-0.383734 0.41558,-0.554117 0.10481,-0.114616 0.20519,-0.246868 0.34633,-0.311693 0.3279,-0.150606 0.7128,-0.133359 1.0736,-0.138528 0.34801,-0.005 0.69963,0.02651 1.03897,0.103897 0.26348,0.06009 0.52078,0.155059 0.76191,0.277058 0.14856,0.07516 0.41559,0.277059 0.41559,0.277059 z"
         id="path7"
         sodipodi:nodetypes="cssssscssssssssc" /><path
         style="fill:#f4f4f4;fill-opacity:1;fill-rule:evenodd;stroke:none;stroke-width:0.264583px;stroke-linecap:butt;stroke-linejoin:miter;stroke-opacity:1"
         d="m 132.58229,66.829897 c 0.14458,0.244796 -0.38153,0.424332 -0.53876,0.661196 -0.16359,0.246434 -0.32465,0.502417 -0.41631,0.783643 -0.0716,0.219514 -0.0979,0.58773 -0.0979,0.685686 0,0.09795 -0.0245,0.465286 -0.0245,0.465286 0,0 -0.16478,-0.283049 -0.19591,-0.440798 -0.0553,-0.280412 -0.0327,-0.577069 0.0245,-0.857108 0.0491,-0.2406 0.22039,-0.587736 0.26937,-0.685686 0.049,-0.09796 0.24498,-0.401879 0.4408,-0.514262 0.1583,-0.09085 0.4459,-0.25511 0.53871,-0.09796 z"
         id="path83"
         sodipodi:nodetypes="sssscsssss" /></g></g></svg>
