<?xml version="1.0" encoding="UTF-8" standalone="no"?>
<!-- Created with Inkscape (http://www.inkscape.org/) -->

<svg
   width="54.570721"
   height="64.592407"
   viewBox="0 0 14.438503 17.090074"
   version="1.1"
   id="svg1"
   xml:space="preserve"
   sodipodi:docname="GranMa.svg"
   inkscape:version="1.3 (0e150ed6c4, 2023-07-21)"
   xmlns:inkscape="http://www.inkscape.org/namespaces/inkscape"
   xmlns:sodipodi="http://sodipodi.sourceforge.net/DTD/sodipodi-0.dtd"
   xmlns:xlink="http://www.w3.org/1999/xlink"
   xmlns="http://www.w3.org/2000/svg"
   xmlns:svg="http://www.w3.org/2000/svg"><sodipodi:namedview
     id="namedview1"
     pagecolor="#505050"
     bordercolor="#eeeeee"
     borderopacity="1"
     inkscape:showpageshadow="0"
     inkscape:pageopacity="0"
     inkscape:pagecheckerboard="0"
     inkscape:deskcolor="#121212"
     inkscape:document-units="mm"
     inkscape:zoom="0.67526655"
     inkscape:cx="545.71043"
     inkscape:cy="550.89357"
     inkscape:window-width="1280"
     inkscape:window-height="961"
     inkscape:window-x="-8"
     inkscape:window-y="-8"
     inkscape:window-maximized="1"
     inkscape:current-layer="layer1" /><defs
     id="defs1"><linearGradient
       id="linearGradient198"
       inkscape:collect="always"><stop
         style="stop-color:#eb0207;stop-opacity:1;"
         offset="0"
         id="stop198" /><stop
         style="stop-color:#eb0207;stop-opacity:0;"
         offset="1"
         id="stop199" /></linearGradient><linearGradient
       id="linearGradient195"
       inkscape:collect="always"><stop
         style="stop-color:#eb0207;stop-opacity:1;"
         offset="0"
         id="stop196" /><stop
         style="stop-color:#eb0207;stop-opacity:0;"
         offset="1"
         id="stop197" /></linearGradient><linearGradient
       id="linearGradient192"
       inkscape:collect="always"><stop
         style="stop-color:#eb0207;stop-opacity:1;"
         offset="0"
         id="stop192" /><stop
         style="stop-color:#eb0207;stop-opacity:0;"
         offset="1"
         id="stop193" /></linearGradient><inkscape:path-effect
       effect="spiro"
       id="path-effect190"
       is_visible="true"
       lpeversion="1" /><inkscape:path-effect
       effect="spiro"
       id="path-effect176"
       is_visible="true"
       lpeversion="1" /><inkscape:path-effect
       effect="spiro"
       id="path-effect147"
       is_visible="true"
       lpeversion="1" /><inkscape:path-effect
       effect="spiro"
       id="path-effect137"
       is_visible="true"
       lpeversion="1" /><linearGradient
       id="linearGradient116"
       inkscape:collect="always"><stop
         style="stop-color:#eb0207;stop-opacity:1;"
         offset="0.51715684"
         id="stop116" /><stop
         style="stop-color:#eb0207;stop-opacity:0;"
         offset="1"
         id="stop117" /></linearGradient><inkscape:path-effect
       effect="spiro"
       id="path-effect116"
       is_visible="true"
       lpeversion="1" /><linearGradient
       id="linearGradient103"
       inkscape:collect="always"><stop
         style="stop-color:#9a8cea;stop-opacity:1;"
         offset="0"
         id="stop103" /><stop
         style="stop-color:#b6acf0;stop-opacity:1;"
         offset="0.5"
         id="stop105" /><stop
         style="stop-color:#9a8cea;stop-opacity:1;"
         offset="0.997549"
         id="stop104" /></linearGradient><linearGradient
       id="linearGradient99"
       inkscape:collect="always"><stop
         style="stop-color:#bdf0e8;stop-opacity:1;"
         offset="0"
         id="stop99" /><stop
         style="stop-color:#9dcbbc;stop-opacity:0.67785233;"
         offset="1"
         id="stop100" /></linearGradient><linearGradient
       id="linearGradient94"
       inkscape:collect="always"><stop
         style="stop-color:#c5bcf9;stop-opacity:1;"
         offset="0"
         id="stop94" /><stop
         style="stop-color:#c5bcf9;stop-opacity:0;"
         offset="1"
         id="stop95" /></linearGradient><radialGradient
       inkscape:collect="always"
       xlink:href="#linearGradient94"
       id="radialGradient95"
       cx="130.84972"
       cy="100.77748"
       fx="130.84972"
       fy="100.77748"
       r="0.45916474"
       gradientUnits="userSpaceOnUse" /><radialGradient
       inkscape:collect="always"
       xlink:href="#linearGradient94"
       id="radialGradient96"
       gradientUnits="userSpaceOnUse"
       cx="130.84972"
       cy="100.77748"
       fx="130.84972"
       fy="100.77748"
       r="0.45916474"
       gradientTransform="translate(1.2979057,0.07346636)" /><radialGradient
       inkscape:collect="always"
       xlink:href="#linearGradient94"
       id="radialGradient97"
       gradientUnits="userSpaceOnUse"
       gradientTransform="translate(-1.1754617,-0.09795514)"
       cx="130.84972"
       cy="100.77748"
       fx="130.84972"
       fy="100.77748"
       r="0.45916474" /><radialGradient
       inkscape:collect="always"
       xlink:href="#linearGradient94"
       id="radialGradient98"
       gradientUnits="userSpaceOnUse"
       gradientTransform="translate(-2.3019459,-0.23264346)"
       cx="130.84972"
       cy="100.77748"
       fx="130.84972"
       fy="100.77748"
       r="0.45916474" /><radialGradient
       inkscape:collect="always"
       xlink:href="#linearGradient94"
       id="radialGradient99"
       gradientUnits="userSpaceOnUse"
       gradientTransform="translate(-3.3794525,-0.55099768)"
       cx="130.84972"
       cy="100.77748"
       fx="130.84972"
       fy="100.77748"
       r="0.45916474" /><radialGradient
       inkscape:collect="always"
       xlink:href="#linearGradient99"
       id="radialGradient102"
       cx="130.02321"
       cy="95.328728"
       fx="130.02321"
       fy="95.328728"
       r="0.68568599"
       gradientTransform="matrix(1,0,0,1.0267857,0.28162104,-3.9982845)"
       gradientUnits="userSpaceOnUse" /><linearGradient
       inkscape:collect="always"
       xlink:href="#linearGradient103"
       id="linearGradient104"
       x1="125.29923"
       y1="98.20488"
       x2="136.93216"
       y2="98.20488"
       gradientUnits="userSpaceOnUse" /><radialGradient
       inkscape:collect="always"
       xlink:href="#linearGradient116"
       id="radialGradient117"
       cx="132.18037"
       cy="106.03242"
       fx="132.18037"
       fy="106.03242"
       r="1.0551926"
       gradientTransform="matrix(1,0,0,0.92160349,0,8.3125716)"
       gradientUnits="userSpaceOnUse" /><radialGradient
       inkscape:collect="always"
       xlink:href="#linearGradient116"
       id="radialGradient137"
       gradientUnits="userSpaceOnUse"
       gradientTransform="matrix(1,0,0,0.92160349,0,8.3125716)"
       cx="132.18037"
       cy="106.03242"
       fx="132.18037"
       fy="106.03242"
       r="1.0551926" /><radialGradient
       inkscape:collect="always"
       xlink:href="#linearGradient116"
       id="radialGradient147"
       gradientUnits="userSpaceOnUse"
       gradientTransform="matrix(1,0,0,0.92160349,0,8.3125716)"
       cx="132.18037"
       cy="106.03242"
       fx="132.18037"
       fy="106.03242"
       r="1.0551926" /><radialGradient
       inkscape:collect="always"
       xlink:href="#linearGradient116"
       id="radialGradient176"
       gradientUnits="userSpaceOnUse"
       gradientTransform="matrix(1,0,0,0.92160349,0,8.3125716)"
       cx="132.18037"
       cy="106.03242"
       fx="132.18037"
       fy="106.03242"
       r="1.0551926" /><radialGradient
       inkscape:collect="always"
       xlink:href="#linearGradient116"
       id="radialGradient190"
       gradientUnits="userSpaceOnUse"
       gradientTransform="matrix(1,0,0,0.92160349,0,8.3125716)"
       cx="132.18037"
       cy="106.03242"
       fx="132.18037"
       fy="106.03242"
       r="1.0551926" /><radialGradient
       inkscape:collect="always"
       xlink:href="#linearGradient192"
       id="radialGradient193"
       cx="126.26929"
       cy="107.31382"
       fx="126.26929"
       fy="107.31382"
       r="0.51419628"
       gradientTransform="matrix(1,0,0,0.92789835,0,7.7375036)"
       gradientUnits="userSpaceOnUse" /><radialGradient
       inkscape:collect="always"
       xlink:href="#linearGradient195"
       id="radialGradient197"
       cx="133.21312"
       cy="107.95451"
       fx="133.21312"
       fy="107.95451"
       r="0.3583611"
       gradientTransform="matrix(1,0,0,0.70323161,0,32.037487)"
       gradientUnits="userSpaceOnUse" /><radialGradient
       inkscape:collect="always"
       xlink:href="#linearGradient195"
       id="radialGradient198"
       gradientUnits="userSpaceOnUse"
       gradientTransform="matrix(1.7248075,0,0,1.5246801,-98.856918,-55.966254)"
       cx="133.21312"
       cy="107.95451"
       fx="133.21312"
       fy="107.95451"
       r="0.3583611" /><radialGradient
       inkscape:collect="always"
       xlink:href="#linearGradient198"
       id="radialGradient199"
       cx="136.1915"
       cy="106.43069"
       fx="136.1915"
       fy="106.43069"
       r="0.3583611"
       gradientTransform="matrix(1,0,0,0.70323161,0,31.585265)"
       gradientUnits="userSpaceOnUse" /><radialGradient
       inkscape:collect="always"
       xlink:href="#linearGradient195"
       id="radialGradient201"
       gradientUnits="userSpaceOnUse"
       gradientTransform="matrix(1.7248075,0,0,1.5246801,-99.948348,-59.554942)"
       cx="133.21312"
       cy="107.95451"
       fx="133.21312"
       fy="107.95451"
       r="0.3583611" /><linearGradient
       id="swatch2"
       inkscape:swatch="solid"><stop
         style="stop-color:#000000;stop-opacity:1;"
         offset="0"
         id="stop2-3" /></linearGradient></defs><g
     inkscape:label="Layer 1"
     inkscape:groupmode="layer"
     id="layer1"
     transform="translate(18.683047,-177.18901)"><g
       id="g222"
       transform="matrix(-0.91275837,0,0,0.91275837,108.73605,93.168673)"
       inkscape:export-filename="..\Binary\Data\Sprites\GranMa\Dress.svg"
       inkscape:export-xdpi="96"
       inkscape:export-ydpi="96"><path
         style="fill:url(#linearGradient104);fill-rule:evenodd;stroke:#000000;stroke-width:0.264583px;stroke-linecap:butt;stroke-linejoin:miter;stroke-opacity:1"
         d="m 125.43156,103.09779 c 1.46671,0.9883 3.32677,1.15036 5.04469,1.12648 2.44048,-0.0339 4.21768,-0.46199 6.22015,-1.17541 0,0 0.13068,-1.14281 0.098,-1.71421 -0.0492,-0.86016 -0.20887,-1.717072 -0.4408,-2.546836 -0.24075,-0.86134 -0.60203,-1.687087 -0.97955,-2.497857 -0.36079,-0.774853 -0.69983,-1.578173 -1.22444,-2.25297 -0.36872,-0.474272 -0.81942,-0.895954 -1.32239,-1.224439 -0.34282,-0.22389 -0.72872,-0.39265 -1.12649,-0.489775 -0.46103,-0.112572 -0.95499,-0.191022 -1.42035,-0.09795 -0.46536,0.09307 -0.89184,0.354544 -1.27342,0.636706 -0.38068,0.281493 -0.74468,0.606661 -1.06526,0.955065 -0.39934,0.434 -0.78354,0.891815 -1.08975,1.395859 -0.30855,0.507893 -0.46001,1.097846 -0.63671,1.66524 -0.18485,0.593552 -0.30281,1.206005 -0.44079,1.812168 -0.12224,0.537004 -0.20773,1.066773 -0.24489,1.616259 -0.0298,0.441 -0.075,0.88039 -0.0734,1.32239 0.002,0.49085 -0.0245,1.28561 -0.0245,1.28561 z"
         id="path92"
         sodipodi:nodetypes="cscsssssssssssssscc" /><path
         style="fill:#f4f4f4;fill-opacity:1;fill-rule:evenodd;stroke:none;stroke-width:0.264583px;stroke-linecap:butt;stroke-linejoin:miter;stroke-opacity:1"
         d="m 131.53375,92.329906 c 0.2231,0.365883 -0.10437,0.852865 -0.10389,1.281399 4.7e-4,0.417029 0.0405,0.834585 0.10389,1.246767 0.0558,0.362614 0.2078,0.831175 0.24243,1.073602 0.0346,0.242427 0.15857,1.016378 0.24243,1.523825 0.0668,0.404453 0.13019,0.809606 0.20779,1.212133 0.0626,0.324597 0.11488,0.652461 0.2078,0.969706 0.0832,0.28397 0.20143,0.556592 0.31169,0.831182 0.0983,0.24475 0.33659,0.42509 0.31169,0.72727 -0.0249,0.30218 -0.17723,0.82119 -0.55412,0.86581 -0.37689,0.0446 -0.50854,-0.88271 -0.90044,-0.86581 -0.3919,0.0169 -0.37975,0.82829 -0.72728,0.83118 -0.34753,0.003 -0.34783,-0.71091 -0.65802,-0.72728 -0.31019,-0.0164 -0.36811,0.61335 -0.65801,0.58875 -0.2899,-0.0246 -0.25662,-0.62402 -0.5368,-0.67533 -0.28018,-0.0513 -0.4273,0.50846 -0.72728,0.43291 -0.29998,-0.0755 -0.2548,-0.78022 -0.51949,-0.86581 -0.26469,-0.0856 -0.37219,0.32006 -0.60606,0.25974 -0.23387,-0.0603 -0.46813,-0.38244 -0.48486,-0.62338 -0.0167,-0.24094 0.24923,-0.36663 0.32901,-0.571439 0.12453,-0.319688 0.1366,-0.672864 0.22511,-1.004337 0.11539,-0.432149 0.26711,-0.853772 0.39827,-1.281398 0.1344,-0.438177 0.23591,-0.887425 0.39827,-1.31603 0.13724,-0.362296 0.31848,-0.706418 0.48486,-1.056288 0.1796,-0.377657 0.37086,-0.749659 0.55412,-1.125553 0.16291,-0.334153 0.32091,-0.670689 0.48485,-1.004337 0.10814,-0.220095 0.13936,-0.502544 0.32901,-0.658016 0.15268,-0.125171 0.37574,-0.129639 0.57143,-0.155845 0.16019,-0.02145 0.32323,0 0.48485,0 0.12699,0 0.25644,-0.0249 0.38096,0 0.0736,0.01472 0.16873,0.02251 0.20779,0.08658 z"
         id="path93"
         sodipodi:nodetypes="sssssssszzzzzzzzzzzssssssssssss" /><circle
         style="fill:url(#radialGradient95);fill-opacity:1;fill-rule:evenodd;stroke:none;stroke-width:0.465;stroke-linecap:round;stroke-dasharray:none;stroke-opacity:1"
         id="path94"
         cx="130.84972"
         cy="100.77748"
         r="0.45916474" /><circle
         style="fill:url(#radialGradient96);fill-opacity:1;fill-rule:evenodd;stroke:none;stroke-width:0.465;stroke-linecap:round;stroke-dasharray:none;stroke-opacity:1"
         id="circle95"
         cx="132.14763"
         cy="100.85094"
         r="0.45916474" /><circle
         style="fill:url(#radialGradient97);fill-opacity:1;fill-rule:evenodd;stroke:none;stroke-width:0.465;stroke-linecap:round;stroke-dasharray:none;stroke-opacity:1"
         id="circle96"
         cx="129.67426"
         cy="100.67951"
         r="0.45916474" /><circle
         style="fill:url(#radialGradient98);fill-opacity:1;fill-rule:evenodd;stroke:none;stroke-width:0.465;stroke-linecap:round;stroke-dasharray:none;stroke-opacity:1"
         id="circle97"
         cx="128.54778"
         cy="100.54482"
         r="0.45916474" /><circle
         style="fill:url(#radialGradient99);fill-opacity:1;fill-rule:evenodd;stroke:none;stroke-width:0.465;stroke-linecap:round;stroke-dasharray:none;stroke-opacity:1"
         id="circle98"
         cx="127.47027"
         cy="100.22647"
         r="0.45916474" /><ellipse
         style="fill:url(#radialGradient102);fill-rule:evenodd;stroke:none;stroke-width:0.465;stroke-linecap:round;stroke-dasharray:none;stroke-opacity:1"
         id="path99"
         cx="130.30482"
         cy="93.883888"
         rx="0.68568599"
         ry="0.70405257" /><path
         style="fill:#ba0100;fill-opacity:1;fill-rule:evenodd;stroke:#000000;stroke-width:0.264583px;stroke-linecap:butt;stroke-linejoin:miter;stroke-opacity:1"
         d="m 125.47309,103.13521 c 0,0 0.009,0.69277 0,1.03897 -0.0115,0.4276 -0.0187,0.85665 -0.0693,1.2814 -0.0375,0.31476 -0.10389,0.65801 -0.17316,0.93507 -0.0693,0.27706 -0.25217,0.7264 -0.41559,1.07361 -0.14086,0.29928 -0.3262,0.57556 -0.48485,0.8658 -0.0941,0.17221 -0.19098,0.34313 -0.27706,0.51949 -0.0499,0.10217 -0.16267,0.18674 -0.13853,0.31169 0.0241,0.12495 0.0972,0.2463 0.30303,0.29438 0.20588,0.0481 0.54783,-0.36284 0.80521,-0.25975 0.25738,0.10309 0.0939,0.61708 0.38961,0.71863 0.2957,0.10155 0.67451,-0.49484 0.96971,-0.42425 0.2952,0.0706 0.17457,0.52456 0.48485,0.58875 0.31028,0.0642 0.62762,-0.59202 1.013,-0.51949 0.38538,0.0725 0.37883,0.85839 0.8052,0.9091 0.42637,0.0507 0.67584,-0.81292 1.11689,-0.77922 0.44105,0.0337 0.5458,0.86326 0.93508,0.89178 0.38928,0.0285 0.48961,-0.60599 0.85715,-0.60607 0.36754,-8e-5 0.53402,0.68911 0.94373,0.66667 0.40971,-0.0224 0.58778,-0.80951 0.97837,-0.86581 0.39059,-0.0563 0.61845,0.52705 0.96105,0.45023 0.3426,-0.0768 0.33569,-0.70475 0.66667,-0.80521 0.33098,-0.10046 0.67995,0.38456 0.98702,0.29438 0.30707,-0.0902 0.24944,-0.61109 0.58009,-0.67533 0.33065,-0.0642 0.68146,0.61228 1.00434,0.51948 0.32288,-0.0928 0.13367,-0.64403 0.45022,-0.76191 0.31655,-0.11788 0.8258,0.48843 1.08227,0.36364 0.25647,-0.12479 0.2329,-0.34026 0.19047,-0.5368 -0.0424,-0.19654 -0.30436,-0.2969 -0.44156,-0.45888 -0.27197,-0.32108 -0.53277,-0.6546 -0.75325,-1.013 -0.16231,-0.26383 -0.39828,-0.79654 -0.41559,-0.83117 -0.0173,-0.0346 -0.40693,-0.97837 -0.42425,-1.03032 -0.0173,-0.0519 -0.26842,-0.78787 -0.30303,-0.85715 -0.0346,-0.0693 -0.29438,-0.85715 -0.29438,-0.91776 0,-0.0606 -0.0433,-0.47619 -0.0433,-0.47619 l -4.57277,0.20475 H 126.656 Z"
         id="path114"
         sodipodi:nodetypes="csssssszzzzzzzzzzzzzzzzzzzzzsssssscccc" /><path
         style="fill:url(#radialGradient197);fill-opacity:1;fill-rule:evenodd;stroke:none;stroke-width:0.264583px;stroke-linecap:butt;stroke-linejoin:miter;stroke-opacity:1"
         d="m 133.27403,107.73266 c -0.095,-0.008 -0.20389,-0.0578 -0.28572,-0.009 -0.0831,0.0496 -0.11581,0.16397 -0.12987,0.25975 -0.01,0.0667 0,0.18182 0.0346,0.19913 0.0346,0.0173 0.22613,0.0335 0.33767,0.0173 0.10298,-0.0149 0.22967,-0.0224 0.29438,-0.1039 0.0488,-0.0614 0.0618,-0.16404 0.026,-0.23377 -0.0378,-0.0736 -0.13805,-0.0949 -0.21646,-0.12121 -0.0193,-0.006 -0.0403,-0.007 -0.0606,-0.008 z"
         id="path115"
         sodipodi:nodetypes="sssssssss" /><path
         style="fill:url(#radialGradient117);fill-rule:evenodd;stroke:none;stroke-width:0.264583px;stroke-linecap:butt;stroke-linejoin:miter;stroke-opacity:1"
         d="m 132.93039,106.2145 c 0.0501,-0.0167 0.094,-0.0509 0.124,-0.0944 0.03,-0.0435 0.0464,-0.096 0.0482,-0.14882 0.002,-0.0571 -0.013,-0.11503 -0.0444,-0.16271 -0.0315,-0.0477 -0.0796,-0.0846 -0.13451,-0.10037 -0.0585,-0.0168 -0.12069,-0.01 -0.18148,-0.007 -0.0304,0.001 -0.061,8.5e-4 -0.091,-0.004 -0.03,-0.005 -0.0594,-0.0155 -0.0841,-0.0333 -0.0353,-0.0253 -0.0589,-0.064 -0.0756,-0.10415 -0.0167,-0.0401 -0.0275,-0.0825 -0.043,-0.12305 -0.0305,-0.0799 -0.0815,-0.15444 -0.1543,-0.19937 -0.0381,-0.0235 -0.0815,-0.0384 -0.12606,-0.0427 -0.0445,-0.004 -0.0902,0.002 -0.13149,0.0195 -0.0807,0.0335 -0.1417,0.10712 -0.16792,0.19049 -0.0291,0.0926 -0.0182,0.19411 -0.0473,0.28669 -0.006,0.0194 -0.0141,0.0385 -0.0269,0.0543 -0.0185,0.0228 -0.0461,0.0371 -0.0748,0.0433 -0.0287,0.006 -0.0585,0.005 -0.0876,7.4e-4 -0.0581,-0.008 -0.11563,-0.0284 -0.17409,-0.0227 -0.0458,0.004 -0.0896,0.0249 -0.12338,0.0561 -0.0338,0.0311 -0.0577,0.0726 -0.0691,0.11716 -0.0145,0.0562 -0.009,0.11733 0.0151,0.17003 0.0243,0.0527 0.0674,0.0965 0.11987,0.12134 0.043,0.0203 0.0907,0.0278 0.13743,0.0367 0.0467,0.009 0.0943,0.02 0.13393,0.0463 0.0432,0.0286 0.0734,0.0729 0.0998,0.11749 0.0657,0.11117 0.11662,0.23471 0.21108,0.32272 0.0921,0.0858 0.22206,0.1295 0.34731,0.11671 0.0495,-0.006 0.0972,-0.0258 0.13599,-0.057 0.0388,-0.0312 0.0685,-0.0736 0.0848,-0.12063 0.0198,-0.0574 0.0194,-0.11936 0.0229,-0.17994 0.004,-0.0606 0.0121,-0.12361 0.0466,-0.17354 0.0326,-0.0472 0.0859,-0.077 0.1413,-0.0919 0.0554,-0.0149 0.11432,-0.0151 0.16877,-0.0332 1e-5,0 2e-5,-1e-5 3e-5,-1e-5 z"
         id="path116"
         inkscape:path-effect="#path-effect116"
         inkscape:original-d="m 132.93039,106.2145 c 0.10206,-0.0349 0.1575,-0.13784 0.17222,-0.2432 0.0171,-0.12235 -0.0905,-0.20608 -0.17894,-0.26308 -0.1063,-0.0685 -0.23777,-0.0348 -0.35662,-0.045 -0.0844,-0.007 -0.0813,-0.15147 -0.11855,-0.2272 -0.0388,-0.0789 -0.0736,-0.15887 -0.1543,-0.19937 -0.0791,-0.0397 -0.17785,-0.058 -0.25755,-0.0232 -0.0799,0.0349 -0.13829,0.1109 -0.16792,0.19049 -0.0337,0.0904 -0.0565,0.19452 -0.0473,0.28669 0.005,0.0492 0.0465,0.0895 -0.0269,0.0543 -0.10459,-0.0502 -0.23504,-0.029 -0.33651,0.0213 -0.0776,0.0384 -0.16758,0.0797 -0.19252,0.17323 -0.0316,0.11846 0.0589,0.22789 0.13497,0.29137 0.093,0.0776 0.16117,0.0899 0.27136,0.083 0.0886,-0.006 0.0997,0.0517 0.0998,0.11749 2.1e-4,0.15528 0.0618,0.24339 0.21108,0.32272 0.11524,0.0612 0.22298,0.0917 0.34731,0.11671 0.0979,0.0266 0.1942,-0.0747 0.22077,-0.17761 0.0231,-0.0896 0.17277,-0.51098 0.0695,-0.35348 -0.0907,0.13835 0.15448,-0.064 0.31007,-0.12515 z"
         sodipodi:nodetypes="sssssssssssssssscsss" /><path
         style="fill:url(#radialGradient137);fill-rule:evenodd;stroke:none;stroke-width:0.264583px;stroke-linecap:butt;stroke-linejoin:miter;stroke-opacity:1"
         d="m 132.93039,106.2145 c 0.0501,-0.0167 0.094,-0.0509 0.124,-0.0944 0.03,-0.0435 0.0464,-0.096 0.0482,-0.14882 0.002,-0.0571 -0.013,-0.11503 -0.0444,-0.16271 -0.0315,-0.0477 -0.0796,-0.0846 -0.13451,-0.10037 -0.0585,-0.0168 -0.12069,-0.01 -0.18148,-0.007 -0.0304,0.001 -0.061,8.5e-4 -0.091,-0.004 -0.03,-0.005 -0.0594,-0.0155 -0.0841,-0.0333 -0.0353,-0.0253 -0.0589,-0.064 -0.0756,-0.10415 -0.0167,-0.0401 -0.0275,-0.0825 -0.043,-0.12305 -0.0305,-0.0799 -0.0815,-0.15444 -0.1543,-0.19937 -0.0381,-0.0235 -0.0815,-0.0384 -0.12606,-0.0427 -0.0445,-0.004 -0.0902,0.002 -0.13149,0.0195 -0.0807,0.0335 -0.1417,0.10712 -0.16792,0.19049 -0.0291,0.0926 -0.0182,0.19411 -0.0473,0.28669 -0.006,0.0194 -0.0141,0.0385 -0.0269,0.0543 -0.0185,0.0228 -0.0461,0.0371 -0.0748,0.0433 -0.0287,0.006 -0.0585,0.005 -0.0876,7.4e-4 -0.0581,-0.008 -0.11563,-0.0284 -0.17409,-0.0227 -0.0458,0.004 -0.0896,0.0249 -0.12338,0.0561 -0.0338,0.0311 -0.0577,0.0726 -0.0691,0.11716 -0.0145,0.0562 -0.009,0.11733 0.0151,0.17003 0.0243,0.0527 0.0674,0.0965 0.11987,0.12134 0.043,0.0203 0.0907,0.0278 0.13743,0.0367 0.0467,0.009 0.0943,0.02 0.13393,0.0463 0.0432,0.0286 0.0734,0.0729 0.0998,0.11749 0.0657,0.11117 0.11662,0.23471 0.21108,0.32272 0.0921,0.0858 0.22206,0.1295 0.34731,0.11671 0.0495,-0.006 0.0972,-0.0258 0.13599,-0.057 0.0388,-0.0312 0.0685,-0.0736 0.0848,-0.12063 0.0198,-0.0574 0.0194,-0.11936 0.0229,-0.17994 0.004,-0.0606 0.0121,-0.12361 0.0466,-0.17354 0.0326,-0.0472 0.0859,-0.077 0.1413,-0.0919 0.0554,-0.0149 0.11432,-0.0151 0.16877,-0.0332 1e-5,0 2e-5,-1e-5 3e-5,-1e-5 z"
         id="path125"
         inkscape:path-effect="#path-effect137"
         inkscape:original-d="m 132.93039,106.2145 c 0.10206,-0.0349 0.1575,-0.13784 0.17222,-0.2432 0.0171,-0.12235 -0.0905,-0.20608 -0.17894,-0.26308 -0.1063,-0.0685 -0.23777,-0.0348 -0.35662,-0.045 -0.0844,-0.007 -0.0813,-0.15147 -0.11855,-0.2272 -0.0388,-0.0789 -0.0736,-0.15887 -0.1543,-0.19937 -0.0791,-0.0397 -0.17785,-0.058 -0.25755,-0.0232 -0.0799,0.0349 -0.13829,0.1109 -0.16792,0.19049 -0.0337,0.0904 -0.0565,0.19452 -0.0473,0.28669 0.005,0.0492 0.0465,0.0895 -0.0269,0.0543 -0.10459,-0.0502 -0.23504,-0.029 -0.33651,0.0213 -0.0776,0.0384 -0.16758,0.0797 -0.19252,0.17323 -0.0316,0.11846 0.0589,0.22789 0.13497,0.29137 0.093,0.0776 0.16117,0.0899 0.27136,0.083 0.0886,-0.006 0.0997,0.0517 0.0998,0.11749 2.1e-4,0.15528 0.0618,0.24339 0.21108,0.32272 0.11524,0.0612 0.22298,0.0917 0.34731,0.11671 0.0979,0.0266 0.1942,-0.0747 0.22077,-0.17761 0.0231,-0.0896 0.17277,-0.51098 0.0695,-0.35348 -0.0907,0.13835 0.15448,-0.064 0.31007,-0.12515 z"
         sodipodi:nodetypes="sssssssssssssssscsss"
         transform="rotate(31.604339,135.59379,110.15536)" /><path
         style="fill:url(#radialGradient147);fill-rule:evenodd;stroke:none;stroke-width:0.264583px;stroke-linecap:butt;stroke-linejoin:miter;stroke-opacity:1"
         d="m 132.93039,106.2145 c 0.0501,-0.0167 0.094,-0.0509 0.124,-0.0944 0.03,-0.0435 0.0464,-0.096 0.0482,-0.14882 0.002,-0.0571 -0.013,-0.11503 -0.0444,-0.16271 -0.0315,-0.0477 -0.0796,-0.0846 -0.13451,-0.10037 -0.0585,-0.0168 -0.12069,-0.01 -0.18148,-0.007 -0.0304,0.001 -0.061,8.5e-4 -0.091,-0.004 -0.03,-0.005 -0.0594,-0.0155 -0.0841,-0.0333 -0.0353,-0.0253 -0.0589,-0.064 -0.0756,-0.10415 -0.0167,-0.0401 -0.0275,-0.0825 -0.043,-0.12305 -0.0305,-0.0799 -0.0815,-0.15444 -0.1543,-0.19937 -0.0381,-0.0235 -0.0815,-0.0384 -0.12606,-0.0427 -0.0445,-0.004 -0.0902,0.002 -0.13149,0.0195 -0.0807,0.0335 -0.1417,0.10712 -0.16792,0.19049 -0.0291,0.0926 -0.0182,0.19411 -0.0473,0.28669 -0.006,0.0194 -0.0141,0.0385 -0.0269,0.0543 -0.0185,0.0228 -0.0461,0.0371 -0.0748,0.0433 -0.0287,0.006 -0.0585,0.005 -0.0876,7.4e-4 -0.0581,-0.008 -0.11563,-0.0284 -0.17409,-0.0227 -0.0458,0.004 -0.0896,0.0249 -0.12338,0.0561 -0.0338,0.0311 -0.0577,0.0726 -0.0691,0.11716 -0.0145,0.0562 -0.009,0.11733 0.0151,0.17003 0.0243,0.0527 0.0674,0.0965 0.11987,0.12134 0.043,0.0203 0.0907,0.0278 0.13743,0.0367 0.0467,0.009 0.0943,0.02 0.13393,0.0463 0.0432,0.0286 0.0734,0.0729 0.0998,0.11749 0.0657,0.11117 0.11662,0.23471 0.21108,0.32272 0.0921,0.0858 0.22206,0.1295 0.34731,0.11671 0.0495,-0.006 0.0972,-0.0258 0.13599,-0.057 0.0388,-0.0312 0.0685,-0.0736 0.0848,-0.12063 0.0198,-0.0574 0.0194,-0.11936 0.0229,-0.17994 0.004,-0.0606 0.0121,-0.12361 0.0466,-0.17354 0.0326,-0.0472 0.0859,-0.077 0.1413,-0.0919 0.0554,-0.0149 0.11432,-0.0151 0.16877,-0.0332 1e-5,0 2e-5,-1e-5 3e-5,-1e-5 z"
         id="path142"
         inkscape:path-effect="#path-effect147"
         inkscape:original-d="m 132.93039,106.2145 c 0.10206,-0.0349 0.1575,-0.13784 0.17222,-0.2432 0.0171,-0.12235 -0.0905,-0.20608 -0.17894,-0.26308 -0.1063,-0.0685 -0.23777,-0.0348 -0.35662,-0.045 -0.0844,-0.007 -0.0813,-0.15147 -0.11855,-0.2272 -0.0388,-0.0789 -0.0736,-0.15887 -0.1543,-0.19937 -0.0791,-0.0397 -0.17785,-0.058 -0.25755,-0.0232 -0.0799,0.0349 -0.13829,0.1109 -0.16792,0.19049 -0.0337,0.0904 -0.0565,0.19452 -0.0473,0.28669 0.005,0.0492 0.0465,0.0895 -0.0269,0.0543 -0.10459,-0.0502 -0.23504,-0.029 -0.33651,0.0213 -0.0776,0.0384 -0.16758,0.0797 -0.19252,0.17323 -0.0316,0.11846 0.0589,0.22789 0.13497,0.29137 0.093,0.0776 0.16117,0.0899 0.27136,0.083 0.0886,-0.006 0.0997,0.0517 0.0998,0.11749 2.1e-4,0.15528 0.0618,0.24339 0.21108,0.32272 0.11524,0.0612 0.22298,0.0917 0.34731,0.11671 0.0979,0.0266 0.1942,-0.0747 0.22077,-0.17761 0.0231,-0.0896 0.17277,-0.51098 0.0695,-0.35348 -0.0907,0.13835 0.15448,-0.064 0.31007,-0.12515 z"
         sodipodi:nodetypes="sssssssssssssssscsss"
         transform="translate(3.4978697,2.0779424)" /><path
         style="fill:url(#radialGradient176);fill-rule:evenodd;stroke:none;stroke-width:0.264583px;stroke-linecap:butt;stroke-linejoin:miter;stroke-opacity:1"
         d="m 132.93039,106.2145 c 0.0501,-0.0167 0.094,-0.0509 0.124,-0.0944 0.03,-0.0435 0.0464,-0.096 0.0482,-0.14882 0.002,-0.0571 -0.013,-0.11503 -0.0444,-0.16271 -0.0315,-0.0477 -0.0796,-0.0846 -0.13451,-0.10037 -0.0585,-0.0168 -0.12069,-0.01 -0.18148,-0.007 -0.0304,0.001 -0.061,8.5e-4 -0.091,-0.004 -0.03,-0.005 -0.0594,-0.0155 -0.0841,-0.0333 -0.0353,-0.0253 -0.0589,-0.064 -0.0756,-0.10415 -0.0167,-0.0401 -0.0275,-0.0825 -0.043,-0.12305 -0.0305,-0.0799 -0.0815,-0.15444 -0.1543,-0.19937 -0.0381,-0.0235 -0.0815,-0.0384 -0.12606,-0.0427 -0.0445,-0.004 -0.0902,0.002 -0.13149,0.0195 -0.0807,0.0335 -0.1417,0.10712 -0.16792,0.19049 -0.0291,0.0926 -0.0182,0.19411 -0.0473,0.28669 -0.006,0.0194 -0.0141,0.0385 -0.0269,0.0543 -0.0185,0.0228 -0.0461,0.0371 -0.0748,0.0433 -0.0287,0.006 -0.0585,0.005 -0.0876,7.4e-4 -0.0581,-0.008 -0.11563,-0.0284 -0.17409,-0.0227 -0.0458,0.004 -0.0896,0.0249 -0.12338,0.0561 -0.0338,0.0311 -0.0577,0.0726 -0.0691,0.11716 -0.0145,0.0562 -0.009,0.11733 0.0151,0.17003 0.0243,0.0527 0.0674,0.0965 0.11987,0.12134 0.043,0.0203 0.0907,0.0278 0.13743,0.0367 0.0467,0.009 0.0943,0.02 0.13393,0.0463 0.0432,0.0286 0.0734,0.0729 0.0998,0.11749 0.0657,0.11117 0.11662,0.23471 0.21108,0.32272 0.0921,0.0858 0.22206,0.1295 0.34731,0.11671 0.0495,-0.006 0.0972,-0.0258 0.13599,-0.057 0.0388,-0.0312 0.0685,-0.0736 0.0848,-0.12063 0.0198,-0.0574 0.0194,-0.11936 0.0229,-0.17994 0.004,-0.0606 0.0121,-0.12361 0.0466,-0.17354 0.0326,-0.0472 0.0859,-0.077 0.1413,-0.0919 0.0554,-0.0149 0.11432,-0.0151 0.16877,-0.0332 1e-5,0 2e-5,-1e-5 3e-5,-1e-5 z"
         id="path154"
         inkscape:path-effect="#path-effect176"
         inkscape:original-d="m 132.93039,106.2145 c 0.10206,-0.0349 0.1575,-0.13784 0.17222,-0.2432 0.0171,-0.12235 -0.0905,-0.20608 -0.17894,-0.26308 -0.1063,-0.0685 -0.23777,-0.0348 -0.35662,-0.045 -0.0844,-0.007 -0.0813,-0.15147 -0.11855,-0.2272 -0.0388,-0.0789 -0.0736,-0.15887 -0.1543,-0.19937 -0.0791,-0.0397 -0.17785,-0.058 -0.25755,-0.0232 -0.0799,0.0349 -0.13829,0.1109 -0.16792,0.19049 -0.0337,0.0904 -0.0565,0.19452 -0.0473,0.28669 0.005,0.0492 0.0465,0.0895 -0.0269,0.0543 -0.10459,-0.0502 -0.23504,-0.029 -0.33651,0.0213 -0.0776,0.0384 -0.16758,0.0797 -0.19252,0.17323 -0.0316,0.11846 0.0589,0.22789 0.13497,0.29137 0.093,0.0776 0.16117,0.0899 0.27136,0.083 0.0886,-0.006 0.0997,0.0517 0.0998,0.11749 2.1e-4,0.15528 0.0618,0.24339 0.21108,0.32272 0.11524,0.0612 0.22298,0.0917 0.34731,0.11671 0.0979,0.0266 0.1942,-0.0747 0.22077,-0.17761 0.0231,-0.0896 0.17277,-0.51098 0.0695,-0.35348 -0.0907,0.13835 0.15448,-0.064 0.31007,-0.12515 z"
         sodipodi:nodetypes="sssssssssssssssscsss"
         transform="rotate(31.604339,127.36271,100.91981)" /><path
         style="fill:url(#radialGradient190);fill-rule:evenodd;stroke:none;stroke-width:0.264583px;stroke-linecap:butt;stroke-linejoin:miter;stroke-opacity:1"
         d="m 132.93039,106.2145 c 0.0501,-0.0167 0.094,-0.0509 0.124,-0.0944 0.03,-0.0435 0.0464,-0.096 0.0482,-0.14882 0.002,-0.0571 -0.013,-0.11503 -0.0444,-0.16271 -0.0315,-0.0477 -0.0796,-0.0846 -0.13451,-0.10037 -0.0585,-0.0168 -0.12069,-0.01 -0.18148,-0.007 -0.0304,0.001 -0.061,8.5e-4 -0.091,-0.004 -0.03,-0.005 -0.0594,-0.0155 -0.0841,-0.0333 -0.0353,-0.0253 -0.0589,-0.064 -0.0756,-0.10415 -0.0167,-0.0401 -0.0275,-0.0825 -0.043,-0.12305 -0.0305,-0.0799 -0.0815,-0.15444 -0.1543,-0.19937 -0.0381,-0.0235 -0.0815,-0.0384 -0.12606,-0.0427 -0.0445,-0.004 -0.0902,0.002 -0.13149,0.0195 -0.0807,0.0335 -0.1417,0.10712 -0.16792,0.19049 -0.0291,0.0926 -0.0182,0.19411 -0.0473,0.28669 -0.006,0.0194 -0.0141,0.0385 -0.0269,0.0543 -0.0185,0.0228 -0.0461,0.0371 -0.0748,0.0433 -0.0287,0.006 -0.0585,0.005 -0.0876,7.4e-4 -0.0581,-0.008 -0.11563,-0.0284 -0.17409,-0.0227 -0.0458,0.004 -0.0896,0.0249 -0.12338,0.0561 -0.0338,0.0311 -0.0577,0.0726 -0.0691,0.11716 -0.0145,0.0562 -0.009,0.11733 0.0151,0.17003 0.0243,0.0527 0.0674,0.0965 0.11987,0.12134 0.043,0.0203 0.0907,0.0278 0.13743,0.0367 0.0467,0.009 0.0943,0.02 0.13393,0.0463 0.0432,0.0286 0.0734,0.0729 0.0998,0.11749 0.0657,0.11117 0.11662,0.23471 0.21108,0.32272 0.0921,0.0858 0.22206,0.1295 0.34731,0.11671 0.0495,-0.006 0.0972,-0.0258 0.13599,-0.057 0.0388,-0.0312 0.0685,-0.0736 0.0848,-0.12063 0.0198,-0.0574 0.0194,-0.11936 0.0229,-0.17994 0.004,-0.0606 0.0121,-0.12361 0.0466,-0.17354 0.0326,-0.0472 0.0859,-0.077 0.1413,-0.0919 0.0554,-0.0149 0.11432,-0.0151 0.16877,-0.0332 1e-5,0 2e-5,-1e-5 3e-5,-1e-5 z"
         id="path176"
         inkscape:path-effect="#path-effect190"
         inkscape:original-d="m 132.93039,106.2145 c 0.10206,-0.0349 0.1575,-0.13784 0.17222,-0.2432 0.0171,-0.12235 -0.0905,-0.20608 -0.17894,-0.26308 -0.1063,-0.0685 -0.23777,-0.0348 -0.35662,-0.045 -0.0844,-0.007 -0.0813,-0.15147 -0.11855,-0.2272 -0.0388,-0.0789 -0.0736,-0.15887 -0.1543,-0.19937 -0.0791,-0.0397 -0.17785,-0.058 -0.25755,-0.0232 -0.0799,0.0349 -0.13829,0.1109 -0.16792,0.19049 -0.0337,0.0904 -0.0565,0.19452 -0.0473,0.28669 0.005,0.0492 0.0465,0.0895 -0.0269,0.0543 -0.10459,-0.0502 -0.23504,-0.029 -0.33651,0.0213 -0.0776,0.0384 -0.16758,0.0797 -0.19252,0.17323 -0.0316,0.11846 0.0589,0.22789 0.13497,0.29137 0.093,0.0776 0.16117,0.0899 0.27136,0.083 0.0886,-0.006 0.0997,0.0517 0.0998,0.11749 2.1e-4,0.15528 0.0618,0.24339 0.21108,0.32272 0.11524,0.0612 0.22298,0.0917 0.34731,0.11671 0.0979,0.0266 0.1942,-0.0747 0.22077,-0.17761 0.0231,-0.0896 0.17277,-0.51098 0.0695,-0.35348 -0.0907,0.13835 0.15448,-0.064 0.31007,-0.12515 z"
         sodipodi:nodetypes="sssssssssssssssscsss"
         transform="rotate(-10.814453,125.3714,132.55452)" /><path
         style="fill:url(#radialGradient199);fill-opacity:1;fill-rule:evenodd;stroke:none;stroke-width:0.264583px;stroke-linecap:butt;stroke-linejoin:miter;stroke-opacity:1"
         d="m 136.25241,106.20884 c -0.095,-0.008 -0.20389,-0.0578 -0.28572,-0.009 -0.0831,0.0496 -0.11581,0.16397 -0.12987,0.25975 -0.01,0.0667 0,0.18182 0.0346,0.19913 0.0346,0.0173 0.22613,0.0335 0.33767,0.0173 0.10298,-0.0149 0.22967,-0.0224 0.29438,-0.1039 0.0488,-0.0614 0.0618,-0.16404 0.026,-0.23377 -0.0378,-0.0736 -0.13805,-0.0949 -0.21646,-0.12121 -0.0193,-0.006 -0.0403,-0.007 -0.0606,-0.008 z"
         id="path190"
         sodipodi:nodetypes="sssssssss" /><path
         style="fill:url(#radialGradient193);fill-opacity:1;fill-rule:evenodd;stroke:none;stroke-width:0.436089px;stroke-linecap:butt;stroke-linejoin:miter;stroke-opacity:1"
         d="m 126.35672,106.8938 c -0.13631,-0.0152 -0.29256,-0.10943 -0.40997,-0.017 -0.11924,0.0939 -0.16618,0.31044 -0.18635,0.49177 -0.0144,0.12628 0,0.34424 0.0496,0.37701 0.0496,0.0327 0.32447,0.0634 0.48451,0.0327 0.14777,-0.0282 0.32955,-0.0424 0.42241,-0.19671 0.07,-0.11624 0.0887,-0.31057 0.0373,-0.44258 -0.0542,-0.13935 -0.19808,-0.17967 -0.31059,-0.22949 -0.0277,-0.0114 -0.0578,-0.0132 -0.087,-0.0151 z"
         id="path192"
         sodipodi:nodetypes="sssssssss" /><path
         style="fill:url(#radialGradient198);fill-opacity:1;fill-rule:evenodd;stroke:none;stroke-width:0.511649px;stroke-linecap:butt;stroke-linejoin:miter;stroke-opacity:1"
         d="m 131.01512,108.14885 c -0.16386,-0.0174 -0.35167,-0.12532 -0.49281,-0.0195 -0.14333,0.10753 -0.19975,0.3555 -0.224,0.56316 -0.0172,0.14461 0,0.39421 0.0597,0.43174 0.0597,0.0375 0.39003,0.0726 0.58241,0.0375 0.17762,-0.0323 0.39614,-0.0486 0.50775,-0.22526 0.0842,-0.13312 0.10659,-0.35566 0.0448,-0.50684 -0.0652,-0.15957 -0.23811,-0.20575 -0.37336,-0.2628 -0.0333,-0.013 -0.0695,-0.0152 -0.10452,-0.0173 z"
         id="path197"
         sodipodi:nodetypes="sssssssss" /><path
         style="fill:url(#radialGradient201);fill-opacity:1;fill-rule:evenodd;stroke:none;stroke-width:0.511649px;stroke-linecap:butt;stroke-linejoin:miter;stroke-opacity:1"
         d="m 129.9237,104.56016 c -0.16386,-0.0174 -0.35167,-0.12532 -0.49281,-0.0195 -0.14333,0.10753 -0.19975,0.3555 -0.224,0.56316 -0.0172,0.14461 0,0.39421 0.0597,0.43174 0.0597,0.0375 0.39003,0.0726 0.58241,0.0375 0.17762,-0.0323 0.39614,-0.0486 0.50775,-0.22526 0.0842,-0.13312 0.10659,-0.35566 0.0448,-0.50684 -0.0652,-0.15957 -0.23811,-0.20575 -0.37336,-0.2628 -0.0333,-0.013 -0.0695,-0.0152 -0.10452,-0.0173 z"
         id="path201"
         sodipodi:nodetypes="sssssssss" /></g></g></svg>
