<?xml version="1.0" encoding="UTF-8" standalone="no"?>
<!-- Created with Inkscape (http://www.inkscape.org/) -->

<svg
   width="76.757545"
   height="73.439087"
   viewBox="0 0 20.308767 19.430758"
   version="1.1"
   id="svg1"
   xml:space="preserve"
   sodipodi:docname="GranMa.svg"
   inkscape:version="1.3 (0e150ed6c4, 2023-07-21)"
   xmlns:inkscape="http://www.inkscape.org/namespaces/inkscape"
   xmlns:sodipodi="http://sodipodi.sourceforge.net/DTD/sodipodi-0.dtd"
   xmlns:xlink="http://www.w3.org/1999/xlink"
   xmlns="http://www.w3.org/2000/svg"
   xmlns:svg="http://www.w3.org/2000/svg"><sodipodi:namedview
     id="namedview1"
     pagecolor="#505050"
     bordercolor="#eeeeee"
     borderopacity="1"
     inkscape:showpageshadow="0"
     inkscape:pageopacity="0"
     inkscape:pagecheckerboard="0"
     inkscape:deskcolor="#121212"
     inkscape:document-units="mm"
     inkscape:zoom="0.67526655"
     inkscape:cx="545.71043"
     inkscape:cy="550.89357"
     inkscape:window-width="1280"
     inkscape:window-height="961"
     inkscape:window-x="-8"
     inkscape:window-y="-8"
     inkscape:window-maximized="1"
     inkscape:current-layer="layer1" /><defs
     id="defs1"><linearGradient
       id="linearGradient203"
       inkscape:collect="always"><stop
         style="stop-color:#b0a68f;stop-opacity:1;"
         offset="0"
         id="stop203" /><stop
         style="stop-color:#a88e6e;stop-opacity:1;"
         offset="1"
         id="stop204" /></linearGradient><linearGradient
       id="linearGradient202"
       inkscape:collect="always"><stop
         style="stop-color:#d3d5d4;stop-opacity:1;"
         offset="0.21355931"
         id="stop201" /><stop
         style="stop-color:#b9a88b;stop-opacity:1;"
         offset="1"
         id="stop202" /></linearGradient><linearGradient
       id="linearGradient86"
       inkscape:collect="always"><stop
         style="stop-color:#d3d8d8;stop-opacity:1;"
         offset="0.21355931"
         id="stop86" /><stop
         style="stop-color:#c2b193;stop-opacity:1;"
         offset="1"
         id="stop87" /></linearGradient><linearGradient
       id="linearGradient66"
       inkscape:collect="always"><stop
         style="stop-color:#fc9b87;stop-opacity:1;"
         offset="0"
         id="stop69" /><stop
         style="stop-color:#e68266;stop-opacity:1;"
         offset="1"
         id="stop70" /></linearGradient><inkscape:path-effect
       effect="bspline"
       id="path-effect64"
       is_visible="true"
       lpeversion="1.3"
       weight="33.333333"
       steps="2"
       helper_size="0"
       apply_no_weight="true"
       apply_with_weight="true"
       only_selected="false"
       uniform="false" /><linearGradient
       id="linearGradient15"
       inkscape:collect="always"><stop
         style="stop-color:#561407;stop-opacity:1;"
         offset="0"
         id="stop16" /><stop
         style="stop-color:#a55334;stop-opacity:1;"
         offset="1"
         id="stop17" /></linearGradient><linearGradient
       inkscape:collect="always"
       xlink:href="#linearGradient15"
       id="linearGradient56"
       x1="130.47975"
       y1="84.622437"
       x2="132.51549"
       y2="85.696037"
       gradientUnits="userSpaceOnUse"
       gradientTransform="matrix(0.91275837,0,0,0.91275837,-135.5015,93.168673)" /><linearGradient
       inkscape:collect="always"
       xlink:href="#linearGradient66"
       id="linearGradient70"
       x1="86.553558"
       y1="145.8801"
       x2="88.41507"
       y2="145.8801"
       gradientUnits="userSpaceOnUse" /><linearGradient
       inkscape:collect="always"
       xlink:href="#linearGradient15"
       id="linearGradient77"
       x1="124.50963"
       y1="85.039803"
       x2="125.93439"
       y2="86.303886"
       gradientUnits="userSpaceOnUse"
       gradientTransform="matrix(0.91275837,0,0,0.91275837,-135.5015,93.168673)" /><linearGradient
       inkscape:collect="always"
       xlink:href="#linearGradient86"
       id="linearGradient87"
       x1="125.76722"
       y1="78.602814"
       x2="123.52068"
       y2="83.397095"
       gradientUnits="userSpaceOnUse"
       gradientTransform="matrix(0.91275837,0,0,0.91275837,-135.46989,93.168673)" /><linearGradient
       inkscape:collect="always"
       xlink:href="#linearGradient202"
       id="linearGradient89"
       x1="129.65099"
       y1="78.335121"
       x2="133.86723"
       y2="81.945541"
       gradientUnits="userSpaceOnUse"
       gradientTransform="matrix(0.91275837,0,0,0.91275837,-135.69117,93.168673)" /><linearGradient
       inkscape:collect="always"
       xlink:href="#linearGradient203"
       id="linearGradient204"
       x1="137.88589"
       y1="79.310562"
       x2="137.57298"
       y2="88.028564"
       gradientUnits="userSpaceOnUse"
       gradientTransform="matrix(0.91275837,0,0,0.91275837,-135.5015,93.168673)" /><linearGradient
       id="swatch2"
       inkscape:swatch="solid"><stop
         style="stop-color:#000000;stop-opacity:1;"
         offset="0"
         id="stop2-3" /></linearGradient></defs><g
     inkscape:label="Layer 1"
     inkscape:groupmode="layer"
     id="layer1"
     transform="translate(19.955033,-158.68582)"><g
       id="g377"
       transform="matrix(-1,0,0,1,-26.943359,0)"><path
         style="fill:#fdc1a6;fill-opacity:1;fill-rule:evenodd;stroke:#000000;stroke-width:0.2415px;stroke-linecap:butt;stroke-linejoin:miter;stroke-opacity:1"
         d="m -23.140245,171.57973 c 0,0 -0.30583,-0.17518 -0.47417,-0.17386 -0.14676,0.001 -0.36354,0.0948 -0.41094,0.15806 -0.0474,0.0632 -0.13592,0.26585 -0.15805,0.41094 -0.0246,0.16179 -0.02,0.33463 0.0316,0.48997 0.0396,0.11928 0.11094,0.2333 0.20548,0.31611 0.0922,0.0807 0.17385,0.11064 0.33191,0.15805 0.15806,0.0474 0.41095,0.12645 0.41095,0.12645 z"
         id="path89"
         sodipodi:nodetypes="csssssscc" /><path
         style="fill:#d18d76;fill-opacity:1;fill-rule:evenodd;stroke:none;stroke-width:0.2415px;stroke-linecap:butt;stroke-linejoin:miter;stroke-opacity:1"
         d="m -23.834525,171.92912 c 0.0837,-0.0469 0.65842,0.10278 0.89409,0.31293 0.19773,0.17631 0.52592,0.52039 0.34646,0.71528 -0.23808,0.25853 -0.73389,-0.13258 -0.9835,-0.38 -0.16508,-0.16363 -0.41685,-0.55871 -0.25705,-0.64821 z"
         id="path90"
         sodipodi:nodetypes="sssss" /><path
         style="fill:#a88e6e;fill-opacity:1;fill-rule:evenodd;stroke:#000000;stroke-width:0.2415px;stroke-linecap:butt;stroke-linejoin:miter;stroke-opacity:1"
         d="m -23.045405,174.01378 c 0,0 -0.2687,0.42674 -0.44255,0.63221 -0.0798,0.0943 -0.48208,0.39514 -0.57691,0.42675 -0.0948,0.0316 -0.30175,0.10154 -0.51368,0.11064 -0.12806,0.006 -0.26307,-0.009 -0.37933,-0.0632 -0.12542,-0.0582 -0.31611,-0.26869 -0.31611,-0.26869 0,0 0.35787,0.0565 0.49787,0.0237 0.14371,-0.0337 0.25283,-0.12362 0.36353,-0.22128 0.10631,-0.0938 0.2365,-0.29148 0.30031,-0.38723 0.079,-0.11854 0.13432,-0.33193 0.18176,-0.44256 0.0475,-0.11064 0.22918,-0.52948 0.24499,-0.5927 0.0158,-0.0632 0.2924,-0.92462 0.2924,-0.92462 l 0.26869,0.75866 z"
         id="path91"
         sodipodi:nodetypes="csssscsssssccc" /><path
         style="fill:#fdc1a6;fill-opacity:1;fill-rule:evenodd;stroke:#000000;stroke-width:0.2415px;stroke-linecap:butt;stroke-linejoin:miter;stroke-opacity:1"
         d="m -15.442965,176.3688 c 0.44651,-0.20978 0.94328,-0.29835 1.39088,-0.50578 0.46247,-0.21432 0.90694,-0.47093 1.32767,-0.75866 0.46998,-0.32143 0.91587,-0.68155 1.32766,-1.07478 0.18353,-0.17525 0.35742,-0.36311 0.50577,-0.569 0.14123,-0.19599 0.17518,-0.47431 0.36144,-0.62815 0.17623,-0.14555 0.44297,-0.12296 0.6482204,-0.22352 0.20786,-0.10184 0.39956,-0.2365 0.58116,-0.38 0.15301,-0.1209 0.30854,-0.2457 0.42469,-0.40234 0.0695,-0.0937 0.13405,-0.19848 0.15647,-0.31293 0.0373,-0.19067 0.0461,-0.40941 -0.0447,-0.58116 -0.0892,-0.1687 -0.44705,-0.35764 -0.44705,-0.35764 l -0.37999,-2.23523 -3.0622704,-2.97286 -2.79404,-1.16233 -5.23045,-0.0447 -2.72699,2.90581 0.11176,4.42576 c -0.0974,0.58998 -0.21596,0.90799 -0.18995,1.5982 0.0116,0.30662 0.0161,0.59704 0.16764,0.90527 0.16455,0.33468 0.27856,0.55773 0.5141,0.80468 0.27066,0.28377 0.58846,0.52269 0.91645,0.73763 0.29547,0.19363 0.61064,0.36095 0.9388,0.49175 0.43162,0.17205 0.88905,0.27269 1.34113,0.37999 0.38388,0.0911 0.77,0.18183 1.16233,0.22352 0.3409,0.0362 0.68608,0.0441 1.02821,0.0224 0.15038,-0.01 0.44704,-0.0671 0.44704,-0.0671 l 0.0447,1.4082 h 1.31879 l -0.0224,-1.51996 c 0,0 0.11895,-0.077 0.18289,-0.10707 z"
         id="path1"
         sodipodi:nodetypes="ssssssssssscccccccssssssssccccs" /><path
         style="fill:#d18d76;fill-opacity:1;fill-rule:evenodd;stroke:none;stroke-width:0.2415px;stroke-linecap:butt;stroke-linejoin:miter;stroke-opacity:1"
         d="m -9.3639546,171.0282 c -0.0837,-0.0469 -0.6584204,0.10279 -0.8940904,0.31293 -0.19773,0.17632 -0.52591,0.5204 -0.34646,0.71528 0.23808,0.25854 0.7338904,-0.13258 0.9835004,-0.37999 0.16508,-0.16363 0.41686,-0.55872 0.25705,-0.64822 z"
         id="path79"
         sodipodi:nodetypes="sssss" /><path
         style="fill:#d1cec9;fill-opacity:1;fill-rule:evenodd;stroke:#000000;stroke-width:0.2415px;stroke-linecap:butt;stroke-linejoin:miter;stroke-opacity:1"
         d="m -18.161475,158.8563 c -0.48532,0.0342 -0.97857,0.0236 -1.45411,0.12645 -0.37132,0.0803 -0.83191,0.19829 -1.18653,0.33462 -0.38357,0.14747 -0.69883,0.24391 -1.07095,0.41829 -0.47371,0.22199 -0.91827,0.52666 -1.34617,0.82763 -0.44525,0.31319 -0.91157,0.68216 -1.29063,1.07286 -0.29128,0.30023 -0.49447,0.63786 -0.73247,0.98186 -0.16364,0.23651 -0.27668,0.48449 -0.36352,0.75866 -0.10893,0.34389 -0.19143,0.61949 -0.23708,1.12219 0.0265,0.5374 0.0186,0.90881 0.0395,1.44621 0.0106,0.27395 0.0871,0.68746 0.1204,0.9888 0.10109,0.34245 0.17944,0.52353 0.28259,0.80512 0.078,0.21312 0.15419,0.42782 0.25288,0.63222 0.11081,0.2295 0.26147,0.43786 0.37933,0.66383 0.10245,0.19642 0.19592,0.39757 0.28451,0.60061 0.15886,0.36405 0.22022,0.77723 0.44255,1.10638 0.18772,0.27791 0.72705,0.69544 0.72705,0.69544 0,0 0.14094,-0.76 0.22128,-1.13799 0.11691,-0.55004 0.20209,-1.11011 0.37933,-1.64377 0.18142,-0.54626 0.66383,-1.45411 0.69544,-1.58055 0.0316,-0.12645 0.1387,-0.72271 0.34773,-1.01155 0.22486,-0.31072 0.55882,-0.55751 0.91672,-0.69545 0.22698,-0.0875 0.48578,-0.0943 0.72705,-0.0632 0.31072,0.04 0.8851,0.31611 0.8851,0.31611 0,0 0.36066,-0.0978 0.53739,-0.15805 0.19262,-0.0656 0.36899,-0.18375 0.569,-0.22128 0.24855,-0.0466 0.50652,-0.0193 0.75866,0 0.27638,0.0211 0.56078,0.0334 0.82189,0.12645 0.19578,0.0697 0.35946,0.20872 0.53739,0.31611 0.22281,0.13447 0.44255,0.31611 0.66383,0.41094 0.22128,0.0948 0.63098,0.46532 0.94832,0.69544 0.55631,0.40339 1.14607,0.76301 1.67538,1.20122 0.23538,0.19487 0.50578,0.569 0.66384,0.63222 0.15806,0.0632 0.85438,0.50454 1.23283,0.82189 0.25698,0.21548 0.41753,0.53933 0.69544,0.72705 0.1410604,0.0953 0.3188804,0.11992 0.4741704,0.18966 0.086,0.0386 0.25288,0.12645 0.25288,0.12645 0,0 0.22414,-0.59321 0.34772,-0.88511 0.0993,-0.23449 0.19321,-0.47243 0.31612,-0.69544 0.19466,-0.35322 0.49993,-0.64305 0.66382,-1.01155 0.18589,-0.41801 0.21549,-0.88971 0.34772,-1.32767 0.13615,-0.45093 0.34018,-0.88075 0.45832,-1.33674 h 2e-5 c 0.0531,-0.20515 0.063,-0.46987 0.0671,-0.68175 0.005,-0.27075 -0.0308,-0.6197 -0.0671,-0.7488 -0.10058,-0.35764 -0.36113,-0.90628 -0.40618,-0.98351 -0.0782,-0.13411 -0.28097,-0.51757 -0.44952,-0.75614 -0.21466,-0.30384 -0.50455,-0.59928 -0.75366,-0.87558 -0.19168,-0.2126 -0.45124,-0.35251 -0.67057,-0.53645 -0.14377,-0.12057 -2.3451804,-1.34116 -3.6969404,-1.62441 -1.55119,-0.32505 -4.61843,-0.19715 -5.00791,-0.16969 z"
         id="path84"
         sodipodi:nodetypes="ssssssssccccsssscsssssscsssssssssssscssssssccssssss" /><path
         style="fill:url(#linearGradient204);fill-rule:evenodd;stroke:#000000;stroke-width:0.2415px;stroke-linecap:butt;stroke-linejoin:miter;stroke-opacity:1"
         d="m -8.5518446,174.1244 c -0.14359,-0.0463 -0.33085,-0.11314 -0.46682,-0.17849 -0.19112,-0.0919 -0.34109,-0.17169 -0.51312,-0.29568 -0.15715,-0.11327 -0.31025,-0.22654 -0.44447,-0.36623 -0.1291504,-0.13443 -0.2380704,-0.30351 -0.3458004,-0.45565 -0.11714,-0.16541 -0.22182,-0.34464 -0.2845,-0.53739 -0.0691,-0.21256 -0.0929,-0.44031 -0.0948,-0.66383 -0.002,-0.1699 -0.0114,-0.35315 0.0633,-0.50577 0.0654,-0.13387 0.22334,-0.1995 0.31611,-0.31611 0.0619,-0.0778 0.0702,-0.20638 0.15806,-0.25289 0.2423004,-0.12827 0.5988104,0.19101 0.8218804,0.0316 0.0895,-0.064 0.0589,-0.21214 0.0948,-0.31611 0.10359,-0.29958 0.19917,-0.60508 0.34771,-0.88511 0.20954,-0.39503 0.63222,-0.91672 0.75867,-1.10638 0.12644,-0.18967 0.32155,-0.72806 0.44256,-1.10639 0.12224,-0.38216 0.19504,-0.77847 0.2845,-1.1696 0.0673,-0.29414 0.18966,-0.88511 0.18966,-0.88511 0,0 -0.39905,0.0735 -0.60061,0.0948 -0.38827,0.041 -0.77919,0.0592 -1.1696,0.0632 -0.31628,0.003 -0.63713,-0.0881 -0.94833,-0.0316 -0.3253904,0.0591 -0.6076904,0.2616 -0.9167204,0.37933 -0.44843,0.17083 -0.93577,0.24851 -1.35927,0.47416 -0.27898,0.14866 -0.6341,0.27847 -0.75867,0.569 -0.0711,0.16577 -0.0121,0.37348 0.0632,0.53739 0.14938,0.32529 0.66381,0.66383 0.72706,0.79027 0.0633,0.12645 0.42427,0.86269 0.63222,1.29606 0.18026,0.37566 0.54456,0.71391 0.53352,1.13044 -0.003,0.10997 -0.12037,0.18666 -0.15646,0.29058 -0.0844,0.243 -0.13413,0.67056 -0.13413,0.75998 0,0.26823 -0.0342,0.53865 0,0.80468 0.0413,0.32084 0.13886,0.63353 0.24588,0.9388 0.0728,0.20775 0.24836,0.47125 0.30736,0.54204 0.11176,0.13412 0.28439,0.34569 0.46381,0.47499 0.20244,0.1459 0.3271004,0.20435 0.5811604,0.27941 0.21499,0.0635 0.66761,0.1435 0.83821,0.0894 0.23297,-0.0739 0.69292,-0.40234 0.69292,-0.40234 0,0 -0.24996,-0.0331 -0.3693,-0.0715 z"
         id="path2"
         sodipodi:nodetypes="sssssssssssssssscsssssssssssssssssscs" /><path
         style="fill:#d1cec9;fill-opacity:1;fill-rule:evenodd;stroke:none;stroke-width:0.2415px;stroke-linecap:butt;stroke-linejoin:miter;stroke-opacity:1"
         d="m -7.2884546,164.71853 c 0,0 -0.0894,0.73762 -0.17881,0.73762 -0.0894,0 -2.3911,0.25447 -3.2187504,0.55881 -0.82764,0.30434 -1.74347,1.02821 -1.74347,1.02821 l 1.16231,1.81054 -1.07291,0.17882 -1.47525,-3.06227 3.66578,-1.47526 z"
         id="path211"
         sodipodi:nodetypes="cszcccccc" /><path
         style="fill:none;fill-rule:evenodd;stroke:#a07a63;stroke-width:0.424433;stroke-linecap:round;stroke-linejoin:miter;stroke-dasharray:none;stroke-opacity:1"
         d="m -16.897075,167.81802 1.62797,-0.0158"
         id="path85" /><path
         style="fill:url(#linearGradient89);fill-rule:evenodd;stroke:none;stroke-width:0.2415px;stroke-linecap:butt;stroke-linejoin:miter;stroke-opacity:1"
         d="m -9.4368746,168.3396 c -0.16287,0.276 -0.236,0.60848 -0.44256,0.8535 -0.2811604,0.33354 -0.6678504,0.56791 -1.0431504,0.79028 -0.28811,0.17069 -0.59886,0.30559 -0.91672,0.41094 -0.27664,0.0917 -0.56233,0.20217 -0.8535,0.18966 -0.38622,-0.0166 -0.76931,-0.15843 -1.10639,-0.34772 -0.29299,-0.16453 -0.52742,-0.36408 -0.76984,-0.59677 -0.20969,-0.20129 -0.41102,-0.4698 -0.58943,-0.69928 -0.20635,-0.26541 -0.38033,-0.53183 -0.57091,-0.80879 -0.17919,-0.26041 -0.35393,-0.54459 -0.53547,-0.80337 -0.20981,-0.29906 -0.36191,-0.64017 -0.60061,-0.91672 -0.16581,-0.1921 -0.34263,-0.3911 -0.569,-0.50577 -0.26917,-0.13635 -0.58361,-0.17782 -0.88511,-0.18967 -0.15933,-0.006 -0.33121,-0.007 -0.47416,0.0632 -0.14695,0.0726 -0.34772,0.34772 -0.34772,0.34772 0,0 -0.0401,-0.43377 0.0316,-0.63222 0.10741,-0.2973 0.37052,-0.51262 0.56899,-0.75866 0.13132,-0.16279 0.23782,-0.35681 0.41095,-0.47416 0.21239,-0.14398 0.47949,-0.18542 0.72705,-0.25289 0.25919,-0.0706 0.52165,-0.16091 0.79028,-0.15806 0.19428,0.002 0.52293,0.0233 0.71125,0.0711 0.29742,0.0755 0.48258,0.1457 0.74285,0.30821 0.2405,0.15016 0.42485,0.3995 0.61642,0.60851 0.14608,0.15939 0.26384,0.32611 0.39513,0.49788 0.15804,0.20676 0.26613,0.38988 0.41885,0.60061 0.15358,0.21193 0.21612,0.49649 0.32401,0.73495 0.0975,0.21559 0.37987,0.52619 0.5532,0.72705 0.16319,0.18912 0.25773,0.42702 0.41094,0.62432 0.0869,0.11197 0.19025,0.21927 0.31611,0.2845 0.21107,0.10938 0.53739,0.15805 0.69544,0.15805 0.15805,0 0.569,-0.0316 0.69544,-0.0316 0.12645,0 0.57737,-0.0194 0.8534904,-0.0948 0.22293,-0.0609 0.63223,-0.2845 0.63223,-0.2845 0,0 -0.13172,0.18635 -0.18964,0.28451 z"
         id="path3"
         sodipodi:nodetypes="sssssssssssssscssssssssssssssssscs" /><path
         style="fill:none;fill-rule:evenodd;stroke:#a07a63;stroke-width:0.424433;stroke-linecap:round;stroke-linejoin:miter;stroke-dasharray:none;stroke-opacity:1"
         d="m -22.065475,168.21316 1.62797,-0.0158"
         id="path86" /><path
         style="fill:url(#linearGradient87);fill-rule:evenodd;stroke:none;stroke-width:0.2415px;stroke-linecap:butt;stroke-linejoin:miter;stroke-opacity:1"
         d="m -19.015015,166.032 c 0,0 -0.36596,-0.2098 -0.56899,-0.25289 -0.20615,-0.0438 -0.43154,-0.0643 -0.63223,0 -0.17263,0.0553 -0.33258,0.17199 -0.44255,0.31611 -0.12942,0.16962 -0.18967,0.47417 -0.22128,0.60061 -0.0316,0.12645 -0.15128,0.54694 -0.22127,0.82189 -0.0668,0.26253 -0.12628,0.52689 -0.18967,0.79027 -0.0736,0.30562 -0.12777,0.6166 -0.22127,0.91672 -0.0874,0.28024 -0.16748,0.56877 -0.31612,0.82189 -0.12501,0.2129 -0.28969,0.40491 -0.47415,0.56899 -0.21619,0.1923 -0.46383,0.35405 -0.72706,0.47417 -0.20936,0.0955 -0.43372,0.19199 -0.66383,0.18966 -0.28663,-0.003 -0.56569,-0.0816 -0.83866,-0.16906 -0.28558,-0.0915 -0.57825,-0.21624 -0.83672,-0.36832 -0.29567,-0.17398 -0.52518,-0.4441 -0.75867,-0.69544 -0.17359,-0.18689 -0.34319,-0.38173 -0.47417,-0.60061 -0.13569,-0.22677 -0.2157,-0.4826 -0.3161,-0.72705 -0.13308,-0.324 -0.37934,-0.97995 -0.37934,-0.97995 0,0 0.33375,0.25762 0.50578,0.37934 0.18609,0.13165 0.36856,0.27076 0.569,0.37933 0.21168,0.11466 0.43997,0.19591 0.66383,0.2845 0.11468,0.0454 0.22626,0.10504 0.34772,0.12644 0.11415,0.0201 0.23184,0.003 0.34772,0 0.22146,-0.005 0.45606,0.0452 0.66383,-0.0316 0.22536,-0.0834 0.4421,-0.23852 0.569,-0.44255 0.19318,-0.3106 0.16256,-0.71375 0.22127,-1.07478 0.0426,-0.26187 0.0352,-0.53177 0.0948,-0.79027 0.0578,-0.25001 0.12656,-0.50371 0.25289,-0.72706 0.16206,-0.28653 0.39463,-0.53081 0.63222,-0.75866 0.16276,-0.15608 0.33512,-0.31125 0.53739,-0.41094 0.25448,-0.12543 0.53862,-0.2051 0.82188,-0.22128 0.21276,-0.0121 0.4261,0.0408 0.63222,0.0948 0.22905,0.0601 0.4698,0.11717 0.66383,0.25289 0.17139,0.11987 0.29169,0.30234 0.41095,0.47416 0.0753,0.10847 0.13423,0.22789 0.18966,0.34772 0.0616,0.13321 0.15805,0.41095 0.15805,0.41095 z"
         id="path4"
         sodipodi:nodetypes="csssssssssssssssscsssssssssssssssssc" /><path
         style="fill:none;fill-rule:evenodd;stroke:url(#linearGradient70);stroke-width:0.565;stroke-linecap:butt;stroke-linejoin:miter;stroke-dasharray:none"
         d="m 87.55064,145.17891 c 0.115448,0.0462 0.145832,0.0583 0.327193,0.20459 0.181361,0.14625 0.205972,0.17846 0.247421,0.28439 0.04145,0.10593 0.03093,0.19551 0.0073,0.27294 -0.02364,0.0774 -0.06036,0.1426 -0.09096,0.2071 -0.03061,0.0645 -0.05515,0.12847 -0.09522,0.1774 -0.04007,0.0489 -0.08496,0.0763 -0.175833,0.15012 -0.09088,0.0738 -0.06482,0.0496 -0.196151,0.0955 -0.131325,0.0459 -0.280752,-0.0132 -0.367299,-0.0495 -0.08655,-0.0363 -0.16279,-0.0879 -0.211567,-0.14645 -0.04878,-0.0585 -0.124606,-0.17236 -0.206859,-0.29581"
         id="path63"
         inkscape:path-effect="#path-effect64"
         inkscape:original-d="m 87.55064,145.17891 c 0.11544,0.0462 0.145845,0.0583 0.346323,0.13853 0.162234,0.21231 0.186842,0.24452 0.280262,0.36678 -0.01052,0.0896 -0.02104,0.17918 -0.03157,0.26884 -0.03675,0.0652 -0.07346,0.13037 -0.1102,0.19556 -0.02449,0.0638 -0.04903,0.12778 -0.07354,0.19167 -0.0556,0.034 -0.1005,0.0614 -0.166802,0.10187 -0.11546,0.10707 -0.08942,0.0829 -0.23736,0.22011 -0.114692,-0.0454 -0.282524,-0.058 -0.42276,-0.16726 -0.01432,-0.01 -0.09071,-0.0614 -0.126286,-0.0855 -0.06199,-0.093 -0.137802,-0.20682 -0.220054,-0.33027"
         transform="matrix(0.16048413,0.8985392,-0.8985392,0.16048413,97.761464,72.021816)"
         sodipodi:nodetypes="ccsccsccccc" /><path
         style="fill:#ffffff;fill-opacity:1;fill-rule:evenodd;stroke:none;stroke-width:0.2415px;stroke-linecap:butt;stroke-linejoin:miter;stroke-opacity:1"
         d="m -13.530505,171.43748 c -0.002,-0.22364 -0.0729,-0.44847 -0.17386,-0.64803 -0.12185,-0.2408 -0.32234,-0.43425 -0.50577,-0.63221 -0.14694,-0.15859 -0.29134,-0.32715 -0.47417,-0.44256 -0.15802,-0.0998 -0.33707,-0.17587 -0.52158,-0.20547 -0.18237,-0.0293 -0.37611,-0.0209 -0.55319,0.0316 -0.1629,0.0483 -0.32076,0.13442 -0.44255,0.25289 -0.10169,0.0989 -0.15355,0.23888 -0.22128,0.36352 -0.0754,0.13872 -0.14934,0.27919 -0.20547,0.42675 -0.0546,0.1434 -0.11023,0.29 -0.12645,0.44256 -0.0167,0.15751 0.008,0.31749 0.0316,0.47416 0.0239,0.16053 0.0591,0.3203 0.11065,0.47417 0.0495,0.14758 0.14222,0.34773 0.18966,0.42674 0.0475,0.079 0.34605,0.35297 0.569,0.44256 0.14252,0.0573 0.30479,0.0439 0.45836,0.0474 0.18465,0.004 0.47416,0 0.55319,-0.0316 0.079,-0.0316 0.58481,-0.2687 0.64802,-0.31611 0.0633,-0.0474 0.22037,-0.23461 0.31612,-0.36353 0.10023,-0.13494 0.20269,-0.27215 0.26869,-0.42675 0.0426,-0.0999 0.0799,-0.2075 0.079,-0.31611 z"
         id="path81"
         sodipodi:nodetypes="ssssssssssssssssssss" /><ellipse
         style="fill:url(#linearGradient56);fill-rule:evenodd;stroke:none;stroke-width:0.2415;stroke-opacity:1"
         id="path10"
         cx="-15.49176"
         cy="171.16718"
         rx="1.2293789"
         ry="1.4640785" /><ellipse
         style="fill:#350b03;fill-opacity:1;fill-rule:evenodd;stroke:none;stroke-width:0.2415;stroke-opacity:1"
         id="path11"
         cx="-15.447067"
         cy="171.17834"
         rx="0.62586564"
         ry="0.82703674" /><ellipse
         style="fill:#ffffff;fill-opacity:1;fill-rule:evenodd;stroke:none;stroke-width:0.2415;stroke-opacity:1"
         id="path12"
         cx="-15.033539"
         cy="170.8766"
         rx="0.23469962"
         ry="0.27940431" /><path
         style="fill:none;fill-rule:evenodd;stroke:#000000;stroke-width:0.2415px;stroke-linecap:butt;stroke-linejoin:miter;stroke-opacity:1"
         d="m -13.451475,171.18459 c 0,0 -0.30315,-0.58209 -0.50578,-0.83769 -0.1921,-0.24232 -0.39657,-0.49247 -0.66382,-0.64802 -0.24644,-0.14343 -0.53695,-0.22663 -0.82189,-0.23709 -0.20445,-0.008 -0.42071,0.029 -0.60061,0.12645 -0.15723,0.0852 -0.27384,0.23494 -0.37933,0.37933 -0.10842,0.14841 -0.1845,0.31938 -0.25289,0.48997 -0.0348,0.0867 -0.079,0.26869 -0.079,0.26869"
         id="path73"
         sodipodi:nodetypes="cssssssc" /><ellipse
         style="fill:url(#linearGradient77);fill-opacity:1;fill-rule:evenodd;stroke:none;stroke-width:0.251718;stroke-opacity:0.99061"
         id="path74"
         cx="-21.251472"
         cy="171.45329"
         rx="0.80887413"
         ry="1.2909417" /><ellipse
         style="fill:#350b03;fill-opacity:1;fill-rule:evenodd;stroke:none;stroke-width:0.2415;stroke-opacity:0.99061"
         id="path75"
         cx="-21.267296"
         cy="171.51651"
         rx="0.37142912"
         ry="0.74285823" /><ellipse
         style="fill:#ffffff;fill-opacity:1;fill-rule:evenodd;stroke:none;stroke-width:0.2415;stroke-opacity:0.99061"
         id="path76"
         cx="-20.990692"
         cy="171.32684"
         rx="0.15805495"
         ry="0.26869342" /><path
         style="fill:#ffffff;fill-opacity:0.539877;fill-rule:evenodd;stroke:#1a3c73;stroke-width:0.2415px;stroke-linecap:butt;stroke-linejoin:miter;stroke-opacity:1"
         d="m -22.855745,172.32259 c 0,0 -0.0192,2.066 1.70699,2.03891 1.7262,-0.0271 1.72281,-2.16536 1.72281,-2.16536 l 1.81763,-0.0474 c 0,0 0.95316,2.11387 2.75015,1.95988 1.79699,-0.154 2.2918,-2.16536 2.2918,-2.16536 l -10.32099,0.2687 z"
         id="path9"
         sodipodi:nodetypes="czcczccc" /><path
         style="fill:none;fill-rule:evenodd;stroke:#ada99e;stroke-width:0.424433;stroke-linecap:butt;stroke-linejoin:miter;stroke-dasharray:none;stroke-opacity:1"
         d="m -18.069965,159.07873 c 0,0 -1.07429,1.27944 -1.16231,1.78818 -0.088,0.50874 0.0783,0.61022 0.22352,0.9388 0.1452,0.32858 0.79593,0.6274 0.67057,0.9835 -0.12536,0.35611 -0.8805,0.0391 -1.02821,0.31294 -0.14771,0.27386 0.22352,0.75998 0.22352,0.75998"
         id="path204"
         sodipodi:nodetypes="czzzzc" /><path
         style="fill:#ebebe8;fill-opacity:1;fill-rule:evenodd;stroke:none;stroke-width:0.2415px;stroke-linecap:butt;stroke-linejoin:miter;stroke-opacity:1"
         d="m -19.640675,164.92655 c 0,0 -1.10433,-0.67207 -1.7386,-0.50578 -0.63428,0.1663 -1.19492,0.95572 -1.48572,1.51733 -0.29079,0.5616 -0.12562,1.19568 -0.3003,1.64377 -0.17469,0.44809 -0.64803,1.02736 -0.64803,1.02736 0,0 0.84315,-0.49605 1.26444,-1.05897 0.42129,-0.56292 0.43466,-1.90383 1.02736,-2.35502 0.59269,-0.45119 1.88085,-0.26869 1.88085,-0.26869 z"
         id="path208"
         sodipodi:nodetypes="czzzczzc" /><path
         style="fill:#ebebe8;fill-opacity:1;fill-rule:evenodd;stroke:none;stroke-width:0.2415px;stroke-linecap:butt;stroke-linejoin:miter;stroke-opacity:1"
         d="m -18.621085,164.89735 c 0,0 1.37282,-0.78831 2.19052,-0.87175 0.8177,-0.0834 1.98395,0.94697 2.43641,1.49761 0.45245,0.55064 0.50458,1.14047 0.87174,1.54231 0.36715,0.40184 1.10644,1.15115 1.10644,1.15115 0,0 -0.94482,-0.21277 -1.59819,-0.63704 -0.65337,-0.42427 -0.87891,-1.81314 -1.67643,-2.3917 -0.79752,-0.57856 -3.33049,-0.29058 -3.33049,-0.29058 z"
         id="path210"
         sodipodi:nodetypes="czzzczzc" /><path
         style="fill:#ebebe8;fill-opacity:0.791411;fill-rule:evenodd;stroke:none;stroke-width:0.2415px;stroke-linecap:butt;stroke-linejoin:miter;stroke-opacity:1"
         d="m -12.906345,168.48515 c 0,0 1.4681,0.61786 2.10112,0.53645 0.63301,-0.0814 1.4529004,-0.80468 1.4529004,-0.80468 0,0 -1.2159104,0.247 -1.8105404,0.29058 -0.59462,0.0436 -1.74348,-0.0223 -1.74348,-0.0223 z"
         id="path212"
         sodipodi:nodetypes="czczc" /><path
         style="fill:#ebebe8;fill-opacity:0.671779;fill-rule:evenodd;stroke:none;stroke-width:0.2415px;stroke-linecap:butt;stroke-linejoin:miter;stroke-opacity:1"
         d="m -8.2893646,162.71786 c 0,0 -0.64529,-0.12154 -0.91644,0.15646 -0.27116,0.27801 0.30519,1.02701 -0.20118,1.38585 -0.50636,0.35883 -1.6799604,-0.72395 -2.2799304,-0.44705 -0.59996,0.2769 -0.32241,1.2621 -0.80469,1.43055 -0.48227,0.16845 -0.94797,-0.53922 -1.31879,-0.53646 -0.37081,0.003 -0.73762,0.31294 -0.73762,0.31294 0,0 -0.0159,-0.50051 0.20117,-0.64822 0.21706,-0.14771 0.63897,0.27582 0.89409,0.0671 0.25512,-0.20876 -0.20644,-0.76411 0.13411,-1.07291 0.34055,-0.30881 1.28085,0.49154 1.67643,-0.0447 0.39558,-0.53626 -1.02399,-1.71032 -0.62586,-2.23524 0.39813,-0.52491 1.37185,0.69792 1.63172,0 0.25987,-0.69791 -2.14583,-1.85525 -2.14583,-1.85525 0,0 2.73246,1.06507 3.7328404,2.07878 0.37467,0.37965 0.75998,1.40819 0.75998,1.40819 z"
         id="path213"
         sodipodi:nodetypes="czzzzzczzzzzzcsc" /><path
         style="fill:#ebebe8;fill-opacity:0.671779;fill-rule:evenodd;stroke:none;stroke-width:0.2415px;stroke-linecap:butt;stroke-linejoin:miter;stroke-opacity:1"
         d="m -23.250885,161.06908 c 0,0 -1.07249,0.65096 -1.46991,1.12219 -0.24156,0.28643 -0.52159,0.99574 -0.52159,0.99574 0,0 -0.0276,0.37092 0.12645,0.41095 0.15411,0.04 0.14958,-0.44591 0.37933,-0.36353 0.22975,0.0824 -0.1446,0.74419 0.11064,0.93252 0.25523,0.18834 0.65262,-0.396 0.94834,-0.17386 0.29571,0.22215 -0.16292,1.03876 0.12644,1.24864 0.28936,0.20988 0.8693,-0.18967 0.8693,-0.18967 0,0 0.381,-0.31934 0.26869,-0.48997 -0.11231,-0.17063 -0.48562,0.2533 -0.66383,0.0632 -0.17821,-0.19007 0.29487,-0.63826 0.14225,-0.88511 -0.15261,-0.24684 -0.6289,0.0685 -0.80608,-0.25288 -0.17719,-0.32139 0.26849,-0.90744 0.34772,-1.31186 0.0792,-0.40442 0.14225,-1.10639 0.14225,-1.10639 z"
         id="path214"
         sodipodi:nodetypes="csczzzzzczzzzzc" /></g></g></svg>
