<?xml version="1.0" encoding="UTF-8" standalone="no"?>
<!-- Created with Inkscape (http://www.inkscape.org/) -->

<svg
   width="21.896912"
   height="25.452942"
   viewBox="0 0 5.7935578 6.7344242"
   version="1.1"
   id="svg1"
   xml:space="preserve"
   sodipodi:docname="GranMa.svg"
   inkscape:version="1.3 (0e150ed6c4, 2023-07-21)"
   xmlns:inkscape="http://www.inkscape.org/namespaces/inkscape"
   xmlns:sodipodi="http://sodipodi.sourceforge.net/DTD/sodipodi-0.dtd"
   xmlns:xlink="http://www.w3.org/1999/xlink"
   xmlns="http://www.w3.org/2000/svg"
   xmlns:svg="http://www.w3.org/2000/svg"><sodipodi:namedview
     id="namedview1"
     pagecolor="#505050"
     bordercolor="#eeeeee"
     borderopacity="1"
     inkscape:showpageshadow="0"
     inkscape:pageopacity="0"
     inkscape:pagecheckerboard="0"
     inkscape:deskcolor="#121212"
     inkscape:document-units="mm"
     inkscape:zoom="0.67526655"
     inkscape:cx="545.71043"
     inkscape:cy="550.89357"
     inkscape:window-width="1280"
     inkscape:window-height="961"
     inkscape:window-x="-8"
     inkscape:window-y="-8"
     inkscape:window-maximized="1"
     inkscape:current-layer="layer1" /><defs
     id="defs1"><linearGradient
       id="linearGradient219"
       inkscape:collect="always"><stop
         style="stop-color:#9e5b43;stop-opacity:1;"
         offset="0"
         id="stop219" /><stop
         style="stop-color:#85452e;stop-opacity:1;"
         offset="1"
         id="stop220" /></linearGradient><linearGradient
       inkscape:collect="always"
       xlink:href="#linearGradient219"
       id="linearGradient237"
       gradientUnits="userSpaceOnUse"
       x1="160.76639"
       y1="112.50259"
       x2="160.8261"
       y2="114.80565" /><linearGradient
       id="swatch2"
       inkscape:swatch="solid"><stop
         style="stop-color:#000000;stop-opacity:1;"
         offset="0"
         id="stop2-3" /></linearGradient></defs><g
     inkscape:label="Layer 1"
     inkscape:groupmode="layer"
     id="layer1"
     transform="translate(14.849035,-191.59177)"><g
       id="g237"
       transform="matrix(-0.91275837,0,0,0.91275837,135.56718,93.256221)"
       inkscape:transform-center-x="-1.4301779"
       inkscape:transform-center-y="2.7717379"
       inkscape:export-filename="..\Binary\Data\Sprites\GranMa\Leg.svg"
       inkscape:export-xdpi="96"
       inkscape:export-ydpi="96"><path
         style="fill:#f5ebb5;fill-opacity:1;fill-rule:evenodd;stroke:#000000;stroke-width:0.264583px;stroke-linecap:butt;stroke-linejoin:miter;stroke-opacity:1"
         d="m 160.31326,112.52058 c -0.0772,-0.12987 0.32192,-0.5116 0.4329,-0.79654 0.11098,-0.28494 0.22511,-0.79654 0.22511,-0.90044 0,-0.10389 0.0863,-0.60033 0.12121,-0.83118 0.0349,-0.23085 0.0355,-0.36227 0.0866,-0.55412 0.0511,-0.19185 0.12555,-0.71861 0.14286,-0.78789 0.0173,-0.0693 0.0778,-0.32562 0.29388,-0.48459 0.21603,-0.15897 0.71365,-0.27563 1.00854,-0.29649 0.29489,-0.0209 0.8324,0.10098 0.91899,0.15288 0.0866,0.052 0.69477,0.25554 0.72939,0.34213 0.0346,0.0866 0.23968,0.44625 0.30897,0.58478 0.0693,0.13853 -0.0769,0.27062 -0.0194,0.50157 0.0575,0.23095 0.0833,0.65614 0.0746,0.81199 -0.009,0.15586 0.0294,0.6452 0.0231,0.90724 -0.006,0.26204 -0.0611,0.46626 -0.0851,1.0694 -0.0239,0.60315 -0.13235,1.19326 -0.13141,1.50861 9.4e-4,0.31534 0.0214,0.49307 -0.0479,0.49307 -0.0693,0 -0.8615,-0.47362 -0.94809,-0.5256 -0.0866,-0.052 -1.87015,-0.81387 -1.97405,-0.83118 -0.1039,-0.0173 -0.95987,-0.33298 -1.16018,-0.36364 -0.20031,-0.0307 0.0772,0.12987 -3e-5,0 z"
         id="path236"
         sodipodi:nodetypes="zzzzzzzzzzzzzzzzzzzzzz" /><path
         style="fill:url(#linearGradient237);fill-rule:evenodd;stroke:#000000;stroke-width:0.264583px;stroke-linecap:butt;stroke-linejoin:miter;stroke-opacity:1"
         d="m 164.43451,114.26952 c 0,0 -0.6794,0.33275 -1.10824,0.46753 -0.41674,0.13098 -1.15751,0.23803 -1.8182,0.24243 -0.64904,0.004 -1.15577,-0.004 -1.6104,-0.12121 -0.39774,-0.10288 -0.82619,-0.17353 -1.09092,-0.46754 -0.16981,-0.18859 -0.24437,-0.57474 -0.22511,-0.72728 0.0538,-0.42611 0.11053,-0.57006 0.27706,-0.79655 0.11488,-0.15625 0.29242,-0.26296 0.46753,-0.34632 0.20983,-0.0999 0.44515,-0.14119 0.67533,-0.17316 0.22876,-0.0318 0.55411,-0.052 0.69265,-0.0173 0.13852,0.0346 0.83117,0.20782 0.90045,0.24243 0.0693,0.0346 0.65143,0.16883 0.9697,0.27706 0.31154,0.10594 0.62778,0.25504 0.86266,0.39425 0.22151,0.13128 0.46312,0.33556 0.64385,0.54082 0.1335,0.15162 0.36364,0.48484 0.36364,0.48484 z"
         id="path237"
         sodipodi:nodetypes="csssssssssssssc" /></g></g></svg>
