<?xml version="1.0" encoding="UTF-8" standalone="no"?>
<!-- Created with Inkscape (http://www.inkscape.org/) -->

<svg
   width="14.269449"
   height="4.0500488"
   viewBox="0 0 3.7754584 1.0715754"
   version="1.1"
   id="svg1"
   xml:space="preserve"
   sodipodi:docname="GranMa.svg"
   inkscape:version="1.3 (0e150ed6c4, 2023-07-21)"
   xmlns:inkscape="http://www.inkscape.org/namespaces/inkscape"
   xmlns:sodipodi="http://sodipodi.sourceforge.net/DTD/sodipodi-0.dtd"
   xmlns="http://www.w3.org/2000/svg"
   xmlns:svg="http://www.w3.org/2000/svg"><sodipodi:namedview
     id="namedview1"
     pagecolor="#505050"
     bordercolor="#eeeeee"
     borderopacity="1"
     inkscape:showpageshadow="0"
     inkscape:pageopacity="0"
     inkscape:pagecheckerboard="0"
     inkscape:deskcolor="#121212"
     inkscape:document-units="mm"
     inkscape:zoom="0.67526655"
     inkscape:cx="545.71043"
     inkscape:cy="550.89357"
     inkscape:window-width="1280"
     inkscape:window-height="961"
     inkscape:window-x="-8"
     inkscape:window-y="-8"
     inkscape:window-maximized="1"
     inkscape:current-layer="layer1" /><defs
     id="defs1"><linearGradient
       id="swatch2"
       inkscape:swatch="solid"><stop
         style="stop-color:#000000;stop-opacity:1;"
         offset="0"
         id="stop2-3" /></linearGradient></defs><g
     inkscape:label="Layer 1"
     inkscape:groupmode="layer"
     id="layer1"
     transform="translate(10.681577,-175.27203)"><path
       style="fill:#cf451f;fill-opacity:1;fill-rule:evenodd;stroke:#cf451f;stroke-width:0.2415px;stroke-linecap:butt;stroke-linejoin:miter;stroke-opacity:1"
       d="m -7.0268687,175.52738 c -0.24304,0.19951 -0.52329,0.37126 -0.8144601,0.48997 -0.28046,0.11435 -0.58223,0.20741 -0.8851104,0.20548 -0.30922,-0.002 -0.61866,-0.095 -0.90091,-0.22128 -0.31479,-0.14087 -1.0417508,-0.3262 -0.9205508,-0.60157 -0.005,-0.0239 0.47769,0.12334 0.6834708,0.17482 0.21569,0.0539 0.42771,0.12808 0.64802,0.15806 0.16714,0.0227 0.33728,0.0236 0.50578,0.0158 0.2121504,-0.01 0.4231304,-0.0417 0.6322204,-0.079 0.34443,-0.0611 0.7181501,-0.13312 1.0515401,-0.14224 z"
       id="path149"
       sodipodi:nodetypes="sssscsssss"
       inkscape:export-filename="..\Binary\Data\Sprites\GranMa\MouthNormal.svg"
       inkscape:export-xdpi="96"
       inkscape:export-ydpi="96" /></g></svg>
