<?xml version="1.0" encoding="UTF-8" standalone="no"?>
<!-- Created with Inkscape (http://www.inkscape.org/) -->

<svg
   width="22.836311mm"
   height="37.905437mm"
   viewBox="0 0 22.836311 37.905437"
   version="1.1"
   id="svg1"
   xml:space="preserve"
   inkscape:version="1.3.2 (091e20ef0f, 2023-11-25)"
   sodipodi:docname="LR4Direction.svg"
   xmlns:inkscape="http://www.inkscape.org/namespaces/inkscape"
   xmlns:sodipodi="http://sodipodi.sourceforge.net/DTD/sodipodi-0.dtd"
   xmlns:xlink="http://www.w3.org/1999/xlink"
   xmlns="http://www.w3.org/2000/svg"
   xmlns:svg="http://www.w3.org/2000/svg"><sodipodi:namedview
     id="namedview1"
     pagecolor="#505050"
     bordercolor="#eeeeee"
     borderopacity="1"
     inkscape:showpageshadow="0"
     inkscape:pageopacity="0"
     inkscape:pagecheckerboard="0"
     inkscape:deskcolor="#d1d1d1"
     inkscape:document-units="mm"
     inkscape:zoom="0.7071068"
     inkscape:cx="222.03152"
     inkscape:cy="558.61434"
     inkscape:window-width="1366"
     inkscape:window-height="706"
     inkscape:window-x="-8"
     inkscape:window-y="-8"
     inkscape:window-maximized="1"
     inkscape:current-layer="layer2"
     showgrid="false" /><defs
     id="defs1"><linearGradient
       id="linearGradient906"
       inkscape:collect="always"><stop
         style="stop-color:#df6c69;stop-opacity:1;"
         offset="0"
         id="stop902" /><stop
         style="stop-color:#fa0002;stop-opacity:1;"
         offset="0.29158205"
         id="stop903" /><stop
         style="stop-color:#c30003;stop-opacity:1;"
         offset="0.63988721"
         id="stop904" /><stop
         style="stop-color:#fa0002;stop-opacity:1;"
         offset="0.69627148"
         id="stop905" /><stop
         style="stop-color:#cf0001;stop-opacity:1;"
         offset="1"
         id="stop906" /></linearGradient><inkscape:path-effect
       effect="envelope"
       id="path-effect650"
       is_visible="true"
       lpeversion="1"
       yy="true"
       xx="true"
       bendpath1="m 158.02358,112.20716 26.19584,0.0935"
       bendpath2="m 180.47765,112.20716 v 37.71088"
       bendpath3="m 158.02358,149.91804 h 22.45407"
       bendpath4="m 158.02358,112.20716 v 37.71088"
       bendpath1-nodetypes="cc" /><linearGradient
       inkscape:collect="always"
       xlink:href="#linearGradient906"
       id="linearGradient439"
       gradientUnits="userSpaceOnUse"
       gradientTransform="translate(68.35385,-65.903668)"
       x1="99.927116"
       y1="178.23924"
       x2="100.17554"
       y2="215.1855" /></defs><g
     inkscape:groupmode="layer"
     id="layer2"
     inkscape:label="Layer 2"
     transform="translate(-62.133962,-58.869742)"><path
       id="path437"
       style="fill:url(#linearGradient439);fill-opacity:1;fill-rule:evenodd;stroke:#7d220e;stroke-width:0.264583px;stroke-linecap:butt;stroke-linejoin:miter;stroke-opacity:1"
       d="m 174.21298,135.27976 c 0.27216,0.32485 1.83023,2.43148 2.27573,3.20947 0.55025,0.96096 0.88336,3.41011 1.17265,4.41067 0.23498,0.81269 1.30084,2.1021 1.94455,3.16076 0.60336,0.75485 0.33295,1.41735 -0.6653,1.3552 -0.37532,-0.0234 -0.54426,0.73103 -0.90709,0.77614 -0.36284,0.0451 -0.91573,-0.61894 -1.41679,-0.58263 -0.52497,0.038 -0.4186,0.97769 -1.50624,1.03607 -0.57479,0.0308 -0.59712,-0.16944 -1.44737,-0.19042 -0.52171,-0.0129 -1.19291,0.81886 -1.82918,0.76683 -0.34309,-0.0281 -0.78457,-0.24856 -1.70474,-0.43643 -0.38211,-0.078 -0.97749,1.03475 -1.9539,1.0204 -0.57376,-0.008 -1.25552,-0.98557 -1.89974,-0.92283 -0.5588,0.0544 -1.11094,0.2931 -1.56483,0.36867 -0.86312,0.14367 -0.91748,-0.50029 -1.56236,-0.49531 -0.43982,0.004 -0.59376,0.19731 -1.26468,0.31142 -0.57323,0.0975 -0.65376,-0.72226 -0.98974,-0.69807 -0.25378,0.0327 -0.55842,0.098 -0.87922,0.0735 -0.32085,-0.0245 -0.67493,-0.354 -0.97043,-0.54178 -0.29547,-0.18775 -0.53204,-0.46536 -0.70943,-0.66126 -0.17742,-0.19597 -0.29562,-0.31022 -0.38011,-0.43269 -0.0844,-0.12245 -0.13517,-0.25307 -0.0677,-0.35102 0.0675,-0.098 0.25312,-0.16322 0.44751,-0.26115 0.19434,-0.098 0.39738,-0.2285 0.57528,-0.4162 0.17792,-0.18774 0.3306,-0.43253 0.49215,-0.75903 0.16147,-0.32636 0.33194,-0.73465 0.49413,-1.16711 0.16229,-0.43272 0.31622,-0.88946 0.47924,-1.42828 0.16298,-0.53866 0.33494,-1.15895 0.51579,-1.69759 0.18081,-0.53849 0.37064,-0.99578 0.62117,-1.4036 0.25093,-0.40846 0.56201,-0.76641 0.8493,-1.15031 0.28673,-0.38312 0.5491,-0.79159 0.87247,-1.14199 0.32424,-0.35135 0.70862,-0.64348 0.97317,-0.88058 0.2638,-0.23642 0.40529,-0.41582 0.5553,-0.5544 0.15,-0.13858 0.30875,-0.23638 0.24817,-0.33437 -0.0606,-0.0981 -0.34057,-0.19622 -0.76065,-0.31095 -0.42075,-0.1149 -1.06041,-0.10289 -1.54636,-0.43413 -0.75604,-0.51535 -1.46242,-1.11128 -2.21441,-1.71597 -0.44791,-0.35131 -0.82457,-0.71064 -1.14002,-1.14342 -0.31543,-0.43276 -0.56963,-0.93893 -0.76401,-1.54302 -0.19433,-0.60394 -0.329,-1.30628 -0.39641,-2.04079 -0.0674,-0.73417 -0.0677,-1.50247 0.008,-2.17133 0.076,-0.66926 0.22837,-1.24077 0.43423,-1.77117 0.20567,-0.52992 0.46539,-1.0206 0.79018,-1.54211 0.32447,-0.52099 0.71694,-1.07767 1.22468,-1.64704 0.5116,-0.57371 1.13343,-1.1535 1.78196,-1.75896 0.24128,-0.22527 2.00223,-2.23258 3.84472,-4.57927 0.32536,-0.41439 0.65273,-0.89394 0.89961,-1.23516 0.25239,-0.34883 0.45759,-0.57709 0.70758,-0.76292 0.25072,-0.18637 0.54841,-0.33167 0.86878,-0.41187 0.32013,-0.0801 0.66281,-0.0951 0.99922,0.0609 0.33586,0.15571 0.66679,0.48297 1.09149,0.85042 0.42497,0.36769 0.94258,0.77619 1.40086,1.19243 0.45063,0.40928 0.86732,0.84719 1.32821,1.31302 0.46379,0.46875 1.00291,0.99818 1.52743,1.47451 0.52894,0.48035 1.05666,0.91961 1.56405,1.39104 0.5096,0.47348 0.99205,0.97291 1.42123,1.48644 0.42745,0.51145 0.79697,1.03098 1.09473,1.50989 0.29818,0.47958 0.52334,0.91677 0.70817,1.47829 0.18263,0.55486 0.33151,1.25036 0.42854,1.82234 0.0984,0.57991 0.14542,1.04864 0.0961,1.70319 -0.0489,0.64858 -0.1933,1.4895 -0.41847,2.30242 -0.2265,0.81775 -0.53717,1.61719 -0.92399,2.2721 -0.38769,0.65637 -0.84681,1.15908 -1.28233,1.59469 -0.43287,0.43297 -0.83584,0.79344 -1.20056,1.07907 -0.36492,0.2858 -0.69403,0.49875 -1.02358,0.66193 -0.33037,0.16359 -0.662,0.27766 -0.92144,0.36766 -0.25906,0.0899 -0.44417,0.15512 -0.49606,0.24489 -0.0219,0.038 0.0774,0.29511 0.10014,0.34187"
       sodipodi:nodetypes="csscsssssssssssscssssscsssssssssscsssssscssssssscsssssssssscsssssssc"
       inkscape:path-effect="#path-effect650"
       inkscape:original-d="m 174.12881,135.38069 c 0.25306,0.30242 1.85815,2.45577 2.29979,3.21187 0.56171,0.96168 0.92474,3.41187 1.22926,4.41305 0.24735,0.8132 1.33197,2.10394 1.99405,3.16359 0.61537,0.75563 0.3641,1.41843 -0.61818,1.35593 -0.36932,-0.0235 -0.50511,0.73164 -0.8573,0.77675 -0.3522,0.0451 -0.9208,-0.61979 -1.40738,-0.58349 -0.50979,0.038 -0.36203,0.97888 -1.41462,1.03734 -0.55626,0.0309 -0.58839,-0.16968 -1.41307,-0.19064 -0.50602,-0.0129 -1.11416,0.82004 -1.73322,0.76797 -0.33381,-0.0281 -0.77262,-0.24886 -1.67011,-0.43685 -0.3727,-0.0781 -0.90191,1.03604 -1.84993,1.02169 -0.55705,-0.008 -1.24938,-0.98643 -1.87,-0.92356 -0.53834,0.0545 -1.06635,0.29344 -1.50398,0.36909 -0.83219,0.14383 -0.89623,-0.50046 -1.51904,-0.49539 -0.42476,0.004 -0.57094,0.19747 -1.21902,0.31167 -0.55371,0.0976 -0.63722,-0.72236 -0.96154,-0.69811 -0.24489,0.0327 -0.53897,0.0981 -0.84916,0.0736 -0.3102,-0.0245 -0.65303,-0.35395 -0.93873,-0.5417 -0.28571,-0.18775 -0.51426,-0.46528 -0.68569,-0.66119 -0.17142,-0.19592 -0.2857,-0.3102 -0.36733,-0.43264 -0.0816,-0.12245 -0.1306,-0.25305 -0.0653,-0.35101 0.0653,-0.098 0.24489,-0.16326 0.43264,-0.26121 0.18775,-0.098 0.38365,-0.22856 0.55508,-0.41631 0.17142,-0.18775 0.31835,-0.43264 0.47345,-0.75916 0.1551,-0.32652 0.31835,-0.73466 0.47345,-1.1673 0.1551,-0.43264 0.30203,-0.88975 0.45712,-1.42851 0.1551,-0.53876 0.31836,-1.15913 0.48978,-1.69789 0.17142,-0.53875 0.351,-0.99587 0.58773,-1.40402 0.23673,-0.40815 0.53059,-0.76731 0.79996,-1.15097 0.26938,-0.38366 0.51427,-0.7918 0.8163,-1.14281 0.30203,-0.35101 0.66119,-0.64487 0.90608,-0.8816 0.24489,-0.23672 0.37549,-0.4163 0.51425,-0.55506 0.13875,-0.13877 0.28571,-0.23674 0.22858,-0.33469 -0.0571,-0.098 -0.31836,-0.19592 -0.71018,-0.3102 -0.39183,-0.11428 -0.98935,-0.10201 -1.44484,-0.43263 -0.71089,-0.516 -1.37183,-1.1087 -2.08608,-1.71422 -0.42448,-0.35101 -0.78364,-0.71017 -1.08567,-1.14281 -0.30203,-0.43264 -0.54691,-0.93873 -0.73466,-1.54279 -0.18775,-0.60407 -0.31835,-1.30607 -0.38366,-2.04074 -0.0653,-0.73467 -0.0653,-1.50197 0.008,-2.17134 0.0735,-0.66936 0.2204,-1.24076 0.41632,-1.77135 0.19591,-0.5306 0.44079,-1.02036 0.74282,-1.54279 0.30203,-0.52244 0.6612,-1.07751 1.11833,-1.64892 0.45713,-0.57141 1.0122,-1.15913 1.56728,-1.76319 0.20763,-0.22596 1.71341,-2.23854 3.09012,-4.59572 0.24787,-0.4244 0.47345,-0.88975 0.65304,-1.24076 0.17959,-0.35101 0.32652,-0.57957 0.51426,-0.76731 0.18775,-0.18775 0.41631,-0.33468 0.66936,-0.41632 0.25306,-0.0816 0.53059,-0.098 0.82446,0.0571 0.29387,0.15509 0.60405,0.4816 1.00404,0.84893 0.39999,0.36734 0.88976,0.77548 1.33872,1.1918 0.44897,0.41631 0.8571,0.84077 1.33872,1.31422 0.48162,0.47345 1.03669,0.99587 1.59994,1.47749 0.56325,0.48162 1.13464,0.9224 1.70605,1.39586 0.57141,0.47345 1.1428,0.97955 1.66523,1.49381 0.52244,0.51427 0.99588,1.03669 1.3877,1.51831 0.39182,0.48161 0.70201,0.92241 0.97139,1.48565 0.26938,0.56325 0.49794,1.24892 0.65303,1.82849 0.1551,0.57957 0.23673,1.05302 0.20408,1.70607 -0.0327,0.65304 -0.17959,1.48564 -0.42448,2.30194 -0.24489,0.8163 -0.58773,1.61625 -1.00404,2.26929 -0.41632,0.65304 -0.90608,1.15913 -1.35505,1.59177 -0.44896,0.43264 -0.8571,0.7918 -1.22444,1.0775 -0.36733,0.28571 -0.69384,0.49794 -1.02036,0.6612 -0.32652,0.16326 -0.65303,0.27754 -0.90608,0.36733 -0.25306,0.0898 -0.43264,0.1551 -0.48162,0.24488 -0.0207,0.038 0.0811,0.29528 0.10422,0.34205"
       transform="matrix(1.0000046,0,0,0.99921085,-95.591123,-53.044742)" /></g></svg>
