<?xml version="1.0" encoding="UTF-8" standalone="no"?>
<!-- Created with Inkscape (http://www.inkscape.org/) -->

<svg
   width="22.718607mm"
   height="23.544294mm"
   viewBox="0 0 22.718607 23.544294"
   version="1.1"
   id="svg1"
   xml:space="preserve"
   inkscape:version="1.3 (0e150ed6c4, 2023-07-21)"
   sodipodi:docname="LittleRedHood.svg"
   xmlns:inkscape="http://www.inkscape.org/namespaces/inkscape"
   xmlns:sodipodi="http://sodipodi.sourceforge.net/DTD/sodipodi-0.dtd"
   xmlns:xlink="http://www.w3.org/1999/xlink"
   xmlns="http://www.w3.org/2000/svg"
   xmlns:svg="http://www.w3.org/2000/svg"><sodipodi:namedview
     id="namedview1"
     pagecolor="#505050"
     bordercolor="#eeeeee"
     borderopacity="1"
     inkscape:showpageshadow="0"
     inkscape:pageopacity="0"
     inkscape:pagecheckerboard="0"
     inkscape:deskcolor="#d1d1d1"
     inkscape:document-units="mm"
     inkscape:zoom="1.9099422"
     inkscape:cx="23.560922"
     inkscape:cy="101.05018"
     inkscape:window-width="1280"
     inkscape:window-height="961"
     inkscape:window-x="-8"
     inkscape:window-y="-8"
     inkscape:window-maximized="1"
     inkscape:current-layer="layer2"
     showgrid="false" /><defs
     id="defs1"><linearGradient
       id="linearGradient67"
       inkscape:collect="always"><stop
         style="stop-color:#e16462;stop-opacity:1;"
         offset="0"
         id="stop67" /><stop
         style="stop-color:#c70003;stop-opacity:1;"
         offset="0.56756759"
         id="stop68" /></linearGradient><linearGradient
       inkscape:collect="always"
       xlink:href="#linearGradient67"
       id="linearGradient68"
       x1="101.68382"
       y1="163.89191"
       x2="102.65639"
       y2="186.8134"
       gradientUnits="userSpaceOnUse"
       gradientTransform="translate(26.986643,-31.835423)" /></defs><g
     inkscape:label="Layer 1"
     inkscape:groupmode="layer"
     id="layer1"
     transform="translate(-118.48317,-131.84303)" /><g
     inkscape:groupmode="layer"
     id="layer2"
     inkscape:label="Layer 2"
     transform="translate(-118.48317,-131.84303)"><path
       id="path62"
       style="fill:url(#linearGradient68);fill-rule:evenodd;stroke:#7d220e;stroke-width:0.264583px;stroke-linecap:butt;stroke-linejoin:miter;stroke-opacity:1"
       d="m 125.98467,155.29825 c 0.053,-0.0582 0.0803,-0.11023 0.05,-0.16228 -0.0571,-0.098 -0.31836,-0.19592 -0.71018,-0.3102 -0.39183,-0.11428 -0.91425,-0.24488 -1.44484,-0.43263 -0.53059,-0.18775 -1.06934,-0.43263 -1.58361,-0.7265 -0.51426,-0.29387 -1.00404,-0.63671 -1.42851,-0.98772 -0.42448,-0.35101 -0.78364,-0.71017 -1.08567,-1.14281 -0.30203,-0.43264 -0.54691,-0.93873 -0.73466,-1.54279 -0.18775,-0.60407 -0.31835,-1.30607 -0.38366,-2.04074 -0.0653,-0.73467 -0.0653,-1.50197 0.008,-2.17134 0.0735,-0.66936 0.2204,-1.24076 0.41632,-1.77135 0.19591,-0.5306 0.44079,-1.02036 0.74282,-1.54279 0.30203,-0.52244 0.6612,-1.07751 1.11833,-1.64892 0.45713,-0.57141 1.01221,-1.15913 1.56728,-1.76319 0.55508,-0.60406 1.11016,-1.22443 1.63258,-1.80401 0.52243,-0.57957 1.0122,-1.11831 1.41219,-1.56727 0.39998,-0.44897 0.71017,-0.80813 0.97139,-1.22445 0.26122,-0.41631 0.47344,-0.88975 0.65303,-1.24076 0.17959,-0.35101 0.32652,-0.57957 0.51426,-0.76731 0.18775,-0.18775 0.41631,-0.33468 0.66936,-0.41632 0.25306,-0.0816 0.53059,-0.098 0.82446,0.0571 0.29387,0.15509 0.60405,0.4816 1.00404,0.84893 0.39999,0.36734 0.88976,0.77548 1.33872,1.1918 0.44897,0.41631 0.8571,0.84077 1.33872,1.31422 0.48162,0.47346 1.03669,0.99588 1.59994,1.4775 0.56325,0.48162 1.13464,0.9224 1.70605,1.39586 0.57141,0.47345 1.1428,0.97955 1.66523,1.49381 0.52244,0.51427 0.99588,1.03669 1.3877,1.51831 0.39182,0.48161 0.70201,0.92241 0.97139,1.48565 0.26938,0.56325 0.49794,1.24892 0.65303,1.82849 0.1551,0.57957 0.23673,1.05302 0.20408,1.70607 -0.0327,0.65304 -0.17959,1.48564 -0.42448,2.30194 -0.24489,0.8163 -0.58773,1.61625 -1.00404,2.26929 -0.41632,0.65304 -0.90608,1.15913 -1.35505,1.59177 -0.44896,0.43264 -0.8571,0.7918 -1.22444,1.0775 -0.36733,0.28571 -0.69384,0.49794 -1.02036,0.6612 -0.32652,0.16326 -0.65303,0.27754 -0.90608,0.36733 -0.25306,0.0898 -0.43264,0.1551 -0.48162,0.24488 -0.0207,0.038 -0.0181,0.0803 0.005,0.12707" /><path
       style="fill:#c70003;fill-opacity:1;fill-rule:evenodd;stroke:none;stroke-width:0.264583px;stroke-linecap:butt;stroke-linejoin:miter;stroke-opacity:1"
       d="m 128.38246,153.67938 0.0612,1.71421 1.39586,-0.75915 1.86115,-0.15918 c 0,0 2.77948,0.84486 2.76723,0.79589 -0.0122,-0.049 0.049,-0.74691 0.049,-0.74691 l -2.77947,-0.91833 -1.71422,0.12244 z"
       id="path68"
       sodipodi:nodetypes="ccccccccc" /></g></svg>
