<?xml version="1.0" encoding="UTF-8" standalone="no"?>
<!-- Created with Inkscape (http://www.inkscape.org/) -->

<svg
   width="5.1988883mm"
   height="6.8719535mm"
   viewBox="0 0 5.1988882 6.8719535"
   version="1.1"
   id="svg1"
   xml:space="preserve"
   inkscape:version="1.3.2 (091e20ef0f, 2023-11-25)"
   sodipodi:docname="LittleRedRightLeg.svg"
   xmlns:inkscape="http://www.inkscape.org/namespaces/inkscape"
   xmlns:sodipodi="http://sodipodi.sourceforge.net/DTD/sodipodi-0.dtd"
   xmlns:xlink="http://www.w3.org/1999/xlink"
   xmlns="http://www.w3.org/2000/svg"
   xmlns:svg="http://www.w3.org/2000/svg"><sodipodi:namedview
     id="namedview1"
     pagecolor="#505050"
     bordercolor="#eeeeee"
     borderopacity="1"
     inkscape:showpageshadow="0"
     inkscape:pageopacity="0"
     inkscape:pagecheckerboard="0"
     inkscape:deskcolor="#d1d1d1"
     inkscape:document-units="mm"
     inkscape:zoom="10.804265"
     inkscape:cx="17.77076"
     inkscape:cy="12.217398"
     inkscape:window-width="1366"
     inkscape:window-height="706"
     inkscape:window-x="-8"
     inkscape:window-y="-8"
     inkscape:window-maximized="1"
     inkscape:current-layer="layer2"
     showgrid="false" /><defs
     id="defs1"><inkscape:path-effect
       effect="bspline"
       id="path-effect48"
       is_visible="true"
       lpeversion="1.3"
       weight="33.333333"
       steps="2"
       helper_size="0"
       apply_no_weight="true"
       apply_with_weight="true"
       only_selected="false"
       uniform="false" /><linearGradient
       id="linearGradient45"
       inkscape:collect="always"><stop
         style="stop-color:#f30206;stop-opacity:1;"
         offset="0"
         id="stop45" /><stop
         style="stop-color:#f24743;stop-opacity:1;"
         offset="0.99661016"
         id="stop46" /></linearGradient><linearGradient
       id="linearGradient41"
       inkscape:collect="always"><stop
         style="stop-color:#f1a488;stop-opacity:1;"
         offset="0"
         id="stop41" /><stop
         style="stop-color:#fac1a6;stop-opacity:1;"
         offset="1"
         id="stop42" /></linearGradient><inkscape:path-effect
       effect="bspline"
       id="path-effect40"
       is_visible="true"
       lpeversion="1.3"
       weight="33.333333"
       steps="2"
       helper_size="0"
       apply_no_weight="true"
       apply_with_weight="true"
       only_selected="false"
       uniform="false" /><inkscape:path-effect
       effect="bspline"
       id="path-effect38"
       is_visible="true"
       lpeversion="1.3"
       weight="33.333333"
       steps="2"
       helper_size="0"
       apply_no_weight="true"
       apply_with_weight="true"
       only_selected="false"
       uniform="false" /><linearGradient
       inkscape:collect="always"
       xlink:href="#linearGradient41"
       id="linearGradient42"
       x1="83.330315"
       y1="163.63049"
       x2="83.40316"
       y2="168.77315"
       gradientUnits="userSpaceOnUse" /><linearGradient
       inkscape:collect="always"
       xlink:href="#linearGradient45"
       id="linearGradient46"
       x1="81.299469"
       y1="169.23465"
       x2="86.597427"
       y2="169.23465"
       gradientUnits="userSpaceOnUse" /></defs><g
     inkscape:label="Layer 1"
     inkscape:groupmode="layer"
     id="layer1"
     transform="translate(-126.23205,-169.54629)" /><g
     inkscape:groupmode="layer"
     id="layer2"
     inkscape:label="Layer 2"
     transform="translate(-126.23205,-169.54629)"><g
       id="g1"><path
         style="fill:url(#linearGradient42);fill-rule:evenodd;stroke:#2a1e0b;stroke-width:0.165;stroke-linecap:butt;stroke-linejoin:miter;stroke-dasharray:none;stroke-opacity:1"
         d="m 81.49868,164.37689 c 0,0.44897 0,1.34689 -0.0082,2.13053 -0.0082,0.78365 -0.02449,1.453 -0.03265,1.94278 -0.0082,0.48978 -0.0082,0.79996 0.08979,0.86526 0.09795,0.0653 0.293861,-0.11427 0.514264,-0.31019 0.220402,-0.19591 0.465284,-0.40814 0.734672,-0.56324 0.269387,-0.1551 0.563235,-0.25305 0.848938,-0.31019 0.285704,-0.0571 0.563236,-0.0735 0.759153,-0.0572 0.195917,0.0163 0.310169,0.0653 0.457113,0.12243 0.146943,0.0571 0.326526,0.12245 0.457133,0.18775 0.130606,0.0653 0.212238,0.13061 0.222441,0.0184 0.0102,-0.11224 -0.05102,-0.40201 -0.09387,-0.7265 -0.04286,-0.32449 -0.06735,-0.68364 -0.1,-1.1224 -0.03265,-0.43877 -0.07346,-0.95709 -0.128563,-1.38157 -0.0551,-0.42449 -0.124483,-0.75507 -0.265296,-0.98772 -0.140812,-0.23265 -0.35305,-0.36734 -0.940787,-0.39386 -0.587737,-0.0265 -1.550944,0.0551 -2.032557,0.0959 -0.481613,0.0408 -0.481614,0.0408 -0.481614,0.48979 z"
         id="path38"
         inkscape:original-d="m 81.49868,163.92793 c 0,0.89793 0,1.79585 0,2.69377 -0.01632,0.66937 -0.03265,1.33872 -0.04898,2.00808 0,0.3102 0,0.62038 0,0.93057 0.195913,-0.17958 0.391819,-0.35916 0.587729,-0.53875 0.244893,-0.21224 0.489776,-0.42447 0.734663,-0.63671 0.293873,-0.098 0.587733,-0.19591 0.881597,-0.29386 0.277546,-0.0163 0.55508,-0.0326 0.83262,-0.049 0.114282,0.049 0.228561,0.0979 0.342842,0.14693 0.179589,0.0653 0.359169,0.13061 0.538755,0.19591 0.08163,0.0653 0.163259,0.13061 0.244888,0.19591 -0.06122,-0.28978 -0.122443,-0.57955 -0.183667,-0.86935 -0.02449,-0.35918 -0.04898,-0.71833 -0.07347,-1.0775 -0.04081,-0.51836 -0.08162,-1.03668 -0.122438,-1.55504 -0.06939,-0.33061 -0.13877,-0.66119 -0.208156,-0.9918 -0.212239,-0.13469 -0.424477,-0.26938 -0.636708,-0.40406 -0.963245,0.0816 -1.92645,0.16325 -2.889676,0.24488 z"
         inkscape:path-effect="#path-effect38"
         transform="translate(44.883556,5.8182388)"
         sodipodi:nodetypes="cccccccccccccccccc" /><path
         style="fill:url(#linearGradient46);fill-rule:evenodd;stroke:#2a1e0b;stroke-width:0.165;stroke-linecap:butt;stroke-linejoin:miter;stroke-dasharray:none;stroke-opacity:1"
         d="m 81.55582,169.4624 c 0.155094,0.14693 0.465289,0.4408 0.816295,0.62854 0.351005,0.18775 0.742825,0.26938 1.07751,0.32653 0.334686,0.0571 0.61221,0.0898 0.914244,0.098 0.302033,0.008 0.628546,-0.008 0.889761,-0.049 0.261214,-0.0408 0.457122,-0.10612 0.636701,-0.17958 0.179579,-0.0735 0.342848,-0.1551 0.448966,-0.31836 0.106119,-0.16326 0.155097,-0.40815 0.106117,-0.64487 -0.04898,-0.23673 -0.19591,-0.46529 -0.408149,-0.64487 -0.212238,-0.17959 -0.489771,-0.31019 -0.799966,-0.43264 -0.310195,-0.12244 -0.653033,-0.23672 -0.995882,-0.27754 -0.342848,-0.0408 -0.685682,-0.008 -1.012203,0.10608 -0.326521,0.11428 -0.636702,0.31018 -0.848949,0.45712 -0.212247,0.14695 -0.326504,0.24488 -0.473438,0.36733 -0.146934,0.12244 -0.326514,0.26937 -0.416308,0.34284 -0.08979,0.0735 -0.08979,0.0735 0.0653,0.22043 z"
         id="path40"
         inkscape:original-d="m 81.400726,169.31547 c 0.310189,0.29386 0.620381,0.58773 0.930574,0.88159 0.391826,0.0816 0.78364,0.16326 1.175461,0.24489 0.277546,0.0327 0.555078,0.0653 0.832618,0.098 0.326525,-0.0163 0.653034,-0.0327 0.979551,-0.049 0.195916,-0.0653 0.391821,-0.13061 0.587732,-0.19591 0.163261,-0.0816 0.326517,-0.16326 0.489775,-0.24489 0.04898,-0.24489 0.09795,-0.48978 0.146934,-0.73466 -0.146936,-0.22857 -0.293867,-0.45713 -0.440798,-0.68569 -0.277546,-0.13061 -0.55508,-0.26121 -0.83262,-0.39182 -0.34285,-0.11428 -0.685687,-0.22856 -1.028528,-0.34284 -0.34285,0.0327 -0.685687,0.0653 -1.028531,0.0979 -0.310198,0.19592 -0.620382,0.39182 -0.930574,0.58773 -0.114281,0.098 -0.22856,0.19591 -0.342842,0.29387 -0.179588,0.14693 -0.359169,0.29386 -0.538752,0.4408 z"
         inkscape:path-effect="#path-effect40"
         transform="translate(44.883556,5.8182388)" /><path
         style="fill:#feae99;fill-opacity:1;fill-rule:evenodd;stroke:none;stroke-width:0.264583px;stroke-linecap:butt;stroke-linejoin:miter;stroke-opacity:1"
         d="m 64.80549,167.48697 c 0.383659,0.0653 1.265254,0.0653 1.56728,-0.0163 0.302025,-0.0816 0.02449,-0.24488 -0.261215,-0.351 -0.285708,-0.10612 -0.579572,-0.15509 -0.824453,-0.13877 -0.244882,0.0163 -0.440796,0.0979 -0.595893,0.20407 -0.155097,0.10612 -0.269379,0.23673 0.114281,0.30203 z"
         id="path48"
         transform="matrix(1.3002788,0,0,1,43.721324,7.0916556)"
         inkscape:original-d="m 64.307553,167.55227 c 0.881596,0 1.763191,0 2.644788,0 -0.277546,-0.16326 -0.55508,-0.32651 -0.832618,-0.48977 -0.293872,-0.049 -0.587732,-0.098 -0.881597,-0.14693 -0.195916,0.0816 -0.391821,0.16325 -0.587732,0.24488 -0.114281,0.13061 -0.22856,0.26122 -0.342841,0.39182 z"
         inkscape:path-effect="#path-effect48" /></g></g></svg>
