<?xml version="1.0" encoding="UTF-8" standalone="no"?>
<!-- Created with Inkscape (http://www.inkscape.org/) -->

<svg
   width="5.1412125mm"
   height="6.7746553mm"
   viewBox="0 0 5.1412123 6.7746554"
   version="1.1"
   id="svg1"
   xml:space="preserve"
   inkscape:version="1.3.2 (091e20ef0f, 2023-11-25)"
   sodipodi:docname="LittleRedLeftLeg.svg"
   xmlns:inkscape="http://www.inkscape.org/namespaces/inkscape"
   xmlns:sodipodi="http://sodipodi.sourceforge.net/DTD/sodipodi-0.dtd"
   xmlns:xlink="http://www.w3.org/1999/xlink"
   xmlns="http://www.w3.org/2000/svg"
   xmlns:svg="http://www.w3.org/2000/svg"><sodipodi:namedview
     id="namedview1"
     pagecolor="#505050"
     bordercolor="#eeeeee"
     borderopacity="1"
     inkscape:showpageshadow="0"
     inkscape:pageopacity="0"
     inkscape:pagecheckerboard="0"
     inkscape:deskcolor="#d1d1d1"
     inkscape:document-units="mm"
     inkscape:zoom="5.4021324"
     inkscape:cx="5.3682505"
     inkscape:cy="4.9980263"
     inkscape:window-width="1366"
     inkscape:window-height="706"
     inkscape:window-x="-8"
     inkscape:window-y="-8"
     inkscape:window-maximized="1"
     inkscape:current-layer="layer2"
     showgrid="false" /><defs
     id="defs1"><inkscape:path-effect
       effect="bspline"
       id="path-effect50"
       is_visible="true"
       lpeversion="1.3"
       weight="33.333333"
       steps="2"
       helper_size="0"
       apply_no_weight="true"
       apply_with_weight="true"
       only_selected="false"
       uniform="false" /><linearGradient
       id="linearGradient47"
       inkscape:collect="always"><stop
         style="stop-color:#f84a4a;stop-opacity:1;"
         offset="0"
         id="stop47" /><stop
         style="stop-color:#de0b0c;stop-opacity:1;"
         offset="1"
         id="stop48" /></linearGradient><linearGradient
       id="linearGradient43"
       inkscape:collect="always"><stop
         style="stop-color:#f0a084;stop-opacity:1;"
         offset="0"
         id="stop43" /><stop
         style="stop-color:#fdbfa3;stop-opacity:1;"
         offset="1"
         id="stop44" /></linearGradient><inkscape:path-effect
       effect="bspline"
       id="path-effect41"
       is_visible="true"
       lpeversion="1.3"
       weight="33.333333"
       steps="2"
       helper_size="0"
       apply_no_weight="true"
       apply_with_weight="true"
       only_selected="false"
       uniform="false" /><inkscape:path-effect
       effect="bspline"
       id="path-effect39"
       is_visible="true"
       lpeversion="1.3"
       weight="33.333333"
       steps="2"
       helper_size="0"
       apply_no_weight="true"
       apply_with_weight="true"
       only_selected="false"
       uniform="false" /><linearGradient
       inkscape:collect="always"
       xlink:href="#linearGradient43"
       id="linearGradient44"
       x1="90.031593"
       y1="163.66962"
       x2="90.092003"
       y2="169.05714"
       gradientUnits="userSpaceOnUse" /><linearGradient
       inkscape:collect="always"
       xlink:href="#linearGradient47"
       id="linearGradient48"
       x1="87.055992"
       y1="169.09024"
       x2="92.056755"
       y2="169.09024"
       gradientUnits="userSpaceOnUse" /></defs><g
     inkscape:label="Layer 1"
     inkscape:groupmode="layer"
     id="layer1"
     transform="translate(-131.93955,-169.47445)" /><g
     inkscape:groupmode="layer"
     id="layer2"
     inkscape:label="Layer 2"
     transform="translate(-131.93955,-169.47445)"><g
       id="g1"
       transform="matrix(-1,0,0,1,269.02031,0)"><path
         style="fill:url(#linearGradient44);fill-rule:evenodd;stroke:#2a1e0b;stroke-width:0.165;stroke-linecap:butt;stroke-linejoin:miter;stroke-dasharray:none;stroke-opacity:1"
         d="m 92.004369,164.5075 c 0.02449,0.67752 0.07347,2.03257 0.09795,2.9958 0.02449,0.96323 0.02449,1.53463 -0.114283,1.65707 -0.138771,0.12244 -0.416304,-0.20407 -0.702011,-0.45712 -0.285708,-0.25306 -0.579567,-0.43264 -0.869355,-0.53876 -0.289787,-0.10613 -0.575475,-0.13879 -0.877509,-0.13064 -0.302033,0.008 -0.620381,0.0571 -0.824456,-0.17551 -0.204075,-0.23265 -0.293861,-0.74689 -0.314268,-1.21627 -0.02041,-0.46938 0.02857,-0.89383 0.07346,-1.27342 0.0449,-0.37958 0.08571,-0.71425 0.155096,-1.0122 0.06939,-0.29795 0.167339,-0.55916 0.730594,-0.64079 0.563256,-0.0816 1.591759,0.0163 2.106024,0.0653 0.514265,0.049 0.514261,0.049 0.538749,0.72654 z"
         id="path39"
         transform="translate(44.883556,5.8182388)"
         inkscape:original-d="m 91.979881,163.82998 c 0.04898,1.35504 0.09795,2.71009 0.146931,4.06514 0,0.57141 0,1.14281 0,1.71421 -0.277545,-0.32652 -0.555077,-0.65303 -0.832617,-0.97955 -0.293873,-0.17959 -0.587732,-0.35917 -0.881597,-0.53875 -0.285707,-0.0327 -0.571403,-0.0653 -0.857107,-0.098 -0.318356,0.049 -0.636701,0.098 -0.955064,0.14694 -0.08979,-0.51428 -0.179579,-1.02852 -0.269371,-1.54279 0.04898,-0.42449 0.09795,-0.84894 0.146932,-1.27343 0.04082,-0.33468 0.08163,-0.66935 0.122442,-1.00403 0.09796,-0.26122 0.19591,-0.52243 0.293868,-0.78365 1.02855,0.098 2.057057,0.19591 3.085587,0.29387 z"
         inkscape:path-effect="#path-effect39"
         sodipodi:nodetypes="ccccccccccccc" /><path
         style="fill:url(#linearGradient48);fill-rule:evenodd;stroke:#2a1e0b;stroke-width:0.165;stroke-linecap:butt;stroke-linejoin:miter;stroke-dasharray:none;stroke-opacity:1"
         d="m 87.792298,170.22971 c 0.171421,0.0326 0.514265,0.098 0.85711,0.11429 0.342845,0.0163 0.685685,-0.0163 1.028527,-0.0489 0.342843,-0.0326 0.685683,-0.0653 0.93874,-0.10614 0.253058,-0.0408 0.41629,-0.0898 0.587721,-0.17958 0.171431,-0.0898 0.35101,-0.2204 0.506101,-0.32652 0.155091,-0.10611 0.285709,-0.18775 0.261218,-0.31836 -0.02449,-0.13061 -0.204073,-0.31019 -0.375496,-0.49794 -0.171424,-0.18775 -0.334676,-0.38365 -0.604058,-0.56324 -0.269382,-0.17958 -0.644867,-0.34284 -1.028528,-0.4163 -0.383662,-0.0735 -0.775475,-0.0571 -1.028525,-0.0408 -0.253049,0.0163 -0.367338,0.0327 -0.522432,0.098 -0.155095,0.0653 -0.351001,0.17959 -0.538751,0.31836 -0.18775,0.13877 -0.367333,0.30203 -0.465287,0.4408 -0.09795,0.13877 -0.114281,0.25305 -0.155096,0.41631 -0.04081,0.16326 -0.106117,0.37549 -0.114274,0.50611 -0.0082,0.13061 0.04078,0.17954 0.130586,0.26119 0.08981,0.0816 0.220413,0.19592 0.285716,0.25306 0.0653,0.0571 0.06531,0.0571 0.236728,0.0897 z"
         id="path41"
         transform="translate(44.883556,5.8182388)"
         inkscape:original-d="m 87.620876,170.19706 c 0.342844,0.0653 0.685686,0.13061 1.028528,0.19591 0.342852,-0.0326 0.685686,-0.0653 1.028531,-0.0979 0.342849,-0.0326 0.685686,-0.0653 1.028528,-0.098 0.163264,-0.049 0.326517,-0.0979 0.489775,-0.14693 0.179589,-0.13061 0.359169,-0.26121 0.538755,-0.39182 0.130609,-0.0816 0.261213,-0.16326 0.391819,-0.24489 -0.179586,-0.17959 -0.359169,-0.35917 -0.538752,-0.53875 -0.163261,-0.19592 -0.326517,-0.39182 -0.489776,-0.58773 -0.375502,-0.16327 -0.75099,-0.32652 -1.126485,-0.48978 -0.391829,0.0163 -0.78364,0.0327 -1.175461,0.049 -0.114284,0.0163 -0.228563,0.0327 -0.342842,0.049 -0.195916,0.11428 -0.391821,0.22856 -0.587732,0.34284 -0.179589,0.16326 -0.359169,0.32652 -0.538753,0.48977 -0.01632,0.11429 -0.03265,0.22857 -0.04898,0.34285 -0.0653,0.21224 -0.130609,0.42447 -0.19591,0.63671 0.04898,0.049 0.09795,0.0979 0.146931,0.14693 0.130611,0.11428 0.261215,0.22856 0.391821,0.34284 z"
         inkscape:path-effect="#path-effect41" /><path
         style="fill:#feae99;fill-opacity:1;fill-rule:evenodd;stroke:none;stroke-width:0.264583px;stroke-linecap:butt;stroke-linejoin:miter;stroke-opacity:1"
         d="m 64.80549,167.48697 c 0.383659,0.0653 1.265254,0.0653 1.56728,-0.0163 0.302025,-0.0816 0.02449,-0.24488 -0.261215,-0.351 -0.285708,-0.10612 -0.579572,-0.15509 -0.824453,-0.13877 -0.244882,0.0163 -0.440796,0.0979 -0.595893,0.20407 -0.155097,0.10612 -0.269379,0.23673 0.114281,0.30203 z"
         id="path49"
         transform="matrix(-1.3002788,0,0,1,219.31437,6.9447229)"
         inkscape:original-d="m 64.307553,167.55227 c 0.881596,0 1.763191,0 2.644788,0 -0.277546,-0.16326 -0.55508,-0.32651 -0.832618,-0.48977 -0.293872,-0.049 -0.587732,-0.098 -0.881597,-0.14693 -0.195916,0.0816 -0.391821,0.16325 -0.587732,0.24488 -0.114281,0.13061 -0.22856,0.26122 -0.342841,0.39182 z"
         inkscape:path-effect="#path-effect50" /></g></g></svg>
