<?xml version="1.0" encoding="UTF-8" standalone="no"?>
<!-- Created with Inkscape (http://www.inkscape.org/) -->

<svg
   width="15.666343mm"
   height="14.838346mm"
   viewBox="0 0 15.666343 14.838346"
   version="1.1"
   id="svg1"
   xml:space="preserve"
   inkscape:version="1.3 (0e150ed6c4, 2023-07-21)"
   sodipodi:docname="LittleRedRightCloak.svg"
   xmlns:inkscape="http://www.inkscape.org/namespaces/inkscape"
   xmlns:sodipodi="http://sodipodi.sourceforge.net/DTD/sodipodi-0.dtd"
   xmlns:xlink="http://www.w3.org/1999/xlink"
   xmlns="http://www.w3.org/2000/svg"
   xmlns:svg="http://www.w3.org/2000/svg"><sodipodi:namedview
     id="namedview1"
     pagecolor="#505050"
     bordercolor="#eeeeee"
     borderopacity="1"
     inkscape:showpageshadow="0"
     inkscape:pageopacity="0"
     inkscape:pagecheckerboard="0"
     inkscape:deskcolor="#d1d1d1"
     inkscape:document-units="mm"
     inkscape:zoom="5.4021324"
     inkscape:cx="22.491119"
     inkscape:cy="31.283943"
     inkscape:window-width="1280"
     inkscape:window-height="961"
     inkscape:window-x="-8"
     inkscape:window-y="-8"
     inkscape:window-maximized="1"
     inkscape:current-layer="layer2"
     showgrid="false" /><defs
     id="defs1"><linearGradient
       id="linearGradient64"
       inkscape:collect="always"><stop
         style="stop-color:#c70003;stop-opacity:1;"
         offset="0.04864865"
         id="stop64" /><stop
         style="stop-color:#f74945;stop-opacity:1;"
         offset="0.24864864"
         id="stop66" /><stop
         style="stop-color:#d91918;stop-opacity:1;"
         offset="1"
         id="stop65" /></linearGradient><linearGradient
       inkscape:collect="always"
       xlink:href="#linearGradient64"
       id="linearGradient65"
       x1="99.008575"
       y1="189.35208"
       x2="98.83786"
       y2="202.47807"
       gradientUnits="userSpaceOnUse"
       gradientTransform="translate(26.766243,-34.382257)" /></defs><g
     inkscape:label="Layer 1"
     inkscape:groupmode="layer"
     id="layer1"
     transform="translate(-119.11387,-153.60591)" /><g
     inkscape:groupmode="layer"
     id="layer2"
     inkscape:label="Layer 2"
     transform="translate(-119.11387,-153.60591)"><g
       id="g3"><path
         id="path64"
         style="fill:url(#linearGradient65);fill-rule:evenodd;stroke:#7d220e;stroke-width:0.264583px;stroke-linecap:butt;stroke-linejoin:miter;stroke-opacity:1"
         d="m 131.82045,154.2376 c 0.0668,0.0333 1.95906,0.26121 2.60832,0.70315 0.64926,0.44194 -0.3375,1.01032 -0.47418,1.00444 -1.27123,-0.0546 -3.81072,-0.98195 -3.83232,-0.9081 -0.0979,0.33468 0.40197,1.48643 0.12443,1.85377 -0.27754,0.36734 -0.63671,0.77548 -0.95506,1.17547 -0.31836,0.39998 -0.59589,0.79179 -0.9469,1.22443 -0.35101,0.43264 -0.77548,0.90608 -1.08567,1.30607 -0.31021,0.39999 -0.50611,0.7265 -0.751,0.95506 -0.24489,0.22856 -0.53875,0.35917 -0.73466,0.68568 -0.19591,0.32652 -0.29387,0.84895 -0.39999,1.39587 -0.10611,0.54692 -0.2204,1.11832 -0.32652,1.64891 -0.10611,0.53059 -0.20407,1.02036 -0.33467,1.44484 -0.13061,0.42447 -0.29387,0.78364 -0.44896,1.06934 -0.1551,0.28571 -0.30203,0.49794 -0.47345,0.51426 -0.17143,0.0163 -0.36733,-0.16326 -0.53059,-0.31835 -0.16326,-0.1551 -0.29386,-0.2857 -0.46529,-0.34284 -0.17142,-0.0571 -0.38366,-0.0408 -0.62855,-0.008 -0.24489,0.0327 -0.52243,0.0816 -0.83262,0.0571 -0.3102,-0.0245 -0.65303,-0.12244 -0.93873,-0.31019 -0.28571,-0.18775 -0.51426,-0.46528 -0.68569,-0.66119 -0.17142,-0.19592 -0.2857,-0.3102 -0.36733,-0.43264 -0.0816,-0.12245 -0.1306,-0.25305 -0.0653,-0.35101 0.0653,-0.098 0.24489,-0.16326 0.43264,-0.26121 0.18775,-0.098 0.38365,-0.22856 0.55508,-0.41631 0.17142,-0.18775 0.31835,-0.43264 0.47345,-0.75916 0.1551,-0.32652 0.31835,-0.73466 0.47345,-1.1673 0.1551,-0.43264 0.30203,-0.88975 0.45712,-1.42851 0.1551,-0.53876 0.31836,-1.15913 0.48978,-1.69789 0.17142,-0.53875 0.351,-0.99587 0.58773,-1.40402 0.23673,-0.40815 0.53059,-0.76731 0.79996,-1.15097 0.26938,-0.38366 0.51427,-0.7918 0.8163,-1.14281 0.30203,-0.35101 0.66119,-0.64487 0.90608,-0.8816 0.24489,-0.23672 0.37549,-0.4163 0.51425,-0.55506 0.065,-0.065 0.0829,-0.0966 0.12964,-0.14792"
         sodipodi:nodetypes="csssssssssssssssscssssscssssssssssc" /><path
         style="fill:#c70003;fill-opacity:1;fill-rule:evenodd;stroke:none;stroke-width:0.264583px;stroke-linecap:butt;stroke-linejoin:miter;stroke-opacity:1"
         d="m 128.38246,153.67938 0.0612,1.71421 1.39586,-0.75915 1.86115,-0.15918 c 0,0 2.77948,0.84486 2.76723,0.79589 -0.0122,-0.049 0.049,-0.74691 0.049,-0.74691 l -2.77947,-0.91833 -1.71422,0.12244 z"
         id="path68"
         sodipodi:nodetypes="ccccccccc" /></g></g></svg>
