<?xml version="1.0" encoding="UTF-8" standalone="no"?>
<!-- Created with Inkscape (http://www.inkscape.org/) -->

<svg
   width="17.9429mm"
   height="13.267212mm"
   viewBox="0 0 17.9429 13.267212"
   version="1.1"
   id="svg1"
   xml:space="preserve"
   inkscape:version="1.3 (0e150ed6c4, 2023-07-21)"
   sodipodi:docname="LittleRedLeftCloak.svg"
   xmlns:inkscape="http://www.inkscape.org/namespaces/inkscape"
   xmlns:sodipodi="http://sodipodi.sourceforge.net/DTD/sodipodi-0.dtd"
   xmlns:xlink="http://www.w3.org/1999/xlink"
   xmlns="http://www.w3.org/2000/svg"
   xmlns:svg="http://www.w3.org/2000/svg"><sodipodi:namedview
     id="namedview1"
     pagecolor="#505050"
     bordercolor="#eeeeee"
     borderopacity="1"
     inkscape:showpageshadow="0"
     inkscape:pageopacity="0"
     inkscape:pagecheckerboard="0"
     inkscape:deskcolor="#d1d1d1"
     inkscape:document-units="mm"
     inkscape:zoom="1.3505331"
     inkscape:cx="-11.476949"
     inkscape:cy="-0.74044835"
     inkscape:window-width="1280"
     inkscape:window-height="961"
     inkscape:window-x="-8"
     inkscape:window-y="-8"
     inkscape:window-maximized="1"
     inkscape:current-layer="layer2"
     showgrid="false" /><defs
     id="defs1"><linearGradient
       id="linearGradient20"
       inkscape:collect="always"><stop
         style="stop-color:#ce0003;stop-opacity:1;"
         offset="0"
         id="stop20" /><stop
         style="stop-color:#f84a47;stop-opacity:1;"
         offset="0.16756757"
         id="stop24" /><stop
         style="stop-color:#ce0808;stop-opacity:1;"
         offset="1"
         id="stop23" /></linearGradient><linearGradient
       inkscape:collect="always"
       xlink:href="#linearGradient20"
       id="linearGradient23"
       x1="119.85658"
       y1="201.23041"
       x2="120.94621"
       y2="214.3907"
       gradientUnits="userSpaceOnUse"
       gradientTransform="translate(16.580547,-45.144419)" /></defs><g
     inkscape:label="Layer 1"
     inkscape:groupmode="layer"
     id="layer1"
     transform="translate(-123.73973,-155.92657)" /><g
     inkscape:groupmode="layer"
     id="layer2"
     inkscape:label="Layer 2"
     transform="translate(-123.73973,-155.92657)"><path
       id="path14"
       style="fill:url(#linearGradient23);fill-rule:evenodd;stroke:#7d220e;stroke-width:0.264583px;stroke-linecap:butt;stroke-linejoin:miter;stroke-opacity:1"
       d="m 134.893,155.98603 c 0.0321,0.0638 0.10316,0.1357 0.20678,0.21578 0.17958,0.13877 0.45711,0.30203 0.77547,0.53876 0.31836,0.23673 0.67752,0.54691 0.96323,0.88159 0.2857,0.33469 0.49793,0.69385 0.71833,1.07751 0.2204,0.38366 0.44896,0.7918 0.62854,1.19995 0.17959,0.40815 0.31019,0.81629 0.40815,1.22444 0.098,0.40815 0.16326,0.81629 0.25306,1.24893 0.0898,0.43264 0.20407,0.88975 0.40814,1.37954 0.20408,0.48978 0.49794,1.0122 0.75099,1.41218 0.25305,0.39999 0.46529,0.67752 0.66936,0.91425 0.20407,0.23673 0.39998,0.43263 0.56324,0.62038 0.16326,0.18775 0.29386,0.36733 0.31019,0.56324 0.0163,0.1959 -0.0816,0.40815 -0.24489,0.57957 -0.16326,0.17142 -0.39182,0.30203 -0.60406,0.39998 -0.21223,0.0979 -0.40814,0.16326 -0.57956,0.21224 -0.17143,0.049 -0.31834,0.0816 -0.47345,0.098 -0.1551,0.0163 -0.31835,0.0163 -0.47345,0.0816 -0.1551,0.0653 -0.30203,0.1959 -0.41631,0.34283 -0.11428,0.14693 -2.00808,-0.10611 -2.0489,-0.0245 -0.0408,0.0816 1.5779,-0.0178 1.65712,0.11421 l -3e-5,-5e-5 -14.47288,-0.97955 c -0.19403,-0.0131 1.07588,-5.71644 1.48561,-6.37524 0.34485,-0.55446 1.80879,-3.01301 2.12336,-3.25378 0.57051,-0.43668 1.61489,-2.04601 1.96655,-2.10084 0.68697,-0.10711 3.83921,0.78682 3.85521,0.55063 0.0115,-0.16964 0.0574,-0.46896 -0.044,-0.52555"
       sodipodi:nodetypes="cssssssssssssssscsssscsssssc" /></g></svg>
