<?xml version="1.0" encoding="UTF-8" standalone="no"?>
<!-- Created with Inkscape (http://www.inkscape.org/) -->

<svg
   width="5.9358473mm"
   height="30.962954mm"
   viewBox="0 0 5.9358473 30.962954"
   version="1.1"
   id="svg1"
   xml:space="preserve"
   inkscape:version="1.3 (0e150ed6c4, 2023-07-21)"
   sodipodi:docname="LittleRedBow.svg"
   xmlns:inkscape="http://www.inkscape.org/namespaces/inkscape"
   xmlns:sodipodi="http://sodipodi.sourceforge.net/DTD/sodipodi-0.dtd"
   xmlns="http://www.w3.org/2000/svg"
   xmlns:svg="http://www.w3.org/2000/svg"><sodipodi:namedview
     id="namedview1"
     pagecolor="#505050"
     bordercolor="#eeeeee"
     borderopacity="1"
     inkscape:showpageshadow="0"
     inkscape:pageopacity="0"
     inkscape:pagecheckerboard="0"
     inkscape:deskcolor="#d1d1d1"
     inkscape:document-units="mm"
     inkscape:zoom="3.8198844"
     inkscape:cx="19.372314"
     inkscape:cy="63.61449"
     inkscape:window-width="1280"
     inkscape:window-height="961"
     inkscape:window-x="-8"
     inkscape:window-y="-8"
     inkscape:window-maximized="1"
     inkscape:current-layer="layer2"
     showgrid="false" /><defs
     id="defs1"><inkscape:path-effect
       effect="bspline"
       id="path-effect53"
       is_visible="true"
       lpeversion="1.3"
       weight="33.333333"
       steps="2"
       helper_size="0"
       apply_no_weight="true"
       apply_with_weight="true"
       only_selected="false"
       uniform="false" /><inkscape:path-effect
       effect="bspline"
       id="path-effect52"
       is_visible="true"
       lpeversion="1.3"
       weight="33.333333"
       steps="2"
       helper_size="0"
       apply_no_weight="true"
       apply_with_weight="true"
       only_selected="false"
       uniform="false" /></defs><g
     inkscape:label="Layer 1"
     inkscape:groupmode="layer"
     id="layer1"
     transform="translate(-140.16871,-142.15566)" /><g
     inkscape:groupmode="layer"
     id="layer2"
     inkscape:label="Layer 2"
     transform="translate(-140.16871,-142.15566)"><g
       id="g45"
       transform="translate(0.9494193,-0.01884541)"><path
         style="fill:#ce852a;fill-opacity:1;fill-rule:evenodd;stroke:#421f05;stroke-width:0.264583px;stroke-linecap:butt;stroke-linejoin:miter;stroke-opacity:1"
         d="m 152.32473,142.16589 c 0.0115,0.38096 0.0346,1.14287 0.21937,2.00869 0.18471,0.86582 0.53103,1.83551 0.96971,2.77059 0.43868,0.93508 0.9697,1.83551 1.43147,2.7475 0.46177,0.912 0.85426,1.83551 1.16595,2.85141 0.3117,1.01589 0.54258,2.1241 0.62339,3.30162 0.0808,1.17751 0.0115,2.42425 -0.28861,3.65948 -0.30015,1.23523 -0.83117,2.45889 -1.43147,3.69412 -0.6003,1.23523 -1.26985,2.48197 -1.70853,3.47478 -0.43868,0.9928 -0.64647,1.73161 -0.785,2.41272 -0.13853,0.68111 -0.20779,1.30448 -0.26552,1.7547 -0.0577,0.45022 -0.10389,0.72729 -0.1847,0.785 -0.0808,0.0577 -0.19625,-0.1039 -0.27129,-0.4964 -0.075,-0.39251 -0.10966,-1.01588 -0.10389,-1.6335 0.006,-0.61762 0.052,-1.22944 0.16739,-1.77202 0.11545,-0.54258 0.30014,-1.01587 0.51948,-1.47764 0.21934,-0.46178 0.4733,-0.91198 0.79077,-1.4892 0.31748,-0.57722 0.69842,-1.28139 1.05052,-2.03754 0.3521,-0.75615 0.67533,-1.56422 0.91776,-2.26842 0.24243,-0.7042 0.40404,-1.30448 0.50794,-2.00868 0.1039,-0.7042 0.15007,-1.51226 0.11544,-2.33768 -0.0346,-0.82542 -0.15007,-1.66811 -0.35787,-2.53394 -0.2078,-0.86582 -0.50794,-1.7547 -0.81963,-2.4993 -0.3117,-0.7446 -0.63493,-1.34489 -0.93508,-1.91056 -0.30015,-0.56566 -0.5772,-1.09668 -0.77345,-1.47764 -0.19625,-0.38096 -0.31169,-0.61184 -0.46176,-0.93508 -0.15008,-0.32323 -0.33478,-0.73881 -0.45023,-1.22367 -0.11544,-0.48486 -0.16161,-1.03897 -0.19625,-1.54692 -0.0346,-0.50794 -0.0577,-0.9697 -0.0462,-1.38529 0.0115,-0.41559 0.0577,-0.78501 0.15006,-1.10824 0.0923,-0.32323 0.23088,-0.60028 0.31169,-0.54256 0.0808,0.0577 0.10392,0.45022 0.11547,0.64647 0.0115,0.19625 0.0115,0.19625 0.0231,0.5772 z"
         id="path51"
         sodipodi:nodetypes="sccccccccccccccccccccccccccccccss"
         transform="translate(-12.343394,1.371372)"
         inkscape:original-d="m 152.31318,141.78494 c 0.0231,0.76191 0.0462,1.52382 0.0693,2.28573 0.34633,0.96973 0.69265,1.93942 1.03897,2.90912 0.53104,0.90046 1.06206,1.80089 1.59309,2.70133 0.39251,0.92355 0.785,1.84706 1.1775,2.77059 0.23089,1.10826 0.46177,2.21647 0.69265,3.3247 -0.0693,1.2468 -0.13853,2.49354 -0.20779,3.7403 -0.53104,1.2237 -1.06206,2.44736 -1.59309,3.67103 -0.66958,1.24679 -1.33912,2.49353 -2.00868,3.7403 -0.2078,0.73884 -0.41559,1.47765 -0.62338,2.21647 -0.0693,0.6234 -0.13853,1.24677 -0.2078,1.87015 -0.0462,0.27706 -0.0924,0.55412 -0.13853,0.83118 -0.11544,-0.16163 -0.23088,-0.32324 -0.34632,-0.48486 -0.0346,-0.62339 -0.0693,-1.24676 -0.10389,-1.87015 0.0462,-0.61185 0.0923,-1.22367 0.13853,-1.83551 0.1847,-0.47332 0.3694,-0.94661 0.55411,-1.41993 0.25397,-0.45023 0.50793,-0.90043 0.76191,-1.35066 0.38097,-0.70421 0.76191,-1.40838 1.14287,-2.11258 0.32324,-0.8081 0.64647,-1.61617 0.96971,-2.42426 0.16162,-0.60031 0.32323,-1.20059 0.48485,-1.80089 0.0462,-0.8081 0.0924,-1.61616 0.13853,-2.42426 -0.11545,-0.84274 -0.23088,-1.68543 -0.34632,-2.52816 -0.30016,-0.88892 -0.6003,-1.7778 -0.90045,-2.6667 -0.32324,-0.6003 -0.64647,-1.20059 -0.9697,-1.80088 -0.27707,-0.53104 -0.55412,-1.06206 -0.83118,-1.59309 -0.11544,-0.23089 -0.23088,-0.46177 -0.34632,-0.69265 -0.18471,-0.41559 -0.36942,-0.83117 -0.55412,-1.24676 -0.0462,-0.55413 -0.0924,-1.10824 -0.13853,-1.66236 -0.0231,-0.46177 -0.0462,-0.92353 -0.0693,-1.38529 0.0462,-0.36942 0.0924,-0.73883 0.13852,-1.10824 0.13854,-0.27706 0.27706,-0.55411 0.41559,-0.83118 0.0231,0.39251 0.0462,0.78501 0.0693,1.17751 z"
         inkscape:path-effect="#path-effect52" /><path
         style="fill:#fbbb9f;fill-opacity:1;fill-rule:evenodd;stroke:#372307;stroke-width:0.264583px;stroke-linecap:butt;stroke-linejoin:miter;stroke-opacity:1"
         d="m 155.62691,154.67521 c 0.29454,-0.0205 0.88091,-0.0612 1.16662,0.58371 0.28571,0.64489 0.26937,1.97538 -0.0245,2.59578 -0.29387,0.6204 -0.86026,0.53139 -1.14846,-0.11912 -0.28819,-0.65052 -0.28818,-1.8372 -0.28817,-2.43856 1e-5,-0.60136 -3e-5,-0.60136 0.29451,-0.62181 z"
         id="path52"
         sodipodi:nodetypes="scccs"
         transform="translate(-11.976062,1.2979056)"
         inkscape:original-d="m 155.33237,154.69566 c 0.58908,-0.0409 1.17545,-0.0816 1.7632,-0.12244 -0.0164,1.33059 -0.0327,2.66108 -0.049,3.99167 -0.57141,-0.0898 -1.1378,-0.1788 -1.71421,-0.26938 2e-5,-1.21045 3e-5,-2.39713 5e-5,-3.59985 z"
         inkscape:path-effect="#path-effect53" /></g></g></svg>
