<?xml version="1.0" encoding="UTF-8" standalone="no"?>
<!-- Generator: Adobe Illustrator 16.0.0, SVG Export Plug-In . SVG Version: 6.00 Build 0)  -->

<svg
   version="1.1"
   x="0px"
   y="0px"
   width="30.138245"
   height="94.752304"
   viewBox="0 0 30.138246 94.752303"
   enable-background="new 0 0 283.464 325.009"
   xml:space="preserve"
   id="svg1191"
   sodipodi:docname="LogoSalutation.svg"
   inkscape:version="1.3 (0e150ed6c4, 2023-07-21)"
   xmlns:inkscape="http://www.inkscape.org/namespaces/inkscape"
   xmlns:sodipodi="http://sodipodi.sourceforge.net/DTD/sodipodi-0.dtd"
   xmlns:xlink="http://www.w3.org/1999/xlink"
   xmlns="http://www.w3.org/2000/svg"
   xmlns:svg="http://www.w3.org/2000/svg"><defs
   id="defs1191"><linearGradient
     id="linearGradient79"
     gradientUnits="userSpaceOnUse"
     x1="54.939499"
     y1="-2.2256"
     x2="54.9394"
     y2="257.96921">&#10;				&#10;				&#10;				&#10;				&#10;				&#10;				&#10;				&#10;				&#10;				&#10;				&#10;				<stop
   offset="0.7359"
   style="stop-color:#EBC010"
   id="stop69" />&#10;				<stop
   offset="0.7513"
   style="stop-color:#FFC500"
   id="stop70" />&#10;				<stop
   offset="0.7535"
   style="stop-color:#FDBE0A"
   id="stop71" />&#10;				<stop
   offset="0.7627"
   style="stop-color:#F7A12F"
   id="stop72" />&#10;				<stop
   offset="0.7727"
   style="stop-color:#F1894E"
   id="stop73" />&#10;				<stop
   offset="0.7835"
   style="stop-color:#ED7568"
   id="stop74" />&#10;				<stop
   offset="0.7954"
   style="stop-color:#E9667C"
   id="stop75" />&#10;				<stop
   offset="0.809"
   style="stop-color:#E75B8A"
   id="stop76" />&#10;				<stop
   offset="0.8256"
   style="stop-color:#E55593"
   id="stop77" />&#10;				<stop
   offset="0.8543"
   style="stop-color:#E55395"
   id="stop78" />&#10;				<stop
   offset="0.98479998"
   style="stop-color:#dda0bc;stop-opacity:1;"
   id="stop79" />&#10;			</linearGradient><linearGradient
     inkscape:collect="always"
     xlink:href="#linearGradient79"
     id="linearGradient25"
     gradientUnits="userSpaceOnUse"
     gradientTransform="matrix(-0.9979111,0.06460207,0.06460207,0.9979111,53.727551,-175.72055)"
     x1="54.939499"
     y1="-2.2256"
     x2="54.9394"
     y2="257.96921" /></defs><sodipodi:namedview
   id="namedview1191"
   pagecolor="#000000"
   bordercolor="#eeeeee"
   borderopacity="1"
   inkscape:showpageshadow="0"
   inkscape:pageopacity="0"
   inkscape:pagecheckerboard="0"
   inkscape:deskcolor="#d1d1d1"
   inkscape:zoom="1.1661215"
   inkscape:cx="124.34381"
   inkscape:cy="244.39991"
   inkscape:window-width="1280"
   inkscape:window-height="961"
   inkscape:window-x="-8"
   inkscape:window-y="-8"
   inkscape:window-maximized="1"
   inkscape:current-layer="svg1191" />&#10;&#10;&#10;&#10;<path
   id="path24"
   style="fill:url(#linearGradient25);stroke:#000000;stroke-opacity:0.5"
   d="m 13.852731,0.68953734 c 8.62017,1.35902996 10.12291,7.09276996 10.38029,9.10790996 0.16064,2.0789597 -0.93395,18.7287397 -0.54174,20.8398197 0.5065,2.73098 0.45595,5.56703 0.60963,8.35891 0.0342,0.60508 0.38831,1.35618 -0.38313,1.76088 -0.76094,0.39698 -1.36038,-0.0649 -1.93976,-0.51641 -0.60277,-0.472 -1.23487,-1.18283 -2.03985,-0.49033 -0.78245,0.66891 -0.25728,1.43585 0.11716,2.11207 0.64585,1.1687 0.64933,2.24193 -0.42818,3.15143 -1.04707,0.88354 -2.0185,0.5299 -2.99751,-0.19739 -0.95997,-0.70822 -2.03219,-1.20171 -3.26812,-1.02147 -0.79718,0.11574 -1.50041,0.50528 -0.91388,1.42333 0.98692,1.54649 0.12143,3.42618 1.03938,4.99013 0.28261,0.48078 -0.0656,1.12787 -0.4656,1.60571 -0.83725,1.00278 -1.7443,1.87258 -2.9339,2.11583 0.19787,0.0231 0.39948,0.0858 0.58982,0.22212 1.79941,1.29548 3.48923,2.72578 4.96493,4.3759 0.67771,0.76067 0.14996,3.00717 -0.77818,3.70059 -1.11076,0.82948 -1.73382,0.0103 -2.43317,-0.73108 -1.53285,-1.62038 -2.03777,-1.66288 -3.9487997,-0.40982 -0.58153,0.38236 -1.22508,0.63448 -1.8335,0.36924 -1.13046,-0.49702 -2.4339,-0.49257 -3.46284,-1.24765 -1.18762,-1.81409 -1.38349,-3.9155 -1.52742,-5.96848 C 0.93541127,43.862807 1.1479413,18.896327 0.50282127,8.5133273 1.0390513,5.5669873 5.2325613,-0.66951266 13.852741,0.68952734 Z m 9.63096,45.21371966 c 0.75651,-0.1123 3.98287,2.20715 4.34955,8.26363 0.0528,0.87743 -0.0188,1.7807 -0.1689,2.65121 -0.6403,3.73117 -6.02326,1.38513 -7.01804,0.49151 -0.24034,-0.21609 -0.48715,-0.42694 -0.72858,-0.64173 -0.83157,-0.74086 -0.9296,-2.7624 -0.37681,-3.37139 0.56227,-0.61667 0.45894,-1.17834 -0.23297,-1.60353 -0.13566,-0.0812 -0.30432,-0.11051 -0.44822,-0.18239 -0.34829,-0.17891 -0.35035,-0.42529 -0.0781,-0.66236 0.14611,-0.13132 0.34906,-0.19572 0.52504,-0.29432 0.34067,-0.18636 0.36196,-0.40775 0.0597,-0.64973 -0.15841,-0.12721 -0.33868,-0.22258 -0.48877,-0.35814 -0.63263,-0.56123 -0.58518,-0.99573 0.18726,-1.37042 1.09698,-0.53098 2.19317,-0.49424 3.24472,0.14617 0.23986,0.14595 0.44379,0.39551 0.69771,0.46968 0.27391,0.0825 0.72247,0.13272 0.85999,-0.0185 0.19845,-0.21629 0.30316,-0.65973 0.22463,-0.94424 -0.098,-0.36944 -0.46411,-0.65892 -0.62789,-1.02213 -0.11475,-0.25611 -0.22728,-0.70929 -0.098,-0.84893 0.0269,-0.0288 0.0673,-0.0472 0.11772,-0.0547 z M 2.9768113,65.597317 c 0.21895,-3.7e-4 0.51679,0.11976 0.92046,0.34164 1.30845,0.72298 2.57754,1.52185 3.90818,2.20138 4.1981797,2.14218 8.3795997,2.17976 12.4520397,-0.32854 1.32492,-0.81829 2.55696,-1.78841 3.8283,-2.6905 0.3728,-0.26263 0.70583,-0.62943 1.11508,-0.76497 0.23955,-0.0781 0.76651,0.12811 0.87186,0.34675 0.24715,0.51909 0.33842,1.11535 0.45759,1.68686 0.98759,4.77616 1.97379,9.55169 2.94751,14.32975 0.39274,1.93368 0.0632,3.7772 -0.90242,5.4701 -2.75758,4.83225 -7.07771,7.26884 -12.56797,8.06119 -4.93817,-0.18337 -9.3729397,-1.71135 -12.6942697,-5.68007 -1.60305,-1.9155 -2.39629003,-4.12323 -2.02301,-6.69971 0.20327,-1.41107 0.17962,-2.85352 0.28273,-4.27918 0.26389,-3.6326 0.51617,-7.26391 0.82541,-10.89245 0.0651,-0.76455 0.21348,-1.10169 0.57846,-1.10218 z"
   sodipodi:nodetypes="zccccccccccccccccccccccczcscccccccccccccccccccccccccccccccccccc"
   inkscape:transform-center-y="36.466057"
   inkscape:transform-center-x="-3.0720199"
   inkscape:export-filename="LogoLeftArm.svg"
   inkscape:export-xdpi="60"
   inkscape:export-ydpi="60" /></svg>
