<?xml version="1.0" encoding="UTF-8" standalone="no"?>
<!-- Generator: Adobe Illustrator 16.0.0, SVG Export Plug-In . SVG Version: 6.00 Build 0)  -->

<svg
   version="1.1"
   x="0px"
   y="0px"
   width="87.535797"
   height="89.986824"
   viewBox="0 0 87.5358 89.986823"
   enable-background="new 0 0 283.464 325.009"
   xml:space="preserve"
   id="svg1191"
   sodipodi:docname="LogoSalutation.svg"
   inkscape:version="1.3 (0e150ed6c4, 2023-07-21)"
   xmlns:inkscape="http://www.inkscape.org/namespaces/inkscape"
   xmlns:sodipodi="http://sodipodi.sourceforge.net/DTD/sodipodi-0.dtd"
   xmlns="http://www.w3.org/2000/svg"
   xmlns:svg="http://www.w3.org/2000/svg"><defs
   id="defs1191"><linearGradient
     id="SVGID_2_"
     gradientUnits="userSpaceOnUse"
     x1="123.3403"
     y1="-2.2270999"
     x2="123.3403"
     y2="257.97159"
     gradientTransform="translate(-80.000862,-0.77851392)">&#10;				<stop
   offset="0"
   style="stop-color:#92d7ff;stop-opacity:1;"
   id="stop17" />&#10;				<stop
   offset="0.15009999"
   style="stop-color:#1bacff;stop-opacity:1;"
   id="stop18" />&#10;				<stop
   offset="0.28830001"
   style="stop-color:#039df3;stop-opacity:1;"
   id="stop19" />&#10;				<stop
   offset="0.37029999"
   style="stop-color:#12a8f3;stop-opacity:1;"
   id="stop20" />&#10;				<stop
   offset="0.43759999"
   style="stop-color:#23a7e2;stop-opacity:1;"
   id="stop21" />&#10;				<stop
   offset="0.4938153"
   style="stop-color:#2d8ca5;stop-opacity:1;"
   id="stop22" />&#10;				<stop
   offset="0.55119997"
   style="stop-color:#a4d4d0;stop-opacity:1;"
   id="stop23" />&#10;				<stop
   offset="0.6015"
   style="stop-color:#689B77"
   id="stop24" />&#10;				<stop
   offset="0.649"
   style="stop-color:#8EA659"
   id="stop25" />&#10;				<stop
   offset="0.6941"
   style="stop-color:#BAB236"
   id="stop26" />&#10;				<stop
   offset="0.7359"
   style="stop-color:#EBC010"
   id="stop27" />&#10;				<stop
   offset="0.7513"
   style="stop-color:#FFC500"
   id="stop28" />&#10;				<stop
   offset="0.7535"
   style="stop-color:#FDBE0A"
   id="stop29" />&#10;				<stop
   offset="0.7627"
   style="stop-color:#F7A12F"
   id="stop30" />&#10;				<stop
   offset="0.7727"
   style="stop-color:#F1894E"
   id="stop31" />&#10;				<stop
   offset="0.7835"
   style="stop-color:#ED7568"
   id="stop32" />&#10;				<stop
   offset="0.7954"
   style="stop-color:#E9667C"
   id="stop33" />&#10;				<stop
   offset="0.809"
   style="stop-color:#E75B8A"
   id="stop34" />&#10;				<stop
   offset="0.8256"
   style="stop-color:#E55593"
   id="stop35" />&#10;				<stop
   offset="0.8543"
   style="stop-color:#E55395"
   id="stop36" />&#10;				<stop
   offset="0.9848"
   style="stop-color:#632742"
   id="stop37" />&#10;			</linearGradient></defs><sodipodi:namedview
   id="namedview1191"
   pagecolor="#000000"
   bordercolor="#eeeeee"
   borderopacity="1"
   inkscape:showpageshadow="0"
   inkscape:pageopacity="0"
   inkscape:pagecheckerboard="0"
   inkscape:deskcolor="#d1d1d1"
   inkscape:zoom="1.1661215"
   inkscape:cx="124.34381"
   inkscape:cy="244.39991"
   inkscape:window-width="1280"
   inkscape:window-height="961"
   inkscape:window-x="-8"
   inkscape:window-y="-8"
   inkscape:window-maximized="1"
   inkscape:current-layer="svg1191" />&#10;&#10;&#10;<path
   id="path37"
   style="fill:url(#SVGID_2_);stroke:#000000;stroke-opacity:0.5"
   d="m 43.774531,0.50078308 c -3.51492,0.02121 -7.04969,0.487329 -10.58594,1.39257802 C 17.989601,5.7843571 7.9497709,15.577141 2.6807809,30.278127 c -0.693003,1.937998 -0.927004,4.039408 -1.375003,6.066406 0.0026,-5.13e-4 0.0052,5.07e-4 0.0078,0 -0.115535,0.656359 -0.233093,1.311449 -0.34765595,1.966797 -0.0033,0.0025 -0.0065,0.0033 -0.0098,0.0059 -0.121,0.638999 -0.310562,1.272016 -0.351562,1.916016 -0.472,7.404992 0.63686195,14.541288 3.63086095,21.363281 0.49,1.114999 1.10336,1.972985 2.31836,2.458984 1.271,0.511 2.42364,1.323939 2.93164,2.710938 0.168,0.462001 0.30097,1.030801 0.16797,1.466801 -0.056,0.189 -0.82574,0.16086 -1.42774,0.25586 2.9300001,4.30099 6.3473501,7.88658 10.6523501,10.64257 0.187,-0.29 0.25495,-0.34643 0.25195,-0.39843 -0.023,-0.321 -0.0387,-0.64489 -0.0957,-0.96289 -0.582,-3.217 0.44299,-5.86902 2.70899,-8.16602 2.004,-2.033 4.32432,-3.565048 6.94531,-4.623047 4.581,-1.850999 9.4017,-2.641688 14.30469,-2.804688 3.785,-0.125 7.5478,0.354876 11.2168,1.296875 2.84199,0.730999 5.63909,1.652345 8.12109,3.277344 2.201,1.439996 4.07403,3.216146 5.45703,5.494146 0.982,1.61999 0.71522,3.39967 0.82422,5.13867 5.9e-4,2.6e-4 0.001,-2.7e-4 0.002,0 -0.106,0.528 -0.21045,1.05793 -0.31445,1.58593 3.43671,-1.93627 6.37878,-4.23465 8.51758,-7.42578 5e-4,-7.5e-4 0.001,-0.001 0.002,-0.002 0.246,-0.21 0.53342,-0.38777 0.73242,-0.63477 4.059,-5.013991 6.91408,-10.611846 8.20508,-16.96484 0.104,-0.308 0.2445,-0.606969 0.3125,-0.917969 2.029,-9.95699 0.88297,-19.523931 -3.58203,-28.669922 -0.277,-0.575999 -0.68516,-1.091766 -1.03516,-1.634765 -0.79299,0.408999 -1.18751,-0.134251 -1.60351,-0.65625 -0.332,-0.415 -0.79139,-0.930672 -1.27539,-0.763672 -2.052,0.710999 -4.98433,-3.37422 -5.23633,-5.074219 -0.203,-1.371998 -1.12514,-1.949234 -2.36914,-1.365234 -0.752,0.352 -1.41566,0.539953 -2.22266,0.376953 -0.963,-0.195 -1.80508,0.0828 -2.45507,0.841797 -1.242,1.443998 -2.96271,1.827719 -4.72071,2.011719 -0.939,0.1 -2.21444,0.216842 -2.52343,-0.910157 -0.334,-1.227998 -0.31211,-2.655407 1.08789,-3.441406 1.17799,-0.661999 2.10986,-1.483986 2.50585,-2.833984 0.131,-0.447 3.04108,-2.6033149 2.45508,-4.6953129 -0.93,-0.491999 -1.85711,-0.982656 -2.78711,-1.472656 -0.003,0.0025 -0.005,0.0053 -0.008,0.0078 4.7e-4,-0.004 10e-4,-0.0077 0.002,-0.01172 -0.404,-0.211 -0.79693,-0.447954 -1.21093,-0.626953 -5.65562,-2.443748 -11.4582,-3.64082102 -17.31641,-3.60546902 z M 43.458121,66.096486 c -1.91153,0.01647 -3.83234,0.184938 -5.76171,0.507812 -3.242,0.541001 -6.3416,1.431031 -9.1836,3.082031 -2.458,1.427 -4.63528,3.13757 -5.36328,6.10156 -0.658,2.314 -0.55608,4.49029 1.16992,6.36329 0.951,0.48599 1.68918,1.24284 2.45117,1.96484 1.122,1.063 2.21461,1.275665 3.34961,0.0137 1.84,-2.048 4.09615,-1.35478 6.36914,-1.05078 2.569,0.343 4.23158,1.45853 4.64258,4.144525 5.764,0.704 -0.91662,1.07402 -1.14062,1.91602 0.373,0.098 0.74504,0.26615 1.12304,0.28515 4.317,0.217 8.59038,-0.10762 12.73438,-1.39062 2.998,-0.926 5.90017,-2.12843 8.20117,-4.357415 2.46658,-2.3966 3.65686,-5.1898 2.20899,-8.625 l 0.002,-0.002 c -0.479,-1.649 -1.6645,-2.75611 -2.9375,-3.78711 -2.471,-2.00199 -5.30619,-3.25758 -8.36719,-4.01757 -3.15,-0.785005 -6.31216,-1.175894 -9.49805,-1.148443 z"
   inkscape:export-filename="path37.svg"
   inkscape:export-xdpi="60"
   inkscape:export-ydpi="60" />&#10;</svg>
