<?xml version="1.0" encoding="UTF-8" standalone="no"?>
<!-- Generator: Adobe Illustrator 16.0.0, SVG Export Plug-In . SVG Version: 6.00 Build 0)  -->

<svg
   version="1.1"
   x="0px"
   y="0px"
   width="71.004852"
   height="69.492439"
   viewBox="0 0 71.004855 69.492439"
   enable-background="new 0 0 283.464 325.009"
   xml:space="preserve"
   id="svg1191"
   sodipodi:docname="LogoArm.svg"
   inkscape:version="1.3 (0e150ed6c4, 2023-07-21)"
   xmlns:inkscape="http://www.inkscape.org/namespaces/inkscape"
   xmlns:sodipodi="http://sodipodi.sourceforge.net/DTD/sodipodi-0.dtd"
   xmlns="http://www.w3.org/2000/svg"
   xmlns:svg="http://www.w3.org/2000/svg"><defs
   id="defs1191"><linearGradient
     id="SVGID_16_"
     gradientUnits="userSpaceOnUse"
     x1="222.7095"
     y1="-2.2279999"
     x2="222.7095"
     y2="257.97269"
     gradientTransform="translate(-185.92671,-116.06956)">&#10;				<stop
   offset="0"
   style="stop-color:#005582"
   id="stop311" />&#10;				<stop
   offset="0.1501"
   style="stop-color:#007FC8"
   id="stop312" />&#10;				<stop
   offset="0.2883"
   style="stop-color:#0380C6"
   id="stop313" />&#10;				<stop
   offset="0.3703"
   style="stop-color:#0B82C0"
   id="stop314" />&#10;				<stop
   offset="0.4376"
   style="stop-color:#1986B4"
   id="stop315" />&#10;				<stop
   offset="0.497"
   style="stop-color:#2D8BA5"
   id="stop316" />&#10;				<stop
   offset="0.5512"
   style="stop-color:#479390"
   id="stop317" />&#10;				<stop
   offset="0.6015"
   style="stop-color:#689B77"
   id="stop318" />&#10;				<stop
   offset="0.649"
   style="stop-color:#8EA659"
   id="stop319" />&#10;				<stop
   offset="0.6941"
   style="stop-color:#BAB236"
   id="stop320" />&#10;				<stop
   offset="0.7359"
   style="stop-color:#EBC010"
   id="stop321" />&#10;				<stop
   offset="0.7513"
   style="stop-color:#FFC500"
   id="stop322" />&#10;				<stop
   offset="0.7535"
   style="stop-color:#FDBE0A"
   id="stop323" />&#10;				<stop
   offset="0.7627"
   style="stop-color:#F7A12F"
   id="stop324" />&#10;				<stop
   offset="0.7727"
   style="stop-color:#F1894E"
   id="stop325" />&#10;				<stop
   offset="0.7835"
   style="stop-color:#ED7568"
   id="stop326" />&#10;				<stop
   offset="0.7954"
   style="stop-color:#E9667C"
   id="stop327" />&#10;				<stop
   offset="0.809"
   style="stop-color:#E75B8A"
   id="stop328" />&#10;				<stop
   offset="0.8256"
   style="stop-color:#E55593"
   id="stop329" />&#10;				<stop
   offset="0.8543"
   style="stop-color:#E55395"
   id="stop330" />&#10;				<stop
   offset="0.9848"
   style="stop-color:#632742"
   id="stop331" />&#10;			</linearGradient></defs><sodipodi:namedview
   id="namedview1191"
   pagecolor="#505050"
   bordercolor="#eeeeee"
   borderopacity="1"
   inkscape:showpageshadow="0"
   inkscape:pageopacity="0"
   inkscape:pagecheckerboard="0"
   inkscape:deskcolor="#d1d1d1"
   inkscape:zoom="1.6491449"
   inkscape:cx="-65.488484"
   inkscape:cy="21.22312"
   inkscape:window-width="1280"
   inkscape:window-height="961"
   inkscape:window-x="-8"
   inkscape:window-y="-8"
   inkscape:window-maximized="1"
   inkscape:current-layer="svg1191" />&#10;<g
   id="fil"
   transform="translate(-185.92671,-116.06956)">&#10;</g>&#10;<g
   id="marionnette"
   transform="translate(-185.92671,-116.06956)">&#10;</g>&#10;<path
   id="path331"
   style="fill:url(#SVGID_16_)"
   d="M 55.685547 0.001953125 C 55.552264 0.003430877 55.417608 0.0049924295 55.283203 0.009765625 L 55.28125 0.009765625 L 55.28125 0.0078125 C 55.01725 0.020812487 54.754281 0.031968761 54.488281 0.04296875 L 54.486328 0.044921875 C 51.767182 0.034999916 49.596878 1.1307075 47.929688 3.2636719 C 47.330688 4.0306711 46.685453 4.7626726 46.064453 5.5136719 C 43.908455 8.1076693 41.75756 10.703831 39.601562 13.298828 C 39.644562 13.487828 39.726516 13.656735 39.853516 13.802734 C 40.289515 14.298734 41.51539 14.18622 41.275391 15.074219 C 41.002391 16.102218 39.989874 15.414719 39.296875 15.511719 C 38.282876 15.652719 37.730704 16.130501 38.470703 17.1875 C 40.824917 18.077203 43.182804 18.96386 45.541016 19.851562 L 45.541016 19.853516 L 45.542969 19.853516 C 48.831056 21.94351 50.51915 25.066728 51.248047 28.783203 C 51.509047 30.117202 51.632375 31.479267 51.859375 32.822266 C 52.029375 33.848265 52.38822 34.001718 53.324219 33.511719 C 53.496219 33.421719 53.65836 33.312172 53.818359 33.201172 C 57.021356 30.981174 60.222738 28.75906 63.427734 26.539062 C 64.665733 25.703063 65.885533 24.839109 67.144531 24.037109 C 68.64653 23.08511 69.638547 21.729655 70.185547 20.097656 C 71.205354 17.062231 71.356422 13.994651 70.160156 10.949219 L 70.160156 10.947266 C 69.608002 8.3370002 68.454625 5.9554268 66.496094 4.2148438 C 63.443566 1.500409 59.837353 -0.044079483 55.685547 0.001953125 z M 36.820312 19.978516 C 35.918069 19.985345 35.012171 20.094625 34.123047 20.3125 C 30.99005 21.080499 28.687186 22.977831 26.742188 25.423828 C 26.741874 25.425248 26.74055 25.426315 26.740234 25.427734 C 22.952436 29.836336 19.166752 34.244694 15.376953 38.654297 C 15.375924 38.656379 15.374076 38.658074 15.373047 38.660156 C 15.373356 38.658144 15.374691 38.65631 15.375 38.654297 C 13.928001 40.348295 12.477342 42.037517 11.027344 43.728516 L 11.027344 43.730469 C 8.2303465 46.885466 5.3511536 49.969894 2.6601562 53.212891 C -0.53684055 57.067887 -0.66798242 61.427848 1.2910156 65.839844 C 1.897015 67.203842 3.1466103 68.281189 4.0996094 69.492188 C 4.5396089 68.370189 4.2641244 67.391655 3.703125 66.347656 C 3.0741256 65.174657 3.4195638 64.701937 4.7265625 64.585938 C 6.6155606 64.414938 7.2072967 63.874592 7.0292969 62.058594 C 6.918297 60.914595 7.2690792 60.306406 8.3300781 60.066406 C 9.1520773 59.881406 9.9985008 59.792937 10.8125 59.585938 C 12.203499 59.228938 12.228515 59.077358 11.478516 57.818359 C 11.369853 57.637255 11.27884 57.355731 11.261719 57.125 C 13.607913 55.824788 16.815514 54.731512 18.582031 57.097656 C 19.092031 57.861655 22.095987 56.385859 24.333984 56.130859 C 26.202946 55.918838 29.22998 56.446175 30.224609 56.634766 C 30.358605 56.679602 30.504516 56.711173 30.669922 56.720703 C 30.955922 56.454703 31.259578 56.211922 31.517578 55.919922 C 34.435575 52.605925 37.354003 49.290981 40.25 45.958984 C 42.333998 43.559987 44.490502 41.209216 46.4375 38.699219 C 49.335497 34.968222 49.419685 28.964231 46.804688 25.115234 C 44.580877 21.84005 40.730036 19.94892 36.820312 19.978516 z M 29.931641 57.496094 C 28.574642 58.316093 27.14653 58.708266 25.519531 58.697266 C 23.195534 58.682266 21.355765 60.214127 20.634766 62.453125 C 20.307766 63.471124 20.133157 64.427938 21.035156 65.335938 C 21.400156 65.708937 21.480406 66.373251 21.691406 66.90625 C 23.470404 64.964252 25.280345 63.04617 27.027344 61.076172 C 28.044343 59.928173 28.966642 58.693093 29.931641 57.496094 z " /><g
   id="g1186"
   transform="translate(-185.92671,-116.06956)">&#10;	</g><g
   id="g1187"
   transform="translate(-185.92671,-116.06956)">&#10;	</g><g
   id="g1188"
   transform="translate(-185.92671,-116.06956)">&#10;	</g><g
   id="g1189"
   transform="translate(-185.92671,-116.06956)">&#10;	</g><g
   id="g1190"
   transform="translate(-185.92671,-116.06956)">&#10;	</g><g
   id="g1191"
   transform="translate(-185.92671,-116.06956)">&#10;	</g>&#10;</svg>
