<?xml version="1.0" encoding="UTF-8" standalone="no"?>
<!-- Generator: Adobe Illustrator 16.0.0, SVG Export Plug-In . SVG Version: 6.00 Build 0)  -->

<svg
   version="1.1"
   x="0px"
   y="0px"
   width="273.45117"
   height="221.02785"
   viewBox="0 0 273.45118 221.02785"
   enable-background="new 0 0 283.464 325.009"
   xml:space="preserve"
   id="svg1191"
   sodipodi:docname="LogoSalutation.svg"
   inkscape:version="1.3 (0e150ed6c4, 2023-07-21)"
   xmlns:inkscape="http://www.inkscape.org/namespaces/inkscape"
   xmlns:sodipodi="http://sodipodi.sourceforge.net/DTD/sodipodi-0.dtd"
   xmlns:xlink="http://www.w3.org/1999/xlink"
   xmlns="http://www.w3.org/2000/svg"
   xmlns:svg="http://www.w3.org/2000/svg"><defs
   id="defs1191"><linearGradient
     id="SVGID_1_"
     gradientUnits="userSpaceOnUse"
     x1="-63.963402"
     y1="257.75681"
     x2="-63.963402"
     y2="218.8848"
     gradientTransform="matrix(-1.148,-0.0452,0.0452,1.1525,-51.067937,-110.15296)">&#10;		<stop
   offset="0"
   style="stop-color:#005582"
   id="stop1" />&#10;		<stop
   offset="0.1059"
   style="stop-color:#007FC8"
   id="stop2" />&#10;		<stop
   offset="0.1961"
   style="stop-color:#156CAB"
   id="stop3" />&#10;		<stop
   offset="0.3357"
   style="stop-color:#315386"
   id="stop4" />&#10;		<stop
   offset="0.4749"
   style="stop-color:#474068"
   id="stop5" />&#10;		<stop
   offset="0.6118"
   style="stop-color:#563253"
   id="stop6" />&#10;		<stop
   offset="0.7453"
   style="stop-color:#602A46"
   id="stop7" />&#10;		<stop
   offset="0.8715"
   style="stop-color:#632742"
   id="stop8" />&#10;		<stop
   offset="0.9263"
   style="stop-color:#652843"
   id="stop9" />&#10;		<stop
   offset="0.9461"
   style="stop-color:#6C2A48"
   id="stop10" />&#10;		<stop
   offset="0.9602"
   style="stop-color:#772E4F"
   id="stop11" />&#10;		<stop
   offset="0.9715"
   style="stop-color:#88345A"
   id="stop12" />&#10;		<stop
   offset="0.9813"
   style="stop-color:#9E3B68"
   id="stop13" />&#10;		<stop
   offset="0.9899"
   style="stop-color:#BA4479"
   id="stop14" />&#10;		<stop
   offset="0.9975"
   style="stop-color:#D94F8D"
   id="stop15" />&#10;		<stop
   offset="1"
   style="stop-color:#E55395"
   id="stop16" />&#10;	</linearGradient><linearGradient
     id="SVGID_54_"
     gradientUnits="userSpaceOnUse"
     x1="-75.661598"
     y1="-238.9736"
     x2="159.33459"
     y2="-263.47321"
     gradientTransform="matrix(0.9808,-0.1951,0.1951,0.9808,-63.929359,498.0249)">&#10;		<stop
   offset="0"
   style="stop-color:#005582"
   id="stop1109" />&#10;		<stop
   offset="0.0334"
   style="stop-color:#005B8B"
   id="stop1110" />&#10;		<stop
   offset="0.1447"
   style="stop-color:#006BA6"
   id="stop1111" />&#10;		<stop
   offset="0.2586"
   style="stop-color:#0076B9"
   id="stop1112" />&#10;		<stop
   offset="0.3755"
   style="stop-color:#007DC4"
   id="stop1113" />&#10;		<stop
   offset="0.5"
   style="stop-color:#007FC8"
   id="stop1114" />&#10;		<stop
   offset="0.657"
   style="stop-color:#007DC5"
   id="stop1115" />&#10;		<stop
   offset="0.7636"
   style="stop-color:#0078BC"
   id="stop1116" />&#10;		<stop
   offset="0.8552"
   style="stop-color:#006FAD"
   id="stop1117" />&#10;		<stop
   offset="0.9379"
   style="stop-color:#006298"
   id="stop1118" />&#10;		<stop
   offset="1"
   style="stop-color:#005582"
   id="stop1119" />&#10;	</linearGradient><linearGradient
     id="SVGID_3_"
     gradientUnits="userSpaceOnUse"
     x1="117.2729"
     y1="-2.2279999"
     x2="117.2729"
     y2="257.9718"
     gradientTransform="translate(11.287468,-101.2737)">&#10;				<stop
   offset="0"
   style="stop-color:#005582"
   id="stop38" />&#10;				<stop
   offset="0.1501"
   style="stop-color:#007FC8"
   id="stop39" />&#10;				<stop
   offset="0.2883"
   style="stop-color:#0380C6"
   id="stop40" />&#10;				<stop
   offset="0.3703"
   style="stop-color:#0B82C0"
   id="stop41" />&#10;				<stop
   offset="0.43759999"
   style="stop-color:#178dc1;stop-opacity:1;"
   id="stop42" />&#10;				<stop
   offset="0.497"
   style="stop-color:#2D8BA5"
   id="stop43" />&#10;				<stop
   offset="0.5512"
   style="stop-color:#479390"
   id="stop44" />&#10;				<stop
   offset="0.6015"
   style="stop-color:#689B77"
   id="stop45" />&#10;				<stop
   offset="0.649"
   style="stop-color:#8EA659"
   id="stop46" />&#10;				<stop
   offset="0.6941"
   style="stop-color:#BAB236"
   id="stop47" />&#10;				<stop
   offset="0.7359"
   style="stop-color:#EBC010"
   id="stop48" />&#10;				<stop
   offset="0.7513"
   style="stop-color:#FFC500"
   id="stop49" />&#10;				<stop
   offset="0.7535"
   style="stop-color:#FDBE0A"
   id="stop50" />&#10;				<stop
   offset="0.7627"
   style="stop-color:#F7A12F"
   id="stop51" />&#10;				<stop
   offset="0.7727"
   style="stop-color:#F1894E"
   id="stop52" />&#10;				<stop
   offset="0.7835"
   style="stop-color:#ED7568"
   id="stop53" />&#10;				<stop
   offset="0.7954"
   style="stop-color:#E9667C"
   id="stop54" />&#10;				<stop
   offset="0.809"
   style="stop-color:#E75B8A"
   id="stop55" />&#10;				<stop
   offset="0.8256"
   style="stop-color:#E55593"
   id="stop56" />&#10;				<stop
   offset="0.8543"
   style="stop-color:#E55395"
   id="stop57" />&#10;				<stop
   offset="0.9848"
   style="stop-color:#632742"
   id="stop58" />&#10;			</linearGradient><linearGradient
     id="SVGID_5_"
     gradientUnits="userSpaceOnUse"
     x1="54.939499"
     y1="-2.2256"
     x2="54.9394"
     y2="257.96921">&#10;				<stop
   offset="0"
   style="stop-color:#005582"
   id="stop80" />&#10;				<stop
   offset="0.1501"
   style="stop-color:#007FC8"
   id="stop81" />&#10;				<stop
   offset="0.2883"
   style="stop-color:#0380C6"
   id="stop82" />&#10;				<stop
   offset="0.3703"
   style="stop-color:#0B82C0"
   id="stop83" />&#10;				<stop
   offset="0.4376"
   style="stop-color:#1986B4"
   id="stop84" />&#10;				<stop
   offset="0.497"
   style="stop-color:#2D8BA5"
   id="stop85" />&#10;				<stop
   offset="0.5512"
   style="stop-color:#479390"
   id="stop86" />&#10;				<stop
   offset="0.6015"
   style="stop-color:#689B77"
   id="stop87" />&#10;				<stop
   offset="0.649"
   style="stop-color:#8EA659"
   id="stop88" />&#10;				<stop
   offset="0.6941"
   style="stop-color:#BAB236"
   id="stop89" />&#10;				<stop
   offset="0.7359"
   style="stop-color:#EBC010"
   id="stop90" />&#10;				<stop
   offset="0.7513"
   style="stop-color:#FFC500"
   id="stop91" />&#10;				<stop
   offset="0.7535"
   style="stop-color:#FDBE0A"
   id="stop92" />&#10;				<stop
   offset="0.7627"
   style="stop-color:#F7A12F"
   id="stop93" />&#10;				<stop
   offset="0.7727"
   style="stop-color:#F1894E"
   id="stop94" />&#10;				<stop
   offset="0.7835"
   style="stop-color:#ED7568"
   id="stop95" />&#10;				<stop
   offset="0.7954"
   style="stop-color:#E9667C"
   id="stop96" />&#10;				<stop
   offset="0.809"
   style="stop-color:#E75B8A"
   id="stop97" />&#10;				<stop
   offset="0.8256"
   style="stop-color:#E55593"
   id="stop98" />&#10;				<stop
   offset="0.8543"
   style="stop-color:#E55395"
   id="stop99" />&#10;				<stop
   offset="0.9848"
   style="stop-color:#632742"
   id="stop100" />&#10;			</linearGradient><linearGradient
     id="SVGID_8_"
     gradientUnits="userSpaceOnUse"
     x1="132.394"
     y1="-2.2256"
     x2="132.394"
     y2="257.97061"
     gradientTransform="translate(11.287468,-101.2737)">&#10;				<stop
   offset="0"
   style="stop-color:#005582"
   id="stop143" />&#10;				<stop
   offset="0.1501"
   style="stop-color:#007FC8"
   id="stop144" />&#10;				<stop
   offset="0.2883"
   style="stop-color:#0380C6"
   id="stop145" />&#10;				<stop
   offset="0.3703"
   style="stop-color:#0B82C0"
   id="stop146" />&#10;				<stop
   offset="0.4376"
   style="stop-color:#1986B4"
   id="stop147" />&#10;				<stop
   offset="0.497"
   style="stop-color:#2D8BA5"
   id="stop148" />&#10;				<stop
   offset="0.5512"
   style="stop-color:#479390"
   id="stop149" />&#10;				<stop
   offset="0.6015"
   style="stop-color:#689B77"
   id="stop150" />&#10;				<stop
   offset="0.649"
   style="stop-color:#8EA659"
   id="stop151" />&#10;				<stop
   offset="0.6941"
   style="stop-color:#BAB236"
   id="stop152" />&#10;				<stop
   offset="0.7359"
   style="stop-color:#EBC010"
   id="stop153" />&#10;				<stop
   offset="0.7513"
   style="stop-color:#FFC500"
   id="stop154" />&#10;				<stop
   offset="0.7535"
   style="stop-color:#FDBE0A"
   id="stop155" />&#10;				<stop
   offset="0.7627"
   style="stop-color:#F7A12F"
   id="stop156" />&#10;				<stop
   offset="0.7727"
   style="stop-color:#F1894E"
   id="stop157" />&#10;				<stop
   offset="0.7835"
   style="stop-color:#ED7568"
   id="stop158" />&#10;				<stop
   offset="0.7954"
   style="stop-color:#E9667C"
   id="stop159" />&#10;				<stop
   offset="0.809"
   style="stop-color:#E75B8A"
   id="stop160" />&#10;				<stop
   offset="0.8256"
   style="stop-color:#E55593"
   id="stop161" />&#10;				<stop
   offset="0.8543"
   style="stop-color:#E55395"
   id="stop162" />&#10;				<stop
   offset="0.9848"
   style="stop-color:#632742"
   id="stop163" />&#10;			</linearGradient><linearGradient
     id="SVGID_26_"
     gradientUnits="userSpaceOnUse"
     x1="110.1328"
     y1="-2.2031"
     x2="110.1328"
     y2="257.96091"
     gradientTransform="translate(11.287468,-101.2737)">&#10;				<stop
   offset="0"
   style="stop-color:#005582"
   id="stop521" />&#10;				<stop
   offset="0.1501"
   style="stop-color:#007FC8"
   id="stop522" />&#10;				<stop
   offset="0.2883"
   style="stop-color:#0380C6"
   id="stop523" />&#10;				<stop
   offset="0.3703"
   style="stop-color:#0B82C0"
   id="stop524" />&#10;				<stop
   offset="0.4376"
   style="stop-color:#1986B4"
   id="stop525" />&#10;				<stop
   offset="0.497"
   style="stop-color:#2D8BA5"
   id="stop526" />&#10;				<stop
   offset="0.5512"
   style="stop-color:#479390"
   id="stop527" />&#10;				<stop
   offset="0.6015"
   style="stop-color:#689B77"
   id="stop528" />&#10;				<stop
   offset="0.649"
   style="stop-color:#8EA659"
   id="stop529" />&#10;				<stop
   offset="0.6941"
   style="stop-color:#BAB236"
   id="stop530" />&#10;				<stop
   offset="0.7359"
   style="stop-color:#EBC010"
   id="stop531" />&#10;				<stop
   offset="0.7513"
   style="stop-color:#FFC500"
   id="stop532" />&#10;				<stop
   offset="0.7535"
   style="stop-color:#FDBE0A"
   id="stop533" />&#10;				<stop
   offset="0.7627"
   style="stop-color:#F7A12F"
   id="stop534" />&#10;				<stop
   offset="0.7727"
   style="stop-color:#F1894E"
   id="stop535" />&#10;				<stop
   offset="0.7835"
   style="stop-color:#ED7568"
   id="stop536" />&#10;				<stop
   offset="0.7954"
   style="stop-color:#E9667C"
   id="stop537" />&#10;				<stop
   offset="0.809"
   style="stop-color:#E75B8A"
   id="stop538" />&#10;				<stop
   offset="0.8256"
   style="stop-color:#E55593"
   id="stop539" />&#10;				<stop
   offset="0.8543"
   style="stop-color:#E55395"
   id="stop540" />&#10;				<stop
   offset="0.9848"
   style="stop-color:#632742"
   id="stop541" />&#10;			</linearGradient><linearGradient
     id="SVGID_38_"
     gradientUnits="userSpaceOnUse"
     x1="88.504898"
     y1="-2.2720001"
     x2="88.504898"
     y2="258.03009"
     gradientTransform="translate(11.287468,-101.2737)">&#10;				<stop
   offset="0"
   style="stop-color:#005582"
   id="stop773" />&#10;				<stop
   offset="0.1501"
   style="stop-color:#007FC8"
   id="stop774" />&#10;				<stop
   offset="0.2883"
   style="stop-color:#0380C6"
   id="stop775" />&#10;				<stop
   offset="0.3703"
   style="stop-color:#0B82C0"
   id="stop776" />&#10;				<stop
   offset="0.4376"
   style="stop-color:#1986B4"
   id="stop777" />&#10;				<stop
   offset="0.497"
   style="stop-color:#2D8BA5"
   id="stop778" />&#10;				<stop
   offset="0.5512"
   style="stop-color:#479390"
   id="stop779" />&#10;				<stop
   offset="0.6015"
   style="stop-color:#689B77"
   id="stop780" />&#10;				<stop
   offset="0.649"
   style="stop-color:#8EA659"
   id="stop781" />&#10;				<stop
   offset="0.6941"
   style="stop-color:#BAB236"
   id="stop782" />&#10;				<stop
   offset="0.7359"
   style="stop-color:#EBC010"
   id="stop783" />&#10;				<stop
   offset="0.7513"
   style="stop-color:#FFC500"
   id="stop784" />&#10;				<stop
   offset="0.7535"
   style="stop-color:#FDBE0A"
   id="stop785" />&#10;				<stop
   offset="0.7627"
   style="stop-color:#F7A12F"
   id="stop786" />&#10;				<stop
   offset="0.7727"
   style="stop-color:#F1894E"
   id="stop787" />&#10;				<stop
   offset="0.7835"
   style="stop-color:#ED7568"
   id="stop788" />&#10;				<stop
   offset="0.7954"
   style="stop-color:#E9667C"
   id="stop789" />&#10;				<stop
   offset="0.809"
   style="stop-color:#E75B8A"
   id="stop790" />&#10;				<stop
   offset="0.8256"
   style="stop-color:#E55593"
   id="stop791" />&#10;				<stop
   offset="0.8543"
   style="stop-color:#E55395"
   id="stop792" />&#10;				<stop
   offset="0.9848"
   style="stop-color:#632742"
   id="stop793" />&#10;			</linearGradient><linearGradient
     id="SVGID_39_"
     gradientUnits="userSpaceOnUse"
     x1="133.9438"
     y1="-2.0107"
     x2="133.9438"
     y2="257.90649"
     gradientTransform="translate(11.287468,-101.2737)">&#10;				<stop
   offset="0"
   style="stop-color:#005582"
   id="stop794" />&#10;				<stop
   offset="0.1501"
   style="stop-color:#007FC8"
   id="stop795" />&#10;				<stop
   offset="0.2883"
   style="stop-color:#0380C6"
   id="stop796" />&#10;				<stop
   offset="0.3703"
   style="stop-color:#0B82C0"
   id="stop797" />&#10;				<stop
   offset="0.4376"
   style="stop-color:#1986B4"
   id="stop798" />&#10;				<stop
   offset="0.497"
   style="stop-color:#2D8BA5"
   id="stop799" />&#10;				<stop
   offset="0.5512"
   style="stop-color:#479390"
   id="stop800" />&#10;				<stop
   offset="0.6015"
   style="stop-color:#689B77"
   id="stop801" />&#10;				<stop
   offset="0.649"
   style="stop-color:#8EA659"
   id="stop802" />&#10;				<stop
   offset="0.6941"
   style="stop-color:#BAB236"
   id="stop803" />&#10;				<stop
   offset="0.7359"
   style="stop-color:#EBC010"
   id="stop804" />&#10;				<stop
   offset="0.7513"
   style="stop-color:#FFC500"
   id="stop805" />&#10;				<stop
   offset="0.7535"
   style="stop-color:#FDBE0A"
   id="stop806" />&#10;				<stop
   offset="0.7627"
   style="stop-color:#F7A12F"
   id="stop807" />&#10;				<stop
   offset="0.7727"
   style="stop-color:#F1894E"
   id="stop808" />&#10;				<stop
   offset="0.7835"
   style="stop-color:#ED7568"
   id="stop809" />&#10;				<stop
   offset="0.7954"
   style="stop-color:#E9667C"
   id="stop810" />&#10;				<stop
   offset="0.809"
   style="stop-color:#E75B8A"
   id="stop811" />&#10;				<stop
   offset="0.8256"
   style="stop-color:#E55593"
   id="stop812" />&#10;				<stop
   offset="0.8543"
   style="stop-color:#E55395"
   id="stop813" />&#10;				<stop
   offset="0.9848"
   style="stop-color:#632742"
   id="stop814" />&#10;			</linearGradient><linearGradient
     id="SVGID_46_"
     gradientUnits="userSpaceOnUse"
     x1="141.7466"
     y1="-2.8223"
     x2="141.7466"
     y2="258.59991"
     gradientTransform="translate(11.287468,-101.2737)">&#10;				<stop
   offset="0"
   style="stop-color:#005582"
   id="stop941" />&#10;				<stop
   offset="0.1501"
   style="stop-color:#007FC8"
   id="stop942" />&#10;				<stop
   offset="0.2883"
   style="stop-color:#0380C6"
   id="stop943" />&#10;				<stop
   offset="0.3703"
   style="stop-color:#0B82C0"
   id="stop944" />&#10;				<stop
   offset="0.4376"
   style="stop-color:#1986B4"
   id="stop945" />&#10;				<stop
   offset="0.497"
   style="stop-color:#2D8BA5"
   id="stop946" />&#10;				<stop
   offset="0.5512"
   style="stop-color:#479390"
   id="stop947" />&#10;				<stop
   offset="0.6015"
   style="stop-color:#689B77"
   id="stop948" />&#10;				<stop
   offset="0.649"
   style="stop-color:#8EA659"
   id="stop949" />&#10;				<stop
   offset="0.6941"
   style="stop-color:#BAB236"
   id="stop950" />&#10;				<stop
   offset="0.7359"
   style="stop-color:#EBC010"
   id="stop951" />&#10;				<stop
   offset="0.7513"
   style="stop-color:#FFC500"
   id="stop952" />&#10;				<stop
   offset="0.7535"
   style="stop-color:#FDBE0A"
   id="stop953" />&#10;				<stop
   offset="0.7627"
   style="stop-color:#F7A12F"
   id="stop954" />&#10;				<stop
   offset="0.7727"
   style="stop-color:#F1894E"
   id="stop955" />&#10;				<stop
   offset="0.7835"
   style="stop-color:#ED7568"
   id="stop956" />&#10;				<stop
   offset="0.7954"
   style="stop-color:#E9667C"
   id="stop957" />&#10;				<stop
   offset="0.809"
   style="stop-color:#E75B8A"
   id="stop958" />&#10;				<stop
   offset="0.8256"
   style="stop-color:#E55593"
   id="stop959" />&#10;				<stop
   offset="0.8543"
   style="stop-color:#E55395"
   id="stop960" />&#10;				<stop
   offset="0.9848"
   style="stop-color:#632742"
   id="stop961" />&#10;			</linearGradient><linearGradient
     id="SVGID_56_"
     gradientUnits="userSpaceOnUse"
     x1="7.9302001"
     y1="269.20609"
     x2="242.93021"
     y2="244.7061"
     gradientTransform="translate(-5.0058592,-101.2737)">&#10;			<stop
   offset="0"
   style="stop-color:#005582"
   id="stop1131" />&#10;			<stop
   offset="0.0334"
   style="stop-color:#005B8B"
   id="stop1132" />&#10;			<stop
   offset="0.1447"
   style="stop-color:#006BA6"
   id="stop1133" />&#10;			<stop
   offset="0.2586"
   style="stop-color:#0076B9"
   id="stop1134" />&#10;			<stop
   offset="0.3755"
   style="stop-color:#007DC4"
   id="stop1135" />&#10;			<stop
   offset="0.5"
   style="stop-color:#007FC8"
   id="stop1136" />&#10;			<stop
   offset="0.657"
   style="stop-color:#007DC5"
   id="stop1137" />&#10;			<stop
   offset="0.7636"
   style="stop-color:#0078BC"
   id="stop1138" />&#10;			<stop
   offset="0.8552"
   style="stop-color:#006FAD"
   id="stop1139" />&#10;			<stop
   offset="0.9379"
   style="stop-color:#006298"
   id="stop1140" />&#10;			<stop
   offset="1"
   style="stop-color:#005582"
   id="stop1141" />&#10;		</linearGradient><linearGradient
     inkscape:collect="always"
     xlink:href="#SVGID_5_"
     id="linearGradient24"
     gradientUnits="userSpaceOnUse"
     x1="54.939499"
     y1="-2.2256"
     x2="54.9394"
     y2="257.96921"
     gradientTransform="matrix(-0.99808668,0.06183017,0.06183017,0.99808668,248.64584,-104.4102)" /><linearGradient
     inkscape:collect="always"
     xlink:href="#SVGID_5_"
     id="linearGradient2"
     gradientUnits="userSpaceOnUse"
     x1="54.939499"
     y1="-2.2256"
     x2="54.9394"
     y2="257.96921"
     gradientTransform="translate(11.287468,-101.2737)" /></defs><sodipodi:namedview
   id="namedview1191"
   pagecolor="#000000"
   bordercolor="#eeeeee"
   borderopacity="1"
   inkscape:showpageshadow="0"
   inkscape:pageopacity="0"
   inkscape:pagecheckerboard="0"
   inkscape:deskcolor="#d1d1d1"
   inkscape:zoom="1.1661215"
   inkscape:cx="124.34381"
   inkscape:cy="244.39991"
   inkscape:window-width="1280"
   inkscape:window-height="961"
   inkscape:window-x="-8"
   inkscape:window-y="-8"
   inkscape:window-maximized="1"
   inkscape:current-layer="svg1191" />&#10;<path
   id="path23"
   style="fill:url(#linearGradient24)"
   d="m 202.10846,33.361672 c 1.47521,-0.0623 3.05533,0.14219 4.71468,0.67267 5.14561,1.64599 7.56032,5.77798 7.92086,11.0157 0.76788,11.231 1.43857,22.47146 2.07077,33.71186 0.0817,1.46374 -0.29335,2.95432 -0.45734,4.43129 -0.86014,0.46106 -1.10758,-0.32389 -1.53177,-0.75048 -2.78171,-2.78834 -6.71444,-2.17356 -8.46905,1.29956 -0.44455,0.87817 -0.11987,1.33156 0.68501,1.64439 1.73506,0.67502 2.84641,-0.14527 3.74866,-1.52767 0.67332,-1.03461 1.65072,-1.49759 2.84445,-1.15073 0.95098,0.27773 1.46329,1.02353 1.53678,2.03191 0.0395,0.57266 0.17233,1.15625 -0.16712,1.69327 -2.33637,3.86684 -5.91366,5.69426 -10.28244,5.57416 -4.63793,-0.13049 -8.14805,-2.42081 -10.23295,-6.67303 -0.99314,-2.02546 -1.30586,-4.21218 -1.44518,-6.42881 -0.62856,-9.93614 -1.25619,-19.87345 -1.84694,-29.81394 -0.0952,-1.61721 -0.0231,-3.24425 0.01,-4.86538 0.11032,-5.32832 4.50927,-10.5949 10.90182,-10.86477 z"
   sodipodi:nodetypes="sccccccccccccscccs"
   inkscape:transform-center-y="27.843031"
   inkscape:transform-center-x="-1.7607154" />&#10;&#10;<path
   fill="none"
   stroke="url(#SVGID_1_)"
   stroke-linecap="round"
   stroke-miterlimit="10"
   d="m 50.029064,187.16164 c 4.06,-24.095 -27.543,10.377 -21.55,-0.278 8.113,-14.423 -1.831,-4.124 -2.192,-13.331 -0.361,-9.213 -9.794,-6.192 -10.223,-17.114 0,0 58.873469,-46.6683 84.707466,-41.6683"
   id="path16"
   style="stroke:url(#SVGID_1_)"
   sodipodi:nodetypes="ccccc" /><path
   id="path58"
   style="fill:url(#SVGID_3_)"
   d="m 134.36559,0.00364226 c -2.00095,-0.032 -4.01081,0.15294 -6.00781,0.33594 -2.257,0.208 -4.51509,0.44136 -6.74609,0.81836004 -1.461,0.248 -2.84691,0.72867 -3.75391,2.13867 -0.701,1.09 -0.94003,1.01597 -1.95703,0.16797 -0.3,-0.25 -0.99873,-0.54951 -1.05273,-0.47851 -0.361,0.479 -0.73127,1.02956 -0.82227,1.60156 -0.059,0.36 0.35545,0.80217 0.56445,1.20117 0.37,0.703 0.22591,1.25142 -0.49609,1.60742 -0.765,0.377 -1.23123,0.0664 -1.49023,-0.68359 -0.15,-0.427 -0.30408,-0.85135 -0.45703,-1.27735 -0.43556,-1.4344 -0.86386,-1.80973 -2.09962,-1.67187 -1.05199,0.118 -2.05495,0.40369 -2.62695,1.42969 -0.294,0.528 -0.63705,0.77806 -1.24805,0.41406 -1.51599,-0.901 -2.71719,0.20289 -3.99218,0.71289 -0.141,0.057 -0.25472,0.63692 -0.13672,0.79492 0.3,0.404 0.72218,0.96933 1.11718,0.98633 0.563,0.025 1.1428,-0.38342 1.7168,-0.60742 0.267,0.395 0.53757,0.78933 1.10156,1.61133 -0.028,-1.8 0.86434,-2.18722 1.98633,-2.44922 0.589,-0.137 1.15981,-0.53155 1.63281,-0.93555 0.5384,-0.45949 0.99687,-0.84869 1.6836,-0.32031 -0.29998,0.8364 -0.73001,1.65025 -0.87891,2.51367 -0.30499,1.761 -1.32607,2.9390197 -2.78906,3.7910197 -0.412,0.239 -1.09683,0.49345 -1.42383,0.31445 -1.25999,-0.692 -1.948,-0.0206 -2.625,0.85937 h -0.002 c -0.19293,-0.23025 -0.47406,-0.42897 -0.56055,-0.6914 -0.46,-1.446 -1.26284,-1.90077 -2.54883,-1.38282 -1.660989,0.67 -1.661769,0.6701 -2.884759,-0.63085 -1.187,-1.2629997 -1.51693,-1.3412397 -3.044925,-0.6132897 -1.173995,0.5619997 -2.326099,1.1721897 -3.496094,1.7421897 -0.862995,0.419 -1.501187,0.94972 -1.617187,2.01172 -0.112,1.027 -0.786552,1.4617 -1.810547,1.2207 -1.242995,-0.293 -2.308458,0.10816 -3.314453,0.78516 -4.33798,2.915 -8.2915,6.28036 -11.896485,10.07031 -0.734995,0.771 -0.758843,1.3796 -0.08984,2.1836 1.245995,1.49995 2.503145,3.00261 3.61914,4.59961 3.501985,5.01395 6.938364,10.07228 10.402344,15.11328 0.0037,0.003 0.008,0.007 0.01172,0.01 1.134509,2.11052 2.366381,4.17718 3.384766,6.34375 1.93199,4.111 3.739619,8.27883 5.599601,12.42383 1.51599,0.596 2.96448,-0.78364 4.35547,-0.30664 1.456809,0.49805 2.446629,0.15844 3.277349,-0.53516 -0.18033,0.42698 -0.25526,0.88908 -0.11524,1.41993 0.406,1.53095 1.18694,2.95818 1.21094,4.61718 0.002,0.357 0.49356,0.55085 0.85156,0.71485 1.57399,0.723 2.01803,1.88261 1.33203,3.47461 -0.163,0.381 -0.15153,0.74879 0.10547,1.09179 1.81799,0.516 3.63714,1.02888 5.45313,1.54688 0.423,0.152 0.83253,0.36531 1.26953,0.44531 3.624,0.666 7.24686,1.34359 10.88281,1.93359 1.396,0.227 2.82519,0.23866 4.24219,0.34766 0.294,-0.25 0.71114,-0.67087 0.99414,-0.42187 1.22,1.07695 2.72083,0.44501 4.04883,0.79101 0.278,0.007 0.55889,0.0125 0.83789,0.0215 2.006,-0.01 4.01767,0.0613 6.01367,-0.0527 2.058,-0.118 4.1033,-0.41767 6.1543,-0.63867 2.191,-0.276 4.40017,-0.46775 6.57617,-0.84375 7.21595,-1.241 14.13638,-3.48547 20.86133,-6.35547 0.832,-0.355 1.38055,-0.88086 1.68555,-1.75586 1.32595,-3.80695 2.69287,-7.59753 4.04687,-11.39453 h 0.002 c 0.914,-1.955 1.82329,-3.91228 2.73829,-5.86328 -0.033,-0.253 -0.10972,-0.49195 -0.13672,-0.75195 -0.273,-2.559 -1.83199,-3.28699 -3.95899,-1.83399 -0.793,0.543 -1.60728,0.5773 -2.48828,0.4043 2.175,0.154 3.10335,-0.46483 3.52735,-2.55078 0.19095,-0.935 0.69503,-1.43697 1.45703,-1.91797 1.68095,-1.061 1.68121,-2.48374 0.32421,-3.67774 1.045,0.453 1.20122,1.83974 1.82422,2.92774 0.56,0.974 1.01733,2.26264 2.61328,1.55469 2.564,-3.925 5.12741,-7.8504 7.69141,-11.7754 -0.289,-0.60895 -0.83192,-0.93407 -1.41992,-0.70507 -1.393,0.541 -2.6505,0.11378 -3.9375,-0.32617 -0.62,-0.213 -1.33353,-0.36808 -1.89453,-0.0801 -1.738,0.895 -2.09,-0.29077 -2.5,-1.50977 -0.211,-0.621 -0.30888,-1.24353 -0.29688,-1.89453 0.015,-1.03669 -0.38709,-1.75545 -1.40234,-1.97461 0.85108,-1.88746 4.33411,-2.19489 6.93555,-2.80273 1.016,-0.237 1.51007,-0.96875 1.58007,-1.96875 0.082,-1.233 0.5353,-2.23382 1.53125,-3.00782 0.785,-0.609 0.8571,-1.39709 0.36915,-2.24609 -2.317,-1.765 -4.55066,-3.65567 -6.97266,-5.26562 -7.85395,-5.2259997 -16.42558,-8.8915197 -25.51953,-11.3554697 -5.21576,-1.61262 -10.58268,-2.45254 -15.98438,-3.10547004 h -0.002 -0.002 c -3.03635,-0.154 -6.07394,-0.38661 -9.11329,-0.4336 z M 103.80505,60.732162 c 0.8201,0.29871 1.4025,0.79988 1.62109,1.61523 -0.1174,0.0856 -0.2333,0.17458 -0.33594,0.28516 -0.0788,0.0941 -0.17784,0.18468 -0.26367,0.27734 0.14118,-0.36504 0.13994,-0.74215 -0.1582,-1.14648 -0.30017,-0.40499 -0.63294,-0.5023 -0.97266,-0.44727 0.0326,-0.16155 0.0696,-0.32281 0.0957,-0.48632 0.01,-0.0316 0.006,-0.0658 0.0137,-0.0977 z" /><path
   id="path100"
   style="fill:url(#linearGradient2)"
   d="m 66.254265,33.357162 c -1.476234,0.029 -3.040689,0.33083 -4.664063,0.96289 -5.033995,1.961 -7.188609,6.23438 -7.224609,11.48437 -0.072,11.25699 -0.04642,22.51741 0.01758,33.7754 0.009,1.46599 0.475469,2.93053 0.730469,4.39453 0.886999,0.407 1.085422,-0.39175 1.482422,-0.84375 2.603997,-2.955 6.567205,-2.58456 8.533203,0.77343 0.497999,0.849 0.201968,1.3216 -0.582031,1.6836 -1.689999,0.781 -2.849939,0.031 -3.835938,-1.29297 -0.735999,-0.991 -1.740157,-1.39266 -2.910156,-0.97266 -0.931999,0.336 -1.397203,1.11205 -1.408203,2.12305 -0.004,0.574 -0.100516,1.16469 0.271484,1.67969 2.570998,3.71499 6.254426,5.31773 10.607422,4.92773 4.620995,-0.417 7.982783,-2.91997 9.800781,-7.29297 0.865999,-2.08299 1.042922,-4.28486 1.044922,-6.50586 0.013,-9.95599 0.025,-19.9131 0,-29.87109 -0.005,-1.62 -0.177547,-3.23947 -0.310547,-4.85547 -0.439562,-5.31131 -5.155722,-10.29582 -11.552734,-10.16992 z"
   sodipodi:nodetypes="sccccccccccccscccs" /><path
   id="path163"
   style="fill:url(#SVGID_8_)"
   d="m 132.86364,96.175522 c -0.002,0.001 -0.005,9.2e-4 -0.008,0.002 -3.42742,0.22766 -6.86781,0.3434 -10.2832,0.70313 -7.935,0.843 -15.57375,2.94306 -23.011719,5.789058 -2.183,0.834 -2.1883,0.92101 -1.7793,3.33398 0.728,4.301 1.16431,8.62517 1.07031,12.99414 -0.034,1.624 0.0221,3.24996 0.0391,4.87696 0.224,0.569 0.12794,1.17567 0.21094,1.76367 0.299,2.11 1.392459,2.59958 3.189449,1.39258 0.712,-0.476 1.43002,-0.90919 2.29102,-0.99219 1.121,-0.108 2.14481,-0.25531 2.75781,-1.44531 0.383,-0.749 1.09331,-0.45352 1.69531,-0.10352 1.893,1.1 4.04437,0.66624 6.06837,0.99024 0.46566,0.0757 0.93563,-0.0608 1.20507,-0.48047 0.0223,0.0249 0.0437,0.0554 0.0664,0.0781 0.185,0.045 0.37059,0.0564 0.55859,0.0254 0.10325,-0.0745 0.20135,-0.12379 0.30079,-0.17578 0.57374,0.51185 0.76281,1.23355 0.90234,2.00391 0.238,1.305 0.79103,2.3425 2.33203,2.4375 0.71,0.044 1.14074,0.42814 1.42774,1.11914 0.64799,1.563 0.96604,1.70086 2.62304,1.50586 0.64,-0.076 1.29592,-0.23425 1.91992,-0.15625 0.903,0.11 1.40035,0.87714 0.90235,1.49414 -0.89182,1.11099 -0.49167,2.07445 -0.0781,3.07226 -0.13543,0.113 -0.24734,0.24243 -0.32812,0.40039 -0.345,0.997 -0.065,1.81005 0.79297,2.37305 0.842,0.553 1.5927,0.14755 2.3457,-0.31445 0.889,-0.545 1.56203,-1.31583 2.45703,-2.17383 -1.141,1.621 -1.01877,2.95892 0.2832,4.16992 1.223,1.141 2.35041,0.54066 3.44141,-0.27734 0.902,2.788 2.28391,3.16855 4.50391,1.26758 0.626,-0.539 1.12992,-0.55875 1.66992,0.0312 1.276,1.39 1.08166,3.83522 -0.44531,5.69922 -1.238,1.50897 -2.39743,0.56396 -3.60743,-0.082 -3.44697,-1.83797 -6.80126,0.89303 -7.44726,4.25 -0.104,0.539 0.15158,1.00311 0.51758,1.41211 1.023,1.143 2.3331,1.48647 3.70507,0.98047 1.605,-0.592 3.02619,-0.57789 4.36719,0.53711 1.942,0.143 3.88822,0.22436 5.82422,0.44336 10.00597,1.127 19.67614,3.57591 28.91211,7.62891 2.201,0.965 4.35576,2.03872 6.55273,3.01172 0.418,0.186 0.94102,0.13059 1.41602,0.18359 -0.047,-0.486 -0.0232,-0.99408 -0.1582,-1.45508 -0.142,-0.492 -0.43316,-0.94115 -0.66016,-1.41015 -3.718,-7.633 -6.44539,-15.60386 -8.15039,-23.92383 -0.429,-2.096 -0.8513,-4.19595 -1.2793,-6.29492 -0.001,1e-5 -0.003,-2e-5 -0.004,0 -0.0229,-0.64837 -1.2e-4,-1.30491 -0.082,-1.94727 -0.865,-6.86997 -1.08199,-13.74765 -0.33399,-20.64062 0.162,-1.487 0.40186,-2.96539 0.63086,-4.44336 0.264,-1.69 0.248,-1.79891 -1.375,-2.50391 -0.889,-0.385 -1.83009,-0.6488 -2.74609,-0.9668 -1.279,0.058 -2.50032,0.30549 -3.19532,1.52149 -0.19432,0.33972 -0.29192,0.81717 -0.3164,1.35937 -0.0818,-1.10576 -0.52099,-2.16449 -1.72266,-3.11914 -0.089,-0.072 -0.11539,-0.23242 -0.15039,-0.35742 -0.246,-0.889 -0.93905,-1.14161 -1.74805,-1.22461 -0.502,-0.05 -1.07023,0.0766 -1.49023,-0.23438 -1.345,-0.989968 -2.28536,-0.312168 -3.19336,0.67383 -1.924,2.09 -1.62123,4.6488 0.75977,6.3418 2.39897,1.709 3.06053,3.52705 2.26953,6.24805 -0.563,1.94397 -2.7537,2.69325 -4.63867,1.53125 0.604,-0.707 1.51386,-0.72322 2.25586,-1.07422 1.02197,-0.48 1.7499,-1.50122 1.0039,-2.32422 -1.103,-1.217 -1.90219,-2.83353 -3.49219,-3.51953 -0.889,-0.384 -1.49792,-0.90946 -2.04492,-1.68946 -2.031,-2.89497 -2.05905,-2.88839 1.29492,-3.65039 0.701,-0.16 1.21086,-0.46545 1.38086,-1.18945 0.131,-0.563 -0.0347,-1.127 -0.51367,-1.375 -1.703,-0.888998 -3.26765,-2.332478 -5.39062,-1.896478 -1.334,0.272 -1.67752,-0.19749 -1.47852,-1.39649 -0.484,-0.034 -0.96729,-0.0666 -1.44726,-0.0996 -0.605,-0.404 -1.34008,0.0174 -1.95508,-0.30859 -3.797,-0.133 -7.59363,-0.26739 -11.39063,-0.40039 z m 31.70703,9.691398 c 0.0897,1.75698 0.80763,3.91498 1.75586,4.74219 0.601,0.523 1.74614,1.0102 1.11914,1.95117 -0.652,0.978 -1.77897,0.47841 -2.66797,0.0664 -1.18797,-0.552 -1.09382,-1.51234 -0.92382,-2.65234 0.19994,-1.35381 0.66794,-2.75638 0.71679,-4.10743 z m -58.44336,25.2168 c -0.22613,-0.003 -0.45809,0.0681 -0.69922,0.25781 -0.69999,0.552 -0.58725,1.24336 -0.28125,1.94336 0.42,0.967 0.44181,1.88482 -0.24218,2.75782 -0.512,0.651 -0.28028,1.24384 0.26171,1.71484 0.987,0.858 1.13402,1.96269 1.16602,3.17969 0.022,0.901 0.22559,1.80357 0.43359,2.68554 0.196,0.834 0.5258,1.68516 1.4668,1.91016 0.915,0.219 1.36611,-0.58414 1.91211,-1.11914 1.019,-0.996 2.00836,-2.03147 3.06836,-2.98047 1.021,-0.914 1.57373,-0.91839 2.4707,0.0996 0.722,0.817 1.50432,1.11169 2.57032,1.05469 1.261,-0.07 1.39028,0.16455 0.98828,1.31055 -0.128,0.36697 -0.2876,0.72493 -0.4336,1.08593 -0.094,0.356 0.0426,0.48163 0.39063,0.39063 0.703,0 1.40747,0.0363 2.10547,-0.0117 1.516,-0.104 3.02897,-0.25281 4.54297,-0.38281 0.318,-0.164 0.62353,-0.3353 0.39453,-0.7793 -0.325,-1.184 -1.19039,-1.80861 -2.27539,-2.22461 -0.541,-0.207 -1.19241,-0.34147 -1.56641,-0.73047 -1.081,-1.123 -2.44398,-1.69286 -3.83398,-2.25586 -0.722,-0.294 -1.45649,-0.57364 -2.14649,-0.93164 -1.239,-0.644 -1.29015,-1.68455 -0.0352,-2.31055 0.722,-0.359 1.60959,-0.42039 2.43359,-0.52539 0.837,-0.105 1.69139,-0.0511 2.52539,-0.16406 0.235,-0.033 0.50756,-0.37872 0.60156,-0.63672 0.057,-0.156 -0.15717,-0.56709 -0.32617,-0.62109 -1.282,-0.402 -2.56481,-0.87274 -3.88281,-1.05274 -0.92,-0.126 -1.90587,0.12041 -2.83984,0.31641 -0.384,0.08 -0.90763,0.39084 -1.01563,0.71484 -0.341,1.018 -1.0025,1.61069 -1.9375,2.05469 -0.659,0.311 -0.7001,0.83031 -0.24609,1.44531 0.316,0.429 0.49537,0.95741 0.73437,1.44141 -0.559,0.026 -1.12083,0.10259 -1.67383,0.0586 -0.576,-0.045 -1.16989,-0.14298 -1.71289,-0.33398 -0.845,-0.3 -1.24933,-0.9377 -0.98633,-1.8457 0.127,-0.435 0.32292,-0.854 0.54492,-1.25 1.377,-2.463 1.38106,-2.45931 -1.21093,-3.73828 -0.059,-0.029 -0.11488,-0.0647 -0.17188,-0.0977 -0.3575,-0.21375 -0.71687,-0.42473 -1.09375,-0.42969 z" /><path
   id="path541"
   style="fill:url(#SVGID_26_)"
   d="m 111.50036,82.113022 c -0.65452,0.0262 -0.90896,0.45436 -1.18945,1.56055 -0.815,3.21899 -0.80025,6.44595 0.21875,9.62695 0.50299,1.572 0.77359,1.6895 2.43359,1.4375 3.277,-0.494 6.5569,-0.97689 9.83789,-1.46289 1.538,-0.227 3.07633,-0.44497 4.61133,-0.66797 1.611,-0.093 3.22713,-0.32995 4.82812,-0.25195 5.03,0.246 10.05704,0.60973 15.08204,0.92773 2.1e-4,-3.1e-4 0.002,3.1e-4 0.002,0 3.388,0.578 6.78121,1.12286 10.1582,1.75586 1.014,0.19 1.5896,-0.0292 1.9336,-1.03125 1.168,-3.418 1.1699,-6.88157 0.3789,-10.35156 -0.334,-1.467 -0.51417,-1.45177 -2.07617,-1.13477 -2.67,0.54 -5.34553,1.03488 -8.01953,1.54688 -5.46115,0.74379 -21.53055,7.67012 -22.27149,8.46484 0.4045,-1.63482 -1.36902,-1.26831 -2.10156,-2.13672 1.384,-1.095 2.91736,-1.88073 4.56836,-1.67773 1.068,0.133 1.92527,0.25886 2.57227,-0.61914 0.687,-0.932 1.00001,-1.9658 0.041,-2.9668 -0.566,-0.112 -1.13217,-0.31717 -1.70117,-0.32617 -6.14499,-0.108 -12.177,-0.98586 -18.125,-2.50586 -0.50281,-0.12813 -0.88413,-0.19941 -1.18164,-0.1875 z" /><path
   fill="url(#SVGID_38_)"
   d="m 99.774471,7.7263023 c 0.524999,0.125 0.896999,0.122 1.119999,0.302 0.146,0.117 0.194,0.6 0.073,0.745 -0.183,0.219 -0.536,0.348 -0.84,0.411 -0.740999,0.153 -1.764999,-0.376 -1.547999,-0.683 0.278,-0.393 0.858,-0.571 1.195,-0.775 z"
   id="path793"
   style="fill:url(#SVGID_38_)" /><path
   fill="url(#SVGID_39_)"
   d="m 146.20847,96.885302 c -0.652,-0.104 -1.303,-0.205 -1.955,-0.307 0.653,0.102 1.303,0.204 1.955,0.307 z"
   id="path814"
   style="fill:url(#SVGID_39_)" /><path
   fill="url(#SVGID_46_)"
   d="m 153.31047,22.788302 c -0.084,0.068 -0.156,0.171 -0.236,0.179 -0.102,0.009 -0.211,-0.061 -0.316,-0.097 0.072,-0.063 0.141,-0.174 0.219,-0.182 0.101,-0.01 0.21,0.061 0.333,0.1 z"
   id="path961"
   style="fill:url(#SVGID_46_)" /><path
   id="path1119"
   style="fill:url(#SVGID_54_)"
   d="M 1.8964846,108.89232 C 0.63348581,109.13732 2.1470268e-7,110.8426 2.1470268e-7,114.0056 v 14.64062 L 3.8457033,203.14036 c 0.3189997,4.254 1.5829705,6.37305 3.7929685,6.37305 0,0 24.4811422,-0.62891 25.7441412,-0.62891 l 3.794922,-0.63281 c 2.354997,0.421 -17.683228,-3.63452 -26.324219,-4.47851 -1.1239992,0 -5.7421872,-84.08008 -5.7421872,-84.08008 0,0 -1.2830799,-10.80078 -2.5800786,-10.80078 z m 48.0683594,78.1914 c -2.438997,0.618 -3.980907,1.86963 -4.628906,3.76563 l -3.070313,8.97265 c -2.818997,8.23999 -2.605371,13.58226 0.640625,16.03125 1.062999,0.364 2.067673,0.46464 3.013672,0.30664 0.944999,-0.158 3.697099,-1.57591 8.246094,-4.2539 l 0.597656,0.20703 c -0.830999,2.428 -0.183451,5.09772 1.935547,8.01172 l 1.947266,0.66601 c 2.956997,1.014 6.505488,-1.22489 10.646484,-6.71289 1.231999,-1.545 1.263843,-2.55425 0.08984,-3.03125 -1.682998,1.875 -3.159548,3.31808 -4.435547,4.33008 -1.837998,1.039 -3.338907,1.47288 -4.503906,1.29688 -0.125,-0.076 -0.225453,-0.20872 -0.314453,-0.38672 l -0.105469,0.29883 -0.09766,-0.0332 c -1.194999,-0.408 -1.108374,-3.27575 0.265625,-8.59375 0.148999,-0.432 1.435546,-4.1875 1.435546,-4.1875 l 3.873047,-9.36523 0.220703,-2.59766 -1.197265,-0.41015 c -1.163999,-0.397 -2.910237,1.45459 -5.240235,5.55859 -2.639997,7.70899 -7.209897,12.60555 -13.71289,14.68555 -0.797999,-0.274 -0.947218,-1.67771 -0.449219,-4.22071 0.497,-2.53699 1.354267,-5.64064 2.572266,-9.30664 2.165998,-4.04799 3.44575,-6.65436 3.84375,-7.81836 0.112,-1.297 -0.416267,-2.36989 -1.572266,-3.21289 z" /><path
   id="path1141"
   style="fill:url(#SVGID_56_)"
   d="m 92.033203,105.26146 -2.160156,0.47461 c -10.252989,5.02199 -16.278314,20.24785 -18.070312,45.67382 0,11.80299 0.152219,19.57985 0.449218,23.33985 0.3,3.75799 1.203846,10.09954 2.714844,19.01953 v 0.63086 c 0,0 -4.217921,13.27506 -3.794922,14.53906 h 0.63086 c 2.844997,-5.47699 4.742407,-8.2168 5.691406,-8.2168 4.251996,7.619 6.950142,8.51358 8.744141,8.26758 2.382997,0.039 3.783517,-0.23756 5.978515,-1.97656 2.116998,-1.676 3.887454,-3.71271 5.314454,-6.0957 0.771,4.84399 2.550469,7.73239 5.355469,8.65039 1.121,0 2.10522,-0.22855 2.94922,-0.68555 0.843,-0.459 2.98478,-2.68941 6.42578,-6.69141 h 0.63476 c 0,2.564 1.47683,4.88304 4.42383,6.95704 h 2.05664 c 3.125,0 5.75735,-3.26979 7.90235,-9.80079 0.669,-1.86299 0.37242,-2.82848 -0.89258,-2.89648 -0.985,2.318 -1.91492,4.1603 -2.79492,5.5293 -1.402,1.58199 -2.6838,2.4765 -3.8418,2.6875 -0.142,-0.033 -0.28378,-0.12068 -0.42578,-0.26368 v 0.31641 h -0.10352 c -1.263,0 -2.10925,-2.74171 -2.53125,-8.2207 v -4.42383 l 0.63281,-10.11719 -0.63281,-2.52734 h -1.26367 c -1.229,0 -2.28016,2.31913 -3.16016,6.95312 0,8.15099 -2.7358,14.26194 -8.21679,18.33594 -0.843,0 -1.43802,-1.28066 -1.79102,-3.84766 -0.353,-2.56299 -0.54608,-5.77562 -0.58008,-9.64062 0.736,-4.531 1.10547,-7.40967 1.10547,-8.63867 -0.315,-1.264 -1.1593,-2.1093 -2.52929,-2.5293 -2.105999,1.367 -3.160159,3.0566 -3.160159,5.05859 v 9.48243 c 0,0.809 0.0226,1.57722 0.0566,2.32421 -1.015,1.797 -2.07445,3.35852 -3.189453,4.60352 -1.811998,2.02 -3.434002,3.33622 -4.875,3.94922 -3.523997,2.42 -4.324797,-0.53913 -4.716797,-1.07813 -1.558998,-2.36899 -2.729032,-6.66886 -3.082031,-10.00585 v -0.63086 c 0,-1.125 1.474831,-4.28538 4.423828,-9.48438 10.115993,-27.85197 15.173822,-48.08047 15.173822,-60.68945 0,-12.22199 -2.949559,-18.33203 -8.851557,-18.33203 z m 0.002,4.42773 c 2.247997,0.278 3.652754,2.21936 4.218754,5.81836 0.56,3.602 0.83984,6.2885 0.83984,8.0625 0,1.772 -0.8403,8.73468 -2.529298,20.88867 -7.619992,28.23597 -12.677924,42.35547 -15.169921,42.35547 -1.545999,0 -2.60211,-7.58778 -3.16211,-22.75977 0.139,-3.40699 0.201594,-7.68513 0.183594,-12.82812 -0.019,-5.14699 0.551939,-11.40726 1.710937,-18.78125 3.863997,-13.69599 7.796739,-21.07095 11.802735,-22.12695 z m 58.089847,64.11133 c -2.599,0 -4.99847,0.40866 -7.18945,1.22266 -2.196,0.81498 -4.08952,1.98195 -5.6875,3.50195 -1.597,1.52 -2.84333,3.35948 -3.73633,5.52148 -0.893,2.162 -1.33985,4.5753 -1.33985,7.23828 0,2.663 0.44785,5.07533 1.33985,7.23633 0.892,2.161 2.13833,4.00149 3.73633,5.52149 1.59798,1.51998 3.4925,2.68795 5.6875,3.50195 2.19098,0.815 4.58945,1.2207 7.18945,1.2207 2.445,0 4.83945,-0.24995 7.18945,-0.75195 2.34944,-0.49988 4.60606,-1.31283 6.76758,-2.44141 V 188.17942 H 151.0645 v 6.76954 h 5.96875 v 5.40429 c -0.689,0.375 -1.61544,0.74452 -2.77344,1.10352 -1.15998,0.361 -2.53673,0.54101 -4.13671,0.54101 -1.566,0 -2.98396,-0.26582 -4.25196,-0.79882 -1.27,-0.533 -2.35959,-1.27447 -3.26757,-2.23047 -0.908,-0.956 -1.6058,-2.08377 -2.0918,-3.38477 -0.487,-1.3 -0.73047,-2.73478 -0.73047,-4.30078 0,-1.535 0.24347,-2.96134 0.73047,-4.27734 0.487,-1.316 1.1828,-2.45025 2.0918,-3.40625 0.90898,-0.956 1.99757,-1.69943 3.26757,-2.23243 1.268,-0.53298 2.68596,-0.79882 4.25196,-0.79882 1.88098,0 3.44717,0.26584 4.70117,0.79882 1.252,0.534 2.38081,1.31563 3.38281,2.34961 l 5.16992,-5.63867 c -1.691,-1.566 -3.65845,-2.67145 -5.89843,-3.31445 -2.24,-0.643 -4.68952,-0.96289 -7.35352,-0.96289 z m 31.34961,0.8457 -14.38086,33.27344 h 8.08398 l 2.77149,-7.04883 h 12.92578 l 2.86719,7.04883 h 8.27148 l -14.47461,-33.27344 z m 23.87695,0 v 33.27344 h 7.33203 v -25.51953 h 0.0937 l 8.41211,25.51953 h 5.59375 l 8.74219,-25.51953 h 0.0937 v 25.51953 h 7.33203 V 174.64622 H 231.9062 l -7.70703,21.71485 h -0.0957 l -7.66016,-21.71485 z m 44.64844,0 v 33.27539 h 23.45117 v -6.76758 h -16.11914 v -6.76757 h 14.42969 v -6.76758 h -14.42969 v -6.20508 h 15.27344 v -6.76758 z m -65.70508,9.68164 4.08984,10.33985 h -8.13085 z" />&#10;</svg>
