<?xml version="1.0" encoding="UTF-8" standalone="no"?>
<!-- Generator: Adobe Illustrator 16.0.0, SVG Export Plug-In . SVG Version: 6.00 Build 0)  -->

<svg
   version="1.1"
   x="0px"
   y="0px"
   width="283.464px"
   height="325.009px"
   viewBox="0 0 283.464 325.009"
   enable-background="new 0 0 283.464 325.009"
   xml:space="preserve"
   id="svg1191"
   sodipodi:docname="LogoSalutation.svg"
   inkscape:version="1.3 (0e150ed6c4, 2023-07-21)"
   xmlns:inkscape="http://www.inkscape.org/namespaces/inkscape"
   xmlns:sodipodi="http://sodipodi.sourceforge.net/DTD/sodipodi-0.dtd"
   xmlns:xlink="http://www.w3.org/1999/xlink"
   xmlns="http://www.w3.org/2000/svg"
   xmlns:svg="http://www.w3.org/2000/svg"><defs
   id="defs1191"><linearGradient
     id="linearGradient131"
     gradientUnits="userSpaceOnUse"
     x1="54.939499"
     y1="-2.2256"
     x2="54.9394"
     y2="257.96921">&#10;			<stop
   offset="0.01520002"
   style="stop-color:#dda0bc;stop-opacity:1;"
   id="stop131" />&#10;				<stop
   offset="0.1457"
   style="stop-color:#E55395"
   id="stop130" />&#10;				<stop
   offset="0.1744"
   style="stop-color:#E55593"
   id="stop129" />&#10;				<stop
   offset="0.191"
   style="stop-color:#E75B8A"
   id="stop128" />&#10;				<stop
   offset="0.2046"
   style="stop-color:#E9667C"
   id="stop127" />&#10;				<stop
   offset="0.2165"
   style="stop-color:#ED7568"
   id="stop126" />&#10;				<stop
   offset="0.2273"
   style="stop-color:#F1894E"
   id="stop125" />&#10;				<stop
   offset="0.2373"
   style="stop-color:#F7A12F"
   id="stop124" />&#10;				<stop
   offset="0.2465"
   style="stop-color:#FDBE0A"
   id="stop123" />&#10;				<stop
   offset="0.2487"
   style="stop-color:#FFC500"
   id="stop122" />&#10;				<stop
   offset="0.2641"
   style="stop-color:#EBC010"
   id="stop121" />&#10;				&#10;				&#10;				&#10;				&#10;				&#10;				&#10;				&#10;				&#10;				&#10;				&#10;				</linearGradient><linearGradient
     id="linearGradient120"
     gradientUnits="userSpaceOnUse"
     x1="54.939499"
     y1="-2.2256"
     x2="54.9394"
     y2="257.96921">&#10;			<stop
   offset="0.01520002"
   style="stop-color:#dda0bc;stop-opacity:1;"
   id="stop120" />&#10;				<stop
   offset="0.1457"
   style="stop-color:#E55395"
   id="stop119" />&#10;				<stop
   offset="0.1744"
   style="stop-color:#E55593"
   id="stop118" />&#10;				<stop
   offset="0.191"
   style="stop-color:#E75B8A"
   id="stop117" />&#10;				<stop
   offset="0.2046"
   style="stop-color:#E9667C"
   id="stop116" />&#10;				<stop
   offset="0.2165"
   style="stop-color:#ED7568"
   id="stop115" />&#10;				<stop
   offset="0.2273"
   style="stop-color:#F1894E"
   id="stop114" />&#10;				<stop
   offset="0.2373"
   style="stop-color:#F7A12F"
   id="stop113" />&#10;				<stop
   offset="0.2465"
   style="stop-color:#FDBE0A"
   id="stop112" />&#10;				<stop
   offset="0.2487"
   style="stop-color:#FFC500"
   id="stop111" />&#10;				<stop
   offset="0.2641"
   style="stop-color:#EBC010"
   id="stop110" />&#10;				&#10;				&#10;				&#10;				&#10;				&#10;				&#10;				&#10;				&#10;				&#10;				&#10;				</linearGradient><linearGradient
     id="linearGradient109"
     gradientUnits="userSpaceOnUse"
     x1="-63.9634"
     y1="257.7568"
     x2="-63.9634"
     y2="218.8848"
     gradientTransform="matrix(-1.148,-0.0452,0.0452,1.1525,-135.30953,-296.66246)">&#10;		<stop
   offset="0"
   style="stop-color:#005582"
   id="stop62" />&#10;		<stop
   offset="0.10616541"
   style="stop-color:#007FC8"
   id="stop63" />&#10;		<stop
   offset="0.19659148"
   style="stop-color:#156CAB"
   id="stop64" />&#10;		<stop
   offset="0.33654135"
   style="stop-color:#315386"
   id="stop65" />&#10;		<stop
   offset="0.47609022"
   style="stop-color:#474068"
   id="stop66" />&#10;		<stop
   offset="0.61333334"
   style="stop-color:#563253"
   id="stop67" />&#10;		<stop
   offset="0.74716789"
   style="stop-color:#602A46"
   id="stop68" />&#10;		<stop
   offset="0.87368423"
   style="stop-color:#632742"
   id="stop101" />&#10;		<stop
   offset="0.92862153"
   style="stop-color:#652843"
   id="stop102" />&#10;		<stop
   offset="0.94847119"
   style="stop-color:#6C2A48"
   id="stop103" />&#10;		<stop
   offset="0.96260655"
   style="stop-color:#772E4F"
   id="stop104" />&#10;		<stop
   offset="0.97393483"
   style="stop-color:#88345A"
   id="stop105" />&#10;		<stop
   offset="0.9837594"
   style="stop-color:#9E3B68"
   id="stop106" />&#10;		<stop
   offset="0.99238092"
   style="stop-color:#BA4479"
   id="stop107" />&#10;		<stop
   offset="1"
   style="stop-color:#D94F8D"
   id="stop108" />&#10;		&#10;	</linearGradient><inkscape:path-effect
     effect="spiro"
     id="path-effect3"
     is_visible="true"
     lpeversion="1" /><inkscape:path-effect
     effect="spiro"
     id="path-effect2"
     is_visible="true"
     lpeversion="1" /><linearGradient
     id="linearGradient79"
     gradientUnits="userSpaceOnUse"
     x1="54.939499"
     y1="-2.2256"
     x2="54.9394"
     y2="257.96921">&#10;				&#10;				&#10;				&#10;				&#10;				&#10;				&#10;				&#10;				&#10;				&#10;				&#10;				<stop
   offset="0.7359"
   style="stop-color:#EBC010"
   id="stop69" />&#10;				<stop
   offset="0.7513"
   style="stop-color:#FFC500"
   id="stop70" />&#10;				<stop
   offset="0.7535"
   style="stop-color:#FDBE0A"
   id="stop71" />&#10;				<stop
   offset="0.7627"
   style="stop-color:#F7A12F"
   id="stop72" />&#10;				<stop
   offset="0.7727"
   style="stop-color:#F1894E"
   id="stop73" />&#10;				<stop
   offset="0.7835"
   style="stop-color:#ED7568"
   id="stop74" />&#10;				<stop
   offset="0.7954"
   style="stop-color:#E9667C"
   id="stop75" />&#10;				<stop
   offset="0.809"
   style="stop-color:#E75B8A"
   id="stop76" />&#10;				<stop
   offset="0.8256"
   style="stop-color:#E55593"
   id="stop77" />&#10;				<stop
   offset="0.8543"
   style="stop-color:#E55395"
   id="stop78" />&#10;				<stop
   offset="0.98479998"
   style="stop-color:#dda0bc;stop-opacity:1;"
   id="stop79" />&#10;			</linearGradient><linearGradient
     id="SVGID_1_"
     gradientUnits="userSpaceOnUse"
     x1="-63.9634"
     y1="257.7568"
     x2="-63.9634"
     y2="218.8848"
     gradientTransform="matrix(-1.148,-0.0452,0.0452,1.1525,-46.062078,-8.8792615)">&#10;		<stop
   offset="0"
   style="stop-color:#005582"
   id="stop1" />&#10;		<stop
   offset="0.1059"
   style="stop-color:#007FC8"
   id="stop2" />&#10;		<stop
   offset="0.1961"
   style="stop-color:#156CAB"
   id="stop3" />&#10;		<stop
   offset="0.3357"
   style="stop-color:#315386"
   id="stop4" />&#10;		<stop
   offset="0.4749"
   style="stop-color:#474068"
   id="stop5" />&#10;		<stop
   offset="0.6118"
   style="stop-color:#563253"
   id="stop6" />&#10;		<stop
   offset="0.7453"
   style="stop-color:#602A46"
   id="stop7" />&#10;		<stop
   offset="0.8715"
   style="stop-color:#632742"
   id="stop8" />&#10;		<stop
   offset="0.9263"
   style="stop-color:#652843"
   id="stop9" />&#10;		<stop
   offset="0.9461"
   style="stop-color:#6C2A48"
   id="stop10" />&#10;		<stop
   offset="0.9602"
   style="stop-color:#772E4F"
   id="stop11" />&#10;		<stop
   offset="0.9715"
   style="stop-color:#88345A"
   id="stop12" />&#10;		<stop
   offset="0.9813"
   style="stop-color:#9E3B68"
   id="stop13" />&#10;		<stop
   offset="0.9899"
   style="stop-color:#BA4479"
   id="stop14" />&#10;		<stop
   offset="0.9975"
   style="stop-color:#D94F8D"
   id="stop15" />&#10;		<stop
   offset="1"
   style="stop-color:#E55395"
   id="stop16" />&#10;	</linearGradient><linearGradient
     id="SVGID_54_"
     gradientUnits="userSpaceOnUse"
     x1="-75.6616"
     y1="-238.9736"
     x2="159.3346"
     y2="-263.4732"
     gradientTransform="matrix(0.9808,-0.1951,0.1951,0.9808,-58.9235,599.2986)">&#10;		<stop
   offset="0"
   style="stop-color:#005582"
   id="stop1109" />&#10;		<stop
   offset="0.0334"
   style="stop-color:#005B8B"
   id="stop1110" />&#10;		<stop
   offset="0.1447"
   style="stop-color:#006BA6"
   id="stop1111" />&#10;		<stop
   offset="0.2586"
   style="stop-color:#0076B9"
   id="stop1112" />&#10;		<stop
   offset="0.3755"
   style="stop-color:#007DC4"
   id="stop1113" />&#10;		<stop
   offset="0.5"
   style="stop-color:#007FC8"
   id="stop1114" />&#10;		<stop
   offset="0.657"
   style="stop-color:#007DC5"
   id="stop1115" />&#10;		<stop
   offset="0.7636"
   style="stop-color:#0078BC"
   id="stop1116" />&#10;		<stop
   offset="0.8552"
   style="stop-color:#006FAD"
   id="stop1117" />&#10;		<stop
   offset="0.9379"
   style="stop-color:#006298"
   id="stop1118" />&#10;		<stop
   offset="1"
   style="stop-color:#005582"
   id="stop1119" />&#10;	</linearGradient><linearGradient
     id="SVGID_2_"
     gradientUnits="userSpaceOnUse"
     x1="123.3403"
     y1="-2.2270999"
     x2="123.3403"
     y2="257.97159"
     gradientTransform="translate(17.506077,13.946622)">&#10;				<stop
   offset="0"
   style="stop-color:#92d7ff;stop-opacity:1;"
   id="stop17" />&#10;				<stop
   offset="0.15009999"
   style="stop-color:#1bacff;stop-opacity:1;"
   id="stop18" />&#10;				<stop
   offset="0.28830001"
   style="stop-color:#039df3;stop-opacity:1;"
   id="stop19" />&#10;				<stop
   offset="0.37029999"
   style="stop-color:#12a8f3;stop-opacity:1;"
   id="stop20" />&#10;				<stop
   offset="0.43759999"
   style="stop-color:#23a7e2;stop-opacity:1;"
   id="stop21" />&#10;				<stop
   offset="0.4938153"
   style="stop-color:#2d8ca5;stop-opacity:1;"
   id="stop22" />&#10;				<stop
   offset="0.55119997"
   style="stop-color:#a4d4d0;stop-opacity:1;"
   id="stop23" />&#10;				<stop
   offset="0.6015"
   style="stop-color:#689B77"
   id="stop24" />&#10;				<stop
   offset="0.649"
   style="stop-color:#8EA659"
   id="stop25" />&#10;				<stop
   offset="0.6941"
   style="stop-color:#BAB236"
   id="stop26" />&#10;				<stop
   offset="0.7359"
   style="stop-color:#EBC010"
   id="stop27" />&#10;				<stop
   offset="0.7513"
   style="stop-color:#FFC500"
   id="stop28" />&#10;				<stop
   offset="0.7535"
   style="stop-color:#FDBE0A"
   id="stop29" />&#10;				<stop
   offset="0.7627"
   style="stop-color:#F7A12F"
   id="stop30" />&#10;				<stop
   offset="0.7727"
   style="stop-color:#F1894E"
   id="stop31" />&#10;				<stop
   offset="0.7835"
   style="stop-color:#ED7568"
   id="stop32" />&#10;				<stop
   offset="0.7954"
   style="stop-color:#E9667C"
   id="stop33" />&#10;				<stop
   offset="0.809"
   style="stop-color:#E75B8A"
   id="stop34" />&#10;				<stop
   offset="0.8256"
   style="stop-color:#E55593"
   id="stop35" />&#10;				<stop
   offset="0.8543"
   style="stop-color:#E55395"
   id="stop36" />&#10;				<stop
   offset="0.9848"
   style="stop-color:#632742"
   id="stop37" />&#10;			</linearGradient><linearGradient
     id="SVGID_3_"
     gradientUnits="userSpaceOnUse"
     x1="117.2729"
     y1="-2.2279999"
     x2="117.2729"
     y2="257.9718"
     gradientTransform="translate(16.293327)">&#10;				<stop
   offset="0"
   style="stop-color:#005582"
   id="stop38" />&#10;				<stop
   offset="0.1501"
   style="stop-color:#007FC8"
   id="stop39" />&#10;				<stop
   offset="0.2883"
   style="stop-color:#0380C6"
   id="stop40" />&#10;				<stop
   offset="0.3703"
   style="stop-color:#0B82C0"
   id="stop41" />&#10;				<stop
   offset="0.43759999"
   style="stop-color:#178dc1;stop-opacity:1;"
   id="stop42" />&#10;				<stop
   offset="0.497"
   style="stop-color:#2D8BA5"
   id="stop43" />&#10;				<stop
   offset="0.5512"
   style="stop-color:#479390"
   id="stop44" />&#10;				<stop
   offset="0.6015"
   style="stop-color:#689B77"
   id="stop45" />&#10;				<stop
   offset="0.649"
   style="stop-color:#8EA659"
   id="stop46" />&#10;				<stop
   offset="0.6941"
   style="stop-color:#BAB236"
   id="stop47" />&#10;				<stop
   offset="0.7359"
   style="stop-color:#EBC010"
   id="stop48" />&#10;				<stop
   offset="0.7513"
   style="stop-color:#FFC500"
   id="stop49" />&#10;				<stop
   offset="0.7535"
   style="stop-color:#FDBE0A"
   id="stop50" />&#10;				<stop
   offset="0.7627"
   style="stop-color:#F7A12F"
   id="stop51" />&#10;				<stop
   offset="0.7727"
   style="stop-color:#F1894E"
   id="stop52" />&#10;				<stop
   offset="0.7835"
   style="stop-color:#ED7568"
   id="stop53" />&#10;				<stop
   offset="0.7954"
   style="stop-color:#E9667C"
   id="stop54" />&#10;				<stop
   offset="0.809"
   style="stop-color:#E75B8A"
   id="stop55" />&#10;				<stop
   offset="0.8256"
   style="stop-color:#E55593"
   id="stop56" />&#10;				<stop
   offset="0.8543"
   style="stop-color:#E55395"
   id="stop57" />&#10;				<stop
   offset="0.9848"
   style="stop-color:#632742"
   id="stop58" />&#10;			</linearGradient><linearGradient
     id="SVGID_5_"
     gradientUnits="userSpaceOnUse"
     x1="54.939499"
     y1="-2.2256"
     x2="54.9394"
     y2="257.96921">&#10;				<stop
   offset="0"
   style="stop-color:#005582"
   id="stop80" />&#10;				<stop
   offset="0.1501"
   style="stop-color:#007FC8"
   id="stop81" />&#10;				<stop
   offset="0.2883"
   style="stop-color:#0380C6"
   id="stop82" />&#10;				<stop
   offset="0.3703"
   style="stop-color:#0B82C0"
   id="stop83" />&#10;				<stop
   offset="0.4376"
   style="stop-color:#1986B4"
   id="stop84" />&#10;				<stop
   offset="0.497"
   style="stop-color:#2D8BA5"
   id="stop85" />&#10;				<stop
   offset="0.5512"
   style="stop-color:#479390"
   id="stop86" />&#10;				<stop
   offset="0.6015"
   style="stop-color:#689B77"
   id="stop87" />&#10;				<stop
   offset="0.649"
   style="stop-color:#8EA659"
   id="stop88" />&#10;				<stop
   offset="0.6941"
   style="stop-color:#BAB236"
   id="stop89" />&#10;				<stop
   offset="0.7359"
   style="stop-color:#EBC010"
   id="stop90" />&#10;				<stop
   offset="0.7513"
   style="stop-color:#FFC500"
   id="stop91" />&#10;				<stop
   offset="0.7535"
   style="stop-color:#FDBE0A"
   id="stop92" />&#10;				<stop
   offset="0.7627"
   style="stop-color:#F7A12F"
   id="stop93" />&#10;				<stop
   offset="0.7727"
   style="stop-color:#F1894E"
   id="stop94" />&#10;				<stop
   offset="0.7835"
   style="stop-color:#ED7568"
   id="stop95" />&#10;				<stop
   offset="0.7954"
   style="stop-color:#E9667C"
   id="stop96" />&#10;				<stop
   offset="0.809"
   style="stop-color:#E75B8A"
   id="stop97" />&#10;				<stop
   offset="0.8256"
   style="stop-color:#E55593"
   id="stop98" />&#10;				<stop
   offset="0.8543"
   style="stop-color:#E55395"
   id="stop99" />&#10;				<stop
   offset="0.9848"
   style="stop-color:#632742"
   id="stop100" />&#10;			</linearGradient><linearGradient
     id="SVGID_8_"
     gradientUnits="userSpaceOnUse"
     x1="132.394"
     y1="-2.2256"
     x2="132.394"
     y2="257.97061"
     gradientTransform="translate(16.293327)">&#10;				<stop
   offset="0"
   style="stop-color:#005582"
   id="stop143" />&#10;				<stop
   offset="0.1501"
   style="stop-color:#007FC8"
   id="stop144" />&#10;				<stop
   offset="0.2883"
   style="stop-color:#0380C6"
   id="stop145" />&#10;				<stop
   offset="0.3703"
   style="stop-color:#0B82C0"
   id="stop146" />&#10;				<stop
   offset="0.4376"
   style="stop-color:#1986B4"
   id="stop147" />&#10;				<stop
   offset="0.497"
   style="stop-color:#2D8BA5"
   id="stop148" />&#10;				<stop
   offset="0.5512"
   style="stop-color:#479390"
   id="stop149" />&#10;				<stop
   offset="0.6015"
   style="stop-color:#689B77"
   id="stop150" />&#10;				<stop
   offset="0.649"
   style="stop-color:#8EA659"
   id="stop151" />&#10;				<stop
   offset="0.6941"
   style="stop-color:#BAB236"
   id="stop152" />&#10;				<stop
   offset="0.7359"
   style="stop-color:#EBC010"
   id="stop153" />&#10;				<stop
   offset="0.7513"
   style="stop-color:#FFC500"
   id="stop154" />&#10;				<stop
   offset="0.7535"
   style="stop-color:#FDBE0A"
   id="stop155" />&#10;				<stop
   offset="0.7627"
   style="stop-color:#F7A12F"
   id="stop156" />&#10;				<stop
   offset="0.7727"
   style="stop-color:#F1894E"
   id="stop157" />&#10;				<stop
   offset="0.7835"
   style="stop-color:#ED7568"
   id="stop158" />&#10;				<stop
   offset="0.7954"
   style="stop-color:#E9667C"
   id="stop159" />&#10;				<stop
   offset="0.809"
   style="stop-color:#E75B8A"
   id="stop160" />&#10;				<stop
   offset="0.8256"
   style="stop-color:#E55593"
   id="stop161" />&#10;				<stop
   offset="0.8543"
   style="stop-color:#E55395"
   id="stop162" />&#10;				<stop
   offset="0.9848"
   style="stop-color:#632742"
   id="stop163" />&#10;			</linearGradient><linearGradient
     id="SVGID_25_"
     gradientUnits="userSpaceOnUse"
     x1="191.9761"
     y1="-2.2354"
     x2="191.9761"
     y2="257.97601"
     gradientTransform="translate(197.6782,-52.754612)">&#10;				<stop
   offset="0"
   style="stop-color:#005582"
   id="stop500" />&#10;				<stop
   offset="0.1501"
   style="stop-color:#007FC8"
   id="stop501" />&#10;				<stop
   offset="0.2883"
   style="stop-color:#0380C6"
   id="stop502" />&#10;				<stop
   offset="0.3703"
   style="stop-color:#0B82C0"
   id="stop503" />&#10;				<stop
   offset="0.4376"
   style="stop-color:#1986B4"
   id="stop504" />&#10;				<stop
   offset="0.497"
   style="stop-color:#2D8BA5"
   id="stop505" />&#10;				<stop
   offset="0.5512"
   style="stop-color:#479390"
   id="stop506" />&#10;				<stop
   offset="0.6015"
   style="stop-color:#689B77"
   id="stop507" />&#10;				<stop
   offset="0.649"
   style="stop-color:#8EA659"
   id="stop508" />&#10;				<stop
   offset="0.6941"
   style="stop-color:#BAB236"
   id="stop509" />&#10;				<stop
   offset="0.7359"
   style="stop-color:#EBC010"
   id="stop510" />&#10;				<stop
   offset="0.7513"
   style="stop-color:#FFC500"
   id="stop511" />&#10;				<stop
   offset="0.7535"
   style="stop-color:#FDBE0A"
   id="stop512" />&#10;				<stop
   offset="0.7627"
   style="stop-color:#F7A12F"
   id="stop513" />&#10;				<stop
   offset="0.7727"
   style="stop-color:#F1894E"
   id="stop514" />&#10;				<stop
   offset="0.7835"
   style="stop-color:#ED7568"
   id="stop515" />&#10;				<stop
   offset="0.7954"
   style="stop-color:#E9667C"
   id="stop516" />&#10;				<stop
   offset="0.809"
   style="stop-color:#E75B8A"
   id="stop517" />&#10;				<stop
   offset="0.8256"
   style="stop-color:#E55593"
   id="stop518" />&#10;				<stop
   offset="0.8543"
   style="stop-color:#E55395"
   id="stop519" />&#10;				<stop
   offset="0.9848"
   style="stop-color:#632742"
   id="stop520" />&#10;			</linearGradient><linearGradient
     id="SVGID_26_"
     gradientUnits="userSpaceOnUse"
     x1="110.1328"
     y1="-2.2031"
     x2="110.1328"
     y2="257.96091"
     gradientTransform="translate(16.293327)">&#10;				<stop
   offset="0"
   style="stop-color:#005582"
   id="stop521" />&#10;				<stop
   offset="0.1501"
   style="stop-color:#007FC8"
   id="stop522" />&#10;				<stop
   offset="0.2883"
   style="stop-color:#0380C6"
   id="stop523" />&#10;				<stop
   offset="0.3703"
   style="stop-color:#0B82C0"
   id="stop524" />&#10;				<stop
   offset="0.4376"
   style="stop-color:#1986B4"
   id="stop525" />&#10;				<stop
   offset="0.497"
   style="stop-color:#2D8BA5"
   id="stop526" />&#10;				<stop
   offset="0.5512"
   style="stop-color:#479390"
   id="stop527" />&#10;				<stop
   offset="0.6015"
   style="stop-color:#689B77"
   id="stop528" />&#10;				<stop
   offset="0.649"
   style="stop-color:#8EA659"
   id="stop529" />&#10;				<stop
   offset="0.6941"
   style="stop-color:#BAB236"
   id="stop530" />&#10;				<stop
   offset="0.7359"
   style="stop-color:#EBC010"
   id="stop531" />&#10;				<stop
   offset="0.7513"
   style="stop-color:#FFC500"
   id="stop532" />&#10;				<stop
   offset="0.7535"
   style="stop-color:#FDBE0A"
   id="stop533" />&#10;				<stop
   offset="0.7627"
   style="stop-color:#F7A12F"
   id="stop534" />&#10;				<stop
   offset="0.7727"
   style="stop-color:#F1894E"
   id="stop535" />&#10;				<stop
   offset="0.7835"
   style="stop-color:#ED7568"
   id="stop536" />&#10;				<stop
   offset="0.7954"
   style="stop-color:#E9667C"
   id="stop537" />&#10;				<stop
   offset="0.809"
   style="stop-color:#E75B8A"
   id="stop538" />&#10;				<stop
   offset="0.8256"
   style="stop-color:#E55593"
   id="stop539" />&#10;				<stop
   offset="0.8543"
   style="stop-color:#E55395"
   id="stop540" />&#10;				<stop
   offset="0.9848"
   style="stop-color:#632742"
   id="stop541" />&#10;			</linearGradient><linearGradient
     id="SVGID_38_"
     gradientUnits="userSpaceOnUse"
     x1="88.504898"
     y1="-2.2720001"
     x2="88.504898"
     y2="258.03009"
     gradientTransform="translate(16.293327)">&#10;				<stop
   offset="0"
   style="stop-color:#005582"
   id="stop773" />&#10;				<stop
   offset="0.1501"
   style="stop-color:#007FC8"
   id="stop774" />&#10;				<stop
   offset="0.2883"
   style="stop-color:#0380C6"
   id="stop775" />&#10;				<stop
   offset="0.3703"
   style="stop-color:#0B82C0"
   id="stop776" />&#10;				<stop
   offset="0.4376"
   style="stop-color:#1986B4"
   id="stop777" />&#10;				<stop
   offset="0.497"
   style="stop-color:#2D8BA5"
   id="stop778" />&#10;				<stop
   offset="0.5512"
   style="stop-color:#479390"
   id="stop779" />&#10;				<stop
   offset="0.6015"
   style="stop-color:#689B77"
   id="stop780" />&#10;				<stop
   offset="0.649"
   style="stop-color:#8EA659"
   id="stop781" />&#10;				<stop
   offset="0.6941"
   style="stop-color:#BAB236"
   id="stop782" />&#10;				<stop
   offset="0.7359"
   style="stop-color:#EBC010"
   id="stop783" />&#10;				<stop
   offset="0.7513"
   style="stop-color:#FFC500"
   id="stop784" />&#10;				<stop
   offset="0.7535"
   style="stop-color:#FDBE0A"
   id="stop785" />&#10;				<stop
   offset="0.7627"
   style="stop-color:#F7A12F"
   id="stop786" />&#10;				<stop
   offset="0.7727"
   style="stop-color:#F1894E"
   id="stop787" />&#10;				<stop
   offset="0.7835"
   style="stop-color:#ED7568"
   id="stop788" />&#10;				<stop
   offset="0.7954"
   style="stop-color:#E9667C"
   id="stop789" />&#10;				<stop
   offset="0.809"
   style="stop-color:#E75B8A"
   id="stop790" />&#10;				<stop
   offset="0.8256"
   style="stop-color:#E55593"
   id="stop791" />&#10;				<stop
   offset="0.8543"
   style="stop-color:#E55395"
   id="stop792" />&#10;				<stop
   offset="0.9848"
   style="stop-color:#632742"
   id="stop793" />&#10;			</linearGradient><linearGradient
     id="SVGID_39_"
     gradientUnits="userSpaceOnUse"
     x1="133.9438"
     y1="-2.0107"
     x2="133.9438"
     y2="257.90649"
     gradientTransform="translate(16.293327)">&#10;				<stop
   offset="0"
   style="stop-color:#005582"
   id="stop794" />&#10;				<stop
   offset="0.1501"
   style="stop-color:#007FC8"
   id="stop795" />&#10;				<stop
   offset="0.2883"
   style="stop-color:#0380C6"
   id="stop796" />&#10;				<stop
   offset="0.3703"
   style="stop-color:#0B82C0"
   id="stop797" />&#10;				<stop
   offset="0.4376"
   style="stop-color:#1986B4"
   id="stop798" />&#10;				<stop
   offset="0.497"
   style="stop-color:#2D8BA5"
   id="stop799" />&#10;				<stop
   offset="0.5512"
   style="stop-color:#479390"
   id="stop800" />&#10;				<stop
   offset="0.6015"
   style="stop-color:#689B77"
   id="stop801" />&#10;				<stop
   offset="0.649"
   style="stop-color:#8EA659"
   id="stop802" />&#10;				<stop
   offset="0.6941"
   style="stop-color:#BAB236"
   id="stop803" />&#10;				<stop
   offset="0.7359"
   style="stop-color:#EBC010"
   id="stop804" />&#10;				<stop
   offset="0.7513"
   style="stop-color:#FFC500"
   id="stop805" />&#10;				<stop
   offset="0.7535"
   style="stop-color:#FDBE0A"
   id="stop806" />&#10;				<stop
   offset="0.7627"
   style="stop-color:#F7A12F"
   id="stop807" />&#10;				<stop
   offset="0.7727"
   style="stop-color:#F1894E"
   id="stop808" />&#10;				<stop
   offset="0.7835"
   style="stop-color:#ED7568"
   id="stop809" />&#10;				<stop
   offset="0.7954"
   style="stop-color:#E9667C"
   id="stop810" />&#10;				<stop
   offset="0.809"
   style="stop-color:#E75B8A"
   id="stop811" />&#10;				<stop
   offset="0.8256"
   style="stop-color:#E55593"
   id="stop812" />&#10;				<stop
   offset="0.8543"
   style="stop-color:#E55395"
   id="stop813" />&#10;				<stop
   offset="0.9848"
   style="stop-color:#632742"
   id="stop814" />&#10;			</linearGradient><linearGradient
     id="SVGID_46_"
     gradientUnits="userSpaceOnUse"
     x1="141.7466"
     y1="-2.8223"
     x2="141.7466"
     y2="258.59991"
     gradientTransform="translate(16.293327)">&#10;				<stop
   offset="0"
   style="stop-color:#005582"
   id="stop941" />&#10;				<stop
   offset="0.1501"
   style="stop-color:#007FC8"
   id="stop942" />&#10;				<stop
   offset="0.2883"
   style="stop-color:#0380C6"
   id="stop943" />&#10;				<stop
   offset="0.3703"
   style="stop-color:#0B82C0"
   id="stop944" />&#10;				<stop
   offset="0.4376"
   style="stop-color:#1986B4"
   id="stop945" />&#10;				<stop
   offset="0.497"
   style="stop-color:#2D8BA5"
   id="stop946" />&#10;				<stop
   offset="0.5512"
   style="stop-color:#479390"
   id="stop947" />&#10;				<stop
   offset="0.6015"
   style="stop-color:#689B77"
   id="stop948" />&#10;				<stop
   offset="0.649"
   style="stop-color:#8EA659"
   id="stop949" />&#10;				<stop
   offset="0.6941"
   style="stop-color:#BAB236"
   id="stop950" />&#10;				<stop
   offset="0.7359"
   style="stop-color:#EBC010"
   id="stop951" />&#10;				<stop
   offset="0.7513"
   style="stop-color:#FFC500"
   id="stop952" />&#10;				<stop
   offset="0.7535"
   style="stop-color:#FDBE0A"
   id="stop953" />&#10;				<stop
   offset="0.7627"
   style="stop-color:#F7A12F"
   id="stop954" />&#10;				<stop
   offset="0.7727"
   style="stop-color:#F1894E"
   id="stop955" />&#10;				<stop
   offset="0.7835"
   style="stop-color:#ED7568"
   id="stop956" />&#10;				<stop
   offset="0.7954"
   style="stop-color:#E9667C"
   id="stop957" />&#10;				<stop
   offset="0.809"
   style="stop-color:#E75B8A"
   id="stop958" />&#10;				<stop
   offset="0.8256"
   style="stop-color:#E55593"
   id="stop959" />&#10;				<stop
   offset="0.8543"
   style="stop-color:#E55395"
   id="stop960" />&#10;				<stop
   offset="0.9848"
   style="stop-color:#632742"
   id="stop961" />&#10;			</linearGradient><linearGradient
     id="SVGID_56_"
     gradientUnits="userSpaceOnUse"
     x1="7.9302001"
     y1="269.20609"
     x2="242.93021"
     y2="244.7061">&#10;			<stop
   offset="0"
   style="stop-color:#005582"
   id="stop1131" />&#10;			<stop
   offset="0.0334"
   style="stop-color:#005B8B"
   id="stop1132" />&#10;			<stop
   offset="0.1447"
   style="stop-color:#006BA6"
   id="stop1133" />&#10;			<stop
   offset="0.2586"
   style="stop-color:#0076B9"
   id="stop1134" />&#10;			<stop
   offset="0.3755"
   style="stop-color:#007DC4"
   id="stop1135" />&#10;			<stop
   offset="0.5"
   style="stop-color:#007FC8"
   id="stop1136" />&#10;			<stop
   offset="0.657"
   style="stop-color:#007DC5"
   id="stop1137" />&#10;			<stop
   offset="0.7636"
   style="stop-color:#0078BC"
   id="stop1138" />&#10;			<stop
   offset="0.8552"
   style="stop-color:#006FAD"
   id="stop1139" />&#10;			<stop
   offset="0.9379"
   style="stop-color:#006298"
   id="stop1140" />&#10;			<stop
   offset="1"
   style="stop-color:#005582"
   id="stop1141" />&#10;		</linearGradient><linearGradient
     id="SVGID_16_"
     gradientUnits="userSpaceOnUse"
     x1="222.7095"
     y1="-2.2279999"
     x2="222.7095"
     y2="257.97269"
     gradientTransform="translate(-185.92671,-116.06956)">&#10;				<stop
   offset="0"
   style="stop-color:#005582"
   id="stop311" />&#10;				<stop
   offset="0.1501"
   style="stop-color:#007FC8"
   id="stop312" />&#10;				<stop
   offset="0.2883"
   style="stop-color:#0380C6"
   id="stop313" />&#10;				<stop
   offset="0.3703"
   style="stop-color:#0B82C0"
   id="stop314" />&#10;				<stop
   offset="0.4376"
   style="stop-color:#1986B4"
   id="stop315" />&#10;				<stop
   offset="0.497"
   style="stop-color:#2D8BA5"
   id="stop316" />&#10;				<stop
   offset="0.5512"
   style="stop-color:#479390"
   id="stop317" />&#10;				<stop
   offset="0.6015"
   style="stop-color:#689B77"
   id="stop318" />&#10;				<stop
   offset="0.649"
   style="stop-color:#8EA659"
   id="stop319" />&#10;				<stop
   offset="0.6941"
   style="stop-color:#BAB236"
   id="stop320" />&#10;				<stop
   offset="0.7359"
   style="stop-color:#EBC010"
   id="stop321" />&#10;				<stop
   offset="0.7513"
   style="stop-color:#FFC500"
   id="stop322" />&#10;				<stop
   offset="0.7535"
   style="stop-color:#FDBE0A"
   id="stop323" />&#10;				<stop
   offset="0.7627"
   style="stop-color:#F7A12F"
   id="stop324" />&#10;				<stop
   offset="0.7727"
   style="stop-color:#F1894E"
   id="stop325" />&#10;				<stop
   offset="0.7835"
   style="stop-color:#ED7568"
   id="stop326" />&#10;				<stop
   offset="0.7954"
   style="stop-color:#E9667C"
   id="stop327" />&#10;				<stop
   offset="0.809"
   style="stop-color:#E75B8A"
   id="stop328" />&#10;				<stop
   offset="0.8256"
   style="stop-color:#E55593"
   id="stop329" />&#10;				<stop
   offset="0.8543"
   style="stop-color:#E55395"
   id="stop330" />&#10;				<stop
   offset="0.9848"
   style="stop-color:#632742"
   id="stop331" />&#10;			</linearGradient><linearGradient
     inkscape:collect="always"
     xlink:href="#SVGID_5_"
     id="linearGradient24"
     gradientUnits="userSpaceOnUse"
     x1="54.939499"
     y1="-2.2256"
     x2="54.9394"
     y2="257.96921"
     gradientTransform="matrix(-0.99808668,0.06183017,0.06183017,0.99808668,253.6517,-3.1365032)" /><linearGradient
     inkscape:collect="always"
     xlink:href="#linearGradient79"
     id="linearGradient25"
     gradientUnits="userSpaceOnUse"
     gradientTransform="rotate(131.01073,198.20606,264.72327)"
     x1="54.939499"
     y1="-2.2256"
     x2="54.9394"
     y2="257.96921" /><linearGradient
     inkscape:collect="always"
     xlink:href="#linearGradient79"
     id="linearGradient1"
     gradientUnits="userSpaceOnUse"
     gradientTransform="matrix(-0.98530443,0.17080739,0.17080739,0.98530443,92.836426,-7.0529675)"
     x1="54.939499"
     y1="-2.2256"
     x2="54.9394"
     y2="257.96921" /><linearGradient
     inkscape:collect="always"
     xlink:href="#SVGID_5_"
     id="linearGradient2"
     gradientUnits="userSpaceOnUse"
     x1="54.939499"
     y1="-2.2256"
     x2="54.9394"
     y2="257.96921"
     gradientTransform="translate(16.293327)" /><linearGradient
     inkscape:collect="always"
     xlink:href="#linearGradient79"
     id="linearGradient132"
     gradientUnits="userSpaceOnUse"
     gradientTransform="rotate(9.8347658,135.263,1092.2312)"
     x1="54.939499"
     y1="-2.2256"
     x2="54.9394"
     y2="257.96921" /></defs><sodipodi:namedview
   id="namedview1191"
   pagecolor="#000000"
   bordercolor="#eeeeee"
   borderopacity="1"
   inkscape:showpageshadow="0"
   inkscape:pageopacity="0"
   inkscape:pagecheckerboard="0"
   inkscape:deskcolor="#d1d1d1"
   inkscape:zoom="1.6491449"
   inkscape:cx="134.00884"
   inkscape:cy="77.009607"
   inkscape:window-width="1280"
   inkscape:window-height="961"
   inkscape:window-x="-8"
   inkscape:window-y="-8"
   inkscape:window-maximized="1"
   inkscape:current-layer="svg1191" />&#10;<g
   id="fil">&#10;</g>&#10;<g
   id="marionnette">&#10;</g>&#10;<path
   id="path520"
   style="fill:url(#SVGID_25_)"
   d="m 393.13523,82.311798 c -3.4939,-0.03175 -6.92477,1.40055 -8.98633,4.06445 -0.23942,0.72768 -0.20511,1.35584 -0.0117,1.91406 -0.29761,-0.18356 -0.6838,-0.22457 -1.22265,0.02149 -1.105,1.53999 -1.52353,3.27148 -1.51953,5.14648 0.012,8.134992 0.002,16.269312 0.01,24.404302 0,0.447 0.094,0.89467 0.12305,1.13867 0.992,-1.635 1.8592,-3.39692 3.0332,-4.91992 2.102,-2.729 4.4078,-5.30076 6.5918,-7.96875 2.266,-2.766 4.48661,-5.56752 6.72461,-8.353522 0.218,-1.407 -0.55714,-2.14886 -1.74414,-2.63086 -1.368,-0.556 -2.06852,0.99771 -3.22852,1.09571 2.609,-1.473 2.73792,-2.34371 0.66992,-4.59571 -0.352,-0.382 -0.69161,-0.77861 -1.0996,-1.09961 -0.68938,-0.545 -1.37274,-0.77365 -2.0625,-0.63476 -0.069,0.01389 -0.13791,0.03145 -0.20704,0.05273 -0.34565,0.10641 -0.69336,0.30672 -1.04492,0.60547 -1.68717,1.43035 -2.48825,1.3277 -3.67773,-0.375 0.19419,0.18945 0.39083,0.37548 0.58203,0.55274 1.084,1.00599 2.36944,0.25604 3.52344,-0.50196 0.19107,-0.12573 0.40055,-0.21671 0.61718,-0.28125 0.0683,-0.02034 0.13701,-0.03821 0.20704,-0.05273 1.14249,-0.2369 2.48843,0.28983 3.20117,1.32031 0.649,0.939 1.45486,1.24475 2.50586,0.96875 0.809,-0.213 1.62862,-0.3883 2.39062,-0.7793 0.395,-0.204 0.91186,-0.34201 1.25586,0.08399 0.418,0.518 0.0375,0.96872 -0.26953,1.38672 -0.428,0.579 -1.11106,0.8967 -1.53906,1.4707 -0.432,0.58 -0.48675,1.23453 0.0312,1.76953 0.568,0.586 1.03328,0.30092 1.36328,-0.33008 1.358,-1.457 2.31672,-3.28759 4.13672,-4.30859 0.654,-0.366 0.81981,-0.96502 0.50781,-1.66602 -0.212,-0.473 -0.40053,-0.95906 -0.64453,-1.41406 -2.21637,-4.13312 -6.25704,-6.048 -10.2168,-6.08398 z" /><path
   id="path37"
   style="fill:url(#SVGID_2_);stroke:#000000;stroke-opacity:0.5"
   d="m 141.28147,15.225919 c -3.51492,0.02121 -7.04969,0.487329 -10.58594,1.392578 -15.19899,3.890996 -25.23882,13.68378 -30.50781,28.384766 -0.693003,1.937998 -0.927004,4.039408 -1.375003,6.066406 0.0026,-5.13e-4 0.0052,5.07e-4 0.0078,0 -0.115535,0.656359 -0.233093,1.311449 -0.347656,1.966797 -0.0033,0.0025 -0.0065,0.0033 -0.0098,0.0059 -0.121,0.638999 -0.310562,1.272016 -0.351562,1.916016 -0.472,7.404992 0.636862,14.541288 3.630861,21.363281 0.49,1.114999 1.10336,1.972985 2.31836,2.458984 1.271,0.511 2.42364,1.323939 2.93164,2.710938 0.168,0.462001 0.30097,1.030801 0.16797,1.466801 -0.056,0.189 -0.82574,0.16086 -1.42774,0.25586 2.93,4.30099 6.34735,7.88658 10.65235,10.64257 0.187,-0.29 0.25495,-0.34643 0.25195,-0.39843 -0.023,-0.321 -0.0387,-0.64489 -0.0957,-0.96289 -0.582,-3.217 0.44299,-5.86902 2.70899,-8.16602 2.004,-2.033 4.32432,-3.565048 6.94531,-4.623047 4.581,-1.850999 9.4017,-2.641688 14.30469,-2.804688 3.785,-0.125 7.5478,0.354876 11.2168,1.296875 2.84199,0.730999 5.63909,1.652345 8.12109,3.277344 2.201,1.439996 4.07403,3.216146 5.45703,5.494146 0.982,1.61999 0.71522,3.39967 0.82422,5.13867 5.9e-4,2.6e-4 0.001,-2.7e-4 0.002,0 -0.106,0.528 -0.21045,1.05793 -0.31445,1.58593 3.43671,-1.93627 6.37878,-4.23465 8.51758,-7.42578 5e-4,-7.5e-4 10e-4,-10e-4 0.002,-0.002 0.246,-0.21 0.53342,-0.38777 0.73242,-0.63477 4.059,-5.013991 6.91408,-10.611846 8.20508,-16.96484 0.104,-0.308 0.2445,-0.606969 0.3125,-0.917969 2.029,-9.95699 0.88297,-19.523931 -3.58203,-28.669922 -0.277,-0.575999 -0.68516,-1.091766 -1.03516,-1.634765 -0.79299,0.408999 -1.18751,-0.134251 -1.60351,-0.65625 -0.332,-0.415 -0.79139,-0.930672 -1.27539,-0.763672 -2.052,0.710999 -4.98433,-3.37422 -5.23633,-5.074219 -0.203,-1.371998 -1.12514,-1.949234 -2.36914,-1.365234 -0.752,0.352 -1.41566,0.539953 -2.22266,0.376953 -0.963,-0.195 -1.80508,0.0828 -2.45507,0.841797 -1.242,1.443998 -2.96271,1.827719 -4.72071,2.011719 -0.939,0.1 -2.21444,0.216842 -2.52343,-0.910157 -0.334,-1.227998 -0.31211,-2.655407 1.08789,-3.441406 1.17799,-0.661999 2.10986,-1.483986 2.50585,-2.833984 0.131,-0.447 3.04108,-2.603315 2.45508,-4.695313 -0.93,-0.491999 -1.85711,-0.982656 -2.78711,-1.472656 -0.003,0.0025 -0.005,0.0053 -0.008,0.0078 4.7e-4,-0.004 0.001,-0.0077 0.002,-0.01172 -0.404,-0.211 -0.79693,-0.447954 -1.21093,-0.626953 -5.65562,-2.443748 -11.4582,-3.640821 -17.31641,-3.605469 z m -0.31641,65.595703 c -1.91153,0.01647 -3.83234,0.184938 -5.76171,0.507812 -3.242,0.541001 -6.3416,1.431031 -9.1836,3.082031 -2.458,1.427 -4.63528,3.13757 -5.36328,6.10156 -0.658,2.314 -0.55608,4.49029 1.16992,6.36329 0.951,0.48599 1.68918,1.24284 2.45117,1.96484 1.122,1.063 2.21461,1.275665 3.34961,0.0137 1.84,-2.048 4.09615,-1.35478 6.36914,-1.05078 2.569,0.343 4.23158,1.45853 4.64258,4.144525 5.764,0.704 -0.91662,1.07402 -1.14062,1.91602 0.373,0.098 0.74504,0.26615 1.12304,0.28515 4.317,0.217 8.59038,-0.10762 12.73438,-1.39062 2.998,-0.926 5.90017,-2.12843 8.20117,-4.357415 2.46658,-2.3966 3.65686,-5.1898 2.20899,-8.625 l 0.002,-0.002 c -0.479,-1.649 -1.6645,-2.75611 -2.9375,-3.78711 -2.471,-2.00199 -5.30619,-3.25758 -8.36719,-4.01757 -3.15,-0.785005 -6.31216,-1.175894 -9.49805,-1.148443 z"
   inkscape:export-filename="LogoHead.svg"
   inkscape:export-xdpi="60"
   inkscape:export-ydpi="60" /><g
   id="g131"><path
     id="path23"
     style="fill:url(#linearGradient24)"
     d="m 207.11432,134.63537 c 1.47521,-0.0623 3.05533,0.14219 4.71468,0.67267 5.14561,1.64599 7.56032,5.77798 7.92086,11.0157 0.76788,11.231 1.43857,22.47146 2.07077,33.71186 0.0817,1.46374 -0.29335,2.95432 -0.45734,4.43129 -0.86014,0.46106 -1.10758,-0.32389 -1.53177,-0.75048 -2.78171,-2.78834 -6.71444,-2.17356 -8.46905,1.29956 -0.44455,0.87817 -0.11987,1.33156 0.68501,1.64439 1.73506,0.67502 2.84641,-0.14527 3.74866,-1.52767 0.67332,-1.03461 1.65072,-1.49759 2.84445,-1.15073 0.95098,0.27773 1.46329,1.02353 1.53678,2.03191 0.0395,0.57266 0.17233,1.15625 -0.16712,1.69327 -2.33637,3.86684 -5.91366,5.69426 -10.28244,5.57416 -4.63793,-0.13049 -8.14805,-2.42081 -10.23295,-6.67303 -0.99314,-2.02546 -1.30586,-4.21218 -1.44518,-6.42881 -0.62856,-9.93614 -1.25619,-19.87345 -1.84694,-29.81394 -0.0952,-1.61721 -0.0231,-3.24425 0.01,-4.86538 0.11032,-5.32832 4.50927,-10.5949 10.90182,-10.86477 z"
     sodipodi:nodetypes="sccccccccccccscccs"
     inkscape:transform-center-y="27.843031"
     inkscape:transform-center-x="-1.7607154" /><path
     fill="none"
     stroke="url(#SVGID_1_)"
     stroke-linecap="round"
     stroke-miterlimit="10"
     d="m 55.034923,288.43534 c 4.06,-24.095 -27.543,10.377 -21.55,-0.278 8.113,-14.423 -1.831,-4.124 -2.192,-13.331 -0.361,-9.213 -9.794,-6.192 -10.223,-17.114 0,0 58.873469,-46.6683 84.707467,-41.6683"
     id="path16"
     style="stroke:url(#SVGID_1_)"
     sodipodi:nodetypes="ccccc" /><path
     id="path58"
     style="fill:url(#SVGID_3_)"
     d="m 139.37145,101.27734 c -2.00095,-0.032 -4.01081,0.15294 -6.00781,0.33594 -2.257,0.208 -4.51509,0.44136 -6.74609,0.81836 -1.461,0.248 -2.84691,0.72867 -3.75391,2.13867 -0.701,1.09 -0.94003,1.01597 -1.95703,0.16797 -0.3,-0.25 -0.99873,-0.54951 -1.05273,-0.47851 -0.361,0.479 -0.73127,1.02956 -0.82227,1.60156 -0.059,0.36 0.35545,0.80217 0.56445,1.20117 0.37,0.703 0.22591,1.25142 -0.49609,1.60742 -0.765,0.377 -1.23123,0.0664 -1.49023,-0.68359 -0.15,-0.427 -0.30408,-0.85135 -0.45703,-1.27735 -0.43556,-1.4344 -0.86386,-1.80973 -2.09962,-1.67187 -1.05199,0.118 -2.05495,0.40369 -2.62695,1.42969 -0.294,0.528 -0.63705,0.77806 -1.24805,0.41406 -1.51599,-0.901 -2.71719,0.20289 -3.99218,0.71289 -0.141,0.057 -0.25472,0.63692 -0.13672,0.79492 0.3,0.404 0.72218,0.96933 1.11718,0.98633 0.563,0.025 1.1428,-0.38342 1.7168,-0.60742 0.267,0.395 0.53757,0.78933 1.10156,1.61133 -0.028,-1.8 0.86434,-2.18722 1.98633,-2.44922 0.589,-0.137 1.15981,-0.53155 1.63281,-0.93555 0.5384,-0.45949 0.99687,-0.84869 1.6836,-0.32031 -0.29998,0.8364 -0.73001,1.65025 -0.87891,2.51367 -0.30499,1.761 -1.32607,2.93902 -2.78906,3.79102 -0.412,0.239 -1.09683,0.49345 -1.42383,0.31445 -1.25999,-0.692 -1.948,-0.0206 -2.625,0.85937 h -0.002 c -0.19293,-0.23025 -0.47406,-0.42897 -0.56055,-0.6914 -0.46,-1.446 -1.26284,-1.90077 -2.54883,-1.38282 -1.66099,0.67 -1.66177,0.6701 -2.88476,-0.63085 -1.187,-1.263 -1.51693,-1.34124 -3.044925,-0.61329 -1.173995,0.562 -2.326099,1.17219 -3.496094,1.74219 -0.862995,0.419 -1.501187,0.94972 -1.617187,2.01172 -0.112,1.027 -0.786552,1.4617 -1.810547,1.2207 -1.242995,-0.293 -2.308458,0.10816 -3.314453,0.78516 -4.33798,2.915 -8.2915,6.28036 -11.896485,10.07031 -0.734995,0.771 -0.758843,1.3796 -0.08984,2.1836 1.245995,1.49995 2.503145,3.00261 3.61914,4.59961 3.501985,5.01395 6.938364,10.07228 10.402344,15.11328 0.0037,0.003 0.008,0.007 0.01172,0.01 1.134509,2.11052 2.366381,4.17718 3.384766,6.34375 1.93199,4.111 3.739619,8.27883 5.599605,12.42383 1.51599,0.596 2.96448,-0.78364 4.35547,-0.30664 1.45681,0.49805 2.44663,0.15844 3.27735,-0.53516 -0.18033,0.42698 -0.25526,0.88908 -0.11524,1.41993 0.406,1.53095 1.18694,2.95818 1.21094,4.61718 0.002,0.357 0.49356,0.55085 0.85156,0.71485 1.57399,0.723 2.01803,1.88261 1.33203,3.47461 -0.163,0.381 -0.15153,0.74879 0.10547,1.09179 1.81799,0.516 3.63714,1.02888 5.45313,1.54688 0.423,0.152 0.83253,0.36531 1.26953,0.44531 3.624,0.666 7.24686,1.34359 10.88281,1.93359 1.396,0.227 2.82519,0.23866 4.24219,0.34766 0.294,-0.25 0.71114,-0.67087 0.99414,-0.42187 1.22,1.07695 2.72083,0.44501 4.04883,0.79101 0.278,0.007 0.55889,0.0125 0.83789,0.0215 2.006,-0.01 4.01767,0.0613 6.01367,-0.0527 2.058,-0.118 4.1033,-0.41767 6.1543,-0.63867 2.191,-0.276 4.40017,-0.46775 6.57617,-0.84375 7.21595,-1.241 14.13638,-3.48547 20.86133,-6.35547 0.832,-0.355 1.38055,-0.88086 1.68555,-1.75586 1.32595,-3.80695 2.69287,-7.59753 4.04687,-11.39453 h 0.002 c 0.914,-1.955 1.82329,-3.91228 2.73829,-5.86328 -0.033,-0.253 -0.10972,-0.49195 -0.13672,-0.75195 -0.273,-2.559 -1.83199,-3.28699 -3.95899,-1.83399 -0.793,0.543 -1.60728,0.5773 -2.48828,0.4043 2.175,0.154 3.10335,-0.46483 3.52735,-2.55078 0.19095,-0.935 0.69503,-1.43697 1.45703,-1.91797 1.68095,-1.061 1.68121,-2.48374 0.32421,-3.67774 1.045,0.453 1.20122,1.83974 1.82422,2.92774 0.56,0.974 1.01733,2.26264 2.61328,1.55469 2.564,-3.925 5.12741,-7.8504 7.69141,-11.7754 -0.289,-0.60895 -0.83192,-0.93407 -1.41992,-0.70507 -1.393,0.541 -2.6505,0.11378 -3.9375,-0.32617 -0.62,-0.213 -1.33353,-0.36808 -1.89453,-0.0801 -1.738,0.895 -2.09,-0.29077 -2.5,-1.50977 -0.211,-0.621 -0.30888,-1.24353 -0.29688,-1.89453 0.015,-1.03669 -0.38709,-1.75545 -1.40234,-1.97461 0.85108,-1.88746 4.33411,-2.19489 6.93555,-2.80273 1.016,-0.237 1.51007,-0.96875 1.58007,-1.96875 0.082,-1.233 0.5353,-2.23382 1.53125,-3.00782 0.785,-0.609 0.8571,-1.39709 0.36915,-2.24609 -2.317,-1.765 -4.55066,-3.65567 -6.97266,-5.26562 -7.85395,-5.226 -16.42558,-8.89152 -25.51953,-11.35547 -5.21576,-1.61262 -10.58268,-2.45254 -15.98438,-3.10547 h -0.002 -0.002 c -3.03635,-0.154 -6.07394,-0.38661 -9.11329,-0.4336 z m -30.56054,60.72852 c 0.8201,0.29871 1.4025,0.79988 1.62109,1.61523 -0.1174,0.0856 -0.2333,0.17458 -0.33594,0.28516 -0.0788,0.0941 -0.17784,0.18468 -0.26367,0.27734 0.14118,-0.36504 0.13994,-0.74215 -0.1582,-1.14648 -0.30017,-0.40499 -0.63294,-0.5023 -0.97266,-0.44727 0.0326,-0.16155 0.0696,-0.32281 0.0957,-0.48632 0.01,-0.0316 0.006,-0.0658 0.0137,-0.0977 z" /><path
     id="path100"
     style="fill:url(#linearGradient2)"
     d="m 71.260124,134.63086 c -1.476234,0.029 -3.040689,0.33083 -4.664063,0.96289 -5.033995,1.961 -7.188609,6.23438 -7.224609,11.48437 -0.072,11.25699 -0.04642,22.51741 0.01758,33.7754 0.009,1.46599 0.475469,2.93053 0.730469,4.39453 0.886999,0.407 1.085422,-0.39175 1.482422,-0.84375 2.603997,-2.955 6.567205,-2.58456 8.533203,0.77343 0.497999,0.849 0.201968,1.3216 -0.582031,1.6836 -1.689999,0.781 -2.849939,0.031 -3.835938,-1.29297 -0.735999,-0.991 -1.740157,-1.39266 -2.910156,-0.97266 -0.931999,0.336 -1.397203,1.11205 -1.408203,2.12305 -0.004,0.574 -0.100516,1.16469 0.271484,1.67969 2.570998,3.71499 6.254426,5.31773 10.607422,4.92773 4.620995,-0.417 7.982783,-2.91997 9.800781,-7.29297 0.865999,-2.08299 1.042922,-4.28486 1.044922,-6.50586 0.013,-9.95599 0.025,-19.9131 0,-29.87109 -0.005,-1.62 -0.177547,-3.23947 -0.310547,-4.85547 -0.439562,-5.31131 -5.155722,-10.29582 -11.552734,-10.16992 z"
     sodipodi:nodetypes="sccccccccccccscccs" /><path
     id="path163"
     style="fill:url(#SVGID_8_)"
     d="m 137.8695,197.44922 c -0.002,0.001 -0.005,9.2e-4 -0.008,0.002 -3.42742,0.22766 -6.86781,0.3434 -10.2832,0.70313 -7.935,0.843 -15.57375,2.94306 -23.01172,5.78906 -2.183,0.834 -2.1883,0.92101 -1.7793,3.33398 0.728,4.301 1.16431,8.62517 1.07031,12.99414 -0.034,1.624 0.0221,3.24996 0.0391,4.87696 0.224,0.569 0.12794,1.17567 0.21094,1.76367 0.299,2.11 1.39246,2.59958 3.18945,1.39258 0.712,-0.476 1.43002,-0.90919 2.29102,-0.99219 1.121,-0.108 2.14481,-0.25531 2.75781,-1.44531 0.383,-0.749 1.09331,-0.45352 1.69531,-0.10352 1.893,1.1 4.04437,0.66624 6.06837,0.99024 0.46566,0.0757 0.93563,-0.0608 1.20507,-0.48047 0.0223,0.0249 0.0437,0.0554 0.0664,0.0781 0.185,0.045 0.37059,0.0564 0.55859,0.0254 0.10325,-0.0745 0.20135,-0.12379 0.30079,-0.17578 0.57374,0.51185 0.76281,1.23355 0.90234,2.00391 0.238,1.305 0.79103,2.3425 2.33203,2.4375 0.71,0.044 1.14074,0.42814 1.42774,1.11914 0.64799,1.563 0.96604,1.70086 2.62304,1.50586 0.64,-0.076 1.29592,-0.23425 1.91992,-0.15625 0.903,0.11 1.40035,0.87714 0.90235,1.49414 -0.89182,1.11099 -0.49167,2.07445 -0.0781,3.07226 -0.13543,0.113 -0.24734,0.24243 -0.32812,0.40039 -0.345,0.997 -0.065,1.81005 0.79297,2.37305 0.842,0.553 1.5927,0.14755 2.3457,-0.31445 0.889,-0.545 1.56203,-1.31583 2.45703,-2.17383 -1.141,1.621 -1.01877,2.95892 0.2832,4.16992 1.223,1.141 2.35041,0.54066 3.44141,-0.27734 0.902,2.788 2.28391,3.16855 4.50391,1.26758 0.626,-0.539 1.12992,-0.55875 1.66992,0.0312 1.276,1.39 1.08166,3.83522 -0.44531,5.69922 -1.238,1.50897 -2.39743,0.56396 -3.60743,-0.082 -3.44697,-1.83797 -6.80126,0.89303 -7.44726,4.25 -0.104,0.539 0.15158,1.00311 0.51758,1.41211 1.023,1.143 2.3331,1.48647 3.70507,0.98047 1.605,-0.592 3.02619,-0.57789 4.36719,0.53711 1.942,0.143 3.88822,0.22436 5.82422,0.44336 10.00597,1.127 19.67614,3.57591 28.91211,7.62891 2.201,0.965 4.35576,2.03872 6.55273,3.01172 0.418,0.186 0.94102,0.13059 1.41602,0.18359 -0.047,-0.486 -0.0232,-0.99408 -0.1582,-1.45508 -0.142,-0.492 -0.43316,-0.94115 -0.66016,-1.41015 -3.718,-7.633 -6.44539,-15.60386 -8.15039,-23.92383 -0.429,-2.096 -0.8513,-4.19595 -1.2793,-6.29492 -0.001,1e-5 -0.003,-2e-5 -0.004,0 -0.0229,-0.64837 -1.2e-4,-1.30491 -0.082,-1.94727 -0.865,-6.86997 -1.08199,-13.74765 -0.33399,-20.64062 0.162,-1.487 0.40186,-2.96539 0.63086,-4.44336 0.264,-1.69 0.248,-1.79891 -1.375,-2.50391 -0.889,-0.385 -1.83009,-0.6488 -2.74609,-0.9668 -1.279,0.058 -2.50032,0.30549 -3.19532,1.52149 -0.19432,0.33972 -0.29192,0.81717 -0.3164,1.35937 -0.0818,-1.10576 -0.52099,-2.16449 -1.72266,-3.11914 -0.089,-0.072 -0.11539,-0.23242 -0.15039,-0.35742 -0.246,-0.889 -0.93905,-1.14161 -1.74805,-1.22461 -0.502,-0.05 -1.07023,0.0766 -1.49023,-0.23438 -1.345,-0.98997 -2.28536,-0.31217 -3.19336,0.67383 -1.924,2.09 -1.62123,4.6488 0.75977,6.3418 2.39897,1.709 3.06053,3.52705 2.26953,6.24805 -0.563,1.94397 -2.7537,2.69325 -4.63867,1.53125 0.604,-0.707 1.51386,-0.72322 2.25586,-1.07422 1.02197,-0.48 1.7499,-1.50122 1.0039,-2.32422 -1.103,-1.217 -1.90219,-2.83353 -3.49219,-3.51953 -0.889,-0.384 -1.49792,-0.90946 -2.04492,-1.68946 -2.031,-2.89497 -2.05905,-2.88839 1.29492,-3.65039 0.701,-0.16 1.21086,-0.46545 1.38086,-1.18945 0.131,-0.563 -0.0347,-1.127 -0.51367,-1.375 -1.703,-0.889 -3.26765,-2.33248 -5.39062,-1.89648 -1.334,0.272 -1.67752,-0.19749 -1.47852,-1.39649 -0.484,-0.034 -0.96729,-0.0666 -1.44726,-0.0996 -0.605,-0.404 -1.34008,0.0174 -1.95508,-0.30859 -3.797,-0.133 -7.59363,-0.26739 -11.39063,-0.40039 z m 31.70703,9.6914 c 0.0897,1.75698 0.80763,3.91498 1.75586,4.74219 0.601,0.523 1.74614,1.0102 1.11914,1.95117 -0.652,0.978 -1.77897,0.47841 -2.66797,0.0664 -1.18797,-0.552 -1.09382,-1.51234 -0.92382,-2.65234 0.19994,-1.35381 0.66794,-2.75638 0.71679,-4.10743 z m -58.44336,25.2168 c -0.22613,-0.003 -0.45809,0.0681 -0.69922,0.25781 -0.69999,0.552 -0.58725,1.24336 -0.28125,1.94336 0.42,0.967 0.44181,1.88482 -0.24218,2.75782 -0.512,0.651 -0.28028,1.24384 0.26171,1.71484 0.987,0.858 1.13402,1.96269 1.16602,3.17969 0.022,0.901 0.22559,1.80357 0.43359,2.68554 0.196,0.834 0.5258,1.68516 1.4668,1.91016 0.915,0.219 1.36611,-0.58414 1.91211,-1.11914 1.019,-0.996 2.00836,-2.03147 3.06836,-2.98047 1.021,-0.914 1.57373,-0.91839 2.4707,0.0996 0.722,0.817 1.50432,1.11169 2.57032,1.05469 1.261,-0.07 1.39028,0.16455 0.98828,1.31055 -0.128,0.36697 -0.2876,0.72493 -0.4336,1.08593 -0.094,0.356 0.0426,0.48163 0.39063,0.39063 0.703,0 1.40747,0.0363 2.10547,-0.0117 1.516,-0.104 3.02897,-0.25281 4.54297,-0.38281 0.318,-0.164 0.62353,-0.3353 0.39453,-0.7793 -0.325,-1.184 -1.19039,-1.80861 -2.27539,-2.22461 -0.541,-0.207 -1.19241,-0.34147 -1.56641,-0.73047 -1.081,-1.123 -2.44398,-1.69286 -3.83398,-2.25586 -0.722,-0.294 -1.45649,-0.57364 -2.14649,-0.93164 -1.239,-0.644 -1.29015,-1.68455 -0.0352,-2.31055 0.722,-0.359 1.60959,-0.42039 2.43359,-0.52539 0.837,-0.105 1.69139,-0.0511 2.52539,-0.16406 0.235,-0.033 0.50756,-0.37872 0.60156,-0.63672 0.057,-0.156 -0.15717,-0.56709 -0.32617,-0.62109 -1.282,-0.402 -2.56481,-0.87274 -3.88281,-1.05274 -0.92,-0.126 -1.90587,0.12041 -2.83984,0.31641 -0.384,0.08 -0.90763,0.39084 -1.01563,0.71484 -0.341,1.018 -1.0025,1.61069 -1.9375,2.05469 -0.659,0.311 -0.7001,0.83031 -0.24609,1.44531 0.316,0.429 0.49537,0.95741 0.73437,1.44141 -0.559,0.026 -1.12083,0.10259 -1.67383,0.0586 -0.576,-0.045 -1.16989,-0.14298 -1.71289,-0.33398 -0.845,-0.3 -1.24933,-0.9377 -0.98633,-1.8457 0.127,-0.435 0.32292,-0.854 0.54492,-1.25 1.377,-2.463 1.38106,-2.45931 -1.21093,-3.73828 -0.059,-0.029 -0.11488,-0.0647 -0.17188,-0.0977 -0.3575,-0.21375 -0.71687,-0.42473 -1.09375,-0.42969 z" /><path
     id="path541"
     style="fill:url(#SVGID_26_)"
     d="m 116.50622,183.38672 c -0.65452,0.0262 -0.90896,0.45436 -1.18945,1.56055 -0.815,3.21899 -0.80025,6.44595 0.21875,9.62695 0.50299,1.572 0.77359,1.6895 2.43359,1.4375 3.277,-0.494 6.5569,-0.97689 9.83789,-1.46289 1.538,-0.227 3.07633,-0.44497 4.61133,-0.66797 1.611,-0.093 3.22713,-0.32995 4.82812,-0.25195 5.03,0.246 10.05704,0.60973 15.08204,0.92773 2.1e-4,-3.1e-4 0.002,3.1e-4 0.002,0 3.388,0.578 6.78121,1.12286 10.1582,1.75586 1.014,0.19 1.5896,-0.0292 1.9336,-1.03125 1.168,-3.418 1.1699,-6.88157 0.3789,-10.35156 -0.334,-1.467 -0.51417,-1.45177 -2.07617,-1.13477 -2.67,0.54 -5.34553,1.03488 -8.01953,1.54688 -5.46115,0.74379 -21.53055,7.67012 -22.27149,8.46484 0.4045,-1.63482 -1.36902,-1.26831 -2.10156,-2.13672 1.384,-1.095 2.91736,-1.88073 4.56836,-1.67773 1.068,0.133 1.92527,0.25886 2.57227,-0.61914 0.687,-0.932 1.00001,-1.9658 0.041,-2.9668 -0.566,-0.112 -1.13217,-0.31717 -1.70117,-0.32617 -6.14499,-0.108 -12.177,-0.98586 -18.125,-2.50586 -0.50281,-0.12813 -0.88413,-0.19941 -1.18164,-0.1875 z" /><path
     fill="url(#SVGID_38_)"
     d="m 104.78033,109 c 0.525,0.125 0.897,0.122 1.12,0.302 0.146,0.117 0.194,0.6 0.073,0.745 -0.183,0.219 -0.536,0.348 -0.84,0.411 -0.741,0.153 -1.765,-0.376 -1.548,-0.683 0.278,-0.393 0.858,-0.571 1.195,-0.775 z"
     id="path793"
     style="fill:url(#SVGID_38_)" /><path
     fill="url(#SVGID_39_)"
     d="m 151.21433,198.159 c -0.652,-0.104 -1.303,-0.205 -1.955,-0.307 0.653,0.102 1.303,0.204 1.955,0.307 z"
     id="path814"
     style="fill:url(#SVGID_39_)" /><path
     fill="url(#SVGID_46_)"
     d="m 158.31633,124.062 c -0.084,0.068 -0.156,0.171 -0.236,0.179 -0.102,0.009 -0.211,-0.061 -0.316,-0.097 0.072,-0.063 0.141,-0.174 0.219,-0.182 0.101,-0.01 0.21,0.061 0.333,0.1 z"
     id="path961"
     style="fill:url(#SVGID_46_)" /><path
     id="path1119"
     style="fill:url(#SVGID_54_)"
     d="M 6.9023438 210.16602 C 5.639345 210.41102 5.0058594 212.1163 5.0058594 215.2793 L 5.0058594 229.91992 L 8.8515625 304.41406 C 9.1705622 308.66806 10.434533 310.78711 12.644531 310.78711 C 12.644531 310.78711 37.125673 310.1582 38.388672 310.1582 L 42.183594 309.52539 C 44.538591 309.94639 24.500366 305.89087 15.859375 305.04688 C 14.735376 305.04688 10.117188 220.9668 10.117188 220.9668 C 10.117188 220.9668 8.8341081 210.16602 7.5371094 210.16602 L 6.9023438 210.16602 z M 54.970703 288.35742 C 52.531706 288.97542 50.989796 290.22705 50.341797 292.12305 L 47.271484 301.0957 C 44.452487 309.33569 44.666113 314.67796 47.912109 317.12695 C 48.975108 317.49095 49.979782 317.59159 50.925781 317.43359 C 51.87078 317.27559 54.62288 315.85768 59.171875 313.17969 L 59.769531 313.38672 C 58.938532 315.81472 59.58608 318.48444 61.705078 321.39844 L 63.652344 322.06445 C 66.609341 323.07845 70.157832 320.83956 74.298828 315.35156 C 75.530827 313.80656 75.562671 312.79731 74.388672 312.32031 C 72.705674 314.19531 71.229124 315.63839 69.953125 316.65039 C 68.115127 317.68939 66.614218 318.12327 65.449219 317.94727 C 65.324219 317.87127 65.223766 317.73855 65.134766 317.56055 L 65.029297 317.85938 L 64.931641 317.82617 C 63.736642 317.41817 63.823267 314.55042 65.197266 309.23242 C 65.346265 308.80042 66.632812 305.04492 66.632812 305.04492 L 70.505859 295.67969 L 70.726562 293.08203 L 69.529297 292.67188 C 68.365298 292.27488 66.61906 294.12647 64.289062 298.23047 C 61.649065 305.93946 57.079165 310.83602 50.576172 312.91602 C 49.778173 312.64202 49.628954 311.23831 50.126953 308.69531 C 50.623953 306.15832 51.48122 303.05467 52.699219 299.38867 C 54.865217 295.34068 56.144969 292.73431 56.542969 291.57031 C 56.654969 290.27331 56.126702 289.20042 54.970703 288.35742 z " /><path
     id="path1141"
     style="fill:url(#SVGID_56_)"
     d="M 97.039062 206.53516 L 94.878906 207.00977 C 84.625917 212.03176 78.600592 227.25762 76.808594 252.68359 C 76.808594 264.48658 76.960813 272.26344 77.257812 276.02344 C 77.557812 279.78143 78.461658 286.12298 79.972656 295.04297 L 79.972656 295.67383 C 79.972656 295.67383 75.754735 308.94889 76.177734 310.21289 L 76.808594 310.21289 C 79.653591 304.7359 81.551001 301.99609 82.5 301.99609 C 86.751996 309.61509 89.450142 310.50967 91.244141 310.26367 C 93.627138 310.30267 95.027658 310.02611 97.222656 308.28711 C 99.339654 306.61111 101.11011 304.5744 102.53711 302.19141 C 103.30811 307.0354 105.08758 309.9238 107.89258 310.8418 C 109.01358 310.8418 109.9978 310.61325 110.8418 310.15625 C 111.6848 309.69725 113.82658 307.46684 117.26758 303.46484 L 117.90234 303.46484 C 117.90234 306.02884 119.37917 308.34788 122.32617 310.42188 L 124.38281 310.42188 C 127.50781 310.42188 130.14016 307.15209 132.28516 300.62109 C 132.95416 298.7581 132.65758 297.79261 131.39258 297.72461 C 130.40758 300.04261 129.47766 301.88491 128.59766 303.25391 C 127.19566 304.8359 125.91386 305.73041 124.75586 305.94141 C 124.61386 305.90841 124.47208 305.82073 124.33008 305.67773 L 124.33008 305.99414 L 124.22656 305.99414 C 122.96356 305.99414 122.11731 303.25243 121.69531 297.77344 L 121.69531 293.34961 L 122.32812 283.23242 L 121.69531 280.70508 L 120.43164 280.70508 C 119.20264 280.70508 118.15148 283.02421 117.27148 287.6582 C 117.27148 295.80919 114.53568 301.92014 109.05469 305.99414 C 108.21169 305.99414 107.61667 304.71348 107.26367 302.14648 C 106.91067 299.58349 106.71759 296.37086 106.68359 292.50586 C 107.41959 287.97486 107.78906 285.09619 107.78906 283.86719 C 107.47406 282.60319 106.62976 281.75789 105.25977 281.33789 C 103.15377 282.70489 102.09961 284.39449 102.09961 286.39648 L 102.09961 295.87891 C 102.09961 296.68791 102.12225 297.45613 102.15625 298.20312 C 101.14125 300.00012 100.0818 301.56164 98.966797 302.80664 C 97.154799 304.82664 95.532795 306.14286 94.091797 306.75586 C 90.5678 309.17586 89.767 306.21673 89.375 305.67773 C 87.816002 303.30874 86.645968 299.00887 86.292969 295.67188 L 86.292969 295.04102 C 86.292969 293.91602 87.7678 290.75564 90.716797 285.55664 C 100.83279 257.70467 105.89062 237.47617 105.89062 224.86719 C 105.89062 212.6452 102.94106 206.53516 97.039062 206.53516 z M 97.041016 210.96289 C 99.289013 211.24089 100.69377 213.18225 101.25977 216.78125 C 101.81977 220.38325 102.09961 223.06975 102.09961 224.84375 C 102.09961 226.61575 101.25931 233.57843 99.570312 245.73242 C 91.95032 273.96839 86.892388 288.08789 84.400391 288.08789 C 82.854392 288.08789 81.798281 280.50011 81.238281 265.32812 C 81.377281 261.92113 81.439875 257.64299 81.421875 252.5 C 81.402875 247.35301 81.973814 241.09274 83.132812 233.71875 C 86.996809 220.02276 90.929551 212.6478 94.935547 211.5918 L 97.041016 210.96289 z M 155.13086 275.07422 C 152.53186 275.07422 150.13239 275.48288 147.94141 276.29688 C 145.74541 277.11186 143.85189 278.27883 142.25391 279.79883 C 140.65691 281.31883 139.41058 283.15831 138.51758 285.32031 C 137.62458 287.48231 137.17773 289.89561 137.17773 292.55859 C 137.17773 295.22159 137.62558 297.63392 138.51758 299.79492 C 139.40958 301.95592 140.65591 303.79641 142.25391 305.31641 C 143.85189 306.83639 145.74641 308.00436 147.94141 308.81836 C 150.13239 309.63336 152.53086 310.03906 155.13086 310.03906 C 157.57586 310.03906 159.97031 309.78911 162.32031 309.28711 C 164.66975 308.78723 166.92637 307.97428 169.08789 306.8457 L 169.08789 289.45312 L 156.07031 289.45312 L 156.07031 296.22266 L 162.03906 296.22266 L 162.03906 301.62695 C 161.35006 302.00195 160.42362 302.37147 159.26562 302.73047 C 158.10564 303.09147 156.72889 303.27148 155.12891 303.27148 C 153.56291 303.27148 152.14495 303.00566 150.87695 302.47266 C 149.60695 301.93966 148.51736 301.19819 147.60938 300.24219 C 146.70138 299.28619 146.00358 298.15842 145.51758 296.85742 C 145.03058 295.55742 144.78711 294.12264 144.78711 292.55664 C 144.78711 291.02164 145.03058 289.5953 145.51758 288.2793 C 146.00458 286.9633 146.70038 285.82905 147.60938 284.87305 C 148.51836 283.91705 149.60695 283.17362 150.87695 282.64062 C 152.14495 282.10764 153.56291 281.8418 155.12891 281.8418 C 157.00989 281.8418 158.57608 282.10764 159.83008 282.64062 C 161.08208 283.17462 162.21089 283.95625 163.21289 284.99023 L 168.38281 279.35156 C 166.69181 277.78556 164.72436 276.68011 162.48438 276.03711 C 160.24438 275.39411 157.79486 275.07422 155.13086 275.07422 z M 186.48047 275.91992 L 172.09961 309.19336 L 180.18359 309.19336 L 182.95508 302.14453 L 195.88086 302.14453 L 198.74805 309.19336 L 207.01953 309.19336 L 192.54492 275.91992 L 186.48047 275.91992 z M 210.35742 275.91992 L 210.35742 309.19336 L 217.68945 309.19336 L 217.68945 283.67383 L 217.7832 283.67383 L 226.19531 309.19336 L 231.78906 309.19336 L 240.53125 283.67383 L 240.625 283.67383 L 240.625 309.19336 L 247.95703 309.19336 L 247.95703 275.91992 L 236.91211 275.91992 L 229.20508 297.63477 L 229.10938 297.63477 L 221.44922 275.91992 L 210.35742 275.91992 z M 255.00586 275.91992 L 255.00586 309.19531 L 278.45703 309.19531 L 278.45703 302.42773 L 262.33789 302.42773 L 262.33789 295.66016 L 276.76758 295.66016 L 276.76758 288.89258 L 262.33789 288.89258 L 262.33789 282.6875 L 277.61133 282.6875 L 277.61133 275.91992 L 255.00586 275.91992 z M 189.30078 285.60156 L 193.39062 295.94141 L 185.25977 295.94141 L 189.30078 285.60156 z " /></g><g
   id="g1186">&#10;	</g><g
   id="g1187">&#10;	</g><g
   id="g1188">&#10;	</g><g
   id="g1189">&#10;	</g><g
   id="g1190">&#10;	</g><g
   id="g1191">&#10;	</g>&#10;<path
   id="path24"
   style="fill:url(#linearGradient25);stroke:#000000;stroke-opacity:0.5"
   d="m 363.54122,213.66871 c 4.14355,-7.68019 0.49371,-12.35059 -0.95315,-13.77665 -1.55625,-1.38779 -15.46293,-10.60828 -16.90438,-12.19973 -1.86524,-2.05807 -4.15168,-3.73674 -6.27921,-5.55109 -0.46055,-0.39393 -0.84336,-1.13082 -1.63281,-0.76249 -0.77695,0.36465 -0.77288,1.12138 -0.7649,1.85587 0.0101,0.76552 0.19239,1.69911 -0.84631,1.91969 -1.00628,0.21694 -1.29801,-0.66561 -1.60894,-1.37328 -0.53815,-1.22204 -1.38969,-1.87527 -2.76616,-1.56945 -1.33738,0.29734 -1.64486,1.28436 -1.65974,2.50386 -0.0185,1.1928 -0.27583,2.34474 -1.16826,3.21857 -0.57522,0.56393 -1.31128,0.88718 -1.68601,-0.13576 -0.63193,-1.72229 -2.65159,-2.17313 -3.33921,-3.85115 -0.21113,-0.51618 -0.93687,-0.6314 -1.55938,-0.60285 -1.30505,0.0582 -2.54664,0.25248 -3.46112,1.05126 0.10155,-0.17138 0.17387,-0.36975 0.18081,-0.60376 0.0602,-2.21643 -0.0533,-4.42739 -0.47145,-6.60127 -0.19429,-1.00008 -2.30102,-1.94187 -3.4151,-1.6239 -1.33298,0.38077 -1.05903,1.37284 -0.8932,2.37845 0.35982,2.20131 0.0876,2.62868 -2.06732,3.38926 -0.65659,0.23081 -1.24717,0.58989 -1.40495,1.23459 -0.28982,1.2004 -1.08335,2.23446 -1.10638,3.51052 0.72314,2.04413 2.27589,3.47355 3.8216,4.8323 7.8165,6.86494 27.80371,21.82762 35.67137,28.6337 2.66853,1.3592 10.17066,1.80351 14.31421,-5.8767 z m -30.12595,-35.0637 c 0.54783,-0.53367 0.65838,-4.5057 -3.93672,-8.46808 -0.66591,-0.57379 -1.42777,-1.0643 -2.21115,-1.47251 -3.35586,-1.7521 -4.75232,3.95141 -4.64446,5.28427 0.0262,0.32214 0.0443,0.64624 0.0689,0.96846 0.0853,1.11045 1.63381,2.41364 2.45323,2.34305 0.83129,-0.0735 1.21541,0.34913 1.13426,1.15718 -0.0176,0.15711 -0.0966,0.30903 -0.12659,0.46705 -0.0688,0.38547 0.12594,0.53643 0.47951,0.46357 0.19301,-0.0366 0.36723,-0.15902 0.55232,-0.23924 0.3547,-0.15802 0.5437,-0.0408 0.55298,0.34631 0.005,0.2031 -0.0282,0.40429 -0.0114,0.60583 0.063,0.84334 0.43734,1.06895 1.20353,0.68164 1.0872,-0.55073 1.72236,-1.44491 1.8503,-2.66945 0.0293,-0.27924 -0.0456,-0.5927 0.0493,-0.83963 0.10039,-0.26787 0.33231,-0.65509 0.53594,-0.67282 0.29231,-0.0268 0.70849,0.15871 0.88719,0.39361 0.23446,0.30186 0.24282,0.76852 0.43245,1.11892 0.13416,0.2465 0.42642,0.61067 0.61585,0.59247 0.0392,-0.004 0.0783,-0.0249 0.11485,-0.0605 z m -28.09355,4.375 c 0.133,-0.17392 0.21796,-0.48364 0.28614,-0.93919 0.21797,-1.47893 0.35171,-2.97255 0.61769,-4.4428 0.84055,-4.63757 3.34494,-7.98626 7.80828,-9.70525 1.45388,-0.5579 2.97223,-0.94989 4.46029,-1.41438 0.43484,-0.13735 0.92844,-0.17993 1.28429,-0.4233 0.20731,-0.14321 0.36267,-0.68733 0.25261,-0.90364 -0.26309,-0.5112 -0.68204,-0.94517 -1.06439,-1.38634 -3.20041,-3.68028 -6.40116,-7.35907 -9.61149,-11.02946 -1.30002,-1.48436 -2.96609,-2.33956 -4.89787,-2.59754 -5.5149,-0.73536 -10.07132,1.22411 -14.02911,5.11085 -2.84708,4.03897 -4.31955,8.49248 -3.17582,13.53964 0.55201,2.43602 1.82728,4.40503 4.10286,5.66968 1.24556,0.69354 2.37856,1.58659 3.57502,2.36865 3.04932,1.99175 6.09057,3.99196 9.16415,5.94518 0.64758,0.4116 1.00567,0.49791 1.22727,0.2079 z"
   sodipodi:nodetypes="zccccccccccccccccccccccczcscccccccccccccccccccccccccccccccccccc"
   inkscape:transform-center-y="-23.7899"
   inkscape:transform-center-x="28.129031"
   inkscape:export-filename="LogoLeftArm.svg"
   inkscape:export-xdpi="60"
   inkscape:export-ydpi="60" /><path
   id="path1"
   style="fill:url(#linearGradient1);stroke:#000000;stroke-opacity:0.5"
   d="m 72.029896,172.60675 c 8.716,0.43063 10.82249,5.9711 11.29363,7.94723 0.38174,2.04992 1.07157,18.72137 1.68699,20.77848 0.79527,2.66127 1.04789,5.4865 1.49887,8.24601 0.0986,0.59796 0.53095,1.30694 -0.19289,1.79172 -0.71419,0.47597 -1.35953,0.0808 -1.98381,-0.3063 -0.64974,-0.40492 -1.35414,-1.04418 -2.08055,-0.26967 -0.70654,0.74865 -0.10247,1.45512 0.34205,2.08748 0.76697,1.09304 0.88505,2.15976 -0.0892,3.17913 -0.94674,0.9903 -1.95036,0.74245 -3.00145,0.12387 -1.03012,-0.60165 -2.14891,-0.97779 -3.35852,-0.6666 -0.78027,0.20021 -1.43786,0.66267 -0.75666,1.51279 1.14646,1.43224 0.48666,3.39362 1.56639,4.8506 0.33233,0.44784 0.0552,1.12842 -0.29145,1.64624 -0.72537,1.08647 -1.53434,2.04817 -2.69116,2.41705 0.19919,0.002 0.40637,0.0427 0.61016,0.15788 1.92747,1.09591 3.76039,2.33755 5.40388,3.82063 0.75507,0.68395 0.47025,2.97397 -0.37852,3.76253 -1.01581,0.94336 -1.72281,0.19542 -2.49733,-0.46703 -1.69715,-1.44742 -2.2037,-1.43574 -3.96998,0.0142 -0.53737,0.44228 -1.15032,0.76169 -1.78358,0.56294 -1.17708,-0.37344 -2.47259,-0.22981 -3.57628,-0.87069 -1.37458,-1.67688 -1.79375,-3.74534 -2.15612,-5.77122 -1.82715,-10.2414 -4.28221,-35.0878 -6.03251,-45.34252 0.21849,-2.98675 3.72199,-9.63542 12.438,-9.20479 z m 14.4046,43.92657 c 0.74018,-0.19245 4.1958,1.76918 5.20722,7.75184 0.1462,0.86676 0.17146,1.77252 0.1152,2.65409 -0.23816,3.77821 -5.84089,2.02047 -6.92542,1.23821 -0.26206,-0.18911 -0.52996,-0.37247 -0.79294,-0.56025 -0.90594,-0.64781 -1.2193,-2.64731 -0.7347,-3.31186 0.49319,-0.6732 0.33046,-1.22062 -0.40289,-1.56948 -0.14359,-0.0662 -0.31441,-0.0773 -0.46516,-0.13346 -0.36541,-0.14066 -0.39377,-0.38544 -0.1484,-0.65022 0.13122,-0.1462 0.32616,-0.23186 0.4906,-0.3487 0.31879,-0.22172 0.31634,-0.4441 -0.01,-0.65241 -0.17109,-0.10958 -0.3605,-0.18516 -0.52425,-0.30384 -0.68894,-0.49047 -0.68818,-0.92754 0.0398,-1.38257 1.03401,-0.6451 2.12784,-0.72566 3.24178,-0.20122 0.25409,0.11944 0.48349,0.34587 0.74388,0.39251 0.28116,0.0527 0.7325,0.0548 0.85308,-0.11023 0.17419,-0.23625 0.23099,-0.68831 0.12251,-0.96282 -0.13695,-0.35684 -0.53182,-0.60559 -0.73346,-0.94922 -0.14146,-0.24239 -0.30171,-0.68097 -0.18811,-0.83362 0.0234,-0.0316 0.0619,-0.0542 0.11127,-0.0669 z m -18.28631,21.77151 c 0.21768,-0.0237 0.52662,0.0639 0.95168,0.24139 1.37818,0.57909 2.72532,1.23787 4.12094,1.77135 4.40294,1.68166 8.56447,1.27238 12.34576,-1.65651 1.22994,-0.95509 2.35133,-2.05125 3.51906,-3.08396 0.34261,-0.30095 0.63457,-0.70121 1.02699,-0.87968 0.22965,-0.10374 0.77582,0.0455 0.90391,0.25167 0.30112,0.48974 0.4556,1.07283 0.63513,1.62832 1.49204,4.64339 2.98262,9.28627 4.46104,13.93302 0.59702,1.88067 0.46628,3.74883 -0.31305,5.53519 -2.22573,5.09912 -6.26093,7.98316 -11.63518,9.35732 -4.92951,0.34506 -9.50211,-0.70056 -13.22827,-4.29187 -1.79846,-1.73332 -2.82295,-3.84372 -2.72692,-6.44535 0.0514,-1.42471 -0.12617,-2.85638 -0.1759,-4.2849 -0.12557,-3.64001 -0.26255,-7.27749 -0.3426,-10.91831 -0.0169,-0.76713 0.0946,-1.11819 0.45743,-1.15765 z"
   sodipodi:nodetypes="zccccccccccccccccccccccczcscccccccccccccccccccccccccccccccccccc"
   inkscape:transform-center-y="35.011539"
   inkscape:transform-center-x="-6.7576234" /><path
   id="path131"
   style="fill:url(#linearGradient132);stroke:#000000;stroke-opacity:0.5"
   d="m 209.35545,172.60675 c -8.716,0.43063 -10.82249,5.9711 -11.29363,7.94723 -0.38174,2.04992 -1.07157,18.72137 -1.68699,20.77848 -0.79527,2.66127 -1.04789,5.4865 -1.49887,8.24601 -0.0986,0.59796 -0.53095,1.30694 0.19289,1.79172 0.71419,0.47597 1.35953,0.0808 1.98381,-0.3063 0.64974,-0.40492 1.35414,-1.04418 2.08055,-0.26967 0.70654,0.74865 0.10247,1.45512 -0.34205,2.08748 -0.76697,1.09304 -0.88505,2.15976 0.0892,3.17913 0.94674,0.9903 1.95036,0.74245 3.00145,0.12387 1.03012,-0.60165 2.14891,-0.97779 3.35852,-0.6666 0.78027,0.20021 1.43786,0.66267 0.75666,1.51279 -1.14646,1.43224 -0.48666,3.39362 -1.56639,4.8506 -0.33233,0.44784 -0.0552,1.12842 0.29145,1.64624 0.72537,1.08647 1.53434,2.04817 2.69116,2.41705 -0.19919,0.002 -0.40637,0.0427 -0.61016,0.15788 -1.92747,1.09591 -3.76039,2.33755 -5.40388,3.82063 -0.75507,0.68395 -0.47025,2.97397 0.37852,3.76253 1.01581,0.94336 1.72281,0.19542 2.49733,-0.46703 1.69715,-1.44742 2.2037,-1.43574 3.96998,0.0142 0.53737,0.44228 1.15032,0.76169 1.78358,0.56294 1.17708,-0.37344 2.47259,-0.22981 3.57628,-0.87069 1.37458,-1.67688 1.79375,-3.74534 2.15612,-5.77122 1.82715,-10.2414 4.28221,-35.0878 6.03251,-45.34252 -0.21849,-2.98675 -3.72199,-9.63542 -12.438,-9.20479 z m -14.4046,43.92657 c -0.74018,-0.19245 -4.1958,1.76918 -5.20722,7.75184 -0.1462,0.86676 -0.17146,1.77252 -0.1152,2.65409 0.23816,3.77821 5.84089,2.02047 6.92542,1.23821 0.26206,-0.18911 0.52996,-0.37247 0.79294,-0.56025 0.90594,-0.64781 1.2193,-2.64731 0.7347,-3.31186 -0.49319,-0.6732 -0.33046,-1.22062 0.40289,-1.56948 0.14359,-0.0662 0.31441,-0.0773 0.46516,-0.13346 0.36541,-0.14066 0.39377,-0.38544 0.1484,-0.65022 -0.13122,-0.1462 -0.32616,-0.23186 -0.4906,-0.3487 -0.31879,-0.22172 -0.31634,-0.4441 0.01,-0.65241 0.17109,-0.10958 0.3605,-0.18516 0.52425,-0.30384 0.68894,-0.49047 0.68818,-0.92754 -0.0398,-1.38257 -1.03401,-0.6451 -2.12784,-0.72566 -3.24178,-0.20122 -0.25409,0.11944 -0.48349,0.34587 -0.74388,0.39251 -0.28116,0.0527 -0.7325,0.0548 -0.85308,-0.11023 -0.17419,-0.23625 -0.23099,-0.68831 -0.12251,-0.96282 0.13695,-0.35684 0.53182,-0.60559 0.73346,-0.94922 0.14146,-0.24239 0.30171,-0.68097 0.18811,-0.83362 -0.0234,-0.0316 -0.0619,-0.0542 -0.11127,-0.0669 z m 18.28631,21.77151 c -0.21768,-0.0237 -0.52662,0.0639 -0.95168,0.24139 -1.37818,0.57909 -2.72532,1.23787 -4.12094,1.77135 -4.40294,1.68166 -8.56447,1.27238 -12.34576,-1.65651 -1.22994,-0.95509 -2.35133,-2.05125 -3.51906,-3.08396 -0.34261,-0.30095 -0.63457,-0.70121 -1.02699,-0.87968 -0.22965,-0.10374 -0.77582,0.0455 -0.90391,0.25167 -0.30112,0.48974 -0.4556,1.07283 -0.63513,1.62832 -1.49204,4.64339 -2.98262,9.28627 -4.46104,13.93302 -0.59702,1.88067 -0.46628,3.74883 0.31305,5.53519 2.22573,5.09912 6.26093,7.98316 11.63518,9.35732 4.92951,0.34506 9.50211,-0.70056 13.22827,-4.29187 1.79846,-1.73332 2.82295,-3.84372 2.72692,-6.44535 -0.0514,-1.42471 0.12617,-2.85638 0.1759,-4.2849 0.12557,-3.64001 0.26255,-7.27749 0.3426,-10.91831 0.0169,-0.76713 -0.0946,-1.11819 -0.45743,-1.15765 z"
   sodipodi:nodetypes="zccccccccccccccccccccccczcscccccccccccccccccccccccccccccccccccc"
   inkscape:transform-center-y="35.011539"
   inkscape:transform-center-x="6.7576234" /></svg>
