<?xml version="1.0" encoding="UTF-8" standalone="no"?>
<!-- Created with Inkscape (http://www.inkscape.org/) -->

<svg
   width="237.02487"
   height="178.86871"
   viewBox="0 0 62.71283 47.32568"
   version="1.1"
   id="svg1517"
   inkscape:version="1.3 (0e150ed6c4, 2023-07-21)"
   sodipodi:docname="World.svg"
   xml:space="preserve"
   xmlns:inkscape="http://www.inkscape.org/namespaces/inkscape"
   xmlns:sodipodi="http://sodipodi.sourceforge.net/DTD/sodipodi-0.dtd"
   xmlns:xlink="http://www.w3.org/1999/xlink"
   xmlns="http://www.w3.org/2000/svg"
   xmlns:svg="http://www.w3.org/2000/svg"><sodipodi:namedview
     id="namedview1519"
     pagecolor="#505050"
     bordercolor="#eeeeee"
     borderopacity="1"
     inkscape:showpageshadow="0"
     inkscape:pageopacity="0"
     inkscape:pagecheckerboard="0"
     inkscape:deskcolor="#505050"
     inkscape:document-units="mm"
     showgrid="false"
     inkscape:zoom="3.3638608"
     inkscape:cx="115.78957"
     inkscape:cy="84.129522"
     inkscape:window-width="1280"
     inkscape:window-height="961"
     inkscape:window-x="-8"
     inkscape:window-y="-8"
     inkscape:window-maximized="1"
     inkscape:current-layer="svg1517" /><defs
     id="defs1514"><linearGradient
       inkscape:collect="always"
       id="linearGradient11014"><stop
         style="stop-color:#89cfe5;stop-opacity:1;"
         offset="0.15047021"
         id="stop11010" /><stop
         style="stop-color:#1bbdd3;stop-opacity:1;"
         offset="1"
         id="stop11012" /></linearGradient><linearGradient
       inkscape:collect="always"
       xlink:href="#linearGradient11014"
       id="linearGradient14617"
       x1="9.0540152"
       y1="4.3172889"
       x2="17.54493"
       y2="4.3172889"
       gradientUnits="userSpaceOnUse"
       gradientTransform="matrix(7.4466225,0,0,5.2836207,-67.677881,26.979972)" /></defs><g
     id="g4"
     inkscape:transform-center-x="2.8747587"
     inkscape:transform-center-y="-11.40827"
     transform="rotate(-14.757858,144.3133,-165.12246)"><ellipse
       style="fill:#d44117;fill-opacity:1;fill-rule:evenodd;stroke:none;stroke-width:0.247;stroke-linecap:round;stroke-linejoin:round;stroke-dasharray:none;stroke-opacity:1"
       id="ellipse3"
       cx="-25.024622"
       cy="-27.923529"
       rx="3.1092324"
       ry="2.9477139" /><path
       style="fill:#d44117;fill-opacity:1;fill-rule:evenodd;stroke:none;stroke-width:0.264583px;stroke-linecap:butt;stroke-linejoin:miter;stroke-opacity:1"
       d="m -27.529131,-16.635461 0.03933,9.5958688 1.533765,0.039327 V -16.79277 l 1.887711,0.03933 -0.03933,9.5565415 h 1.533766 l -0.07866,-9.5565415 1.966367,0.07866 c 0,0 -0.02336,-2.25353 -0.275291,-3.342823 -0.202961,-0.877557 -0.983184,-2.51695 -0.983184,-2.51695 0,0 1.347726,1.107006 1.850362,1.876194 0.476211,0.72875 1.020534,2.449813 1.020534,2.449813 l 1.297801,0.03933 c 0,0 -0.278056,-2.945115 -2.556276,-4.955244 -1.271399,-1.121786 -3.142841,-1.634716 -4.837262,-1.573093 -1.839155,0.06689 -3.764685,0.831265 -5.112552,2.084349 -1.16789,1.085763 -2.123678,4.286679 -2.123678,4.286679 l 1.415786,0.117982 c 0,0 0.55636,-2.069386 1.179819,-2.910223 0.471909,-0.636447 1.848384,-1.494438 1.848384,-1.494438 0,0 -0.921177,1.649366 -1.140491,2.556276 -0.280821,1.161256 -0.196639,3.578787 -0.196639,3.578787 z"
       id="path4"
       sodipodi:nodetypes="cccccccccscsccsssccscscc" /></g><g
     id="g5"
     inkscape:transform-center-x="-2.9579256"
     inkscape:transform-center-y="-11.436859"
     transform="rotate(14.88191,-136.65006,264.20429)"><ellipse
       style="fill:#6bb427;fill-opacity:1;fill-rule:evenodd;stroke:none;stroke-width:0.247;stroke-linecap:round;stroke-linejoin:round;stroke-dasharray:none;stroke-opacity:1"
       id="ellipse4"
       cx="-25.024622"
       cy="-27.923529"
       rx="3.1092324"
       ry="2.9477139" /><path
       style="fill:#6bb427;fill-opacity:1;fill-rule:evenodd;stroke:none;stroke-width:0.264583px;stroke-linecap:butt;stroke-linejoin:miter;stroke-opacity:1"
       d="m -27.529131,-16.635461 0.03933,9.5958688 1.533765,0.039327 V -16.79277 l 1.887711,0.03933 -0.03933,9.5565415 h 1.533766 l -0.07866,-9.5565415 1.966367,0.07866 c 0,0 -0.02336,-2.25353 -0.275291,-3.342823 -0.202961,-0.877557 -0.983184,-2.51695 -0.983184,-2.51695 0,0 1.347726,1.107006 1.850362,1.876194 0.476211,0.72875 1.020534,2.449813 1.020534,2.449813 l 1.297801,0.03933 c 0,0 -0.278056,-2.945115 -2.556276,-4.955244 -1.271399,-1.121786 -3.142841,-1.634716 -4.837262,-1.573093 -1.839155,0.06689 -3.764685,0.831265 -5.112552,2.084349 -1.16789,1.085763 -2.123678,4.286679 -2.123678,4.286679 l 1.415786,0.117982 c 0,0 0.55636,-2.069386 1.179819,-2.910223 0.471909,-0.636447 1.848384,-1.494438 1.848384,-1.494438 0,0 -0.921177,1.649366 -1.140491,2.556276 -0.280821,1.161256 -0.196639,3.578787 -0.196639,3.578787 z"
       id="path5"
       sodipodi:nodetypes="cccccccccscsccsssccscscc" /></g><g
     id="g3"
     transform="translate(55.833991,36.683551)"><ellipse
       style="fill:#f2a438;fill-opacity:1;fill-rule:evenodd;stroke:none;stroke-width:0.247;stroke-linecap:round;stroke-linejoin:round;stroke-dasharray:none;stroke-opacity:1"
       id="path2"
       cx="-25.024622"
       cy="-27.923529"
       rx="3.1092324"
       ry="2.9477139" /><path
       style="fill:#f2a438;fill-opacity:1;fill-rule:evenodd;stroke:none;stroke-width:0.265;stroke-linecap:butt;stroke-linejoin:miter;stroke-dasharray:none;stroke-opacity:1"
       d="m -27.529131,-16.635461 0.03933,9.5958688 1.533765,0.039327 V -16.79277 l 1.887711,0.03933 -0.03933,9.5565415 h 1.533766 l -0.07866,-9.5565415 1.966367,0.07866 c 0,0 -0.02336,-2.25353 -0.275291,-3.342823 -0.202961,-0.877557 -0.983184,-2.51695 -0.983184,-2.51695 0,0 1.347726,1.107006 1.850362,1.876194 0.476211,0.72875 1.020534,2.449813 1.020534,2.449813 l 1.297801,0.03933 c 0,0 -0.278056,-2.945115 -2.556276,-4.955244 -1.271399,-1.121786 -3.142841,-1.634716 -4.837262,-1.573093 -1.839155,0.06689 -3.764685,0.831265 -5.112552,2.084349 -1.16789,1.085763 -2.123678,4.286679 -2.123678,4.286679 l 1.415786,0.117982 c 0,0 0.55636,-2.069386 1.179819,-2.910223 0.471909,-0.636447 1.848384,-1.494438 1.848384,-1.494438 0,0 -0.921177,1.649366 -1.140491,2.556276 -0.280821,1.161256 -0.196639,3.578787 -0.196639,3.578787 z"
       id="path3"
       sodipodi:nodetypes="cccccccccscsccsssccscscc" /></g><path
     id="path1"
     style="font-variation-settings:normal;fill:none;fill-opacity:1;stroke:#003536;stroke-width:1.15075;stroke-linecap:butt;stroke-linejoin:miter;stroke-miterlimit:4;stroke-dasharray:none;stroke-dashoffset:0;stroke-opacity:1;stop-color:#000000"
     d="m 61.699924,46.626467 0.184671,6.16e-4 C 59.862206,35.752749 46.915433,27.477034 31.456512,27.475375 v 0 C 15.996023,27.475564 2.8699252,35.72215 0.84733102,46.597594 l 0.41935668,0.003"
     sodipodi:nodetypes="ccsscc" /><path
     id="path13421"
     style="font-variation-settings:normal;fill:url(#linearGradient14617);fill-opacity:1;stroke:none;stroke-width:0.855;stroke-linecap:butt;stroke-linejoin:miter;stroke-miterlimit:4;stroke-dasharray:none;stroke-dashoffset:0;stroke-opacity:1;stop-color:#000000"
     d="M 31.338726,27.701 C 15.851098,27.701191 2.8641441,36.281146 0.838,47.17568 l 61.026671,0.02747 C 59.838732,36.309724 46.824782,27.702662 31.338726,27.701 Z"
     sodipodi:nodetypes="cccc" /><path
     id="path13365"
     style="font-variation-settings:normal;vector-effect:none;fill:#196a99;fill-opacity:1;fill-rule:evenodd;stroke:#0e3b55;stroke-width:1.65962px;stroke-linecap:butt;stroke-linejoin:miter;stroke-miterlimit:4;stroke-dasharray:none;stroke-dashoffset:0;stroke-opacity:0.49789;-inkscape-stroke:none;stop-color:#000000"
     d="m 46.837641,44.916639 2.967778,1.579231 h 6.769095 L 53.774685,45.0634 Z" /><path
     id="path13367"
     style="font-variation-settings:normal;vector-effect:none;fill:#196a99;fill-opacity:1;fill-rule:evenodd;stroke:#0e3b55;stroke-width:1.65962px;stroke-linecap:butt;stroke-linejoin:miter;stroke-miterlimit:4;stroke-dasharray:none;stroke-dashoffset:0;stroke-opacity:0.49789;-inkscape-stroke:none;stop-color:#000000"
     d="m 22.29857,30.076718 -0.414445,1.322399 0.10387,0.4408 1.035079,1.542542 -0.103353,1.910478 -0.103353,2.203999 3.520199,1.542542 1.449524,2.498039 -1.7601,0.4408 -2.485119,0.734322 -2.588473,1.102258 -1.656746,2.130103 0.179317,0.55087 h 23.312272 l -0.402043,-1.211812 -1.035078,-1.39578 2.070674,-0.4408 1.656747,-1.175639 0.207222,-1.909961 -0.414445,-1.542542 1.242302,-1.396297 1.553393,1.469678 3.416846,1.175122 2.795695,-0.366903 0.827856,-1.028878 -1.966805,-1.249019 -2.071191,-2.130102 -3.312976,-2.424659 -4.245219,-1.909961 -1.863969,0.8816 -1.242302,2.057239 -4.866369,2.204 -4.452442,2.130103 -1.967321,-1.469161 -1.035079,-1.175639 0.103353,-1.469161 -0.931726,-1.836581 -2.277898,-2.130619 z" /></svg>
