<?xml version="1.0" encoding="UTF-8" standalone="no"?>
<!-- Created with Inkscape (http://www.inkscape.org/) -->

<svg
   width="17.715681mm"
   height="17.615414mm"
   viewBox="0 0 17.715681 17.615414"
   version="1.1"
   id="svg1"
   xml:space="preserve"
   inkscape:version="1.3 (0e150ed6c4, 2023-07-21)"
   sodipodi:docname="LR4Direction.svg"
   xmlns:inkscape="http://www.inkscape.org/namespaces/inkscape"
   xmlns:sodipodi="http://sodipodi.sourceforge.net/DTD/sodipodi-0.dtd"
   xmlns:xlink="http://www.w3.org/1999/xlink"
   xmlns="http://www.w3.org/2000/svg"
   xmlns:svg="http://www.w3.org/2000/svg"><sodipodi:namedview
     id="namedview1"
     pagecolor="#505050"
     bordercolor="#eeeeee"
     borderopacity="1"
     inkscape:showpageshadow="0"
     inkscape:pageopacity="0"
     inkscape:pagecheckerboard="0"
     inkscape:deskcolor="#d1d1d1"
     inkscape:document-units="mm"
     inkscape:zoom="0.70710678"
     inkscape:cx="999.849"
     inkscape:cy="60.811184"
     inkscape:window-width="1280"
     inkscape:window-height="961"
     inkscape:window-x="-8"
     inkscape:window-y="-8"
     inkscape:window-maximized="1"
     inkscape:current-layer="layer2"
     showgrid="false" /><defs
     id="defs1"><linearGradient
       id="linearGradient809"
       inkscape:collect="always"><stop
         style="stop-color:#fbc544;stop-opacity:1;"
         offset="0"
         id="stop807" /><stop
         style="stop-color:#fab005;stop-opacity:1;"
         offset="0.48672566"
         id="stop808" /><stop
         style="stop-color:#c58b05;stop-opacity:1;"
         offset="1"
         id="stop809" /></linearGradient><linearGradient
       inkscape:collect="always"
       xlink:href="#linearGradient809"
       id="linearGradient998"
       gradientUnits="userSpaceOnUse"
       x1="155.86366"
       y1="245.21452"
       x2="163.04498"
       y2="245.21452" /><linearGradient
       inkscape:collect="always"
       xlink:href="#linearGradient809"
       id="linearGradient999"
       gradientUnits="userSpaceOnUse"
       x1="155.50446"
       y1="235.15305"
       x2="163.12447"
       y2="235.15305" /></defs><g
     inkscape:groupmode="layer"
     id="layer2"
     inkscape:label="Layer 2"
     transform="translate(-248.20438,-118.45581)"><g
       id="g995"
       transform="rotate(-30,317.87522,59.092486)"><g
         id="g989"
         transform="matrix(0.58321403,0.5954289,-0.5954289,0.58321403,276.07719,-147.38378)"><path
           style="fill:url(#linearGradient998);fill-rule:evenodd;stroke:#1a1a1a;stroke-width:0.282222px;stroke-linecap:butt;stroke-linejoin:miter;stroke-opacity:1"
           d="m 158.04445,243.47861 h 2.75166 l 2.00446,3.47181 h -6.6964 z"
           id="path988" /><path
           style="fill:url(#linearGradient999);fill-rule:evenodd;stroke:#1a1a1a;stroke-width:0.282222px;stroke-linecap:butt;stroke-linejoin:miter;stroke-opacity:1"
           d="m 155.64556,243.86666 h 7.33777 V 232.225 c 0,0 0.0373,-5.78556 -3.66888,-5.78556 -3.35345,0 -3.66889,5.78556 -3.66889,5.78556 z"
           id="path989"
           sodipodi:nodetypes="cccscc" /></g><path
         style="fill:#2492cc;fill-opacity:1;fill-rule:evenodd;stroke:#1a1a1a;stroke-width:0.264583px;stroke-linecap:butt;stroke-linejoin:miter;stroke-opacity:1"
         d="m 229.39071,88.638209 c 0,0 -2.56547,-0.2 -3.39189,-1.046833 -0.83668,-0.857353 -0.97572,-3.458866 -0.97572,-3.458866 l 0.68569,-0.717119 c 0,0 0.12464,2.615812 0.97573,3.458866 0.82711,0.819302 3.37025,0.916323 3.37025,0.916323 z"
         id="path990"
         sodipodi:nodetypes="caccacc" /><path
         style="fill:#2492cc;fill-opacity:1;fill-rule:evenodd;stroke:#1a1a1a;stroke-width:0.264583px;stroke-linecap:butt;stroke-linejoin:miter;stroke-opacity:1"
         d="m 229.34732,88.680029 c 0,0 1.9373,3.709656 3.68726,4.60872 1.42574,0.732491 4.80189,0.255584 4.80189,0.255584 l 0.39873,-0.748355 c 0,0 -3.23143,0.453079 -4.58364,-0.263633 -1.74384,-0.924288 -3.59967,-4.701054 -3.59967,-4.701054 z"
         id="path991"
         sodipodi:nodetypes="caccacc" /><path
         style="fill:#2492cc;fill-opacity:1;fill-rule:evenodd;stroke:#1a1a1a;stroke-width:0.264583px;stroke-linecap:butt;stroke-linejoin:miter;stroke-opacity:1"
         d="m 231.20972,87.017636 c 0,0 -2.56547,-0.2 -3.39189,-1.046833 -0.83668,-0.857353 -0.97572,-3.458866 -0.97572,-3.458866 l 0.68569,-0.717119 c 0,0 0.12668,2.613763 0.97573,3.458866 0.80042,0.796699 3.26501,0.90463 3.26501,0.90463 z"
         id="path992"
         sodipodi:nodetypes="caccacc" /><path
         style="fill:#2492cc;fill-opacity:1;fill-rule:evenodd;stroke:#1a1a1a;stroke-width:0.264583px;stroke-linecap:butt;stroke-linejoin:miter;stroke-opacity:1"
         d="m 231.32533,86.863369 c 0,0 1.44386,3.334953 2.91552,4.187771 1.34742,0.780822 4.65395,0.409599 4.65395,0.409599 l 0.22389,-0.610388 c 0,0 -3.02704,0.171849 -4.26086,-0.555615 -1.47649,-0.870546 -3.0501,-4.139789 -3.0501,-4.139789 z"
         id="path993"
         sodipodi:nodetypes="caccacc" /><path
         style="fill:#ffba00;fill-opacity:1;fill-rule:evenodd;stroke:#000000;stroke-width:0.264583px;stroke-linecap:butt;stroke-linejoin:miter;stroke-opacity:1"
         d="m 236.63672,90.38828 -0.59532,1.488281 h 1.65365 l 0.49609,-1.455208 z"
         id="path994"
         sodipodi:nodetypes="ccccc" /><path
         style="fill:#ffba00;fill-opacity:1;fill-rule:evenodd;stroke:#000000;stroke-width:0.264583px;stroke-linecap:butt;stroke-linejoin:miter;stroke-opacity:1"
         d="m 235.42064,92.693815 -0.59532,1.488281 h 1.65365 l 0.49609,-1.455208 z"
         id="path995"
         sodipodi:nodetypes="ccccc" /></g></g></svg>
