<?xml version="1.0" encoding="UTF-8" standalone="no"?>
<!-- Created with Inkscape (http://www.inkscape.org/) -->

<svg
   width="13.807878mm"
   height="12.492122mm"
   viewBox="0 0 13.807878 12.492122"
   version="1.1"
   id="svg1"
   xml:space="preserve"
   inkscape:version="1.3.2 (091e20ef0f, 2023-11-25)"
   sodipodi:docname="LR4Direction.svg"
   xmlns:inkscape="http://www.inkscape.org/namespaces/inkscape"
   xmlns:sodipodi="http://sodipodi.sourceforge.net/DTD/sodipodi-0.dtd"
   xmlns:xlink="http://www.w3.org/1999/xlink"
   xmlns="http://www.w3.org/2000/svg"
   xmlns:svg="http://www.w3.org/2000/svg"><sodipodi:namedview
     id="namedview1"
     pagecolor="#505050"
     bordercolor="#eeeeee"
     borderopacity="1"
     inkscape:showpageshadow="0"
     inkscape:pageopacity="0"
     inkscape:pagecheckerboard="0"
     inkscape:deskcolor="#d1d1d1"
     inkscape:document-units="mm"
     inkscape:zoom="0.7071068"
     inkscape:cx="222.03152"
     inkscape:cy="558.61434"
     inkscape:window-width="1366"
     inkscape:window-height="706"
     inkscape:window-x="-8"
     inkscape:window-y="-8"
     inkscape:window-maximized="1"
     inkscape:current-layer="layer2"
     showgrid="false" /><defs
     id="defs1"><inkscape:path-effect
       effect="bspline"
       id="path-effect1589"
       is_visible="true"
       lpeversion="1.3"
       weight="33.333333"
       steps="2"
       helper_size="0"
       apply_no_weight="true"
       apply_with_weight="true"
       only_selected="false"
       uniform="false" /><inkscape:path-effect
       effect="bspline"
       id="path-effect1587"
       is_visible="true"
       lpeversion="1.3"
       weight="33.333333"
       steps="2"
       helper_size="0"
       apply_no_weight="true"
       apply_with_weight="true"
       only_selected="false"
       uniform="false" /><inkscape:path-effect
       effect="bspline"
       id="path-effect1585"
       is_visible="true"
       lpeversion="1.3"
       weight="33.333333"
       steps="2"
       helper_size="0"
       apply_no_weight="true"
       apply_with_weight="true"
       only_selected="false"
       uniform="false" /><inkscape:path-effect
       effect="bspline"
       id="path-effect1577"
       is_visible="true"
       lpeversion="1.3"
       weight="33.333333"
       steps="2"
       helper_size="0"
       apply_no_weight="true"
       apply_with_weight="true"
       only_selected="false"
       uniform="false" /><inkscape:path-effect
       effect="bspline"
       id="path-effect1575"
       is_visible="true"
       lpeversion="1.3"
       weight="33.333333"
       steps="2"
       helper_size="0"
       apply_no_weight="true"
       apply_with_weight="true"
       only_selected="false"
       uniform="false" /><linearGradient
       id="linearGradient21"
       inkscape:collect="always"><stop
         style="stop-color:#fd4878;stop-opacity:1;"
         offset="0"
         id="stop21" /><stop
         style="stop-color:#f8438c;stop-opacity:0.147651;"
         offset="1"
         id="stop22" /></linearGradient><radialGradient
       inkscape:collect="always"
       xlink:href="#linearGradient21"
       id="radialGradient1599"
       gradientUnits="userSpaceOnUse"
       gradientTransform="translate(-30.087021,-120.14748)"
       cx="102.06926"
       cy="153.20184"
       fx="102.06926"
       fy="153.20184"
       r="1.2734169" /><radialGradient
       inkscape:collect="always"
       xlink:href="#linearGradient21"
       id="radialGradient1600"
       gradientUnits="userSpaceOnUse"
       gradientTransform="translate(-21.964981,-120.56306)"
       cx="102.06926"
       cy="153.20184"
       fx="102.06926"
       fy="153.20184"
       r="1.2734169" /></defs><g
     inkscape:groupmode="layer"
     id="layer2"
     inkscape:label="Layer 2"
     transform="translate(-43.536546,-30.507785)"><g
       id="g1605"
       transform="translate(-24.882792,5.9868373)"><path
         style="display:inline;fill:#f9ab99;fill-opacity:1;fill-rule:evenodd;stroke:none;stroke-width:0.264583px;stroke-linecap:butt;stroke-linejoin:miter;stroke-opacity:1"
         d="m 92.1548,143.93808 c -0.0069,-0.1425 -0.01231,-0.25571 0.108089,-0.3728 0.120397,-0.11709 0.370767,-0.15217 0.507494,0.0612 0.136726,0.21335 0.159812,0.6751 0.102089,1.02143 -0.05772,0.34633 -0.196251,0.57721 -0.342133,0.70585 -0.145883,0.12864 -0.299097,0.15504 -0.380218,0.11548 -0.08112,-0.0396 -0.09013,-0.14509 -0.0849,-0.28228 0.0052,-0.13718 0.01579,-0.22863 0.04269,-0.50523 0.0269,-0.27661 0.02882,-0.29981 0.04128,-0.45045 0.01246,-0.15064 0.01246,-0.15067 0.0056,-0.29317 z"
         id="path1558"
         inkscape:path-effect="#path-effect1575"
         inkscape:original-d="m 92.161659,144.08058 c -0.01372,-0.285 -0.01916,-0.39821 -0.02875,-0.59731 0.250374,-0.0351 0.500742,-0.0702 0.751113,-0.10524 0.0231,0.46177 0.04617,0.92352 0.06926,1.38529 -0.138533,0.23089 -0.277061,0.46177 -0.415589,0.69265 -0.153237,0.0264 -0.306451,0.0528 -0.459679,0.0792 -0.009,-0.10553 -0.01803,-0.21105 -0.02704,-0.31657 0.01949,-0.16885 0.03004,-0.2603 0.05846,-0.50654 0.02538,-0.30697 0.0273,-0.33017 0.05222,-0.63145 z"
         transform="translate(-10.674827,-113.49806)"
         sodipodi:nodetypes="scccccccs" /><path
         style="fill:#d6866b;fill-opacity:1;fill-rule:evenodd;stroke:#d5856a;stroke-width:0.165;stroke-linecap:butt;stroke-linejoin:miter;stroke-dasharray:none;stroke-opacity:1"
         d="m 101.79988,144.75321 c 0.0245,-0.0735 0.1714,-0.0245 0.30202,0.0898 0.13062,0.11429 0.2449,0.29387 0.30204,0.44081 0.0571,0.14693 0.0571,0.26121 -0.0245,0.24488 -0.0816,-0.0163 -0.24489,-0.16326 -0.37549,-0.33467 -0.1306,-0.17141 -0.22857,-0.36734 -0.20408,-0.44081 z"
         id="path1559"
         inkscape:path-effect="#path-effect1577"
         inkscape:original-d="m 101.67744,144.63077 c 0.14693,0.049 0.29386,0.0979 0.4408,0.14693 0.11428,0.17959 0.22856,0.35917 0.34284,0.53876 0,0.11428 0,0.22856 0,0.34284 -0.16326,-0.14694 -0.32652,-0.29387 -0.48978,-0.4408 -0.0979,-0.19591 -0.19591,-0.39182 -0.29386,-0.58773 z"
         transform="rotate(47.886458,220.2271,65.063427)" /><path
         id="path1560"
         style="display:inline;fill:#fdc1a6;fill-opacity:1;fill-rule:evenodd;stroke:none;stroke-width:0.264583px;stroke-linecap:butt;stroke-linejoin:miter;stroke-opacity:1"
         d="m 105.59015,137.25713 c -0.20753,4.5e-4 -0.41469,0.005 -0.6196,0.014 -0.81965,0.0346 -1.60446,0.12696 -2.25671,0.37517 -0.65225,0.2482 -1.17184,0.65254 -1.52394,1.10277 -0.3521,0.45023 -0.53668,0.94639 -0.75603,1.47743 -0.21934,0.53104 -0.473476,1.09693 -0.635099,1.65106 -0.161623,0.55413 -0.230799,1.0967 -0.311609,1.59887 -0.08081,0.50218 -0.173204,0.96363 -0.167432,1.44849 0.0058,0.48486 0.109865,0.9931 0.22531,1.4087 0.115443,0.4156 0.242137,0.73838 0.426847,1.01544 0.184713,0.27706 0.427233,0.50838 0.606163,0.65268 0.17893,0.1443 0.29471,0.20161 0.35243,0.23047 0.0577,0.0289 0.0574,0.0289 0.42685,0.20206 0.36941,0.17316 1.10808,0.51962 1.88154,0.7736 0.77346,0.25397 1.58197,0.41537 2.28617,0.4904 0.7042,0.0751 1.30425,0.0637 1.8526,-0.0114 0.54835,-0.075 1.04484,-0.21345 1.55856,-0.45011 0.51372,-0.23665 1.04485,-0.5716 1.52394,-0.97565 0.47908,-0.40404 0.90623,-0.87733 1.22369,-1.36219 0.31747,-0.48486 0.52526,-0.98126 0.64648,-1.56424 0.12121,-0.58299 0.15589,-1.25265 0.1328,-1.86449 -0.0231,-0.61184 -0.10425,-1.16582 -0.28318,-1.77767 -0.17894,-0.61184 -0.45575,-1.28106 -0.90021,-1.89291 -0.44445,-0.61184 -1.0566,-1.16631 -1.71462,-1.57613 -0.65802,-0.40982 -1.36224,-0.67528 -2.14147,-0.81959 -0.58443,-0.10821 -1.21091,-0.1481 -1.83348,-0.14676 z m 4.99918,4.91857 c 0.093,-0.002 0.18494,0.004 0.27802,0.0191 0.2482,0.0404 0.50215,0.14412 0.69298,0.26871 0.19083,0.1246 0.31837,0.27013 0.45113,0.44907 0.13277,0.17894 0.2707,0.39133 0.29921,0.56689 0.0285,0.17557 -0.0519,0.31409 -0.15245,0.44959 -0.10051,0.13549 -0.22107,0.26795 -0.36742,0.40514 -0.14634,0.13719 -0.31868,0.27892 -0.51831,0.39739 -0.19964,0.11848 -0.42642,0.21397 -0.65526,0.26149 -0.22884,0.0475 -0.45973,0.0471 -0.71003,-0.0677 -0.25031,-0.1148 -0.52016,-0.34401 -0.70487,-0.59221 -0.18471,-0.2482 -0.2845,-0.51515 -0.33435,-0.64854 -0.0498,-0.1334 -0.0496,-0.13347 -0.015,-0.22583 0.0346,-0.0924 0.10376,-0.2771 0.1788,-0.43873 0.075,-0.16163 0.15584,-0.30029 0.34055,-0.43305 0.1847,-0.13275 0.47345,-0.2593 0.73897,-0.33435 0.16595,-0.0469 0.32305,-0.0735 0.47801,-0.077 z m -5.81515,0.27388 c 0.1746,0.003 0.34614,0.0215 0.50488,0.0532 0.31746,0.0635 0.58336,0.17873 0.82579,0.42116 0.24243,0.24243 0.46162,0.61194 0.51934,0.91209 0.0577,0.30015 -0.0463,0.53109 -0.23099,0.74466 -0.1847,0.21357 -0.44993,0.40984 -0.76739,0.5426 -0.31747,0.13276 -0.68703,0.20189 -1.0449,0.1788 -0.35788,-0.0231 -0.70409,-0.13843 -1.02733,-0.34623 -0.32324,-0.2078 -0.62345,-0.50796 -0.77928,-0.6811 -0.15584,-0.17313 -0.16735,-0.21926 -0.17312,-0.24236 -0.006,-0.0231 -0.006,-0.0234 0.0289,-0.11575 0.0346,-0.0924 0.10367,-0.27659 0.21911,-0.47284 0.11544,-0.19626 0.27701,-0.40406 0.51366,-0.57723 0.23666,-0.17317 0.54829,-0.31167 0.88884,-0.37517 0.17028,-0.0318 0.34784,-0.0447 0.52245,-0.0419 z"
         transform="translate(-30.900134,-112.73615)" /><path
         id="circle1560"
         style="display:inline;opacity:0.657258;fill:url(#radialGradient1599);stroke:none;stroke-width:0.165;stroke-linecap:round;stroke-linejoin:round;stroke-dasharray:none;stroke-opacity:1"
         d="m 71.98217,31.781006 a 1.2734169,1.2734169 0 0 0 -1.273308,1.273307 1.2734169,1.2734169 0 0 0 1.273308,1.273307 1.2734169,1.2734169 0 0 0 1.273307,-1.273307 1.2734169,1.2734169 0 0 0 -0.157613,-0.612882 c -0.152014,-0.0559 -0.300534,-0.129195 -0.444418,-0.221692 -0.196127,-0.126082 -0.383323,-0.285904 -0.535367,-0.430982 a 1.2734169,1.2734169 0 0 0 -0.135909,-0.0078 z" /><path
         id="circle1561"
         style="opacity:0.657258;fill:url(#radialGradient1600);stroke:none;stroke-width:0.165;stroke-linecap:round;stroke-linejoin:round;stroke-dasharray:none;stroke-opacity:1"
         d="m 80.864832,31.621326 c -0.140885,0.129887 -0.304077,0.262332 -0.492477,0.374137 -0.199635,0.118473 -0.426419,0.213967 -0.655257,0.261483 -0.228838,0.04752 -0.459731,0.04711 -0.710034,-0.0677 -0.02515,-0.01154 -0.05052,-0.025 -0.07596,-0.03876 a 1.2734169,1.2734169 0 0 0 -0.100252,0.488343 1.2734169,1.2734169 0 0 0 1.273307,1.273307 1.2734169,1.2734169 0 0 0 1.273308,-1.273307 1.2734169,1.2734169 0 0 0 -0.51263,-1.017509 z" /><path
         style="fill:#000000;fill-opacity:1;fill-rule:evenodd;stroke:none;stroke-width:0.165;stroke-linecap:butt;stroke-linejoin:miter;stroke-dasharray:none;stroke-opacity:1"
         d="m 80.855054,144.34774 c -0.01154,-0.0173 -0.03466,-0.052 -0.06062,-0.13855 -0.02597,-0.0866 -0.05483,-0.2251 0.0058,-0.38961 0.06061,-0.1645 0.210678,-0.35497 0.404046,-0.51371 0.193368,-0.15873 0.430015,-0.28571 0.663793,-0.37518 0.233778,-0.0895 0.464644,-0.14141 0.712847,-0.1544 0.248203,-0.013 0.513709,0.013 0.77634,0.10099 0.262632,0.088 0.522369,0.23809 0.699862,0.38672 0.177493,0.14864 0.27273,0.29583 0.34488,0.43147 0.07215,0.13565 0.12121,0.25974 0.03174,0.21789 -0.08947,-0.0419 -0.317453,-0.24963 -0.536797,-0.40981 -0.219344,-0.16018 -0.430016,-0.27273 -0.636368,-0.35787 -0.206351,-0.0851 -0.408375,-0.14286 -0.633487,-0.14286 -0.225111,0 -0.473308,0.0577 -0.67821,0.1241 -0.204902,0.0664 -0.366535,0.14141 -0.49063,0.21933 -0.124096,0.0779 -0.210682,0.15874 -0.285719,0.27129 -0.07504,0.11256 -0.138527,0.25686 -0.187591,0.38674 -0.04906,0.12987 -0.08369,0.24531 -0.101011,0.30303 -0.01732,0.0577 -0.01731,0.0577 -0.02885,0.0404 z"
         id="path1565"
         inkscape:path-effect="#path-effect1585"
         inkscape:original-d="m 80.866593,144.36505 c -0.0231,-0.0346 -0.04618,-0.0693 -0.06927,-0.1039 -0.02886,-0.13853 -0.05772,-0.27706 -0.08658,-0.41559 0.150077,-0.19048 0.300149,-0.38095 0.450221,-0.57143 0.236661,-0.12699 0.47331,-0.25397 0.709964,-0.38096 0.230889,-0.052 0.461767,-0.10389 0.692647,-0.15584 0.265522,0.026 0.531024,0.052 0.796546,0.0779 0.25975,0.15007 0.519484,0.30014 0.779229,0.45021 0.09524,0.1472 0.190477,0.29439 0.285716,0.44158 0.04906,0.1241 0.09812,0.24819 0.147187,0.37229 -0.228002,-0.2078 -0.455987,-0.41558 -0.683989,-0.62338 -0.210685,-0.11256 -0.421358,-0.22511 -0.632041,-0.33767 -0.202025,-0.0577 -0.404043,-0.11544 -0.606065,-0.17316 -0.248206,0.0577 -0.496398,0.11544 -0.744596,0.17316 -0.161621,0.075 -0.323236,0.15008 -0.484854,0.22511 -0.08658,0.0808 -0.173162,0.16162 -0.259744,0.24243 -0.06349,0.1443 -0.126985,0.2886 -0.190477,0.43291 -0.03463,0.11544 -0.06927,0.23088 -0.103896,0.34632 z"
         transform="translate(-8.914654,-113.1464)"
         sodipodi:nodetypes="sccccccccccccccccss" /><path
         style="fill:#000000;fill-opacity:1;fill-rule:evenodd;stroke:none;stroke-width:0.165;stroke-linecap:butt;stroke-linejoin:miter;stroke-dasharray:none;stroke-opacity:1"
         d="m 80.855054,144.34774 c -0.01154,-0.0173 -0.03466,-0.052 -0.06062,-0.13855 -0.02597,-0.0866 -0.05483,-0.2251 0.0058,-0.38961 0.06061,-0.1645 0.210678,-0.35497 0.404046,-0.51371 0.193368,-0.15873 0.430015,-0.28571 0.663793,-0.37518 0.233778,-0.0895 0.464644,-0.14141 0.709959,-0.14718 0.245315,-0.006 0.505051,0.0346 0.721506,0.12121 0.216455,0.0866 0.389617,0.21934 0.510829,0.35209 0.121213,0.13276 0.190475,0.26552 0.245309,0.39539 0.05483,0.12987 0.09524,0.25686 0.02886,0.23088 -0.06638,-0.026 -0.23954,-0.20491 -0.395386,-0.35787 -0.155847,-0.15296 -0.294371,-0.27994 -0.464647,-0.3723 -0.170275,-0.0923 -0.372299,-0.15007 -0.597411,-0.15007 -0.225111,0 -0.473308,0.0577 -0.67821,0.1241 -0.204902,0.0664 -0.366535,0.14141 -0.49063,0.21933 -0.124096,0.0779 -0.210682,0.15874 -0.285719,0.27129 -0.07504,0.11256 -0.138527,0.25686 -0.187591,0.38674 -0.04906,0.12987 -0.08369,0.24531 -0.101011,0.30303 -0.01732,0.0577 -0.01731,0.0577 -0.02885,0.0404 z"
         id="path1566"
         inkscape:path-effect="#path-effect1587"
         inkscape:original-d="m 80.866593,144.36505 c -0.0231,-0.0346 -0.04618,-0.0693 -0.06927,-0.1039 -0.02886,-0.13853 -0.05772,-0.27706 -0.08658,-0.41559 0.150077,-0.19048 0.300149,-0.38095 0.450221,-0.57143 0.236661,-0.12699 0.47331,-0.25397 0.709964,-0.38096 0.230889,-0.052 0.461767,-0.10389 0.692647,-0.15584 0.25975,0.0404 0.519486,0.0808 0.77923,0.12121 0.173165,0.13276 0.346324,0.26552 0.519486,0.39827 0.06927,0.13276 0.138527,0.26552 0.207793,0.39828 0.0404,0.12698 0.08081,0.25397 0.121213,0.38095 -0.173164,-0.17894 -0.346323,-0.35787 -0.519485,-0.5368 -0.138533,-0.12699 -0.277059,-0.25397 -0.415589,-0.38096 -0.202025,-0.0577 -0.404043,-0.11544 -0.606065,-0.17316 -0.248206,0.0577 -0.496398,0.11544 -0.744596,0.17316 -0.161621,0.075 -0.323236,0.15008 -0.484854,0.22511 -0.08658,0.0808 -0.173162,0.16162 -0.259744,0.24243 -0.06349,0.1443 -0.126985,0.2886 -0.190477,0.43291 -0.03463,0.11544 -0.06927,0.23088 -0.103896,0.34632 z"
         transform="translate(-2.864786,-113.43126)" /><path
         style="fill:none;fill-rule:evenodd;stroke:#e2836a;stroke-width:0.565;stroke-linecap:butt;stroke-linejoin:miter;stroke-dasharray:none;stroke-opacity:0.633803"
         d="m 87.55064,145.17891 c 0.115448,0.0462 0.145832,0.0583 0.315741,0.19745 0.169909,0.13912 0.111713,0.0564 0.194145,0.26709 0.08243,0.21069 0.08246,0.21173 0.06542,0.29327 -0.01704,0.0815 -0.05376,0.14671 -0.08366,0.19084 -0.0299,0.0441 -0.05301,0.0673 -0.09839,0.12315 -0.04538,0.0559 -0.08077,0.1023 -0.172509,0.20041 -0.09174,0.0981 -0.06569,0.074 -0.185067,0.0904 -0.119377,0.0165 -0.12569,0.009 -0.149981,-0.007 -0.02429,-0.0163 -0.02429,0.007 -0.02514,0.0181 -8.49e-4,0.0113 -0.01923,0.006 -0.08911,-0.0118 -0.06988,-0.0175 -0.112464,-0.0277 -0.157011,-0.0416 -0.04455,-0.0139 -0.12079,-0.0655 -0.169567,-0.12406 -0.04878,-0.0585 -0.124606,-0.17236 -0.206859,-0.29581"
         id="path1567"
         inkscape:path-effect="#path-effect1589"
         inkscape:original-d="m 87.55064,145.17891 c 0.11544,0.0462 0.145845,0.0583 0.346323,0.13853 0.139328,0.19804 0.08113,0.11532 0.240691,0.34212 0.0053,0.19458 0.0054,0.19562 0.008,0.2935 -0.03675,0.0652 -0.07346,0.13037 -0.1102,0.19556 -0.08637,-0.0402 -0.04617,0.0462 -0.06927,0.0693 -0.06765,0.0887 -0.103055,0.13509 -0.171068,0.22424 -0.115459,0.10707 -0.08943,0.0829 -0.23736,0.22011 -0.09081,-0.10424 -0.09712,-0.11149 -0.145704,-0.16726 0,0.0231 0,0.0462 0,0.0693 -0.0017,-5.1e-4 -0.02011,-0.006 -0.04057,-0.0123 -0.119252,-0.0288 -0.161856,-0.039 -0.236486,-0.057 -0.01432,-0.01 -0.09071,-0.0614 -0.126286,-0.0855 -0.06199,-0.093 -0.137802,-0.20682 -0.220054,-0.33027"
         transform="translate(-10.605563,-113.29027)"
         sodipodi:nodetypes="ccscccccccsccc" /></g></g></svg>
