<?xml version="1.0" encoding="UTF-8" standalone="no"?>
<!-- Created with Inkscape (http://www.inkscape.org/) -->

<svg
   width="15.209908mm"
   height="15.473529mm"
   viewBox="0 0 15.209908 15.473529"
   version="1.1"
   id="svg1"
   xml:space="preserve"
   inkscape:version="1.3.2 (091e20ef0f, 2023-11-25)"
   sodipodi:docname="LR4Direction.svg"
   xmlns:inkscape="http://www.inkscape.org/namespaces/inkscape"
   xmlns:sodipodi="http://sodipodi.sourceforge.net/DTD/sodipodi-0.dtd"
   xmlns:xlink="http://www.w3.org/1999/xlink"
   xmlns="http://www.w3.org/2000/svg"
   xmlns:svg="http://www.w3.org/2000/svg"><sodipodi:namedview
     id="namedview1"
     pagecolor="#505050"
     bordercolor="#eeeeee"
     borderopacity="1"
     inkscape:showpageshadow="0"
     inkscape:pageopacity="0"
     inkscape:pagecheckerboard="0"
     inkscape:deskcolor="#d1d1d1"
     inkscape:document-units="mm"
     inkscape:zoom="0.7071068"
     inkscape:cx="222.03152"
     inkscape:cy="558.61434"
     inkscape:window-width="1366"
     inkscape:window-height="706"
     inkscape:window-x="-8"
     inkscape:window-y="-8"
     inkscape:window-maximized="1"
     inkscape:current-layer="layer2"
     showgrid="false" /><defs
     id="defs1"><inkscape:path-effect
       effect="lattice2"
       gridpoint0="78.90468,134.84624"
       gridpoint1="93.85438,134.84624"
       gridpoint2="78.90468,149.96761"
       gridpoint3="93.85438,149.96761"
       gridpoint4="82.642105,134.84624"
       gridpoint5="90.116955,134.84624"
       gridpoint6="86.412417,149.96761"
       gridpoint7="90.116955,149.96761"
       gridpoint8x9="86.37953,134.84624"
       gridpoint10x11="86.37953,149.96761"
       gridpoint12="78.90468,138.62658"
       gridpoint13="93.85438,138.62658"
       gridpoint14="78.90468,146.18727"
       gridpoint15="93.85438,146.18727"
       gridpoint16="82.642105,138.62658"
       gridpoint17="90.116955,138.62658"
       gridpoint18="85.221792,144.63284"
       gridpoint19="90.116955,146.18727"
       gridpoint20x21="86.37953,138.62658"
       gridpoint22x23="86.37953,146.18727"
       gridpoint24x26="78.90468,142.40693"
       gridpoint25x27="93.85438,142.40693"
       gridpoint28x30="82.642105,142.40693"
       gridpoint29x31="90.116955,142.40693"
       gridpoint32x33x34x35="86.37953,142.40693"
       id="path-effect1595"
       is_visible="true"
       lpeversion="1"
       horizontal_mirror="false"
       vertical_mirror="false"
       perimetral="false"
       live_update="true" /><inkscape:path-effect
       effect="bspline"
       id="path-effect1593"
       is_visible="true"
       lpeversion="1.3"
       weight="33.333333"
       steps="2"
       helper_size="0"
       apply_no_weight="true"
       apply_with_weight="true"
       only_selected="false"
       uniform="false" /><linearGradient
       id="linearGradient31"
       inkscape:collect="always"><stop
         style="stop-color:#a53b05;stop-opacity:1;"
         offset="0"
         id="stop31" /><stop
         style="stop-color:#762101;stop-opacity:1;"
         offset="0.45423728"
         id="stop32" /></linearGradient><linearGradient
       inkscape:collect="always"
       xlink:href="#linearGradient31"
       id="linearGradient1602"
       gradientUnits="userSpaceOnUse"
       x1="85.76815"
       y1="134.78792"
       x2="85.882812"
       y2="149.88763" /></defs><g
     inkscape:groupmode="layer"
     id="layer2"
     inkscape:label="Layer 2"
     transform="translate(-26.568352,-17.210647)"><path
       style="display:inline;fill:url(#linearGradient1602);fill-rule:evenodd;stroke:#651900;stroke-width:0.264583px;stroke-linecap:butt;stroke-linejoin:miter;stroke-opacity:1"
       d="m 84.086028,149.9628 c -0.294021,-0.0369 -0.91274,-0.11329 -1.409176,-0.36539 -0.495978,-0.25187 -0.848506,-0.67541 -1.236132,-1.07033 0.03198,0.45249 0.04913,1.38819 0.04913,1.38819 -0.547651,-0.42057 -1.241478,-0.84173 -1.690971,-1.43133 -0.467066,-0.61264 -0.689287,-1.40898 -0.800907,-2.11681 -0.110486,-0.70064 -0.107408,-1.26865 -0.04873,-1.92023 0.05905,-0.65569 0.171766,-1.35716 0.386302,-2.05098 0.206715,-0.66852 0.516635,-1.34937 0.789413,-1.89338 0.290097,-0.57856 0.553053,-1.02304 0.987603,-1.5767 0.399309,-0.50877 0.972106,-1.14646 1.437014,-1.59123 0.497242,-0.4757 0.973422,-0.83509 1.486651,-1.1861 0.509045,-0.34814 1.039375,-0.67719 1.602511,-0.90821 0.56163,-0.23041 1.145532,-0.35844 1.772001,-0.38754 0.625978,-0.0291 1.291461,0.0408 1.927811,0.19143 0.637008,0.15083 1.242387,0.3819 1.785269,0.65984 0.543078,0.27804 1.021939,0.602 1.409027,0.9734 0.386412,0.37075 0.681524,0.78921 0.891866,1.1888 0.210479,0.39984 0.336921,0.78242 0.394456,1.182 0.05767,0.40055 0.04596,0.81615 -0.0459,1.19399 -0.09132,0.37559 -0.262493,0.7148 -0.420485,1.00793 -0.160262,0.29734 -0.305666,0.54478 -0.425177,0.79407 -0.117552,0.24521 -0.207603,0.48832 -0.289323,0.70394 -0.07724,0.20382 -0.162333,0.42357 -0.203515,0.52971 -0.04642,0.11964 -0.06426,0.16434 -0.120173,0.21999 -0.05575,0.0555 -0.147052,0.12004 -0.202356,0.0887 -0.05528,-0.0313 -0.07654,-0.15919 -0.148413,-0.31208 -0.07196,-0.15307 -0.194237,-0.33185 -0.268002,-0.51355 -0.07379,-0.18176 -0.09928,-0.36613 -0.129324,-0.53935 -0.03007,-0.17339 -0.06476,-0.33475 -0.170871,-0.3691 -0.105704,-0.0342 -0.280153,0.0586 -0.50245,0.10044 -0.222943,0.0419 -0.492537,0.0326 -0.704238,0.0102 -0.210443,-0.0222 -0.365862,-0.0574 -0.509231,-0.0912 -0.143883,-0.0339 -0.278909,-0.067 -0.275705,-0.1549 0.0032,-0.0885 0.145401,-0.23078 0.259923,-0.35067 0.114324,-0.11969 0.196908,-0.21341 0.26698,-0.32079 0.06978,-0.10692 0.126582,-0.22656 0.17034,-0.35278 0.04372,-0.12609 0.07468,-0.25949 0.07762,-0.39953 0.0029,-0.14028 -0.02223,-0.28746 -0.101745,-0.28537 -0.0792,0.002 -0.211193,0.15325 -0.371505,0.34509 -0.159362,0.19071 -0.349938,0.4255 -0.590944,0.62244 -0.242577,0.19822 -0.540105,0.36228 -0.839544,0.47803 -0.299506,0.11577 -0.600478,0.18324 -0.973234,0.2461 -0.368783,0.0622 -0.829469,0.12326 -1.251087,0.16019 -0.423279,0.0371 -0.80926,0.0498 -1.112101,0.0813 -0.30502,0.0317 -0.521418,0.0817 -0.460273,-0.0954 0.06101,-0.17675 0.378134,-0.57388 0.560733,-0.86022 0.180042,-0.28233 0.253327,-0.47105 0.287194,-0.63864 0.03464,-0.17144 0.03085,-0.33125 -0.08709,-0.26816 -0.115774,0.0619 -0.359501,0.35335 -0.571877,0.61814 -0.210225,0.2621 -0.396924,0.51222 -0.633979,0.73357 -0.2416,0.2256 -0.554001,0.43673 -0.761673,0.66946 -0.212483,0.23813 -0.298291,0.47995 -0.444553,0.74228 -0.142019,0.25472 -0.342267,0.52348 -0.577542,0.85985 -0.224626,0.32115 -0.532719,0.77375 -0.698367,1.09754 -0.176448,0.34489 -0.224943,0.59927 -0.220981,0.92764 0.0039,0.3239 0.05834,0.71576 0.160297,1.05605 0.10216,0.34095 0.253205,0.63329 0.408834,0.90708 0.154618,0.27201 0.317315,0.53186 0.477899,0.75029 0.163221,0.22202 0.325072,0.40225 0.526157,0.5738 0.195954,0.16718 0.433554,0.32976 0.629582,0.44069 0.200385,0.1134 0.373997,0.18175 0.510466,0.26465 0.13728,0.0834 0.234059,0.18052 0.28317,0.23051 0.04933,0.0502 0.04848,0.0489 -0.24067,0.0126 z"
       id="path1569"
       inkscape:path-effect="#path-effect1593;#path-effect1595"
       inkscape:original-d="m 82.32115,149.95818 c -0.467149,-0.0586 -0.934304,-0.11727 -1.401456,-0.1759 -0.235673,-0.38454 -0.70702,-1.1536 -0.70702,-1.1536 0,0 0.06653,0.84459 0.0998,1.26688 0,0 -0.741198,-0.7703 -1.111808,-1.15546 -0.102708,-0.84078 -0.205412,-1.68152 -0.308118,-2.52228 0,-0.57722 0,-1.15441 0,-1.73162 0.05772,-0.7042 0.115441,-1.40838 0.173162,-2.11257 0.196252,-0.6234 0.392499,-1.24677 0.588751,-1.87015 0.24243,-0.47332 0.484851,-0.94662 0.727279,-1.41993 0.565673,-0.60031 1.131323,-1.20059 1.696987,-1.80088 0.565671,-0.38097 1.131324,-0.76191 1.696984,-1.14287 0.600308,-0.33479 1.20059,-0.66956 1.800884,-1.00434 0.600308,-0.12699 1.200589,-0.25397 1.800884,-0.38095 0.658029,0.0693 1.316029,0.13852 1.974046,0.20779 0.600305,0.23089 1.200589,0.46176 1.800883,0.69265 0.484863,0.32324 0.969706,0.64647 1.45456,0.9697 0.300152,0.4156 0.600292,0.83118 0.900441,1.24677 0.126987,0.38096 0.253971,0.76191 0.380955,1.14287 -0.01154,0.41559 -0.0231,0.83117 -0.03463,1.24676 -0.173165,0.33479 -0.346324,0.66956 -0.519486,1.00434 -0.161621,0.25398 -0.323236,0.50794 -0.484854,0.76191 -0.103899,0.24244 -0.207793,0.48486 -0.31169,0.72728 -0.09235,0.19626 -0.184705,0.3925 -0.277058,0.58875 -0.0231,0.0462 -0.04618,0.0924 -0.06927,0.13853 -0.115443,0.0693 -0.230883,0.13853 -0.346323,0.2078 -0.0231,-0.12699 -0.04618,-0.25397 -0.06927,-0.38096 -0.150076,-0.17317 -0.300148,-0.34632 -0.45022,-0.51948 -0.0231,-0.18472 -0.04618,-0.36942 -0.06927,-0.55412 -0.03463,-0.16162 -0.06927,-0.32324 -0.103897,-0.48486 -0.230888,0.1039 -0.461766,0.2078 -0.692647,0.31169 -0.369419,0.0115 -0.738825,0.0231 -1.108236,0.0346 -0.207799,-0.0231 -0.415589,-0.0462 -0.623383,-0.0693 -0.178912,-0.0231 -0.357864,-0.0462 -0.536804,-0.0693 0.225117,-0.16163 0.45022,-0.32324 0.675332,-0.48486 0.12699,-0.10389 0.253971,-0.20779 0.380958,-0.31169 0.09235,-0.12699 0.184706,-0.25397 0.277058,-0.38095 0.05772,-0.13853 0.115441,-0.27706 0.173162,-0.41559 -0.01154,-0.15008 -0.0231,-0.30015 -0.03463,-0.45022 -0.184708,0.16162 -0.369411,0.32323 -0.554117,0.48485 -0.288607,0.25398 -0.577207,0.50794 -0.865809,0.76191 -0.438684,0.19626 -0.877353,0.3925 -1.316029,0.58875 -0.404054,0.0924 -0.808091,0.18471 -1.212133,0.27706 -0.53104,0.0808 -1.062062,0.16162 -1.593091,0.24243 -0.369419,0.0115 -0.738822,0.0231 -1.108236,0.0346 -0.196224,0.0462 -0.392495,0.0924 -0.58875,0.13854 0.380967,-0.4156 0.761913,-0.83118 1.142869,-1.24677 0.126987,-0.19626 0.253971,-0.3925 0.380955,-0.58876 0.04618,-0.17316 0.09235,-0.34632 0.138531,-0.51948 -0.323242,0.3117 -0.646473,0.62338 -0.969706,0.93507 -0.219345,0.25398 -0.438677,0.50795 -0.658016,0.76192 -0.28861,0.20779 -0.577207,0.41559 -0.865809,0.62338 -0.102111,0.25397 -0.204216,0.50793 -0.306329,0.76191 -0.161625,0.25398 -0.323234,0.50794 -0.484854,0.76191 -0.196254,0.39251 -0.392499,0.785 -0.588751,1.17751 -0.03463,0.25397 -0.06926,0.50793 -0.103897,0.76191 0.02465,0.38493 0.0493,0.76981 0.07394,1.15473 0.08788,0.28777 0.175761,0.57553 0.263642,0.8633 0.104417,0.24378 0.208833,0.48756 0.31325,0.73134 0.116047,0.16869 0.232094,0.33738 0.348141,0.50607 0.173167,0.13853 0.346324,0.27706 0.519486,0.41559 0.138533,0.0577 0.277061,0.11544 0.415589,0.17316 0.09235,0.0808 0.184705,0.16162 0.277058,0.24243 z"
       transform="translate(-52.20851,-117.50334)"
       sodipodi:nodetypes="cccccccccccccccccccccccccccccccccccccccccccccccccccccccccccccccc" /></g></svg>
