<?xml version="1.0" encoding="UTF-8" standalone="no"?>
<!-- Created with Inkscape (http://www.inkscape.org/) -->

<svg
   width="21.046356mm"
   height="37.449604mm"
   viewBox="0 0 21.046356 37.449604"
   version="1.1"
   id="svg1"
   xml:space="preserve"
   inkscape:version="1.3.2 (091e20ef0f, 2023-11-25)"
   sodipodi:docname="LR4Direction.svg"
   xmlns:inkscape="http://www.inkscape.org/namespaces/inkscape"
   xmlns:sodipodi="http://sodipodi.sourceforge.net/DTD/sodipodi-0.dtd"
   xmlns:xlink="http://www.w3.org/1999/xlink"
   xmlns="http://www.w3.org/2000/svg"
   xmlns:svg="http://www.w3.org/2000/svg"><sodipodi:namedview
     id="namedview1"
     pagecolor="#505050"
     bordercolor="#eeeeee"
     borderopacity="1"
     inkscape:showpageshadow="0"
     inkscape:pageopacity="0"
     inkscape:pagecheckerboard="0"
     inkscape:deskcolor="#d1d1d1"
     inkscape:document-units="mm"
     inkscape:zoom="0.7071068"
     inkscape:cx="231.93102"
     inkscape:cy="468.10468"
     inkscape:window-width="1366"
     inkscape:window-height="706"
     inkscape:window-x="-8"
     inkscape:window-y="-8"
     inkscape:window-maximized="1"
     inkscape:current-layer="layer2"
     showgrid="false" /><defs
     id="defs1"><inkscape:path-effect
       effect="perspective-envelope"
       up_left_point="104.47521,150.19716"
       up_right_point="108.22569,150.66018"
       down_left_point="104.47521,152.99758"
       down_right_point="108.0934,152.50149"
       id="path-effect935"
       is_visible="true"
       lpeversion="1"
       deform_type="perspective"
       horizontal_mirror="false"
       vertical_mirror="false"
       overflow_perspective="false" /><inkscape:path-effect
       effect="bspline"
       id="path-effect933"
       is_visible="true"
       lpeversion="1.3"
       weight="33.333333"
       steps="2"
       helper_size="0"
       apply_no_weight="true"
       apply_with_weight="true"
       only_selected="false"
       uniform="false" /><inkscape:path-effect
       effect="bspline"
       id="path-effect931"
       is_visible="true"
       lpeversion="1.3"
       weight="33.333333"
       steps="2"
       helper_size="0"
       apply_no_weight="true"
       apply_with_weight="true"
       only_selected="false"
       uniform="false" /><inkscape:path-effect
       effect="lattice2"
       gridpoint0="184.43973,112.16978"
       gridpoint1="206.13048,112.16978"
       gridpoint2="184.43973,149.35443"
       gridpoint3="206.99038,149.35443"
       gridpoint4="190.07739,112.16978"
       gridpoint5="201.35272,112.16978"
       gridpoint6="190.07739,149.35443"
       gridpoint7="201.35272,149.35443"
       gridpoint8x9="195.71506,112.16978"
       gridpoint10x11="195.71506,149.35443"
       gridpoint12="184.43973,121.46594"
       gridpoint13="204.87371,121.46594"
       gridpoint14="184.43973,140.05827"
       gridpoint15="206.99038,140.05827"
       gridpoint16="190.07739,121.46594"
       gridpoint17="201.35272,121.46594"
       gridpoint18="190.07739,140.05827"
       gridpoint19="201.35272,140.05827"
       gridpoint20x21="195.71506,121.46594"
       gridpoint22x23="195.71506,140.05827"
       gridpoint24x26="184.43973,130.7621"
       gridpoint25x27="206.99038,130.36522"
       gridpoint28x30="190.07739,130.7621"
       gridpoint29x31="201.35272,130.7621"
       gridpoint32x33x34x35="195.71506,130.7621"
       id="path-effect929"
       is_visible="true"
       lpeversion="1"
       horizontal_mirror="false"
       vertical_mirror="false"
       perimetral="false"
       live_update="true" /><inkscape:path-effect
       effect="lattice2"
       gridpoint0="184.77165,112.16978"
       gridpoint1="206.10049,112.16978"
       gridpoint2="183.64717,149.35451"
       gridpoint3="206.10049,149.35451"
       gridpoint4="189.2605,112.16978"
       gridpoint5="201.67779,112.16978"
       gridpoint6="189.2605,149.35451"
       gridpoint7="200.48716,149.35451"
       gridpoint8x9="194.87383,112.16978"
       gridpoint10x11="194.87383,149.35451"
       gridpoint12="186.293,121.46596"
       gridpoint13="207.62185,121.46596"
       gridpoint14="183.64717,140.05832"
       gridpoint15="206.10049,140.05832"
       gridpoint16="189.2605,121.46596"
       gridpoint17="200.48716,121.46596"
       gridpoint18="189.2605,140.05832"
       gridpoint19="200.48716,140.05832"
       gridpoint20x21="194.87383,121.46596"
       gridpoint22x23="194.87383,140.05832"
       gridpoint24x26="183.64717,130.76214"
       gridpoint25x27="206.10049,130.76214"
       gridpoint28x30="189.2605,130.76214"
       gridpoint29x31="200.48716,130.76214"
       gridpoint32x33x34x35="194.87383,130.76214"
       id="path-effect927"
       is_visible="true"
       lpeversion="1"
       horizontal_mirror="false"
       vertical_mirror="false"
       perimetral="false"
       live_update="true" /><inkscape:path-effect
       effect="offset"
       id="path-effect925"
       is_visible="true"
       lpeversion="1.2"
       linejoin_type="miter"
       unit="mm"
       offset="0"
       miter_limit="4"
       attempt_force_join="false"
       update_on_knot_move="true" /><linearGradient
       id="linearGradient901"
       inkscape:collect="always"><stop
         style="stop-color:#df6c69;stop-opacity:1;"
         offset="0"
         id="stop897" /><stop
         style="stop-color:#fa0002;stop-opacity:1;"
         offset="0.48695481"
         id="stop898" /><stop
         style="stop-color:#c30003;stop-opacity:1;"
         offset="0.63988721"
         id="stop899" /><stop
         style="stop-color:#fa0002;stop-opacity:1;"
         offset="0.69627148"
         id="stop900" /><stop
         style="stop-color:#cf0001;stop-opacity:1;"
         offset="1"
         id="stop901" /></linearGradient><linearGradient
       inkscape:collect="always"
       xlink:href="#linearGradient901"
       id="linearGradient968"
       gradientUnits="userSpaceOnUse"
       gradientTransform="translate(92.018292,-51.639422)"
       x1="101.68382"
       y1="163.89191"
       x2="101.34676"
       y2="200.28378" /></defs><g
     inkscape:groupmode="layer"
     id="layer2"
     inkscape:label="Layer 2"
     transform="translate(-87.583025,-5.0334013)"><g
       id="g871"
       transform="translate(-96.724839,-107.00409)"
       inkscape:export-filename="..\Binary\Data\Sprites\LR4Direction\RightView\rHood.svg"
       inkscape:export-xdpi="96"
       inkscape:export-ydpi="96"><path
         id="path868"
         style="display:inline;fill:url(#linearGradient968);fill-rule:evenodd;stroke:#7d220e;stroke-width:0.264583px;stroke-linecap:butt;stroke-linejoin:miter;stroke-opacity:1"
         d="m 194.54639,112.17042 c -0.13454,-0.005 -0.26134,0.0197 -0.38054,0.0605 -0.23853,0.0816 -0.44563,0.22862 -0.60867,0.4161 -0.16314,0.18758 -0.28147,0.41481 -0.42024,0.76461 -0.14021,0.35339 -0.29662,0.81665 -0.51098,1.23393 -0.21213,0.41297 -0.47712,0.77104 -0.81729,1.21635 -0.34442,0.45086 -0.75363,0.9761 -1.20182,1.55749 -0.44596,0.5785 -0.91484,1.19208 -1.38995,1.79711 -0.47567,0.60576 -0.94598,1.18812 -1.33855,1.76325 -0.3897,0.57093 -0.69892,1.12989 -0.96101,1.65243 -0.26337,0.52508 -0.47909,1.01378 -0.65998,1.54702 -0.18074,0.53276 -0.32465,1.10411 -0.41774,1.77485 -0.0922,0.66575 -0.13588,1.44175 -0.12882,2.17155 0.007,0.73368 0.0664,1.43507 0.18225,2.03653 0.11606,0.6023 0.28912,1.10405 0.52261,1.53305 0.23328,0.42862 0.52619,0.7828 0.88306,1.12793 0.35702,0.34528 0.77701,0.68065 1.22903,0.9677 0.45171,0.28686 0.93406,0.52435 1.41601,0.70486 0.48181,0.18045 0.96299,0.30367 1.32323,0.41269 0.17972,0.0544 0.32916,0.10507 0.43983,0.15452 -0.009,0.0102 -0.0116,0.0151 -0.0233,0.027 -0.14068,0.14205 -0.27673,0.32507 -0.52602,0.56744 -0.24845,0.24156 -0.61266,0.54479 -0.92728,0.90208 -0.31533,0.3581 -0.5832,0.77262 -0.87374,1.16269 -0.29034,0.3898 -0.60417,0.75611 -0.86847,1.16949 -0.26449,0.41368 -0.47975,0.87562 -0.69538,1.41925 -0.21647,0.54576 -0.43056,1.1662 -0.63086,1.71074 -0.19953,0.54244 -0.38326,1.00198 -0.572,1.43695 -0.18853,0.43447 -0.38258,0.84537 -0.56082,1.17272 -0.17851,0.32783 -0.3418,0.57345 -0.52511,0.76193 -0.18331,0.18848 -0.38632,0.31976 -0.57913,0.41824 -0.19273,0.0984 -0.37552,0.16379 -0.44716,0.26191 -0.0717,0.0982 -0.0322,0.22897 0.0404,0.35135 0.0722,0.12179 0.17876,0.23693 0.33646,0.43219 0.15851,0.19622 0.36911,0.4726 0.64457,0.66074 0.27481,0.1877 0.61201,0.28599 0.92015,0.31038 0.30826,0.0244 0.58711,-0.025 0.83283,-0.0579 0.24572,-0.033 0.45843,-0.0491 0.62702,0.008 0.16859,0.0571 0.29329,0.18776 0.45038,0.34308 0.15709,0.15532 1.0301,0.44588 1.60328,0.76356 0.6544,0.36269 3.0661,0.63693 3.22753,0.35132 0.19259,-0.34074 -0.81623,-1.47256 -0.5653,-2.52402 0.12756,-0.53447 0.15555,-1.67773 0.28904,-2.23111 0.13351,-0.55339 0.0835,-1.21643 0.11295,-1.60208 0.0448,-0.5877 0.17198,-1.34329 0.24784,-2.04305 0.0556,-0.51292 0.23498,-1.07715 0.59958,-1.51992 0.36453,-0.44269 0.65333,-0.84338 0.9795,-1.25327 0.32616,-0.40991 0.68901,-0.82908 0.96933,-1.20565 0.2408,-0.32346 1.04277,-1.18357 1.5305,-1.30944 0.5826,-0.15036 1.07097,-0.1029 1.57458,-0.36197 0.10532,-0.0542 0.53639,-0.17746 0.91049,-0.37606 0.62784,-0.28989 1.13788,-0.41939 1.38963,-0.64608 0.25768,-0.23203 0.581,-0.39047 0.90128,-0.68542 0.32001,-0.29469 0.67159,-0.66483 1.04672,-1.10811 0.37686,-0.44532 0.77285,-0.95943 1.09573,-1.62242 0.32261,-0.66244 0.56734,-1.46357 0.73062,-2.27808 0.16267,-0.81144 0.24469,-1.63846 0.24912,-2.27785 0.004,-0.64163 -0.0694,-1.10305 -0.19706,-1.66711 -0.1269,-0.56063 -0.30863,-1.23159 -0.51342,-1.77281 -0.20609,-0.54464 -0.4393,-0.96909 -0.73678,-1.43319 -0.29722,-0.4637 -0.65869,-0.96718 -1.06554,-1.46273 -0.40816,-0.49716 -0.8592,-0.98305 -1.32597,-1.44267 -0.46532,-0.4582 -0.94171,-0.88577 -1.4239,-1.35499 -0.47667,-0.46386 -0.97612,-0.98549 -1.40727,-1.44522 -0.43047,-0.459 -0.82311,-0.88948 -1.24488,-1.29518 -0.42804,-0.41175 -0.90623,-0.81726 -1.30875,-1.1829 -0.40264,-0.36574 -0.7277,-0.69173 -1.02622,-0.84688 -0.14914,-0.0776 -0.29162,-0.11219 -0.42617,-0.11728 1.5e-4,3e-5 5.6e-4,1.3e-4 5.6e-4,1.3e-4 0,0 0,0 0,0 z"
         sodipodi:nodetypes="scssssssssscssssssscsssssssssscssssscssssssssssssscssssscssssssssssss"
         inkscape:path-effect="#path-effect925;#path-effect927;#path-effect929"
         inkscape:original-d="m 193.79755,112.17042 c -0.13775,-0.005 -0.27035,0.0197 -0.39688,0.0605 -0.25305,0.0816 -0.48146,0.22877 -0.66921,0.41652 -0.18774,0.18773 -0.33459,0.41586 -0.51418,0.76687 -0.17959,0.35101 -0.39197,0.82444 -0.65319,1.24075 -0.26122,0.41632 -0.57154,0.77577 -0.97152,1.22474 -0.39999,0.44896 -0.88937,0.98777 -1.4118,1.56734 -0.52242,0.57958 -1.07789,1.19997 -1.63297,1.80403 -0.55507,0.60406 -1.11022,1.19179 -1.56735,1.7632 -0.45713,0.57141 -0.81625,1.12655 -1.11828,1.64899 -0.30202,0.52243 -0.54668,1.01194 -0.74259,1.54254 -0.19592,0.53059 -0.34301,1.10211 -0.41651,1.77147 -0.0733,0.66937 -0.073,1.43678 -0.008,2.17144 0.0653,0.73467 0.19569,1.43664 0.38344,2.04071 0.18775,0.60406 0.43281,1.1099 0.73484,1.54254 0.30203,0.43264 0.66124,0.79207 1.08572,1.14308 0.42447,0.35101 0.91408,0.69367 1.42834,0.98754 0.51427,0.29387 1.05329,0.53882 1.58388,0.72657 0.53059,0.18775 1.05304,0.31825 1.44487,0.43253 0.19547,0.057 0.35822,0.1098 0.47956,0.16071 -0.009,0.01 -0.0112,0.0148 -0.0227,0.0264 -0.13876,0.13876 -0.26929,0.31828 -0.51418,0.555 -0.24489,0.23673 -0.60386,0.53059 -0.90589,0.8816 -0.30203,0.35101 -0.5471,0.75891 -0.81648,1.14257 -0.26937,0.38366 -0.56322,0.7432 -0.79995,1.15135 -0.23673,0.40815 -0.41615,0.8653 -0.58757,1.40405 -0.17142,0.53876 -0.33479,1.15881 -0.48989,1.69757 -0.15509,0.53876 -0.30223,0.9957 -0.45733,1.42834 -0.1551,0.43264 -0.31826,0.84085 -0.47336,1.16737 -0.1551,0.32652 -0.30194,0.57137 -0.47336,0.75912 -0.17143,0.18775 -0.36725,0.31852 -0.555,0.41652 -0.18775,0.098 -0.36775,0.16296 -0.43305,0.26096 -0.0653,0.098 -0.016,0.22895 0.0656,0.3514 0.0816,0.12244 0.196,0.23661 0.36742,0.43253 0.17143,0.19591 0.40003,0.47319 0.68574,0.66094 0.2857,0.18775 0.62825,0.28608 0.93845,0.31058 0.31019,0.0245 0.58762,-0.0247 0.83251,-0.0574 0.24489,-0.0328 0.45748,-0.0488 0.6289,0.008 0.17143,0.0571 0.30183,0.18751 0.46509,0.34261 0.16326,0.15509 1.04754,0.44529 1.62986,0.76267 0.66463,0.36224 3.08191,0.63681 3.23701,0.3511 0.18489,-0.3406 -0.85599,-1.47025 -0.64724,-2.51406 0.10612,-0.53059 0.0802,-1.66335 0.18629,-2.21026 0.10612,-0.54692 0.0183,-1.20216 0.0258,-1.58287 0.0114,-0.58019 0.0953,-1.32506 0.12931,-2.0149 0.0249,-0.50556 0.17344,-1.06083 0.52445,-1.49347 0.35101,-0.43264 0.62836,-0.82424 0.94672,-1.22422 0.31835,-0.39999 0.67795,-0.8083 0.95549,-1.17564 0.23949,-0.31697 1.0474,-1.15066 1.57249,-1.26849 0.62031,-0.1392 1.14968,-0.0847 1.69096,-0.33199 0.1132,-0.0517 0.57994,-0.1663 0.98774,-0.35594 0.68565,-0.27563 1.25431,-0.39443 1.53573,-0.61386 0.28789,-0.22447 0.65276,-0.37523 1.02009,-0.66094 0.36734,-0.2857 0.77577,-0.64482 1.22473,-1.07746 0.44897,-0.43264 0.93864,-0.93911 1.35496,-1.59215 0.41631,-0.65304 0.75918,-1.45281 1.00407,-2.26911 0.24489,-0.8163 0.39156,-1.64915 0.42426,-2.30218 0.0326,-0.65305 -0.049,-1.12627 -0.20412,-1.70584 -0.15509,-0.57957 -0.38329,-1.26507 -0.65267,-1.82832 -0.26938,-0.56324 -0.5797,-1.00408 -0.97152,-1.48569 -0.39182,-0.48162 -0.86507,-1.00399 -1.38751,-1.51826 -0.52243,-0.51426 -1.09412,-1.02051 -1.66553,-1.49396 -0.57141,-0.47346 -1.14259,-0.91416 -1.70584,-1.39578 -0.56325,-0.48162 -1.11828,-1.00397 -1.5999,-1.47743 -0.48162,-0.47345 -0.88997,-0.89782 -1.33894,-1.31413 -0.44896,-0.41632 -0.93843,-0.82484 -1.33842,-1.19218 -0.39999,-0.36733 -0.7102,-0.69395 -1.00407,-0.84904 -0.14694,-0.0776 -0.29013,-0.11222 -0.42788,-0.11731 z" /><g
         id="g870"
         transform="translate(90.757391,-15.467593)"
         inkscape:path-effect="#path-effect935"><path
           style="fill:none;fill-rule:evenodd;stroke:#faf6f6;stroke-width:0.264583px;stroke-linecap:butt;stroke-linejoin:miter;stroke-opacity:1"
           d="m 107.64896,152.68259 c 0.11544,0.0231 0.34631,0.0693 0.55122,0.0721 0.20492,0.003 0.38386,-0.0375 0.51951,-0.12699 0.13565,-0.0895 0.22798,-0.22799 0.25685,-0.39827 0.0289,-0.17027 -0.006,-0.37231 -0.1039,-0.56278 -0.0981,-0.19047 -0.25975,-0.36941 -0.44157,-0.52526 -0.18182,-0.15584 -0.38384,-0.28859 -0.58009,-0.40981 -0.19625,-0.12121 -0.38672,-0.23088 -0.53968,-0.31457 -0.15296,-0.0837 -0.26841,-0.14142 -0.36078,-0.18184 -0.0924,-0.0404 -0.1616,-0.0635 -0.18468,0.009 -0.0231,0.0721 2e-5,0.23953 0.0202,0.40692 0.0202,0.1674 0.0375,0.33478 0.0375,0.49063 0,0.15585 -0.0173,0.30015 0.006,0.43002 0.0231,0.12987 0.0866,0.24531 0.14143,0.37808 0.0548,0.13276 0.101,0.28278 0.17894,0.39248 0.0779,0.10969 0.18758,0.17894 0.25686,0.22513 0.0693,0.0462 0.0981,0.0693 0.11255,0.0808 0.0144,0.0116 0.0144,0.0116 0.12982,0.0346 z"
           id="path869"
           inkscape:path-effect="#path-effect931"
           inkscape:original-d="m 107.53352,152.6595 c 0.23088,0.0462 0.46176,0.0923 0.69265,0.13853 0.17893,-0.0404 0.35787,-0.0808 0.5368,-0.12121 0.0924,-0.13853 0.1847,-0.27706 0.27706,-0.41559 -0.0346,-0.20203 -0.0693,-0.40405 -0.1039,-0.60607 -0.16162,-0.17893 -0.32324,-0.35787 -0.48485,-0.5368 -0.20203,-0.13276 -0.40405,-0.26551 -0.60607,-0.39827 -0.19048,-0.10967 -0.38095,-0.21934 -0.57143,-0.32901 -0.11545,-0.0577 -0.23089,-0.11544 -0.34633,-0.17316 -0.0693,-0.0231 -0.13853,-0.0462 -0.20779,-0.0693 0.0231,0.16739 0.0462,0.33477 0.0693,0.50216 0.0173,0.1674 0.0346,0.33478 0.0519,0.50217 -0.0173,0.14431 -0.0346,0.28861 -0.0519,0.43291 0.0635,0.11544 0.12699,0.23088 0.19048,0.34632 0.0462,0.15009 0.0923,0.30013 0.13854,0.45022 0.10968,0.0693 0.21933,0.13853 0.329,0.2078 0.0289,0.0231 0.0577,0.0462 0.0866,0.0693 z"
           sodipodi:nodetypes="cccccccccccccccccc" /><path
           style="fill:none;fill-rule:evenodd;stroke:#faf6f6;stroke-width:0.264583px;stroke-linecap:butt;stroke-linejoin:miter;stroke-opacity:1"
           d="m 106.58402,151.6263 c -0.0491,0.14429 -0.14719,0.43291 -0.3319,0.69265 -0.18471,0.25975 -0.45599,0.49063 -0.69265,0.6003 -0.23665,0.10968 -0.43867,0.0981 -0.60895,0.003 -0.17028,-0.0952 -0.3088,-0.27417 -0.3925,-0.45888 -0.0837,-0.1847 -0.11256,-0.37517 -0.0462,-0.57142 0.0664,-0.19626 0.22799,-0.39827 0.41847,-0.55989 0.19048,-0.16162 0.40982,-0.28284 0.60894,-0.38961 0.19913,-0.10678 0.37808,-0.19915 0.52528,-0.29151 0.1472,-0.0924 0.26262,-0.18469 0.35208,-0.24818 0.0895,-0.0635 0.15298,-0.0981 0.19916,-0.0289 0.0462,0.0693 0.075,0.24242 0.0837,0.3925 0.009,0.15008 -0.003,0.27706 -0.0173,0.39251 -0.0144,0.11544 -0.0317,0.21933 -0.0404,0.27128 -0.009,0.052 -0.009,0.0519 -0.0578,0.19622 z"
           id="path870"
           inkscape:path-effect="#path-effect933"
           inkscape:original-d="m 106.63308,151.482 c -0.0981,0.2886 -0.19625,0.57721 -0.29438,0.86581 -0.27129,0.23089 -0.54257,0.46177 -0.81386,0.69265 -0.20202,-0.0115 -0.40404,-0.0231 -0.60606,-0.0346 -0.13854,-0.17894 -0.27707,-0.35787 -0.41559,-0.53681 -0.0289,-0.19048 -0.0577,-0.38095 -0.0866,-0.57143 0.16163,-0.20203 0.32324,-0.40404 0.48486,-0.60607 0.21934,-0.12121 0.43868,-0.24242 0.65802,-0.36364 0.17893,-0.0923 0.35786,-0.1847 0.53679,-0.27706 0.11545,-0.0924 0.23089,-0.1847 0.34633,-0.27705 0.0635,-0.0346 0.12699,-0.0693 0.19048,-0.1039 0.0289,0.17316 0.0577,0.34632 0.0866,0.51948 -0.0115,0.12699 -0.0231,0.25397 -0.0346,0.38096 -0.0173,0.1039 -0.0346,0.20779 -0.0519,0.31169 z" /></g></g></g></svg>
