<?xml version="1.0" encoding="UTF-8" standalone="no"?>
<!-- Created with Inkscape (http://www.inkscape.org/) -->

<svg
   width="12.374503mm"
   height="14.711114mm"
   viewBox="0 0 12.374503 14.711114"
   version="1.1"
   id="svg1"
   xml:space="preserve"
   inkscape:version="1.3.2 (091e20ef0f, 2023-11-25)"
   sodipodi:docname="LR4Direction.svg"
   xmlns:inkscape="http://www.inkscape.org/namespaces/inkscape"
   xmlns:sodipodi="http://sodipodi.sourceforge.net/DTD/sodipodi-0.dtd"
   xmlns:xlink="http://www.w3.org/1999/xlink"
   xmlns="http://www.w3.org/2000/svg"
   xmlns:svg="http://www.w3.org/2000/svg"><sodipodi:namedview
     id="namedview1"
     pagecolor="#505050"
     bordercolor="#eeeeee"
     borderopacity="1"
     inkscape:showpageshadow="0"
     inkscape:pageopacity="0"
     inkscape:pagecheckerboard="0"
     inkscape:deskcolor="#d1d1d1"
     inkscape:document-units="mm"
     inkscape:zoom="0.7071068"
     inkscape:cx="222.03152"
     inkscape:cy="558.61434"
     inkscape:window-width="1366"
     inkscape:window-height="706"
     inkscape:window-x="-8"
     inkscape:window-y="-8"
     inkscape:window-maximized="1"
     inkscape:current-layer="layer2"
     showgrid="false" /><defs
     id="defs1"><linearGradient
       id="linearGradient20"
       inkscape:collect="always"><stop
         style="stop-color:#ce0003;stop-opacity:1;"
         offset="0"
         id="stop20" /><stop
         style="stop-color:#f84a47;stop-opacity:1;"
         offset="0.16756757"
         id="stop24" /><stop
         style="stop-color:#ce0808;stop-opacity:1;"
         offset="1"
         id="stop23" /></linearGradient><linearGradient
       inkscape:collect="always"
       xlink:href="#linearGradient20"
       id="linearGradient963"
       gradientUnits="userSpaceOnUse"
       gradientTransform="translate(-15.707956,-172.21709)"
       x1="119.85658"
       y1="201.23041"
       x2="120.94621"
       y2="214.3907" /></defs><g
     inkscape:groupmode="layer"
     id="layer2"
     inkscape:label="Layer 2"
     transform="translate(-97.019671,-27.945968)"><path
       id="path851"
       style="fill:url(#linearGradient963);fill-rule:evenodd;stroke:#7d220e;stroke-width:0.264583px;stroke-linecap:butt;stroke-linejoin:miter;stroke-opacity:1"
       d="m 101.91001,28.16921 c 0.0321,0.0638 0.79769,0.87984 0.90131,0.95992 0.17958,0.13877 0.45711,0.30203 0.77547,0.53876 0.31836,0.23673 0.67752,0.54691 0.96323,0.88159 0.2857,0.33469 0.49793,0.69385 0.71833,1.07751 0.2204,0.38366 0.44896,0.7918 0.62854,1.19995 0.17959,0.40815 0.31019,0.81629 0.40815,1.22444 0.098,0.40815 0.16326,0.81629 0.25306,1.24893 0.0898,0.43264 0.20407,0.88975 0.40814,1.37954 0.20408,0.48978 0.49794,1.0122 0.75099,1.41218 0.25305,0.39999 0.46529,0.67752 0.66936,0.91425 0.20407,0.23673 0.39998,0.43263 0.56324,0.62038 0.16326,0.18775 0.29386,0.36733 0.31019,0.56324 0.0163,0.1959 -0.0816,0.40815 -0.24489,0.57957 -0.16326,0.17142 -0.39182,0.30203 -0.60406,0.39998 -0.21223,0.0979 -0.40814,0.16326 -0.57956,0.21224 -0.17143,0.049 -0.31834,0.0816 -0.47345,0.098 -0.1551,0.0163 -0.31835,0.0163 -0.47345,0.0816 -0.1551,0.0653 -0.30203,0.1959 -0.41631,0.34283 -1.9249,0.48125 -1.97407,0.50679 -2.59874,0.60979 -0.31692,-0.39831 -7.148989,-12.50228 -6.690429,-13.22954 0.7811,-1.23881 2.24899,-1.18174 2.71419,-1.20223 0.449989,-0.0198 1.231489,0.0437 1.841159,0.0698"
       sodipodi:nodetypes="cssssssssssssssscsscssc" /></g></svg>
