<?xml version="1.0" encoding="UTF-8" standalone="no"?>
<!-- Created with Inkscape (http://www.inkscape.org/) -->

<svg
   width="102.60059"
   height="40.255737"
   viewBox="0 0 27.146405 10.650997"
   version="1.1"
   id="svg1"
   inkscape:version="1.4.2 (f4327f4, 2025-05-13)"
   sodipodi:docname="Castle.svg"
   xml:space="preserve"
   xmlns:inkscape="http://www.inkscape.org/namespaces/inkscape"
   xmlns:sodipodi="http://sodipodi.sourceforge.net/DTD/sodipodi-0.dtd"
   xmlns:xlink="http://www.w3.org/1999/xlink"
   xmlns="http://www.w3.org/2000/svg"
   xmlns:svg="http://www.w3.org/2000/svg"><sodipodi:namedview
     id="namedview1"
     pagecolor="#505050"
     bordercolor="#eeeeee"
     borderopacity="1"
     inkscape:showpageshadow="0"
     inkscape:pageopacity="0"
     inkscape:pagecheckerboard="0"
     inkscape:deskcolor="#0f0f0f"
     inkscape:document-units="px"
     inkscape:zoom="0.33674242"
     inkscape:cx="3153.7458"
     inkscape:cy="92.058493"
     inkscape:window-width="1280"
     inkscape:window-height="961"
     inkscape:window-x="-8"
     inkscape:window-y="-8"
     inkscape:window-maximized="1"
     inkscape:current-layer="layer1"><inkscape:page
       x="0"
       y="0"
       width="27.146404"
       height="10.650997"
       id="page2"
       margin="0"
       bleed="0" /></sodipodi:namedview><defs
     id="defs1"><linearGradient
       id="swatch2"
       inkscape:swatch="solid"><stop
         style="stop-color:#000000;stop-opacity:1;"
         offset="0"
         id="stop2-3" /></linearGradient><linearGradient
       id="SVGID_00000070808363397940174960000011607296150161283512_"
       gradientUnits="userSpaceOnUse"
       x1="1646.5276"
       y1="192.1582"
       x2="1656.8759"
       y2="192.1582"
       gradientTransform="matrix(-0.9995,0.0322,0.0322,0.9995,1909.7698,-41.7539)">
							<stop
   offset="0.0061"
   style="stop-color:#A6623C"
   id="stop629-8" />
							<stop
   offset="1"
   style="stop-color:#BA976A"
   id="stop630-1" />
						</linearGradient><linearGradient
       id="SVGID_00000091703838768766092170000016674690607515018128_"
       gradientUnits="userSpaceOnUse"
       x1="1644.1382"
       y1="194.43021"
       x2="1647.7007"
       y2="194.43021"
       gradientTransform="matrix(-0.9995,0.0322,0.0322,0.9995,1909.7698,-41.7539)">
							<stop
   offset="0.0061"
   style="stop-color:#9E503C"
   id="stop631-2" />
							<stop
   offset="1"
   style="stop-color:#B2856A"
   id="stop632-5" />
						</linearGradient><linearGradient
       id="SVGID_00000083077636409004442380000004758089498016321967_"
       gradientUnits="userSpaceOnUse"
       x1="1646.4944"
       y1="196.7048"
       x2="1654.8622"
       y2="196.7048"
       gradientTransform="matrix(-0.9995,0.0322,0.0322,0.9995,1909.7698,-41.7539)">
							<stop
   offset="0.0061"
   style="stop-color:#9E503C"
   id="stop633-7" />
							<stop
   offset="1"
   style="stop-color:#B2856A"
   id="stop634" />
						</linearGradient><linearGradient
       id="SVGID_00000083797764302144625030000003316437509044120739_"
       gradientUnits="userSpaceOnUse"
       x1="1656.7338"
       y1="191.90469"
       x2="1662.8011"
       y2="191.90469"
       gradientTransform="matrix(-0.9995,0.0322,0.0322,0.9995,1909.7698,-41.7539)">
							<stop
   offset="0.0061"
   style="stop-color:#8A3F29"
   id="stop635" />
							<stop
   offset="1"
   style="stop-color:#A56951"
   id="stop636" />
						</linearGradient><linearGradient
       id="SVGID_00000000191732920310035850000007493731791206235295_"
       gradientUnits="userSpaceOnUse"
       x1="1653.0212"
       y1="195.9055"
       x2="1655.4955"
       y2="195.9055"
       gradientTransform="matrix(-0.9995,0.0322,0.0322,0.9995,1909.7698,-41.7539)">
							<stop
   offset="0.0061"
   style="stop-color:#9E503C"
   id="stop637" />
							<stop
   offset="1"
   style="stop-color:#B2856A"
   id="stop638" />
						</linearGradient><linearGradient
       id="SVGID_00000124156033232118977010000011660972542137352365_"
       gradientUnits="userSpaceOnUse"
       x1="1655.1913"
       y1="194.9873"
       x2="1659.1887"
       y2="194.9873"
       gradientTransform="matrix(-0.9995,0.0322,0.0322,0.9995,1909.7698,-41.7539)">
							<stop
   offset="0.0061"
   style="stop-color:#87432D"
   id="stop639" />
							<stop
   offset="1"
   style="stop-color:#9B785B"
   id="stop640" />
						</linearGradient><linearGradient
       id="SVGID_00000082365774586314182090000001042402984144989067_"
       gradientUnits="userSpaceOnUse"
       x1="1659.0491"
       y1="196.1897"
       x2="1665.5446"
       y2="196.1897"
       gradientTransform="matrix(-0.9995,0.0322,0.0322,0.9995,1909.7698,-41.7539)">
							<stop
   offset="0.0061"
   style="stop-color:#A6623C"
   id="stop641" />
							<stop
   offset="1"
   style="stop-color:#BA976A"
   id="stop642" />
						</linearGradient><linearGradient
       id="SVGID_00000080888642619569759420000006490944967380483768_"
       gradientUnits="userSpaceOnUse"
       x1="1661.6825"
       y1="195.22639"
       x2="1667.0056"
       y2="195.22639"
       gradientTransform="matrix(-0.9995,0.0322,0.0322,0.9995,1909.7698,-41.7539)">
							<stop
   offset="0.0061"
   style="stop-color:#87432D"
   id="stop643" />
							<stop
   offset="1"
   style="stop-color:#9B785B"
   id="stop644" />
						</linearGradient><linearGradient
       id="SVGID_00000082345305322977617260000008972140591157937047_"
       gradientUnits="userSpaceOnUse"
       x1="1644.1382"
       y1="195.0992"
       x2="1667.0056"
       y2="195.0992"
       gradientTransform="matrix(-0.9995,0.0322,0.0322,0.9995,1909.7698,-41.7539)">
						<stop
   offset="0.0061"
   style="stop-color:#8A3F29"
   id="stop645" />
						<stop
   offset="1"
   style="stop-color:#A56951"
   id="stop646" />
					</linearGradient><linearGradient
       id="SVGID_00000042732248047610629910000004989301365454033070_"
       gradientUnits="userSpaceOnUse"
       x1="1644.1382"
       y1="195.37711"
       x2="1667.0056"
       y2="195.37711"
       gradientTransform="matrix(-0.9995,0.0322,0.0322,0.9995,1909.7698,-41.7539)">
						<stop
   offset="0.0061"
   style="stop-color:#8A3F29"
   id="stop647" />
						<stop
   offset="1"
   style="stop-color:#A56951"
   id="stop648" />
					</linearGradient><linearGradient
       id="SVGID_00000105401611863096492730000011663547565703958445_"
       gradientUnits="userSpaceOnUse"
       x1="1646.5281"
       y1="191.535"
       x2="1656.8766"
       y2="191.535"
       gradientTransform="matrix(-0.9995,0.0322,0.0322,0.9995,1909.7698,-41.7539)">
						<stop
   offset="0.0061"
   style="stop-color:#A6623C"
   id="stop670" />
						<stop
   offset="1"
   style="stop-color:#BA976A"
   id="stop671" />
					</linearGradient><linearGradient
       id="SVGID_00000137829598445009547590000014949188753009196676_"
       gradientUnits="userSpaceOnUse"
       x1="1646.5281"
       y1="190.8177"
       x2="1656.8767"
       y2="190.8177"
       gradientTransform="matrix(-0.9995,0.0322,0.0322,0.9995,1909.7698,-41.7539)">
						<stop
   offset="0.0061"
   style="stop-color:#A6623C"
   id="stop672" />
						<stop
   offset="1"
   style="stop-color:#BA976A"
   id="stop673" />
					</linearGradient><linearGradient
       id="SVGID_00000009562757088432435800000014736044110118248856_"
       gradientUnits="userSpaceOnUse"
       x1="1656.7349"
       y1="192.11481"
       x2="1662.8011"
       y2="192.11481"
       gradientTransform="matrix(-0.9995,0.0322,0.0322,0.9995,1909.7698,-41.7539)">
						<stop
   offset="0.0061"
   style="stop-color:#A6623C"
   id="stop674" />
						<stop
   offset="1"
   style="stop-color:#BA976A"
   id="stop675" />
					</linearGradient><linearGradient
       id="SVGID_00000127731241583885529010000018435644333893472647_"
       gradientUnits="userSpaceOnUse"
       x1="1644.4293"
       y1="196.9379"
       x2="1644.4623"
       y2="198.3087"
       gradientTransform="matrix(-0.9995,0.0322,0.0322,0.9995,1909.7698,-41.7539)">
							<stop
   offset="0.0061"
   style="stop-color:#8A3F29"
   id="stop676" />
							<stop
   offset="0.7975"
   style="stop-color:#A56951"
   id="stop677" />
						</linearGradient><linearGradient
       id="SVGID_00000105399193484446739410000006880877465193212803_"
       gradientUnits="userSpaceOnUse"
       x1="1643.8667"
       y1="195.5394"
       x2="1642.391"
       y2="197.728"
       gradientTransform="matrix(-0.9995,0.0322,0.0322,0.9995,1909.7698,-41.7539)">
							<stop
   offset="0.0061"
   style="stop-color:#8A3F29"
   id="stop678" />
							<stop
   offset="1"
   style="stop-color:#A56951"
   id="stop679" />
						</linearGradient><linearGradient
       id="SVGID_00000148638863771719219760000010357795660066959538_"
       gradientUnits="userSpaceOnUse"
       x1="1646.2585"
       y1="198.41071"
       x2="1646.2585"
       y2="195.0157"
       gradientTransform="matrix(-0.9995,0.0322,0.0322,0.9995,1909.7698,-41.7539)">
							<stop
   offset="0.0061"
   style="stop-color:#8A3F29"
   id="stop680" />
							<stop
   offset="0.7975"
   style="stop-color:#A56951"
   id="stop681" />
						</linearGradient><linearGradient
       id="SVGID_00000086653116800532763470000000654423418595772821_"
       gradientUnits="userSpaceOnUse"
       x1="1642.0446"
       y1="196.8905"
       x2="1647.5808"
       y2="196.8905"
       gradientTransform="matrix(-0.9995,0.0322,0.0322,0.9995,1909.7698,-41.7539)">
							<stop
   offset="0.0061"
   style="stop-color:#8A3F29"
   id="stop689" />
							<stop
   offset="1"
   style="stop-color:#A56951"
   id="stop690" />
						</linearGradient><linearGradient
       inkscape:collect="always"
       xlink:href="#SVGID_00000070808363397940174960000011607296150161283512_"
       id="linearGradient7954"
       gradientUnits="userSpaceOnUse"
       gradientTransform="matrix(-0.9995,0.0322,0.0322,0.9995,1909.7698,-41.7539)"
       x1="1646.5276"
       y1="192.1582"
       x2="1656.8759"
       y2="192.1582" /><linearGradient
       inkscape:collect="always"
       xlink:href="#SVGID_00000091703838768766092170000016674690607515018128_"
       id="linearGradient7955"
       gradientUnits="userSpaceOnUse"
       gradientTransform="matrix(-0.9995,0.0322,0.0322,0.9995,1909.7698,-41.7539)"
       x1="1644.1382"
       y1="194.43021"
       x2="1647.7007"
       y2="194.43021" /><linearGradient
       inkscape:collect="always"
       xlink:href="#SVGID_00000083077636409004442380000004758089498016321967_"
       id="linearGradient7956"
       gradientUnits="userSpaceOnUse"
       gradientTransform="matrix(-0.9995,0.0322,0.0322,0.9995,1909.7698,-41.7539)"
       x1="1646.4944"
       y1="196.7048"
       x2="1654.8622"
       y2="196.7048" /><linearGradient
       inkscape:collect="always"
       xlink:href="#SVGID_00000083797764302144625030000003316437509044120739_"
       id="linearGradient7957"
       gradientUnits="userSpaceOnUse"
       gradientTransform="matrix(-0.9995,0.0322,0.0322,0.9995,1909.7698,-41.7539)"
       x1="1656.7338"
       y1="191.90469"
       x2="1662.8011"
       y2="191.90469" /><linearGradient
       inkscape:collect="always"
       xlink:href="#SVGID_00000000191732920310035850000007493731791206235295_"
       id="linearGradient7958"
       gradientUnits="userSpaceOnUse"
       gradientTransform="matrix(-0.9995,0.0322,0.0322,0.9995,1909.7698,-41.7539)"
       x1="1653.0212"
       y1="195.9055"
       x2="1655.4955"
       y2="195.9055" /><linearGradient
       inkscape:collect="always"
       xlink:href="#SVGID_00000124156033232118977010000011660972542137352365_"
       id="linearGradient7959"
       gradientUnits="userSpaceOnUse"
       gradientTransform="matrix(-0.9995,0.0322,0.0322,0.9995,1909.7698,-41.7539)"
       x1="1655.1913"
       y1="194.9873"
       x2="1659.1887"
       y2="194.9873" /><linearGradient
       inkscape:collect="always"
       xlink:href="#SVGID_00000082365774586314182090000001042402984144989067_"
       id="linearGradient7960"
       gradientUnits="userSpaceOnUse"
       gradientTransform="matrix(-0.9995,0.0322,0.0322,0.9995,1909.7698,-41.7539)"
       x1="1659.0491"
       y1="196.1897"
       x2="1665.5446"
       y2="196.1897" /><linearGradient
       inkscape:collect="always"
       xlink:href="#SVGID_00000080888642619569759420000006490944967380483768_"
       id="linearGradient7961"
       gradientUnits="userSpaceOnUse"
       gradientTransform="matrix(-0.9995,0.0322,0.0322,0.9995,1909.7698,-41.7539)"
       x1="1661.6825"
       y1="195.22639"
       x2="1667.0056"
       y2="195.22639" /><linearGradient
       inkscape:collect="always"
       xlink:href="#SVGID_00000082345305322977617260000008972140591157937047_"
       id="linearGradient7962"
       gradientUnits="userSpaceOnUse"
       gradientTransform="matrix(-0.9995,0.0322,0.0322,0.9995,1909.7698,-41.7539)"
       x1="1644.1382"
       y1="195.0992"
       x2="1667.0056"
       y2="195.0992" /><linearGradient
       inkscape:collect="always"
       xlink:href="#SVGID_00000042732248047610629910000004989301365454033070_"
       id="linearGradient7963"
       gradientUnits="userSpaceOnUse"
       gradientTransform="matrix(-0.9995,0.0322,0.0322,0.9995,1909.7698,-41.7539)"
       x1="1644.1382"
       y1="195.37711"
       x2="1667.0056"
       y2="195.37711" /><linearGradient
       inkscape:collect="always"
       xlink:href="#SVGID_00000105401611863096492730000011663547565703958445_"
       id="linearGradient7964"
       gradientUnits="userSpaceOnUse"
       gradientTransform="matrix(-0.9995,0.0322,0.0322,0.9995,1909.7698,-41.7539)"
       x1="1646.5281"
       y1="191.535"
       x2="1656.8766"
       y2="191.535" /><linearGradient
       inkscape:collect="always"
       xlink:href="#SVGID_00000137829598445009547590000014949188753009196676_"
       id="linearGradient7965"
       gradientUnits="userSpaceOnUse"
       gradientTransform="matrix(-0.9995,0.0322,0.0322,0.9995,1909.7698,-41.7539)"
       x1="1646.5281"
       y1="190.8177"
       x2="1656.8767"
       y2="190.8177" /><linearGradient
       inkscape:collect="always"
       xlink:href="#SVGID_00000009562757088432435800000014736044110118248856_"
       id="linearGradient7966"
       gradientUnits="userSpaceOnUse"
       gradientTransform="matrix(-0.9995,0.0322,0.0322,0.9995,1909.7698,-41.7539)"
       x1="1656.7349"
       y1="192.11481"
       x2="1662.8011"
       y2="192.11481" /><linearGradient
       inkscape:collect="always"
       xlink:href="#SVGID_00000127731241583885529010000018435644333893472647_"
       id="linearGradient7967"
       gradientUnits="userSpaceOnUse"
       gradientTransform="matrix(-0.9995,0.0322,0.0322,0.9995,1909.7698,-41.7539)"
       x1="1644.4293"
       y1="196.9379"
       x2="1644.4623"
       y2="198.3087" /><linearGradient
       inkscape:collect="always"
       xlink:href="#SVGID_00000105399193484446739410000006880877465193212803_"
       id="linearGradient7968"
       gradientUnits="userSpaceOnUse"
       gradientTransform="matrix(-0.9995,0.0322,0.0322,0.9995,1909.7698,-41.7539)"
       x1="1643.8667"
       y1="195.5394"
       x2="1642.391"
       y2="197.728" /><linearGradient
       inkscape:collect="always"
       xlink:href="#SVGID_00000148638863771719219760000010357795660066959538_"
       id="linearGradient7969"
       gradientUnits="userSpaceOnUse"
       gradientTransform="matrix(-0.9995,0.0322,0.0322,0.9995,1909.7698,-41.7539)"
       x1="1646.2585"
       y1="198.41071"
       x2="1646.2585"
       y2="195.0157" /><linearGradient
       inkscape:collect="always"
       xlink:href="#SVGID_00000086653116800532763470000000654423418595772821_"
       id="linearGradient7970"
       gradientUnits="userSpaceOnUse"
       gradientTransform="matrix(-0.9995,0.0322,0.0322,0.9995,1909.7698,-41.7539)"
       x1="1642.0446"
       y1="196.8905"
       x2="1647.5808"
       y2="196.8905" /></defs><g
     inkscape:label="Calque 1"
     inkscape:groupmode="layer"
     id="layer1"
     transform="translate(-594.67839,-143.78987)"><g
       id="g7911"
       transform="matrix(-1.0863485,0,0,1.0863485,893.30392,-73.796851)">
				<g
   id="g7721">
					<path
   style="fill:#ad7d61"
   d="m 249.908,207.659 c 0.059,0.364 0.337,0.606 0.618,0.814 0.402,0.296 0.784,0.614 1.194,0.897 0.412,0.284 0.845,0.544 1.343,0.644 0.496,0.1 1.004,0.087 1.507,0.062 2.316,-0.112 4.625,-0.396 6.928,-0.641 0.01,-0.002 0.016,-0.007 0.018,-0.016 1.037,0.053 2.072,0.152 3.111,0.203 0.552,0.027 1.126,0.075 1.677,-0.009 0.497,-0.08 0.99,-0.258 1.462,-0.427 0.536,-0.19 1.079,-0.356 1.621,-0.532 0.466,-0.15 0.971,-0.279 1.397,-0.526 0.745,-0.433 1.296,-1.13 1.949,-1.681 0.027,-0.026 -0.013,-0.072 -0.043,-0.051 0,0 -0.003,0.003 -0.004,0.004 -0.409,-0.668 -0.696,-1.405 -1.114,-2.067 -0.202,-0.32 -0.432,-0.621 -0.728,-0.86 -0.283,-0.229 -0.594,-0.421 -0.912,-0.594 -1.577,-0.865 -3.179,-1.683 -4.853,-2.348 -0.024,-0.009 -0.045,0.003 -0.057,0.019 -0.134,-0.052 -0.261,-0.119 -0.415,-0.121 -0.25,-0.004 -0.498,0.032 -0.749,0.039 -0.267,0.008 -0.534,0.024 -0.799,0.048 -0.544,0.047 -1.087,0.12 -1.626,0.213 -0.288,0.05 -0.577,0.104 -0.863,0.16 -0.19,0.039 -0.375,0.093 -0.542,0.195 -0.344,0.208 -0.596,0.518 -0.857,0.815 -0.309,0.353 -0.656,0.67 -0.998,0.986 -0.378,0.353 -0.77,0.704 -1.217,0.967 -0.478,0.282 -1.03,0.467 -1.552,0.651 -0.012,0.005 -0.023,0.009 -0.035,0.014 -0.339,0.015 -0.678,0.072 -1.003,0.167 -0.393,0.114 -0.761,0.289 -1.142,0.434 -0.365,0.14 -0.716,0.304 -1.078,0.448 -0.119,0.046 -0.236,0.099 -0.353,0.152 -0.073,0.036 -0.172,0.067 -0.225,0.137 -0.007,0.006 -0.009,0.016 -0.009,0.023 -0.429,0.485 -1.008,0.792 -1.502,1.201 -0.013,0.002 -0.026,0.009 -0.035,0.026 -0.001,0.002 -0.002,0.005 -0.003,0.007 -0.004,0.004 -0.006,0.005 -0.01,0.008 -0.014,0.011 -0.017,0.026 -0.013,0.039 -0.064,0.157 -0.115,0.329 -0.088,0.5 z"
   id="path7675" />
					<g
   id="g7690">
						
							<linearGradient
   id="linearGradient7676"
   gradientUnits="userSpaceOnUse"
   x1="1646.5276"
   y1="192.1582"
   x2="1656.8759"
   y2="192.1582"
   gradientTransform="matrix(-0.9995,0.0322,0.0322,0.9995,1909.7698,-41.7539)">
							<stop
   offset="0.0061"
   style="stop-color:#A6623C"
   id="stop7675" />
							<stop
   offset="1"
   style="stop-color:#BA976A"
   id="stop7676" />
						</linearGradient>
						<path
   style="fill:url(#linearGradient7954)"
   d="m 259.91,202.64 c 0.036,-0.219 0.062,-0.42 0.065,-0.642 0.004,-0.38 0.065,-0.691 0.208,-0.995 0.124,-0.053 0.254,-0.088 0.389,-0.116 0.286,-0.057 0.575,-0.11 0.863,-0.16 0.539,-0.093 1.082,-0.165 1.626,-0.213 0.265,-0.024 0.532,-0.04 0.799,-0.048 0.251,-0.007 0.499,-0.043 0.749,-0.039 0.154,0.003 0.281,0.069 0.415,0.121 0.012,-0.016 0.032,-0.028 0.057,-0.019 1.616,0.641 3.166,1.429 4.692,2.26 0.311,0.357 0.639,0.868 0.426,1.262 -0.191,0.353 -0.495,0.635 -0.711,0.971 -0.239,0.374 -0.377,0.778 -0.565,1.174 0.027,-0.06 -0.682,-0.015 -0.743,-0.014 -0.241,0 -0.645,0.02 -0.878,0.07 -0.575,0.123 -0.963,0.134 -1.546,0.219 -0.353,0.05 -0.708,0.095 -1.064,0.117 -0.497,0.029 -0.949,-0.146 -1.406,-0.321 -0.5,-0.191 -0.998,-0.408 -1.438,-0.717 -0.368,-0.258 -0.579,-0.647 -0.796,-1.029 -0.246,-0.437 -0.532,-0.718 -0.891,-1.06 -0.267,-0.258 -0.313,-0.463 -0.251,-0.821 z"
   id="path7676" />
						
							<linearGradient
   id="linearGradient7678"
   gradientUnits="userSpaceOnUse"
   x1="1644.1382"
   y1="194.43021"
   x2="1647.7007"
   y2="194.43021"
   gradientTransform="matrix(-0.9995,0.0322,0.0322,0.9995,1909.7698,-41.7539)">
							<stop
   offset="0.0061"
   style="stop-color:#9E503C"
   id="stop7677" />
							<stop
   offset="1"
   style="stop-color:#B2856A"
   id="stop7678" />
						</linearGradient>
						<path
   style="fill:url(#linearGradient7955)"
   d="m 269.353,206.71 c -0.081,-0.123 -0.143,-0.257 -0.169,-0.407 -0.122,-0.695 0.661,-1.413 0.995,-1.954 0.288,-0.467 0.2,-0.949 -0.101,-1.389 0.268,0.152 0.527,0.317 0.768,0.512 0.296,0.239 0.525,0.54 0.728,0.86 0.418,0.662 0.705,1.398 1.114,2.067 0.001,-0.002 0.002,-0.003 0.002,-0.003 0.032,-0.022 0.072,0.023 0.045,0.05 -0.653,0.55 -1.204,1.248 -1.949,1.681 -0.066,0.038 -0.136,0.074 -0.205,0.108 -0.287,-0.301 -0.477,-0.679 -0.76,-0.983 -0.16,-0.174 -0.339,-0.344 -0.468,-0.542 z"
   id="path7678" />
						
							<linearGradient
   id="linearGradient7680"
   gradientUnits="userSpaceOnUse"
   x1="1646.4944"
   y1="196.7048"
   x2="1654.8622"
   y2="196.7048"
   gradientTransform="matrix(-0.9995,0.0322,0.0322,0.9995,1909.7698,-41.7539)">
							<stop
   offset="0.0061"
   style="stop-color:#9E503C"
   id="stop7679" />
							<stop
   offset="1"
   style="stop-color:#B2856A"
   id="stop7680" />
						</linearGradient>
						<path
   style="fill:url(#linearGradient7956)"
   d="m 262.662,208.566 c 0.171,-0.323 0.327,-0.655 0.519,-0.966 0.172,-0.28 0.366,-0.701 0.689,-0.825 0.013,-0.005 0.021,-0.012 0.029,-0.02 0.274,0.059 0.654,-0.013 0.93,-0.038 0.671,-0.057 1.338,-0.153 1.996,-0.297 0.577,-0.125 1.586,-0.15 2.032,0.011 0.506,0.182 0.604,0.596 0.937,0.992 0.231,0.276 0.409,0.607 0.652,0.872 -0.342,0.147 -0.711,0.246 -1.059,0.357 -0.542,0.176 -1.085,0.342 -1.621,0.532 -0.472,0.169 -0.965,0.348 -1.462,0.427 -0.551,0.084 -1.125,0.036 -1.677,0.009 -0.84,-0.042 -1.678,-0.113 -2.517,-0.167 0.204,-0.283 0.389,-0.578 0.552,-0.887 z"
   id="path7680" />
						
							<linearGradient
   id="linearGradient7682"
   gradientUnits="userSpaceOnUse"
   x1="1656.7338"
   y1="191.90469"
   x2="1662.8011"
   y2="191.90469"
   gradientTransform="matrix(-0.9995,0.0322,0.0322,0.9995,1909.7698,-41.7539)">
							<stop
   offset="0.0061"
   style="stop-color:#8A3F29"
   id="stop7681" />
							<stop
   offset="1"
   style="stop-color:#A56951"
   id="stop7682" />
						</linearGradient>
						<path
   style="opacity:0.3;fill:url(#linearGradient7957)"
   d="m 259.785,202.496 c -0.065,0.564 -0.193,1.121 -0.478,1.604 -0.288,0.486 -0.661,0.912 -1.113,1.265 -0.152,0.116 -0.363,0.283 -0.618,0.418 -0.407,-0.105 -0.821,-0.157 -1.239,-0.197 -0.236,-0.024 -0.499,-0.08 -0.736,-0.051 -0.23,0.027 -0.458,0.065 -0.637,-0.067 -0.291,-0.213 -0.475,-0.529 -0.82,-0.647 -0.042,-0.014 -0.085,-0.026 -0.126,-0.038 0.114,-0.043 0.23,-0.084 0.35,-0.119 0.326,-0.093 0.664,-0.15 1.003,-0.167 0.013,-0.003 0.023,-0.008 0.035,-0.012 0.521,-0.187 1.073,-0.369 1.552,-0.651 0.448,-0.264 0.839,-0.615 1.217,-0.967 0.343,-0.318 0.689,-0.634 0.998,-0.987 0.247,-0.281 0.485,-0.569 0.798,-0.777 -0.064,0.162 -0.106,0.332 -0.12,0.516 -0.023,0.291 -0.032,0.587 -0.066,0.877 z"
   id="path7682" />
						
							<linearGradient
   id="linearGradient7684"
   gradientUnits="userSpaceOnUse"
   x1="1653.0212"
   y1="195.9055"
   x2="1655.4955"
   y2="195.9055"
   gradientTransform="matrix(-0.9995,0.0322,0.0322,0.9995,1909.7698,-41.7539)">
							<stop
   offset="0.0061"
   style="stop-color:#9E503C"
   id="stop7683" />
							<stop
   offset="1"
   style="stop-color:#B2856A"
   id="stop7684" />
						</linearGradient>
						<path
   style="fill:url(#linearGradient7958)"
   d="m 262.03,209.438 c -0.024,-0.101 -0.057,-0.198 -0.076,-0.276 -0.157,-0.652 -0.189,-1.322 -0.235,-1.988 -0.022,-0.303 -0.222,-0.774 -0.264,-1.076 -0.032,-0.23 -0.213,-1.041 -0.025,-0.787 0.064,0.068 0.132,0.134 0.213,0.191 0.373,0.262 0.77,0.485 1.186,0.672 0.286,0.127 0.857,0.212 1.034,0.491 -0.432,0.316 -0.69,0.816 -0.93,1.281 -0.122,0.232 -0.243,0.464 -0.376,0.692 -0.056,0.098 -0.408,0.809 -0.509,0.803 -0.005,-0.003 -0.011,-0.001 -0.018,-0.003 z"
   id="path7684" />
						
							<linearGradient
   id="linearGradient7686"
   gradientUnits="userSpaceOnUse"
   x1="1655.1913"
   y1="194.9873"
   x2="1659.1887"
   y2="194.9873"
   gradientTransform="matrix(-0.9995,0.0322,0.0322,0.9995,1909.7698,-41.7539)">
							<stop
   offset="0.0061"
   style="stop-color:#87432D"
   id="stop7685" />
							<stop
   offset="1"
   style="stop-color:#9B785B"
   id="stop7686" />
						</linearGradient>
						<path
   style="fill:url(#linearGradient7959)"
   d="m 258.007,208.55 c -0.07,-0.872 -0.402,-1.786 -0.311,-2.655 0.219,-0.125 0.398,-0.314 0.591,-0.473 0.222,-0.186 0.456,-0.374 0.612,-0.621 0.2,-0.318 0.379,-0.649 0.561,-0.98 0.108,-0.193 0.241,-0.377 0.328,-0.579 0.158,0.361 0.665,0.594 0.868,0.912 0.181,0.284 0.3,0.617 0.477,0.904 -0.016,0.016 -0.024,0.039 -0.017,0.066 0.141,0.475 0.282,0.89 0.306,1.393 0.023,0.442 0.019,0.886 0.068,1.324 0.048,0.424 0.102,0.861 0.201,1.276 0.021,0.087 0.061,0.201 0.091,0.314 -0.088,-0.003 -0.177,-0.007 -0.265,-0.014 -0.003,0.009 -0.009,0.014 -0.018,0.016 -1.14,0.12 -2.281,0.25 -3.423,0.367 -0.027,-0.416 -0.037,-0.832 -0.069,-1.25 z"
   id="path7686" />
						
							<linearGradient
   id="linearGradient7688"
   gradientUnits="userSpaceOnUse"
   x1="1659.0491"
   y1="196.1897"
   x2="1665.5446"
   y2="196.1897"
   gradientTransform="matrix(-0.9995,0.0322,0.0322,0.9995,1909.7698,-41.7539)">
							<stop
   offset="0.0061"
   style="stop-color:#A6623C"
   id="stop7687" />
							<stop
   offset="1"
   style="stop-color:#BA976A"
   id="stop7688" />
						</linearGradient>
						<path
   style="fill:url(#linearGradient7960)"
   d="m 251.678,208.903 c 0.47,-0.346 0.872,-0.735 1.271,-1.161 0.474,-0.51 0.953,-1.078 1.525,-1.485 0.256,-0.182 0.648,-0.3 0.808,-0.59 0.07,0.022 0.145,0.011 0.229,0 0.23,-0.029 0.46,-0.005 0.688,0.024 0.458,0.061 0.907,0.094 1.355,0.21 0.004,0.002 0.006,0.003 0.01,0.005 0.1,0.433 0.119,0.876 0.171,1.316 0.057,0.476 0.109,0.951 0.143,1.429 0.026,0.375 0.03,0.753 0.057,1.127 -1.12,0.111 -2.24,0.207 -3.363,0.261 -0.503,0.023 -1.01,0.036 -1.507,-0.063 -0.498,-0.099 -0.931,-0.358 -1.343,-0.643 -0.104,-0.073 -0.207,-0.145 -0.308,-0.222 0.087,-0.075 0.176,-0.146 0.264,-0.208 z"
   id="path7688" />
						
							<linearGradient
   id="linearGradient7690"
   gradientUnits="userSpaceOnUse"
   x1="1661.6825"
   y1="195.22639"
   x2="1667.0056"
   y2="195.22639"
   gradientTransform="matrix(-0.9995,0.0322,0.0322,0.9995,1909.7698,-41.7539)">
							<stop
   offset="0.0061"
   style="stop-color:#87432D"
   id="stop7689" />
							<stop
   offset="1"
   style="stop-color:#9B785B"
   id="stop7690" />
						</linearGradient>
						<path
   style="fill:url(#linearGradient7961)"
   d="m 250,207.161 c -0.004,-0.013 -0.001,-0.028 0.013,-0.039 0.004,-0.003 0.006,-0.004 0.01,-0.008 0.001,-0.002 0.002,-0.005 0.003,-0.007 0.009,-0.017 0.022,-0.024 0.035,-0.026 0.494,-0.409 1.073,-0.716 1.502,-1.201 0,-0.007 0.002,-0.017 0.009,-0.023 0.053,-0.069 0.151,-0.101 0.225,-0.137 0.116,-0.054 0.233,-0.106 0.353,-0.152 0.362,-0.144 0.713,-0.309 1.078,-0.448 0.195,-0.074 0.387,-0.156 0.578,-0.234 0.067,0.015 0.131,0.072 0.199,0.055 0.27,-0.07 1.16,0.69 1.16,0.69 -0.17,0.316 -0.701,0.486 -0.97,0.716 -0.418,0.359 -0.8,0.75 -1.176,1.154 -0.416,0.447 -0.822,0.885 -1.317,1.249 -0.138,0.102 -0.282,0.197 -0.42,0.3 -0.251,-0.192 -0.499,-0.389 -0.755,-0.577 -0.281,-0.208 -0.56,-0.45 -0.618,-0.814 -0.028,-0.171 0.023,-0.343 0.091,-0.498 z"
   id="path7690" />
					</g>
					
						<linearGradient
   id="linearGradient7692"
   gradientUnits="userSpaceOnUse"
   x1="1644.1382"
   y1="195.0992"
   x2="1667.0056"
   y2="195.0992"
   gradientTransform="matrix(-0.9995,0.0322,0.0322,0.9995,1909.7698,-41.7539)">
						<stop
   offset="0.0061"
   style="stop-color:#8A3F29"
   id="stop7691" />
						<stop
   offset="1"
   style="stop-color:#A56951"
   id="stop7692" />
					</linearGradient>
					<path
   style="opacity:0.2;fill:url(#linearGradient7962)"
   d="m 250,207.161 c -0.004,-0.013 -0.001,-0.028 0.013,-0.039 0.004,-0.003 0.006,-0.004 0.01,-0.008 0.001,-0.002 0.002,-0.005 0.003,-0.007 0.009,-0.017 0.022,-0.024 0.035,-0.026 0.494,-0.409 1.073,-0.716 1.502,-1.201 0,-0.007 0.002,-0.017 0.009,-0.023 0.053,-0.069 0.151,-0.101 0.225,-0.137 0.116,-0.054 0.233,-0.106 0.353,-0.152 0.362,-0.144 0.713,-0.309 1.078,-0.448 0.293,-0.11 0.575,-0.239 0.869,-0.345 0.575,0.457 1.207,0.804 1.927,1.005 -0.728,0.087 -1.33,0.474 -1.761,1.15 -0.138,0.216 -0.422,0.668 -0.217,0.93 0.149,0.188 0.415,0.255 0.643,0.294 0.707,0.123 1.581,0.125 2.254,-0.158 0.75,-0.316 0.686,-1.26 0.796,-1.972 0.313,0.529 0.037,1.255 0.372,1.782 0.339,0.53 0.964,0.374 1.49,0.263 0.364,-0.078 0.711,-0.108 1.079,-0.146 0.243,-0.026 0.557,-0.062 0.637,-0.311 0.119,-0.372 0.019,-1.168 -0.027,-1.705 0.242,0.591 0.367,1.393 0.527,2.011 0.013,0.049 0.066,0.027 0.117,0.025 1.001,0.002 1.056,-0.683 1.266,-1.288 0.017,-0.048 0.068,-0.081 0.026,-0.117 -0.233,-0.21 -0.493,-0.382 -0.749,-0.563 0.395,0.157 0.764,0.373 1.173,0.489 0.468,0.135 0.938,0.02 1.408,-0.058 1.044,-0.173 2.057,-0.385 3.116,-0.449 0.783,-0.048 1.041,-0.815 1.448,-1.385 0.232,-0.324 0.514,-0.639 0.55,-1.057 0.019,-0.2 -0.009,-0.381 -0.077,-0.545 0.261,0.15 0.516,0.312 0.752,0.502 0.296,0.239 0.525,0.54 0.728,0.86 0.418,0.662 0.705,1.398 1.114,2.067 10e-4,-0.002 0.002,-0.003 0.002,-0.003 0.032,-0.022 0.072,0.023 0.045,0.05 -0.653,0.55 -1.204,1.248 -1.949,1.681 -0.427,0.247 -0.932,0.376 -1.397,0.526 -0.542,0.176 -1.085,0.342 -1.621,0.532 -0.472,0.169 -0.965,0.348 -1.462,0.427 -0.551,0.084 -1.125,0.036 -1.677,0.009 -1.039,-0.05 -2.074,-0.149 -3.111,-0.203 -0.003,0.009 -0.009,0.014 -0.018,0.016 -2.303,0.245 -4.612,0.529 -6.928,0.641 -0.503,0.026 -1.011,0.038 -1.507,-0.062 -0.498,-0.1 -0.931,-0.36 -1.343,-0.644 -0.41,-0.283 -0.792,-0.601 -1.194,-0.897 -0.281,-0.208 -0.56,-0.45 -0.618,-0.814 -0.03,-0.17 0.021,-0.342 0.089,-0.497 z"
   id="path7692" />
					
						<linearGradient
   id="linearGradient7694"
   gradientUnits="userSpaceOnUse"
   x1="1644.1382"
   y1="195.37711"
   x2="1667.0056"
   y2="195.37711"
   gradientTransform="matrix(-0.9995,0.0322,0.0322,0.9995,1909.7698,-41.7539)">
						<stop
   offset="0.0061"
   style="stop-color:#8A3F29"
   id="stop7693" />
						<stop
   offset="1"
   style="stop-color:#A56951"
   id="stop7694" />
					</linearGradient>
					<path
   style="opacity:0.3;fill:url(#linearGradient7963)"
   d="m 250,207.161 c -0.004,-0.013 -0.001,-0.028 0.013,-0.039 0.004,-0.003 0.006,-0.004 0.01,-0.008 0.001,-0.002 0.002,-0.005 0.003,-0.007 0.009,-0.017 0.022,-0.024 0.035,-0.026 0.494,-0.409 1.073,-0.716 1.502,-1.201 0,-0.007 0.002,-0.017 0.009,-0.023 0.053,-0.069 0.151,-0.101 0.225,-0.137 0.116,-0.054 0.233,-0.106 0.353,-0.152 0.362,-0.144 0.713,-0.309 1.078,-0.448 0.227,-0.086 0.446,-0.183 0.671,-0.27 0.104,0.174 0.225,0.339 0.346,0.504 0.09,0.12 0.18,0.246 0.288,0.352 0.163,0.161 -0.042,0.247 -0.172,0.373 -0.293,0.279 -0.59,0.557 -0.852,0.866 -0.356,0.423 -0.624,0.933 -0.77,1.467 -0.086,0.309 -0.2,0.803 0.143,1.008 0.402,0.238 0.952,0.208 1.4,0.195 0.408,-0.011 0.813,-0.019 1.22,-0.01 0.706,0.018 2.008,0.164 2.499,-0.505 0.26,0.131 0.575,0.165 0.86,0.189 0.47,0.04 0.946,0.038 1.415,-0.023 0.395,-0.052 1.339,-0.178 1.353,-0.724 0.547,0.188 0.876,-0.119 1.297,-0.455 -0.032,0.22 -0.112,0.427 -0.167,0.646 -0.011,0.04 0.023,0.092 0.069,0.086 0.502,-0.08 0.983,0.007 1.469,0.135 0.364,0.094 0.768,0.242 1.148,0.238 0.359,-0.003 0.663,-0.125 0.975,-0.296 0.438,-0.236 0.896,-0.42 1.347,-0.629 0.466,-0.215 1.052,-0.291 1.477,-0.572 0.342,-0.225 0.148,-0.716 -0.024,-1.059 0.282,0.143 0.566,0.27 0.871,0.368 0.162,0.053 0.215,0.028 0.339,-0.077 0.434,-0.368 0.897,-0.739 1.139,-1.269 0.196,-0.427 -0.131,-1.029 -0.272,-1.425 -0.1,-0.284 -0.245,-0.518 -0.413,-0.729 0.28,0.234 0.498,0.524 0.693,0.831 0.418,0.662 0.705,1.398 1.114,2.067 0.001,-0.002 0.002,-0.003 0.002,-0.003 0.032,-0.022 0.072,0.023 0.045,0.05 -0.653,0.55 -1.204,1.248 -1.949,1.681 -0.427,0.247 -0.932,0.376 -1.397,0.526 -0.542,0.176 -1.085,0.342 -1.621,0.532 -0.472,0.169 -0.965,0.348 -1.462,0.427 -0.551,0.084 -1.125,0.036 -1.677,0.009 -1.039,-0.05 -2.074,-0.149 -3.111,-0.203 -0.003,0.009 -0.009,0.014 -0.018,0.016 -2.303,0.245 -4.612,0.529 -6.928,0.641 -0.503,0.026 -1.011,0.038 -1.507,-0.062 -0.498,-0.1 -0.931,-0.36 -1.343,-0.644 -0.41,-0.283 -0.792,-0.601 -1.194,-0.897 -0.281,-0.208 -0.56,-0.45 -0.618,-0.814 -0.032,-0.173 0.019,-0.345 0.087,-0.5 z"
   id="path7694" />
					<g
   style="opacity:0.7"
   id="g7716">
						<path
   style="opacity:0.3;fill:#fcb381"
   d="m 268.236,202.784 c 0.027,-0.017 0.061,-0.023 0.099,-0.015 0.006,0.002 0.012,0.003 0.018,0.004 0.047,-0.001 0.095,0.003 0.142,0.011 0.131,0.024 0.272,0.083 0.403,0.164 0.332,0.156 0.61,0.404 0.654,0.795 0.008,0.072 -0.038,0.139 -0.094,0.177 -0.49,0.341 -1.585,0.01 -1.645,-0.632 -0.026,-0.291 0.182,-0.46 0.423,-0.504 z"
   id="path7695" />
						<path
   style="opacity:0.3;fill:#fcb381"
   d="m 266.79,201.901 c 0.041,-0.012 0.078,-0.021 0.117,-0.026 0.052,-0.02 0.108,-0.029 0.161,-0.009 0.027,0.012 0.049,0.021 0.071,0.035 0.078,0.031 0.149,0.085 0.214,0.16 0.058,0.065 0.082,0.148 0.037,0.229 -0.039,0.075 -0.128,0.113 -0.21,0.093 -0.146,-0.032 -0.26,-0.077 -0.369,-0.18 -0.011,-0.009 -0.021,-0.021 -0.027,-0.031 -0.114,-0.034 -0.121,-0.227 0.006,-0.271 z"
   id="path7696" />
						<path
   style="opacity:0.3;fill:#fcb381"
   d="m 266.79,202.883 c -0.002,-0.081 0.06,-0.135 0.135,-0.143 0.031,-0.005 0.061,-0.007 0.093,-0.007 0.043,0.002 0.084,0.014 0.126,0.02 0.07,0.009 0.121,0.083 0.122,0.15 0.003,0.072 -0.044,0.136 -0.112,0.159 -0.058,0.018 -0.123,0.004 -0.183,-0.001 -0.041,-0.006 -0.075,-0.012 -0.107,-0.04 -0.014,-0.013 -0.024,-0.03 -0.033,-0.047 -0.023,-0.024 -0.038,-0.055 -0.041,-0.091 z"
   id="path7697" />
						<path
   style="opacity:0.3;fill:#fcb381"
   d="m 265.127,201.057 c 0.015,-0.007 0.03,-0.013 0.046,-0.02 0.013,-0.009 0.026,-0.019 0.042,-0.025 0.214,-0.085 0.466,0.054 0.583,0.229 0.05,0.073 0.029,0.204 -0.056,0.245 -0.231,0.112 -0.479,0.052 -0.644,-0.145 -0.066,-0.081 -0.086,-0.23 0.029,-0.284 z"
   id="path7698" />
						<path
   style="opacity:0.3;fill:#fcb381"
   d="m 268.423,204.424 c 0.166,-0.005 0.175,0.255 0.008,0.26 -0.168,0.005 -0.177,-0.254 -0.008,-0.26 z"
   id="path7699" />
						<path
   style="opacity:0.3;fill:#fcb381"
   d="m 260.446,201.24 c 0.056,-0.061 0.145,-0.068 0.212,-0.032 0.186,-0.037 0.412,0.047 0.541,0.172 0.108,0.104 0.057,0.264 -0.072,0.316 -0.164,0.066 -0.374,0.066 -0.536,0.004 -0.182,-0.07 -0.287,-0.302 -0.145,-0.46 z"
   id="path7700" />
						<path
   style="opacity:0.3;fill:#fcb381"
   d="m 260.653,202.515 c 0.02,0 0.038,0 0.059,0 0.076,-0.003 0.144,0.057 0.145,0.135 0.003,0.079 -0.059,0.143 -0.136,0.146 -0.022,0.001 -0.04,0.002 -0.06,0.003 -0.076,0.003 -0.144,-0.061 -0.147,-0.139 0,-0.075 0.061,-0.144 0.139,-0.145 z"
   id="path7701" />
						<path
   style="opacity:0.3;fill:#fcb381"
   d="m 260.416,205.017 c 0.13,0.051 0.205,0.15 0.242,0.267 0.101,0.098 0.163,0.234 0.174,0.396 0.015,0.24 -0.127,0.554 -0.404,0.551 -0.354,-0.005 -0.559,-0.486 -0.573,-0.782 -0.016,-0.315 0.258,-0.549 0.561,-0.432 z"
   id="path7702" />
						<path
   style="opacity:0.3;fill:#fcb381"
   d="m 260.061,204.401 c 0.015,-0.059 0.063,-0.095 0.123,-0.1 0.067,-0.006 0.128,-0.006 0.192,0.021 0.063,0.024 0.104,0.075 0.13,0.136 0.058,0.139 -0.061,0.301 -0.195,0.328 -0.138,0.029 -0.235,-0.091 -0.182,-0.219 0.003,-0.005 0.006,-0.01 0.007,-0.014 -0.003,-0.003 -0.007,-0.005 -0.012,-0.007 -0.051,-0.024 -0.077,-0.091 -0.063,-0.145 z"
   id="path7703" />
						<path
   style="opacity:0.3;fill:#fcb381"
   d="m 260.625,206.973 c 0.004,-0.034 0.023,-0.063 0.048,-0.084 0,0 10e-4,-0.002 0.002,-0.004 0.035,-0.038 0.089,-0.053 0.139,-0.04 0.052,0.011 0.084,0.05 0.103,0.097 -0.004,-0.01 -0.009,-0.021 -0.015,-0.03 0.007,0.012 0.013,0.024 0.017,0.037 0.005,0.016 0.007,0.032 0.009,0.049 0.007,0.052 -0.028,0.109 -0.072,0.135 -0.002,0.002 -0.005,0.004 -0.007,0.005 -0.045,0.028 -0.103,0.03 -0.15,0.003 -0.062,-0.035 -0.085,-0.099 -0.074,-0.168 z"
   id="path7704" />
						<path
   style="opacity:0.3;fill:#fcb381"
   d="m 255.922,206.096 c 0.218,-0.106 0.475,-0.13 0.707,-0.067 0.133,0.017 0.26,0.063 0.332,0.173 0.032,0.026 0.062,0.054 0.088,0.086 0.08,0.091 0.098,0.259 -0.03,0.324 -0.071,0.036 -0.139,0.061 -0.206,0.075 -0.384,0.267 -0.824,0.036 -0.971,-0.376 -0.025,-0.073 0.008,-0.179 0.08,-0.215 z"
   id="path7705" />
						<path
   style="opacity:0.3;fill:#fcb381"
   d="m 256.914,207.007 c 0.051,-0.019 0.099,-0.033 0.151,-0.031 0.059,0 0.111,0.025 0.144,0.075 0.024,0.039 0.031,0.095 0.014,0.142 0.003,0.002 0.006,0.002 0.006,0.002 l -10e-4,0.002 c 0.052,0.03 0.089,0.078 0.091,0.143 0.003,0.083 -0.071,0.184 -0.164,0.175 -0.094,-0.007 -0.172,-0.042 -0.234,-0.113 -0.021,-0.025 -0.044,-0.052 -0.063,-0.081 -0.007,-0.009 -0.013,-0.017 -0.02,-0.025 -0.002,-0.005 -0.004,-0.009 -0.004,-0.009 -0.076,-0.098 -0.039,-0.237 0.08,-0.28 z"
   id="path7706" />
						<path
   style="opacity:0.3;fill:#fcb381"
   d="m 255.227,206.361 c 0.049,-0.052 0.136,-0.056 0.19,-0.006 0.002,0.002 0.005,0.006 0.007,0.008 0.054,0.017 0.096,0.055 0.097,0.12 0.003,0.077 -0.057,0.129 -0.129,0.135 -0.064,0.01 -0.114,-0.025 -0.158,-0.066 -0.054,-0.049 -0.058,-0.137 -0.007,-0.191 z"
   id="path7707" />
						<path
   style="opacity:0.3;fill:#fcb381"
   d="m 255.542,204.663 c 0.153,-0.072 0.35,-0.037 0.482,0.064 0.033,0.025 0.05,0.056 0.056,0.089 0.015,0.016 0.03,0.031 0.041,0.049 0.056,0.074 0.022,0.186 -0.051,0.233 -0.124,0.079 -0.273,0.135 -0.424,0.1 -0.108,-0.026 -0.214,-0.116 -0.235,-0.23 -0.025,-0.118 0.013,-0.248 0.131,-0.305 z"
   id="path7708" />
						<path
   style="opacity:0.3;fill:#fcb381"
   d="m 256.288,204.562 0.002,-0.002 v -0.002 c -0.003,-0.08 0.058,-0.13 0.131,-0.14 0.083,-0.011 0.185,-0.027 0.259,0.021 0.049,0.034 0.083,0.077 0.084,0.139 0.003,0.057 -0.027,0.113 -0.075,0.142 -0.04,0.024 -0.082,0.041 -0.128,0.053 -0.019,0.007 -0.039,0.01 -0.062,0.014 -0.017,0.005 -0.038,0.007 -0.056,0.01 0.015,-0.004 0.013,-0.003 -0.008,0.002 -0.064,0.015 -0.129,-0.004 -0.166,-0.062 -0.031,-0.05 -0.031,-0.134 0.019,-0.175 z"
   id="path7709" />
						<path
   style="opacity:0.3;fill:#fcb381"
   d="m 257.436,204.059 c 0.033,-0.012 0.063,-0.019 0.099,-0.023 0.071,-0.007 0.132,0.059 0.134,0.125 0.003,0.066 -0.055,0.135 -0.126,0.135 -0.036,-0.002 -0.066,-0.008 -0.101,-0.016 -0.11,-0.032 -0.115,-0.185 -0.006,-0.221 z"
   id="path7710" />
						<path
   style="opacity:0.3;fill:#fcb381"
   d="m 251.861,205.955 c 0.105,-0.3 0.422,-0.499 0.739,-0.402 0.084,0.023 0.133,0.089 0.138,0.163 0.033,0.027 0.057,0.064 0.057,0.116 0.001,0.425 -0.55,0.478 -0.845,0.325 -0.066,-0.036 -0.116,-0.129 -0.089,-0.202 z"
   id="path7711" />
						<path
   style="opacity:0.3;fill:#fcb381"
   d="m 251.808,206.525 c -0.028,0.004 -0.012,0 0.003,-0.003 0.006,-0.003 0.01,-0.005 0.012,-0.007 0.038,-0.021 0.072,-0.043 0.118,-0.042 0.072,0.003 0.137,0.042 0.158,0.113 0.029,0.091 -0.026,0.166 -0.105,0.201 -0.008,0.003 -0.028,0.007 -0.042,0.009 -0.005,0.003 -0.008,0.005 -0.013,0.006 -0.039,0.012 -0.082,0.019 -0.121,0.018 -0.08,-0.003 -0.148,-0.057 -0.152,-0.142 -0.003,-0.089 0.063,-0.14 0.142,-0.153 z"
   id="path7712" />
						<path
   style="opacity:0.3;fill:#fcb381"
   d="m 265.207,207.049 c 0.098,-0.043 0.191,-0.07 0.302,-0.055 0.124,0.015 0.214,0.127 0.245,0.241 0.022,0.078 -0.01,0.144 -0.071,0.191 -0.222,0.172 -0.603,0.082 -0.626,-0.231 -0.006,-0.089 0.072,-0.146 0.15,-0.146 z"
   id="path7713" />
						<path
   style="opacity:0.3;fill:#fcb381"
   d="m 262.892,205.413 c 0.031,-0.028 0.06,-0.04 0.097,-0.044 0.03,-0.037 0.084,-0.057 0.133,-0.032 0.116,0.056 0.217,0.13 0.303,0.224 0.1,0.109 0.014,0.278 -0.135,0.249 -0.064,-0.012 -0.131,-0.02 -0.196,-0.038 -0.068,-0.018 -0.173,-0.057 -0.214,-0.119 -0.043,-0.069 -0.051,-0.181 0.012,-0.24 z"
   id="path7714" />
						<path
   style="opacity:0.3;fill:#fcb381"
   d="m 269.964,204.775 c 0.046,-0.032 0.128,-0.037 0.176,-0.004 0.089,0.058 0.142,0.124 0.153,0.233 0.006,0.045 -0.009,0.088 -0.028,0.127 0.007,0.042 0.007,0.085 -0.003,0.131 -0.034,0.167 -0.209,0.243 -0.36,0.255 -0.081,0.006 -0.138,-0.051 -0.165,-0.117 -0.107,-0.252 0.02,-0.477 0.227,-0.625 z"
   id="path7715" />
						<path
   style="opacity:0.3;fill:#fcb381"
   d="m 270.248,204.673 c 0.012,-0.052 0.06,-0.093 0.116,-0.093 0.017,0 0.034,-0.002 0.051,-0.003 v 0 c 0.002,-0.004 0.004,-0.006 0.005,-0.007 0.007,-0.011 0.014,-0.022 0.02,-0.033 0.023,-0.046 0.078,-0.067 0.127,-0.058 0.065,0.016 0.091,0.077 0.083,0.138 -0.007,0.064 -0.023,0.133 -0.074,0.176 -0.077,0.072 -0.182,0.069 -0.267,0.016 -0.047,-0.028 -0.075,-0.08 -0.061,-0.136 z"
   id="path7716" />
					</g>
					
						<linearGradient
   id="linearGradient7717"
   gradientUnits="userSpaceOnUse"
   x1="1646.5281"
   y1="191.535"
   x2="1656.8766"
   y2="191.535"
   gradientTransform="matrix(-0.9995,0.0322,0.0322,0.9995,1909.7698,-41.7539)">
						<stop
   offset="0.0061"
   style="stop-color:#A6623C"
   id="stop7716" />
						<stop
   offset="1"
   style="stop-color:#BA976A"
   id="stop7717" />
					</linearGradient>
					<path
   style="opacity:0.2;fill:url(#linearGradient7964)"
   d="m 259.905,202.504 c 0.037,-0.219 0.061,-0.419 0.064,-0.643 0.007,-0.376 0.067,-0.691 0.21,-0.992 0.124,-0.053 0.255,-0.088 0.388,-0.117 0.288,-0.059 0.575,-0.112 0.864,-0.16 0.539,-0.092 1.081,-0.166 1.626,-0.214 0.265,-0.023 0.53,-0.039 0.798,-0.047 0.25,-0.008 0.498,-0.042 0.75,-0.039 0.154,0.003 0.281,0.07 0.414,0.122 0.011,-0.017 0.033,-0.029 0.058,-0.018 0.115,0.044 0.227,0.092 0.343,0.139 0.006,0.02 0.019,0.038 0.044,0.046 0.148,0.05 0.296,0.101 0.441,0.159 0.308,0.132 0.611,0.267 0.914,0.41 0.838,0.422 1.629,0.958 2.35,1.54 -0.28,-0.091 -0.562,-0.179 -0.839,-0.273 -0.063,-0.02 -0.104,0.058 -0.075,0.106 0.164,0.289 0.535,0.709 0.529,1.061 -0.009,0.401 -0.541,0.757 -0.82,0.964 -0.479,0.355 -1.01,0.663 -1.596,0.804 -0.525,0.123 -1.042,0.096 -1.576,0.105 -0.596,0.01 -1.162,0.024 -1.652,-0.366 -0.398,-0.317 -0.759,-0.679 -1.144,-1.014 -0.315,-0.272 -0.693,-0.551 -0.897,-0.923 -0.228,-0.412 -0.194,-0.858 -0.105,-1.307 0.011,-0.054 -0.054,-0.117 -0.105,-0.076 -0.646,0.517 -0.689,1.16 -0.47,1.808 -0.081,-0.084 -0.169,-0.167 -0.261,-0.255 -0.27,-0.257 -0.315,-0.462 -0.253,-0.82 z"
   id="path7717" />
					
						<linearGradient
   id="linearGradient7719"
   gradientUnits="userSpaceOnUse"
   x1="1646.5281"
   y1="190.8177"
   x2="1656.8767"
   y2="190.8177"
   gradientTransform="matrix(-0.9995,0.0322,0.0322,0.9995,1909.7698,-41.7539)">
						<stop
   offset="0.0061"
   style="stop-color:#A6623C"
   id="stop7718" />
						<stop
   offset="1"
   style="stop-color:#BA976A"
   id="stop7719" />
					</linearGradient>
					<path
   style="opacity:0.2;fill:url(#linearGradient7965)"
   d="m 266.466,200.988 c 0.233,0.219 0.42,0.475 0.507,0.803 0.094,0.348 0.134,0.744 0.125,1.104 -0.012,0.368 -0.159,0.567 -0.483,0.692 -0.512,0.2 -1.061,0.323 -1.6,0.405 -0.458,0.067 -0.881,0.13 -1.282,-0.154 -0.968,-0.685 -1.373,-1.893 -2.566,-2.291 -0.361,-0.121 -0.756,-0.199 -1.107,-0.357 0.031,-0.11 0.07,-0.215 0.121,-0.321 0.124,-0.053 0.255,-0.088 0.388,-0.117 0.288,-0.059 0.575,-0.112 0.864,-0.16 0.539,-0.092 1.081,-0.166 1.626,-0.214 0.265,-0.023 0.53,-0.039 0.798,-0.047 0.25,-0.008 0.498,-0.042 0.75,-0.039 0.154,0.003 0.281,0.07 0.414,0.122 0.011,-0.017 0.033,-0.029 0.058,-0.018 0.115,0.044 0.227,0.092 0.343,0.139 0.006,0.02 0.019,0.038 0.044,0.046 0.148,0.05 0.296,0.101 0.441,0.159 0.186,0.082 0.372,0.164 0.559,0.248 z"
   id="path7719" />
					
						<linearGradient
   id="linearGradient7721"
   gradientUnits="userSpaceOnUse"
   x1="1656.7349"
   y1="192.11481"
   x2="1662.8011"
   y2="192.11481"
   gradientTransform="matrix(-0.9995,0.0322,0.0322,0.9995,1909.7698,-41.7539)">
						<stop
   offset="0.0061"
   style="stop-color:#A6623C"
   id="stop7720" />
						<stop
   offset="1"
   style="stop-color:#BA976A"
   id="stop7721" />
					</linearGradient>
					<path
   style="opacity:0.3;fill:url(#linearGradient7966)"
   d="m 259.166,201.885 c 0.121,-0.024 0.21,-0.012 0.208,0.083 -0.003,0.133 -0.026,0.264 -0.07,0.39 -0.109,0.319 -0.28,0.615 -0.468,0.894 -0.334,0.501 -0.737,0.955 -1.07,1.457 -0.456,0.692 -1.22,0.75 -1.979,0.779 -0.232,0.008 -0.463,0.021 -0.689,0.046 -0.048,-0.015 -0.092,-0.037 -0.134,-0.067 -0.291,-0.213 -0.475,-0.529 -0.82,-0.647 -0.042,-0.014 -0.085,-0.026 -0.126,-0.038 0.114,-0.043 0.23,-0.084 0.35,-0.119 0.326,-0.093 0.664,-0.15 1.003,-0.167 0.013,-0.003 0.023,-0.008 0.035,-0.012 0.521,-0.187 1.073,-0.369 1.552,-0.651 0.448,-0.264 0.839,-0.615 1.217,-0.967 0.341,-0.315 0.684,-0.631 0.991,-0.981 z"
   id="path7721" />
				</g>
				<g
   id="g7910">
					<g
   id="g7840">
						<path
   style="fill:#ad7d61"
   d="m 270.332,207.033 0.184,-0.351 1.455,-0.508 1.191,0.093 1.717,1.422 -0.085,0.867 -0.629,0.593 -3.114,0.349 c -0.34,-0.099 -0.68,-0.202 -1.007,-0.338 l -0.652,-1.027 -0.039,-0.046 z"
   id="path7722" />
						
							<linearGradient
   id="linearGradient7723"
   gradientUnits="userSpaceOnUse"
   x1="1644.4293"
   y1="196.9379"
   x2="1644.4623"
   y2="198.3087"
   gradientTransform="matrix(-0.9995,0.0322,0.0322,0.9995,1909.7698,-41.7539)">
							<stop
   offset="0.0061"
   style="stop-color:#8A3F29"
   id="stop7722" />
							<stop
   offset="0.7975"
   style="stop-color:#A56951"
   id="stop7723" />
						</linearGradient>
						<path
   style="fill:url(#linearGradient7967)"
   d="m 271.357,209.264 c 0.195,-0.263 0.375,-0.541 0.557,-0.811 0.203,-0.303 0.54,-0.315 0.867,-0.434 0.149,-0.019 0.174,0.05 0.265,0.141 0.098,0.094 0.234,0.131 0.331,0.222 0.212,0.195 0.408,0.55 0.555,0.794 l -2.832,0.317 c 0.098,-0.065 0.189,-0.135 0.257,-0.229 0.079,-0.107 -0.064,0.087 0,0 z"
   id="path7723" />
						
							<linearGradient
   id="linearGradient7725"
   gradientUnits="userSpaceOnUse"
   x1="1643.8667"
   y1="195.5394"
   x2="1642.391"
   y2="197.728"
   gradientTransform="matrix(-0.9995,0.0322,0.0322,0.9995,1909.7698,-41.7539)">
							<stop
   offset="0.0061"
   style="stop-color:#8A3F29"
   id="stop7724" />
							<stop
   offset="1"
   style="stop-color:#A56951"
   id="stop7725" />
						</linearGradient>
						<path
   style="fill:url(#linearGradient7968)"
   d="m 273.594,208.639 c -0.051,-0.072 -0.084,-0.15 -0.138,-0.222 -0.08,-0.107 -0.235,-0.142 -0.339,-0.224 -0.14,-0.115 -0.221,-0.225 -0.136,-0.394 0.086,-0.165 0.253,-0.546 0.224,-0.727 -0.024,-0.147 -0.095,-0.256 -0.069,-0.409 0.024,-0.14 0.032,-0.267 -0.022,-0.402 0.23,0.029 0.547,0.417 0.715,0.557 0.339,0.281 0.677,0.562 1.015,0.842 0.1,0.081 0.012,0.774 -0.05,0.895 -0.065,0.129 -0.28,0.266 -0.388,0.366 -0.163,0.154 -0.206,0.224 -0.431,0.249 -0.115,-0.185 -0.257,-0.353 -0.381,-0.531 -0.051,-0.071 0.117,0.171 0,0 z"
   id="path7725" />
						
							<linearGradient
   id="linearGradient7727"
   gradientUnits="userSpaceOnUse"
   x1="1646.2585"
   y1="198.41071"
   x2="1646.2585"
   y2="195.0157"
   gradientTransform="matrix(-0.9995,0.0322,0.0322,0.9995,1909.7698,-41.7539)">
							<stop
   offset="0.0061"
   style="stop-color:#8A3F29"
   id="stop7726" />
							<stop
   offset="0.7975"
   style="stop-color:#A56951"
   id="stop7727" />
						</linearGradient>
						<path
   style="fill:url(#linearGradient7969)"
   d="m 271.035,209.493 c -0.334,-0.098 -0.664,-0.199 -0.985,-0.331 -0.216,-0.352 -0.431,-0.706 -0.669,-1.043 0.094,-0.017 0.183,-0.037 0.276,-0.057 -0.011,0.002 -0.018,0.003 0.005,-0.002 0.504,-0.115 1.075,0.009 1.569,0.099 0.224,0.039 0.457,0.112 0.688,0.1 0.171,0.009 -0.079,0.267 -0.118,0.314 -0.185,0.221 -0.433,0.814 -0.766,0.92 z"
   id="path7727" />
						<path
   style="opacity:0.5;fill:#817858"
   d="m 272.93,206.302 c -0.053,-0.003 -0.106,-0.005 -0.157,-0.009 0.085,-0.005 0.169,-0.005 0.254,-0.013 0.196,-0.018 0.33,0.141 0.444,0.266 0.143,0.156 0.297,0.302 0.469,0.433 0.154,0.118 0.302,0.251 0.438,0.387 0.063,0.063 0.156,0.109 0.225,0.162 0.077,0.06 0.138,0.125 0.185,0.208 0.003,0.004 -0.006,0.012 -0.01,0.006 -0.13,-0.124 -0.276,-0.242 -0.44,-0.323 -0.073,-0.034 -0.147,-0.059 -0.218,-0.101 -0.08,-0.05 -0.156,-0.11 -0.232,-0.162 -0.154,-0.106 -0.302,-0.218 -0.429,-0.351 -0.137,-0.213 -0.227,-0.477 -0.529,-0.503 z"
   id="path7728" />
						<path
   style="opacity:0.2;fill:#f6c2a4"
   d="m 269.494,207.916 c 0.118,-0.128 0.25,-0.241 0.366,-0.37 0.13,-0.142 0.228,-0.305 0.362,-0.447 0.104,-0.111 0.204,-0.221 0.298,-0.341 0.09,-0.115 0.219,-0.169 0.361,-0.21 0.343,-0.095 0.682,-0.2 1.018,-0.319 0.079,-0.026 0.146,-0.058 0.232,-0.052 0.072,0.006 0.145,0.038 0.21,0.062 0.202,0.072 0.418,0.049 0.627,0.052 0.008,0 0.01,0.011 0.002,0.013 -0.16,0.034 -0.324,0.027 -0.488,0.014 -0.066,-0.003 -0.133,-0.015 -0.197,-0.032 -0.119,-0.034 -0.196,-0.022 -0.308,0.026 -0.313,0.132 -0.638,0.275 -0.968,0.364 -0.17,0.045 -0.289,0.1 -0.391,0.239 -0.088,0.123 -0.191,0.229 -0.299,0.337 -0.122,0.125 -0.262,0.235 -0.393,0.354 -0.128,0.117 -0.258,0.239 -0.393,0.348 -0.025,0.02 -0.065,-0.013 -0.039,-0.038 z"
   id="path7729" />
						<path
   style="opacity:0.2;fill:#f6c2a4"
   d="m 272.366,208.054 c 0.025,-0.002 0.049,-0.016 0.074,-0.024 0.025,-0.006 0.045,-0.016 0.066,-0.004 0.002,0.002 0.002,0.002 0.002,0.002 0.001,-0.002 0.004,-0.004 0.007,-0.007 0.065,-0.04 0.117,-0.081 0.198,-0.087 0.079,-0.007 0.122,-0.015 0.152,-0.094 0.012,-0.036 0.02,-0.074 0.03,-0.111 0.047,-0.184 0.185,-0.335 0.227,-0.515 10e-4,-0.006 0.012,-0.005 0.012,0.002 0.006,0.068 0.038,0.15 -0.038,0.2 -0.134,0.085 -0.151,0.243 -0.172,0.378 -0.01,0.07 -0.036,0.143 -0.09,0.195 -0.02,0.02 -0.059,0.018 -0.086,0.022 -0.077,0.009 -0.147,0.018 -0.222,0.038 -0.004,0.001 -0.009,0.001 -0.012,-0.001 -0.001,0.005 -0.004,0.009 -0.008,0.012 -0.02,0.012 -0.04,0.007 -0.061,0.006 -0.027,-0.001 -0.053,-0.006 -0.081,-0.007 -10e-4,0 -10e-4,-0.005 0.002,-0.005 z"
   id="path7730" />
						<path
   style="opacity:0.2;fill:#f6c2a4"
   d="m 270.219,207.996 c 0.313,-0.055 0.664,0.055 0.972,0.104 0.338,0.054 0.745,0.162 1.065,-0.01 0.016,-0.008 0.027,0.011 0.015,0.022 -0.124,0.072 -0.254,0.17 -0.403,0.183 -0.166,0.013 -0.346,-0.051 -0.504,-0.086 -0.19,-0.042 -0.382,-0.078 -0.572,-0.122 -0.188,-0.041 -0.383,-0.045 -0.57,-0.081 -0.002,0 -0.008,-0.008 -0.003,-0.01 z"
   id="path7731" />
						<path
   style="opacity:0.2;fill:#f6c2a4"
   d="m 272.969,206.339 c -0.009,-0.009 0.001,-0.025 0.013,-0.023 0.114,0.031 0.199,0.081 0.203,0.2 10e-4,0.085 -0.05,0.17 -0.049,0.259 10e-4,0.106 0.064,0.195 0.064,0.297 0,0.005 -0.007,0.006 -0.01,0.001 -0.029,-0.063 -0.063,-0.107 -0.084,-0.173 -0.019,-0.063 -0.02,-0.131 -0.018,-0.196 0.002,-0.052 0.026,-0.105 0.041,-0.155 0.039,-0.134 -0.086,-0.151 -0.16,-0.21 z"
   id="path7732" />
						<path
   style="opacity:0.5;fill:#817858"
   d="m 273.059,208.107 c 0.157,0.081 0.34,0.146 0.456,0.278 0.112,0.128 0.188,0.281 0.301,0.411 0.009,0.009 -0.007,0.022 -0.017,0.016 -0.131,-0.081 -0.193,-0.221 -0.277,-0.34 -0.064,-0.093 -0.139,-0.155 -0.245,-0.2 -0.093,-0.041 -0.153,-0.086 -0.228,-0.148 -0.013,-0.008 -10e-4,-0.023 0.01,-0.017 z"
   id="path7733" />
						<path
   style="opacity:0.1;fill:#3e120b"
   d="m 269.889,207.818 c 0.179,-0.072 0.359,-0.139 0.545,-0.196 0.1,-0.03 0.188,-0.052 0.29,-0.031 0.021,0.004 0.039,0.006 0.058,0.006 0.117,0.071 0.227,0.148 0.352,0.208 0.145,0.071 0.292,0.132 0.434,0.206 0.103,0.052 0.185,0.083 0.283,0.01 0.064,-0.047 0.118,-0.064 0.195,-0.085 0.076,-0.022 0.146,-0.066 0.223,-0.083 0.117,-0.025 0.251,0.021 0.358,-0.041 0.105,-0.059 0.142,-0.188 0.188,-0.285 0.076,-0.162 0.235,-0.333 0.194,-0.52 -0.016,-0.075 -0.076,-0.13 -0.074,-0.21 0.006,-0.197 0.258,-0.371 0.031,-0.544 l 0.196,0.015 1.717,1.422 -0.085,0.867 -0.629,0.593 -3.114,0.349 c -0.34,-0.099 -0.68,-0.202 -1.007,-0.338 l -0.652,-1.027 -0.036,-0.043 c 0.175,-0.097 0.347,-0.195 0.533,-0.273 z"
   id="path7734" />
						<path
   style="opacity:0.3;fill:#3e120b"
   d="m 270.044,209.158 -0.439,-0.69 c 0.111,0.122 0.208,0.254 0.316,0.378 0.114,0.133 0.245,0.266 0.419,0.328 0.242,0.082 0.493,0.08 0.742,0.015 0.227,-0.061 0.457,-0.198 0.692,-0.096 0.164,0.072 0.348,-0.022 0.507,-0.073 0.262,-0.086 0.52,-0.183 0.788,-0.244 0.051,-0.012 0.145,-0.012 0.181,-0.054 0.032,-0.038 0.064,-0.077 0.09,-0.118 0.047,-0.07 0.082,-0.143 0.104,-0.222 0.267,0.082 0.542,0.139 0.83,0.133 0.03,-10e-4 0.053,-0.012 0.066,-0.029 0.033,-0.013 0.056,-0.046 0.06,-0.084 0.021,-0.205 0.168,-0.377 0.23,-0.569 0.046,-0.142 -0.019,-0.251 -0.097,-0.369 -0.031,-0.047 -0.064,-0.097 -0.098,-0.143 l 0.443,0.368 -0.085,0.867 -0.629,0.593 -3.114,0.349 c -0.339,-0.1 -0.679,-0.203 -1.006,-0.34 z"
   id="path7735" />
						
							<linearGradient
   id="linearGradient7792"
   gradientUnits="userSpaceOnUse"
   x1="1642.0446"
   y1="196.8905"
   x2="1647.5808"
   y2="196.8905"
   gradientTransform="matrix(-0.9995,0.0322,0.0322,0.9995,1909.7698,-41.7539)">
							<stop
   offset="0.0061"
   style="stop-color:#8A3F29"
   id="stop7735" />
							<stop
   offset="1"
   style="stop-color:#A56951"
   id="stop7736" />
						</linearGradient>
						<path
   style="opacity:0.3;fill:url(#linearGradient7970)"
   d="m 269.358,208.081 c 0.169,0.118 0.349,0.223 0.52,0.339 0.108,0.073 0.2,0.185 0.321,0.242 0.124,0.058 0.234,0.045 0.37,0.045 0.251,0.003 0.522,0.058 0.771,-0.01 0.129,-0.037 0.228,-0.111 0.339,-0.176 0.104,-0.064 0.214,-0.12 0.32,-0.176 -0.013,0.081 -0.028,0.16 -0.059,0.236 -0.041,0.105 -0.087,0.224 0.032,0.294 0.131,0.079 0.395,-0.042 0.515,-0.093 0.181,-0.078 0.355,-0.165 0.554,-0.196 0.071,-0.011 0.075,-0.102 0.034,-0.142 -0.135,-0.135 -0.295,-0.264 -0.48,-0.333 -0.017,-0.006 -0.035,-0.01 -0.053,-0.016 0.107,-0.042 0.213,-0.086 0.322,-0.124 0.349,0.131 0.71,0.222 1.057,0.356 0.049,0.019 0.119,0.004 0.129,-0.054 0.045,-0.255 0.194,-0.46 0.321,-0.683 0.024,-0.044 0.004,-0.087 -0.035,-0.115 -0.381,-0.25 -0.637,-0.619 -0.894,-0.977 l 1.438,1.191 -0.085,0.867 -0.629,0.593 -3.114,0.349 c -0.34,-0.099 -0.68,-0.202 -1.007,-0.338 l -0.652,-1.027 -0.039,-0.046 z"
   id="path7838" />
					</g>
					<path
   style="opacity:0.3;fill:#fcb381"
   d="m 271.686,206.79 c 0.079,-0.084 0.239,-0.073 0.342,-0.062 0.092,0.01 0.182,0.031 0.254,0.08 0.087,0.031 0.149,0.094 0.142,0.204 -0.016,0.249 -0.31,0.286 -0.497,0.234 -0.186,-0.05 -0.426,-0.262 -0.241,-0.456 z"
   id="path7860" />
					<path
   style="opacity:0.3;fill:#fcb381"
   d="m 271.275,207.695 c -0.003,-0.065 0.048,-0.107 0.108,-0.115 0.012,0 0.023,-0.003 0.035,-0.004 0.044,-0.028 0.117,-0.019 0.152,0.019 0.048,0.053 0.056,0.121 0.019,0.182 -0.04,0.066 -0.108,0.092 -0.182,0.081 -0.041,-0.007 -0.072,-0.04 -0.086,-0.077 -0.026,-0.02 -0.044,-0.048 -0.046,-0.086 z"
   id="path7908" />
				</g>
			</g></g></svg>
