<?xml version="1.0" encoding="UTF-8" standalone="no"?>
<!-- Created with Inkscape (http://www.inkscape.org/) -->

<svg
   width="241.15936"
   height="50.760643"
   viewBox="0 0 63.806747 13.43042"
   version="1.1"
   id="svg1"
   xml:space="preserve"
   inkscape:version="1.3.2 (091e20ef0f, 2023-11-25)"
   sodipodi:docname="GameTyrolienne.svg"
   xmlns:inkscape="http://www.inkscape.org/namespaces/inkscape"
   xmlns:sodipodi="http://sodipodi.sourceforge.net/DTD/sodipodi-0.dtd"
   xmlns:xlink="http://www.w3.org/1999/xlink"
   xmlns="http://www.w3.org/2000/svg"
   xmlns:svg="http://www.w3.org/2000/svg"><sodipodi:namedview
     id="namedview1"
     pagecolor="#505050"
     bordercolor="#eeeeee"
     borderopacity="1"
     inkscape:showpageshadow="0"
     inkscape:pageopacity="0"
     inkscape:pagecheckerboard="0"
     inkscape:deskcolor="#d1d1d1"
     inkscape:document-units="mm"
     inkscape:zoom="0.23874278"
     inkscape:cx="622.00834"
     inkscape:cy="561.27352"
     inkscape:window-width="1366"
     inkscape:window-height="706"
     inkscape:window-x="-8"
     inkscape:window-y="-8"
     inkscape:window-maximized="1"
     inkscape:current-layer="layer2"
     showgrid="false"
     showguides="false" /><defs
     id="defs1"><linearGradient
       id="linearGradient182"
       inkscape:collect="always"><stop
         style="stop-color:#97eafa;stop-opacity:1;"
         offset="0"
         id="stop182" /><stop
         style="stop-color:#b8f0fc;stop-opacity:1;"
         offset="1"
         id="stop185" /></linearGradient><linearGradient
       inkscape:collect="always"
       xlink:href="#linearGradient182"
       id="linearGradient569"
       x1="151.74513"
       y1="26.568579"
       x2="215.5519"
       y2="26.568579"
       gradientUnits="userSpaceOnUse"
       gradientTransform="matrix(-1,0,0,1,352.88996,3.3247078)" /></defs><g
     inkscape:groupmode="layer"
     id="layer2"
     inkscape:label="Layer 2"
     transform="translate(-137.33806,-23.178078)"><path
       style="opacity:0.595745;fill:url(#linearGradient569);fill-opacity:1;fill-rule:evenodd;stroke:none;stroke-width:0.264583px;stroke-linecap:butt;stroke-linejoin:miter;stroke-opacity:1"
       d="m 156.73219,23.272955 c 3.39492,-0.598741 6.21916,1.816367 9.42,2.216472 0.73312,0.09164 1.47765,0 2.21648,0 1.10823,0 2.21647,0 3.3247,0 3.32471,0 6.64942,0 9.97413,0 1.11463,0 2.89988,-0.163158 3.87882,0 0.4074,0.0679 0.70755,0.453947 1.10824,0.554118 0.53757,0.134393 1.10824,0 1.66235,0 0.92353,0 1.84706,0 2.77059,0 2.21647,0 4.43295,0 6.64942,0 0.30928,0 2.51693,-0.08455 2.77059,0 0.24781,0.0826 0.4373,0.320481 0.55412,0.554118 0.30212,0.604239 -0.29666,0.722041 -0.55412,1.108236 -0.33746,0.50618 -0.47299,1.344728 -1.10824,1.662354 -0.16521,0.0826 -0.36941,0 -0.55412,0 -0.1847,0 -0.36941,0 -0.55411,0 -0.55412,0 -1.10824,0 -1.66236,0 -1.66235,0 -3.32471,0 -4.98706,0 -0.36941,0 -0.74385,-0.06073 -1.10824,0 -0.929,0.154834 -1.84158,0.399283 -2.77058,0.554118 -0.68457,0.114093 -1.56975,-0.215577 -2.21648,0 -0.89656,0.298854 -0.17276,1.108236 -1.66235,1.108236 -1.84706,0 -3.69412,0 -5.54118,0 -0.55412,0 -1.11251,-0.06873 -1.66236,0 -0.93454,0.116819 -1.83202,0.475903 -2.77059,0.554117 -1.28847,0.107373 -2.59119,-0.117057 -3.87882,0 -3.16805,0.288004 -1.23655,0.412184 -3.32471,1.108236 -0.35045,0.116819 -0.74985,-0.0896 -1.10823,0 -0.56666,0.141663 -1.09571,0.412457 -1.66236,0.55412 -0.17919,0.0448 -0.36941,0 -0.55412,0 -1.26799,0 -1.42871,-0.116819 -2.77059,0.554117 -1.18212,0.591058 -0.29553,0.517175 0,1.108236 0.0826,0.165206 0,0.369411 0,0.554117 0,0.573246 0.13061,0.765873 -0.55411,1.108236 -0.16521,0.0826 -0.36941,0 -0.55412,0 -0.36941,0 -0.73883,0 -1.10824,0 -2.16463,0 -0.0585,0.165206 -2.21647,-0.554117 -0.17523,-0.05841 -0.37889,0.05841 -0.55412,0 -0.39182,-0.130609 -0.71641,-0.423513 -1.10823,-0.554119 -0.35046,-0.116819 -0.77783,0.165206 -1.10824,0 -0.46727,-0.233635 -0.61262,-0.943031 -1.10824,-1.108237 -0.35045,-0.116816 -0.73882,0 -1.10823,0 -0.92353,0 -1.85164,0.0919 -2.77059,0 -0.93715,-0.09371 -1.84159,-0.399282 -2.77059,-0.554116 -0.18219,-0.03037 -0.38891,0.0826 -0.55412,0 -0.23364,-0.116819 -0.34515,-0.397391 -0.55412,-0.554117 -0.53277,-0.399582 -1.06669,-0.810408 -1.66235,-1.108237 -0.16521,-0.0826 -0.37493,0.0448 -0.55412,0 -0.56665,-0.141663 -1.13993,-0.292904 -1.66235,-0.554119 -0.23364,-0.116819 -0.36942,-0.369411 -0.55412,-0.554117 -0.18471,-0.184706 -0.4373,-0.320482 -0.55412,-0.55412 -0.0826,-0.165205 0.0826,-0.388911 0,-0.554116 -1.26799,-2.535981 0.22967,2.351354 -1.10823,-1.662354 -0.0584,-0.175228 0.0826,-0.388912 0,-0.554118 -0.15395,-0.307888 -1.10824,-0.929565 -1.10824,-1.108236 0,-0.261214 0.36941,-0.369412 0.55412,-0.554118 0.1847,-0.184706 0.36941,-0.369412 0.55412,-0.554118 0.1847,-0.184706 0.32048,-0.4373 0.55411,-0.554118 0.16521,-0.0826 0.36941,0 0.55412,0 0.36941,0 0.73882,0 1.10824,0 1.25188,0 -0.24781,0.0826 1.66235,-0.554118 0.35046,-0.116819 0.73882,0 1.10824,0 1.29294,0 2.58588,0 3.87882,0 1.29294,0 2.58589,0 3.87883,0 0.50372,0 1.79315,0.120949 2.21647,0 1.12324,-0.320925 2.21647,-0.738824 3.32471,-1.108236 z"
       id="path567" /></g></svg>
