<?xml version="1.0" encoding="UTF-8" standalone="no"?>
<!-- Created with Inkscape (http://www.inkscape.org/) -->

<svg
   width="397.99722"
   height="45.745651"
   viewBox="0 0 105.30343 12.103537"
   version="1.1"
   id="svg1"
   xml:space="preserve"
   inkscape:version="1.3.2 (091e20ef0f, 2023-11-25)"
   sodipodi:docname="GameTyrolienne.svg"
   xmlns:inkscape="http://www.inkscape.org/namespaces/inkscape"
   xmlns:sodipodi="http://sodipodi.sourceforge.net/DTD/sodipodi-0.dtd"
   xmlns:xlink="http://www.w3.org/1999/xlink"
   xmlns="http://www.w3.org/2000/svg"
   xmlns:svg="http://www.w3.org/2000/svg"><sodipodi:namedview
     id="namedview1"
     pagecolor="#505050"
     bordercolor="#eeeeee"
     borderopacity="1"
     inkscape:showpageshadow="0"
     inkscape:pageopacity="0"
     inkscape:pagecheckerboard="0"
     inkscape:deskcolor="#d1d1d1"
     inkscape:document-units="mm"
     inkscape:zoom="0.23874278"
     inkscape:cx="622.00834"
     inkscape:cy="561.27352"
     inkscape:window-width="1366"
     inkscape:window-height="706"
     inkscape:window-x="-8"
     inkscape:window-y="-8"
     inkscape:window-maximized="1"
     inkscape:current-layer="layer2"
     showgrid="false"
     showguides="false" /><defs
     id="defs1"><linearGradient
       id="linearGradient182"
       inkscape:collect="always"><stop
         style="stop-color:#97eafa;stop-opacity:1;"
         offset="0"
         id="stop182" /><stop
         style="stop-color:#b8f0fc;stop-opacity:1;"
         offset="1"
         id="stop185" /></linearGradient><linearGradient
       inkscape:collect="always"
       xlink:href="#linearGradient182"
       id="linearGradient193"
       x1="156.6727"
       y1="53.539921"
       x2="262.82108"
       y2="53.539921"
       gradientUnits="userSpaceOnUse"
       gradientTransform="matrix(1,0,0,0.53480285,-26.653353,20.174666)" /></defs><g
     inkscape:groupmode="layer"
     id="layer2"
     inkscape:label="Layer 2"
     transform="translate(-130.45715,-42.666939)"><path
       style="opacity:0.598784;fill:url(#linearGradient193);fill-rule:evenodd;stroke:none;stroke-width:0.193796;stroke-linecap:butt;stroke-linejoin:miter;stroke-dasharray:none;stroke-opacity:1"
       d="m 224.3621,44.771206 c -7.41167,0.440811 -14.9435,0.899003 -22.37359,0.477156 -2.01763,-0.538628 -6.90507,-0.619665 -7.43096,-0.499104 -1.37999,-0.288538 -7.12143,-0.509695 -9.95886,-1.021094 -3.21234,-0.318744 -6.61005,0.137186 -9.67836,-0.594813 -6.69995,-0.770267 -13.60342,-0.333589 -20.39643,-0.419431 -4.05696,0.392477 -8.35258,0.843791 -12.17126,1.760941 -2.95582,0.486835 -5.71652,1.315908 -8.37887,2.130724 -1.61033,0.584534 -5.95632,3.890358 -1.70148,3.40318 1.11271,0.884463 2.31498,1.702411 6.39344,2.12766 3.89467,0.562227 12.99638,-0.664177 16.96205,-0.05871 3.64699,0.718004 9.09865,0.135913 12.60707,1.076392 4.15101,0.455764 8.12308,1.183924 12.47317,1.13874 5.65581,0.4706 11.95911,1.02503 17.15049,-0.670595 4.3053,-1.252845 9.28935,-1.409734 13.92731,-2.121056 3.38576,-1.265145 7.95796,-0.615712 11.78843,-1.100303 3.55228,-0.289718 6.94959,-0.975035 10.36089,-1.487467 4.98895,-1.357116 -1.56822,-2.30136 -4.00125,-2.746523 -1.43534,-1.086409 -3.88888,-0.609991 -5.57179,-1.3957 z"
       id="path191"
       sodipodi:nodetypes="ccccccccccccccccccc" /></g></svg>
