<?xml version="1.0" encoding="UTF-8" standalone="no"?>
<!-- Created with Inkscape (http://www.inkscape.org/) -->

<svg
   width="351.64532"
   height="49.768852"
   viewBox="0 0 93.039491 13.168009"
   version="1.1"
   id="svg1"
   xml:space="preserve"
   inkscape:version="1.3.2 (091e20ef0f, 2023-11-25)"
   sodipodi:docname="GameTyrolienne.svg"
   xmlns:inkscape="http://www.inkscape.org/namespaces/inkscape"
   xmlns:sodipodi="http://sodipodi.sourceforge.net/DTD/sodipodi-0.dtd"
   xmlns:xlink="http://www.w3.org/1999/xlink"
   xmlns="http://www.w3.org/2000/svg"
   xmlns:svg="http://www.w3.org/2000/svg"><sodipodi:namedview
     id="namedview1"
     pagecolor="#505050"
     bordercolor="#eeeeee"
     borderopacity="1"
     inkscape:showpageshadow="0"
     inkscape:pageopacity="0"
     inkscape:pagecheckerboard="0"
     inkscape:deskcolor="#d1d1d1"
     inkscape:document-units="mm"
     inkscape:zoom="0.23874278"
     inkscape:cx="622.00834"
     inkscape:cy="561.27352"
     inkscape:window-width="1366"
     inkscape:window-height="706"
     inkscape:window-x="-8"
     inkscape:window-y="-8"
     inkscape:window-maximized="1"
     inkscape:current-layer="layer2"
     showgrid="false"
     showguides="false" /><defs
     id="defs1"><linearGradient
       id="linearGradient567"
       inkscape:collect="always"><stop
         style="stop-color:#97eafa;stop-opacity:1;"
         offset="0"
         id="stop566" /><stop
         style="stop-color:#b8f0fc;stop-opacity:1;"
         offset="1"
         id="stop567" /></linearGradient><linearGradient
       inkscape:collect="always"
       xlink:href="#linearGradient567"
       id="linearGradient185"
       x1="10.359071"
       y1="54.031574"
       x2="104.34362"
       y2="54.031574"
       gradientUnits="userSpaceOnUse"
       gradientTransform="matrix(1.0006713,0,0,0.58460672,10.663707,8.0551218)" /></defs><g
     inkscape:groupmode="layer"
     id="layer2"
     inkscape:label="Layer 2"
     transform="translate(-21.327656,-33.144321)"><path
       style="opacity:0.592705;fill:url(#linearGradient185);fill-rule:evenodd;stroke:none;stroke-width:0.202367px;stroke-linecap:butt;stroke-linejoin:miter;stroke-opacity:1"
       d="m 84.965361,33.646465 c -4.689034,-0.951126 -9.146514,0.700505 -13.678635,0.94276 -4.962118,0.548232 -9.964564,0.913693 -15.01111,1.012264 -3.532009,-0.02976 -7.072765,4.85e-4 -10.593266,-0.0067 -4.483408,-0.567261 -9.082774,-0.237935 -13.631845,-0.335862 -3.194043,0.06987 -6.581716,-0.05671 -9.564097,0.700025 -4.019976,2.134996 3.495515,2.844574 6.208425,2.53617 3.315605,-0.232083 6.06563,1.399625 9.433309,1.025523 2.72762,0.0121 5.626374,-0.278857 8.227089,0.226453 2.982541,0.169607 4.11376,0.942679 7.576813,0.716302 1.842096,-0.250732 6.046496,0.0842 2.571385,1.072928 -3.692837,1.009517 -7.776907,0.801823 -11.704822,1.226482 -2.619438,0.05606 -5.200929,0.741205 -7.793929,0.586039 3.019826,0.367934 6.033248,0.432983 9.029558,0.834198 3.836273,1.242144 8.372807,1.419987 12.590306,1.649334 3.743641,0.804448 7.774716,0.325795 11.666967,0.447832 10.066523,0 20.133042,0 30.199581,0 3.10626,-0.734278 6.71137,0.108749 9.73237,-0.98491 1.58273,0.02865 4.57096,-0.130257 4.09241,-1.335593 -2.93122,0.02876 -6.2042,0.403578 -8.83437,-0.594966 -4.0066,0.286685 -7.681429,-0.928952 -11.626529,-1.024681 -4.28794,-0.569553 -0.66043,-2.455903 1.80375,-2.813338 3.98033,-1.231392 8.698809,-1.283913 12.595229,-2.640803 -3.47388,-0.897009 -7.45735,-1.049977 -10.620019,-2.357994 -3.66757,-0.309765 -7.29156,-1.637115 -10.80756,-1.340772 -0.62959,0.140528 -1.22962,0.321476 -1.86101,0.459355 z"
       id="path182" /></g></svg>
