<?xml version="1.0" encoding="UTF-8" standalone="no"?>
<!-- Created with Inkscape (http://www.inkscape.org/) -->

<svg
   width="126.91272"
   height="199.07358"
   viewBox="0 0 33.57899 52.671551"
   version="1.1"
   id="svg1"
   xml:space="preserve"
   inkscape:version="1.3.2 (091e20ef0f, 2023-11-25)"
   sodipodi:docname="GameTyrolienne.svg"
   xmlns:inkscape="http://www.inkscape.org/namespaces/inkscape"
   xmlns:sodipodi="http://sodipodi.sourceforge.net/DTD/sodipodi-0.dtd"
   xmlns:xlink="http://www.w3.org/1999/xlink"
   xmlns="http://www.w3.org/2000/svg"
   xmlns:svg="http://www.w3.org/2000/svg"><sodipodi:namedview
     id="namedview1"
     pagecolor="#505050"
     bordercolor="#eeeeee"
     borderopacity="1"
     inkscape:showpageshadow="0"
     inkscape:pageopacity="0"
     inkscape:pagecheckerboard="0"
     inkscape:deskcolor="#d1d1d1"
     inkscape:document-units="mm"
     inkscape:zoom="0.23874278"
     inkscape:cx="622.00834"
     inkscape:cy="561.27352"
     inkscape:window-width="1366"
     inkscape:window-height="706"
     inkscape:window-x="-8"
     inkscape:window-y="-8"
     inkscape:window-maximized="1"
     inkscape:current-layer="layer2"
     showgrid="false"
     showguides="false" /><defs
     id="defs1"><linearGradient
       id="linearGradient24"
       inkscape:collect="always"><stop
         style="stop-color:#e16663;stop-opacity:1;"
         offset="0"
         id="stop25" /><stop
         style="stop-color:#c60002;stop-opacity:1;"
         offset="0.3108108"
         id="stop27" /><stop
         style="stop-color:#ce0003;stop-opacity:1;"
         offset="0.63581079"
         id="stop29" /><stop
         style="stop-color:#f84b47;stop-opacity:1;"
         offset="0.704054"
         id="stop28" /><stop
         style="stop-color:#d30f0f;stop-opacity:1;"
         offset="1"
         id="stop26" /></linearGradient><linearGradient
       inkscape:collect="always"
       xlink:href="#linearGradient24"
       id="linearGradient26"
       x1="99.927116"
       y1="178.052"
       x2="102.42059"
       y2="214.62379"
       gradientUnits="userSpaceOnUse"
       gradientTransform="matrix(1.4187575,0,0,1.4187575,180.26248,-209.43542)" /></defs><g
     inkscape:groupmode="layer"
     id="layer2"
     inkscape:label="Layer 2"
     transform="translate(-307.29432,-43.075562)"><path
       id="path18"
       style="fill:url(#linearGradient26);fill-opacity:1;fill-rule:evenodd;stroke:#7d220e;stroke-width:0.375379px;stroke-linecap:butt;stroke-linejoin:miter;stroke-opacity:1"
       d="m 333.58066,78.067194 c 1.8439,3.00893 2.35053,6.2137 3.43584,9.27127 0.61897,1.74383 3.83555,3.28032 3.66092,3.79928 -0.25219,0.74943 -1.04986,1.55163 -1.61377,1.81401 -0.56385,0.52794 -1.90407,-0.071 -2.66964,-0.081 -0.65314,-0.009 -2.12492,1.47201 -3.0546,1.50838 -0.72474,0.0284 -1.85457,-1.37296 -3.3086,-1.39649 -0.79031,-0.0123 -1.73608,1.65409 -2.62685,1.65823 -0.71813,0.003 -1.58184,-0.39641 -2.37995,-0.44771 -0.47428,-0.0305 -1.21505,1.03536 -1.83101,1.27327 -0.50395,0.19465 -1.47399,-0.90295 -2.25752,-0.79877 -0.7515,0.1 -1.15247,0.6024 -1.90394,0.86695 -0.72414,0.25492 -1.51112,-1.47356 -2.33377,-1.56179 -0.62648,-0.0672 -0.94805,0.26199 -1.16809,0.66733 -0.22005,0.40535 -0.42851,0.70646 -0.67171,0.72962 -0.24322,0.0232 -0.52116,-0.23164 -0.75278,-0.45167 -0.23162,-0.22006 -0.41691,-0.40534 -0.66013,-0.4864 -0.2432,-0.081 -0.54432,-0.058 -0.89177,-0.0107 -0.34744,0.0465 -0.74119,0.11579 -1.18128,0.081 -0.4401,-0.0348 -0.92649,-0.17372 -1.33182,-0.44009 -0.40535,-0.26637 -0.72962,-0.66011 -0.97284,-0.93807 -0.2432,-0.27797 -0.40533,-0.4401 -0.52115,-0.61381 -0.11579,-0.17373 -0.18528,-0.35902 -0.0926,-0.498 0.0926,-0.1391 0.34744,-0.23162 0.61381,-0.3706 0.26638,-0.1391 0.54431,-0.32427 0.78753,-0.59064 0.2432,-0.26636 0.45167,-0.6138 0.67171,-1.07706 0.22004,-0.46324 0.45166,-1.04231 0.67171,-1.65611 0.22006,-0.61381 0.42851,-1.26235 0.64855,-2.02672 0.22004,-0.76437 0.45167,-1.64451 0.69487,-2.40888 0.24321,-0.76436 0.49799,-1.41291 0.83385,-1.99197 0.33587,-0.57907 0.75278,-1.08863 1.13494,-1.63295 0.3822,-0.54431 0.24103,-1.14707 0.41457,-1.78072 0.13634,-0.49799 -0.25716,-1.13932 -0.25476,-1.62255 l -0.2774,-1.46644 c -0.46067,-0.63815 -0.95945,-0.93247 -1.68907,-1.3494 -0.72963,-0.41693 -1.4245,-0.90333 -2.02672,-1.40133 -0.60224,-0.49799 -1.1118,-1.00755 -1.54031,-1.62137 -0.42849,-0.61381 -0.77591,-1.33182 -1.04229,-2.18884 -0.26637,-0.85703 -0.45166,-1.85301 -0.54432,-2.89532 -0.0926,-1.04232 -0.0926,-2.13093 0.0107,-3.0806 0.10429,-0.94967 0.31269,-1.76034 0.59066,-2.51313 0.27795,-0.75279 0.62538,-1.44764 1.05388,-2.18884 0.42851,-0.74121 0.93809,-1.52872 1.58664,-2.33941 0.64855,-0.8107 1.43606,-1.64453 2.22359,-2.50154 0.78753,-0.85702 1.57504,-1.73718 2.31624,-2.55946 0.7412,-0.82226 1.43606,-1.58662 2.00355,-2.22358 0.56748,-0.63697 1.00755,-1.14653 1.37817,-1.73719 0.37061,-0.59064 0.67171,-1.26235 0.9265,-1.76034 0.2548,-0.498 0.46326,-0.82227 0.72962,-1.08863 0.26636,-0.26637 0.59064,-0.47482 0.94965,-0.59065 0.35903,-0.11579 0.75279,-0.1391 1.16972,0.081 0.41693,0.22004 0.857,0.68327 1.42448,1.20443 0.56749,0.52117 1.26236,1.10021 1.89933,1.69087 0.63697,0.59064 1.216,1.19285 1.89931,1.86456 0.6833,0.67172 1.47081,1.41291 2.26992,2.09621 0.79912,0.6833 1.60979,1.30867 2.42048,1.98039 0.81068,0.67171 1.62135,1.38975 2.36255,2.11937 0.74121,0.72962 1.41292,1.47081 1.96881,2.15412 0.55591,0.68327 0.99598,1.30866 1.37817,2.10777 0.38218,0.79911 0.70646,1.77191 0.92649,2.59418 0.22005,0.82228 0.33586,1.49398 0.28955,2.4205 -0.0463,0.92651 -0.2548,2.10776 -0.60224,3.26589 -0.34744,1.15814 -0.83384,2.29306 -1.4245,3.21958 -0.59064,0.92651 -1.28549,1.64452 -1.92248,2.25833 -0.63696,0.61382 -1.21602,1.12338 -1.73717,1.52871 -0.52116,0.40535 -0.9844,0.70646 -1.44765,0.93809 -0.46326,0.23162 -1.23856,0.5042 -1.1165,0.61504 0.23256,0.21118 0.31571,0.27639 0.58423,0.48826 0.89204,0.59447 1.85724,2.03029 1.89067,2.09662"
       sodipodi:nodetypes="csscssssssssssssccssssccssssssssccssssscssssssssscssssssssssssssssscc" /></g></svg>
