<?xml version="1.0" encoding="UTF-8" standalone="no"?>
<!-- Created with Inkscape (http://www.inkscape.org/) -->

<svg
   width="30.476074"
   height="53.006962"
   viewBox="0 0 8.0634612 14.024759"
   version="1.1"
   id="svg1"
   xml:space="preserve"
   inkscape:version="1.3.2 (091e20ef0f, 2023-11-25)"
   sodipodi:docname="GameTyrolienne.svg"
   xmlns:inkscape="http://www.inkscape.org/namespaces/inkscape"
   xmlns:sodipodi="http://sodipodi.sourceforge.net/DTD/sodipodi-0.dtd"
   xmlns:xlink="http://www.w3.org/1999/xlink"
   xmlns="http://www.w3.org/2000/svg"
   xmlns:svg="http://www.w3.org/2000/svg"><sodipodi:namedview
     id="namedview1"
     pagecolor="#505050"
     bordercolor="#eeeeee"
     borderopacity="1"
     inkscape:showpageshadow="0"
     inkscape:pageopacity="0"
     inkscape:pagecheckerboard="0"
     inkscape:deskcolor="#d1d1d1"
     inkscape:document-units="mm"
     inkscape:zoom="0.23874278"
     inkscape:cx="622.00834"
     inkscape:cy="561.27352"
     inkscape:window-width="1366"
     inkscape:window-height="706"
     inkscape:window-x="-8"
     inkscape:window-y="-8"
     inkscape:window-maximized="1"
     inkscape:current-layer="layer2"
     showgrid="false"
     showguides="false" /><defs
     id="defs1"><inkscape:path-effect
       effect="bspline"
       id="path-effect92"
       is_visible="true"
       lpeversion="1.3"
       weight="33.333333"
       steps="2"
       helper_size="0"
       apply_no_weight="true"
       apply_with_weight="true"
       only_selected="false"
       uniform="false" /><linearGradient
       id="linearGradient45"
       inkscape:collect="always"><stop
         style="stop-color:#f30206;stop-opacity:1;"
         offset="0"
         id="stop45" /><stop
         style="stop-color:#f24743;stop-opacity:1;"
         offset="0.99661016"
         id="stop46" /></linearGradient><linearGradient
       id="linearGradient41"
       inkscape:collect="always"><stop
         style="stop-color:#f1a488;stop-opacity:1;"
         offset="0"
         id="stop41" /><stop
         style="stop-color:#fac1a6;stop-opacity:1;"
         offset="1"
         id="stop42" /></linearGradient><linearGradient
       inkscape:collect="always"
       xlink:href="#linearGradient41"
       id="linearGradient94"
       gradientUnits="userSpaceOnUse"
       x1="83.330315"
       y1="163.63049"
       x2="83.40316"
       y2="168.77315" /><linearGradient
       inkscape:collect="always"
       xlink:href="#linearGradient45"
       id="linearGradient99"
       x1="138.4922"
       y1="138.24429"
       x2="143.76048"
       y2="138.24429"
       gradientUnits="userSpaceOnUse" /></defs><g
     inkscape:groupmode="layer"
     id="layer2"
     inkscape:label="Layer 2"
     transform="translate(-316.39899,-96.148773)"><g
       id="g99"
       transform="matrix(1.5336176,0,0,1.5336176,103.92235,-104.13042)"><path
         style="fill:url(#linearGradient94);fill-rule:evenodd;stroke:#2a1e0b;stroke-width:0.165;stroke-linecap:butt;stroke-linejoin:miter;stroke-dasharray:none;stroke-opacity:1"
         d="m 81.49868,163.96419 c 0,0.86167 0,1.75959 -0.0082,2.54323 -0.0082,0.78365 -0.02449,1.453 -0.03265,1.94278 -0.0082,0.48978 -0.0082,0.79996 0.08979,0.86526 0.09795,0.0653 0.293861,-0.11427 0.514264,-0.31019 0.220402,-0.19591 0.465284,-0.40814 0.734672,-0.56324 0.269387,-0.1551 0.563235,-0.25305 0.848938,-0.31019 0.285704,-0.0571 0.563236,-0.0735 0.759153,-0.0572 0.195917,0.0163 0.310169,0.0653 0.457113,0.12243 0.146943,0.0571 0.326526,0.12245 0.457133,0.18775 0.130606,0.0653 0.212238,0.13061 0.204074,0.049 -0.0082,-0.0816 -0.106119,-0.31019 -0.18775,-0.58773 -0.08163,-0.27755 -0.146934,-0.60406 -0.19591,-0.93874 -0.04898,-0.33468 -0.08163,-0.67752 -0.163257,-1.09383 -0.08163,-0.41632 -0.212235,-0.90609 -0.318353,-1.66592 -0.106118,-0.75984 -0.187745,-1.7897 -0.710181,-2.28404 -0.522436,-0.49434 -1.485642,-0.45311 -1.967256,-0.0198 -0.481614,0.43332 -0.481615,1.25872 -0.481615,2.1204 z"
         id="path90"
         inkscape:path-effect="#path-effect92"
         inkscape:original-d="m 81.49868,163.92793 c 0,0.89793 0,1.79585 0,2.69377 -0.01632,0.66937 -0.03265,1.33872 -0.04898,2.00808 0,0.3102 0,0.62038 0,0.93057 0.195913,-0.17958 0.391819,-0.35916 0.587729,-0.53875 0.244893,-0.21224 0.489776,-0.42447 0.734663,-0.63671 0.293873,-0.098 0.587733,-0.19591 0.881597,-0.29386 0.277546,-0.0163 0.55508,-0.0326 0.83262,-0.049 0.114282,0.049 0.228561,0.0979 0.342842,0.14693 0.179589,0.0653 0.359169,0.13061 0.538755,0.19591 0.08163,0.0653 0.163259,0.13061 0.244888,0.19591 -0.09796,-0.22856 -0.195911,-0.45712 -0.293867,-0.68568 -0.0653,-0.32653 -0.130607,-0.65304 -0.195911,-0.97955 -0.03265,-0.34285 -0.0653,-0.68569 -0.09795,-1.02853 -0.130609,-0.48979 -0.261213,-0.97956 -0.391822,-1.46933 -0.08163,-1.0299 -0.163257,-2.05976 -0.244887,-3.08966 -0.963243,0.0412 -1.92645,0.0824 -2.889676,0.12367 0,0.82541 -1e-6,1.65081 -1e-6,2.47623 z"
         transform="translate(58.132988,-30.830619)"
         sodipodi:nodetypes="scccccccccccccccss" /><path
         style="fill:url(#linearGradient99);fill-rule:evenodd;stroke:#2a1e0b;stroke-width:0.165;stroke-linecap:butt;stroke-linejoin:miter;stroke-dasharray:none;stroke-opacity:1"
         d="m 143.62045,137.59442 c 0.20659,0.36175 0.0346,1.13421 -2e-5,1.27273 -0.0297,0.11879 -0.2129,0.36348 -0.34632,0.51084 -0.14086,0.15557 -0.39827,0.27705 -0.51948,0.27705 -0.12122,0 -0.79334,-0.0355 -1.17751,-0.10389 -0.26196,-0.0466 -0.65802,-0.12119 -0.77922,-0.17316 -0.12123,-0.052 -0.51949,-0.34633 -0.65802,-0.39827 -0.13853,-0.0519 -0.47002,-0.29873 -0.67533,-0.48486 -0.23332,-0.21153 -0.44538,-0.45016 -0.62339,-0.70996 -0.0846,-0.12352 -0.19151,-0.24942 -0.20779,-0.39827 -0.0169,-0.1545 0.0121,-0.33949 0.12121,-0.45023 0.11794,-0.11976 0.70931,-0.42674 0.8182,-0.29869 0.0594,0.0699 0.0581,0.42204 0.0563,0.52814 -0.004,0.237 0.16451,0.32467 0.23377,0.32467 0.0693,0 0.465,-0.0521 0.69265,-0.10389 0.30621,-0.0697 0.90044,-0.27706 0.90044,-0.27706 0,0 0.50707,-0.10641 0.76191,-0.0866 0.23873,0.0186 0.60607,0.13852 0.69265,0.19048 0.0866,0.0519 0.26365,0.15347 0.39827,0.22511 0.10255,0.0546 0.2541,0.055 0.31171,0.15586 z"
         id="path98"
         sodipodi:nodetypes="ssssssssssssssscscss" /></g></g></svg>
