<?xml version="1.0" encoding="UTF-8" standalone="no"?>
<!-- Created with Inkscape (http://www.inkscape.org/) -->

<svg
   width="125.55212"
   height="182.12482"
   viewBox="0 0 33.218997 48.187191"
   version="1.1"
   id="svg1"
   xml:space="preserve"
   inkscape:version="1.3.2 (091e20ef0f, 2023-11-25)"
   sodipodi:docname="GameMountainPeaks.svg"
   xmlns:inkscape="http://www.inkscape.org/namespaces/inkscape"
   xmlns:sodipodi="http://sodipodi.sourceforge.net/DTD/sodipodi-0.dtd"
   xmlns:xlink="http://www.w3.org/1999/xlink"
   xmlns="http://www.w3.org/2000/svg"
   xmlns:svg="http://www.w3.org/2000/svg"><sodipodi:namedview
     id="namedview1"
     pagecolor="#505050"
     bordercolor="#eeeeee"
     borderopacity="1"
     inkscape:showpageshadow="0"
     inkscape:pageopacity="0"
     inkscape:pagecheckerboard="0"
     inkscape:deskcolor="#d1d1d1"
     inkscape:document-units="mm"
     inkscape:zoom="0.67526654"
     inkscape:cx="607.16765"
     inkscape:cy="608.64855"
     inkscape:window-width="1366"
     inkscape:window-height="706"
     inkscape:window-x="-8"
     inkscape:window-y="-8"
     inkscape:window-maximized="1"
     inkscape:current-layer="layer2"
     showgrid="false"
     showguides="false" /><defs
     id="defs1"><linearGradient
       id="linearGradient17"
       inkscape:collect="always"><stop
         style="stop-color:#240f05;stop-opacity:1;"
         offset="0.28202227"
         id="stop4" /><stop
         style="stop-color:#0ba6c8;stop-opacity:1;"
         offset="1"
         id="stop7" /></linearGradient><linearGradient
       id="linearGradient407"
       inkscape:collect="always"><stop
         style="stop-color:#240f05;stop-opacity:1;"
         offset="0.06171245"
         id="stop406" /><stop
         style="stop-color:#0ba6c8;stop-opacity:1;"
         offset="1"
         id="stop407" /></linearGradient><linearGradient
       inkscape:collect="always"
       xlink:href="#linearGradient17"
       id="linearGradient404"
       gradientUnits="userSpaceOnUse"
       x1="91.146553"
       y1="147.28284"
       x2="91.533501"
       y2="199.95454" /><linearGradient
       inkscape:collect="always"
       xlink:href="#linearGradient407"
       id="linearGradient410"
       x1="79.750832"
       y1="142.56288"
       x2="79.320183"
       y2="199.84848"
       gradientUnits="userSpaceOnUse" /></defs><g
     inkscape:groupmode="layer"
     id="layer2"
     inkscape:label="Layer 2"
     transform="translate(-169.80136,-157.08612)"><g
       id="g404"
       transform="matrix(0.70853996,0,0,0.70853996,122.29912,63.163758)"
       inkscape:export-filename="..\Binary\Data\Sprites\GamePeaksMountain\ScrollingPlatformDown.svg"
       inkscape:export-xdpi="96"
       inkscape:export-ydpi="96"><path
         style="fill:url(#linearGradient404);fill-rule:evenodd;stroke:url(#linearGradient410);stroke-width:0.264583px;stroke-linecap:butt;stroke-linejoin:miter"
         d="m 67.980871,148.5 c -0.752026,1.65197 -0.249026,3.53904 -0.391821,5.30793 -0.02721,1.89907 1.612223,3.18976 1.371372,5.22316 -0.04338,2.11091 0.134618,4.27407 -0.19591,6.31719 -0.466814,1.23915 -1.599067,2.39383 -1.567284,3.87015 0.0821,1.31102 -0.200626,2.82395 0.214986,3.96755 0.708657,1.51252 2.89223,2.93436 1.940027,4.50465 0.08682,2.40155 1.52313,2.75023 1.959105,4.89776 0.07139,1.13129 -0.32616,2.07635 -0.195911,3.23435 -0.157189,1.60343 -0.499568,3.16264 -0.391821,4.79797 1.139478,1.42755 1.287868,3.12584 1.175461,4.9051 -0.379112,1.83873 -0.257733,3.06954 2.09671,3.0566 2.558762,1.61798 5.659042,0.83664 8.482446,1.44199 1.566012,0.44932 4.436073,0.548 6.856862,0.19592 1.297563,-0.10364 2.681244,0.19701 3.919843,-0.17887 1.248556,-0.20962 3.215192,-0.67329 4.700208,-1.19251 1.875284,0.4298 3.237646,-0.48588 4.849696,-0.78364 h 5.53355 c 1.665,-0.25025 2.12203,-1.72629 1.9591,-3.18996 0.18586,-1.49831 0.17104,-3.02834 0.58773,-4.45054 0.62495,-2.57441 1.05105,-3.99233 0.68569,-6.46504 0.18026,-2.40061 0.0252,-3.79934 1.48251,-5.40071 0.14222,-2.1824 -0.28186,-4.12674 -0.0132,-6.54982 -0.84349,-1.94251 0.0204,-3.14577 -0.19592,-5.09367 -0.61381,-1.82159 -2.30179,-3.14448 -1.76319,-4.70184 1.25096,-1.41568 1.53296,-3.14009 1.75941,-5.10291 0.0987,-1.80103 0.73973,-3.98048 -0.004,-5.47525 -0.21755,-2.08606 1.76647,-3.70026 0.57778,-5.73564 -0.25905,-0.71647 0.71891,-5.74186 -1.5999,-5.67713 -2.86779,-0.19779 -10.00798,5.18757 -12.879265,4.94673 -2.004116,0.42634 -4.09884,0.40848 -5.972164,1.19657 -2.017137,0.39664 -4.010908,1.50199 -6.226005,1.15436 -2.795268,-0.0777 -5.624263,0.24289 -8.37241,-0.39182 -1.983346,-0.20488 -2.968894,0.24587 -4.545965,-0.77477 -1.24533,-0.59263 -3.273141,-0.79563 -4.178634,0.4875 L 67.981331,148.5 Z"
         id="path206"
         sodipodi:nodetypes="ccccccccccccccccccccccccccccccccccccc" /><path
         style="fill:#240f05;fill-opacity:1;fill-rule:evenodd;stroke:#000000;stroke-width:0.264583px;stroke-linecap:butt;stroke-linejoin:miter;stroke-opacity:1"
         d="m 69.195483,138.18317 -0.08813,7.05982 2.044753,-0.23249 -0.252781,-6.67263 z"
         id="path207"
         sodipodi:nodetypes="ccccc" /><path
         style="fill:#240f05;fill-opacity:1;fill-rule:evenodd;stroke:#000000;stroke-width:0.219142px;stroke-linecap:butt;stroke-linejoin:miter;stroke-opacity:1"
         d="m 72.571356,137.8091 c -1.111136,-0.1912 -3.005775,-0.54421 -3.328076,0.37975 0.05105,0.73974 0.217599,1.49503 0.819091,2.12587 0.05361,-0.79481 0.221885,1.10112 0.567607,1.29182 0.18534,0.66649 0.772135,1.6635 -0.07605,2.13278 -0.367332,1.13931 -2.541297,1.90893 -2.42001,3.25639 -0.302804,0.82711 0.753002,1.21762 1.82883,1.29835 0.645186,0.11731 1.039818,0.32136 0.12356,0.0759 1.640802,0.17494 3.12849,0.74592 4.802881,0.71525 0.828926,0.44424 1.875321,0.2778 2.886848,0.30612 2.307655,0.026 4.639939,-0.0538 6.930685,0.0433 1.684941,0.23791 2.819478,1.28968 4.362853,1.76528 1.563166,0.47557 3.353175,0.60171 5.069495,0.65974 1.207171,-0.056 2.528168,0.22065 3.552528,-0.35558 1.320825,-0.46357 2.500072,-1.47366 3.330682,-2.09721 0.96507,-0.66263 1.32273,-2.05096 2.87091,-1.92665 1.81308,0.0254 3.44842,-0.53436 5.00964,-0.7471 1.459,-0.4744 1.51219,-1.74041 3.05074,-2.08859 -0.13835,-1.18042 0.0423,-2.37017 0.77706,-3.41501 0.5578,-1.11238 -1.10182,-2.49927 -2.71843,-2.47101 -1.36988,-0.7228 -2.76535,-1.52296 -4.41944,-1.8975 -1.3236,0.0879 -2.88138,-0.24904 -3.67634,-0.86069 -1.78406,-0.13751 -3.360366,-0.90786 -5.124309,-1.29906 -1.513281,-0.46395 -2.771189,-1.26694 -4.111759,-1.83188 -1.585335,-0.54278 -3.224842,0.18153 -4.796923,0.27261 -1.295365,0.55715 -3.09333,0.41093 -4.493272,0.9698 -1.727584,0.28117 -3.602477,0.43665 -4.672205,1.5623 -0.815556,0.98689 -1.884247,1.18609 -3.512556,0.97823 -1.103348,-0.002 -1.797278,0.76663 -2.634043,1.15683 z"
         id="path216" /><path
         style="fill:#2d1305;fill-opacity:0.281095;fill-rule:evenodd;stroke:none;stroke-width:0.264583px;stroke-linecap:butt;stroke-linejoin:miter;stroke-opacity:1"
         d="m 102.65699,147.91227 c -0.15219,0.54191 -0.0852,1.11104 -0.0979,1.66528 0.24012,0.24182 0.0454,0.65624 0.0979,0.97504 0.008,0.26278 -0.0129,0.52779 0,0.7881 0.21088,0.236 -0.0174,0.63586 0.3007,0.83053 -0.018,0.36649 -0.0336,0.74307 0.14442,1.07833 0.0966,0.38298 0.0213,0.79007 0.0447,1.18447 -1.9e-4,0.50331 2.5e-4,1.00824 0,1.51053 -0.13308,0.3381 -0.0596,-0.22402 -0.1572,0.17857 -0.12094,0.45103 0.0862,0.9535 -0.13671,1.38866 0.0406,0.59776 -0.24061,1.21925 0,1.76328 0.0207,0.26405 -0.0629,0.55273 0.098,0.78368 0.10285,0.56356 0.25014,1.13077 0.58767,1.56722 0.022,0.32516 -0.0497,0.67245 0.049,0.97951 0.0877,0.26612 0.2822,0.66159 0.49304,0.7547 0.44328,-0.50412 0.95523,-0.95231 1.41715,-1.44032 0.0129,-0.36209 0.14737,-0.69701 0.098,-1.07411 0,-1.47046 0,-2.94091 0,-4.41137 -0.1969,-0.36747 -0.31373,-0.7557 -0.29391,-1.17541 0.0967,-0.46044 -0.18739,-1.06056 -0.29851,-1.32238 0.0118,0.13498 -0.25541,-0.32443 -0.28921,-0.44079 -0.25631,-0.43037 -0.39009,-0.83856 -0.2867,-1.37467 -0.14148,-0.44952 -0.0512,-0.94641 -0.30092,-1.36806 -0.19772,-0.35084 -0.49915,-0.77535 -0.58768,-1.17559 -0.1198,-0.30046 -0.37246,-0.57117 -0.33185,-0.92697 -0.21117,-0.21294 -0.31001,-0.5104 -0.54998,-0.73823 z"
         id="path217" /><path
         style="fill:#2d1305;fill-opacity:0.263682;fill-rule:evenodd;stroke:none;stroke-width:0.264583px;stroke-linecap:butt;stroke-linejoin:miter;stroke-opacity:1"
         d="m 74.528867,149.26553 c -0.117371,0.48181 -0.254261,0.95523 -0.2078,1.46133 0.0011,0.59802 -0.0016,1.19652 0,1.79411 0.08645,0.47379 0.25386,0.94711 0.2078,1.4546 -0.0275,0.46455 -0.454028,0.83368 -0.546376,1.24874 -0.226463,0.28906 -0.223086,0.69947 -0.215548,1.07743 -0.04242,0.30387 0.09788,0.6759 -0.06926,0.92946 -0.143497,0.35947 -0.144734,0.76222 -0.13854,1.1553 4.46e-4,0.26121 -6.23e-4,0.52408 0,0.78419 0.499047,0.38011 0.412686,0.98121 0.555863,1.52365 0.03633,0.49797 0.295887,0.95857 0.275336,1.46168 0.01571,0.44109 0.337845,0.79398 0.277058,1.24006 0.242228,0.34914 0.172017,0.88045 0.207791,1.32055 -0.01123,0.45098 0.03925,0.91216 -0.06926,1.3473 5.77e-4,0.28759 -7.86e-4,0.58088 0,0.86472 0.199933,-0.55444 0.497818,-1.12403 0.76836,-1.62408 0.111323,-0.25555 0.160412,-0.50008 0.230452,-0.43802 0.05332,-0.40991 0.23653,-0.77368 0.178706,-1.20246 -0.0065,-0.35061 0.03394,-0.71865 -0.06927,-1.02997 -0.06236,-0.45327 -0.1757,-0.79244 -0.277061,-1.17758 -0.01524,-0.46726 -0.207885,-0.87535 -0.4156,-1.31612 0.01258,-0.99108 -0.02665,-1.98841 0.02259,-2.97688 3.78e-4,-0.30827 0.143543,-0.0962 0.217767,-0.48769 0.443068,-0.48531 0.615721,-1.04966 0.734009,-1.65987 0.115416,-0.3983 0.20629,-0.81371 0.05974,-1.24052 -0.107655,-0.38957 -0.26601,-0.82175 -0.277342,-1.26115 -0.05327,-0.52996 -0.142756,-1.13826 -0.433193,-1.57548 0.102529,-0.60347 -0.710592,-0.76399 -0.738557,-1.29611 0.04106,-0.17225 -0.195555,-0.2577 -0.277671,-0.37719 z"
         id="path280" /></g></g></svg>
