<?xml version="1.0" encoding="UTF-8" standalone="no"?>
<!-- Created with Inkscape (http://www.inkscape.org/) -->

<svg
   width="365.87561"
   height="80.137512"
   viewBox="0 0 96.804587 21.20305"
   version="1.1"
   id="svg1"
   xml:space="preserve"
   inkscape:version="1.3.2 (091e20ef0f, 2023-11-25)"
   sodipodi:docname="GameTyrolienne.svg"
   xmlns:inkscape="http://www.inkscape.org/namespaces/inkscape"
   xmlns:sodipodi="http://sodipodi.sourceforge.net/DTD/sodipodi-0.dtd"
   xmlns:xlink="http://www.w3.org/1999/xlink"
   xmlns="http://www.w3.org/2000/svg"
   xmlns:svg="http://www.w3.org/2000/svg"><sodipodi:namedview
     id="namedview1"
     pagecolor="#505050"
     bordercolor="#eeeeee"
     borderopacity="1"
     inkscape:showpageshadow="0"
     inkscape:pageopacity="0"
     inkscape:pagecheckerboard="0"
     inkscape:deskcolor="#d1d1d1"
     inkscape:document-units="mm"
     inkscape:zoom="0.47748556"
     inkscape:cx="491.11433"
     inkscape:cy="452.3697"
     inkscape:window-width="1366"
     inkscape:window-height="706"
     inkscape:window-x="-8"
     inkscape:window-y="-8"
     inkscape:window-maximized="1"
     inkscape:current-layer="layer2"
     showgrid="false"
     showguides="false" /><defs
     id="defs1"><linearGradient
       id="linearGradient226"
       inkscape:collect="always"><stop
         style="stop-color:#b6f0fc;stop-opacity:1;"
         offset="0"
         id="stop225" /><stop
         style="stop-color:#90e6fa;stop-opacity:1;"
         offset="0.5"
         id="stop227" /><stop
         style="stop-color:#b8f0fc;stop-opacity:1;"
         offset="1"
         id="stop226" /></linearGradient><linearGradient
       inkscape:collect="always"
       xlink:href="#linearGradient226"
       id="linearGradient39"
       gradientUnits="userSpaceOnUse"
       x1="4.6481853"
       y1="22.43536"
       x2="101.62703"
       y2="22.43536" /></defs><g
     inkscape:groupmode="layer"
     id="layer2"
     inkscape:label="Layer 2"
     transform="translate(-262.24726,-84.145859)"><g
       id="g34"
       transform="matrix(1.0004155,0,0,0.71937113,256.53415,78.608408)"
       inkscape:export-filename="..\Binary\Data\Sprites\GameZipLine\ScrollingCloud.svg"
       inkscape:export-xdpi="96"
       inkscape:export-ydpi="96"><path
         style="fill:url(#linearGradient39);fill-rule:evenodd;stroke:none;stroke-width:0.264583px;stroke-linecap:butt;stroke-linejoin:miter;stroke-opacity:1"
         d="M 94.892702,12.606184 C 91.539879,10.197332 86.109267,13.307095 80.076544,9.6819441 77.339458,8.9857541 73.432188,10.02107 70.650043,10.528241 67.572852,11.208894 65.795874,9.4171436 63.16945,8.4502986 60.025421,8.8123896 56.605715,8.6375989 53.324437,9.3221785 50.702026,8.2861857 47.96932,7.4645382 45.128103,7.7576515 c -2.113359,0.030716 -4.228118,-0.063674 -6.339846,0 -2.396565,2.207668 -3.499398,1.2905647 -6.625318,2.4770685 -2.65276,0.964228 -3.756751,-1.0993935 -4.26298,-0.3274185 -1.451991,-0.2720307 -5.197411,-0.2783763 -5.577298,0.5280695 0.07014,0.466487 -6.971469,0.306712 -8.495561,1.114973 -2.785669,2.696856 -4.76741,5.19253 -5.6132854,8.59093 -0.9379632,0.350794 -0.6766387,2.525883 -1.3213113,4.57169 -1.2391998,2.125834 -1.7773281,3.360041 -0.2430877,5.209408 1.2147375,2.619785 3.8688264,4.699601 6.7926524,5.311865 3.071493,1.581531 6.493025,1.451518 9.802408,1.937815 2.594451,-0.29863 5.331981,0.469076 7.786129,-0.600265 1.975878,0.08578 3.788498,-0.81911 5.797238,-0.554119 6.194581,-0.0096 12.392047,0.01444 18.583955,0 2.536105,-1.420781 5.901845,-1.084127 8.936095,-1.081788 3.446321,0.102398 7.93164,1.247256 10.917078,0.303915 2.323418,0.180909 6.313254,1.028013 8.406639,0.104377 3.387229,-1.250973 9.098389,1.163859 12.347581,-0.5521 1.793144,-0.36113 4.273849,-3.437272 5.626069,-4.949443 0.17847,-2.727471 2.3673,-11.181576 -1.18515,-11.71886 z"
         id="path1"
         sodipodi:nodetypes="cccccccccccccccccccccccccc" /><path
         style="fill:#67def9;fill-opacity:1;fill-rule:evenodd;stroke:none;stroke-width:0.264583px;stroke-linecap:butt;stroke-linejoin:miter;stroke-opacity:1"
         d="m 92.077835,18.807388 c -0.724495,0.120749 -1.413671,0.301816 -2.155013,0.19591 -0.144555,-0.02065 -0.246925,-0.177799 -0.391821,-0.19591 -1.177663,-0.147208 -0.978852,0.196189 -1.959102,-0.195911 -0.08575,-0.0343 -0.113308,-0.154609 -0.195911,-0.19591 -0.05841,-0.0292 -0.130606,0 -0.19591,0 -0.195911,0 -0.397669,0.04752 -0.58773,0 -0.0896,-0.0224 -0.108297,-0.166706 -0.195911,-0.19591 -0.123904,-0.0413 -0.267917,0.0413 -0.391821,0 -0.08761,-0.02921 -0.130606,-0.130607 -0.195911,-0.195911 -0.391819,-0.130606 -0.772282,-0.302224 -1.175462,-0.39182 -0.446238,-0.09916 -0.920466,0.07515 -1.371369,0 -0.144037,-0.02401 -0.253294,-0.149734 -0.391822,-0.19591 -0.107093,-0.0357 -1.218231,0 -1.371372,0 -0.653034,0 -1.306068,0 -1.959102,0 -0.195911,0 -0.39379,-0.02771 -0.587732,0 -0.266547,0.03808 -0.518052,0.151645 -0.783641,0.19591 -0.128831,0.02147 -0.261215,0 -0.391821,0 -0.195911,0 -0.391822,0 -0.58773,0 -1.567283,0 -3.134566,0 -4.701847,0 -0.457125,0 -0.914249,0 -1.371372,0 -0.130606,0 -0.267917,-0.0413 -0.391821,0 -0.08761,0.0292 -0.24714,0.119068 -0.195911,0.19591 0.130609,0.19591 0.391821,0.261214 0.587732,0.391821 0.195911,0.130607 0.377132,0.286522 0.58773,0.39182 0.05841,0.02921 0.137501,-0.0292 0.19591,0 0.0826,0.0413 0.113308,0.154609 0.195911,0.195911 0.115591,0.05779 0.452977,-0.04492 0.58773,0 0.13853,0.04618 0.266607,0.120782 0.391821,0.19591 0.195911,0.130607 0.391821,0.261214 0.587732,0.391821 0.0653,0 0.137502,-0.02921 0.195908,0 0.08261,0.0413 0.113308,0.154608 0.195911,0.19591 0.184706,0.09235 0.385233,0.155411 0.587732,0.19591 0.128069,0.02561 0.279826,-0.0672 0.391819,0 0.851143,0.510685 0.237395,0.666383 1.175462,0.783641 0.294965,0.03687 1.852287,0 2.155015,0 0.195908,0 0.391819,0 0.58773,0 0.130606,0 0.262527,0.01847 0.391821,0 0.329636,-0.04709 0.651097,-0.141168 0.979551,-0.19591 0.128831,-0.02147 0.267917,0.0413 0.391821,0 0.138528,-0.04618 0.253291,-0.149734 0.391819,-0.19591 0.09418,-0.03139 1.342573,0 1.371373,0 0.326517,0 0.66081,-0.07083 0.979551,0 0.343297,0.07629 0.638381,0.306528 0.979553,0.39182 0.190061,0.04752 0.391819,0 0.58773,0 0.130606,0 0.261212,0 0.391821,0 0.326517,0 0.653034,0 0.979551,0 0.261213,0 0.525053,-0.03694 0.783641,0 0.204433,0.02921 0.391821,0.130607 0.587732,0.19591 0.19591,0.0653 0.387387,0.145825 0.587729,0.195911 0.06336,0.01584 0.130607,0 0.195911,0 0.261213,0 0.522428,0 0.78364,0 0.391822,0 0.783643,0 1.175462,0 0.261215,0 0.524446,-0.0324 0.783643,0 0.267174,0.0334 0.519615,0.143105 0.78364,0.19591 0.19885,0.03977 0.615635,-0.056 0.78364,0 0.138531,0.04618 0.253291,0.149734 0.391822,0.19591 0.06195,0.02065 0.137501,-0.0292 0.195911,0 0.108854,0.05443 0.328649,0.391821 0.391821,0.391821 0.206507,0 0.387387,-0.145825 0.58773,-0.19591 0.06335,-0.01584 0.137501,0.0292 0.19591,0 0.0826,-0.0413 0.113308,-0.154609 0.195911,-0.195911 0.117081,-0.05854 0.391819,0.128966 0.391819,-0.19591 0,-0.0653 -0.137501,0.0292 -0.195908,0 -0.0826,-0.0413 -0.130609,-0.130607 -0.195911,-0.19591 -0.0653,-0.0653 -0.130609,-0.130607 -0.195911,-0.195911 -0.649753,-0.649752 0.184706,0.09235 -0.391821,-0.19591 -0.165206,-0.0826 -0.238136,-0.289364 -0.391819,-0.39182 -0.121499,-0.081 -0.275003,-0.108297 -0.391821,-0.195911 -0.147765,-0.110823 -0.251582,-0.271615 -0.391822,-0.39182 -0.317479,-0.272126 -0.653034,-0.522428 -0.979551,-0.783641 z"
         id="path2" /><path
         style="fill:#67def9;fill-opacity:1;fill-rule:evenodd;stroke:none;stroke-width:0.264583px;stroke-linecap:butt;stroke-linejoin:miter;stroke-opacity:1"
         d="m 22.333773,18.219657 c 0.522562,0.174187 1.36694,0.489037 1.959103,0.587731 0.128829,0.02147 0.261213,0 0.39182,0 0.19591,0 0.391821,0 0.587731,0 0.783641,0 1.567282,0 2.350925,0 0.587729,0 1.175461,0 1.763191,0 0.391821,0 0.78364,0 1.175462,0 0.0653,0 0.133958,0.02065 0.19591,0 0.138531,-0.04618 0.253291,-0.149734 0.391822,-0.195911 0.160456,-0.05349 0.771194,0.02605 0.979551,0 0.394157,-0.04927 0.780206,-0.156385 1.175461,-0.19591 0.324896,-0.03249 0.657477,0.05368 0.979551,0 0.328454,-0.05474 0.64914,-0.154609 0.979551,-0.19591 0.388795,-0.0486 0.795341,0.09503 1.175462,0 0.34117,-0.08529 0.638382,-0.306528 0.979551,-0.391821 0.190061,-0.04752 0.391822,0 0.587732,0 0.261213,0 0.522428,0 0.783641,0 0.130606,0 0.261215,0 0.391821,0 0.0653,0 0.137501,0.0292 0.195911,0 0.0826,-0.0413 0.195908,-0.103557 0.195908,-0.19591 0,-0.0653 -0.130606,0 -0.195908,0 -0.06531,0 -0.130609,0 -0.195911,0 -0.769697,0 -0.405765,0 -1.175462,0 -0.803992,0 -1.029586,0.07919 -1.763194,-0.19591 -1.089305,-0.40849 -0.444508,-0.391821 -1.175461,-0.391821 -0.261213,0 -0.522428,0 -0.783641,0 -0.0653,0 -0.19591,0.0653 -0.19591,0 0,-0.335991 0.643906,-0.167934 1.175461,-0.19591 1.765581,-0.09293 3.523761,-0.30353 5.289579,-0.391821 0.586997,-0.02935 1.175462,0 1.763192,0 0.135281,0 0.724077,-0.02978 0.783643,0 0.0826,0.0413 0.113305,0.154609 0.195908,0.19591 0.05841,0.02921 0.130609,0 0.19591,0 0.08439,0 1.122448,-0.02651 1.175462,0 0.210598,0.105299 0.36436,0.317364 0.587732,0.391821 0.185857,0.06195 0.395624,-0.03842 0.58773,0 0.143187,0.02864 0.253291,0.149734 0.391821,0.19591 0.06195,0.02065 0.133959,-0.02065 0.195911,0 1.014386,0.338129 -0.453737,0.120288 1.175462,0.391821 0.257659,0.04294 0.530225,-0.06335 0.78364,0 0.141663,0.03542 0.250158,0.160494 0.391821,0.19591 0.126707,0.03168 0.26375,-0.02561 0.391819,0 1.375389,0.275078 -0.375457,0.197547 1.567283,0.391821 0.389877,0.03899 0.783641,0 1.175462,0 0.130606,0 0.26375,-0.02561 0.391822,0 0.202496,0.0405 0.384032,0.16196 0.587729,0.19591 0.178007,0.02967 0.826733,-0.109727 0.979551,0.19591 0.125092,0.250184 -0.363191,0.190185 -0.391819,0.195911 -0.264025,0.0528 -0.5208,0.137501 -0.783643,0.19591 -0.325053,0.07223 -0.654497,0.123676 -0.979551,0.19591 -0.262839,0.05841 -0.518051,0.151645 -0.78364,0.195911 -0.322074,0.05368 -0.654656,-0.03249 -0.979551,0 -0.459475,0.04595 -0.910508,0.167106 -1.371372,0.19591 -4.090138,0 0.432855,-0.0729 -3.330475,0.19591 -0.390826,0.02792 -0.786667,-0.0486 -1.175461,0 -0.144897,0.01811 -0.250159,0.160495 -0.391822,0.19591 -0.126706,0.03168 -0.261212,0 -0.391821,0 -0.0209,0 -1.345576,0 -1.567281,0 -0.261215,0 -0.525052,-0.03694 -0.783643,0 -0.20443,0.0292 -0.382817,0.170297 -0.587729,0.195911 -0.323996,0.0405 -0.653034,0 -0.979551,0 -0.06531,0 -0.130609,0 -0.195911,0 -0.653034,0 -1.306068,0 -1.959105,0 -0.391818,0 -0.784793,-0.03005 -1.175461,0 -0.460404,0.03542 -0.911897,0.149963 -1.37137,0.19591 -0.19494,0.01949 -0.391822,0 -0.587732,0 -0.457124,0 -0.914247,0 -1.371373,0 -1.110157,0 -2.220314,0 -3.330474,0 -0.718339,0 -1.436674,0 -2.155013,0 -0.326517,0 -0.655031,0.03606 -0.979551,0 -0.267607,-0.02973 -0.522428,-0.130607 -0.783642,-0.19591 -0.261213,-0.0653 -0.537594,-0.08656 -0.783641,-0.195911 -0.347962,-0.15465 -0.614829,-0.478314 -0.979551,-0.58773 -0.312747,-0.09383 -0.653035,0 -0.979552,0 -0.653034,0 -1.306068,0 -1.959103,0 -0.04655,0 -0.739731,0.02195 -0.783641,0 -0.0826,-0.0413 -0.154608,-0.113308 -0.19591,-0.195911 -0.08107,-0.162138 0.06847,-0.328101 0.19591,-0.39182 0.05841,-0.02921 0.143668,0.03918 0.195911,0 0.221647,-0.166236 0.366083,-0.421496 0.58773,-0.587731 0.05224,-0.03918 0.130607,0 0.195911,0 0.0653,0 0.130607,0 0.19591,0 0.391821,0 0.783641,0 1.175462,0 z"
         id="path3" /><path
         style="fill:#67def9;fill-opacity:1;fill-rule:evenodd;stroke:none;stroke-width:0.264583px;stroke-linecap:butt;stroke-linejoin:miter;stroke-opacity:1"
         d="m 41.924801,28.994721 c 3.918207,0.0653 7.836635,0.273495 11.754617,0.195911 2.684074,-0.05315 5.358749,-0.344678 8.032321,-0.58773 0.205661,-0.01871 0.38739,-0.145825 0.587733,-0.19591 0.32304,-0.08076 0.648221,-0.162777 0.979551,-0.195911 0.324897,-0.03249 0.653034,0 0.979551,0 0.391821,0 0.783642,0 1.175461,0 0.195911,0 0.394486,0.03221 0.587732,0 0.203698,-0.03395 0.391819,-0.130606 0.58773,-0.195911 0.391821,-0.130606 0.811816,-0.196008 1.175462,-0.391819 0.494614,-0.266332 0.886134,-0.696497 1.371372,-0.979553 2.962765,-1.728278 -0.06363,0.08651 1.371373,-0.391819 0.277058,-0.09235 0.533214,-0.241565 0.78364,-0.391822 0.07919,-0.04751 0.261215,-0.130606 0.195911,-0.19591 -0.09235,-0.09235 -0.261213,0 -0.391822,0 -0.261212,0 -0.522425,0 -0.78364,0 -0.58773,0 -1.177875,-0.05321 -1.763191,0 -2.62739,0.238855 0.0071,0.19591 -1.959105,0.19591 -1.567281,0 -3.134564,0 -4.701847,0 -0.457123,0 -0.914246,0 -1.371372,0 -0.391819,0 -0.783641,0 -1.175462,0 -0.0653,0 -0.137501,-0.0292 -0.195908,0 -0.08261,0.0413 -0.113308,0.15461 -0.195911,0.195911 -0.123134,0.06157 -0.660508,-0.06157 -0.783643,0 -0.0826,0.0413 -0.130606,0.130606 -0.195908,0.195911 -0.249155,0.249155 -0.192378,0.23368 -0.587732,0.391819 -0.191738,0.0767 -0.391821,0.130609 -0.58773,0.19591 -0.19591,0.0653 -0.385235,0.155411 -0.587732,0.195911 -0.25614,0.05123 -0.530227,-0.06335 -0.78364,0 -0.316283,0.07907 -0.388586,0.192675 -0.587732,0.391822 -0.0653,0.0653 -0.108297,0.166706 -0.195911,0.19591 -0.123904,0.0413 -0.261212,0 -0.391819,0 -0.326517,0 -0.654656,-0.03249 -0.979551,0 -0.331332,0.03313 -0.647549,0.170371 -0.979553,0.195908 -0.585999,0.04508 -1.175462,0 -1.763192,0 -1.175461,0 -2.350923,0 -3.526385,0 -0.457123,0 -0.914249,0 -1.371372,0 -0.195911,0 -0.394486,-0.0322 -0.587732,0 -0.203698,0.03395 -0.387387,0.145826 -0.58773,0.195911 -0.06335,0.01585 -0.130606,0 -0.195911,0 -0.19591,0 -0.395623,-0.03842 -0.587729,0 -0.143187,0.02864 -0.250158,0.160496 -0.391822,0.195911 -0.126706,0.03168 -0.278421,-0.0648 -0.391821,0 -0.363051,0.20746 -0.653034,0.522428 -0.979551,0.78364 z"
         id="path5" /><path
         style="fill:#67def9;fill-opacity:1;fill-rule:evenodd;stroke:none;stroke-width:0.264583px;stroke-linecap:butt;stroke-linejoin:miter;stroke-opacity:1"
         d="m 82.870051,26.6438 c 0.718339,0 1.436677,0 2.155013,0 0.261215,0 0.525052,0.03694 0.783643,0 0.20443,-0.02921 0.384032,-0.161962 0.587729,-0.195911 0.193247,-0.03221 0.391822,0 0.587732,0 0.195909,-0.0653 0.385234,-0.155411 0.58773,-0.19591 0.376751,-0.07535 0.798711,0.07535 1.175462,0 0.244358,-0.04887 0.847674,-0.521793 0.979551,-0.58773 0.05841,-0.0292 0.130609,0 0.19591,0 0.195911,0 0.391822,0 0.587733,0 0.391818,0 0.78364,0 1.175461,0 0.195911,0 0.391819,0 0.58773,0 0.130606,0 0.267917,0.0413 0.391821,0 0.138528,-0.04618 0.261213,-0.130609 0.391822,-0.195911 0.261212,0 0.532476,0.07176 0.78364,0 0.226396,-0.06469 0.369115,-0.304376 0.58773,-0.391821 0.17027,-0.06811 1.182721,0.06288 1.371372,0 0.415589,-0.138528 0.776658,-0.406456 1.175462,-0.58773 0.320148,-0.145523 0.686945,-0.196749 0.979551,-0.391821 0.108672,-0.07245 -0.261213,0 -0.391819,0 -0.261215,0 -0.522428,0 -0.783643,0 -1.110157,0 -2.220315,0 -3.330474,0 -2.048516,0 0.07545,-0.116819 -1.175462,0.195911 -0.126706,0.03168 -0.261213,0 -0.391819,0 -0.261215,0 -0.525984,-0.04294 -0.783643,0 -0.144036,0.024 -0.261212,0.130606 -0.391819,0.19591 -0.261215,0.130607 -0.522427,0.261213 -0.783643,0.391819 -0.0653,0.0653 -0.119067,0.144682 -0.19591,0.195911 -0.242996,0.161999 -0.540645,0.229822 -0.783641,0.391821 -0.07684,0.05123 -0.113307,0.15461 -0.19591,0.195911 -0.05841,0.02921 -0.130607,0 -0.195911,0 -0.261213,0 -0.522428,0 -0.78364,0 -0.130607,0 -0.262991,-0.02148 -0.391822,0 -0.265588,0.04427 -0.518051,0.151643 -0.78364,0.195908 -0.653034,0.108839 -0.163258,-0.163258 -0.979551,0 -0.143187,0.02864 -0.253291,0.149736 -0.391821,0.195911 -0.06195,0.02064 -0.130607,0 -0.195911,0 -0.172019,0 -1.099786,-0.03243 -1.175462,0 -0.349993,0.149997 -0.653034,0.391821 -0.979551,0.587732 z"
         id="path7" /><path
         style="fill:#67def9;fill-opacity:1;fill-rule:evenodd;stroke:none;stroke-width:0.264583px;stroke-linecap:butt;stroke-linejoin:miter;stroke-opacity:1"
         d="m 14.105539,28.211082 c 0.718339,0 1.436677,0 2.155013,0 0.261215,0 0.525052,0.03694 0.783643,0 0.20443,-0.02921 0.384032,-0.161962 0.587729,-0.195911 0.193247,-0.03221 0.391822,0 0.587732,0 0.195909,-0.0653 0.385234,-0.155411 0.58773,-0.19591 0.376751,-0.07535 0.798711,0.07535 1.175462,0 0.244358,-0.04887 0.847674,-0.521793 0.979551,-0.58773 0.05841,-0.0292 0.130609,0 0.19591,0 0.195911,0 0.391822,0 0.587733,0 0.391818,0 0.78364,0 1.175461,0 0.195911,0 0.391819,0 0.58773,0 0.130606,0 0.267917,0.0413 0.391821,0 0.138528,-0.04618 0.261213,-0.130609 0.391822,-0.195911 0.261212,0 0.532476,0.07176 0.78364,0 0.226396,-0.06469 0.369115,-0.304376 0.58773,-0.391821 0.17027,-0.06811 1.182721,0.06288 1.371372,0 0.415589,-0.138528 0.776658,-0.406456 1.175462,-0.58773 0.320148,-0.145523 0.686945,-0.196749 0.979551,-0.391821 0.108672,-0.07245 -0.261213,0 -0.391819,0 -0.261215,0 -0.522428,0 -0.783643,0 -1.110157,0 -2.220315,0 -3.330474,0 -2.048516,0 0.07545,-0.116819 -1.175462,0.195911 -0.126706,0.03168 -0.261213,0 -0.391819,0 -0.261215,0 -0.525984,-0.04294 -0.783643,0 -0.144036,0.024 -0.261212,0.130606 -0.391819,0.19591 -0.261215,0.130607 -0.522427,0.261213 -0.783643,0.391819 -0.0653,0.0653 -0.119067,0.144682 -0.19591,0.195911 -0.242996,0.161999 -0.540645,0.229822 -0.783641,0.391821 -0.07684,0.05123 -0.113307,0.15461 -0.19591,0.195911 -0.05841,0.02921 -0.130607,0 -0.195911,0 -0.261213,0 -0.522428,0 -0.78364,0 -0.130607,0 -0.262991,-0.02148 -0.391822,0 -0.265588,0.04427 -0.518051,0.151643 -0.78364,0.195908 -0.653034,0.108839 -0.163258,-0.163258 -0.979551,0 -0.143187,0.02864 -0.253291,0.149736 -0.391821,0.195911 -0.06195,0.02064 -0.130607,0 -0.195911,0 -0.172019,0 -1.099786,-0.03243 -1.175462,0 -0.349993,0.149997 -0.653034,0.391821 -0.979551,0.587732 z"
         id="path33" /><path
         style="fill:#67def9;fill-opacity:1;fill-rule:evenodd;stroke:none;stroke-width:0.264583px;stroke-linecap:butt;stroke-linejoin:miter;stroke-opacity:1"
         d="m 52.699866,14.693272 c 1.175462,0 2.350924,0 3.526386,0 0.326517,0 0.653036,0 0.979553,0 0.0653,0 0.137499,-0.02921 0.195908,0 0.0826,0.0413 0.108297,0.166705 0.195911,0.19591 0.123904,0.0413 0.261215,0 0.391821,0 0.326517,0 0.653034,0 0.979551,0 1.175462,0 2.350924,0 3.526386,0 0.261215,0 0.530227,0.06335 0.78364,0 0.0896,-0.0224 0.108296,-0.166706 0.195911,-0.19591 0.256095,-0.08536 0.799028,0.165135 0.979551,-0.195911 0.0413,-0.0826 -0.130607,-0.130607 -0.195909,-0.19591 -0.0653,-0.0653 -0.113307,-0.154609 -0.19591,-0.19591 -0.05841,-0.02921 -0.130607,0 -0.195911,0 -0.21018,0 -1.241875,-0.04317 -1.371372,0 -0.138531,0.04618 -0.250159,0.160494 -0.391822,0.19591 -0.126706,0.03168 -0.26375,-0.02561 -0.391819,0 -0.202499,0.0405 -0.384034,0.161961 -0.587732,0.19591 -0.193244,0.03221 -0.391819,0 -0.587729,0 -0.587733,0 -1.175462,0 -1.763194,0 -0.326517,0 -0.657477,-0.05368 -0.979551,0 -0.203698,0.03395 -0.384032,0.161961 -0.58773,0.195911 -0.193246,0.03221 -0.391821,0 -0.587732,0 -0.261213,0 -0.522428,0 -0.78364,0 -1.044856,0 -2.089711,0 -3.134567,0 z"
         id="path34" /></g></g></svg>
