<?xml version="1.0" encoding="UTF-8" standalone="no"?>
<!-- Created with Inkscape (http://www.inkscape.org/) -->

<svg
   width="416.8222"
   height="458.26675"
   viewBox="0 0 110.28421 121.24975"
   version="1.1"
   id="svg1"
   xml:space="preserve"
   inkscape:version="1.3.2 (091e20ef0f, 2023-11-25)"
   sodipodi:docname="TargetVolcano.svg"
   xmlns:inkscape="http://www.inkscape.org/namespaces/inkscape"
   xmlns:sodipodi="http://sodipodi.sourceforge.net/DTD/sodipodi-0.dtd"
   xmlns:xlink="http://www.w3.org/1999/xlink"
   xmlns="http://www.w3.org/2000/svg"
   xmlns:svg="http://www.w3.org/2000/svg"><sodipodi:namedview
     id="namedview1"
     pagecolor="#505050"
     bordercolor="#eeeeee"
     borderopacity="1"
     inkscape:showpageshadow="0"
     inkscape:pageopacity="0"
     inkscape:pagecheckerboard="0"
     inkscape:deskcolor="#d1d1d1"
     inkscape:document-units="mm"
     inkscape:zoom="0.95497112"
     inkscape:cx="187.44022"
     inkscape:cy="268.07093"
     inkscape:window-width="1366"
     inkscape:window-height="706"
     inkscape:window-x="-8"
     inkscape:window-y="-8"
     inkscape:window-maximized="1"
     inkscape:current-layer="layer2"
     showgrid="false"
     showguides="false" /><defs
     id="defs1"><linearGradient
       id="linearGradient7"
       inkscape:collect="always"><stop
         style="stop-color:#461d09;stop-opacity:0;"
         offset="0"
         id="stop8" /><stop
         style="stop-color:#461d09;stop-opacity:1;"
         offset="1"
         id="stop7" /></linearGradient><linearGradient
       id="linearGradient5"
       inkscape:collect="always"><stop
         style="stop-color:#201008;stop-opacity:1;"
         offset="0"
         id="stop5" /><stop
         style="stop-color:#b75d2f;stop-opacity:1;"
         offset="1"
         id="stop6" /></linearGradient><linearGradient
       id="linearGradient517"
       inkscape:collect="always"><stop
         style="stop-color:#cc171b;stop-opacity:1;"
         offset="0"
         id="stop517" /><stop
         style="stop-color:#ca280a;stop-opacity:1;"
         offset="1"
         id="stop518" /></linearGradient><inkscape:path-effect
       effect="bspline"
       id="path-effect330"
       is_visible="true"
       lpeversion="1.3"
       weight="33.333333"
       steps="2"
       helper_size="0"
       apply_no_weight="true"
       apply_with_weight="true"
       only_selected="false"
       uniform="false" /><inkscape:path-effect
       effect="bspline"
       id="path-effect328"
       is_visible="true"
       lpeversion="1.3"
       weight="33.333333"
       steps="2"
       helper_size="0"
       apply_no_weight="true"
       apply_with_weight="true"
       only_selected="false"
       uniform="false" /><inkscape:path-effect
       effect="bspline"
       id="path-effect326"
       is_visible="true"
       lpeversion="1.3"
       weight="33.333333"
       steps="2"
       helper_size="0"
       apply_no_weight="true"
       apply_with_weight="true"
       only_selected="false"
       uniform="false" /><inkscape:path-effect
       effect="bspline"
       id="path-effect324"
       is_visible="true"
       lpeversion="1.3"
       weight="33.333333"
       steps="2"
       helper_size="0"
       apply_no_weight="true"
       apply_with_weight="true"
       only_selected="false"
       uniform="false" /><inkscape:path-effect
       effect="bspline"
       id="path-effect319"
       is_visible="true"
       lpeversion="1.3"
       weight="33.333333"
       steps="2"
       helper_size="0"
       apply_no_weight="true"
       apply_with_weight="true"
       only_selected="false"
       uniform="false" /><inkscape:path-effect
       effect="bspline"
       id="path-effect298"
       is_visible="true"
       lpeversion="1.3"
       weight="33.333333"
       steps="2"
       helper_size="0"
       apply_no_weight="true"
       apply_with_weight="true"
       only_selected="false"
       uniform="false" /><inkscape:path-effect
       effect="bspline"
       id="path-effect282"
       is_visible="true"
       lpeversion="1.3"
       weight="33.333333"
       steps="2"
       helper_size="0"
       apply_no_weight="true"
       apply_with_weight="true"
       only_selected="false"
       uniform="false" /><inkscape:path-effect
       effect="bspline"
       id="path-effect268"
       is_visible="true"
       lpeversion="1.3"
       weight="33.333333"
       steps="2"
       helper_size="0"
       apply_no_weight="true"
       apply_with_weight="true"
       only_selected="false"
       uniform="false" /><inkscape:path-effect
       effect="bspline"
       id="path-effect258"
       is_visible="true"
       lpeversion="1.3"
       weight="33.333333"
       steps="2"
       helper_size="0"
       apply_no_weight="true"
       apply_with_weight="true"
       only_selected="false"
       uniform="false" /><inkscape:path-effect
       effect="bspline"
       id="path-effect248"
       is_visible="true"
       lpeversion="1.3"
       weight="33.333333"
       steps="2"
       helper_size="0"
       apply_no_weight="true"
       apply_with_weight="true"
       only_selected="false"
       uniform="false" /><linearGradient
       id="linearGradient206"
       inkscape:collect="always"><stop
         style="stop-color:#3a1a09;stop-opacity:1;"
         offset="0"
         id="stop2" /><stop
         style="stop-color:#201008;stop-opacity:1;"
         offset="0.5590933"
         id="stop3" /><stop
         style="stop-color:#a24312;stop-opacity:1;"
         offset="1"
         id="stop207" /></linearGradient><linearGradient
       id="linearGradient205"
       inkscape:collect="always"><stop
         style="stop-color:#ec621a;stop-opacity:1;"
         offset="0"
         id="stop204" /><stop
         style="stop-color:#240f05;stop-opacity:1;"
         offset="1"
         id="stop205" /></linearGradient><linearGradient
       inkscape:collect="always"
       xlink:href="#linearGradient205"
       id="linearGradient204"
       x1="133.43787"
       y1="3.6463709"
       x2="133.71901"
       y2="115.02409"
       gradientUnits="userSpaceOnUse"
       gradientTransform="translate(0,24.292876)" /><linearGradient
       inkscape:collect="always"
       xlink:href="#linearGradient326"
       id="linearGradient180-3"
       x1="227.61223"
       y1="133.80136"
       x2="242.57001"
       y2="133.80136"
       gradientUnits="userSpaceOnUse" /><linearGradient
       id="linearGradient326"
       inkscape:collect="always"><stop
         style="stop-color:#521a02;stop-opacity:1;"
         offset="0"
         id="stop322" /><stop
         style="stop-color:#9a3409;stop-opacity:1;"
         offset="0.25872174"
         id="stop323" /><stop
         style="stop-color:#ab4d25;stop-opacity:1;"
         offset="0.49661016"
         id="stop324" /><stop
         style="stop-color:#a34117;stop-opacity:1;"
         offset="0.79518008"
         id="stop325" /><stop
         style="stop-color:#441602;stop-opacity:1;"
         offset="1"
         id="stop326" /></linearGradient><linearGradient
       inkscape:collect="always"
       xlink:href="#linearGradient222"
       id="linearGradient226-4"
       x1="234.98349"
       y1="47.363663"
       x2="234.84315"
       y2="120.40308"
       gradientUnits="userSpaceOnUse" /><linearGradient
       id="linearGradient222"
       inkscape:collect="always"><stop
         style="stop-color:#02cb3c;stop-opacity:1;"
         offset="0"
         id="stop225-5" /><stop
         style="stop-color:#06581e;stop-opacity:1;"
         offset="0.2265625"
         id="stop227-7" /><stop
         style="stop-color:#02bd38;stop-opacity:1;"
         offset="0.23828126"
         id="stop228" /><stop
         style="stop-color:#086724;stop-opacity:1;"
         offset="0.41861978"
         id="stop229" /><stop
         style="stop-color:#02b937;stop-opacity:1;"
         offset="0.42805988"
         id="stop230" /><stop
         style="stop-color:#086523;stop-opacity:1;"
         offset="0.65152991"
         id="stop231" /><stop
         style="stop-color:#15993b;stop-opacity:1;"
         offset="0.68253577"
         id="stop232" /><stop
         style="stop-color:#02321a;stop-opacity:1;"
         offset="1"
         id="stop226-4" /></linearGradient><radialGradient
       inkscape:collect="always"
       xlink:href="#linearGradient49"
       id="radialGradient306"
       cx="231.24161"
       cy="124.51474"
       fx="231.24161"
       fy="124.51474"
       r="1.6463803"
       gradientTransform="matrix(1,0,0,0.87878789,0,15.092695)"
       gradientUnits="userSpaceOnUse" /><linearGradient
       id="linearGradient49"
       inkscape:collect="always"><stop
         style="stop-color:#521a02;stop-opacity:1;"
         offset="0"
         id="stop49" /><stop
         style="stop-color:#9a3409;stop-opacity:1;"
         offset="0.24830508"
         id="stop124" /><stop
         style="stop-color:#621e01;stop-opacity:1;"
         offset="0.49661016"
         id="stop122" /><stop
         style="stop-color:#a34117;stop-opacity:1;"
         offset="0.74830508"
         id="stop123" /><stop
         style="stop-color:#441602;stop-opacity:1;"
         offset="1"
         id="stop50" /></linearGradient><radialGradient
       inkscape:collect="always"
       xlink:href="#linearGradient16"
       id="radialGradient322"
       cx="239.04224"
       cy="134.92888"
       fx="239.04224"
       fy="134.92888"
       r="1.6933334"
       gradientTransform="matrix(1,0,0,1.6666666,0,-89.95258)"
       gradientUnits="userSpaceOnUse" /><linearGradient
       id="linearGradient16"
       inkscape:collect="always"><stop
         style="stop-color:#521a02;stop-opacity:1;"
         offset="0"
         id="stop11" /><stop
         style="stop-color:#9a3409;stop-opacity:1;"
         offset="0.33305085"
         id="stop12" /><stop
         style="stop-color:#621e01;stop-opacity:1;"
         offset="0.45254236"
         id="stop13" /><stop
         style="stop-color:#a34117;stop-opacity:1;"
         offset="0.65677965"
         id="stop14" /><stop
         style="stop-color:#441602;stop-opacity:1;"
         offset="1"
         id="stop15" /></linearGradient><inkscape:path-effect
       effect="bspline"
       id="path-effect442"
       is_visible="true"
       lpeversion="1.3"
       weight="33.333333"
       steps="2"
       helper_size="0"
       apply_no_weight="true"
       apply_with_weight="true"
       only_selected="false"
       uniform="false" /><inkscape:path-effect
       effect="bspline"
       id="path-effect443-5"
       is_visible="true"
       lpeversion="1.3"
       weight="33.333333"
       steps="2"
       helper_size="0"
       apply_no_weight="true"
       apply_with_weight="true"
       only_selected="false"
       uniform="false" /><inkscape:path-effect
       effect="bspline"
       id="path-effect444"
       is_visible="true"
       lpeversion="1.3"
       weight="33.333333"
       steps="2"
       helper_size="0"
       apply_no_weight="true"
       apply_with_weight="true"
       only_selected="false"
       uniform="false" /><inkscape:path-effect
       effect="bspline"
       id="path-effect445-2"
       is_visible="true"
       lpeversion="1.3"
       weight="33.333333"
       steps="2"
       helper_size="0"
       apply_no_weight="true"
       apply_with_weight="true"
       only_selected="false"
       uniform="false" /><inkscape:path-effect
       effect="bspline"
       id="path-effect446-7"
       is_visible="true"
       lpeversion="1.3"
       weight="33.333333"
       steps="2"
       helper_size="0"
       apply_no_weight="true"
       apply_with_weight="true"
       only_selected="false"
       uniform="false" /><linearGradient
       inkscape:collect="always"
       xlink:href="#linearGradient326"
       id="linearGradient298"
       gradientUnits="userSpaceOnUse"
       x1="227.61223"
       y1="133.80136"
       x2="242.57001"
       y2="133.80136" /><linearGradient
       inkscape:collect="always"
       xlink:href="#linearGradient222"
       id="linearGradient299"
       gradientUnits="userSpaceOnUse"
       x1="234.98349"
       y1="47.363663"
       x2="234.84315"
       y2="120.40308" /><radialGradient
       inkscape:collect="always"
       xlink:href="#linearGradient49"
       id="radialGradient299"
       gradientUnits="userSpaceOnUse"
       gradientTransform="matrix(1,0,0,0.87878789,0,15.092695)"
       cx="231.24161"
       cy="124.51474"
       fx="231.24161"
       fy="124.51474"
       r="1.6463803" /><radialGradient
       inkscape:collect="always"
       xlink:href="#linearGradient16"
       id="radialGradient300"
       gradientUnits="userSpaceOnUse"
       gradientTransform="matrix(1,0,0,1.6666666,0,-89.95258)"
       cx="239.04224"
       cy="134.92888"
       fx="239.04224"
       fy="134.92888"
       r="1.6933334" /><linearGradient
       inkscape:collect="always"
       xlink:href="#linearGradient326"
       id="linearGradient330"
       gradientUnits="userSpaceOnUse"
       x1="227.61223"
       y1="133.80136"
       x2="242.57001"
       y2="133.80136" /><linearGradient
       inkscape:collect="always"
       xlink:href="#linearGradient222"
       id="linearGradient331"
       gradientUnits="userSpaceOnUse"
       x1="234.98349"
       y1="47.363663"
       x2="234.84315"
       y2="120.40308" /><radialGradient
       inkscape:collect="always"
       xlink:href="#linearGradient49"
       id="radialGradient331"
       gradientUnits="userSpaceOnUse"
       gradientTransform="matrix(1,0,0,0.87878789,0,15.092695)"
       cx="231.24161"
       cy="124.51474"
       fx="231.24161"
       fy="124.51474"
       r="1.6463803" /><radialGradient
       inkscape:collect="always"
       xlink:href="#linearGradient16"
       id="radialGradient332"
       gradientUnits="userSpaceOnUse"
       gradientTransform="matrix(1,0,0,1.6666666,0,-89.95258)"
       cx="239.04224"
       cy="134.92888"
       fx="239.04224"
       fy="134.92888"
       r="1.6933334" /><linearGradient
       inkscape:collect="always"
       xlink:href="#linearGradient205"
       id="linearGradient516"
       x1="136.67966"
       y1="-2.15782"
       x2="136.61714"
       y2="14.298644"
       gradientUnits="userSpaceOnUse"
       gradientTransform="translate(0,24.292876)" /><linearGradient
       inkscape:collect="always"
       xlink:href="#linearGradient517"
       id="linearGradient518"
       x1="136.20331"
       y1="1.8123157"
       x2="136.59581"
       y2="13.958754"
       gradientUnits="userSpaceOnUse"
       gradientTransform="translate(0,24.292876)" /><radialGradient
       inkscape:collect="always"
       xlink:href="#linearGradient206"
       id="radialGradient3"
       cx="135.11568"
       cy="62.577503"
       fx="135.11568"
       fy="62.577503"
       r="12.173387"
       gradientTransform="matrix(0.81345777,0,0,0.6598384,25.89559,24.500783)"
       gradientUnits="userSpaceOnUse" /><linearGradient
       inkscape:collect="always"
       xlink:href="#linearGradient5"
       id="linearGradient6"
       x1="135.51524"
       y1="60.968388"
       x2="135.21945"
       y2="75.465752"
       gradientUnits="userSpaceOnUse" /><linearGradient
       inkscape:collect="always"
       xlink:href="#linearGradient7"
       id="linearGradient8"
       x1="135.51524"
       y1="60.968388"
       x2="135.21945"
       y2="75.465752"
       gradientUnits="userSpaceOnUse" /></defs><g
     inkscape:groupmode="layer"
     id="layer2"
     inkscape:label="Layer 2"
     transform="translate(-85.781373,-21.895338)"><path
       style="fill:url(#linearGradient516);fill-rule:evenodd;stroke:#000000;stroke-width:0.264583px;stroke-linecap:butt;stroke-linejoin:miter;stroke-opacity:1"
       d="m 118.62368,28.211082 c 0.40483,-1.040861 0.71898,-2.166317 1.64562,-2.902176 0.83208,-0.692161 1.96727,-0.510778 2.86051,-1.016029 1.03962,-0.156571 1.91755,-0.820276 3.03722,-0.878394 0.89706,-0.173475 1.76611,-0.237574 2.69756,-0.297068 1.0017,-0.06472 1.92587,-0.239251 2.92209,-0.289682 0.5827,-0.158045 1.88424,-0.07778 2.70598,-0.298048 0.97268,-0.296156 1.9955,-0.562946 3.04542,-0.489775 1.47196,0.04274 2.97172,-0.156076 4.39921,0.293865 0.99136,0.07601 3.54791,0.619551 3.52981,0.578984 1.02543,0.226146 2.99353,0.315815 3.327,0.596477 1.35069,0.177235 2.73279,0.288042 4.01621,0.685686 1.14351,0.163159 1.97545,0.960722 3.03655,1.175462 0.84266,0.692375 1.4937,1.650961 1.76309,2.742743 0.5014,1.472712 -0.51447,2.883124 -1.59203,3.845058 -0.73354,0.805899 -1.76224,1.360936 -2.72,1.734662 -0.87897,0.446223 -2.04039,0.458735 -2.93354,0.894014 -1.128,0.15616 -2.25133,0.728941 -3.37903,0.888848 -1.39865,0.492131 -2.64379,1.30145 -3.97068,1.943165 -1.27595,0.451732 -2.72347,0.825726 -4.03925,1.196335 -1.67686,-0.0814 -3.35411,0.244099 -5.0213,-0.02798 -1.353,0.0813 -2.69288,-0.110378 -4.01624,-0.288158 -1.37319,-0.02241 -2.70031,-0.812047 -3.86268,-1.254884 -1.18273,-0.598768 -2.0702,-1.659814 -3.2202,-2.306375 -1.15902,-0.79464 -2.50562,-1.459766 -2.99996,-2.906192 -0.61965,-1.060536 -1.21511,-2.12192 -1.81896,-3.130751 0.17183,-0.190077 0.39653,-0.321772 0.5876,-0.489787 z"
       id="path515" /><path
       style="fill:url(#linearGradient518);fill-opacity:1;fill-rule:evenodd;stroke:#000000;stroke-width:0.264583px;stroke-linecap:butt;stroke-linejoin:miter;stroke-opacity:1"
       d="m 120.19096,29.190633 c 0.4657,-0.349277 0.27638,-0.178424 0.58773,-0.489775 0.0327,-0.03265 0.0773,-0.05665 0.098,-0.09795 0.0146,-0.02921 -0.0181,-0.07079 0,-0.09796 0.0566,-0.08487 0.41111,-0.411113 0.48977,-0.489776 0.0441,-0.04412 0.24915,-0.27896 0.29387,-0.293866 0.0619,-0.02065 0.13256,0.01584 0.19591,0 0.0708,-0.01771 0.12812,-0.07084 0.19591,-0.09795 0.0959,-0.03835 0.20151,-0.05178 0.29386,-0.09796 0.0413,-0.02065 0.0542,-0.08335 0.098,-0.09795 0.1239,-0.0413 0.275,0.05841 0.39182,0 0.0826,-0.0413 0.10944,-0.163482 0.19591,-0.19591 0.22898,-0.302873 0.52826,-0.03411 0.78364,-0.09795 0.0708,-0.01771 0.12508,-0.08025 0.19591,-0.09796 0.0634,-0.01584 0.13256,0.01584 0.19591,0 0.0708,-0.01771 0.12665,-0.07487 0.19591,-0.09795 0.031,-0.01033 0.0653,0 0.098,0 0.0979,-0.03265 0.20151,-0.05178 0.29386,-0.09795 0.0413,-0.02065 0.0542,-0.08335 0.098,-0.09796 0.0929,-0.03098 0.20093,0.03098 0.29386,0 0.60802,-0.202672 -0.32555,0.0079 0.48978,-0.19591 0.0633,-0.01584 0.13061,0 0.19591,0 0.15768,0 0.33465,0.01939 0.48978,0 0.19708,-0.02463 0.39065,-0.07332 0.58773,-0.09796 0.0648,-0.0081 0.13395,0.02065 0.19591,0 0.0438,-0.0146 0.0524,-0.09036 0.0979,-0.09795 0.16104,-0.02684 0.32652,0 0.48978,0 0.29386,0 0.58773,0 0.8816,0 0.098,0 0.19689,0.01385 0.29386,0 0.13327,-0.01904 0.25855,-0.07892 0.39182,-0.09795 0.16965,-0.02424 0.40775,0 0.58773,0 0.22856,0 0.45712,0 0.68569,0 0.0653,0 0.1306,0 0.19591,0 0.0653,0 0.13396,0.02065 0.19591,0 0.0438,-0.0146 0.0542,-0.08335 0.0979,-0.09795 0.062,-0.02065 0.13256,0.01584 0.19591,0 0.0708,-0.01771 0.12665,-0.07487 0.19591,-0.09796 0.031,-0.01032 0.0653,0 0.098,0 0.15574,0 0.45915,0.02572 0.58773,0 0.0716,-0.01432 0.12508,-0.08025 0.19591,-0.09795 0.0633,-0.01584 0.13061,0 0.19591,0 0.13061,0 0.26121,0 0.39182,0 0.0653,0 0.13188,0.01281 0.19591,0 0.10125,-0.02025 0.19262,-0.07771 0.29387,-0.09795 0.54419,-0.108839 -0.24489,0.163259 0.48977,0 0.20159,-0.0448 0.38456,-0.158969 0.58773,-0.19591 0.16063,-0.02921 0.32652,0 0.48978,0 0.19591,0 0.39182,0 0.58773,0 0.81629,0 1.63259,0 2.44888,0 0.91425,0 1.82849,0 2.74274,0 0.26122,0 0.52243,0 0.78364,0 0.098,0 0.19591,0 0.29387,0 0.098,0 0.19689,-0.01385 0.29386,0 0.26655,0.03808 0.51962,0.143105 0.78365,0.19591 0.12807,0.02561 0.26299,-0.02147 0.39182,0 0.10184,0.01697 0.19201,0.08098 0.29386,0.09795 0.0966,0.0161 0.19724,-0.0161 0.29387,0 0.10185,0.01697 0.19799,0.05961 0.29386,0.09795 0.0678,0.02712 0.12346,0.0889 0.19591,0.09796 0.1944,0.0243 0.39182,0 0.58773,0 0.0326,0 0.0687,-0.0146 0.098,0 0.0413,0.02065 0.0541,0.08335 0.0979,0.09795 0.062,0.02065 0.13528,-0.02425 0.19591,0 0.10931,0.04372 0.18857,0.143261 0.29387,0.19591 0.0292,0.0146 0.0687,-0.0146 0.098,0 0.0413,0.02065 0.0541,0.08335 0.0979,0.09796 0.0619,0.02065 0.13256,-0.01584 0.19591,0 0.63951,0.159878 -0.37009,0.0526 0.48978,0.195911 0.0966,0.0161 0.19724,-0.0161 0.29386,0 0.10185,0.01697 0.1937,0.07291 0.29387,0.09795 0.0317,0.0079 0.0663,-0.0079 0.098,0 0.26933,-0.180035 0.25142,0.155794 0.39182,0.19591 0.19097,0.05456 0.39298,0.059 0.58773,0.09795 0.13201,0.0264 0.26238,0.06097 0.39182,0.09796 0.19857,0.05673 0.39182,0.130607 0.58773,0.19591 0.098,0.03265 0.20152,0.05178 0.29387,0.09796 0.0413,0.02065 0.0542,0.08335 0.098,0.09795 0.1239,0.0413 0.26375,-0.02561 0.39182,0 0.20173,0.04035 0.31563,0.108839 0.48977,0.19591 0.0653,0.03265 0.12665,0.07487 0.19591,0.09796 0.0868,0.02893 0.20382,-0.01801 0.29387,0 0.13201,0.0264 0.26121,0.0653 0.39182,0.09795 0.16325,0 0.32816,-0.02309 0.48977,0 0.19526,0.0279 0.24959,0.187192 0.39182,0.293866 0.17119,0.128386 0.29223,0.09713 0.48978,0.19591 0.0413,0.02065 0.0566,0.0773 0.098,0.09796 0.0923,0.04618 0.20795,0.04068 0.29386,0.09795 0.99021,0.660137 0.13518,0.07445 0.29387,0.391821 0.0207,0.0413 0.0833,0.05415 0.0979,0.09795 0.0206,0.06195 -0.0207,0.133958 0,0.19591 0.0146,0.04381 0.0833,0.05415 0.098,0.09795 0.0207,0.06195 -0.0206,0.133958 0,0.19591 0.0146,0.04381 0.0773,0.05665 0.0979,0.09795 0.0146,0.0292 -0.006,0.06594 0,0.09795 0.0264,0.132012 0.0653,0.261214 0.098,0.39182 0.0326,0.130607 0.0554,0.264103 0.0979,0.391821 0.0231,0.06926 0.0803,0.125079 0.098,0.19591 0.0254,0.101471 0,0.279499 0,0.391821 0,0.112321 0.0254,0.29035 0,0.39182 -0.0377,0.150686 -0.27337,0.410807 -0.39182,0.489776 -0.1215,0.081 -0.27033,0.114912 -0.39183,0.195911 -0.33423,0.222824 -0.599,0.533466 -0.97955,0.685686 -0.16422,0.202441 -0.40176,0.02822 -0.58773,0.09796 -0.17826,0.06685 -0.31084,0.2288 -0.48977,0.293865 -0.18666,0.06787 -0.39421,0.05329 -0.58773,0.09795 -0.46324,0.106902 -0.90728,0.288689 -1.37138,0.391821 -0.0637,0.01417 -0.13395,-0.02065 -0.19591,0 -0.13852,0.04618 -0.25553,0.143491 -0.39182,0.19591 -0.29386,0.09796 -0.58773,0.19591 -0.88159,0.293866 -0.0653,0.03265 -0.12812,0.07084 -0.19591,0.09795 -0.0959,0.03835 -0.20533,0.04483 -0.29387,0.09796 -0.0792,0.04752 -0.11672,0.148395 -0.19591,0.19591 -0.0885,0.05312 -0.19591,0.0653 -0.29386,0.09796 -0.098,0.03265 -0.1937,0.07291 -0.29387,0.09796 -0.16152,0.04038 -0.33388,0.0395 -0.48978,0.09796 -0.11023,0.04134 -0.18218,0.158681 -0.29386,0.19591 -0.18842,0.06281 -0.40236,0.02666 -0.58773,0.09795 -0.2457,0.0945 -0.44604,0.282889 -0.68569,0.391821 -0.12256,0.05571 -0.26237,0.06097 -0.39182,0.09796 -0.0993,0.02837 -0.19591,0.0653 -0.29386,0.09796 -0.94594,0.315313 0.52474,-0.190308 -0.68569,0.293866 -0.96841,0.387364 -0.21055,0.0053 -1.27342,0.39182 -0.34589,0.12578 -0.54851,0.323237 -0.88159,0.489776 -0.0924,0.04618 -0.1937,0.07291 -0.29387,0.09795 -0.0317,0.0079 -0.0687,-0.0146 -0.0979,0 -0.1053,0.05265 -0.19292,0.13534 -0.29387,0.19591 -0.0626,0.03756 -0.1306,0.0653 -0.19591,0.09795 -0.13061,0.0653 -0.25141,0.155795 -0.39182,0.195911 -0.32017,0.09148 -0.65396,0.12614 -0.97955,0.19591 -0.13164,0.02821 -0.25981,0.07155 -0.39182,0.09796 -0.19476,0.03895 -0.39385,0.05487 -0.58773,0.09795 -0.37149,0.08255 -0.25901,0.148502 -0.68569,0.19591 -0.16226,0.01803 -0.32733,-0.01625 -0.48977,0 -0.16567,0.01657 -0.32431,0.07957 -0.48978,0.09796 -0.12981,0.01442 -0.26201,-0.01442 -0.39182,0 -0.16547,0.01839 -0.32386,0.08413 -0.48978,0.09795 -0.22777,0.01898 -0.45712,0 -0.68568,0 -0.22856,0 -0.45713,0 -0.68569,0 -0.62038,0 -1.24076,0 -1.86115,0 -0.19591,0 -0.39182,0 -0.58773,0 -0.098,0 -0.19968,0.02691 -0.29386,0 -0.14041,-0.04012 -0.24928,-0.164234 -0.39182,-0.195911 -0.15937,-0.03542 -0.3349,0.05163 -0.48978,0 -0.15488,-0.05163 -0.2458,-0.220853 -0.39182,-0.293865 -0.12041,-0.06021 -0.2641,-0.05538 -0.39182,-0.09796 -0.0693,-0.02309 -0.13061,-0.0653 -0.19591,-0.09795 -0.13061,-0.0653 -0.27032,-0.114911 -0.39182,-0.19591 -0.0768,-0.05123 -0.11907,-0.144683 -0.19591,-0.195911 -0.1215,-0.081 -0.26504,-0.123462 -0.39182,-0.19591 -0.10222,-0.05841 -0.19165,-0.137501 -0.29387,-0.19591 -0.12678,-0.07245 -0.26121,-0.130607 -0.39182,-0.195911 -0.0653,-0.03265 -0.1375,-0.05415 -0.19591,-0.09796 -0.0739,-0.05541 -0.11331,-0.154608 -0.19591,-0.19591 -0.12041,-0.06021 -0.27141,-0.03775 -0.39182,-0.09796 -0.14602,-0.07301 -0.25598,-0.203306 -0.39182,-0.293865 -0.1215,-0.081 -0.26417,-0.124996 -0.39182,-0.195911 -0.23012,-0.127844 -0.46245,-0.2523 -0.68569,-0.39182 -0.0392,-0.02447 -0.0595,-0.07234 -0.098,-0.09796 -0.0607,-0.0405 -0.13331,-0.06039 -0.19591,-0.09796 -0.0494,-0.02967 -0.37782,-0.271474 -0.48978,-0.293865 -0.0961,-0.01921 -0.20291,0.03638 -0.29386,0 -0.0858,-0.0343 -0.12579,-0.135808 -0.19591,-0.195911 -0.15874,-0.136062 -0.32652,-0.261213 -0.48978,-0.39182 -0.16326,-0.130607 -0.30701,-0.290286 -0.48978,-0.391821 -0.11768,-0.06538 -0.26576,-0.05069 -0.39181,-0.09796 -0.13673,-0.05127 -0.26122,-0.130607 -0.39183,-0.19591 -0.19591,-0.09795 -0.39626,-0.187493 -0.58773,-0.293866 -0.10291,-0.05717 -0.18856,-0.143261 -0.29386,-0.19591 -0.0924,-0.04618 -0.20422,-0.04673 -0.29387,-0.09795 -0.30662,-0.175213 -0.53801,-0.440057 -0.78364,-0.685686 -0.0979,-0.09795 -0.18569,-0.207327 -0.29386,-0.293866 -0.057,-0.04561 -0.1389,-0.05235 -0.19591,-0.09796 -0.10818,-0.08654 -0.19591,-0.19591 -0.29387,-0.293865 -0.0979,-0.09795 -0.19591,-0.19591 -0.29387,-0.293865 -0.0327,-0.03265 -0.0773,-0.05665 -0.0979,-0.09795 -0.011,-0.02196 0,-0.368544 0,-0.391821 0,-0.19591 0,-0.391821 0,-0.587731 0,-0.130607 -0.0359,-0.266239 0,-0.39182 0.0323,-0.113198 0.13534,-0.192915 0.19591,-0.293866 0.0376,-0.06261 0.0749,-0.126645 0.098,-0.19591 0.0103,-0.03098 -0.0181,-0.07079 0,-0.09796 0.0512,-0.07684 0.14049,-0.122028 0.19591,-0.19591 0.0438,-0.05841 0.0802,-0.125079 0.0979,-0.195911 0.0159,-0.06335 -0.0159,-0.132556 0,-0.19591 0.017,-0.06818 0.11056,-0.251191 0.19591,-0.293865 0.19332,-0.09666 0.28401,0.318198 0.39182,0.587731 z"
       id="path516" /><path
       style="fill:url(#linearGradient204);fill-rule:evenodd;stroke:#000000;stroke-width:0.264583px;stroke-linecap:butt;stroke-linejoin:miter;stroke-opacity:1"
       d="m 89.490053,103.53175 c 4.318423,-8.132585 5.018636,-17.057857 7.530329,-26.604056 1.255761,-3.116443 0.05208,-16.305815 5.097338,-11.252274 0.67623,6.405825 6.60102,7.894918 6.06418,0.126845 2.89765,-5.720543 4.96371,-11.926883 4.33534,-18.431346 2.5891,-6.619036 0.352,-14.638661 6.15906,-19.890382 2.6831,0.903171 3.43456,5.341278 7.50858,6.605971 4.55055,2.523902 12.39991,2.40544 21.67793,-1.826593 5.8619,0.833388 8.22123,-12.142003 10.75402,-1.219635 1.01949,3.613989 1.07496,18.412868 2.92464,21.721569 1.87011,4.269219 0.46332,17.411387 7.52715,12.199942 8.29733,-5.42793 5.35668,9.164733 9.54863,12.799066 4.4184,5.073249 1.86696,8.220301 4.44392,15.025814 3.65877,4.41489 3.43506,11.893039 4.52984,16.238719 -0.0967,9.9472 4.3711,11.71367 6.46777,17.12604 0.89055,5.50686 3.93666,13.32752 -0.38725,14.52192 -6.92388,0.26372 -2.65884,-1.39732 -9.39115,0.53393 -7.48963,0.47427 -7.67428,-1.84389 -14.81547,0.54058 -9.61773,2.02477 -19.52778,0.7566 -29.28213,1.15115 -10.22894,0.68261 -12.14139,-1.84305 -22.03266,-3.75263 -3.45658,-0.39984 -14.3472,1.08509 -12.89061,1.14583 -7.800445,-0.97081 -5.755747,-1.21669 -13.601872,-1.66212 -5.398365,-4.03817 -3.037972,-4.02496 -5.736964,-12.55151 2.057204,-5.99081 3.14091,-14.50368 3.569379,-22.54683 z"
       id="path202"
       sodipodi:nodetypes="cccccccccccccccccccccccc" /><path
       style="fill:url(#radialGradient3);fill-rule:evenodd;stroke:#461d09;stroke-width:0.378258;stroke-linecap:butt;stroke-linejoin:miter;stroke-dasharray:none;stroke-opacity:1"
       d="m 128.9676,73.47921 c 1.04538,-0.09147 1.38072,0.281611 2.45766,0.05621 0.77235,0.04467 1.4955,-0.01063 2.21686,-0.260793 0.96987,-0.0924 2.57857,0.528122 3.5281,0.313111 1.02008,-0.249559 2.92854,-0.17286 3.96863,-0.230918 1.01098,-0.02684 1.47809,0.279308 2.47685,0.185061 0.75366,-0.100448 0.85769,-0.725528 1.5258,-0.98935 0.74335,-0.365978 0.13296,-2.287065 0.29068,-2.962673 -0.005,-0.696282 -0.23479,-1.16592 -0.46215,-2.046229 -0.007,-0.395843 0.0483,-1.637335 0.0534,-2.021423 -0.0732,-0.782114 -0.38663,-0.954158 -0.69934,-1.692194 -0.67811,-0.637671 -0.954,-2.226958 -1.6355,-2.871633 -0.94463,-0.462597 -0.36581,-0.68853 -1.23155,-1.260654 -0.82669,-0.282493 -1.90399,-0.733759 -2.76824,-1.173543 -0.69792,-0.454289 -1.9327,-0.619505 -2.64689,-0.56454 -0.69237,0.21312 -1.77479,0.159313 -2.34641,0.340281 -0.83161,0.280563 -1.22989,0.509073 -2.09772,0.570066 -0.77299,0.234802 -1.47017,0.77459 -2.1773,1.371009 -0.40827,0.317389 -0.6841,0.820844 -1.25269,1.562366 -0.25932,0.832275 -0.65382,1.734347 -0.9064,2.620432 l -0.461,1.993583 c -0.003,0.846642 -0.24948,1.411567 -0.42214,2.539927 -0.21448,0.843704 -0.48067,3.216862 -0.0709,3.927847 0.10241,0.952575 1.02965,0.108142 1.64598,0.537686 z"
       id="path205"
       sodipodi:nodetypes="ccccccccccccccccccccccccc" /><path
       style="fill:#742f0b;fill-opacity:1;fill-rule:evenodd;stroke:none;stroke-width:0.215227px;stroke-linecap:butt;stroke-linejoin:miter;stroke-opacity:1"
       d="m 127.96873,75.645478 c 0,0.266507 0.0104,0.05702 -0.0399,0.358568 -0.0236,0.141659 0.0708,-0.159363 0,0.159365 -0.0182,0.08199 -0.0593,0.157564 -0.0797,0.239049 -0.007,0.02577 0.003,0.05332 0,0.07968 -0.01,0.08016 -0.024,0.159833 -0.0399,0.239046 -0.0107,0.0537 -0.0291,0.105673 -0.0399,0.159365 -0.005,0.02605 0.008,0.05448 0,0.07968 -0.009,0.02817 -0.0326,0.05087 -0.0399,0.07969 -0.007,0.02577 0.005,0.05364 0,0.07968 -0.008,0.04118 -0.0297,0.07878 -0.0399,0.119524 -0.007,0.02577 0,0.05312 0,0.07968 0,0.05312 0,0.106245 0,0.159365 0,0.03753 -0.007,0.176543 0,0.199206 0.006,0.01782 0.0285,0.02482 0.0399,0.03984 0.0287,0.03831 0.0582,0.07669 0.0797,0.119525 0.006,0.01061 0,0.221023 0,0.239046 0,0.185927 0,0.371853 0,0.557777 0,0.01328 -0.006,-0.02796 0,-0.03984 0.0214,-0.04283 0.0582,-0.07669 0.0796,-0.119525 0.0525,-0.10488 0.0399,-0.127274 0.0399,-0.239046 0,-0.01328 -0.002,-0.02682 0,-0.03984 0.0107,-0.05369 0.0291,-0.105672 0.0399,-0.159364 0.002,-0.01302 0,-0.02656 0,-0.03984 0,-0.05313 0,-0.106244 0,-0.159366 0,-0.0664 0,-0.132804 0,-0.199206 0,-0.03984 -0.01,-0.08087 0,-0.119524 0.005,-0.01823 0.0339,-0.02202 0.0399,-0.03984 0.008,-0.02519 -0.005,-0.05364 0,-0.07968 0.008,-0.04118 0.0296,-0.07878 0.0399,-0.119523 0.003,-0.01289 0,-0.02656 0,-0.03984 0,-0.0664 -0.013,-0.134093 0,-0.199206 0.0141,-0.07049 0.0994,-0.138864 0.11952,-0.199206 0.0126,-0.03779 0,-0.07969 0,-0.119524 0,-0.03984 0,-0.07968 0,-0.119522 0,-0.159365 0,-0.31873 0,-0.478096 0,-0.119524 0,-0.239046 0,-0.35857 0,-0.06978 0,-0.119297 0,-0.199206 0,-0.01328 0.0124,-0.04477 0,-0.03984 -0.0719,0.02875 -0.1328,0.07968 -0.1992,0.119524 z"
       id="path336" /><path
       style="fill:#742f0b;fill-opacity:1;fill-rule:evenodd;stroke:none;stroke-width:0.215227px;stroke-linecap:butt;stroke-linejoin:miter;stroke-opacity:1"
       d="m 125.28328,75.041092 0.0141,1.190403 v 1.115554 c 0,0.07177 -0.0242,0.429594 0,0.478093 0.19693,0.393856 0.15937,-0.05501 0.15937,0.318731 0,0.06224 -0.0752,0.478095 0.15936,0.478095 0.0531,0 0,-0.106245 0,-0.159366 v -0.159364 c 0,-1.130331 -0.11269,-0.09335 0.15936,-0.637459 0.0475,-0.09503 -0.0475,-0.223703 0,-0.31873 0.0336,-0.06719 0.13561,-0.08809 0.15936,-0.159365 0.0336,-0.100791 0,-0.212485 0,-0.31873 v -0.956189 -0.159363 c 0,-0.106244 0.0216,-0.609664 -0.0845,-0.614536 -0.22227,-0.0102 -0.35454,0.0616 -0.56703,-0.09777 z"
       id="path230"
       sodipodi:nodetypes="ccscsssssssscssc" /><path
       style="fill:#742f0b;fill-opacity:1;fill-rule:evenodd;stroke:none;stroke-width:0.264583px;stroke-linecap:butt;stroke-linejoin:miter;stroke-opacity:1"
       d="m 117.23058,72.241397 c 0,0.323234 0.014,0.646777 0,0.969706 -0.009,0.208876 -0.0485,0.415348 -0.0693,0.623382 -0.008,0.07669 0,0.166206 0,0.242428 0,0.03463 0,0.06926 0,0.103896 0,0.0231 -0.005,0.04662 0,0.06927 0.008,0.04023 0.0429,0.133583 0.0693,0.173162 0.009,0.01357 0.0256,0.02103 0.0346,0.03463 0.0143,0.02148 0.0203,0.04779 0.0346,0.06926 0.009,0.01357 0.0256,0.02106 0.0346,0.03463 0.0143,0.02148 0.0265,0.04478 0.0346,0.06926 0.007,0.02069 -0.0179,0.06927 0.0346,0.06927 0.0115,0 0,-0.0231 0,-0.03463 0,-0.0231 0,-0.04618 0,-0.06927 0,-0.08081 0,-0.161618 0,-0.242427 0,-0.392499 0,-0.785 0,-1.177499 0,-0.161618 0,-0.323236 0,-0.484854 0,-0.04618 0,-0.09235 0,-0.138531 0,-0.0231 0,-0.04618 0,-0.06926 0,-0.01154 0.005,-0.02432 0,-0.03463 -0.007,-0.0146 -0.0242,-0.02209 -0.0346,-0.03463 -0.0473,-0.05679 -0.0923,-0.115443 -0.13853,-0.173162 z"
       id="path332" /><path
       style="fill:#742f0b;fill-opacity:1;fill-rule:evenodd;stroke:none;stroke-width:0.215227px;stroke-linecap:butt;stroke-linejoin:miter;stroke-opacity:1"
       d="m 142.37264,75.691778 c 0,0.356844 0,0.71369 0,1.070534 0,0.178424 0,0.356845 0,0.535268 0,0.06574 -0.0108,0.132363 0,0.197203 0.002,0.01311 0.024,0.01559 0.0281,0.02817 0.006,0.01782 0,0.03756 0,0.05635 0,0.02817 0,0.05634 0,0.08452 0,0.140859 0,0.281719 0,0.422579 0,0.02454 0.005,0.158633 0,0.169031 -0.006,0.01188 -0.0222,0.01629 -0.0281,0.02817 -0.008,0.01679 0.008,0.03954 0,0.05635 -0.006,0.01189 -0.024,0.01558 -0.0282,0.02817 -0.006,0.01782 0.006,0.03852 0,0.05635 -0.004,0.01259 -0.0208,0.01713 -0.0281,0.02817 -0.0233,0.03497 -0.0472,0.104209 -0.0564,0.14086 -0.005,0.01918 0.007,0.06911 0,0.08452 -0.006,0.01189 -0.025,0.01529 -0.0282,0.02817 -0.009,0.03644 0,0.07512 0,0.112687 0,0.0094 0,0.01879 0,0.02817 0,0.0094 -0.009,0.02817 0,0.02817 0.009,0 -0.004,-0.01978 0,-0.02817 0.006,-0.01188 0.0188,-0.01879 0.0282,-0.02817 0,-0.01879 -0.005,-0.03813 0,-0.05634 0.005,-0.02039 0.0188,-0.03757 0.0281,-0.05635 0.009,-0.01879 0.0156,-0.03954 0.0282,-0.05635 0.0159,-0.02124 0.0404,-0.03509 0.0564,-0.05635 0.0126,-0.01679 0.0156,-0.03954 0.0281,-0.05635 0.026,-0.03471 0.0888,-0.07682 0.11268,-0.112687 0.082,-0.123043 -0.0124,0.0093 0.0281,-0.112688 0.004,-0.01259 0.0188,-0.01879 0.0281,-0.02817 0.009,-0.02817 0.0245,-0.05506 0.0282,-0.08452 0.006,-0.04659 -0.006,-0.09427 0,-0.140863 0.004,-0.02946 0.0224,-0.0554 0.0281,-0.08451 0.004,-0.01842 0,-0.03756 0,-0.05635 0,-0.04695 0,-0.09391 0,-0.14086 0,-0.112686 0,-0.225375 0,-0.338061 0,-0.05634 0,-0.112689 0,-0.169034 0,-0.02817 0,-0.05635 0,-0.08451 0,-0.01879 0.006,-0.03852 0,-0.05635 -0.004,-0.01259 -0.0222,-0.01629 -0.0281,-0.02817 -0.0851,-0.170152 0.004,-0.01192 -0.0282,-0.14086 -0.005,-0.02039 -0.0215,-0.03643 -0.0281,-0.05635 -0.007,-0.01984 0,-0.17 0,-0.197204 0,-0.0094 0.004,-0.01978 0,-0.02817 -0.0429,-0.08591 -0.0224,0.05152 -0.0564,-0.08452 -0.005,-0.01823 0.003,-0.03782 0,-0.05635 -0.007,-0.03819 -0.0206,-0.07473 -0.0282,-0.11269 -0.002,-0.0092 0,-0.01879 0,-0.02817 0,-0.03757 0,-0.07512 0,-0.112689 0,-0.103296 0,-0.206594 0,-0.30989 0,-0.02817 0,-0.05635 0,-0.08452 0,-0.0094 0,-0.01879 0,-0.02817 0,-0.0094 0.004,-0.01977 0,-0.02817 -0.0245,-0.04898 -0.0564,-0.09391 -0.0845,-0.14086 z"
       id="path334" /><path
       style="fill:#742f0b;fill-opacity:1;fill-rule:evenodd;stroke:none;stroke-width:0.215227px;stroke-linecap:butt;stroke-linejoin:miter;stroke-opacity:1"
       d="m 145.5279,75.174279 c -0.0177,0.177196 -0.0721,0.725929 -0.0845,0.816987 -0.004,0.02942 -0.0224,0.0554 -0.0281,0.08452 -0.004,0.01842 0,0.03757 0,0.05635 0,0.03757 0,0.07512 0,0.112687 0,0.112689 0,0.225378 0,0.338064 0,0.05634 0,0.112689 0,0.169034 0,0.02696 -0.004,0.05785 0,0.08451 0.008,0.05654 0.0201,0.112484 0.0281,0.169031 0.002,0.0186 -0.008,0.03954 0,0.05635 0.0645,0.128933 -0.0117,-0.119545 0.0564,0.08452 0.006,0.01782 -0.006,0.03853 0,0.05635 0.007,0.01993 0.0216,0.03642 0.0281,0.05634 0.007,0.01993 -0.0183,0.08452 0.0281,0.08452 0.009,0 -0.004,-0.01978 0,-0.02817 0.0415,-0.0829 0.0282,0.04373 0.0282,-0.08452 0,-0.328671 0,-0.657345 0,-0.986019 0,-0.07057 -0.005,0.01042 0.0564,-0.112687 0.004,-0.0084 0,-0.01879 0,-0.02817 0,-0.01879 0,-0.03756 0,-0.05634 0,-0.06573 0,-0.131469 0,-0.197204 0,-0.02817 -0.006,-0.05689 0,-0.08452 0.004,-0.0206 0.0216,-0.03643 0.0281,-0.05634 0.006,-0.01823 0,-0.1101 0,-0.14086 0,-0.09391 0,-0.187814 0,-0.28172 0,-0.07527 0,-0.03742 0,-0.112688 0,-0.0094 0.009,-0.02817 0,-0.02817 -0.0479,0 -0.0939,0.01879 -0.14085,0.02817 z"
       id="path335" /><path
       style="fill:#742f0b;fill-opacity:1;fill-rule:evenodd;stroke:none;stroke-width:0.215227px;stroke-linecap:butt;stroke-linejoin:miter;stroke-opacity:1"
       d="m 149.20434,73.582562 c -0.0469,-0.01171 -0.0189,0.178802 -0.0281,0.197204 -0.0151,0.03029 -0.049,0.05147 -0.0564,0.08452 -0.0122,0.05501 0,0.112688 0,0.169033 0,0.02817 0,0.05635 0,0.08451 0,0.02817 0.006,0.05689 0,0.08452 -0.004,0.0206 -0.0215,0.03643 -0.0281,0.05635 -0.006,0.01782 0,0.03756 0,0.05635 0,0.04695 0,0.09391 0,0.14086 0,0.159641 0,0.319282 0,0.478924 0,0.206595 0,0.413187 0,0.619782 0,0.05634 0,0.112689 0,0.169033 0,0.02817 -0.005,0.05673 0,0.08451 0.005,0.02929 0.021,0.05571 0.0281,0.08452 0.006,0.0241 0,0.112701 0,0.14086 0,0.0094 0,-0.01879 0,-0.02817 0,-0.129188 0.006,0.02969 -0.0281,-0.14086 -0.004,-0.01843 0,-0.03757 0,-0.05635 0,-0.09068 0.007,0.04809 -0.0281,-0.05635 -0.006,-0.01782 0.005,-0.03813 0,-0.05635 -0.005,-0.02039 -0.0216,-0.03643 -0.0281,-0.05634 -0.003,-0.0089 0.003,-0.01926 0,-0.02817 -0.007,-0.0199 -0.0241,-0.03575 -0.0282,-0.05634 -0.006,-0.02824 0,-0.132348 0,-0.169031 0,-0.0094 0.004,-0.01978 0,-0.02817 -0.0645,-0.128932 0.0116,0.119544 -0.0564,-0.08452 -0.006,-0.01782 0.008,-0.03954 0,-0.05634 -0.006,-0.01188 -0.024,-0.01559 -0.0282,-0.02817 -0.006,-0.01782 0.003,-0.03782 0,-0.05635 -0.006,-0.03819 -0.0206,-0.07473 -0.0281,-0.112686 -0.004,-0.01843 0.006,-0.03853 0,-0.05635 -0.007,-0.01993 -0.0216,-0.03643 -0.0281,-0.05635 -0.003,-0.0089 0.003,-0.01926 0,-0.02817 -0.007,-0.01993 -0.0231,-0.03597 -0.0281,-0.05635 -0.005,-0.01823 0.004,-0.03792 0,-0.05635 -0.006,-0.02912 -0.0233,-0.05523 -0.0281,-0.08452 -0.005,-0.02779 0,-0.05635 0,-0.08452 0,-0.05635 0,-0.112689 0,-0.169033 0,-0.05634 0,-0.112687 0,-0.169031 0,-0.01879 -0.005,-0.03813 0,-0.05635 0.005,-0.02039 0.0231,-0.03597 0.0281,-0.05635 0.005,-0.01821 -0.003,-0.03782 0,-0.05634 0.007,-0.03819 0.0206,-0.07472 0.0281,-0.112689 0.002,-0.0092 -0.004,-0.01978 0,-0.02817 0.006,-0.01188 0.0222,-0.01629 0.0281,-0.02817 0.0312,-0.06228 0.0281,-0.06467 0.0281,-0.112686 0,-0.01879 -0.006,-0.03853 0,-0.05635 0.004,-0.01259 0.0188,-0.01879 0.0282,-0.02817 0.009,-0.01879 0.0231,-0.03597 0.0281,-0.05634 0.005,-0.01823 -0.005,-0.03813 0,-0.05635 0.005,-0.02038 0.0216,-0.03642 0.0281,-0.05634 0.0124,-0.03705 -0.0234,-0.05635 0.0564,-0.05635 0.009,0 0.0201,-0.0048 0.0281,0 0.0403,0.02416 0.0751,0.05635 0.11269,0.08451 z"
       id="path333" /><path
       style="fill:#742f0b;fill-opacity:1;fill-rule:evenodd;stroke:none;stroke-width:0.215227px;stroke-linecap:butt;stroke-linejoin:miter;stroke-opacity:1"
       d="m 137.56932,75.633762 c -0.009,0.05635 -0.0241,0.112056 -0.0282,0.169031 -0.007,0.09176 0,0.198978 0,0.295806 0,0.01879 0,0.03757 0,0.05635 0,0.01407 0,0.02817 0,0.04226 0,0.0047 8.2e-4,0.0095 0,0.01407 -0.004,0.01899 -0.0109,0.03725 -0.0141,0.05634 -0.002,0.0093 0,0.01879 0,0.02817 0,0.02348 0.004,0.04727 0,0.07043 -8.1e-4,0.0065 -0.0111,0.0082 -0.0141,0.01407 -0.002,0.0042 0,0.0094 0,0.01407 -0.009,0.0094 -0.0208,0.01713 -0.0282,0.02817 -0.002,0.0039 8.1e-4,0.05331 0,0.05635 -0.002,0.0063 -0.0124,0.0076 -0.0141,0.01407 -0.003,0.01367 0,0.02817 0,0.04226 0,0.02348 0,0.04695 0,0.07043 0,0.01879 -0.004,0.03792 0,0.05635 0.002,0.01029 0.0107,0.01821 0.0141,0.02817 0.004,0.01267 -0.004,0.02958 0,0.04226 0.003,0.01 0.009,0.01879 0.0141,0.02817 0.005,0.0094 0.008,0.01943 0.0141,0.02817 0.0174,0.02611 0.0141,0.0013 0.0141,0.02817 0,0.0047 0,0.01879 0,0.01407 0,-0.03286 0,-0.06574 0,-0.0986 0,-0.0094 -0.003,-0.01926 0,-0.02817 0.002,-0.0063 0.0111,-0.0081 0.0141,-0.01407 0.002,-0.0042 0,-0.0094 0,-0.01407 0,-0.0094 -0.003,-0.01926 0,-0.02817 0.002,-0.0063 0.009,-0.0094 0.0141,-0.01407 0.005,-0.01407 0.0111,-0.0277 0.0141,-0.04226 0.002,-0.0092 0,-0.01879 0,-0.02817 0,-0.02817 0,-0.05635 0,-0.08452 0,-0.01407 -0.002,-0.02845 0,-0.04226 0.004,-0.01899 0.0109,-0.03725 0.0141,-0.05635 0.002,-0.0139 0,-0.02817 0,-0.04226 0,-0.02817 0,-0.05635 0,-0.08452 0,-0.0986 0,-0.197204 0,-0.295807 0,-0.06574 0,-0.131469 0,-0.197204 0,-0.0094 -0.003,-0.01926 0,-0.02817 0.007,-0.02015 0.0216,-0.0055 0.0141,-0.02817 -0.008,-0.02399 -0.0188,-0.04695 -0.0281,-0.07043 z"
       id="path337" /><path
       style="fill:#742f0b;fill-opacity:1;fill-rule:evenodd;stroke:none;stroke-width:0.215227px;stroke-linecap:butt;stroke-linejoin:miter;stroke-opacity:1"
       d="m 140.13296,75.723534 c -0.009,0.41319 -0.0107,0.826639 -0.0281,1.239566 -0.0107,0.254015 -0.0389,0.507004 -0.0564,0.760643 -0.007,0.102444 0.0113,0.207923 0,0.309893 -0.004,0.03848 -0.0227,0.07436 -0.0281,0.112687 -0.004,0.02789 0,0.05634 0,0.08452 v 0.225378 c 0,0.03756 0.007,0.07586 0,0.112686 -0.002,0.01302 -0.0245,0.01542 -0.0281,0.02817 -0.0157,0.05492 -0.0132,0.113922 -0.0281,0.169032 -0.0273,0.09994 -0.0877,0.181699 -0.11269,0.281719 -0.0116,0.04646 -0.0144,0.095 -0.0282,0.14086 -0.0146,0.04843 -0.0403,0.09289 -0.0564,0.14086 -0.003,0.0089 0.002,0.01907 0,0.02817 -0.0144,0.05762 -0.0447,0.110792 -0.0564,0.169031 -0.004,0.01842 0,0.03756 0,0.05634 v 0.08452 0.197204 0.14086 0.02817 c 0,0.01879 -0.0188,0.05635 0,0.05635 0.021,0 0.0203,-0.03685 0.0281,-0.05635 0.0111,-0.02757 0.0188,-0.05635 0.0281,-0.08451 0.009,-0.02817 0.0149,-0.05796 0.0282,-0.08452 0.0572,-0.114417 0.0866,-0.08081 0.14085,-0.225375 0.01,-0.02638 -0.006,-0.05719 0,-0.08452 0.003,-0.01289 0.024,-0.01558 0.0282,-0.02817 0.006,-0.01782 0,-0.03757 0,-0.05635 0.0188,-0.01879 0.0416,-0.03425 0.0564,-0.05635 0.005,-0.0078 -0.003,-0.01926 0,-0.02817 0.007,-0.01993 0.0165,-0.03888 0.0282,-0.05634 0.007,-0.01104 0.0222,-0.01629 0.0281,-0.02817 0.004,-0.0084 -0.002,-0.01907 0,-0.02817 0.007,-0.02881 0.0164,-0.05722 0.0282,-0.08452 0.0166,-0.0386 0.0398,-0.07409 0.0564,-0.112686 0.0117,-0.02729 0.0149,-0.05796 0.0281,-0.08452 0.0151,-0.03028 0.0412,-0.05423 0.0564,-0.08452 0.004,-0.0084 0,-0.01879 0,-0.02817 v -0.08451 -0.08452 c 0,-0.02817 -0.005,-0.05673 0,-0.08451 0.005,-0.02929 0.0245,-0.05505 0.0281,-0.08452 0.009,-0.07455 0,-0.15025 0,-0.225375 v -0.42258 -1.070536 -0.309891 -0.08452 c 0,-0.01879 0.005,-0.03812 0,-0.05635 -0.005,-0.02039 -0.0216,-0.03643 -0.0281,-0.05635 -0.006,-0.01782 0.007,-0.03891 0,-0.05634 -0.0156,-0.039 0.019,-0.0961 0.003,-0.135098 -0.009,-0.02133 -0.005,-0.07562 -0.0124,-0.09775 -0.004,-0.01259 0.0124,-0.119868 0.009,-0.132753 -0.007,-0.02733 -0.0225,-0.06395 -0.0249,-0.09199 -0.007,-0.06607 -0.0786,-0.01195 -0.0879,-0.07768 z"
       id="path338"
       sodipodi:nodetypes="cccccsscccsccccscccsssscccccccccccsscscsccscccscccsccccc" /><path
       id="path300"
       style="fill:url(#linearGradient6);fill-opacity:1;fill-rule:evenodd;stroke:url(#linearGradient8);stroke-width:0.215227px;stroke-linecap:butt;stroke-linejoin:miter"
       d="m 135.91685,61.28783 c -0.69958,0.317063 -1.19493,1.043982 -2.02371,1.757355 l -1.12901,1.373298 c -0.63272,0.811846 -0.7746,1.14242 -1.23358,1.921721 -0.3052,0.518186 -0.65456,0.705148 -0.89244,1.260408 -0.2154,0.502781 -0.83198,0.491407 -1.01388,1.165688 -0.19137,0.47643 -0.3822,0.651979 -0.5749,1.05527 -0.38807,0.825092 -1.02965,1.28499 -1.0954,1.461451 -0.0479,0.401175 -0.80164,0.95197 -1.02311,1.243536 -0.151,0.405781 -0.31867,0.794421 -0.49791,1.05349 -0.43534,0.01433 -0.89438,-0.03308 -1.31699,0.0589 -0.54269,-0.04951 -1.13358,0.131844 -1.63246,-0.112655 -0.601,-0.0015 -1.20219,0.0022 -1.80299,0 -1.25042,-0.109773 1.05179,1.223171 2.5399,1.577682 0.5638,0.03585 1.1715,-0.07712 1.70222,0.05736 0.28913,0.492585 1.06174,0.318374 1.53273,0.393258 0.73152,-0.02915 1.27553,0.15148 1.84484,0.198954 0.77695,-0.0028 1.49372,-0.02086 2.13217,0.02635 1.21924,-0.0011 2.43906,0.0015 3.65766,0 0.75237,-0.232116 1.87575,0.05145 2.67534,-0.141538 0.86732,0.0243 1.46048,0.108297 2.32641,0.115267 0.77606,0.257086 1.82439,-0.219171 2.66083,4.35e-4 0.90853,0.134024 1.85774,-0.226421 2.64377,-0.470256 0.52079,-0.452837 1.24516,-0.727314 1.86397,-1.137915 0.67729,-0.16287 1.33018,-0.416444 1.91564,-0.732255 -0.86715,0.0093 -1.62988,-0.257096 -2.46651,-0.458886 -0.44467,-0.17569 -1.01079,-0.242412 -1.57148,-0.231511 -0.23467,-0.403139 -0.24575,-0.571148 -0.51202,-0.839118 -0.22778,-0.426123 -0.5501,-1.024293 -1.057,-1.808238 -0.20702,-0.374526 -0.84175,-0.665493 -1.11504,-0.993465 -0.21457,-0.443127 -0.60072,-0.89353 -0.88061,-1.295012 -0.49718,-0.369439 -0.77612,-0.797512 -1.09884,-1.44345 -0.4926,-0.615942 -0.69176,-1.013261 -1.3462,-1.694385 -0.57589,-0.801393 -0.30282,-0.398941 -0.6188,-0.992977 -0.87094,-0.868886 -1.74294,-2.037974 -2.5926,-2.368762 z"
       sodipodi:nodetypes="cccsscccccccccccccccccccccccccccccc" /><path
       style="fill:#742f0b;fill-opacity:1;fill-rule:evenodd;stroke:none;stroke-width:0.264583px;stroke-linecap:butt;stroke-linejoin:miter;stroke-opacity:1"
       d="m 105.14388,74.648347 c 0.0231,0.115441 0.081,0.229181 0.0693,0.346324 -0.0124,0.123717 -0.0992,0.22837 -0.13853,0.346324 -0.0205,0.06145 -0.11805,0.492666 -0.13853,0.554118 -0.0163,0.04898 -0.0608,0.0876 -0.0693,0.138529 -0.0228,0.136645 0,0.277059 0,0.415589 0,0.04618 0.008,0.09298 0,0.138529 -0.0157,0.0939 -0.0486,0.184131 -0.0693,0.277059 -0.0255,0.114924 -0.0407,0.232112 -0.0693,0.346324 -0.0177,0.07083 -0.0573,0.135776 -0.0693,0.207794 -0.0114,0.06832 0,0.13853 0,0.207794 0,0.06926 0,0.13853 0,0.207795 0,0.323235 0,0.646471 0,0.969706 0,0.13853 0.0196,0.278451 0,0.415589 -0.15113,1.057899 -0.11106,0.126536 -0.20779,0.900441 -0.0172,0.13746 0.0272,0.279749 0,0.415589 -0.0101,0.05062 -0.0529,0.08955 -0.0693,0.138529 -0.007,0.0219 0.006,0.04687 0,0.06926 -0.0354,0.141663 -0.10685,0.273043 -0.13853,0.415589 -0.12918,0.06902 -0.0453,0.479769 -0.0693,0.623382 -0.012,0.07202 -0.0573,0.135776 -0.0693,0.207794 -0.0218,0.130723 0.0262,0.284736 0,0.415589 -0.0143,0.07159 -0.0573,0.135776 -0.0693,0.207794 -0.0114,0.06832 0.0114,0.139472 0,0.207794 -0.012,0.07202 -0.0492,0.137592 -0.0693,0.207795 -0.0261,0.09153 -0.0536,0.183159 -0.0693,0.277059 -0.008,0.04555 0.008,0.09298 0,0.138529 -0.0156,0.0939 -0.0558,0.182821 -0.0693,0.277059 -0.01,0.06857 0.0219,0.142084 0,0.207794 -0.0263,0.07897 -0.1093,0.129849 -0.13853,0.207795 -0.0413,0.110231 -0.0369,0.233126 -0.0693,0.346323 -0.0142,0.04964 -0.0591,0.08791 -0.0693,0.13853 -0.0136,0.06792 0,0.138529 0,0.207794 0,0.161618 0,0.323235 0,0.484853 0,0.09235 0,0.184706 0,0.277059 0,0.04618 -0.0112,0.09373 0,0.13853 0.0125,0.05008 0.0462,0.09235 0.0693,0.138529 0.0231,0.06927 0.0549,0.136201 0.0693,0.207794 0.0177,0.08829 -0.0234,0.345389 0,0.415589 0.0103,0.03098 0.0512,0.0421 0.0693,0.06927 0.0286,0.04296 0.0462,0.09235 0.0693,0.138529 0.0231,0.04618 0.0529,0.08955 0.0693,0.13853 0.007,0.0219 -0.006,0.04686 0,0.06926 0.0177,0.07083 0.0515,0.136962 0.0693,0.207794 0.0285,0.114212 0.0383,0.232744 0.0693,0.346323 0.0384,0.140878 0.0923,0.277059 0.13853,0.415589 0.0231,0.06926 0.0549,0.136201 0.0693,0.207794 0.009,0.04528 0,0.09235 0,0.13853 0,0.184705 0,0.369412 0,0.554118 0,0.207794 0,0.415588 0,0.623382 0,0.06927 -0.009,0.139065 0,0.207795 0.0174,0.139355 0.0518,0.276232 0.0693,0.415588 0.0115,0.09164 -0.0292,0.189445 0,0.277059 0.0652,0.195477 0.20011,0.407894 0.34633,0.554118 0.0231,0.02309 0.0401,0.05466 0.0693,0.06927 0.0207,0.01032 0.0462,0 0.0693,0 0.0462,0.02309 0.0972,0.03829 0.13853,0.06926 0.0522,0.03918 0.0842,0.102305 0.13853,0.138529 0.0192,0.01281 0.0478,0.0086 0.0693,0 0.42151,-0.168601 0.15014,-0.07855 0.48485,-0.346324 0.0403,-0.03225 0.0924,-0.04618 0.13853,-0.06926 0.0693,-0.04618 0.14385,-0.08524 0.2078,-0.13853 0.22811,-0.01357 0.17252,-0.241787 0.27706,-0.346324 0.26764,-0.267644 0.0217,0.233539 0.27706,-0.277059 0.0103,-0.02065 0,-0.04618 0,-0.06926 0,-0.04618 0,-0.09235 0,-0.13853 0,-0.115441 0,-0.230882 0,-0.346324 0,-0.415588 0,-0.831177 0,-1.246765 0,-0.13853 0,-0.277059 0,-0.415589 0,-0.06926 0,-0.138529 0,-0.207794 0,-0.04618 0.0127,-0.09413 0,-0.138529 -0.0342,-0.11955 -0.10438,-0.226774 -0.13853,-0.346324 -0.0106,-0.03707 0,-0.404985 0,-0.415588 0,-0.323236 0,-0.646471 0,-0.969707 0,-0.831177 0,-1.662354 0,-2.493531 0,-0.346324 0,-0.692647 0,-1.038971 0,-0.13853 0.0138,-0.277746 0,-0.415589 -0.009,-0.08757 -0.0991,-0.386404 -0.13853,-0.484853 -0.0192,-0.04793 -0.0529,-0.08955 -0.0693,-0.138529 -0.0181,-0.05448 0.006,-0.45066 0,-0.484853 -0.008,-0.05092 -0.0641,-0.08716 -0.0693,-0.13853 -0.0184,-0.183789 0,-0.369412 0,-0.554118 0,-0.13853 0,-0.277059 0,-0.415589 0,-0.577206 0,-1.154412 0,-1.731618 0,-0.230883 0,-0.461765 0,-0.692647 0,-0.04618 0,-0.09235 0,-0.13853 0,-0.02309 0.006,-0.04687 0,-0.06926 -0.0231,-0.06926 -0.0462,-0.138529 -0.0693,-0.207794 0,-0.02309 0.006,-0.04687 0,-0.06926 -0.0177,-0.07083 -0.0515,-0.136963 -0.0693,-0.207794 -0.006,-0.0224 0.0103,-0.04861 0,-0.06927 -0.0146,-0.0292 -0.0547,-0.04006 -0.0693,-0.06926 -0.0206,-0.0413 0.0207,-0.09723 0,-0.138529 -0.0146,-0.0292 -0.059,-0.03829 -0.0693,-0.06926 -0.0146,-0.04381 0.0112,-0.09373 0,-0.138529 -0.0125,-0.05009 -0.0567,-0.08844 -0.0693,-0.13853 -0.0112,-0.0448 0.0112,-0.09373 0,-0.138529 -0.0125,-0.05008 -0.0567,-0.08844 -0.0693,-0.13853 -0.0128,-0.05104 0.0203,-0.305743 0,-0.346324 -0.0146,-0.0292 -0.0462,-0.04618 -0.0693,-0.06927 -0.0231,-0.02309 -0.0383,-0.05894 -0.0693,-0.06927 -0.0259,-0.0086 -0.20307,0.0059 -0.20779,0 -0.0841,-0.105125 -0.13853,-0.230882 -0.2078,-0.346323 z"
       id="path208" /><path
       style="fill:#742f0b;fill-opacity:1;fill-rule:evenodd;stroke:none;stroke-width:0.264583px;stroke-linecap:butt;stroke-linejoin:miter;stroke-opacity:1"
       d="m 114.97948,51.583186 c 0.11433,2.972692 0.37238,2.911655 -0.13853,5.12559 -0.0232,0.100611 -0.11349,0.17689 -0.13853,0.277061 -0.0263,0.105347 0,0.576644 0,0.692648 0,0.554117 0,1.108234 0,1.662353 0,0.369411 0,0.738823 0,1.108236 0,0.487733 -0.10627,0.724903 0.27706,1.108237 0.0327,0.03265 0,-0.09236 0,-0.138531 0,-0.13853 -0.0336,-0.281196 0,-0.415589 0.0251,-0.100171 0.0924,-0.184705 0.13853,-0.277058 0,-0.184706 -0.0362,-0.372999 0,-0.554117 0.004,-0.0209 0.24681,-0.231685 0.27706,-0.277061 0.0573,-0.08591 0.10587,-0.179102 0.13853,-0.277059 0.0318,-0.09528 -0.0409,-0.333853 0,-0.415589 0.0292,-0.05841 0.0923,-0.09235 0.13853,-0.138527 0.0462,-0.09235 0.10018,-0.181192 0.13853,-0.277061 0.0542,-0.135578 0.0843,-0.280009 0.13853,-0.415587 0.0383,-0.09587 0.10587,-0.179104 0.13852,-0.277061 0.0146,-0.0438 -0.0256,-0.100108 0,-0.138528 0.0725,-0.108672 0.20462,-0.168389 0.27707,-0.277058 0.0198,-0.02977 0,-0.46481 0,-0.55412 0,-0.507942 0,-1.015883 0,-1.523822 0,-0.323237 0,-0.646473 0,-0.969709 0,-0.138528 -0.0228,-0.278942 0,-0.415586 0.024,-0.144037 0.10311,-0.273926 0.13852,-0.415589 0.0273,-0.109149 0,-0.463754 0,-0.55412 0,-0.04618 0,-0.09235 0,-0.138528 0,-0.04618 0.0207,-0.09723 0,-0.13853 -0.0584,-0.116819 -0.21865,-0.16024 -0.27706,-0.277059 -0.0207,-0.0413 0,-0.09235 0,-0.13853 0,-0.09235 0.0292,-0.189444 0,-0.277059 -0.0413,-0.123904 -0.21864,-0.160239 -0.27705,-0.277058 -0.0207,-0.0413 0.0256,-0.100108 0,-0.138531 -0.29355,-0.440317 -0.40592,-0.277058 -0.96971,-0.277058 z"
       id="path209" /><path
       style="fill:#742f0b;fill-opacity:1;fill-rule:evenodd;stroke:none;stroke-width:0.264583px;stroke-linecap:butt;stroke-linejoin:miter;stroke-opacity:1"
       d="m 142.13126,35.790824 c 0.27202,0.816068 0.25569,0.89768 0.69265,1.662354 0.0583,0.102009 0.38643,0.328113 0.41559,0.415588 0.0292,0.08761 -0.0292,0.189446 0,0.277059 0.0207,0.06195 0.11787,0.07658 0.13852,0.13853 0.0292,0.08761 0,0.184706 0,0.277059 0,0.138529 0,0.277059 0,0.415588 0,0.461765 0,0.92353 0,1.385295 0,0.05827 0.0206,0.789968 0,0.831177 -0.0292,0.05841 -0.10932,0.08012 -0.13852,0.13853 -0.0206,0.0413 0.0146,0.09472 0,0.138529 -0.0327,0.09795 -0.10588,0.179104 -0.13853,0.277059 -0.0146,0.04381 0,0.09235 0,0.13853 -0.0462,0.09235 -0.10588,0.179103 -0.13853,0.277059 -0.0292,0.08761 0.0413,0.194455 0,0.277059 -0.0793,0.158584 -0.20351,0.08213 -0.13853,0.277059 0.0326,0.09795 0.10588,0.179104 0.13853,0.277059 0.0292,0.08761 -0.0413,0.194456 0,0.277059 0.17729,0.354588 0.40876,0.0068 0.55411,-0.13853 0.32625,-0.326243 0.29199,-0.255764 0.55412,-0.692647 0.0531,-0.08854 0.0813,-0.191147 0.13853,-0.277059 0.0362,-0.05434 0.10231,-0.08419 0.13853,-0.13853 0.0573,-0.08591 0.0924,-0.184706 0.13853,-0.277059 0.0462,-0.09235 0.10588,-0.179104 0.13853,-0.277059 0.0146,-0.04381 -0.0206,-0.09723 0,-0.138529 0.20383,-0.407666 0.13853,0.215037 0.13853,-0.415589 0,-0.332977 0.0146,0.05841 -0.13853,-0.554118 -0.0112,-0.0448 0.0146,-0.09472 0,-0.138529 -0.0326,-0.09796 -0.0923,-0.184706 -0.13853,-0.277059 -0.0462,-0.09235 -0.0812,-0.191147 -0.13853,-0.277059 -0.0362,-0.05434 -0.12269,-0.07518 -0.13853,-0.13853 -0.03,-0.120046 0,-0.790822 0,-0.969706 0,-0.09235 0,-0.184706 0,-0.277059 0,-0.04618 0.0207,-0.09723 0,-0.13853 -0.317,-0.633995 0.0574,0.587839 -0.27706,-0.415588 -0.13746,-0.412379 0.32802,0.284236 -0.13853,-0.415589 -0.0362,-0.05434 -0.10932,-0.08012 -0.13852,-0.138529 -0.0206,-0.0413 0.0256,-0.100108 0,-0.13853 -0.0725,-0.108671 -0.20462,-0.168387 -0.27707,-0.277059 -0.0256,-0.03842 0.0206,-0.09723 0,-0.138529 -0.0584,-0.116818 -0.20461,-0.168388 -0.27705,-0.277059 -0.0573,-0.08591 -0.0489,-0.225831 -0.13853,-0.277059 -0.25357,-0.144895 -0.55412,-0.184706 -0.83118,-0.277059 z"
       id="path210" /><path
       style="fill:#742f0b;fill-opacity:1;fill-rule:evenodd;stroke:none;stroke-width:0.264583px;stroke-linecap:butt;stroke-linejoin:miter;stroke-opacity:1"
       d="m 154.32185,40.777886 c -0.32323,0.877353 -0.74293,1.724974 -0.9697,2.63206 -0.0514,0.205453 0,1.336328 0,1.800884 0,0.08208 -0.016,0.945745 0,0.969706 0.30971,0.464566 0.27706,0.0917 0.27706,0.415588 0,0.323236 0,0.646471 0,0.969707 0,0.04618 0,0.09235 0,0.138529 0,0.04618 -0.0207,0.09723 0,0.13853 0.0292,0.05841 0.0732,0.138529 0.13853,0.138529 0.0653,0 0.0924,-0.09235 0.13853,-0.138529 0.63062,-0.630626 0.0732,0.05738 0.27706,-0.554118 0.0206,-0.06195 0.0923,-0.09235 0.13852,-0.13853 0.0924,-0.09235 0.1987,-0.172573 0.27706,-0.277059 0.062,-0.0826 0.0813,-0.191146 0.13853,-0.277059 0.0362,-0.05433 0.12269,-0.07518 0.13853,-0.138529 0.03,-0.120047 0,-0.790823 0,-0.969706 0,-0.415589 0,-0.831178 0,-1.246766 0,-0.13853 0,-0.277059 0,-0.415589 0,-0.04618 0.0146,-0.09472 0,-0.138529 -0.0326,-0.09795 -0.11348,-0.176888 -0.13853,-0.277059 -0.0224,-0.0896 0,-0.184706 0,-0.277059 0,-0.184706 0,-0.369412 0,-0.554118 0,-0.09235 0,-0.184706 0,-0.277059 0,-0.04618 0.0207,-0.09723 0,-0.138529 -0.0292,-0.05841 -0.1023,-0.08419 -0.13853,-0.13853 -0.0573,-0.08591 -0.0812,-0.191146 -0.13852,-0.277059 -0.0362,-0.05434 -0.10933,-0.08012 -0.13854,-0.138529 -0.0206,-0.0413 0,-0.09235 0,-0.13853 0,-0.230882 0,-0.461765 0,-0.692647 z"
       id="path211" /><path
       style="fill:#742f0b;fill-opacity:1;fill-rule:evenodd;stroke:none;stroke-width:0.264583px;stroke-linecap:butt;stroke-linejoin:miter;stroke-opacity:1"
       d="m 164.29598,66.267312 c 0.60029,1.570001 1.25205,3.121279 1.80088,4.710004 0.3293,0.953233 0.57661,1.933268 0.83118,2.909118 0.0233,0.08936 0,0.184705 0,0.277061 0,0.226613 -0.0204,0.467995 0,0.692647 0.0379,0.416428 0.10874,0.82968 0.13853,1.246764 0.0165,0.230296 0,0.461764 0,0.692648 0,0.09235 -0.0224,0.187462 0,0.277058 0.0501,0.200343 0.23656,0.351621 0.27706,0.55412 0.0272,0.135839 0,0.277058 0,0.415586 0,0.138531 0,0.277061 0,0.415589 0,0.09235 -0.0181,0.1865 0,0.277061 0.0746,0.373227 0.327,0.753883 0.41559,1.108234 0.0336,0.134395 -0.0336,0.281196 0,0.415589 0.0159,0.06335 0.0924,0.09235 0.13852,0.13853 0.0462,0.138528 0.12042,0.270693 0.13853,0.415589 0.0286,0.229098 -0.0209,0.462712 0,0.692648 0.0254,0.279725 0.1037,0.552463 0.13854,0.831175 0.009,0.06805 -0.0266,0.474491 0,0.55412 0.1674,0.502208 0.0657,0.09859 0.27705,0.415586 0.0573,0.08591 0.0924,0.184708 0.13853,0.277061 0.0586,0.11712 0.24056,0.554117 0.41559,0.554117 0.0924,0 -0.0181,-0.1865 0,-0.277059 0.0286,-0.143187 0.11453,-0.271552 0.13853,-0.415589 0.0228,-0.136644 0,-0.277058 0,-0.415589 0,-0.23088 0,-0.461764 0,-0.692647 0,-0.277058 0,-0.554117 0,-0.831175 0,-0.138531 0,-0.277061 0,-0.415589 0,-0.04618 0.0146,-0.09472 0,-0.138531 -0.0326,-0.09795 -0.10588,-0.179104 -0.13853,-0.277058 -0.0146,-0.04381 0,-0.09235 0,-0.138531 -0.0462,-0.138528 -0.0732,-0.28498 -0.13853,-0.415586 -0.16649,-0.332984 -0.40292,-0.629507 -0.55412,-0.969709 -0.0375,-0.08439 0,-0.184705 0,-0.277058 -0.0462,-0.138528 -0.0661,-0.288806 -0.13852,-0.415589 -0.11456,-0.200462 -0.31234,-0.34761 -0.41559,-0.554117 -0.0413,-0.0826 0.0152,-0.185962 0,-0.277058 -0.0313,-0.187802 -0.0783,-0.373499 -0.13853,-0.55412 -0.28663,-0.859867 0.0112,0.460407 -0.27706,-0.692647 -0.0224,-0.0896 0,-0.184706 0,-0.277059 0,-0.323236 0,-0.646469 0,-0.969705 0,-0.09235 0,-0.184706 0,-0.277059 0,-0.04618 0.0112,-0.09373 0,-0.13853 -0.0354,-0.141664 -0.11452,-0.271553 -0.13853,-0.415589 -0.0228,-0.136645 0.0438,-0.284168 0,-0.415589 -0.0526,-0.157949 -0.21148,-0.262557 -0.27706,-0.415587 -0.16093,-0.375502 -0.13853,-0.493831 -0.13853,-0.831178 0,-0.13853 0.0336,-0.281196 0,-0.415589 -0.0603,-0.241244 -0.19842,-0.456739 -0.27706,-0.692647 -0.0146,-0.04381 0.0146,-0.09472 0,-0.138531 -0.0326,-0.09795 -0.11349,-0.176887 -0.13853,-0.277058 -0.0224,-0.0896 0.0224,-0.187463 0,-0.277058 -0.025,-0.100172 -0.10018,-0.18119 -0.13853,-0.277059 -0.14463,-0.361579 -0.19591,-0.77873 -0.41559,-1.108236 -0.0724,-0.108673 -0.23575,-0.153154 -0.27706,-0.277059 -0.0292,-0.08761 0.0292,-0.189447 0,-0.277058 -0.0206,-0.06195 -0.10932,-0.08012 -0.13852,-0.138531 -0.0653,-0.130606 -0.0924,-0.277058 -0.13853,-0.415589 -0.0924,-0.277058 -0.20623,-0.547851 -0.27706,-0.831175 -0.0112,-0.0448 0.0146,-0.09472 0,-0.138531 -0.0952,-0.285458 -0.68602,-1.098282 -0.69265,-1.108236 z"
       id="path212" /><path
       style="fill:#742f0b;fill-opacity:1;fill-rule:evenodd;stroke:none;stroke-width:0.264583px;stroke-linecap:butt;stroke-linejoin:miter;stroke-opacity:1"
       d="m 158.74681,52.016076 c -0.0653,1.240765 -0.15827,2.480383 -0.19591,3.722295 -0.0394,1.29923 0,2.614204 0,3.918206 0,0.326517 0,0.653034 0,0.979551 0,0.128735 0.0369,0.477199 0,0.587731 -0.22157,0.664723 -0.41843,0.328987 -0.58773,1.175462 -0.0483,0.241374 0.0737,0.758332 0,0.979551 -0.0292,0.08761 -0.15461,0.113308 -0.19591,0.195911 -0.0292,0.05841 0.0207,0.133958 0,0.19591 -0.0462,0.138529 -0.16049,0.250157 -0.19591,0.391821 -2e-5,8e-5 -0.0204,0.938688 0,0.979551 0.0413,0.0826 0.11331,0.154609 0.19591,0.19591 0.19218,0.09609 0.28562,-0.08971 0.39182,-0.19591 0.13061,-0.130607 0.26122,-0.261214 0.39182,-0.391821 0.0653,-0.0653 0.15461,-0.113307 0.19591,-0.19591 0.0292,-0.05841 0,-0.130607 0,-0.19591 0,-0.391821 0,-0.783641 0,-1.175462 0,-0.130607 -0.0256,-0.26375 0,-0.391821 0.0405,-0.202497 0.14583,-0.387389 0.19591,-0.58773 0.0317,-0.126707 -0.0584,-0.275002 0,-0.391821 0.0413,-0.0826 0.15461,-0.113307 0.19591,-0.19591 0.0502,-0.100409 -0.0393,-0.626582 0,-0.783641 0.26655,-1.0662 0.2113,-0.123094 0.39183,-1.567283 0.0243,-0.194397 0,-0.39182 0,-0.587731 0,-0.0653 -0.0207,-0.133958 0,-0.19591 0.0462,-0.138529 0.14973,-0.253291 0.1959,-0.39182 0.0207,-0.06195 0,-0.130607 0,-0.195911 0,-0.130607 0,-0.261213 0,-0.39182 0,-0.457124 0,-0.914248 0,-1.371372 0,-0.261214 0,-0.522428 0,-0.783641 0,-0.130607 0.0317,-0.265114 0,-0.391821 -0.40766,-1.630663 0.0135,0.236485 -0.39182,-0.979551 -0.0583,-0.17482 0.0646,-0.41544 0,-0.587731 -0.17462,-0.465671 -0.39182,-0.914248 -0.58773,-1.371372 z"
       id="path213" /><path
       style="fill:#742f0b;fill-opacity:1;fill-rule:evenodd;stroke:none;stroke-width:0.264583px;stroke-linecap:butt;stroke-linejoin:miter;stroke-opacity:1"
       d="m 126.35571,34.685471 c -0.22816,-0.03001 -0.0934,1.433492 -0.13853,1.523825 -0.0292,0.05841 -0.11788,0.07658 -0.13853,0.138529 -0.0745,0.223373 -0.0738,0.466252 -0.13853,0.692648 -0.0284,0.09928 -0.11828,0.17581 -0.13853,0.277059 -0.0272,0.135839 0,0.277059 0,0.415588 0,0.369412 0,0.738824 0,1.108236 0,0.738824 0,1.477648 0,2.216472 0,0.230883 0,0.461765 0,0.692648 0,0.04618 -0.0146,0.09472 0,0.138529 0.0326,0.09796 0.10588,0.179104 0.13853,0.277059 0.0261,0.07816 0,0.32456 0,0.415589 0,0.277059 0,0.554118 0,0.831177 0,0.09635 -0.0251,0.64255 0,0.692647 0.0292,0.05841 0.0924,0.09235 0.13853,0.138529 0,0.09235 -0.0292,0.189446 0,0.277059 0.0207,0.06195 0.11788,0.07658 0.13853,0.13853 0.0292,0.08761 0,0.184706 0,0.277059 0,0.04618 -0.0462,0.13853 0,0.13853 0.0923,0 -0.0413,-0.194456 0,-0.27706 0.0292,-0.05841 0.0923,-0.09235 0.13853,-0.138529 0,-0.09235 -0.0292,-0.189445 0,-0.277059 0.0206,-0.06195 0.10933,-0.08012 0.13853,-0.13853 0.0211,-0.04216 0,-0.3532 0,-0.415588 0,-0.323235 0,-0.646471 0,-0.969706 0,-0.118904 -0.027,-0.750127 0,-0.831177 0.0207,-0.06195 0.12269,-0.07518 0.13853,-0.13853 0.0336,-0.134393 0,-0.277059 0,-0.415588 0,-0.277059 0,-0.554118 0,-0.831177 0,-0.831177 0,-1.662354 0,-2.493531 0,-0.369412 0,-0.738824 0,-1.108236 0,-0.120048 0.0268,-0.473872 0,-0.554118 -0.0326,-0.09795 -0.10588,-0.179104 -0.13853,-0.277059 -0.0389,-0.116633 0.0412,-0.610172 0,-0.692647 -0.30179,-0.603577 -0.13853,0.993755 -0.13853,-0.831178 z"
       id="path214" /><path
       style="fill:#742f0b;fill-opacity:1;fill-rule:evenodd;stroke:none;stroke-width:0.264583px;stroke-linecap:butt;stroke-linejoin:miter;stroke-opacity:1"
       d="m 122.60873,35.236705 c -0.60029,1.570001 -1.25205,3.121279 -1.80088,4.710004 -0.3293,0.953233 -0.57661,1.933268 -0.83118,2.909118 -0.0233,0.08936 0,0.184705 0,0.277061 0,0.226613 0.0204,0.467995 0,0.692647 -0.0379,0.416428 -0.10874,0.82968 -0.13853,1.246764 -0.0165,0.230296 0,0.461764 0,0.692648 0,0.09235 0.0224,0.187462 0,0.277058 -0.0501,0.200343 -0.23656,0.351621 -0.27706,0.55412 -0.0272,0.135839 0,0.277058 0,0.415586 0,0.138531 0,0.277061 0,0.415589 0,0.09235 0.0181,0.1865 0,0.277061 -0.0746,0.373227 -0.327,0.753883 -0.41559,1.108234 -0.0336,0.134395 0.0336,0.281196 0,0.415589 -0.0159,0.06335 -0.0924,0.09235 -0.13852,0.13853 -0.0462,0.138528 -0.12042,0.270693 -0.13853,0.415589 -0.0286,0.229098 0.0209,0.462712 0,0.692648 -0.0254,0.279725 -0.1037,0.552463 -0.13854,0.831175 -0.009,0.06805 0.0266,0.474491 0,0.55412 -0.1674,0.502208 -0.0657,0.09859 -0.27705,0.415586 -0.0573,0.08591 -0.0924,0.184708 -0.13853,0.277061 -0.0586,0.11712 -0.24056,0.554117 -0.41559,0.554117 -0.0924,0 0.0181,-0.1865 0,-0.277059 -0.0286,-0.143187 -0.11453,-0.271552 -0.13853,-0.415589 -0.0228,-0.136644 0,-0.277058 0,-0.415589 0,-0.23088 0,-0.461764 0,-0.692647 0,-0.277058 0,-0.554117 0,-0.831175 0,-0.138531 0,-0.277061 0,-0.415589 0,-0.04618 -0.0146,-0.09472 0,-0.138531 0.0326,-0.09795 0.10588,-0.179104 0.13853,-0.277058 0.0146,-0.04381 0,-0.09235 0,-0.138531 0.0462,-0.138528 0.0732,-0.28498 0.13853,-0.415586 0.16649,-0.332984 0.40292,-0.629507 0.55412,-0.969709 0.0375,-0.08439 0,-0.184705 0,-0.277058 0.0462,-0.138528 0.0661,-0.288806 0.13852,-0.415589 0.11456,-0.200462 0.31234,-0.34761 0.41559,-0.554117 0.0413,-0.0826 -0.0152,-0.185962 0,-0.277058 0.0313,-0.187802 0.0783,-0.373499 0.13853,-0.55412 0.28663,-0.859867 -0.0112,0.460407 0.27706,-0.692647 0.0224,-0.0896 0,-0.184706 0,-0.277059 0,-0.323236 0,-0.646469 0,-0.969705 0,-0.09235 0,-0.184706 0,-0.277059 0,-0.04618 -0.0112,-0.09373 0,-0.13853 0.0354,-0.141664 0.11452,-0.271553 0.13853,-0.415589 0.0228,-0.136645 -0.0438,-0.284168 0,-0.415589 0.0526,-0.157949 0.21148,-0.262557 0.27706,-0.415587 0.16093,-0.375502 0.13853,-0.493831 0.13853,-0.831178 0,-0.13853 -0.0336,-0.281196 0,-0.415589 0.0603,-0.241244 0.19842,-0.456739 0.27706,-0.692647 0.0146,-0.04381 -0.0146,-0.09472 0,-0.138531 0.0326,-0.09795 0.11349,-0.176887 0.13853,-0.277058 0.0224,-0.0896 -0.0224,-0.187463 0,-0.277058 0.025,-0.100172 0.10018,-0.18119 0.13853,-0.277059 0.14463,-0.361579 0.19591,-0.77873 0.41559,-1.108236 0.0724,-0.108673 0.23575,-0.153154 0.27706,-0.277059 0.0292,-0.08761 -0.0292,-0.189447 0,-0.277058 0.0206,-0.06195 0.10932,-0.08012 0.13852,-0.138531 0.0653,-0.130606 0.0924,-0.277058 0.13853,-0.415589 0.0924,-0.277058 0.20623,-0.547851 0.27706,-0.831175 0.0112,-0.0448 -0.0146,-0.09472 0,-0.138531 0.0952,-0.285458 0.68602,-1.098282 0.69265,-1.108236 z"
       id="path218" /><path
       style="fill:#742f0b;fill-opacity:1;fill-rule:evenodd;stroke:none;stroke-width:0.264583px;stroke-linecap:butt;stroke-linejoin:miter;stroke-opacity:1"
       d="m 149.47955,81.302769 c -0.25287,0.779878 -0.19591,1.550305 -0.19591,2.350923 0,0.195911 0.0384,0.395627 0,0.587733 -0.0405,0.202496 -0.1731,0.382484 -0.19591,0.587729 -0.0577,0.519232 0,1.044856 0,1.567283 0,0.130607 0,0.261213 0,0.391822 0,0.0653 0.0207,0.133956 0,0.195908 -0.0462,0.13853 -0.16049,0.250158 -0.19591,0.391821 -0.0633,0.253416 0.0633,0.530228 0,0.783641 -0.0354,0.141663 -0.16049,0.250158 -0.19591,0.391821 -0.0317,0.126706 0.0215,0.262991 0,0.391821 -0.0443,0.265589 -0.15783,0.517094 -0.19591,0.783641 -0.0739,0.517175 0.0648,1.04889 0,1.567283 -0.0256,0.204912 -0.13061,0.391819 -0.19591,0.587729 -0.13061,0.391822 -0.30222,0.772282 -0.39182,1.175462 -0.0425,0.191246 0,0.391822 0,0.587732 0,0.58773 0,1.175462 0,1.763192 0,0.587732 0,1.175461 0,1.763193 0,0.460921 -0.0919,1.048886 0.39182,1.371373 0.1215,0.081 0.1719,-0.247785 0.19591,-0.391822 0.0429,-0.257659 -0.0369,-0.525052 0,-0.78364 0.0292,-0.204433 0.14583,-0.387389 0.19591,-0.587732 0.0317,-0.126706 -0.0584,-0.275003 0,-0.391821 0.0413,-0.0826 0.13061,-0.130607 0.19591,-0.195909 0.13061,-0.19591 0.30915,-0.367268 0.39182,-0.587732 0.0653,-0.326517 0.13061,-0.653034 0.19591,-0.979551 0.0653,-0.0653 0.15461,-0.113307 0.19591,-0.19591 0.059,-0.117999 -0.0571,-1.004226 0,-1.175462 0.0462,-0.138531 0.1605,-0.250158 0.19591,-0.391822 0.0475,-0.19006 -0.062,-0.401873 0,-0.587729 0.0462,-0.138531 0.14974,-0.253291 0.19591,-0.391822 0.0206,-0.06195 -0.0159,-0.132556 0,-0.19591 0.0501,-0.20034 0.15541,-0.385234 0.19591,-0.58773 0.0384,-0.192106 0,-0.391821 0,-0.587732 0,-0.457123 0,-0.914247 0,-1.37137 0,-0.130609 0,-0.261215 0,-0.391821 0,-0.0653 -0.0159,-0.132557 0,-0.195911 0.0501,-0.200342 0.14583,-0.38739 0.19591,-0.58773 0.0362,-0.144623 0,-0.839806 0,-0.979553 0,-0.128733 0.0369,-0.477197 0,-0.58773 -0.0462,-0.13853 -0.14973,-0.253291 -0.19591,-0.391821 -0.0413,-0.123905 0,-0.261213 0,-0.391819 0,-0.261215 0,-0.522428 0,-0.783643 0,-0.522428 0,-1.044855 0,-1.56728 0,-0.522428 0,-1.044856 0,-1.567284 0,-0.19591 0,-0.391821 0,-0.587732 0,-0.0653 0.0634,-0.211748 0,-0.195908 -0.28332,0.07083 -0.52242,0.261213 -0.78364,0.391819 z"
       id="path231" /><g
       id="g238"
       transform="matrix(0.09789889,0,0,0.1135862,101.10499,57.21599)"><path
         style="fill:url(#linearGradient298);fill-rule:evenodd;stroke:#000000;stroke-width:0.282222px;stroke-linecap:butt;stroke-linejoin:miter;stroke-opacity:1"
         d="m 227.75334,150.45111 v -33.58445 h 14.67556 v 33.86667 z"
         id="path232" /><path
         style="fill:url(#linearGradient299);fill-rule:evenodd;stroke:#023a0e;stroke-width:0.338667;stroke-linecap:butt;stroke-linejoin:miter;stroke-dasharray:none;stroke-opacity:1"
         d="m 196.83705,120.53555 25.68222,-25.581233 h -22.01333 l 26.0397,-17.100356 h -18.70193 l 23.13523,-13.621743 h -14.12417 l 18.12759,-16.778933 18.15802,16.778933 h -13.97 l 23.59355,13.621743 h -21.33577 l 27.22395,17.100356 h -23.21023 l 27.68579,25.490623 c -25.42943,0.19366 -50.86056,0.0906 -76.29062,0.0906 z"
         id="path233"
         sodipodi:nodetypes="ccccccccccccccccc" /><ellipse
         style="fill:url(#radialGradient299);fill-rule:evenodd;stroke:none;stroke-width:0.338667;stroke-linecap:round;stroke-linejoin:round;stroke-dasharray:none;stroke-opacity:1"
         id="ellipse233"
         cx="231.24161"
         cy="124.51474"
         rx="1.6463803"
         ry="1.4468191" /><ellipse
         style="fill:url(#radialGradient300);fill-rule:evenodd;stroke:none;stroke-width:0.338667;stroke-linecap:round;stroke-linejoin:round;stroke-dasharray:none;stroke-opacity:1"
         id="ellipse234"
         cx="239.04224"
         cy="134.92888"
         rx="1.6933334"
         ry="2.8222222" /><path
         style="opacity:0.480712;fill:none;fill-rule:evenodd;stroke:#4a1f0c;stroke-width:0.282222px;stroke-linecap:butt;stroke-linejoin:miter;stroke-opacity:1"
         d="m 241.22945,121.735 c -1.19944,1.19944 -2.39889,2.39889 -3.71594,3.82178 -1.31705,1.42288 -2.75165,3.06914 -4.05694,4.2098 -1.30529,1.14065 -2.48119,1.77564 -2.82221,2.81047 -0.34101,1.03483 0.15287,2.46943 1.03483,3.42193 0.88195,0.95251 2.15193,1.42287 3.51602,2.06964 1.36408,0.64676 2.82221,1.4699 3.5748,2.43417 0.75259,0.96427 0.79962,2.06961 0.17637,2.92805 -0.62325,0.85843 -1.91674,1.4699 -3.08092,2.2813 -1.16418,0.8114 -2.19897,1.82267 -3.22204,2.64582 -1.02306,0.82316 -2.03434,1.45815 -3.04564,2.09315"
         id="path234"
         inkscape:path-effect="#path-effect248"
         inkscape:original-d="m 241.22945,121.735 c -1.19944,1.19944 -2.39889,2.39889 -3.59833,3.59833 -1.43466,1.64633 -2.86926,3.29259 -4.30389,4.93889 -1.17595,0.63501 -2.35185,1.27 -3.52778,1.905 0.4939,1.43466 0.98778,2.86926 1.48167,4.30389 1.27002,0.47038 2.54,0.94074 3.81,1.41111 1.45817,0.82317 2.9163,1.64629 4.37444,2.46944 0.047,1.1054 0.0941,2.21074 0.14111,3.31612 -1.29354,0.61149 -2.58703,1.22296 -3.88055,1.83444 -1.03484,1.01132 -2.06963,2.02259 -3.10445,3.03389 -1.01131,0.63501 -2.02259,1.27 -3.03389,1.905" /><path
         style="opacity:0.480712;fill:none;fill-rule:evenodd;stroke:#4a1f0c;stroke-width:0.282222px;stroke-linecap:butt;stroke-linejoin:miter;stroke-opacity:1"
         d="m 231.84556,120.04166 c -0.98778,0.87019 -1.97555,1.74037 -2.4224,2.79872 -0.44685,1.05835 -0.35278,2.3048 0.21167,3.10443 0.56446,0.79964 1.59925,1.15241 2.63407,1.50519"
         id="path235"
         inkscape:path-effect="#path-effect258"
         inkscape:original-d="m 231.84556,120.04166 c -0.98778,0.87019 -1.97555,1.74037 -2.96333,2.61056 0.0941,1.24651 0.18815,2.49296 0.28222,3.73944 1.03484,0.35279 2.06963,0.70556 3.10445,1.05834" /><path
         style="opacity:0.480712;fill:none;fill-rule:evenodd;stroke:#4a1f0c;stroke-width:0.282222px;stroke-linecap:butt;stroke-linejoin:miter;stroke-opacity:1"
         d="m 234.73834,122.72277 c 1.05833,1.29352 2.11667,2.58704 2.88102,3.79826 0.76436,1.21121 1.23472,2.34008 0.81137,3.38666 -0.42334,1.04659 -1.74035,2.01082 -2.78694,2.95157 -1.04658,0.94076 -1.82267,1.85796 -2.76342,2.52824 -0.94075,0.67028 -2.0461,1.09361 -3.15147,1.51694"
         id="path236"
         inkscape:path-effect="#path-effect268"
         inkscape:original-d="m 234.73834,122.72277 c 1.05833,1.29352 2.11667,2.58704 3.175,3.88056 0.47038,1.12891 0.94074,2.25778 1.41111,3.38667 -1.31706,0.96428 -2.63407,1.92851 -3.95111,2.89277 -0.77613,0.91725 -1.55222,1.83445 -2.32833,2.75167 -1.10539,0.42334 -2.21074,0.84667 -3.31611,1.27" /><path
         style="opacity:0.480712;fill:none;fill-rule:evenodd;stroke:#4a1f0c;stroke-width:0.282222px;stroke-linecap:butt;stroke-linejoin:miter;stroke-opacity:1"
         d="m 229.37612,145.865 c 1.24648,0.77611 2.49296,1.55222 3.25731,2.31658 0.76436,0.76436 1.04658,1.51694 1.3288,2.26953"
         id="path237"
         inkscape:path-effect="#path-effect282"
         inkscape:original-d="m 229.37612,145.865 c 1.24648,0.77611 2.49296,1.55222 3.73944,2.32833 0.28223,0.75261 0.56445,1.50519 0.84667,2.25778" /><path
         style="opacity:0.480712;fill:none;fill-rule:evenodd;stroke:#4a1f0c;stroke-width:0.282222px;stroke-linecap:butt;stroke-linejoin:miter;stroke-opacity:1"
         d="m 241.51167,137.68055 c -0.11759,0.1176 -0.23518,0.23519 -1.01131,0.78788 -0.77612,0.5527 -2.21072,1.54046 -3.73944,2.28129 -1.52872,0.74084 -3.15147,1.23472 -3.65711,1.95205 -0.50564,0.71732 0.10583,1.65804 1.28177,2.7987 1.17594,1.14066 2.91628,2.48119 4.13925,3.38666 1.22297,0.90547 1.92851,1.37583 2.63407,1.8462"
         id="path238"
         inkscape:path-effect="#path-effect298"
         inkscape:original-d="m 241.51167,137.68055 c -0.11759,0.1176 -0.23518,0.23519 -0.35277,0.35278 -1.43466,0.9878 -2.86926,1.97556 -4.30389,2.96333 -1.62281,0.4939 -3.24556,0.98778 -4.86834,1.48167 0.6115,0.94076 1.22297,1.88148 1.83445,2.82222 1.7404,1.34059 3.48074,2.68111 5.22111,4.02167 0.70557,0.47038 1.41111,0.94074 2.11667,1.41111" /></g><g
       id="g446"
       transform="matrix(0.09789889,0,0,0.1135862,123.19184,56.652551)"><path
         style="fill:url(#linearGradient180-3);fill-rule:evenodd;stroke:#000000;stroke-width:0.282222px;stroke-linecap:butt;stroke-linejoin:miter;stroke-opacity:1"
         d="m 227.75334,150.45111 v -33.58445 h 14.67556 v 33.86667 z"
         id="path167-4" /><path
         style="fill:url(#linearGradient226-4);fill-rule:evenodd;stroke:#023a0e;stroke-width:0.338667;stroke-linecap:butt;stroke-linejoin:miter;stroke-dasharray:none;stroke-opacity:1"
         d="m 196.83705,120.53555 25.68222,-25.581233 h -22.01333 l 26.0397,-17.100356 h -18.70193 l 23.13523,-13.621743 h -14.12417 l 18.12759,-16.778933 18.15802,16.778933 h -13.97 l 23.59355,13.621743 h -21.33577 l 27.22395,17.100356 h -23.21023 l 27.68579,25.490623 c -25.42943,0.19366 -50.86056,0.0906 -76.29062,0.0906 z"
         id="path222-7"
         sodipodi:nodetypes="ccccccccccccccccc" /><ellipse
         style="fill:url(#radialGradient306);fill-rule:evenodd;stroke:none;stroke-width:0.338667;stroke-linecap:round;stroke-linejoin:round;stroke-dasharray:none;stroke-opacity:1"
         id="path298"
         cx="231.24161"
         cy="124.51474"
         rx="1.6463803"
         ry="1.4468191" /><ellipse
         style="fill:url(#radialGradient322);fill-rule:evenodd;stroke:none;stroke-width:0.338667;stroke-linecap:round;stroke-linejoin:round;stroke-dasharray:none;stroke-opacity:1"
         id="path316"
         cx="239.04224"
         cy="134.92888"
         rx="1.6933334"
         ry="2.8222222" /><path
         style="opacity:0.480712;fill:none;fill-rule:evenodd;stroke:#4a1f0c;stroke-width:0.282222px;stroke-linecap:butt;stroke-linejoin:miter;stroke-opacity:1"
         d="m 241.22945,121.735 c -1.19944,1.19944 -2.39889,2.39889 -3.71594,3.82178 -1.31705,1.42288 -2.75165,3.06914 -4.05694,4.2098 -1.30529,1.14065 -2.48119,1.77564 -2.82221,2.81047 -0.34101,1.03483 0.15287,2.46943 1.03483,3.42193 0.88195,0.95251 2.15193,1.42287 3.51602,2.06964 1.36408,0.64676 2.82221,1.4699 3.5748,2.43417 0.75259,0.96427 0.79962,2.06961 0.17637,2.92805 -0.62325,0.85843 -1.91674,1.4699 -3.08092,2.2813 -1.16418,0.8114 -2.19897,1.82267 -3.22204,2.64582 -1.02306,0.82316 -2.03434,1.45815 -3.04564,2.09315"
         id="path442"
         inkscape:path-effect="#path-effect442"
         inkscape:original-d="m 241.22945,121.735 c -1.19944,1.19944 -2.39889,2.39889 -3.59833,3.59833 -1.43466,1.64633 -2.86926,3.29259 -4.30389,4.93889 -1.17595,0.63501 -2.35185,1.27 -3.52778,1.905 0.4939,1.43466 0.98778,2.86926 1.48167,4.30389 1.27002,0.47038 2.54,0.94074 3.81,1.41111 1.45817,0.82317 2.9163,1.64629 4.37444,2.46944 0.047,1.1054 0.0941,2.21074 0.14111,3.31612 -1.29354,0.61149 -2.58703,1.22296 -3.88055,1.83444 -1.03484,1.01132 -2.06963,2.02259 -3.10445,3.03389 -1.01131,0.63501 -2.02259,1.27 -3.03389,1.905" /><path
         style="opacity:0.480712;fill:none;fill-rule:evenodd;stroke:#4a1f0c;stroke-width:0.282222px;stroke-linecap:butt;stroke-linejoin:miter;stroke-opacity:1"
         d="m 231.84556,120.04166 c -0.98778,0.87019 -1.97555,1.74037 -2.4224,2.79872 -0.44685,1.05835 -0.35278,2.3048 0.21167,3.10443 0.56446,0.79964 1.59925,1.15241 2.63407,1.50519"
         id="path443"
         inkscape:path-effect="#path-effect443-5"
         inkscape:original-d="m 231.84556,120.04166 c -0.98778,0.87019 -1.97555,1.74037 -2.96333,2.61056 0.0941,1.24651 0.18815,2.49296 0.28222,3.73944 1.03484,0.35279 2.06963,0.70556 3.10445,1.05834" /><path
         style="opacity:0.480712;fill:none;fill-rule:evenodd;stroke:#4a1f0c;stroke-width:0.282222px;stroke-linecap:butt;stroke-linejoin:miter;stroke-opacity:1"
         d="m 234.73834,122.72277 c 1.05833,1.29352 2.11667,2.58704 2.88102,3.79826 0.76436,1.21121 1.23472,2.34008 0.81137,3.38666 -0.42334,1.04659 -1.74035,2.01082 -2.78694,2.95157 -1.04658,0.94076 -1.82267,1.85796 -2.76342,2.52824 -0.94075,0.67028 -2.0461,1.09361 -3.15147,1.51694"
         id="path444"
         inkscape:path-effect="#path-effect444"
         inkscape:original-d="m 234.73834,122.72277 c 1.05833,1.29352 2.11667,2.58704 3.175,3.88056 0.47038,1.12891 0.94074,2.25778 1.41111,3.38667 -1.31706,0.96428 -2.63407,1.92851 -3.95111,2.89277 -0.77613,0.91725 -1.55222,1.83445 -2.32833,2.75167 -1.10539,0.42334 -2.21074,0.84667 -3.31611,1.27" /><path
         style="opacity:0.480712;fill:none;fill-rule:evenodd;stroke:#4a1f0c;stroke-width:0.282222px;stroke-linecap:butt;stroke-linejoin:miter;stroke-opacity:1"
         d="m 229.37612,145.865 c 1.24648,0.77611 2.49296,1.55222 3.25731,2.31658 0.76436,0.76436 1.04658,1.51694 1.3288,2.26953"
         id="path445"
         inkscape:path-effect="#path-effect445-2"
         inkscape:original-d="m 229.37612,145.865 c 1.24648,0.77611 2.49296,1.55222 3.73944,2.32833 0.28223,0.75261 0.56445,1.50519 0.84667,2.25778" /><path
         style="opacity:0.480712;fill:none;fill-rule:evenodd;stroke:#4a1f0c;stroke-width:0.282222px;stroke-linecap:butt;stroke-linejoin:miter;stroke-opacity:1"
         d="m 241.51167,137.68055 c -0.11759,0.1176 -0.23518,0.23519 -1.01131,0.78788 -0.77612,0.5527 -2.21072,1.54046 -3.73944,2.28129 -1.52872,0.74084 -3.15147,1.23472 -3.65711,1.95205 -0.50564,0.71732 0.10583,1.65804 1.28177,2.7987 1.17594,1.14066 2.91628,2.48119 4.13925,3.38666 1.22297,0.90547 1.92851,1.37583 2.63407,1.8462"
         id="path446"
         inkscape:path-effect="#path-effect446-7"
         inkscape:original-d="m 241.51167,137.68055 c -0.11759,0.1176 -0.23518,0.23519 -0.35277,0.35278 -1.43466,0.9878 -2.86926,1.97556 -4.30389,2.96333 -1.62281,0.4939 -3.24556,0.98778 -4.86834,1.48167 0.6115,0.94076 1.22297,1.88148 1.83445,2.82222 1.7404,1.34059 3.48074,2.68111 5.22111,4.02167 0.70557,0.47038 1.41111,0.94074 2.11667,1.41111" /></g><g
       id="g307"
       transform="matrix(0.07095477,0,0,0.08232456,109.25276,62.315741)"><path
         style="fill:url(#linearGradient330);fill-rule:evenodd;stroke:#000000;stroke-width:0.282222px;stroke-linecap:butt;stroke-linejoin:miter;stroke-opacity:1"
         d="m 227.75334,150.45111 v -33.58445 h 14.67556 v 33.86667 z"
         id="path301" /><path
         style="fill:url(#linearGradient331);fill-rule:evenodd;stroke:#023a0e;stroke-width:0.338667;stroke-linecap:butt;stroke-linejoin:miter;stroke-dasharray:none;stroke-opacity:1"
         d="m 196.83705,120.53555 25.68222,-25.581233 h -22.01333 l 26.0397,-17.100356 h -18.70193 l 23.13523,-13.621743 h -14.12417 l 18.12759,-16.778933 18.15802,16.778933 h -13.97 l 23.59355,13.621743 h -21.33577 l 27.22395,17.100356 h -23.21023 l 27.68579,25.490623 c -25.42943,0.19366 -50.86056,0.0906 -76.29062,0.0906 z"
         id="path302"
         sodipodi:nodetypes="ccccccccccccccccc" /><ellipse
         style="fill:url(#radialGradient331);fill-rule:evenodd;stroke:none;stroke-width:0.338667;stroke-linecap:round;stroke-linejoin:round;stroke-dasharray:none;stroke-opacity:1"
         id="ellipse302"
         cx="231.24161"
         cy="124.51474"
         rx="1.6463803"
         ry="1.4468191" /><ellipse
         style="fill:url(#radialGradient332);fill-rule:evenodd;stroke:none;stroke-width:0.338667;stroke-linecap:round;stroke-linejoin:round;stroke-dasharray:none;stroke-opacity:1"
         id="ellipse303"
         cx="239.04224"
         cy="134.92888"
         rx="1.6933334"
         ry="2.8222222" /><path
         style="opacity:0.480712;fill:none;fill-rule:evenodd;stroke:#4a1f0c;stroke-width:0.282222px;stroke-linecap:butt;stroke-linejoin:miter;stroke-opacity:1"
         d="m 241.22945,121.735 c -1.19944,1.19944 -2.39889,2.39889 -3.71594,3.82178 -1.31705,1.42288 -2.75165,3.06914 -4.05694,4.2098 -1.30529,1.14065 -2.48119,1.77564 -2.82221,2.81047 -0.34101,1.03483 0.15287,2.46943 1.03483,3.42193 0.88195,0.95251 2.15193,1.42287 3.51602,2.06964 1.36408,0.64676 2.82221,1.4699 3.5748,2.43417 0.75259,0.96427 0.79962,2.06961 0.17637,2.92805 -0.62325,0.85843 -1.91674,1.4699 -3.08092,2.2813 -1.16418,0.8114 -2.19897,1.82267 -3.22204,2.64582 -1.02306,0.82316 -2.03434,1.45815 -3.04564,2.09315"
         id="path303"
         inkscape:path-effect="#path-effect319"
         inkscape:original-d="m 241.22945,121.735 c -1.19944,1.19944 -2.39889,2.39889 -3.59833,3.59833 -1.43466,1.64633 -2.86926,3.29259 -4.30389,4.93889 -1.17595,0.63501 -2.35185,1.27 -3.52778,1.905 0.4939,1.43466 0.98778,2.86926 1.48167,4.30389 1.27002,0.47038 2.54,0.94074 3.81,1.41111 1.45817,0.82317 2.9163,1.64629 4.37444,2.46944 0.047,1.1054 0.0941,2.21074 0.14111,3.31612 -1.29354,0.61149 -2.58703,1.22296 -3.88055,1.83444 -1.03484,1.01132 -2.06963,2.02259 -3.10445,3.03389 -1.01131,0.63501 -2.02259,1.27 -3.03389,1.905" /><path
         style="opacity:0.480712;fill:none;fill-rule:evenodd;stroke:#4a1f0c;stroke-width:0.282222px;stroke-linecap:butt;stroke-linejoin:miter;stroke-opacity:1"
         d="m 231.84556,120.04166 c -0.98778,0.87019 -1.97555,1.74037 -2.4224,2.79872 -0.44685,1.05835 -0.35278,2.3048 0.21167,3.10443 0.56446,0.79964 1.59925,1.15241 2.63407,1.50519"
         id="path304"
         inkscape:path-effect="#path-effect324"
         inkscape:original-d="m 231.84556,120.04166 c -0.98778,0.87019 -1.97555,1.74037 -2.96333,2.61056 0.0941,1.24651 0.18815,2.49296 0.28222,3.73944 1.03484,0.35279 2.06963,0.70556 3.10445,1.05834" /><path
         style="opacity:0.480712;fill:none;fill-rule:evenodd;stroke:#4a1f0c;stroke-width:0.282222px;stroke-linecap:butt;stroke-linejoin:miter;stroke-opacity:1"
         d="m 234.73834,122.72277 c 1.05833,1.29352 2.11667,2.58704 2.88102,3.79826 0.76436,1.21121 1.23472,2.34008 0.81137,3.38666 -0.42334,1.04659 -1.74035,2.01082 -2.78694,2.95157 -1.04658,0.94076 -1.82267,1.85796 -2.76342,2.52824 -0.94075,0.67028 -2.0461,1.09361 -3.15147,1.51694"
         id="path305"
         inkscape:path-effect="#path-effect326"
         inkscape:original-d="m 234.73834,122.72277 c 1.05833,1.29352 2.11667,2.58704 3.175,3.88056 0.47038,1.12891 0.94074,2.25778 1.41111,3.38667 -1.31706,0.96428 -2.63407,1.92851 -3.95111,2.89277 -0.77613,0.91725 -1.55222,1.83445 -2.32833,2.75167 -1.10539,0.42334 -2.21074,0.84667 -3.31611,1.27" /><path
         style="opacity:0.480712;fill:none;fill-rule:evenodd;stroke:#4a1f0c;stroke-width:0.282222px;stroke-linecap:butt;stroke-linejoin:miter;stroke-opacity:1"
         d="m 229.37612,145.865 c 1.24648,0.77611 2.49296,1.55222 3.25731,2.31658 0.76436,0.76436 1.04658,1.51694 1.3288,2.26953"
         id="path306"
         inkscape:path-effect="#path-effect328"
         inkscape:original-d="m 229.37612,145.865 c 1.24648,0.77611 2.49296,1.55222 3.73944,2.32833 0.28223,0.75261 0.56445,1.50519 0.84667,2.25778" /><path
         style="opacity:0.480712;fill:none;fill-rule:evenodd;stroke:#4a1f0c;stroke-width:0.282222px;stroke-linecap:butt;stroke-linejoin:miter;stroke-opacity:1"
         d="m 241.51167,137.68055 c -0.11759,0.1176 -0.23518,0.23519 -1.01131,0.78788 -0.77612,0.5527 -2.21072,1.54046 -3.73944,2.28129 -1.52872,0.74084 -3.15147,1.23472 -3.65711,1.95205 -0.50564,0.71732 0.10583,1.65804 1.28177,2.7987 1.17594,1.14066 2.91628,2.48119 4.13925,3.38666 1.22297,0.90547 1.92851,1.37583 2.63407,1.8462"
         id="path307"
         inkscape:path-effect="#path-effect330"
         inkscape:original-d="m 241.51167,137.68055 c -0.11759,0.1176 -0.23518,0.23519 -0.35277,0.35278 -1.43466,0.9878 -2.86926,1.97556 -4.30389,2.96333 -1.62281,0.4939 -3.24556,0.98778 -4.86834,1.48167 0.6115,0.94076 1.22297,1.88148 1.83445,2.82222 1.7404,1.34059 3.48074,2.68111 5.22111,4.02167 0.70557,0.47038 1.41111,0.94074 2.11667,1.41111" /></g></g></svg>
