<?xml version="1.0" encoding="UTF-8" standalone="no"?>
<!-- Created with Inkscape (http://www.inkscape.org/) -->

<svg
   width="1.2149059mm"
   height="17.298342mm"
   viewBox="0 0 1.2149059 17.298342"
   version="1.1"
   id="svg1"
   xml:space="preserve"
   inkscape:version="1.3 (0e150ed6c4, 2023-07-21)"
   sodipodi:docname="BalloonString.svg"
   xmlns:inkscape="http://www.inkscape.org/namespaces/inkscape"
   xmlns:sodipodi="http://sodipodi.sourceforge.net/DTD/sodipodi-0.dtd"
   xmlns="http://www.w3.org/2000/svg"
   xmlns:svg="http://www.w3.org/2000/svg"><sodipodi:namedview
     id="namedview1"
     pagecolor="#505050"
     bordercolor="#eeeeee"
     borderopacity="1"
     inkscape:showpageshadow="0"
     inkscape:pageopacity="0"
     inkscape:pagecheckerboard="0"
     inkscape:deskcolor="#d1d1d1"
     inkscape:document-units="mm"
     inkscape:zoom="5.6568542"
     inkscape:cx="-15.202796"
     inkscape:cy="21.566757"
     inkscape:window-width="1280"
     inkscape:window-height="961"
     inkscape:window-x="-8"
     inkscape:window-y="-8"
     inkscape:window-maximized="1"
     inkscape:current-layer="layer1" /><defs
     id="defs1" /><g
     inkscape:label="Layer 1"
     inkscape:groupmode="layer"
     id="layer1"
     transform="translate(-111.88995,-208.98585)"><g
       id="g1"><path
         style="fill:#1f1f1f;fill-opacity:1;fill-rule:evenodd;stroke:#1f1f1f;stroke-width:0.264583px;stroke-linecap:butt;stroke-linejoin:miter;stroke-opacity:1"
         d="m 112.24264,212.41722 c 0,0 -0.25202,-1.10494 -0.16193,-1.65369 0.11044,-0.67276 0.16193,-1.61688 0.16193,-1.61688 l 0.69265,-0.0234 c 0,0 -0.16384,1.42324 -0.19591,1.64027 -0.0811,0.54912 0.19591,1.65369 0.19591,1.65369 z"
         id="path1"
         sodipodi:nodetypes="csccscc" /><path
         style="fill:#1f1f1f;fill-opacity:1;fill-rule:evenodd;stroke:#1f1f1f;stroke-width:0.264583px;stroke-linecap:butt;stroke-linejoin:miter;stroke-opacity:1"
         d="m 112.24264,219.27889 c 0,0 -0.2204,-1.09759 -0.2204,-1.65369 0,-0.55611 0.21228,-1.09765 0.2204,-1.6537 0.008,-0.55412 -0.17142,-1.09951 -0.17142,-1.65369 0,-0.55419 0.17142,-1.6537 0.17142,-1.6537 h 0.69265 c 0,0 -0.2204,1.09759 -0.2204,1.6537 0,0.5561 0.18359,1.09881 0.2204,1.65369 0.0365,0.55002 -0.19591,1.09861 -0.19591,1.6537 0,0.55508 0.19591,1.65369 0.19591,1.65369 z"
         id="path3"
         sodipodi:nodetypes="csssccssscc" /><path
         style="fill:#1f1f1f;fill-opacity:1;fill-rule:evenodd;stroke:#1f1f1f;stroke-width:0.264583px;stroke-linecap:butt;stroke-linejoin:miter;stroke-opacity:1"
         d="m 112.24264,226.1519 c 0,0 -0.2204,-1.09759 -0.2204,-1.65369 0,-0.55611 0.21228,-1.09765 0.2204,-1.6537 0.008,-0.55412 -0.17142,-1.09951 -0.17142,-1.65369 0,-0.55419 0.17142,-1.6537 0.17142,-1.6537 h 0.69265 c 0,0 -0.2204,1.09759 -0.2204,1.6537 0,0.5561 0.18359,1.09881 0.2204,1.65369 0.0365,0.55002 -0.19591,1.09861 -0.19591,1.6537 0,0.55508 0.19591,1.65369 0.19591,1.65369 z"
         id="path4"
         sodipodi:nodetypes="csssccssscc" /></g></g></svg>
