<?xml version="1.0" encoding="UTF-8" standalone="no"?>
<!-- Created with Inkscape (http://www.inkscape.org/) -->

<svg
   width="19.925461mm"
   height="12.40512mm"
   viewBox="0 0 19.925461 12.40512"
   version="1.1"
   id="svg1"
   inkscape:version="1.3 (0e150ed6c4, 2023-07-21)"
   sodipodi:docname="BalloonCrate.svg"
   xml:space="preserve"
   xmlns:inkscape="http://www.inkscape.org/namespaces/inkscape"
   xmlns:sodipodi="http://sodipodi.sourceforge.net/DTD/sodipodi-0.dtd"
   xmlns:xlink="http://www.w3.org/1999/xlink"
   xmlns="http://www.w3.org/2000/svg"
   xmlns:svg="http://www.w3.org/2000/svg"><sodipodi:namedview
     id="namedview1"
     pagecolor="#505050"
     bordercolor="#eeeeee"
     borderopacity="1"
     inkscape:showpageshadow="0"
     inkscape:pageopacity="0"
     inkscape:pagecheckerboard="0"
     inkscape:deskcolor="#d1d1d1"
     inkscape:document-units="mm"
     inkscape:zoom="2.8284271"
     inkscape:cx="36.415999"
     inkscape:cy="50.911688"
     inkscape:window-width="1280"
     inkscape:window-height="961"
     inkscape:window-x="-8"
     inkscape:window-y="-8"
     inkscape:window-maximized="1"
     inkscape:current-layer="layer1" /><defs
     id="defs1"><inkscape:path-effect
       effect="bspline"
       id="path-effect1"
       is_visible="true"
       lpeversion="1.3"
       weight="33.333333"
       steps="2"
       helper_size="0"
       apply_no_weight="true"
       apply_with_weight="true"
       only_selected="false"
       uniform="false" /><inkscape:path-effect
       effect="bspline"
       id="path-effect79"
       is_visible="true"
       lpeversion="1.3"
       weight="33.333333"
       steps="2"
       helper_size="0"
       apply_no_weight="true"
       apply_with_weight="true"
       only_selected="false"
       uniform="false" /><inkscape:path-effect
       effect="bspline"
       id="path-effect78"
       is_visible="true"
       lpeversion="1.3"
       weight="33.333333"
       steps="2"
       helper_size="0"
       apply_no_weight="true"
       apply_with_weight="true"
       only_selected="false"
       uniform="false" /><inkscape:path-effect
       effect="bspline"
       id="path-effect77"
       is_visible="true"
       lpeversion="1.3"
       weight="33.333333"
       steps="2"
       helper_size="0"
       apply_no_weight="true"
       apply_with_weight="true"
       only_selected="false"
       uniform="false" /><inkscape:path-effect
       effect="bspline"
       id="path-effect76"
       is_visible="true"
       lpeversion="1.3"
       weight="33.333333"
       steps="2"
       helper_size="0"
       apply_no_weight="true"
       apply_with_weight="true"
       only_selected="false"
       uniform="false" /><linearGradient
       id="linearGradient16"
       inkscape:collect="always"><stop
         style="stop-color:#521a02;stop-opacity:1;"
         offset="0"
         id="stop11" /><stop
         style="stop-color:#9a3409;stop-opacity:1;"
         offset="0.33305085"
         id="stop12" /><stop
         style="stop-color:#621e01;stop-opacity:1;"
         offset="0.45254236"
         id="stop13" /><stop
         style="stop-color:#a34117;stop-opacity:1;"
         offset="0.65677965"
         id="stop14" /><stop
         style="stop-color:#441602;stop-opacity:1;"
         offset="1"
         id="stop15" /></linearGradient><linearGradient
       id="linearGradient10"
       inkscape:collect="always"><stop
         style="stop-color:#521a02;stop-opacity:1;"
         offset="0"
         id="stop6" /><stop
         style="stop-color:#9a3409;stop-opacity:1;"
         offset="0.1398305"
         id="stop7" /><stop
         style="stop-color:#621e01;stop-opacity:1;"
         offset="0.29999998"
         id="stop8" /><stop
         style="stop-color:#a34117;stop-opacity:1;"
         offset="0.90084743"
         id="stop9" /><stop
         style="stop-color:#441602;stop-opacity:1;"
         offset="1"
         id="stop10" /></linearGradient><linearGradient
       id="linearGradient49"
       inkscape:collect="always"><stop
         style="stop-color:#521a02;stop-opacity:1;"
         offset="0"
         id="stop49" /><stop
         style="stop-color:#9a3409;stop-opacity:1;"
         offset="0.24830508"
         id="stop124" /><stop
         style="stop-color:#621e01;stop-opacity:1;"
         offset="0.49661016"
         id="stop122" /><stop
         style="stop-color:#a34117;stop-opacity:1;"
         offset="0.74830508"
         id="stop123" /><stop
         style="stop-color:#441602;stop-opacity:1;"
         offset="1"
         id="stop50" /></linearGradient><linearGradient
       inkscape:collect="always"
       xlink:href="#linearGradient49"
       id="linearGradient5"
       x1="111.72031"
       y1="144.60672"
       x2="128.45522"
       y2="144.60672"
       gradientUnits="userSpaceOnUse"
       gradientTransform="translate(1.3577697,4.0772034)" /><linearGradient
       inkscape:collect="always"
       xlink:href="#linearGradient10"
       id="linearGradient6"
       gradientUnits="userSpaceOnUse"
       gradientTransform="matrix(1,0,0,-1,1.3577697,295.93657)"
       x1="111.72031"
       y1="144.60672"
       x2="128.45522"
       y2="144.60672" /><linearGradient
       inkscape:collect="always"
       xlink:href="#linearGradient16"
       id="linearGradient11"
       gradientUnits="userSpaceOnUse"
       gradientTransform="matrix(-1,0,0,1,241.53329,9.3688703)"
       x1="111.72031"
       y1="144.60672"
       x2="128.45522"
       y2="144.60672" /><linearGradient
       inkscape:collect="always"
       xlink:href="#linearGradient49"
       id="linearGradient52"
       gradientUnits="userSpaceOnUse"
       gradientTransform="translate(1.3577697,12.014704)"
       x1="111.72031"
       y1="144.60672"
       x2="128.45522"
       y2="144.60672" /><linearGradient
       inkscape:collect="always"
       xlink:href="#linearGradient49"
       id="linearGradient53"
       gradientUnits="userSpaceOnUse"
       gradientTransform="rotate(-90,119.76506,149.70823)"
       x1="111.72031"
       y1="144.60672"
       x2="128.45522"
       y2="144.60672" /><linearGradient
       inkscape:collect="always"
       xlink:href="#linearGradient49"
       id="linearGradient69"
       gradientUnits="userSpaceOnUse"
       gradientTransform="rotate(-90,126.52721,142.94608)"
       x1="111.72031"
       y1="144.60672"
       x2="128.45522"
       y2="144.60672" /></defs><g
     inkscape:label="Layer 1"
     inkscape:groupmode="layer"
     id="layer1"
     transform="translate(-113.12787,-146.01594)"><g
       id="g1"><rect
         style="fill:#2f1604;fill-opacity:1;fill-rule:evenodd;stroke:#421f05;stroke-width:0.165;stroke-linecap:round;stroke-linejoin:round;stroke-dasharray:none;stroke-opacity:1"
         id="rect69"
         width="13.657473"
         height="8.6996231"
         x="114.31118"
         y="148.12744" /><path
         style="fill:#dc0000;fill-opacity:1;fill-rule:evenodd;stroke:none;stroke-width:0.264583px;stroke-linecap:butt;stroke-linejoin:miter;stroke-opacity:1"
         d="m 116.51589,148.99349 c -0.1323,-0.0992 -0.39688,-0.29766 -0.55122,-0.50161 -0.15434,-0.20395 -0.19844,-0.41341 -0.14332,-0.61185 0.0551,-0.19844 0.20947,-0.38585 0.39137,-0.48507 0.1819,-0.0992 0.39136,-0.11026 0.62838,-0.0551 0.23703,0.0551 0.50161,0.17638 0.68351,0.34726 0.1819,0.17087 0.28112,0.39136 0.24804,0.6339 -0.0331,0.24254 -0.19843,0.50711 -0.40789,0.63941 -0.20947,0.13229 -0.46303,0.13229 -0.58981,0.13229 -0.12677,0 -0.12677,3e-5 -0.25906,-0.0992 z"
         id="path76"
         inkscape:path-effect="#path-effect76"
         inkscape:original-d="m 116.64818,149.09271 c -0.26459,-0.19844 -0.52917,-0.39688 -0.79375,-0.59532 -0.0441,-0.20946 -0.0882,-0.41892 -0.1323,-0.62838 0.15435,-0.18742 0.30869,-0.37483 0.46302,-0.56224 0.20947,-0.011 0.41893,-0.022 0.62839,-0.0331 0.26459,0.12127 0.52917,0.24253 0.79375,0.3638 0.0992,0.22049 0.19844,0.44097 0.29766,0.66146 -0.16537,0.26459 -0.33073,0.52916 -0.4961,0.79375 -0.25356,0 -0.50712,0 -0.76067,0 z"
         transform="translate(-0.18190104,-0.28111979)" /><path
         style="fill:#0100dc;fill-opacity:1;fill-rule:evenodd;stroke:none;stroke-width:0.264583px;stroke-linecap:butt;stroke-linejoin:miter;stroke-opacity:1"
         d="m 122.92652,147.72018 c -0.17088,-0.0827 -0.51263,-0.24804 -0.88195,-0.30317 -0.36932,-0.0551 -0.76619,0 -1.14102,-0.0551 -0.37483,-0.0551 -0.7276,-0.22049 -1.05282,-0.30869 -0.32522,-0.0882 -0.62287,-0.0992 -0.88745,-0.0165 -0.26459,0.0827 -0.49609,0.25907 -0.65043,0.42995 -0.15435,0.17088 -0.23151,0.33623 -0.20395,0.46301 0.0276,0.12679 0.15985,0.21498 0.7662,0.24254 0.60635,0.0276 1.6867,-0.005 2.46392,-0.011 0.77722,-0.006 1.25126,0.0165 1.4938,-0.0386 0.24253,-0.0551 0.25357,-0.18741 0.25908,-0.25356 0.006,-0.0662 0.005,-0.0661 -0.16538,-0.14877 z"
         id="path77"
         inkscape:path-effect="#path-effect77"
         inkscape:original-d="m 123.09739,147.80286 c -0.34175,-0.16536 -0.6835,-0.33073 -1.02526,-0.49609 -0.39688,0.0551 -0.79375,0.11024 -1.19062,0.16536 -0.35279,-0.16536 -0.70556,-0.33073 -1.05833,-0.49609 -0.29767,-0.011 -0.59532,-0.022 -0.89297,-0.0331 -0.23152,0.17639 -0.46302,0.35278 -0.69453,0.52916 -0.0772,0.16537 -0.15434,0.33073 -0.23151,0.4961 0.13229,0.0882 0.26458,0.17639 0.39687,0.26458 1.08041,-0.0331 2.16076,-0.0661 3.24115,-0.0992 0.47405,0.022 0.94809,0.0441 1.42213,0.0661 0.011,-0.1323 0.022,-0.26459 0.0331,-0.39688 z"
         transform="translate(0,-0.06614583)" /><path
         style="fill:none;fill-rule:evenodd;stroke:#2f2d2d;stroke-width:0.465;stroke-linecap:round;stroke-linejoin:miter;stroke-dasharray:none;stroke-opacity:1"
         d="m 117.87187,148.69583 c 4.98299,-0.8158 9.96598,-1.63159 14.94896,-2.44739"
         id="path79"
         inkscape:path-effect="#path-effect79"
         inkscape:original-d="m 117.87187,148.69583 c 4.98299,-0.8158 9.96598,-1.6316 14.94896,-2.44739" /><path
         style="fill:#dc00cf;fill-opacity:1;fill-rule:evenodd;stroke:none;stroke-width:0.264583px;stroke-linecap:butt;stroke-linejoin:miter;stroke-opacity:1"
         d="m 126.73543,148.15013 c 0.0772,0.0496 0.022,0.0496 -0.23152,0.0992 -0.25357,0.0496 -0.70556,0.14882 -1.11898,0.0882 -0.41341,-0.0606 -0.78823,-0.28112 -1.11896,-0.33073 -0.33073,-0.0496 -0.61736,0.0717 -0.87643,0.011 -0.25908,-0.0606 -0.49058,-0.30316 -0.5016,-0.47955 -0.011,-0.17639 0.19843,-0.28664 0.46852,-0.37483 0.2701,-0.0882 0.60083,-0.15434 0.89298,-0.16536 0.29214,-0.011 0.5457,0.0331 0.76618,0.10473 0.22048,0.0717 0.4079,0.17087 0.60634,0.30868 0.19844,0.1378 0.4079,0.31419 0.61736,0.45199 0.20946,0.13781 0.41893,0.23703 0.49611,0.28664 z"
         id="path78"
         inkscape:path-effect="#path-effect78"
         inkscape:original-d="m 126.86771,148.19974 c -0.0551,0 -0.11024,0 -0.16537,0 -0.452,0.0992 -0.90399,0.19844 -1.35599,0.29765 -0.37483,-0.22049 -0.74965,-0.44097 -1.12448,-0.66145 -0.28663,0.12126 -0.57326,0.24253 -0.85989,0.3638 -0.23152,-0.24254 -0.46302,-0.48507 -0.69453,-0.72761 0.20946,-0.11024 0.41892,-0.22048 0.62838,-0.33073 0.33074,-0.0661 0.66146,-0.13229 0.99219,-0.19843 0.25356,0.0441 0.50712,0.0882 0.76068,0.13229 0.18741,0.0992 0.37482,0.19844 0.56224,0.29765 0.20946,0.1764 0.41892,0.35278 0.62838,0.52917 0.20947,0.0992 0.41893,0.19844 0.62839,0.29766 z"
         transform="translate(-0.16536462,-0.23151042)" /><path
         style="fill:url(#linearGradient5);fill-rule:evenodd;stroke:#421f05;stroke-width:0.165;stroke-linecap:butt;stroke-linejoin:miter;stroke-dasharray:none;stroke-opacity:1"
         d="m 113.21037,147.74596 v 2.05052 l 3.87521,-0.0935 3.90191,0.11693 4.90752,-0.14032 3.78568,0.11693 v -2.03398 l -3.81356,-0.21447 -4.4216,0.20647 -2.78457,-0.14432 z"
         id="path4"
         sodipodi:nodetypes="ccccccccccc" /><path
         style="fill:url(#linearGradient6);fill-rule:evenodd;stroke:#421f05;stroke-width:0.165;stroke-linecap:butt;stroke-linejoin:miter;stroke-dasharray:none;stroke-opacity:1"
         d="m 113.21037,152.2678 v -2.05052 l 3.87521,0.0935 3.90191,-0.11693 4.90752,0.14032 3.78568,-0.11693 v 2.03398 l -3.81356,0.21447 -4.4216,-0.20647 -2.78457,0.14432 z"
         id="path6"
         sodipodi:nodetypes="ccccccccccc" /><path
         style="fill:url(#linearGradient11);fill-rule:evenodd;stroke:#421f05;stroke-width:0.165;stroke-linecap:butt;stroke-linejoin:miter;stroke-dasharray:none;stroke-opacity:1"
         d="m 129.68069,153.03766 v 2.05052 l -3.87521,-0.0935 -3.90191,0.11693 -4.90752,-0.14032 -3.78568,0.11693 v -2.03398 l 3.81356,-0.21447 4.4216,0.20647 2.78457,-0.14432 z"
         id="path10"
         sodipodi:nodetypes="ccccccccccc" /><path
         style="fill:url(#linearGradient52);fill-rule:evenodd;stroke:#421f05;stroke-width:0.165;stroke-linecap:butt;stroke-linejoin:miter;stroke-dasharray:none;stroke-opacity:1"
         d="m 113.21037,155.68351 v 2.05052 l 3.87521,-0.0935 3.90191,0.11693 4.90752,-0.14032 3.78568,0.11693 v -2.03398 l -3.81356,-0.21447 -4.4216,0.20647 -2.78457,-0.14432 z"
         id="path43"
         sodipodi:nodetypes="ccccccccccc" /><path
         id="path53"
         style="fill:url(#linearGradient53);fill-rule:evenodd;stroke:#421f05;stroke-width:0.165;stroke-linecap:butt;stroke-linejoin:miter;stroke-dasharray:none;stroke-opacity:1"
         d="m 114.76997,147.13463 v 0.001 c -0.0745,0.004 -0.19722,0.0517 -0.24701,0.0605 -0.0213,0.004 -0.043,-4.8e-4 -0.0646,-5.2e-4 -0.0135,-3e-5 -0.0268,4e-5 -0.0403,0 -0.11499,-1.1e-4 -0.23021,0.001 -0.3452,0.001 -0.0153,-3.6e-4 -0.0307,-0.001 -0.046,-0.002 -0.0175,0.004 -0.0347,0.008 -0.0532,0.01 -0.004,0.009 -0.02,0.01 -0.03,0.0134 -0.0318,0.0134 -0.0496,0.0192 -0.078,0.0362 -0.0378,0.0112 -0.0334,0.0221 -0.0651,0.0398 -0.0297,0.0169 -0.0392,0.0168 -0.0724,0.0258 -0.003,0.002 -0.005,0.004 -0.008,0.005 -0.0264,0.009 -0.0538,0.0151 -0.0806,0.0227 l 0.0951,2.03864 -0.14469,2.78432 0.13591,5.45083 h 2.05052 l -0.093,-3.87521 0.11679,-3.90209 -0.0682,-2.39934 c -0.0126,-0.005 -0.0259,-0.0103 -0.0372,-0.0176 -0.009,-0.006 -0.0164,-0.0127 -0.0238,-0.0202 -0.0385,-0.0134 -0.0646,-0.0112 -0.10904,-0.0294 -0.0364,0.0164 -0.031,-0.0375 -0.0527,-0.0465 -10e-4,0 0.001,0.005 0,0.004 -0.0108,-0.004 -0.0193,-0.0179 -0.0253,-0.007 -0.0364,-0.006 -0.0606,-0.01 -0.0847,-0.0264 -0.12983,0.004 -0.22312,-0.0409 -0.36845,-0.10542 -0.0214,-0.011 -0.044,-0.0197 -0.0641,-0.0331 -0.003,-0.003 3e-4,-0.0106 -0.003,-0.0114 -0.0531,-0.01 -0.11305,0.007 -0.16485,-0.015 -0.008,-0.002 -0.0178,-0.002 -0.0284,-0.002 z m 0.8847,0.25786 c 0.003,0.002 0.006,0.004 0.009,0.007 l -0.005,-0.005 c -0.001,-10e-4 -0.005,-0.003 -0.004,-0.002 z" /><path
         id="path69"
         style="fill:url(#linearGradient69);fill-rule:evenodd;stroke:#421f05;stroke-width:0.165;stroke-linecap:butt;stroke-linejoin:miter;stroke-dasharray:none;stroke-opacity:1"
         d="m 128.29453,147.13463 v 0.001 c -0.0745,0.004 -0.19722,0.0517 -0.24701,0.0605 -0.0213,0.004 -0.043,-4.8e-4 -0.0646,-5.2e-4 -0.0135,-3e-5 -0.0268,4e-5 -0.0403,0 -0.11499,-1.1e-4 -0.23021,0.001 -0.3452,0.001 -0.0153,-3.6e-4 -0.0307,-0.001 -0.046,-0.002 -0.0175,0.004 -0.0347,0.008 -0.0532,0.01 -0.004,0.009 -0.02,0.01 -0.03,0.0134 -0.0318,0.0134 -0.0496,0.0192 -0.078,0.0362 -0.0378,0.0112 -0.0334,0.0221 -0.0651,0.0398 -0.0297,0.0169 -0.0392,0.0168 -0.0724,0.0258 -0.003,0.002 -0.005,0.004 -0.008,0.005 -0.0264,0.009 -0.0538,0.0151 -0.0806,0.0227 l 0.0951,2.03864 -0.14469,2.78432 0.13591,5.45083 h 2.05052 l -0.093,-3.87521 0.11679,-3.90209 -0.0682,-2.39934 c -0.0126,-0.005 -0.0259,-0.0103 -0.0372,-0.0176 -0.009,-0.006 -0.0164,-0.0127 -0.0238,-0.0202 -0.0385,-0.0134 -0.0646,-0.0112 -0.10904,-0.0294 -0.0364,0.0164 -0.031,-0.0375 -0.0527,-0.0465 -10e-4,0 0.001,0.005 0,0.004 -0.0108,-0.004 -0.0193,-0.0179 -0.0253,-0.007 -0.0364,-0.006 -0.0606,-0.01 -0.0847,-0.0264 -0.12983,0.004 -0.22312,-0.0409 -0.36845,-0.10542 -0.0214,-0.011 -0.044,-0.0197 -0.0641,-0.0331 -0.003,-0.003 3e-4,-0.0106 -0.003,-0.0114 -0.0531,-0.01 -0.11305,0.007 -0.16485,-0.015 -0.008,-0.002 -0.0178,-0.002 -0.0284,-0.002 z m 0.8847,0.25786 c 0.003,0.002 0.006,0.004 0.009,0.007 l -0.005,-0.005 c -0.001,-10e-4 -0.005,-0.003 -0.004,-0.002 z" /><path
         style="opacity:1;fill:#fcff0d;fill-opacity:0.99250001;fill-rule:evenodd;stroke:#000000;stroke-width:0.264583px;stroke-linecap:butt;stroke-linejoin:miter;stroke-opacity:1"
         d="m 120.96824,154.44734 h 1.28612 c 0,0 1.78687,-2.39985 1.78687,-3.40401 -1e-5,-1.68515 -0.77242,-2.67098 -2.45758,-2.67098 -1.75759,0 -2.481,0.91456 -2.49607,2.67209 -0.008,0.92269 1.88066,3.4029 1.88066,3.4029 z"
         id="path72"
         sodipodi:nodetypes="ccsssc" /><path
         style="fill:#000000;fill-opacity:0.699531;fill-rule:evenodd;stroke:none;stroke-width:0.264583px;stroke-linecap:butt;stroke-linejoin:miter;stroke-opacity:1"
         d="m 113.28219,157.52866 16.27671,0.14031 0.65424,0.75209 -16.06692,-0.0662 z"
         id="path74"
         sodipodi:nodetypes="ccccc" /><path
         style="fill:none;fill-rule:evenodd;stroke:#000000;stroke-width:0.264583px;stroke-linecap:butt;stroke-linejoin:miter;stroke-opacity:1"
         d="m 121.54686,154.43493 c 0,0.65481 0,1.30962 0,1.96443"
         id="path1"
         inkscape:path-effect="#path-effect1"
         inkscape:original-d="m 121.54686,154.43493 c 0,0.65481 0,1.30962 0,1.96443" /></g></g></svg>
