<?xml version="1.0" encoding="UTF-8" standalone="no"?>
<!-- Created with Inkscape (http://www.inkscape.org/) -->

<svg
   width="18.535595mm"
   height="57.081905mm"
   viewBox="0 0 18.535595 57.081908"
   version="1.1"
   id="svg1"
   inkscape:version="1.3 (0e150ed6c4, 2023-07-21)"
   sodipodi:docname="EscapeDoorBack.svg"
   xml:space="preserve"
   xmlns:inkscape="http://www.inkscape.org/namespaces/inkscape"
   xmlns:sodipodi="http://sodipodi.sourceforge.net/DTD/sodipodi-0.dtd"
   xmlns:xlink="http://www.w3.org/1999/xlink"
   xmlns="http://www.w3.org/2000/svg"
   xmlns:svg="http://www.w3.org/2000/svg"><sodipodi:namedview
     id="namedview1"
     pagecolor="#505050"
     bordercolor="#eeeeee"
     borderopacity="1"
     inkscape:showpageshadow="0"
     inkscape:pageopacity="0"
     inkscape:pagecheckerboard="0"
     inkscape:deskcolor="#d1d1d1"
     inkscape:document-units="mm"
     inkscape:zoom="0.5"
     inkscape:cx="209"
     inkscape:cy="-6"
     inkscape:window-width="1280"
     inkscape:window-height="961"
     inkscape:window-x="-8"
     inkscape:window-y="-8"
     inkscape:window-maximized="1"
     inkscape:current-layer="layer1" /><defs
     id="defs1"><linearGradient
       id="linearGradient173"
       inkscape:collect="always"><stop
         style="stop-color:#11481f;stop-opacity:1;"
         offset="0.02035901"
         id="stop169" /><stop
         style="stop-color:#2d9a0c;stop-opacity:1;"
         offset="0.22312704"
         id="stop170" /><stop
         style="stop-color:#2fa30b;stop-opacity:1;"
         offset="0.47455215"
         id="stop171" /><stop
         style="stop-color:#328218;stop-opacity:1;"
         offset="0.7813518"
         id="stop172" /><stop
         style="stop-color:#19420f;stop-opacity:1;"
         offset="0.97497272"
         id="stop173" /></linearGradient><linearGradient
       id="linearGradient167"
       inkscape:collect="always"><stop
         style="stop-color:#6ccaf8;stop-opacity:1;"
         offset="0"
         id="stop167" /><stop
         style="stop-color:#075eff;stop-opacity:0.98843932;"
         offset="1"
         id="stop168" /></linearGradient><inkscape:path-effect
       effect="bspline"
       id="path-effect166"
       is_visible="true"
       lpeversion="1.3"
       weight="33.333333"
       steps="2"
       helper_size="0"
       apply_no_weight="true"
       apply_with_weight="true"
       only_selected="false"
       uniform="false" /><inkscape:path-effect
       effect="bspline"
       id="path-effect165"
       is_visible="true"
       lpeversion="1.3"
       weight="33.333333"
       steps="2"
       helper_size="0"
       apply_no_weight="true"
       apply_with_weight="true"
       only_selected="false"
       uniform="false" /><inkscape:path-effect
       effect="bspline"
       id="path-effect164"
       is_visible="true"
       lpeversion="1.3"
       weight="33.333333"
       steps="2"
       helper_size="0"
       apply_no_weight="true"
       apply_with_weight="true"
       only_selected="false"
       uniform="false" /><linearGradient
       id="linearGradient155"
       inkscape:collect="always"><stop
         style="stop-color:#521a02;stop-opacity:1;"
         offset="0"
         id="stop151" /><stop
         style="stop-color:#af4010;stop-opacity:1;"
         offset="0.1006947"
         id="stop156" /><stop
         style="stop-color:#6d2406;stop-opacity:1;"
         offset="0.190227"
         id="stop157" /><stop
         style="stop-color:#9a3409;stop-opacity:1;"
         offset="0.33305085"
         id="stop152" /><stop
         style="stop-color:#621e01;stop-opacity:1;"
         offset="0.45254236"
         id="stop153" /><stop
         style="stop-color:#a34117;stop-opacity:1;"
         offset="0.65677965"
         id="stop154" /><stop
         style="stop-color:#712c0e;stop-opacity:1;"
         offset="0.74258471"
         id="stop160" /><stop
         style="stop-color:#501e08;stop-opacity:1;"
         offset="0.82838982"
         id="stop158" /><stop
         style="stop-color:#a73a0d;stop-opacity:1;"
         offset="0.91106015"
         id="stop159" /><stop
         style="stop-color:#441602;stop-opacity:1;"
         offset="1"
         id="stop155" /></linearGradient><linearGradient
       id="linearGradient49"
       inkscape:collect="always"><stop
         style="stop-color:#521a02;stop-opacity:1;"
         offset="0"
         id="stop49" /><stop
         style="stop-color:#9a3409;stop-opacity:1;"
         offset="0.24830508"
         id="stop124" /><stop
         style="stop-color:#621e01;stop-opacity:1;"
         offset="0.49661016"
         id="stop122" /><stop
         style="stop-color:#a34117;stop-opacity:1;"
         offset="0.74830508"
         id="stop123" /><stop
         style="stop-color:#441602;stop-opacity:1;"
         offset="1"
         id="stop50" /></linearGradient><inkscape:path-effect
       effect="bspline"
       id="path-effect132-8"
       is_visible="true"
       lpeversion="1.3"
       weight="33.333333"
       steps="2"
       helper_size="0"
       apply_no_weight="true"
       apply_with_weight="true"
       only_selected="false"
       uniform="false" /><linearGradient
       inkscape:collect="always"
       xlink:href="#linearGradient173"
       id="linearGradient184-9"
       gradientUnits="userSpaceOnUse"
       x1="146.03192"
       y1="158.0553"
       x2="145.98914"
       y2="168.10947"
       gradientTransform="translate(-28.850495,29.881239)" /><linearGradient
       inkscape:collect="always"
       xlink:href="#linearGradient49"
       id="linearGradient7"
       gradientUnits="userSpaceOnUse"
       x1="151.79199"
       y1="162.42958"
       x2="151.76022"
       y2="171.62386"
       gradientTransform="translate(-30.311211,28.472761)" /><linearGradient
       inkscape:collect="always"
       xlink:href="#linearGradient155"
       id="linearGradient162"
       x1="123.74827"
       y1="143.89311"
       x2="123.54902"
       y2="189.54274"
       gradientUnits="userSpaceOnUse" /><linearGradient
       inkscape:collect="always"
       xlink:href="#linearGradient167"
       id="linearGradient168"
       x1="117.8028"
       y1="147.28508"
       x2="118.36406"
       y2="189.75421"
       gradientUnits="userSpaceOnUse" /></defs><g
     inkscape:label="Layer 1"
     inkscape:groupmode="layer"
     id="layer1"
     transform="translate(-107.8198,-143.4974)"><g
       inkscape:label="Layer 1"
       id="layer1-4"
       transform="translate(-45.871297,-19.262881)" /><g
       id="g174"><path
         id="path179-3"
         style="fill:url(#linearGradient7);fill-opacity:1;fill-rule:evenodd;stroke:none;stroke-width:0.264583px;stroke-linecap:butt;stroke-linejoin:miter;stroke-opacity:1"
         d="m 107.844,190.68946 -0.0242,9.88932 c 0.18577,0 11.21105,5.6e-4 11.25255,5.2e-4 0.63431,-6.7e-4 1.55584,-0.002 2.56263,-0.23926 1.00679,-0.23733 1.75136,-0.71087 2.25981,-1.64073 0.50846,-0.92986 0.78104,-2.3158 1.06402,-3.40083 0.28298,-1.08501 0.57654,-1.86909 0.72347,-2.58743 0.14693,-0.71835 0.14676,-1.37114 0.14676,-2.02417 z"
         sodipodi:nodetypes="ccccssscc" /><path
         style="opacity:0.508064;fill:#a94614;fill-opacity:1;fill-rule:evenodd;stroke:#3e1201;stroke-width:0.264583px;stroke-linecap:butt;stroke-linejoin:miter;stroke-opacity:1"
         d="m 141.94655,170.06804 c 0.0924,-0.0924 0.27706,-0.0924 0.78501,-0.41559 0.50795,-0.32325 1.33911,-0.9697 1.45455,-1.59309 0.11543,-0.6234 -0.48485,-1.22368 -0.87735,-1.40838 -0.3925,-0.1847 -0.57721,0.0462 -0.80809,0.39251 -0.23089,0.34632 -0.50794,0.80808 -0.92353,1.20058 -0.4156,0.3925 -0.96971,0.71574 -0.94661,1.08515 0.0231,0.36942 0.62338,0.785 0.92352,0.90044 0.30015,0.11544 0.30015,-0.0693 0.3925,-0.16162 z"
         id="path131-3"
         transform="translate(-21.409423,29.197612)"
         inkscape:original-d="m 141.8542,169.97569 c 0.18471,0 0.36941,0 0.55412,0 0.83119,-0.64649 1.66235,-1.29294 2.49353,-1.93942 -0.60031,-0.6003 -1.20059,-1.20058 -1.80088,-1.80088 -0.18471,0.23089 -0.36942,0.46177 -0.55412,0.69265 -0.27707,0.46177 -0.55412,0.92353 -0.83118,1.38529 -0.55413,0.32324 -1.10824,0.64648 -1.66235,0.96971 0.6003,0.4156 1.20059,0.83118 1.80088,1.24677 0,-0.18471 0,-0.36942 0,-0.55412 z"
         inkscape:path-effect="#path-effect132-8" /><path
         style="fill:#983d12;fill-opacity:1;fill-rule:evenodd;stroke:#6e280c;stroke-width:0.264583px;stroke-linecap:butt;stroke-linejoin:miter;stroke-opacity:1"
         d="m 108.8849,198.3603 c 0.20268,0.343 0.65482,0.68599 1.50452,0.70158 0.84971,0.0156 2.09694,-0.29622 2.90766,-0.77174 0.81072,-0.47552 1.18489,-1.11473 0.77952,-1.38757 -0.40537,-0.27283 -1.59024,-0.17929 -2.41655,0.078 -0.82631,0.25725 -1.29403,0.67819 -1.71498,0.76394 -0.42095,0.0857 -0.79512,-0.1637 -1.0056,-0.11692 -0.21047,0.0468 -0.25725,0.38975 -0.0546,0.73275 z"
         id="path165"
         inkscape:path-effect="#path-effect165"
         inkscape:original-d="m 108.63545,198.3603 c 0.45213,0.343 0.90427,0.68599 1.3564,1.02899 1.24728,-0.31182 2.49451,-0.62363 3.74177,-0.93544 0.37418,-0.63923 0.74835,-1.27844 1.12253,-1.91766 -1.18492,0.0935 -2.36979,0.18709 -3.55468,0.28063 -0.46773,0.42096 -0.93545,0.8419 -1.40317,1.26285 -0.37418,-0.24946 -0.74835,-0.4989 -1.12253,-0.74835 -0.0468,0.343 -0.0935,0.68599 -0.14032,1.02898 z"
         transform="translate(-0.18708867,0.56126601)" /><path
         style="fill:url(#linearGradient168);fill-opacity:1;fill-rule:evenodd;stroke:none;stroke-width:0.264583px;stroke-linecap:butt;stroke-linejoin:miter;stroke-opacity:1"
         d="m 111.9095,189.94131 11.88014,0.65481 0.28063,-46.58507 -11.88013,5.61266 z"
         id="path167" /><path
         id="path180-3"
         style="fill:url(#linearGradient184-9);fill-opacity:1;fill-rule:evenodd;stroke:none;stroke-width:0.264583px;stroke-linecap:butt;stroke-linejoin:miter"
         d="m 107.94039,187.81884 -0.0751,7.29258 c 0.70349,-0.41173 1.22037,-0.0507 2.54427,0.033 0.23143,0.0146 1.94204,-0.30174 3.19294,-0.28852 0.43308,0.005 0.84249,0.54423 1.83233,1.17947 0.41411,0.26575 0.82293,1.90815 1.25508,2.06922 0.19956,0.0744 0.69341,-0.68843 1.29422,-0.82242 0.68946,-0.15376 1.48272,0.31308 1.50939,0.32724 0.37784,0.20063 0.74747,-0.0531 1.14309,-0.62322 0.39562,-0.57004 0.81705,-1.45628 1.18959,-1.68 0.37254,-0.22372 0.69592,0.2151 0.99684,0.45733 0.30092,0.24223 0.57966,0.2878 0.83871,0.24443 0.25902,-0.0434 0.49791,-0.17564 0.69969,-0.62321 0.20176,-0.44758 0.64696,-1.05251 0.85476,-1.71128 0.20779,-0.65876 0.35405,-1.32463 0.4232,-1.81415 0.0701,-0.49619 0.15467,-0.87846 0.24236,-1.32441 0.0834,-0.42419 0.30899,-0.74781 0.30903,-1.19682 3e-5,-0.44901 -0.17459,-0.71069 -0.55759,-0.94775 -0.38302,-0.23707 -0.9307,-0.38399 -1.47847,-0.53072 -1.90836,0.007 -3.25793,-0.0408 -5.15627,-0.0408 z"
         sodipodi:nodetypes="ccsssssssssssssssscsc" /><path
         style="fill:url(#linearGradient162);fill-rule:evenodd;stroke:#1d160e;stroke-width:0.264583px;stroke-linecap:butt;stroke-linejoin:miter;stroke-opacity:1"
         d="m 121.63811,189.38005 1.87089,-0.28064 2.55456,0.48946 -0.16585,-3.73141 -0.14364,-3.58678 0.23723,-3.3676 0.0435,-4.30304 -0.25794,-2.80633 0.35148,-2.99342 v -3.36759 l -0.28063,-3.3676 0.37418,-2.89987 -0.46772,-3.27405 0.0935,-3.74178 0.11624,-3.08696 0.16439,-3.08696 -0.18708,-2.05798 -2.24507,-0.18709 -1.49671,-0.0935 -0.46772,2.89987 c 0,0 0.0935,2.05798 0,2.5257 -0.0936,0.46772 -0.28063,2.61924 -0.28063,2.61924 l 0.0935,3.46114 0.28534,2.61924 0.0888,2.5257 -0.65481,3.55469 0.16439,2.61924 0.12094,3.65958 c 0,0 0.27593,3.16915 0.18239,3.54333 -0.0936,0.37418 -0.28063,3.74177 -0.28063,3.74177 l 0.28063,2.80633 -0.30337,3.29011 0.11624,3.53863 z"
         id="path160"
         sodipodi:nodetypes="cccccccccccccccccccccccccccccccccc" /><path
         style="fill:none;fill-rule:evenodd;stroke:#000000;stroke-width:0.265;stroke-linecap:round;stroke-linejoin:miter;stroke-dasharray:none;stroke-opacity:1"
         d="m 108.50112,194.30132 c 0.63356,-0.0549 1.26711,-0.10977 2.01369,0.0556 0.74658,0.16538 1.6061,0.55101 2.48231,0.78327 0.8762,0.23226 1.76896,0.31113 2.36863,0.93201 0.59967,0.62089 0.90616,1.78371 1.29174,1.98257 0.38558,0.19886 0.8502,-0.56627 1.43138,-0.7072 0.58118,-0.14093 1.27884,0.34236 1.79626,0.2761 0.51743,-0.0663 0.85457,-0.68208 1.16151,-1.20828 0.30695,-0.52619 0.58368,-0.96271 0.86821,-1.06405 0.28454,-0.10134 0.57685,0.13251 0.88965,0.31473 0.3128,0.18223 0.64602,0.31279 0.92082,0.22703 0.27479,-0.0858 0.49111,-0.38781 0.76297,-0.79805 0.27187,-0.41023 0.59927,-0.9286 0.8039,-1.44311 0.20463,-0.51451 0.28648,-1.02506 0.35859,-1.52398 0.0721,-0.49892 0.13447,-0.98612 0.20073,-1.37979 0.0663,-0.39367 0.13641,-0.69379 0.20657,-0.99391"
         id="path164"
         inkscape:path-effect="#path-effect164"
         inkscape:original-d="m 108.50112,194.30132 c 0.63356,-0.0549 1.26711,-0.10976 1.90069,-0.16465 0.85958,0.38565 1.7191,0.77128 2.57869,1.15693 0.89282,0.0789 1.78558,0.15774 2.67841,0.23661 0.30651,1.1629 0.613,2.32572 0.91951,3.48862 0.46465,-0.76518 0.92927,-1.53031 1.39393,-2.29549 0.6977,0.48332 1.39536,0.96661 2.09305,1.44993 0.33716,-0.61584 0.6743,-1.23166 1.01145,-1.8475 0.27674,-0.43655 0.55347,-0.87307 0.83021,-1.30962 0.29233,0.23387 0.58464,0.46772 0.87697,0.70159 0.33327,0.13058 0.66649,0.26114 0.99975,0.39171 0.21633,-0.30208 0.43265,-0.60414 0.64897,-0.90621 0.32741,-0.5184 0.6548,-1.03677 0.98222,-1.55517 0.0819,-0.51061 0.1637,-1.02117 0.24555,-1.53179 0.0624,-0.48722 0.12473,-0.97442 0.18709,-1.46163 0.0702,-0.30012 0.14031,-0.60025 0.21047,-0.90037"
         sodipodi:nodetypes="cccccccccccccccc" /><path
         style="fill:#983d12;fill-opacity:1;fill-rule:evenodd;stroke:#6b270b;stroke-width:0.264583px;stroke-linecap:butt;stroke-linejoin:miter;stroke-opacity:1"
         d="m 115.6201,198.66432 c -0.15591,0.13252 -0.10914,0.52229 0.1715,0.71717 0.28064,0.19489 0.79512,0.19489 0.95102,0.0624 0.15591,-0.13253 -0.0468,-0.39757 -0.3274,-0.59245 -0.28064,-0.19489 -0.63922,-0.31962 -0.79512,-0.18709 z"
         id="path166"
         inkscape:path-effect="#path-effect166"
         inkscape:original-d="m 115.41742,198.40707 c 0.0468,0.38977 0.0935,0.77954 0.14031,1.16931 0.51451,0 1.02899,0 1.54348,0 -0.20268,-0.26505 -0.40535,-0.53009 -0.60803,-0.79513 -0.3586,-0.12473 -0.71718,-0.24945 -1.07576,-0.37418 z" /></g></g></svg>
