<?xml version="1.0" encoding="UTF-8" standalone="no"?>
<!-- Created with Inkscape (http://www.inkscape.org/) -->

<svg
   width="18.601854mm"
   height="54.237957mm"
   viewBox="0 0 18.601854 54.23796"
   version="1.1"
   id="svg1"
   inkscape:version="1.3 (0e150ed6c4, 2023-07-21)"
   sodipodi:docname="EscapeDoorAboveDown.svg"
   xml:space="preserve"
   xmlns:inkscape="http://www.inkscape.org/namespaces/inkscape"
   xmlns:sodipodi="http://sodipodi.sourceforge.net/DTD/sodipodi-0.dtd"
   xmlns:xlink="http://www.w3.org/1999/xlink"
   xmlns="http://www.w3.org/2000/svg"
   xmlns:svg="http://www.w3.org/2000/svg"><sodipodi:namedview
     id="namedview1"
     pagecolor="#505050"
     bordercolor="#eeeeee"
     borderopacity="1"
     inkscape:showpageshadow="0"
     inkscape:pageopacity="0"
     inkscape:pagecheckerboard="0"
     inkscape:deskcolor="#d1d1d1"
     inkscape:document-units="mm"
     inkscape:zoom="1"
     inkscape:cx="135"
     inkscape:cy="2"
     inkscape:window-width="1280"
     inkscape:window-height="961"
     inkscape:window-x="-8"
     inkscape:window-y="-8"
     inkscape:window-maximized="1"
     inkscape:current-layer="layer1" /><defs
     id="defs1"><linearGradient
       id="linearGradient155"
       inkscape:collect="always"><stop
         style="stop-color:#521a02;stop-opacity:1;"
         offset="0"
         id="stop151" /><stop
         style="stop-color:#af4010;stop-opacity:1;"
         offset="0.1006947"
         id="stop156" /><stop
         style="stop-color:#6d2406;stop-opacity:1;"
         offset="0.190227"
         id="stop157" /><stop
         style="stop-color:#9a3409;stop-opacity:1;"
         offset="0.33305085"
         id="stop152" /><stop
         style="stop-color:#621e01;stop-opacity:1;"
         offset="0.45254236"
         id="stop153" /><stop
         style="stop-color:#a34117;stop-opacity:1;"
         offset="0.65677965"
         id="stop154" /><stop
         style="stop-color:#712c0e;stop-opacity:1;"
         offset="0.74258471"
         id="stop160" /><stop
         style="stop-color:#501e08;stop-opacity:1;"
         offset="0.82838982"
         id="stop158" /><stop
         style="stop-color:#a73a0d;stop-opacity:1;"
         offset="0.91106015"
         id="stop159" /><stop
         style="stop-color:#441602;stop-opacity:1;"
         offset="1"
         id="stop155" /></linearGradient><inkscape:path-effect
       effect="bspline"
       id="path-effect148"
       is_visible="true"
       lpeversion="1.3"
       weight="33.333333"
       steps="2"
       helper_size="0"
       apply_no_weight="true"
       apply_with_weight="true"
       only_selected="false"
       uniform="false" /><inkscape:path-effect
       effect="bspline"
       id="path-effect147"
       is_visible="true"
       lpeversion="1.3"
       weight="33.333333"
       steps="2"
       helper_size="0"
       apply_no_weight="true"
       apply_with_weight="true"
       only_selected="false"
       uniform="false" /><linearGradient
       inkscape:collect="always"
       xlink:href="#linearGradient155"
       id="linearGradient151"
       x1="112.52342"
       y1="149.15469"
       x2="112.60339"
       y2="195.27205"
       gradientUnits="userSpaceOnUse"
       gradientTransform="translate(-37.041684)" /><linearGradient
       inkscape:collect="always"
       xlink:href="#linearGradient155"
       id="linearGradient164"
       x1="110.56966"
       y1="147.10394"
       x2="126.66941"
       y2="147.10394"
       gradientUnits="userSpaceOnUse"
       gradientTransform="translate(-37.509406,-0.18708867)" /></defs><g
     inkscape:label="Layer 1"
     inkscape:groupmode="layer"
     id="layer1"
     transform="translate(-70.787115,-141.45161)"><g
       inkscape:label="Layer 1"
       id="layer1-4"
       transform="translate(-45.871297,-19.262881)" /><g
       id="g4"><g
         id="g2"><path
           style="fill:#441602;fill-opacity:1;fill-rule:evenodd;stroke:#1d160e;stroke-width:0.264583px;stroke-linecap:butt;stroke-linejoin:miter;stroke-opacity:1"
           d="m 76.623316,195.42477 -2.68665,0.0183 -3.01726,-0.0685 V 141.585 h 17.72708 v 2.05177 l -1.85208,1.19338 -2.77813,0.82282 -8.20208,4.29948 z"
           id="path146"
           sodipodi:nodetypes="cccccccccc" /><path
           style="fill:#772f0b;fill-opacity:1;fill-rule:evenodd;stroke:#511b05;stroke-width:0.264583px;stroke-linecap:butt;stroke-linejoin:miter;stroke-opacity:1"
           d="m 114.71584,142.92748 c -0.32741,-0.008 -0.98222,-0.0234 -1.64483,-0.14034 -0.66261,-0.11693 -1.333,-0.3352 -1.89427,-0.20267 -0.56127,0.13252 -1.0134,0.61583 -1.23946,1.19269 -0.22607,0.57686 -0.22607,1.24725 0.12473,1.54347 0.35079,0.29623 1.05237,0.21827 1.69939,-0.0624 0.64702,-0.28064 1.23946,-0.76394 1.77734,-1.1849 0.53788,-0.42095 1.02119,-0.77953 1.26284,-0.95883 0.24166,-0.17929 0.24166,-0.17926 -0.0857,-0.18706 z"
           id="path147"
           transform="translate(-38.312558,-0.3528565)"
           inkscape:original-d="m 115.04324,142.93528 c -0.65481,-0.0156 -1.30962,-0.0312 -1.96443,-0.0468 -0.67041,-0.21827 -1.3408,-0.43654 -2.0112,-0.65481 -0.45214,0.48332 -0.90427,0.96663 -1.3564,1.44994 0,0.67041 0,1.3408 0,2.0112 0.7016,-0.0779 1.40317,-0.1559 2.10475,-0.23386 0.59246,-0.48332 1.1849,-0.96662 1.77734,-1.44993 0.48332,-0.3586 0.96663,-0.71718 1.44994,-1.07577 z"
           inkscape:path-effect="#path-effect147" /><path
           style="fill:#772f0b;fill-opacity:1;fill-rule:evenodd;stroke:#511b05;stroke-width:0.264583px;stroke-linecap:butt;stroke-linejoin:miter;stroke-opacity:1"
           d="m 118.66029,141.75818 c -0.078,-0.008 -0.23386,-0.0234 -0.77955,0.0312 -0.54568,0.0546 -1.48111,0.17929 -2.3464,0.62364 -0.86529,0.44434 -1.6604,1.20827 -2.39317,1.80072 -0.73277,0.59245 -1.40316,1.01339 -1.36418,1.20048 0.039,0.18709 0.78733,0.14031 1.6838,-0.0156 0.89648,-0.1559 1.94104,-0.42094 2.40096,-0.80292 0.45993,-0.38198 0.33521,-0.88087 0.59246,-1.23946 0.25725,-0.35858 0.89646,-0.57685 1.44993,-0.60023 0.55348,-0.0234 1.02119,0.1481 1.3408,0.10133 0.31961,-0.0468 0.49111,-0.31181 0.38197,-0.53008 -0.10914,-0.21827 -0.4989,-0.38977 -0.69378,-0.47552 -0.19489,-0.0857 -0.19489,-0.0857 -0.27284,-0.0935 z"
           id="path148"
           transform="translate(-36.479444,0.72760421)"
           inkscape:original-d="m 118.73824,141.76598 c -0.15591,-0.0156 -0.31181,-0.0312 -0.46772,-0.0468 -0.93546,0.12473 -1.87089,0.24945 -2.80633,0.37418 -0.79514,0.76396 -1.59025,1.52789 -2.38538,2.29183 -0.67041,0.42096 -1.3408,0.8419 -2.0112,1.26285 0.74836,-0.0468 1.49671,-0.0935 2.24506,-0.14032 1.0446,-0.26504 2.08916,-0.53008 3.13374,-0.79512 -0.12473,-0.49892 -0.24946,-0.99781 -0.37418,-1.49671 0.63923,-0.21828 1.27844,-0.43654 1.91766,-0.65481 0.46773,0.1715 0.93544,0.34299 1.40316,0.51449 0.1715,-0.26505 0.343,-0.53008 0.5145,-0.79512 -0.38978,-0.1715 -0.77954,-0.343 -1.16931,-0.5145 z"
           inkscape:path-effect="#path-effect148" /><path
           style="fill:url(#linearGradient151);fill-rule:evenodd;stroke:#1d160e;stroke-width:0.264583px;stroke-linecap:butt;stroke-linejoin:miter;stroke-opacity:1"
           d="m 73.745286,195.46043 3.64823,0.0935 0.0936,-3.74177 0.28063,-4.58367 0.0935,-6.5481 c 0,0 -0.18709,-5.23849 -0.18709,-5.61267 0,-0.37417 0.46773,-4.39658 0.46773,-4.39658 l -0.18709,-4.67721 v -4.67722 l -0.18709,-6.17393 0.0935,-3.27405 v -3.08696 l -4.30304,0.18709 0.0936,3.55468 -0.28063,3.74177 c 0,0 0.37417,3.64823 0.37417,4.02241 v 4.02241 3.08696 l -0.28063,2.5257 0.46772,3.92886 -0.28063,5.05139 0.0935,4.58367 -0.37417,3.92887 -0.007,2.52569 0.007,2.99342 z"
           id="path150"
           sodipodi:nodetypes="cccccscccccccccscccccccccc" /><path
           style="fill:url(#linearGradient164);fill-rule:evenodd;stroke:#1d160e;stroke-width:0.264583px;stroke-linecap:butt;stroke-linejoin:miter;stroke-opacity:1"
           d="m 73.277566,149.06244 3.64823,-1.77734 3.92887,-2.15152 2.54742,-1.11783 1.9427,-0.75306 2.21297,-1.24445 0.98457,1.13955 0.6822,1.86619 -2.8621,1.46267 -4.01106,1.82743 -2.99342,1.30962 -1.73057,1.09915 -1.35639,0.81852 -1.19269,0.3274 z"
           id="path162"
           sodipodi:nodetypes="ccccccccccccccc" /></g><rect
         style="fill:#441602;fill-opacity:1;fill-rule:evenodd;stroke-width:0.176527;stroke-linecap:round;stroke-linejoin:round"
         id="rect2"
         width="17.46505"
         height="0.33571768"
         x="71.049797"
         y="141.45161" /></g></g></svg>
