<?xml version="1.0" encoding="UTF-8" standalone="no"?>
<!-- Created with Inkscape (http://www.inkscape.org/) -->

<svg
   width="20.522827"
   height="39.065735"
   viewBox="0 0 5.791998 11.025219"
   version="1.1"
   id="svg1"
   inkscape:version="1.3.2 (091e20ef0f, 2023-11-25)"
   sodipodi:docname="gameForest.svg"
   xml:space="preserve"
   xmlns:inkscape="http://www.inkscape.org/namespaces/inkscape"
   xmlns:sodipodi="http://sodipodi.sourceforge.net/DTD/sodipodi-0.dtd"
   xmlns="http://www.w3.org/2000/svg"
   xmlns:svg="http://www.w3.org/2000/svg"
   xmlns:rdf="http://www.w3.org/1999/02/22-rdf-syntax-ns#"
   xmlns:cc="http://creativecommons.org/ns#"
   xmlns:dc="http://purl.org/dc/elements/1.1/"><metadata
     id="metadata585"><rdf:RDF><cc:Work
         rdf:about=""><dc:format>image/svg+xml</dc:format><dc:type
           rdf:resource="http://purl.org/dc/dcmitype/StillImage" /></cc:Work></rdf:RDF></metadata><sodipodi:namedview
     id="namedview1"
     pagecolor="#505050"
     bordercolor="#eeeeee"
     borderopacity="1"
     inkscape:showpageshadow="0"
     inkscape:pageopacity="1"
     inkscape:pagecheckerboard="0"
     inkscape:deskcolor="#d1d1d1"
     inkscape:document-units="px"
     inkscape:zoom="2"
     inkscape:cx="966.5"
     inkscape:cy="579"
     inkscape:window-width="1366"
     inkscape:window-height="706"
     inkscape:window-x="-8"
     inkscape:window-y="-8"
     inkscape:window-maximized="1"
     inkscape:current-layer="layer1"
     showgrid="false"
     units="px" /><defs
     id="defs1"><linearGradient
       id="swatch2"
       inkscape:swatch="solid"><stop
         style="stop-color:#000000;stop-opacity:1;"
         offset="0"
         id="stop2-3" /></linearGradient></defs><g
     inkscape:label="Layer 1"
     inkscape:groupmode="layer"
     id="layer1"
     transform="translate(-266.4483,-148.89377)"><path
       d="m 269.95392,156.42376 c 0,0 -0.4046,0.34923 -0.65079,0.34923 -0.24619,0 -0.6508,-0.34923 -0.6508,-0.34923 -0.004,-0.24337 -0.005,-0.39161 -0.005,-0.44471 0,-0.5487 0.0697,-1.00005 0.20928,-1.35405 0.13951,-0.35399 0.41855,-0.75225 0.8371,-1.19475 0.41855,-0.4425 0.66865,-0.73234 0.75032,-0.86951 0.1259,-0.21682 0.18886,-0.45577 0.18886,-0.71684 0,-0.36285 -0.11229,-0.6726 -0.33688,-0.92926 -0.22119,-0.26108 -0.52063,-0.39161 -0.89835,-0.39161 -0.3641,0 -0.66866,0.13496 -0.91367,0.40489 -0.245,0.26993 -0.41344,0.68144 -0.50532,1.23457 0,0 -0.48889,0.17463 -0.73328,0.13077 -0.22213,-0.0399 -0.58361,-0.34317 -0.58361,-0.34317 0.0374,-0.79207 0.29603,-1.46467 0.77585,-2.0178 0.48319,-0.55312 1.11612,-0.82968 1.89877,-0.82968 0.82349,0 1.47854,0.28098 1.96515,0.84296 0.4866,0.55755 0.7299,1.20802 0.7299,1.95142 0,0.41153 -0.0902,0.80093 -0.27052,1.16821 -0.17695,0.36727 -0.55807,0.8673 -1.14336,1.50006 -0.30285,0.32745 -0.4917,0.59075 -0.56657,0.78987 -0.11131,0.34376 -0.0849,0.71134 -0.0968,1.06863 z m -1.30159,3.03283 c -0.43961,-0.43962 -0.43961,-1.42553 0,-1.86514 0.33807,-0.33807 1.09623,-0.33807 1.4343,0 0.43961,0.43961 0.43961,1.42552 0,1.86514 -0.33807,0.33806 -1.09623,0.33806 -1.4343,0 z"
       id="text3"
       style="font-weight:bold;font-size:11.9206px;line-height:125%;font-family:Arial;-inkscape-font-specification:'Arial Bold';letter-spacing:0px;word-spacing:0px;fill:#ffffff;stroke:#161616;stroke-width:0.417689;stroke-dasharray:none"
       aria-label="?"
       sodipodi:nodetypes="cscssscscsscsccscscsccsssss"
       inkscape:export-filename="..\..\Binary\Data\Sprites\Common\MarkQuestion.svg"
       inkscape:export-xdpi="96"
       inkscape:export-ydpi="96" /></g></svg>
