<?xml version="1.0" encoding="UTF-8" standalone="no"?>
<!-- Created with Inkscape (http://www.inkscape.org/) -->

<svg
   width="44.067417mm"
   height="25.723843mm"
   viewBox="0 0 44.067417 25.723843"
   version="1.1"
   id="svg1"
   xml:space="preserve"
   inkscape:version="1.3.2 (091e20ef0f, 2023-11-25)"
   sodipodi:docname="PafHammer.svg"
   xmlns:inkscape="http://www.inkscape.org/namespaces/inkscape"
   xmlns:sodipodi="http://sodipodi.sourceforge.net/DTD/sodipodi-0.dtd"
   xmlns="http://www.w3.org/2000/svg"
   xmlns:svg="http://www.w3.org/2000/svg"><sodipodi:namedview
     id="namedview1"
     pagecolor="#505050"
     bordercolor="#eeeeee"
     borderopacity="1"
     inkscape:showpageshadow="0"
     inkscape:pageopacity="0"
     inkscape:pagecheckerboard="0"
     inkscape:deskcolor="#d1d1d1"
     inkscape:document-units="mm"
     inkscape:zoom="1.9099422"
     inkscape:cx="54.451909"
     inkscape:cy="87.4372"
     inkscape:window-width="1366"
     inkscape:window-height="706"
     inkscape:window-x="-8"
     inkscape:window-y="-8"
     inkscape:window-maximized="1"
     inkscape:current-layer="layer1" /><defs
     id="defs1" /><g
     inkscape:label="Layer 1"
     inkscape:groupmode="layer"
     id="layer1"
     transform="translate(-76.460765,-38.290723)"><g
       id="g100"
       transform="rotate(11.012066,42.410401,316.98081)"
       style="opacity:1"><path
         sodipodi:type="star"
         style="fill:#ef0f1a;fill-opacity:1;fill-rule:evenodd;stroke-width:0.564999;stroke-linecap:round;stroke-linejoin:round"
         id="path97"
         inkscape:flatsided="false"
         sodipodi:sides="10"
         sodipodi:cx="31.030605"
         sodipodi:cy="37.125904"
         sodipodi:r1="20.592026"
         sodipodi:r2="11.428574"
         sodipodi:arg1="0.4154921"
         sodipodi:arg2="0.72965137"
         inkscape:rounded="0"
         inkscape:randomized="0"
         d="m 49.870616,45.437674 -10.321074,-0.693371 1.837417,10.179845 -7.942372,-6.627524 -4.497061,9.315673 -2.529953,-10.030188 -9.113814,4.893232 3.848822,-9.601661 -10.2494,-1.398258 8.757477,-5.505627 -7.470064,-7.155661 10.321074,0.693371 -1.837416,-10.179844 7.942371,6.627523 4.497061,-9.315673 2.529953,10.030188 9.113815,-4.893232 -3.848822,9.601661 10.2494,1.398258 -8.757477,5.505627 z"
         inkscape:transform-center-x="0.70130217"
         inkscape:transform-center-y="0.82370766"
         transform="matrix(1.0894741,0,0,0.61284341,12.877398,22.58204)" /><path
         d="m 139.36523,257.30967 h 11.04166 q 4.47917,0 6.875,0.70312 2.42187,0.70313 3.61979,2.03125 1.22396,1.32812 1.64062,3.22916 0.44271,1.875 0.44271,5.83333 v 3.67188 q 0,4.03645 -0.83333,5.88541 -0.83334,1.84896 -3.07292,2.83854 -2.21354,0.98958 -5.80729,0.98958 h -2.9427 v 16.97916 h -10.96354 z m 10.96354,7.21353 v 10.72916 q 0.46875,0.026 0.80729,0.026 1.51042,0 2.08333,-0.72917 0.59896,-0.75521 0.59896,-3.09896 v -3.46354 q 0,-2.16145 -0.67708,-2.81249 -0.67709,-0.65105 -2.8125,-0.65105 z m 33.41144,-7.21353 6.27604,42.16143 h -11.22396 l -0.54687,-7.57812 h -3.93229 l -0.65104,7.57812 h -11.35416 l 5.57291,-42.16143 z m -5.80729,27.10936 q -0.83333,-7.16146 -1.66667,-17.68229 -1.66666,12.08333 -2.08333,17.68229 z m 13.95832,-27.10936 h 18.5677 v 8.43749 h -7.60416 v 7.99479 h 6.77083 v 8.02083 h -6.77083 v 17.70832 h -10.96354 z m 41.87498,0 -1.71875,31.74477 h -8.12499 l -1.71875,-31.74477 z m -0.85937,33.72393 v 8.4375 h -9.84375 v -8.4375 z"
         id="text97"
         style="font-size:53.3333px;line-height:125%;font-family:Impact;-inkscape-font-specification:Impact;letter-spacing:0px;word-spacing:0px;white-space:pre;fill:#ffffff;stroke-width:1px;fill-opacity:1"
         transform="matrix(0.16214815,0,0,0.16214815,17.395013,-5.3293244e-4)"
         aria-label="PAF !" /></g></g></svg>
