<?xml version="1.0" encoding="UTF-8" standalone="no"?>
<!-- Created with Inkscape (http://www.inkscape.org/) -->

<svg
   width="28.18914mm"
   height="49.457951mm"
   viewBox="0 0 28.18914 49.457951"
   version="1.1"
   id="svg1"
   inkscape:version="1.3 (0e150ed6c4, 2023-07-21)"
   sodipodi:docname="PlatformLR.svg"
   xml:space="preserve"
   xmlns:inkscape="http://www.inkscape.org/namespaces/inkscape"
   xmlns:sodipodi="http://sodipodi.sourceforge.net/DTD/sodipodi-0.dtd"
   xmlns:xlink="http://www.w3.org/1999/xlink"
   xmlns="http://www.w3.org/2000/svg"
   xmlns:svg="http://www.w3.org/2000/svg"><sodipodi:namedview
     id="namedview1"
     pagecolor="#505050"
     bordercolor="#eeeeee"
     borderopacity="1"
     inkscape:showpageshadow="0"
     inkscape:pageopacity="0"
     inkscape:pagecheckerboard="0"
     inkscape:deskcolor="#d1d1d1"
     inkscape:document-units="mm"
     inkscape:zoom="0.70710678"
     inkscape:cx="229.8097"
     inkscape:cy="166.8772"
     inkscape:window-width="1280"
     inkscape:window-height="961"
     inkscape:window-x="-8"
     inkscape:window-y="-8"
     inkscape:window-maximized="1"
     inkscape:current-layer="layer1" /><defs
     id="defs1"><linearGradient
       id="linearGradient216"
       inkscape:collect="always"><stop
         style="stop-color:#dc861e;stop-opacity:1;"
         offset="0"
         id="stop216" /><stop
         style="stop-color:#d08832;stop-opacity:1;"
         offset="0.125"
         id="stop224" /><stop
         style="stop-color:#923c0f;stop-opacity:1;"
         offset="0.25"
         id="stop221" /><stop
         style="stop-color:#d47d1f;stop-opacity:1;"
         offset="0.375"
         id="stop222" /><stop
         style="stop-color:#995c1c;stop-opacity:1;"
         offset="0.5"
         id="stop218" /><stop
         style="stop-color:#983f1a;stop-opacity:1;"
         offset="0.625"
         id="stop223" /><stop
         style="stop-color:#cd7521;stop-opacity:1;"
         offset="0.75"
         id="stop219" /><stop
         style="stop-color:#92531a;stop-opacity:1;"
         offset="0.875"
         id="stop220" /><stop
         style="stop-color:#ca5215;stop-opacity:1;"
         offset="1"
         id="stop217" /></linearGradient><linearGradient
       id="linearGradient210"
       inkscape:collect="always"><stop
         style="stop-color:#b96127;stop-opacity:1;"
         offset="0"
         id="stop210" /><stop
         style="stop-color:#e58f1c;stop-opacity:1;"
         offset="1"
         id="stop209" /></linearGradient><linearGradient
       id="linearGradient162"
       inkscape:collect="always"><stop
         style="stop-color:#e58f1c;stop-opacity:1;"
         offset="0"
         id="stop162" /><stop
         style="stop-color:#b96127;stop-opacity:1;"
         offset="1"
         id="stop163" /></linearGradient><linearGradient
       inkscape:collect="always"
       xlink:href="#linearGradient216"
       id="linearGradient217"
       x1="30.691668"
       y1="162.65259"
       x2="65.219795"
       y2="165.43073"
       gradientUnits="userSpaceOnUse"
       gradientTransform="matrix(0.80032044,0,0,1.0105965,13.962244,-4.5170895)" /><linearGradient
       inkscape:collect="always"
       xlink:href="#linearGradient216"
       id="linearGradient224"
       gradientUnits="userSpaceOnUse"
       gradientTransform="matrix(0.5257836,0,0,0.81078357,27.109696,-18.689771)"
       x1="30.691668"
       y1="162.65259"
       x2="65.219795"
       y2="165.43073" /><linearGradient
       inkscape:collect="always"
       xlink:href="#linearGradient162"
       id="linearGradient232"
       gradientUnits="userSpaceOnUse"
       gradientTransform="translate(-7.0114028,0.05912116)"
       x1="33.253021"
       y1="85.372307"
       x2="35.849335"
       y2="85.372307" /><linearGradient
       inkscape:collect="always"
       xlink:href="#linearGradient210"
       id="linearGradient233"
       gradientUnits="userSpaceOnUse"
       gradientTransform="rotate(180,30.993714,85.407579)"
       x1="33.253021"
       y1="85.372307"
       x2="35.849335"
       y2="85.372307" /><linearGradient
       inkscape:collect="always"
       xlink:href="#linearGradient162"
       id="linearGradient238"
       gradientUnits="userSpaceOnUse"
       gradientTransform="translate(-7.0114028,0.05912116)"
       x1="33.253021"
       y1="85.372307"
       x2="35.849335"
       y2="85.372307" /><linearGradient
       inkscape:collect="always"
       xlink:href="#linearGradient210"
       id="linearGradient239"
       gradientUnits="userSpaceOnUse"
       gradientTransform="rotate(180,30.993714,85.407579)"
       x1="33.253021"
       y1="85.372307"
       x2="35.849335"
       y2="85.372307" /><linearGradient
       inkscape:collect="always"
       xlink:href="#linearGradient162"
       id="linearGradient243"
       gradientUnits="userSpaceOnUse"
       gradientTransform="translate(-7.0114028,0.05912116)"
       x1="33.253021"
       y1="85.372307"
       x2="35.849335"
       y2="85.372307" /><linearGradient
       inkscape:collect="always"
       xlink:href="#linearGradient210"
       id="linearGradient244"
       gradientUnits="userSpaceOnUse"
       gradientTransform="rotate(180,30.993714,85.407579)"
       x1="33.253021"
       y1="85.372307"
       x2="35.849335"
       y2="85.372307" /><linearGradient
       inkscape:collect="always"
       xlink:href="#linearGradient162"
       id="linearGradient248"
       gradientUnits="userSpaceOnUse"
       gradientTransform="translate(-7.0114028,0.05912116)"
       x1="33.253021"
       y1="85.372307"
       x2="35.849335"
       y2="85.372307" /><linearGradient
       inkscape:collect="always"
       xlink:href="#linearGradient210"
       id="linearGradient249"
       gradientUnits="userSpaceOnUse"
       gradientTransform="rotate(180,30.993714,85.407579)"
       x1="33.253021"
       y1="85.372307"
       x2="35.849335"
       y2="85.372307" /><linearGradient
       inkscape:collect="always"
       xlink:href="#linearGradient162"
       id="linearGradient253"
       gradientUnits="userSpaceOnUse"
       gradientTransform="translate(-7.0114028,0.05912116)"
       x1="33.253021"
       y1="85.372307"
       x2="35.849335"
       y2="85.372307" /><linearGradient
       inkscape:collect="always"
       xlink:href="#linearGradient210"
       id="linearGradient254"
       gradientUnits="userSpaceOnUse"
       gradientTransform="rotate(180,30.993714,85.407579)"
       x1="33.253021"
       y1="85.372307"
       x2="35.849335"
       y2="85.372307" /><linearGradient
       inkscape:collect="always"
       xlink:href="#linearGradient162"
       id="linearGradient258"
       gradientUnits="userSpaceOnUse"
       gradientTransform="translate(-7.0114028,0.05912116)"
       x1="33.253021"
       y1="85.372307"
       x2="35.849335"
       y2="85.372307" /><linearGradient
       inkscape:collect="always"
       xlink:href="#linearGradient210"
       id="linearGradient259"
       gradientUnits="userSpaceOnUse"
       gradientTransform="rotate(180,30.993714,85.407579)"
       x1="33.253021"
       y1="85.372307"
       x2="35.849335"
       y2="85.372307" /><linearGradient
       inkscape:collect="always"
       xlink:href="#linearGradient162"
       id="linearGradient263"
       gradientUnits="userSpaceOnUse"
       gradientTransform="translate(-7.0114028,0.05912116)"
       x1="33.253021"
       y1="85.372307"
       x2="35.849335"
       y2="85.372307" /><linearGradient
       inkscape:collect="always"
       xlink:href="#linearGradient210"
       id="linearGradient264"
       gradientUnits="userSpaceOnUse"
       gradientTransform="rotate(180,30.993714,85.407579)"
       x1="33.253021"
       y1="85.372307"
       x2="35.849335"
       y2="85.372307" /><linearGradient
       inkscape:collect="always"
       xlink:href="#linearGradient162"
       id="linearGradient268"
       gradientUnits="userSpaceOnUse"
       gradientTransform="rotate(-5.1492512,892.03509,-185.32574)"
       x1="33.253021"
       y1="85.372307"
       x2="35.849335"
       y2="85.372307" /><linearGradient
       inkscape:collect="always"
       xlink:href="#linearGradient210"
       id="linearGradient269"
       gradientUnits="userSpaceOnUse"
       gradientTransform="rotate(174.85075,46.67187,123.93794)"
       x1="33.253021"
       y1="85.372307"
       x2="35.849335"
       y2="85.372307" /><linearGradient
       inkscape:collect="always"
       xlink:href="#linearGradient162"
       id="linearGradient353"
       gradientUnits="userSpaceOnUse"
       gradientTransform="translate(-7.0114028,0.05912116)"
       x1="33.253021"
       y1="85.372307"
       x2="35.849335"
       y2="85.372307" /><linearGradient
       inkscape:collect="always"
       xlink:href="#linearGradient210"
       id="linearGradient354"
       gradientUnits="userSpaceOnUse"
       gradientTransform="rotate(180,30.993714,85.407579)"
       x1="33.253021"
       y1="85.372307"
       x2="35.849335"
       y2="85.372307" /><linearGradient
       inkscape:collect="always"
       xlink:href="#linearGradient162"
       id="linearGradient355"
       gradientUnits="userSpaceOnUse"
       gradientTransform="translate(-7.0114028,0.05912116)"
       x1="33.253021"
       y1="85.372307"
       x2="35.849335"
       y2="85.372307" /><linearGradient
       inkscape:collect="always"
       xlink:href="#linearGradient210"
       id="linearGradient356"
       gradientUnits="userSpaceOnUse"
       gradientTransform="rotate(180,30.993714,85.407579)"
       x1="33.253021"
       y1="85.372307"
       x2="35.849335"
       y2="85.372307" /><linearGradient
       inkscape:collect="always"
       xlink:href="#linearGradient162"
       id="linearGradient357"
       gradientUnits="userSpaceOnUse"
       gradientTransform="translate(-7.0114028,0.05912116)"
       x1="33.253021"
       y1="85.372307"
       x2="35.849335"
       y2="85.372307" /><linearGradient
       inkscape:collect="always"
       xlink:href="#linearGradient210"
       id="linearGradient358"
       gradientUnits="userSpaceOnUse"
       gradientTransform="rotate(180,30.993714,85.407579)"
       x1="33.253021"
       y1="85.372307"
       x2="35.849335"
       y2="85.372307" /><linearGradient
       inkscape:collect="always"
       xlink:href="#linearGradient162"
       id="linearGradient359"
       gradientUnits="userSpaceOnUse"
       gradientTransform="translate(-7.0114028,0.05912116)"
       x1="33.253021"
       y1="85.372307"
       x2="35.849335"
       y2="85.372307" /><linearGradient
       inkscape:collect="always"
       xlink:href="#linearGradient210"
       id="linearGradient360"
       gradientUnits="userSpaceOnUse"
       gradientTransform="rotate(180,30.993714,85.407579)"
       x1="33.253021"
       y1="85.372307"
       x2="35.849335"
       y2="85.372307" /><linearGradient
       inkscape:collect="always"
       xlink:href="#linearGradient162"
       id="linearGradient361"
       gradientUnits="userSpaceOnUse"
       gradientTransform="translate(-7.0114028,0.05912116)"
       x1="33.253021"
       y1="85.372307"
       x2="35.849335"
       y2="85.372307" /><linearGradient
       inkscape:collect="always"
       xlink:href="#linearGradient210"
       id="linearGradient362"
       gradientUnits="userSpaceOnUse"
       gradientTransform="rotate(180,30.993714,85.407579)"
       x1="33.253021"
       y1="85.372307"
       x2="35.849335"
       y2="85.372307" /><linearGradient
       inkscape:collect="always"
       xlink:href="#linearGradient162"
       id="linearGradient363"
       gradientUnits="userSpaceOnUse"
       gradientTransform="translate(-7.0114028,0.05912116)"
       x1="33.253021"
       y1="85.372307"
       x2="35.849335"
       y2="85.372307" /><linearGradient
       inkscape:collect="always"
       xlink:href="#linearGradient210"
       id="linearGradient364"
       gradientUnits="userSpaceOnUse"
       gradientTransform="rotate(180,30.993714,85.407579)"
       x1="33.253021"
       y1="85.372307"
       x2="35.849335"
       y2="85.372307" /><linearGradient
       inkscape:collect="always"
       xlink:href="#linearGradient162"
       id="linearGradient365"
       gradientUnits="userSpaceOnUse"
       gradientTransform="translate(-7.0114028,0.05912116)"
       x1="33.253021"
       y1="85.372307"
       x2="35.849335"
       y2="85.372307" /><linearGradient
       inkscape:collect="always"
       xlink:href="#linearGradient210"
       id="linearGradient366"
       gradientUnits="userSpaceOnUse"
       gradientTransform="rotate(180,30.993714,85.407579)"
       x1="33.253021"
       y1="85.372307"
       x2="35.849335"
       y2="85.372307" /><linearGradient
       inkscape:collect="always"
       xlink:href="#linearGradient162"
       id="linearGradient370"
       gradientUnits="userSpaceOnUse"
       gradientTransform="matrix(-0.99596428,-0.08975046,-0.08975046,0.99596428,84.538432,79.241453)"
       x1="33.253021"
       y1="85.372307"
       x2="35.849335"
       y2="85.372307" /><linearGradient
       inkscape:collect="always"
       xlink:href="#linearGradient210"
       id="linearGradient371"
       gradientUnits="userSpaceOnUse"
       gradientTransform="matrix(0.99596428,0.08975046,0.08975046,-0.99596428,0.4926279,243.11569)"
       x1="33.253021"
       y1="85.372307"
       x2="35.849335"
       y2="85.372307" /></defs><g
     inkscape:label="Layer 1"
     inkscape:groupmode="layer"
     id="layer1"
     transform="translate(-38.194685,-113.26081)"><g
       id="g371"><path
         style="fill:none;fill-rule:evenodd;stroke:#421f05;stroke-width:0.649651;stroke-linecap:butt;stroke-linejoin:miter;stroke-dasharray:none;stroke-opacity:1"
         d="m 46.444421,114.56548 -5.031599,46.16799"
         id="path225" /><path
         style="fill:none;fill-rule:evenodd;stroke:#421f05;stroke-width:0.649651;stroke-linecap:butt;stroke-linejoin:miter;stroke-dasharray:none;stroke-opacity:1"
         d="m 57.963063,114.56548 5.031599,46.16799"
         id="path227" /><path
         id="path264"
         style="fill:url(#linearGradient268);fill-rule:evenodd;stroke:none;stroke-width:0.264583px;stroke-linecap:butt;stroke-linejoin:miter;stroke-opacity:1"
         d="m 63.077287,158.06374 -2.149223,0.19585 0.07131,0.31626 c 0,0 0.840385,1.39026 1.216464,2.18178 0.141685,0.2982 0.304448,0.67714 0.467671,1.07384 h 0.906405 c -0.01214,-0.40407 -0.03014,-0.78565 -0.05736,-1.07074 -0.08856,-0.92764 -0.455269,-2.69699 -0.455269,-2.69699 z" /><path
         id="path265"
         style="fill:url(#linearGradient269);fill-rule:evenodd;stroke:none;stroke-width:0.264583px;stroke-linecap:butt;stroke-linejoin:miter;stroke-opacity:1"
         d="m 60.902743,158.29628 c 0,0 -0.0237,2.3943 0.07803,3.45974 0.0023,0.0239 0.0056,0.0505 0.0083,0.0754 h 1.467611 c -0.02701,-0.0557 -0.05693,-0.11656 -0.08062,-0.1664 -0.542601,-1.142 -1.473295,-3.36879 -1.473295,-3.36879 z" /><path
         id="path266"
         style="fill:#77490c;fill-opacity:1;fill-rule:evenodd;stroke:none;stroke-width:0.264583px;stroke-linecap:butt;stroke-linejoin:miter;stroke-opacity:1"
         d="m 61.068107,158.24254 -0.291972,0.0326 0.196371,0.54157 0.248563,0.57361 0.31316,0.74621 0.432014,0.97565 0.313676,0.68471 0.02325,0.0465 h 0.532784 l -0.0863,-0.22376 -0.454236,-1.01647 -0.4408,-0.86403 -0.58601,-1.11518 z" /><path
         id="path267"
         style="fill:#583609;fill-opacity:1;fill-rule:evenodd;stroke:none;stroke-width:0.264583px;stroke-linecap:butt;stroke-linejoin:miter;stroke-opacity:1"
         d="m 63.184257,158.05185 -0.265617,0.0207 0.118339,0.5333 0.112655,0.56483 0.129708,0.72295 0.101802,0.68833 0.04548,0.50591 0.02946,0.75551 h 0.264067 l -0.02119,-0.53072 -0.05943,-0.79995 -0.14056,-0.87901 -0.14521,-0.7922 z" /><path
         id="path268"
         style="fill:#583609;fill-opacity:1;fill-rule:evenodd;stroke:none;stroke-width:0.264583px;stroke-linecap:butt;stroke-linejoin:miter;stroke-opacity:1"
         d="m 61.030383,158.2446 -0.253731,0.0315 -0.01292,1.01389 0.01137,0.80305 0.01085,0.59893 0.02222,0.58498 0.04961,0.55449 h 0.267684 l -0.01757,-0.12868 -0.03772,-0.60823 -0.02119,-0.69608 -0.01344,-0.83148 v -0.34933 z" /><g
         id="g318"><g
           id="g232"
           transform="rotate(-5.1492512,407.87223,-242.09743)"><path
             style="fill:url(#linearGradient232);fill-rule:evenodd;stroke:none;stroke-width:0.264583px;stroke-linecap:butt;stroke-linejoin:miter;stroke-opacity:1"
             d="m 26.433848,82.339648 2.158075,-0.0022 c 0,0 0.206575,1.795499 0.211525,2.727348 0.0057,1.07027 -0.232644,3.452918 -0.232644,3.452918 0,0 -0.640461,-2.388407 -1.078377,-3.574493 -0.303522,-0.822084 -1.015723,-2.282127 -1.015723,-2.282127 z"
             id="path228"
             sodipodi:nodetypes="ccscscc" /><path
             style="fill:url(#linearGradient233);fill-rule:evenodd;stroke:none;stroke-width:0.264583px;stroke-linecap:butt;stroke-linejoin:miter;stroke-opacity:1"
             d="m 28.538808,88.54202 -2.141718,0.0022 c 0,0 -0.219562,-1.785573 -0.224512,-2.717422 -0.0057,-1.07027 0.232644,-3.452918 0.232644,-3.452918 0,0 0.727042,2.301826 1.164958,3.487912 0.303522,0.822084 0.993117,2.490409 0.993117,2.490409 z"
             id="path229"
             sodipodi:nodetypes="ccscscc" /><path
             style="fill:#77490c;fill-opacity:1;fill-rule:evenodd;stroke:none;stroke-width:0.264583px;stroke-linecap:butt;stroke-linejoin:miter;stroke-opacity:1"
             d="m 28.442237,88.543227 -0.318355,-0.820375 -0.324474,-0.869352 -0.336722,-0.869352 -0.25101,-0.710173 -0.342842,-1.010163 -0.244888,-0.771398 -0.19591,-0.593852 -0.146934,-0.55712 0.293865,-0.0061 0.165301,0.397944 0.483653,1.163217 0.361209,0.899961 0.361209,1.053018 0.195911,0.685686 0.208155,0.710176 0.226521,0.820375 0.116321,0.483654 z"
             id="path230" /><path
             style="fill:#583609;fill-opacity:1;fill-rule:evenodd;stroke:none;stroke-width:0.264583px;stroke-linecap:butt;stroke-linejoin:miter;stroke-opacity:1"
             d="m 28.69937,82.335319 0.09795,0.802008 0.07347,0.802008 0.06122,0.887719 -0.01225,0.802008 -0.04898,0.985673 -0.08571,0.936697 -0.0551,0.765272 -0.02755,0.232646 -0.263255,-0.0061 0.07041,-0.786701 0.107138,-1.349947 0.05204,-1.025467 v -0.508143 l -0.0398,-0.694869 -0.06428,-0.731602 -0.06122,-0.572427 -0.07041,-0.541813 z"
             id="path231" /><path
             style="fill:#583609;fill-opacity:1;fill-rule:evenodd;stroke:none;stroke-width:0.264583px;stroke-linecap:butt;stroke-linejoin:miter;stroke-opacity:1"
             d="m 26.281642,82.342797 -0.103897,1.008668 -0.06061,0.800872 -0.04329,0.597408 -0.0303,0.584423 v 0.640699 l 0.02598,0.593079 0.05195,0.59308 0.06061,0.62771 0.06927,0.510829 0.0313,0.246724 0.266313,-0.0016 -0.07347,-0.607626 -0.05204,-0.453043 -0.07959,-0.846395 -0.0398,-0.852516 0.01683,-0.609158 0.04133,-0.69487 0.06122,-0.829556 0.03136,-0.347747 0.08225,-0.969706 z"
             id="path232" /></g><g
           id="g238"
           transform="rotate(-5.1492512,476.55579,-245.27349)"><path
             style="fill:url(#linearGradient238);fill-rule:evenodd;stroke:none;stroke-width:0.264583px;stroke-linecap:butt;stroke-linejoin:miter;stroke-opacity:1"
             d="m 26.433848,82.339648 2.158075,-0.0022 c 0,0 0.206575,1.795499 0.211525,2.727348 0.0057,1.07027 -0.232644,3.452918 -0.232644,3.452918 0,0 -0.640461,-2.388407 -1.078377,-3.574493 -0.303522,-0.822084 -1.015723,-2.282127 -1.015723,-2.282127 z"
             id="path234"
             sodipodi:nodetypes="ccscscc" /><path
             style="fill:url(#linearGradient239);fill-rule:evenodd;stroke:none;stroke-width:0.264583px;stroke-linecap:butt;stroke-linejoin:miter;stroke-opacity:1"
             d="m 28.538808,88.54202 -2.141718,0.0022 c 0,0 -0.219562,-1.785573 -0.224512,-2.717422 -0.0057,-1.07027 0.232644,-3.452918 0.232644,-3.452918 0,0 0.727042,2.301826 1.164958,3.487912 0.303522,0.822084 0.993117,2.490409 0.993117,2.490409 z"
             id="path235"
             sodipodi:nodetypes="ccscscc" /><path
             style="fill:#77490c;fill-opacity:1;fill-rule:evenodd;stroke:none;stroke-width:0.264583px;stroke-linecap:butt;stroke-linejoin:miter;stroke-opacity:1"
             d="m 28.442237,88.543227 -0.318355,-0.820375 -0.324474,-0.869352 -0.336722,-0.869352 -0.25101,-0.710173 -0.342842,-1.010163 -0.244888,-0.771398 -0.19591,-0.593852 -0.146934,-0.55712 0.293865,-0.0061 0.165301,0.397944 0.483653,1.163217 0.361209,0.899961 0.361209,1.053018 0.195911,0.685686 0.208155,0.710176 0.226521,0.820375 0.116321,0.483654 z"
             id="path236" /><path
             style="fill:#583609;fill-opacity:1;fill-rule:evenodd;stroke:none;stroke-width:0.264583px;stroke-linecap:butt;stroke-linejoin:miter;stroke-opacity:1"
             d="m 28.69937,82.335319 0.09795,0.802008 0.07347,0.802008 0.06122,0.887719 -0.01225,0.802008 -0.04898,0.985673 -0.08571,0.936697 -0.0551,0.765272 -0.02755,0.232646 -0.263255,-0.0061 0.07041,-0.786701 0.107138,-1.349947 0.05204,-1.025467 v -0.508143 l -0.0398,-0.694869 -0.06428,-0.731602 -0.06122,-0.572427 -0.07041,-0.541813 z"
             id="path237" /><path
             style="fill:#583609;fill-opacity:1;fill-rule:evenodd;stroke:none;stroke-width:0.264583px;stroke-linecap:butt;stroke-linejoin:miter;stroke-opacity:1"
             d="m 26.281642,82.342797 -0.103897,1.008668 -0.06061,0.800872 -0.04329,0.597408 -0.0303,0.584423 v 0.640699 l 0.02598,0.593079 0.05195,0.59308 0.06061,0.62771 0.06927,0.510829 0.0313,0.246724 0.266313,-0.0016 -0.07347,-0.607626 -0.05204,-0.453043 -0.07959,-0.846395 -0.0398,-0.852516 0.01683,-0.609158 0.04133,-0.69487 0.06122,-0.829556 0.03136,-0.347747 0.08225,-0.969706 z"
             id="path238" /></g><g
           id="g243"
           transform="rotate(-5.1492512,545.23934,-248.44954)"><path
             style="fill:url(#linearGradient243);fill-rule:evenodd;stroke:none;stroke-width:0.264583px;stroke-linecap:butt;stroke-linejoin:miter;stroke-opacity:1"
             d="m 26.433848,82.339648 2.158075,-0.0022 c 0,0 0.206575,1.795499 0.211525,2.727348 0.0057,1.07027 -0.232644,3.452918 -0.232644,3.452918 0,0 -0.640461,-2.388407 -1.078377,-3.574493 -0.303522,-0.822084 -1.015723,-2.282127 -1.015723,-2.282127 z"
             id="path239"
             sodipodi:nodetypes="ccscscc" /><path
             style="fill:url(#linearGradient244);fill-rule:evenodd;stroke:none;stroke-width:0.264583px;stroke-linecap:butt;stroke-linejoin:miter;stroke-opacity:1"
             d="m 28.538808,88.54202 -2.141718,0.0022 c 0,0 -0.219562,-1.785573 -0.224512,-2.717422 -0.0057,-1.07027 0.232644,-3.452918 0.232644,-3.452918 0,0 0.727042,2.301826 1.164958,3.487912 0.303522,0.822084 0.993117,2.490409 0.993117,2.490409 z"
             id="path240"
             sodipodi:nodetypes="ccscscc" /><path
             style="fill:#77490c;fill-opacity:1;fill-rule:evenodd;stroke:none;stroke-width:0.264583px;stroke-linecap:butt;stroke-linejoin:miter;stroke-opacity:1"
             d="m 28.442237,88.543227 -0.318355,-0.820375 -0.324474,-0.869352 -0.336722,-0.869352 -0.25101,-0.710173 -0.342842,-1.010163 -0.244888,-0.771398 -0.19591,-0.593852 -0.146934,-0.55712 0.293865,-0.0061 0.165301,0.397944 0.483653,1.163217 0.361209,0.899961 0.361209,1.053018 0.195911,0.685686 0.208155,0.710176 0.226521,0.820375 0.116321,0.483654 z"
             id="path241" /><path
             style="fill:#583609;fill-opacity:1;fill-rule:evenodd;stroke:none;stroke-width:0.264583px;stroke-linecap:butt;stroke-linejoin:miter;stroke-opacity:1"
             d="m 28.69937,82.335319 0.09795,0.802008 0.07347,0.802008 0.06122,0.887719 -0.01225,0.802008 -0.04898,0.985673 -0.08571,0.936697 -0.0551,0.765272 -0.02755,0.232646 -0.263255,-0.0061 0.07041,-0.786701 0.107138,-1.349947 0.05204,-1.025467 v -0.508143 l -0.0398,-0.694869 -0.06428,-0.731602 -0.06122,-0.572427 -0.07041,-0.541813 z"
             id="path242" /><path
             style="fill:#583609;fill-opacity:1;fill-rule:evenodd;stroke:none;stroke-width:0.264583px;stroke-linecap:butt;stroke-linejoin:miter;stroke-opacity:1"
             d="m 26.281642,82.342797 -0.103897,1.008668 -0.06061,0.800872 -0.04329,0.597408 -0.0303,0.584423 v 0.640699 l 0.02598,0.593079 0.05195,0.59308 0.06061,0.62771 0.06927,0.510829 0.0313,0.246724 0.266313,-0.0016 -0.07347,-0.607626 -0.05204,-0.453043 -0.07959,-0.846395 -0.0398,-0.852516 0.01683,-0.609158 0.04133,-0.69487 0.06122,-0.829556 0.03136,-0.347747 0.08225,-0.969706 z"
             id="path243" /></g><g
           id="g248"
           transform="rotate(-5.1492512,613.55514,-251.64213)"><path
             style="fill:url(#linearGradient248);fill-rule:evenodd;stroke:none;stroke-width:0.264583px;stroke-linecap:butt;stroke-linejoin:miter;stroke-opacity:1"
             d="m 26.433848,82.339648 2.158075,-0.0022 c 0,0 0.206575,1.795499 0.211525,2.727348 0.0057,1.07027 -0.232644,3.452918 -0.232644,3.452918 0,0 -0.640461,-2.388407 -1.078377,-3.574493 -0.303522,-0.822084 -1.015723,-2.282127 -1.015723,-2.282127 z"
             id="path244"
             sodipodi:nodetypes="ccscscc" /><path
             style="fill:url(#linearGradient249);fill-rule:evenodd;stroke:none;stroke-width:0.264583px;stroke-linecap:butt;stroke-linejoin:miter;stroke-opacity:1"
             d="m 28.538808,88.54202 -2.141718,0.0022 c 0,0 -0.219562,-1.785573 -0.224512,-2.717422 -0.0057,-1.07027 0.232644,-3.452918 0.232644,-3.452918 0,0 0.727042,2.301826 1.164958,3.487912 0.303522,0.822084 0.993117,2.490409 0.993117,2.490409 z"
             id="path245"
             sodipodi:nodetypes="ccscscc" /><path
             style="fill:#77490c;fill-opacity:1;fill-rule:evenodd;stroke:none;stroke-width:0.264583px;stroke-linecap:butt;stroke-linejoin:miter;stroke-opacity:1"
             d="m 28.442237,88.543227 -0.318355,-0.820375 -0.324474,-0.869352 -0.336722,-0.869352 -0.25101,-0.710173 -0.342842,-1.010163 -0.244888,-0.771398 -0.19591,-0.593852 -0.146934,-0.55712 0.293865,-0.0061 0.165301,0.397944 0.483653,1.163217 0.361209,0.899961 0.361209,1.053018 0.195911,0.685686 0.208155,0.710176 0.226521,0.820375 0.116321,0.483654 z"
             id="path246" /><path
             style="fill:#583609;fill-opacity:1;fill-rule:evenodd;stroke:none;stroke-width:0.264583px;stroke-linecap:butt;stroke-linejoin:miter;stroke-opacity:1"
             d="m 28.69937,82.335319 0.09795,0.802008 0.07347,0.802008 0.06122,0.887719 -0.01225,0.802008 -0.04898,0.985673 -0.08571,0.936697 -0.0551,0.765272 -0.02755,0.232646 -0.263255,-0.0061 0.07041,-0.786701 0.107138,-1.349947 0.05204,-1.025467 v -0.508143 l -0.0398,-0.694869 -0.06428,-0.731602 -0.06122,-0.572427 -0.07041,-0.541813 z"
             id="path247" /><path
             style="fill:#583609;fill-opacity:1;fill-rule:evenodd;stroke:none;stroke-width:0.264583px;stroke-linecap:butt;stroke-linejoin:miter;stroke-opacity:1"
             d="m 26.281642,82.342797 -0.103897,1.008668 -0.06061,0.800872 -0.04329,0.597408 -0.0303,0.584423 v 0.640699 l 0.02598,0.593079 0.05195,0.59308 0.06061,0.62771 0.06927,0.510829 0.0313,0.246724 0.266313,-0.0016 -0.07347,-0.607626 -0.05204,-0.453043 -0.07959,-0.846395 -0.0398,-0.852516 0.01683,-0.609158 0.04133,-0.69487 0.06122,-0.829556 0.03136,-0.347747 0.08225,-0.969706 z"
             id="path248" /></g><g
           id="g253"
           transform="rotate(-5.1492512,681.8544,-254.46697)"><path
             style="fill:url(#linearGradient253);fill-rule:evenodd;stroke:none;stroke-width:0.264583px;stroke-linecap:butt;stroke-linejoin:miter;stroke-opacity:1"
             d="m 26.433848,82.339648 2.158075,-0.0022 c 0,0 0.206575,1.795499 0.211525,2.727348 0.0057,1.07027 -0.232644,3.452918 -0.232644,3.452918 0,0 -0.640461,-2.388407 -1.078377,-3.574493 -0.303522,-0.822084 -1.015723,-2.282127 -1.015723,-2.282127 z"
             id="path249"
             sodipodi:nodetypes="ccscscc" /><path
             style="fill:url(#linearGradient254);fill-rule:evenodd;stroke:none;stroke-width:0.264583px;stroke-linecap:butt;stroke-linejoin:miter;stroke-opacity:1"
             d="m 28.538808,88.54202 -2.141718,0.0022 c 0,0 -0.219562,-1.785573 -0.224512,-2.717422 -0.0057,-1.07027 0.232644,-3.452918 0.232644,-3.452918 0,0 0.727042,2.301826 1.164958,3.487912 0.303522,0.822084 0.993117,2.490409 0.993117,2.490409 z"
             id="path250"
             sodipodi:nodetypes="ccscscc" /><path
             style="fill:#77490c;fill-opacity:1;fill-rule:evenodd;stroke:none;stroke-width:0.264583px;stroke-linecap:butt;stroke-linejoin:miter;stroke-opacity:1"
             d="m 28.442237,88.543227 -0.318355,-0.820375 -0.324474,-0.869352 -0.336722,-0.869352 -0.25101,-0.710173 -0.342842,-1.010163 -0.244888,-0.771398 -0.19591,-0.593852 -0.146934,-0.55712 0.293865,-0.0061 0.165301,0.397944 0.483653,1.163217 0.361209,0.899961 0.361209,1.053018 0.195911,0.685686 0.208155,0.710176 0.226521,0.820375 0.116321,0.483654 z"
             id="path251" /><path
             style="fill:#583609;fill-opacity:1;fill-rule:evenodd;stroke:none;stroke-width:0.264583px;stroke-linecap:butt;stroke-linejoin:miter;stroke-opacity:1"
             d="m 28.69937,82.335319 0.09795,0.802008 0.07347,0.802008 0.06122,0.887719 -0.01225,0.802008 -0.04898,0.985673 -0.08571,0.936697 -0.0551,0.765272 -0.02755,0.232646 -0.263255,-0.0061 0.07041,-0.786701 0.107138,-1.349947 0.05204,-1.025467 v -0.508143 l -0.0398,-0.694869 -0.06428,-0.731602 -0.06122,-0.572427 -0.07041,-0.541813 z"
             id="path252" /><path
             style="fill:#583609;fill-opacity:1;fill-rule:evenodd;stroke:none;stroke-width:0.264583px;stroke-linecap:butt;stroke-linejoin:miter;stroke-opacity:1"
             d="m 26.281642,82.342797 -0.103897,1.008668 -0.06061,0.800872 -0.04329,0.597408 -0.0303,0.584423 v 0.640699 l 0.02598,0.593079 0.05195,0.59308 0.06061,0.62771 0.06927,0.510829 0.0313,0.246724 0.266313,-0.0016 -0.07347,-0.607626 -0.05204,-0.453043 -0.07959,-0.846395 -0.0398,-0.852516 0.01683,-0.609158 0.04133,-0.69487 0.06122,-0.829556 0.03136,-0.347747 0.08225,-0.969706 z"
             id="path253" /></g><g
           id="g258"
           transform="rotate(-5.1492512,750.52142,-257.27527)"><path
             style="fill:url(#linearGradient258);fill-rule:evenodd;stroke:none;stroke-width:0.264583px;stroke-linecap:butt;stroke-linejoin:miter;stroke-opacity:1"
             d="m 26.433848,82.339648 2.158075,-0.0022 c 0,0 0.206575,1.795499 0.211525,2.727348 0.0057,1.07027 -0.232644,3.452918 -0.232644,3.452918 0,0 -0.640461,-2.388407 -1.078377,-3.574493 -0.303522,-0.822084 -1.015723,-2.282127 -1.015723,-2.282127 z"
             id="path254"
             sodipodi:nodetypes="ccscscc" /><path
             style="fill:url(#linearGradient259);fill-rule:evenodd;stroke:none;stroke-width:0.264583px;stroke-linecap:butt;stroke-linejoin:miter;stroke-opacity:1"
             d="m 28.538808,88.54202 -2.141718,0.0022 c 0,0 -0.219562,-1.785573 -0.224512,-2.717422 -0.0057,-1.07027 0.232644,-3.452918 0.232644,-3.452918 0,0 0.727042,2.301826 1.164958,3.487912 0.303522,0.822084 0.993117,2.490409 0.993117,2.490409 z"
             id="path255"
             sodipodi:nodetypes="ccscscc" /><path
             style="fill:#77490c;fill-opacity:1;fill-rule:evenodd;stroke:none;stroke-width:0.264583px;stroke-linecap:butt;stroke-linejoin:miter;stroke-opacity:1"
             d="m 28.442237,88.543227 -0.318355,-0.820375 -0.324474,-0.869352 -0.336722,-0.869352 -0.25101,-0.710173 -0.342842,-1.010163 -0.244888,-0.771398 -0.19591,-0.593852 -0.146934,-0.55712 0.293865,-0.0061 0.165301,0.397944 0.483653,1.163217 0.361209,0.899961 0.361209,1.053018 0.195911,0.685686 0.208155,0.710176 0.226521,0.820375 0.116321,0.483654 z"
             id="path256" /><path
             style="fill:#583609;fill-opacity:1;fill-rule:evenodd;stroke:none;stroke-width:0.264583px;stroke-linecap:butt;stroke-linejoin:miter;stroke-opacity:1"
             d="m 28.69937,82.335319 0.09795,0.802008 0.07347,0.802008 0.06122,0.887719 -0.01225,0.802008 -0.04898,0.985673 -0.08571,0.936697 -0.0551,0.765272 -0.02755,0.232646 -0.263255,-0.0061 0.07041,-0.786701 0.107138,-1.349947 0.05204,-1.025467 v -0.508143 l -0.0398,-0.694869 -0.06428,-0.731602 -0.06122,-0.572427 -0.07041,-0.541813 z"
             id="path257" /><path
             style="fill:#583609;fill-opacity:1;fill-rule:evenodd;stroke:none;stroke-width:0.264583px;stroke-linecap:butt;stroke-linejoin:miter;stroke-opacity:1"
             d="m 26.281642,82.342797 -0.103897,1.008668 -0.06061,0.800872 -0.04329,0.597408 -0.0303,0.584423 v 0.640699 l 0.02598,0.593079 0.05195,0.59308 0.06061,0.62771 0.06927,0.510829 0.0313,0.246724 0.266313,-0.0016 -0.07347,-0.607626 -0.05204,-0.453043 -0.07959,-0.846395 -0.0398,-0.852516 0.01683,-0.609158 0.04133,-0.69487 0.06122,-0.829556 0.03136,-0.347747 0.08225,-0.969706 z"
             id="path258" /></g><g
           id="g263"
           transform="rotate(-5.1492512,819.20497,-260.45132)"><path
             style="fill:url(#linearGradient263);fill-rule:evenodd;stroke:none;stroke-width:0.264583px;stroke-linecap:butt;stroke-linejoin:miter;stroke-opacity:1"
             d="m 26.433848,82.339648 2.158075,-0.0022 c 0,0 0.206575,1.795499 0.211525,2.727348 0.0057,1.07027 -0.232644,3.452918 -0.232644,3.452918 0,0 -0.640461,-2.388407 -1.078377,-3.574493 -0.303522,-0.822084 -1.015723,-2.282127 -1.015723,-2.282127 z"
             id="path259"
             sodipodi:nodetypes="ccscscc" /><path
             style="fill:url(#linearGradient264);fill-rule:evenodd;stroke:none;stroke-width:0.264583px;stroke-linecap:butt;stroke-linejoin:miter;stroke-opacity:1"
             d="m 28.538808,88.54202 -2.141718,0.0022 c 0,0 -0.219562,-1.785573 -0.224512,-2.717422 -0.0057,-1.07027 0.232644,-3.452918 0.232644,-3.452918 0,0 0.727042,2.301826 1.164958,3.487912 0.303522,0.822084 0.993117,2.490409 0.993117,2.490409 z"
             id="path260"
             sodipodi:nodetypes="ccscscc" /><path
             style="fill:#77490c;fill-opacity:1;fill-rule:evenodd;stroke:none;stroke-width:0.264583px;stroke-linecap:butt;stroke-linejoin:miter;stroke-opacity:1"
             d="m 28.442237,88.543227 -0.318355,-0.820375 -0.324474,-0.869352 -0.336722,-0.869352 -0.25101,-0.710173 -0.342842,-1.010163 -0.244888,-0.771398 -0.19591,-0.593852 -0.146934,-0.55712 0.293865,-0.0061 0.165301,0.397944 0.483653,1.163217 0.361209,0.899961 0.361209,1.053018 0.195911,0.685686 0.208155,0.710176 0.226521,0.820375 0.116321,0.483654 z"
             id="path261" /><path
             style="fill:#583609;fill-opacity:1;fill-rule:evenodd;stroke:none;stroke-width:0.264583px;stroke-linecap:butt;stroke-linejoin:miter;stroke-opacity:1"
             d="m 28.69937,82.335319 0.09795,0.802008 0.07347,0.802008 0.06122,0.887719 -0.01225,0.802008 -0.04898,0.985673 -0.08571,0.936697 -0.0551,0.765272 -0.02755,0.232646 -0.263255,-0.0061 0.07041,-0.786701 0.107138,-1.349947 0.05204,-1.025467 v -0.508143 l -0.0398,-0.694869 -0.06428,-0.731602 -0.06122,-0.572427 -0.07041,-0.541813 z"
             id="path262" /><path
             style="fill:#583609;fill-opacity:1;fill-rule:evenodd;stroke:none;stroke-width:0.264583px;stroke-linecap:butt;stroke-linejoin:miter;stroke-opacity:1"
             d="m 26.281642,82.342797 -0.103897,1.008668 -0.06061,0.800872 -0.04329,0.597408 -0.0303,0.584423 v 0.640699 l 0.02598,0.593079 0.05195,0.59308 0.06061,0.62771 0.06927,0.510829 0.0313,0.246724 0.266313,-0.0016 -0.07347,-0.607626 -0.05204,-0.453043 -0.07959,-0.846395 -0.0398,-0.852516 0.01683,-0.609158 0.04133,-0.69487 0.06122,-0.829556 0.03136,-0.347747 0.08225,-0.969706 z"
             id="path263" /></g></g><g
         id="g322"
         transform="matrix(-0.99596428,-0.08975046,-0.08975046,0.99596428,81.429189,35.629682)"><path
           style="fill:url(#linearGradient353);fill-rule:evenodd;stroke:none;stroke-width:0.264583px;stroke-linecap:butt;stroke-linejoin:miter;stroke-opacity:1"
           d="m 26.433848,82.339648 2.158075,-0.0022 c 0,0 0.206575,1.795499 0.211525,2.727348 0.0057,1.07027 -0.232644,3.452918 -0.232644,3.452918 0,0 -0.640461,-2.388407 -1.078377,-3.574493 -0.303522,-0.822084 -1.015723,-2.282127 -1.015723,-2.282127 z"
           id="path318"
           sodipodi:nodetypes="ccscscc" /><path
           style="fill:url(#linearGradient354);fill-rule:evenodd;stroke:none;stroke-width:0.264583px;stroke-linecap:butt;stroke-linejoin:miter;stroke-opacity:1"
           d="m 28.538808,88.54202 -2.141718,0.0022 c 0,0 -0.219562,-1.785573 -0.224512,-2.717422 -0.0057,-1.07027 0.232644,-3.452918 0.232644,-3.452918 0,0 0.727042,2.301826 1.164958,3.487912 0.303522,0.822084 0.993117,2.490409 0.993117,2.490409 z"
           id="path319"
           sodipodi:nodetypes="ccscscc" /><path
           style="fill:#77490c;fill-opacity:1;fill-rule:evenodd;stroke:none;stroke-width:0.264583px;stroke-linecap:butt;stroke-linejoin:miter;stroke-opacity:1"
           d="m 28.442237,88.543227 -0.318355,-0.820375 -0.324474,-0.869352 -0.336722,-0.869352 -0.25101,-0.710173 -0.342842,-1.010163 -0.244888,-0.771398 -0.19591,-0.593852 -0.146934,-0.55712 0.293865,-0.0061 0.165301,0.397944 0.483653,1.163217 0.361209,0.899961 0.361209,1.053018 0.195911,0.685686 0.208155,0.710176 0.226521,0.820375 0.116321,0.483654 z"
           id="path320" /><path
           style="fill:#583609;fill-opacity:1;fill-rule:evenodd;stroke:none;stroke-width:0.264583px;stroke-linecap:butt;stroke-linejoin:miter;stroke-opacity:1"
           d="m 28.69937,82.335319 0.09795,0.802008 0.07347,0.802008 0.06122,0.887719 -0.01225,0.802008 -0.04898,0.985673 -0.08571,0.936697 -0.0551,0.765272 -0.02755,0.232646 -0.263255,-0.0061 0.07041,-0.786701 0.107138,-1.349947 0.05204,-1.025467 v -0.508143 l -0.0398,-0.694869 -0.06428,-0.731602 -0.06122,-0.572427 -0.07041,-0.541813 z"
           id="path321" /><path
           style="fill:#583609;fill-opacity:1;fill-rule:evenodd;stroke:none;stroke-width:0.264583px;stroke-linecap:butt;stroke-linejoin:miter;stroke-opacity:1"
           d="m 26.281642,82.342797 -0.103897,1.008668 -0.06061,0.800872 -0.04329,0.597408 -0.0303,0.584423 v 0.640699 l 0.02598,0.593079 0.05195,0.59308 0.06061,0.62771 0.06927,0.510829 0.0313,0.246724 0.266313,-0.0016 -0.07347,-0.607626 -0.05204,-0.453043 -0.07959,-0.846395 -0.0398,-0.852516 0.01683,-0.609158 0.04133,-0.69487 0.06122,-0.829556 0.03136,-0.347747 0.08225,-0.969706 z"
           id="path322" /></g><g
         id="g327"
         transform="matrix(-0.99596428,-0.08975046,-0.08975046,0.99596428,80.866949,41.781246)"><path
           style="fill:url(#linearGradient355);fill-rule:evenodd;stroke:none;stroke-width:0.264583px;stroke-linecap:butt;stroke-linejoin:miter;stroke-opacity:1"
           d="m 26.433848,82.339648 2.158075,-0.0022 c 0,0 0.206575,1.795499 0.211525,2.727348 0.0057,1.07027 -0.232644,3.452918 -0.232644,3.452918 0,0 -0.640461,-2.388407 -1.078377,-3.574493 -0.303522,-0.822084 -1.015723,-2.282127 -1.015723,-2.282127 z"
           id="path323"
           sodipodi:nodetypes="ccscscc" /><path
           style="fill:url(#linearGradient356);fill-rule:evenodd;stroke:none;stroke-width:0.264583px;stroke-linecap:butt;stroke-linejoin:miter;stroke-opacity:1"
           d="m 28.538808,88.54202 -2.141718,0.0022 c 0,0 -0.219562,-1.785573 -0.224512,-2.717422 -0.0057,-1.07027 0.232644,-3.452918 0.232644,-3.452918 0,0 0.727042,2.301826 1.164958,3.487912 0.303522,0.822084 0.993117,2.490409 0.993117,2.490409 z"
           id="path324"
           sodipodi:nodetypes="ccscscc" /><path
           style="fill:#77490c;fill-opacity:1;fill-rule:evenodd;stroke:none;stroke-width:0.264583px;stroke-linecap:butt;stroke-linejoin:miter;stroke-opacity:1"
           d="m 28.442237,88.543227 -0.318355,-0.820375 -0.324474,-0.869352 -0.336722,-0.869352 -0.25101,-0.710173 -0.342842,-1.010163 -0.244888,-0.771398 -0.19591,-0.593852 -0.146934,-0.55712 0.293865,-0.0061 0.165301,0.397944 0.483653,1.163217 0.361209,0.899961 0.361209,1.053018 0.195911,0.685686 0.208155,0.710176 0.226521,0.820375 0.116321,0.483654 z"
           id="path325" /><path
           style="fill:#583609;fill-opacity:1;fill-rule:evenodd;stroke:none;stroke-width:0.264583px;stroke-linecap:butt;stroke-linejoin:miter;stroke-opacity:1"
           d="m 28.69937,82.335319 0.09795,0.802008 0.07347,0.802008 0.06122,0.887719 -0.01225,0.802008 -0.04898,0.985673 -0.08571,0.936697 -0.0551,0.765272 -0.02755,0.232646 -0.263255,-0.0061 0.07041,-0.786701 0.107138,-1.349947 0.05204,-1.025467 v -0.508143 l -0.0398,-0.694869 -0.06428,-0.731602 -0.06122,-0.572427 -0.07041,-0.541813 z"
           id="path326" /><path
           style="fill:#583609;fill-opacity:1;fill-rule:evenodd;stroke:none;stroke-width:0.264583px;stroke-linecap:butt;stroke-linejoin:miter;stroke-opacity:1"
           d="m 26.281642,82.342797 -0.103897,1.008668 -0.06061,0.800872 -0.04329,0.597408 -0.0303,0.584423 v 0.640699 l 0.02598,0.593079 0.05195,0.59308 0.06061,0.62771 0.06927,0.510829 0.0313,0.246724 0.266313,-0.0016 -0.07347,-0.607626 -0.05204,-0.453043 -0.07959,-0.846395 -0.0398,-0.852516 0.01683,-0.609158 0.04133,-0.69487 0.06122,-0.829556 0.03136,-0.347747 0.08225,-0.969706 z"
           id="path327" /></g><g
         id="g332"
         transform="matrix(-0.99596428,-0.08975046,-0.08975046,0.99596428,80.304709,47.932808)"><path
           style="fill:url(#linearGradient357);fill-rule:evenodd;stroke:none;stroke-width:0.264583px;stroke-linecap:butt;stroke-linejoin:miter;stroke-opacity:1"
           d="m 26.433848,82.339648 2.158075,-0.0022 c 0,0 0.206575,1.795499 0.211525,2.727348 0.0057,1.07027 -0.232644,3.452918 -0.232644,3.452918 0,0 -0.640461,-2.388407 -1.078377,-3.574493 -0.303522,-0.822084 -1.015723,-2.282127 -1.015723,-2.282127 z"
           id="path328"
           sodipodi:nodetypes="ccscscc" /><path
           style="fill:url(#linearGradient358);fill-rule:evenodd;stroke:none;stroke-width:0.264583px;stroke-linecap:butt;stroke-linejoin:miter;stroke-opacity:1"
           d="m 28.538808,88.54202 -2.141718,0.0022 c 0,0 -0.219562,-1.785573 -0.224512,-2.717422 -0.0057,-1.07027 0.232644,-3.452918 0.232644,-3.452918 0,0 0.727042,2.301826 1.164958,3.487912 0.303522,0.822084 0.993117,2.490409 0.993117,2.490409 z"
           id="path329"
           sodipodi:nodetypes="ccscscc" /><path
           style="fill:#77490c;fill-opacity:1;fill-rule:evenodd;stroke:none;stroke-width:0.264583px;stroke-linecap:butt;stroke-linejoin:miter;stroke-opacity:1"
           d="m 28.442237,88.543227 -0.318355,-0.820375 -0.324474,-0.869352 -0.336722,-0.869352 -0.25101,-0.710173 -0.342842,-1.010163 -0.244888,-0.771398 -0.19591,-0.593852 -0.146934,-0.55712 0.293865,-0.0061 0.165301,0.397944 0.483653,1.163217 0.361209,0.899961 0.361209,1.053018 0.195911,0.685686 0.208155,0.710176 0.226521,0.820375 0.116321,0.483654 z"
           id="path330" /><path
           style="fill:#583609;fill-opacity:1;fill-rule:evenodd;stroke:none;stroke-width:0.264583px;stroke-linecap:butt;stroke-linejoin:miter;stroke-opacity:1"
           d="m 28.69937,82.335319 0.09795,0.802008 0.07347,0.802008 0.06122,0.887719 -0.01225,0.802008 -0.04898,0.985673 -0.08571,0.936697 -0.0551,0.765272 -0.02755,0.232646 -0.263255,-0.0061 0.07041,-0.786701 0.107138,-1.349947 0.05204,-1.025467 v -0.508143 l -0.0398,-0.694869 -0.06428,-0.731602 -0.06122,-0.572427 -0.07041,-0.541813 z"
           id="path331" /><path
           style="fill:#583609;fill-opacity:1;fill-rule:evenodd;stroke:none;stroke-width:0.264583px;stroke-linecap:butt;stroke-linejoin:miter;stroke-opacity:1"
           d="m 26.281642,82.342797 -0.103897,1.008668 -0.06061,0.800872 -0.04329,0.597408 -0.0303,0.584423 v 0.640699 l 0.02598,0.593079 0.05195,0.59308 0.06061,0.62771 0.06927,0.510829 0.0313,0.246724 0.266313,-0.0016 -0.07347,-0.607626 -0.05204,-0.453043 -0.07959,-0.846395 -0.0398,-0.852516 0.01683,-0.609158 0.04133,-0.69487 0.06122,-0.829556 0.03136,-0.347747 0.08225,-0.969706 z"
           id="path332" /></g><g
         id="g337"
         transform="matrix(-0.99596428,-0.08975046,-0.08975046,0.99596428,79.74247,54.051298)"><path
           style="fill:url(#linearGradient359);fill-rule:evenodd;stroke:none;stroke-width:0.264583px;stroke-linecap:butt;stroke-linejoin:miter;stroke-opacity:1"
           d="m 26.433848,82.339648 2.158075,-0.0022 c 0,0 0.206575,1.795499 0.211525,2.727348 0.0057,1.07027 -0.232644,3.452918 -0.232644,3.452918 0,0 -0.640461,-2.388407 -1.078377,-3.574493 -0.303522,-0.822084 -1.015723,-2.282127 -1.015723,-2.282127 z"
           id="path333"
           sodipodi:nodetypes="ccscscc" /><path
           style="fill:url(#linearGradient360);fill-rule:evenodd;stroke:none;stroke-width:0.264583px;stroke-linecap:butt;stroke-linejoin:miter;stroke-opacity:1"
           d="m 28.538808,88.54202 -2.141718,0.0022 c 0,0 -0.219562,-1.785573 -0.224512,-2.717422 -0.0057,-1.07027 0.232644,-3.452918 0.232644,-3.452918 0,0 0.727042,2.301826 1.164958,3.487912 0.303522,0.822084 0.993117,2.490409 0.993117,2.490409 z"
           id="path334"
           sodipodi:nodetypes="ccscscc" /><path
           style="fill:#77490c;fill-opacity:1;fill-rule:evenodd;stroke:none;stroke-width:0.264583px;stroke-linecap:butt;stroke-linejoin:miter;stroke-opacity:1"
           d="m 28.442237,88.543227 -0.318355,-0.820375 -0.324474,-0.869352 -0.336722,-0.869352 -0.25101,-0.710173 -0.342842,-1.010163 -0.244888,-0.771398 -0.19591,-0.593852 -0.146934,-0.55712 0.293865,-0.0061 0.165301,0.397944 0.483653,1.163217 0.361209,0.899961 0.361209,1.053018 0.195911,0.685686 0.208155,0.710176 0.226521,0.820375 0.116321,0.483654 z"
           id="path335" /><path
           style="fill:#583609;fill-opacity:1;fill-rule:evenodd;stroke:none;stroke-width:0.264583px;stroke-linecap:butt;stroke-linejoin:miter;stroke-opacity:1"
           d="m 28.69937,82.335319 0.09795,0.802008 0.07347,0.802008 0.06122,0.887719 -0.01225,0.802008 -0.04898,0.985673 -0.08571,0.936697 -0.0551,0.765272 -0.02755,0.232646 -0.263255,-0.0061 0.07041,-0.786701 0.107138,-1.349947 0.05204,-1.025467 v -0.508143 l -0.0398,-0.694869 -0.06428,-0.731602 -0.06122,-0.572427 -0.07041,-0.541813 z"
           id="path336" /><path
           style="fill:#583609;fill-opacity:1;fill-rule:evenodd;stroke:none;stroke-width:0.264583px;stroke-linecap:butt;stroke-linejoin:miter;stroke-opacity:1"
           d="m 26.281642,82.342797 -0.103897,1.008668 -0.06061,0.800872 -0.04329,0.597408 -0.0303,0.584423 v 0.640699 l 0.02598,0.593079 0.05195,0.59308 0.06061,0.62771 0.06927,0.510829 0.0313,0.246724 0.266313,-0.0016 -0.07347,-0.607626 -0.05204,-0.453043 -0.07959,-0.846395 -0.0398,-0.852516 0.01683,-0.609158 0.04133,-0.69487 0.06122,-0.829556 0.03136,-0.347747 0.08225,-0.969706 z"
           id="path337" /></g><g
         id="g342"
         transform="matrix(-0.99596428,-0.08975046,-0.08975046,0.99596428,79.213303,60.169787)"><path
           style="fill:url(#linearGradient361);fill-rule:evenodd;stroke:none;stroke-width:0.264583px;stroke-linecap:butt;stroke-linejoin:miter;stroke-opacity:1"
           d="m 26.433848,82.339648 2.158075,-0.0022 c 0,0 0.206575,1.795499 0.211525,2.727348 0.0057,1.07027 -0.232644,3.452918 -0.232644,3.452918 0,0 -0.640461,-2.388407 -1.078377,-3.574493 -0.303522,-0.822084 -1.015723,-2.282127 -1.015723,-2.282127 z"
           id="path338"
           sodipodi:nodetypes="ccscscc" /><path
           style="fill:url(#linearGradient362);fill-rule:evenodd;stroke:none;stroke-width:0.264583px;stroke-linecap:butt;stroke-linejoin:miter;stroke-opacity:1"
           d="m 28.538808,88.54202 -2.141718,0.0022 c 0,0 -0.219562,-1.785573 -0.224512,-2.717422 -0.0057,-1.07027 0.232644,-3.452918 0.232644,-3.452918 0,0 0.727042,2.301826 1.164958,3.487912 0.303522,0.822084 0.993117,2.490409 0.993117,2.490409 z"
           id="path339"
           sodipodi:nodetypes="ccscscc" /><path
           style="fill:#77490c;fill-opacity:1;fill-rule:evenodd;stroke:none;stroke-width:0.264583px;stroke-linecap:butt;stroke-linejoin:miter;stroke-opacity:1"
           d="m 28.442237,88.543227 -0.318355,-0.820375 -0.324474,-0.869352 -0.336722,-0.869352 -0.25101,-0.710173 -0.342842,-1.010163 -0.244888,-0.771398 -0.19591,-0.593852 -0.146934,-0.55712 0.293865,-0.0061 0.165301,0.397944 0.483653,1.163217 0.361209,0.899961 0.361209,1.053018 0.195911,0.685686 0.208155,0.710176 0.226521,0.820375 0.116321,0.483654 z"
           id="path340" /><path
           style="fill:#583609;fill-opacity:1;fill-rule:evenodd;stroke:none;stroke-width:0.264583px;stroke-linecap:butt;stroke-linejoin:miter;stroke-opacity:1"
           d="m 28.69937,82.335319 0.09795,0.802008 0.07347,0.802008 0.06122,0.887719 -0.01225,0.802008 -0.04898,0.985673 -0.08571,0.936697 -0.0551,0.765272 -0.02755,0.232646 -0.263255,-0.0061 0.07041,-0.786701 0.107138,-1.349947 0.05204,-1.025467 v -0.508143 l -0.0398,-0.694869 -0.06428,-0.731602 -0.06122,-0.572427 -0.07041,-0.541813 z"
           id="path341" /><path
           style="fill:#583609;fill-opacity:1;fill-rule:evenodd;stroke:none;stroke-width:0.264583px;stroke-linecap:butt;stroke-linejoin:miter;stroke-opacity:1"
           d="m 26.281642,82.342797 -0.103897,1.008668 -0.06061,0.800872 -0.04329,0.597408 -0.0303,0.584423 v 0.640699 l 0.02598,0.593079 0.05195,0.59308 0.06061,0.62771 0.06927,0.510829 0.0313,0.246724 0.266313,-0.0016 -0.07347,-0.607626 -0.05204,-0.453043 -0.07959,-0.846395 -0.0398,-0.852516 0.01683,-0.609158 0.04133,-0.69487 0.06122,-0.829556 0.03136,-0.347747 0.08225,-0.969706 z"
           id="path342" /></g><g
         id="g347"
         transform="matrix(-0.99596428,-0.08975046,-0.08975046,0.99596428,78.684136,66.32135)"><path
           style="fill:url(#linearGradient363);fill-rule:evenodd;stroke:none;stroke-width:0.264583px;stroke-linecap:butt;stroke-linejoin:miter;stroke-opacity:1"
           d="m 26.433848,82.339648 2.158075,-0.0022 c 0,0 0.206575,1.795499 0.211525,2.727348 0.0057,1.07027 -0.232644,3.452918 -0.232644,3.452918 0,0 -0.640461,-2.388407 -1.078377,-3.574493 -0.303522,-0.822084 -1.015723,-2.282127 -1.015723,-2.282127 z"
           id="path343"
           sodipodi:nodetypes="ccscscc" /><path
           style="fill:url(#linearGradient364);fill-rule:evenodd;stroke:none;stroke-width:0.264583px;stroke-linecap:butt;stroke-linejoin:miter;stroke-opacity:1"
           d="m 28.538808,88.54202 -2.141718,0.0022 c 0,0 -0.219562,-1.785573 -0.224512,-2.717422 -0.0057,-1.07027 0.232644,-3.452918 0.232644,-3.452918 0,0 0.727042,2.301826 1.164958,3.487912 0.303522,0.822084 0.993117,2.490409 0.993117,2.490409 z"
           id="path344"
           sodipodi:nodetypes="ccscscc" /><path
           style="fill:#77490c;fill-opacity:1;fill-rule:evenodd;stroke:none;stroke-width:0.264583px;stroke-linecap:butt;stroke-linejoin:miter;stroke-opacity:1"
           d="m 28.442237,88.543227 -0.318355,-0.820375 -0.324474,-0.869352 -0.336722,-0.869352 -0.25101,-0.710173 -0.342842,-1.010163 -0.244888,-0.771398 -0.19591,-0.593852 -0.146934,-0.55712 0.293865,-0.0061 0.165301,0.397944 0.483653,1.163217 0.361209,0.899961 0.361209,1.053018 0.195911,0.685686 0.208155,0.710176 0.226521,0.820375 0.116321,0.483654 z"
           id="path345" /><path
           style="fill:#583609;fill-opacity:1;fill-rule:evenodd;stroke:none;stroke-width:0.264583px;stroke-linecap:butt;stroke-linejoin:miter;stroke-opacity:1"
           d="m 28.69937,82.335319 0.09795,0.802008 0.07347,0.802008 0.06122,0.887719 -0.01225,0.802008 -0.04898,0.985673 -0.08571,0.936697 -0.0551,0.765272 -0.02755,0.232646 -0.263255,-0.0061 0.07041,-0.786701 0.107138,-1.349947 0.05204,-1.025467 v -0.508143 l -0.0398,-0.694869 -0.06428,-0.731602 -0.06122,-0.572427 -0.07041,-0.541813 z"
           id="path346" /><path
           style="fill:#583609;fill-opacity:1;fill-rule:evenodd;stroke:none;stroke-width:0.264583px;stroke-linecap:butt;stroke-linejoin:miter;stroke-opacity:1"
           d="m 26.281642,82.342797 -0.103897,1.008668 -0.06061,0.800872 -0.04329,0.597408 -0.0303,0.584423 v 0.640699 l 0.02598,0.593079 0.05195,0.59308 0.06061,0.62771 0.06927,0.510829 0.0313,0.246724 0.266313,-0.0016 -0.07347,-0.607626 -0.05204,-0.453043 -0.07959,-0.846395 -0.0398,-0.852516 0.01683,-0.609158 0.04133,-0.69487 0.06122,-0.829556 0.03136,-0.347747 0.08225,-0.969706 z"
           id="path347" /></g><g
         id="g352"
         transform="matrix(-0.99596428,-0.08975046,-0.08975046,0.99596428,78.121897,72.472912)"><path
           style="fill:url(#linearGradient365);fill-rule:evenodd;stroke:none;stroke-width:0.264583px;stroke-linecap:butt;stroke-linejoin:miter;stroke-opacity:1"
           d="m 26.433848,82.339648 2.158075,-0.0022 c 0,0 0.206575,1.795499 0.211525,2.727348 0.0057,1.07027 -0.232644,3.452918 -0.232644,3.452918 0,0 -0.640461,-2.388407 -1.078377,-3.574493 -0.303522,-0.822084 -1.015723,-2.282127 -1.015723,-2.282127 z"
           id="path348"
           sodipodi:nodetypes="ccscscc" /><path
           style="fill:url(#linearGradient366);fill-rule:evenodd;stroke:none;stroke-width:0.264583px;stroke-linecap:butt;stroke-linejoin:miter;stroke-opacity:1"
           d="m 28.538808,88.54202 -2.141718,0.0022 c 0,0 -0.219562,-1.785573 -0.224512,-2.717422 -0.0057,-1.07027 0.232644,-3.452918 0.232644,-3.452918 0,0 0.727042,2.301826 1.164958,3.487912 0.303522,0.822084 0.993117,2.490409 0.993117,2.490409 z"
           id="path349"
           sodipodi:nodetypes="ccscscc" /><path
           style="fill:#77490c;fill-opacity:1;fill-rule:evenodd;stroke:none;stroke-width:0.264583px;stroke-linecap:butt;stroke-linejoin:miter;stroke-opacity:1"
           d="m 28.442237,88.543227 -0.318355,-0.820375 -0.324474,-0.869352 -0.336722,-0.869352 -0.25101,-0.710173 -0.342842,-1.010163 -0.244888,-0.771398 -0.19591,-0.593852 -0.146934,-0.55712 0.293865,-0.0061 0.165301,0.397944 0.483653,1.163217 0.361209,0.899961 0.361209,1.053018 0.195911,0.685686 0.208155,0.710176 0.226521,0.820375 0.116321,0.483654 z"
           id="path350" /><path
           style="fill:#583609;fill-opacity:1;fill-rule:evenodd;stroke:none;stroke-width:0.264583px;stroke-linecap:butt;stroke-linejoin:miter;stroke-opacity:1"
           d="m 28.69937,82.335319 0.09795,0.802008 0.07347,0.802008 0.06122,0.887719 -0.01225,0.802008 -0.04898,0.985673 -0.08571,0.936697 -0.0551,0.765272 -0.02755,0.232646 -0.263255,-0.0061 0.07041,-0.786701 0.107138,-1.349947 0.05204,-1.025467 v -0.508143 l -0.0398,-0.694869 -0.06428,-0.731602 -0.06122,-0.572427 -0.07041,-0.541813 z"
           id="path351" /><path
           style="fill:#583609;fill-opacity:1;fill-rule:evenodd;stroke:none;stroke-width:0.264583px;stroke-linecap:butt;stroke-linejoin:miter;stroke-opacity:1"
           d="m 26.281642,82.342797 -0.103897,1.008668 -0.06061,0.800872 -0.04329,0.597408 -0.0303,0.584423 v 0.640699 l 0.02598,0.593079 0.05195,0.59308 0.06061,0.62771 0.06927,0.510829 0.0313,0.246724 0.266313,-0.0016 -0.07347,-0.607626 -0.05204,-0.453043 -0.07959,-0.846395 -0.0398,-0.852516 0.01683,-0.609158 0.04133,-0.69487 0.06122,-0.829556 0.03136,-0.347747 0.08225,-0.969706 z"
           id="path352" /></g><path
         style="fill:url(#linearGradient224);fill-rule:evenodd;stroke:#421f05;stroke-width:0.17275px;stroke-linecap:butt;stroke-linejoin:miter;stroke-opacity:1"
         d="M 43.107759,113.34718 H 61.47075 v 2.03794 H 43.107759 Z"
         id="path224" /><path
         id="path366"
         style="fill:url(#linearGradient370);fill-rule:evenodd;stroke:none;stroke-width:0.264583px;stroke-linecap:butt;stroke-linejoin:miter;stroke-opacity:1"
         d="m 41.694096,157.99242 c 0,0 -0.366706,1.76936 -0.45527,2.697 -0.01793,0.18781 -0.03089,0.42436 -0.04186,0.67437 h 1.057299 c 0.105099,-0.24678 0.208476,-0.48217 0.301274,-0.67747 0.376079,-0.79153 1.216463,-2.18178 1.216463,-2.18178 l 0.07131,-0.31626 z" /><path
         id="path367"
         style="fill:url(#linearGradient371);fill-rule:evenodd;stroke:none;stroke-width:0.264583px;stroke-linecap:butt;stroke-linejoin:miter;stroke-opacity:1"
         d="m 43.86864,158.22497 c 0,0 -0.828369,1.98023 -1.377694,3.1626 h 1.3224 c 0.07487,-1.1564 0.05529,-3.1626 0.05529,-3.1626 z" /><path
         id="path368"
         style="fill:#77490c;fill-opacity:1;fill-rule:evenodd;stroke:none;stroke-width:0.264583px;stroke-linecap:butt;stroke-linejoin:miter;stroke-opacity:1"
         d="m 43.703276,158.17122 -0.200505,0.38138 -0.586011,1.11517 -0.440283,0.86403 -0.382406,0.85577 h 0.552422 l 0.158646,-0.34675 0.432532,-0.97514 0.313159,-0.74621 0.248047,-0.57412 0.19637,-0.54157 z" /><path
         id="path369"
         style="fill:#583609;fill-opacity:1;fill-rule:evenodd;stroke:none;stroke-width:0.264583px;stroke-linecap:butt;stroke-linejoin:miter;stroke-opacity:1"
         d="m 41.587642,157.98054 -0.169498,0.79013 -0.145211,0.7922 -0.14056,0.8785 -0.05994,0.79995 -0.0078,0.19275 h 0.26355 l 0.01654,-0.41754 0.04547,-0.50591 0.101803,-0.68833 0.129708,-0.72296 0.112654,-0.56482 0.118856,-0.5333 z" /><path
         id="path370"
         style="fill:#583609;fill-opacity:1;fill-rule:evenodd;stroke:none;stroke-width:0.264583px;stroke-linecap:butt;stroke-linejoin:miter;stroke-opacity:1"
         d="m 43.740999,158.17329 -0.0052,0.97307 v 0.34933 l -0.01344,0.83147 -0.02119,0.69609 -0.02429,0.38757 h 0.267683 l 0.0186,-0.20516 0.02274,-0.58497 0.01034,-0.59893 0.01137,-0.80305 -0.01292,-1.0139 z" /><path
         style="display:inline;fill:url(#linearGradient217);fill-rule:evenodd;stroke:#421f05;stroke-width:0.237949px;stroke-linecap:butt;stroke-linejoin:miter;stroke-opacity:1"
         d="M 38.313659,160.0596 H 66.26485 v 2.54018 H 38.313659 Z"
         id="path215" /></g></g></svg>
