<?xml version="1.0" encoding="UTF-8" standalone="no"?>
<!-- Created with Inkscape (http://www.inkscape.org/) -->

<svg
   width="68.895912mm"
   height="40.883476mm"
   viewBox="0 0 68.895912 40.883476"
   version="1.1"
   id="svg1"
   inkscape:version="1.3.2 (091e20ef0f, 2023-11-25)"
   sodipodi:docname="StormCloud.svg"
   xmlns:inkscape="http://www.inkscape.org/namespaces/inkscape"
   xmlns:sodipodi="http://sodipodi.sourceforge.net/DTD/sodipodi-0.dtd"
   xmlns:xlink="http://www.w3.org/1999/xlink"
   xmlns="http://www.w3.org/2000/svg"
   xmlns:svg="http://www.w3.org/2000/svg">
  <sodipodi:namedview
     id="namedview1"
     pagecolor="#505050"
     bordercolor="#eeeeee"
     borderopacity="1"
     inkscape:showpageshadow="0"
     inkscape:pageopacity="0"
     inkscape:pagecheckerboard="0"
     inkscape:deskcolor="#d1d1d1"
     inkscape:document-units="mm"
     inkscape:zoom="1.3505331"
     inkscape:cx="115.13972"
     inkscape:cy="119.21218"
     inkscape:window-width="1366"
     inkscape:window-height="706"
     inkscape:window-x="-8"
     inkscape:window-y="-8"
     inkscape:window-maximized="1"
     inkscape:current-layer="layer1" />
  <defs
     id="defs1">
    <radialGradient
       inkscape:collect="always"
       xlink:href="#linearGradient537"
       id="radialGradient538"
       cx="180.19066"
       cy="75.507919"
       fx="180.19066"
       fy="75.507919"
       r="36.744488"
       gradientTransform="matrix(1,0,0,0.59340932,0,30.700815)"
       gradientUnits="userSpaceOnUse" />
    <linearGradient
       id="linearGradient537"
       inkscape:collect="always">
      <stop
         style="stop-color:#5e495e;stop-opacity:1;"
         offset="0.72580647"
         id="stop537" />
      <stop
         style="stop-color:#1f1b1f;stop-opacity:1;"
         offset="1"
         id="stop538" />
    </linearGradient>
    <inkscape:path-effect
       effect="bspline"
       id="path-effect494"
       is_visible="true"
       lpeversion="1.3"
       weight="33.333333"
       steps="2"
       helper_size="0"
       apply_no_weight="true"
       apply_with_weight="true"
       only_selected="false"
       uniform="false" />
    <inkscape:path-effect
       effect="bspline"
       id="path-effect495"
       is_visible="true"
       lpeversion="1.3"
       weight="33.333333"
       steps="2"
       helper_size="0"
       apply_no_weight="true"
       apply_with_weight="true"
       only_selected="false"
       uniform="false" />
    <inkscape:path-effect
       effect="bspline"
       id="path-effect496"
       is_visible="true"
       lpeversion="1.3"
       weight="33.333333"
       steps="2"
       helper_size="0"
       apply_no_weight="true"
       apply_with_weight="true"
       only_selected="false"
       uniform="false" />
    <inkscape:path-effect
       effect="bspline"
       id="path-effect497"
       is_visible="true"
       lpeversion="1.3"
       weight="33.333333"
       steps="2"
       helper_size="0"
       apply_no_weight="true"
       apply_with_weight="true"
       only_selected="false"
       uniform="false" />
    <inkscape:path-effect
       effect="bspline"
       id="path-effect498"
       is_visible="true"
       lpeversion="1.3"
       weight="33.333333"
       steps="2"
       helper_size="0"
       apply_no_weight="true"
       apply_with_weight="true"
       only_selected="false"
       uniform="false" />
    <inkscape:path-effect
       effect="bspline"
       id="path-effect503"
       is_visible="true"
       lpeversion="1.3"
       weight="33.333333"
       steps="2"
       helper_size="0"
       apply_no_weight="true"
       apply_with_weight="true"
       only_selected="false"
       uniform="false" />
    <inkscape:path-effect
       effect="bspline"
       id="path-effect504"
       is_visible="true"
       lpeversion="1.3"
       weight="33.333333"
       steps="2"
       helper_size="0"
       apply_no_weight="true"
       apply_with_weight="true"
       only_selected="false"
       uniform="false" />
    <inkscape:path-effect
       effect="bspline"
       id="path-effect516"
       is_visible="true"
       lpeversion="1.3"
       weight="33.333333"
       steps="2"
       helper_size="0"
       apply_no_weight="true"
       apply_with_weight="true"
       only_selected="false"
       uniform="false" />
    <inkscape:path-effect
       effect="bspline"
       id="path-effect517"
       is_visible="true"
       lpeversion="1.3"
       weight="33.333333"
       steps="2"
       helper_size="0"
       apply_no_weight="true"
       apply_with_weight="true"
       only_selected="false"
       uniform="false" />
    <inkscape:path-effect
       effect="bspline"
       id="path-effect518"
       is_visible="true"
       lpeversion="1.3"
       weight="33.333333"
       steps="2"
       helper_size="0"
       apply_no_weight="true"
       apply_with_weight="true"
       only_selected="false"
       uniform="false" />
    <inkscape:path-effect
       effect="bspline"
       id="path-effect519"
       is_visible="true"
       lpeversion="1.3"
       weight="33.333333"
       steps="2"
       helper_size="0"
       apply_no_weight="true"
       apply_with_weight="true"
       only_selected="false"
       uniform="false" />
    <inkscape:path-effect
       effect="bspline"
       id="path-effect520"
       is_visible="true"
       lpeversion="1.3"
       weight="33.333333"
       steps="2"
       helper_size="0"
       apply_no_weight="true"
       apply_with_weight="true"
       only_selected="false"
       uniform="false" />
    <inkscape:path-effect
       effect="bspline"
       id="path-effect521"
       is_visible="true"
       lpeversion="1.3"
       weight="33.333333"
       steps="2"
       helper_size="0"
       apply_no_weight="true"
       apply_with_weight="true"
       only_selected="false"
       uniform="false" />
    <inkscape:path-effect
       effect="bspline"
       id="path-effect522"
       is_visible="true"
       lpeversion="1.3"
       weight="33.333333"
       steps="2"
       helper_size="0"
       apply_no_weight="true"
       apply_with_weight="true"
       only_selected="false"
       uniform="false" />
    <inkscape:path-effect
       effect="bspline"
       id="path-effect523"
       is_visible="true"
       lpeversion="1.3"
       weight="33.333333"
       steps="2"
       helper_size="0"
       apply_no_weight="true"
       apply_with_weight="true"
       only_selected="false"
       uniform="false" />
    <inkscape:path-effect
       effect="bspline"
       id="path-effect524"
       is_visible="true"
       lpeversion="1.3"
       weight="33.333333"
       steps="2"
       helper_size="0"
       apply_no_weight="true"
       apply_with_weight="true"
       only_selected="false"
       uniform="false" />
    <inkscape:path-effect
       effect="bspline"
       id="path-effect525"
       is_visible="true"
       lpeversion="1.3"
       weight="33.333333"
       steps="2"
       helper_size="0"
       apply_no_weight="true"
       apply_with_weight="true"
       only_selected="false"
       uniform="false" />
    <inkscape:path-effect
       effect="bspline"
       id="path-effect526"
       is_visible="true"
       lpeversion="1.3"
       weight="33.333333"
       steps="2"
       helper_size="0"
       apply_no_weight="true"
       apply_with_weight="true"
       only_selected="false"
       uniform="false" />
    <inkscape:path-effect
       effect="bspline"
       id="path-effect527"
       is_visible="true"
       lpeversion="1.3"
       weight="33.333333"
       steps="2"
       helper_size="0"
       apply_no_weight="true"
       apply_with_weight="true"
       only_selected="false"
       uniform="false" />
  </defs>
  <g
     inkscape:label="Layer 1"
     inkscape:groupmode="layer"
     id="layer1"
     transform="translate(-62.706258,-99.483332)">
    <g
       id="g4">
      <path
         style="fill:url(#radialGradient538);fill-opacity:1;fill-rule:evenodd;stroke:#101010;stroke-width:0.508;stroke-linecap:butt;stroke-linejoin:miter;stroke-dasharray:none;stroke-opacity:1"
         d="m 204.50039,91.454093 c 1.01444,-0.282712 2.47789,-0.349232 3.77505,-0.731732 1.29716,-0.3825 2.42798,-1.080948 3.12645,-1.862573 0.69847,-0.781624 0.96455,-1.64637 1.0477,-2.444624 0.0831,-0.798253 -0.0166,-1.529963 0.3326,-1.796043 0.34924,-0.266079 1.14747,-0.06652 1.81268,-0.249457 0.66521,-0.182936 1.19736,-0.748347 1.49671,-1.463451 0.29934,-0.715104 0.36586,-1.579854 0.13303,-2.261695 -0.23283,-0.681841 -0.76498,-1.180732 -1.23062,-1.663009 -0.46565,-0.482277 -0.86476,-0.947907 -0.68183,-1.446816 0.18294,-0.49891 0.94791,-1.031062 1.48008,-1.696273 0.53216,-0.665212 0.8315,-1.463443 0.88139,-2.228436 0.0499,-0.764992 -0.14967,-1.496702 -0.5488,-2.095391 -0.39913,-0.598689 -0.9978,-1.064323 -1.59649,-1.380297 -0.59869,-0.315973 -1.19736,-0.48227 -1.28051,-0.798247 -0.0831,-0.315977 0.34923,-0.781609 0.6652,-1.380301 0.31598,-0.598691 0.51554,-1.330403 0.29934,-1.945721 -0.2162,-0.615319 -0.84813,-1.114211 -1.41356,-1.396924 -0.56543,-0.282712 -1.06432,-0.349231 -1.62975,-0.449013 -0.56543,-0.09978 -1.19736,-0.23282 -1.54659,-0.648579 -0.34923,-0.415759 -0.41576,-1.11421 -0.73173,-1.663007 -0.31598,-0.548796 -0.88139,-0.947909 -1.5965,-1.297145 -0.7151,-0.349237 -1.57985,-0.648573 -2.49451,-0.6652 -0.91467,-0.01663 -1.87919,0.249447 -2.61092,0.498903 -0.73174,0.249455 -1.23063,0.482271 -1.48008,0.19955 -0.24945,-0.282721 -0.24945,-1.08095 -0.5488,-1.746161 -0.29935,-0.66521 -0.89802,-1.197362 -1.67964,-1.546595 -0.78163,-0.349233 -1.74615,-0.51553 -2.71071,-0.415746 -0.96456,0.09978 -1.92908,0.465638 -2.84375,0.798243 -0.91466,0.332606 -1.77941,0.631943 -2.21179,0.515527 -0.43238,-0.116416 -0.43238,-0.648568 -0.7151,-1.28052 -0.28272,-0.631953 -0.84813,-1.36366 -1.69628,-1.829306 -0.84815,-0.465646 -1.97897,-0.665203 -3.05994,-0.58205 -1.08096,0.08315 -2.11201,0.449009 -2.81048,0.814877 -0.69847,0.365867 -1.06432,0.73172 -1.52997,0.582042 -0.46565,-0.149677 -1.03106,-0.814866 -1.82932,-1.247251 -0.79825,-0.432386 -1.8293,-0.631944 -2.74396,-0.681833 -0.91466,-0.04989 -1.71289,0.04989 -2.3781,0.315974 -0.66521,0.266085 -1.19737,0.698463 -1.74617,1.147478 -0.54879,0.449016 -1.1142,0.914648 -1.79605,0.914646 -0.68184,-3e-6 -1.48007,-0.465636 -2.39474,-0.76498 -0.91466,-0.299343 -1.94571,-0.432382 -2.91026,-0.415749 -0.96456,0.01663 -1.86256,0.182929 -2.61092,0.498905 -0.74836,0.315975 -1.34704,0.781612 -1.81269,1.213998 -0.46564,0.432386 -0.79824,0.831501 -0.93128,1.213995 -0.13304,0.382493 -0.0665,0.748353 -0.56543,0.898023 -0.49891,0.149671 -1.56322,0.08315 -2.62756,0.249456 -1.06433,0.166304 -2.12864,0.565419 -2.96015,1.031067 -0.83151,0.465647 -1.43019,0.997803 -1.77942,1.663015 -0.34923,0.665212 -0.44901,1.463439 -0.44901,2.09539 0,0.631951 0.0998,1.09758 -0.33261,1.380293 -0.43239,0.282713 -1.39692,0.382492 -2.12865,0.681838 -0.73173,0.299346 -1.23062,0.798237 -1.52997,1.363671 -0.29934,0.565434 -0.39912,1.19736 -0.39912,1.929095 0,0.731734 0.0998,1.56322 -0.18294,2.29495 -0.28271,0.73173 -0.9479,1.36366 -1.57985,2.078763 -0.63195,0.715103 -1.23063,1.513336 -1.43019,2.344849 -0.19956,0.831514 0,1.696261 0.19956,2.311579 0.19957,0.615318 0.39913,0.981174 0.38249,1.413561 -0.0166,0.432387 -0.24945,0.931277 -0.26607,1.613122 -0.0166,0.681845 0.18293,1.546591 0.64858,2.411366 0.46565,0.864775 1.19736,1.729525 1.84593,2.361471 0.64858,0.631946 1.214,1.031064 1.72953,1.313776 0.51554,0.282713 0.98118,0.449013 1.18074,0.931292 0.19956,0.482279 0.13304,1.28051 0.48228,1.995611 0.34924,0.715101 1.11421,1.347033 1.8792,1.91246 0.76499,0.565427 1.52996,1.06432 2.32822,1.430185 0.79825,0.365866 1.62974,0.598684 2.52777,0.681833 0.89804,0.08315 1.86257,0.01663 2.69408,0.232827 0.83151,0.216197 1.52996,0.71509 2.49452,0.964541 0.96456,0.249451 2.19516,0.249451 3.34265,0.166299 1.14749,-0.08315 2.21179,-0.24945 3.12645,-0.598688 0.91467,-0.349238 1.67964,-0.88139 2.44463,-0.69845 0.76499,0.18294 1.52996,1.080947 2.32822,1.663004 0.79825,0.582057 1.62974,0.848135 2.59429,0.848132 0.96456,-4e-6 2.06213,-0.266082 3.10983,-0.731731 1.04771,-0.46565 2.0455,-1.130842 2.81049,-1.247245 0.76499,-0.116404 1.29714,0.315969 2.17855,0.631943 0.88141,0.315974 2.11201,0.515531 3.2096,0.532158 1.0976,0.01663 2.06213,-0.149671 2.79386,-0.49891 0.73173,-0.349239 1.23062,-0.881389 1.61311,-1.347035 0.3825,-0.465647 0.64858,-0.864762 1.11423,-0.881387 0.46565,-0.01663 1.13084,0.349229 1.97898,0.665204 0.84815,0.315974 1.87919,0.582049 3.01005,0.515526 1.13086,-0.06652 2.36147,-0.465641 3.17635,-0.848136 0.81487,-0.382494 1.21399,-0.748352 1.69627,-1.18074 0.48228,-0.432388 1.04769,-0.93128 2.06212,-1.213991 z"
         id="path494"
         inkscape:path-effect="#path-effect494"
         inkscape:original-d="m 204.05138,91.237902 c 1.46345,-0.06652 2.9269,-0.13304 4.39035,-0.199562 1.13087,-0.698478 2.26169,-1.396927 3.39254,-2.095393 0.26609,-0.864783 0.53216,-1.729531 0.79825,-2.594297 -0.0998,-0.731737 -0.19957,-1.463449 -0.29935,-2.195172 0.79826,0.199565 1.59649,0.399121 2.39474,0.598683 0.53217,-0.565435 1.06432,-1.130847 1.59649,-1.696271 0.0665,-0.864783 0.13304,-1.729531 0.19956,-2.594297 -0.53218,-0.498912 -1.06433,-0.997805 -1.59649,-1.496709 -0.39913,-0.465653 -0.79824,-0.931285 -1.19737,-1.396927 0.765,-0.532175 1.52997,-1.064327 2.29496,-1.596491 0.29934,-0.79826 0.59868,-1.596489 0.89802,-2.394735 -0.19956,-0.73174 -0.39912,-1.463449 -0.59868,-2.195172 -0.5987,-0.465653 -1.19737,-0.931289 -1.79605,-1.39693 -0.5987,-0.166305 -1.19737,-0.332602 -1.79605,-0.498904 0.43239,-0.465652 0.86476,-0.931285 1.29714,-1.396929 0.19957,-0.731738 0.39913,-1.46345 0.59869,-2.195173 -0.63196,-0.498912 -1.26389,-0.997805 -1.89583,-1.496709 -0.49892,-0.06652 -0.99781,-0.133042 -1.49671,-0.199562 -0.63196,-0.133043 -1.26389,-0.266082 -1.89583,-0.399122 -0.0665,-0.69848 -0.13305,-1.396929 -0.19957,-2.095393 -0.56543,-0.399132 -1.13084,-0.798245 -1.69627,-1.197367 -0.86478,-0.29935 -1.72953,-0.598683 -2.59429,-0.898025 -0.96457,0.266084 -1.92909,0.532161 -2.89364,0.798243 -0.49892,0.232827 -0.99781,0.465644 -1.49671,0.698466 0,-0.798263 0,-1.596492 0,-2.394738 -0.5987,-0.532172 -1.19737,-1.064325 -1.79605,-1.596488 -0.96457,-0.166306 -1.92909,-0.332602 -2.89364,-0.498904 -0.96457,0.36587 -1.92909,0.731726 -2.89364,1.097587 -0.86478,0.299348 -1.72953,0.598684 -2.59429,0.898026 0,-0.532173 0,-1.064325 0,-1.596489 -0.56544,-0.73174 -1.13085,-1.463449 -1.69628,-2.195175 -1.13087,-0.199565 -2.26169,-0.399122 -3.39254,-0.598684 -1.03108,0.36587 -2.06213,0.731726 -3.0932,1.097588 -0.36587,0.36587 -0.73172,0.731723 -1.09758,1.097587 -0.56544,-0.665217 -1.13085,-1.330409 -1.69628,-1.995613 -1.03108,-0.199565 -2.06213,-0.399121 -3.09319,-0.598684 -0.79826,0.09978 -1.59649,0.199563 -2.39474,0.299342 -0.53217,0.43239 -1.06433,0.864766 -1.59649,1.297147 -0.56543,0.465653 -1.13084,0.931286 -1.69627,1.39693 -0.79826,-0.465653 -1.59649,-0.931286 -2.39474,-1.39693 -1.03108,-0.133042 -2.06213,-0.266082 -3.09319,-0.399121 -0.89805,0.166305 -1.79605,0.332601 -2.69408,0.498904 -0.59869,0.465652 -1.19737,0.931285 -1.79605,1.396926 -0.33261,0.399133 -0.66521,0.798246 -0.99781,1.197368 0.0665,0.36587 0.13304,0.731726 0.19956,1.097587 -1.06434,-0.06652 -2.12865,-0.133039 -3.19298,-0.199559 -1.06434,0.39913 -2.12865,0.798243 -3.19298,1.197367 -0.59869,0.532173 -1.19737,1.064325 -1.79605,1.596489 -0.0998,0.79826 -0.19956,1.596489 -0.29934,2.394735 0.0998,0.465652 0.19956,0.931285 0.29934,1.396929 -0.96456,0.09978 -1.92909,0.199562 -2.89364,0.299342 -0.49891,0.498913 -0.9978,0.997805 -1.49671,1.496709 -0.0998,0.631958 -0.19956,1.263887 -0.29934,1.895831 0.0998,0.831523 0.19956,1.663011 0.29934,2.494517 -0.66521,0.631958 -1.3304,1.263887 -1.99561,1.895831 -0.59869,0.798262 -1.19737,1.596491 -1.79605,2.394734 0.19956,0.864786 0.39912,1.729532 0.59868,2.594297 0.19957,0.36587 0.39913,0.731726 0.59869,1.097588 -0.23283,0.498912 -0.46564,0.997805 -0.69847,1.496709 0.19957,0.864783 0.39912,1.729531 0.59869,2.594297 0.73174,0.864782 1.46345,1.729531 2.19517,2.594297 0.56543,0.39913 1.13085,0.798243 1.69627,1.197367 0.46565,0.166305 0.93129,0.332602 1.39693,0.498904 -0.0665,0.79826 -0.13304,1.596489 -0.19956,2.394735 0.765,0.631954 1.52997,1.263887 2.29495,1.89583 0.765,0.498913 1.52997,0.997808 2.29496,1.496709 0.83152,0.232828 1.66301,0.465644 2.49451,0.698466 0.96457,-0.06652 1.9291,-0.133042 2.89364,-0.199562 0.69848,0.498913 1.39693,0.997805 2.09539,1.496709 1.23066,0 2.46126,0 3.69189,0 1.06435,-0.166305 2.12865,-0.332601 3.19298,-0.498904 0.765,-0.532172 1.52997,-1.064324 2.29495,-1.596488 0.765,0.898042 1.52997,1.796051 2.29496,2.694076 0.83152,0.266088 1.66301,0.532164 2.49451,0.798246 1.09761,-0.266088 2.19518,-0.532164 3.29276,-0.798246 0.99783,-0.665217 1.99562,-1.330407 2.99342,-1.995613 0.53218,0.432393 1.06433,0.864766 1.59649,1.29715 1.23066,0.199565 2.46126,0.399121 3.69188,0.598683 0.96457,-0.166305 1.9291,-0.332601 2.89364,-0.498904 0.49892,-0.532175 0.99781,-1.064327 1.49671,-1.596488 0.26609,-0.399133 0.53217,-0.798246 0.79825,-1.19737 0.66522,0.36587 1.33041,0.731726 1.99561,1.097587 1.03109,0.266088 2.06213,0.532164 3.0932,0.798246 1.23065,-0.39913 2.46126,-0.798246 3.69188,-1.197367 0.39913,-0.36587 0.79825,-0.731726 1.19737,-1.097588 0.56544,-0.498912 1.13085,-0.997805 1.69627,-1.496709 z"
         transform="matrix(0.93749998,0,0,0.93749998,-71.77453,49.1364)" />
      <path
         style="fill:none;fill-rule:evenodd;stroke:#101010;stroke-width:0.60266668;stroke-linecap:round;stroke-linejoin:miter;stroke-opacity:1;stroke-dasharray:none"
         d="m 192.17749,93.532857 c -0.0998,-0.631947 -0.19957,-1.263886 0.008,-1.995621 0.20788,-0.731735 0.72341,-1.563223 1.26389,-2.369791 0.54049,-0.806568 1.1059,-1.588164 1.78775,-2.220114 0.68184,-0.63195 1.48006,-1.11421 2.17022,-1.554912 0.69015,-0.440702 1.2722,-0.839821 1.85425,-1.238941"
         id="path495"
         inkscape:path-effect="#path-effect495"
         inkscape:original-d="m 192.17749,93.532857 c -0.0998,-0.631944 -0.19956,-1.263887 -0.29935,-1.895834 0.51555,-0.831519 1.03107,-1.663008 1.5466,-2.494514 0.56544,-0.781631 1.13085,-1.563229 1.69628,-2.344846 0.79826,-0.482281 1.59648,-0.964545 2.39473,-1.446818 0.58206,-0.39913 1.16411,-0.798246 1.74616,-1.197367"
         transform="matrix(0.93749998,0,0,0.93749998,-71.77453,49.1364)" />
      <path
         style="fill:none;fill-rule:evenodd;stroke:#101010;stroke-width:0.60266668;stroke-linecap:round;stroke-linejoin:miter;stroke-opacity:1;stroke-dasharray:none"
         d="m 181.94997,94.979675 c -0.13304,-0.432382 -0.26608,-0.864766 -0.21619,-1.338729 0.0499,-0.473964 0.28271,-0.989486 0.80657,-1.712906 0.52386,-0.723421 1.33872,-1.654687 2.0455,-2.427992 0.70679,-0.773305 1.30546,-1.388608 1.93741,-1.895829 0.63195,-0.507222 1.29714,-0.906336 1.95403,-1.164103 0.6569,-0.257767 1.30546,-0.374175 1.95404,-0.490587"
         id="path496"
         inkscape:path-effect="#path-effect496"
         inkscape:original-d="m 181.94997,94.979675 c -0.13304,-0.432382 -0.26608,-0.864766 -0.39912,-1.297147 0.23283,-0.515544 0.46564,-1.031068 0.69846,-1.546601 0.8149,-0.931305 1.62976,-1.86257 2.44463,-2.793856 0.5987,-0.615326 1.19737,-1.23063 1.79605,-1.845942 0.66522,-0.39913 1.33041,-0.798246 1.99561,-1.197367 0.64859,-0.116414 1.29715,-0.232822 1.94573,-0.349233"
         transform="matrix(0.93749998,0,0,0.93749998,-71.77453,49.1364)" />
      <path
         style="fill:none;fill-rule:evenodd;stroke:#101010;stroke-width:0.60266668;stroke-linecap:round;stroke-linejoin:miter;stroke-opacity:1;stroke-dasharray:none"
         d="m 170.52509,94.530662 c 0.0166,-0.698462 0.0333,-1.396928 -0.0998,-2.253389 -0.13305,-0.856461 -0.41575,-1.870877 -0.71509,-2.627552 -0.29935,-0.756674 -0.61532,-1.255569 -0.88972,-1.629749 -0.2744,-0.374181 -0.50721,-0.623624 -0.74003,-0.873076"
         id="path497"
         inkscape:path-effect="#path-effect497"
         inkscape:original-d="m 170.52509,94.530662 c 0.0166,-0.698463 0.0333,-1.396927 0.0499,-2.095393 -0.28272,-1.014456 -0.56542,-2.028873 -0.84813,-3.043309 -0.31598,-0.498913 -0.63195,-0.997806 -0.94792,-1.49671 -0.23283,-0.249456 -0.46564,-0.498901 -0.69846,-0.748354"
         transform="matrix(0.93749998,0,0,0.93749998,-71.77453,49.1364)" />
      <path
         style="fill:none;fill-rule:evenodd;stroke:#101010;stroke-width:0.60266668;stroke-linecap:round;stroke-linejoin:miter;stroke-opacity:1;stroke-dasharray:none"
         d="m 158.46778,94.500552 c 0.49389,-0.32926 0.98778,-0.658518 1.56399,-1.328806 0.57621,-0.670288 1.23472,-1.681569 1.62277,-2.728152 0.38806,-1.046583 0.50565,-2.128414 0.48213,-3.080921 -0.0235,-0.952506 -0.18815,-1.775639 -0.34102,-2.469441 -0.15287,-0.693802 -0.29398,-1.258236 -0.43509,-1.822681"
         id="path498"
         inkscape:path-effect="#path-effect498"
         inkscape:original-d="m 158.46778,94.500552 c 0.49389,-0.32926 0.98778,-0.658518 1.48167,-0.987778 0.65853,-1.011315 1.31704,-2.022594 1.97555,-3.033889 0.1176,-1.081874 0.23519,-2.163705 0.35278,-3.245556 -0.16463,-0.823163 -0.32926,-1.646295 -0.49389,-2.469444 -0.14111,-0.564456 -0.28222,-1.128889 -0.42333,-1.693334"
         transform="matrix(0.93749998,0,0,0.93749998,-71.77453,49.1364)" />
      <path
         style="fill:none;fill-rule:evenodd;stroke:#101010;stroke-width:0.60266668;stroke-linecap:round;stroke-linejoin:miter;stroke-opacity:1;stroke-dasharray:none"
         d="m 204.47001,91.466663 c -0.42334,-0.446855 -0.84667,-0.893706 -1.14065,-1.505194 -0.29398,-0.611488 -0.45861,-1.387584 -0.48213,-2.293057 -0.0235,-0.905474 0.0941,-1.940267 0.3175,-2.7987 0.22343,-0.858434 0.55268,-1.540456 0.82314,-2.057867 0.27047,-0.51741 0.48214,-0.870186 0.6938,-1.22296"
         id="path503"
         inkscape:path-effect="#path-effect503"
         inkscape:original-d="m 204.47001,91.466663 c -0.42334,-0.446851 -0.84667,-0.893705 -1.27,-1.340556 -0.16464,-0.776125 -0.32926,-1.552222 -0.49389,-2.328333 0.11759,-1.034836 0.23518,-2.069629 0.35277,-3.104445 0.32927,-0.682049 0.65852,-1.364073 0.98778,-2.046111 0.21167,-0.352783 0.42334,-0.705556 0.635,-1.058333"
         transform="matrix(0.93749998,0,0,0.93749998,-71.77453,49.1364)" />
      <path
         style="fill:none;fill-rule:evenodd;stroke:#101010;stroke-width:0.60266668;stroke-linecap:round;stroke-linejoin:miter;stroke-opacity:1;stroke-dasharray:none"
         d="m 212.90139,84.481663 c -0.0588,-0.02352 -0.11759,-0.04704 -0.41745,-0.258712 -0.29987,-0.211671 -0.84079,-0.61148 -1.39936,-1.040698 -0.55857,-0.429217 -1.13476,-0.887818 -1.61101,-1.311157 -0.47626,-0.423338 -0.85254,-0.81138 -1.21709,-1.199442 -0.36454,-0.388061 -0.71731,-0.776107 -1.04069,-1.111247 -0.32338,-0.33514 -0.61736,-0.61736 -0.91134,-0.899582"
         id="path504"
         inkscape:path-effect="#path-effect504"
         inkscape:original-d="m 212.90139,84.481663 c -0.0588,-0.02351 -0.11759,-0.04704 -0.17638,-0.07056 -0.54094,-0.399821 -1.08186,-0.799629 -1.62278,-1.199444 -0.57622,-0.45862 -1.15241,-0.917223 -1.72861,-1.375834 -0.37631,-0.388064 -0.75259,-0.776111 -1.12889,-1.164167 -0.35279,-0.388064 -0.70556,-0.776111 -1.05834,-1.164166 -0.29398,-0.282228 -0.58796,-0.564445 -0.88194,-0.846667"
         transform="matrix(0.93749998,0,0,0.93749998,-71.77453,49.1364)" />
      <path
         style="fill:none;fill-rule:evenodd;stroke:#101010;stroke-width:0.60266668;stroke-linecap:round;stroke-linejoin:miter;stroke-opacity:1;stroke-dasharray:none"
         d="m 214.2789,77.817408 c -0.79825,-0.133041 -1.5965,-0.266082 -2.45296,-0.440699 -0.85645,-0.174618 -1.77109,-0.390805 -2.7107,-0.698466 -0.93961,-0.307661 -1.90414,-0.706778 -2.71902,-1.114219 -0.81488,-0.407441 -1.48007,-0.823184 -2.10371,-1.297147 -0.62363,-0.473963 -1.20568,-1.00612 -1.78773,-1.53828"
         id="path516"
         inkscape:path-effect="#path-effect516"
         inkscape:original-d="m 214.2789,77.817408 c -0.79825,-0.133042 -1.5965,-0.266082 -2.39474,-0.399122 -0.91467,-0.216196 -1.82931,-0.432384 -2.74397,-0.648574 -0.96456,-0.39913 -1.92909,-0.798246 -2.89363,-1.197368 -0.66522,-0.415761 -1.33041,-0.831506 -1.99562,-1.247258 -0.58206,-0.532176 -1.16411,-1.064328 -1.74616,-1.596489"
         transform="matrix(0.93749998,0,0,0.93749998,-71.77453,49.1364)" />
      <path
         style="fill:none;fill-rule:evenodd;stroke:#101010;stroke-width:0.60266668;stroke-linecap:round;stroke-linejoin:miter;stroke-opacity:1;stroke-dasharray:none"
         d="m 213.2312,69.385945 c -0.8814,0.166301 -1.76279,0.332601 -2.68577,0.432382 -0.92298,0.09978 -1.88751,0.13304 -2.66913,0.13304 -0.78162,0 -1.38029,-0.03326 -1.84594,-0.07484 -0.46565,-0.04158 -0.79824,-0.09146 -1.13084,-0.141355"
         id="path517"
         inkscape:path-effect="#path-effect517"
         inkscape:original-d="m 213.2312,69.385945 c -0.8814,0.1663 -1.76279,0.332602 -2.64419,0.498902 -0.96456,0.03326 -1.92909,0.06652 -2.89364,0.09978 -0.59869,-0.03326 -1.19736,-0.06652 -1.79605,-0.09978 -0.33261,-0.04989 -0.6652,-0.09978 -0.9978,-0.149671"
         transform="matrix(0.93749998,0,0,0.93749998,-71.77453,49.1364)" />
      <path
         style="fill:none;fill-rule:evenodd;stroke:#101010;stroke-width:0.60266668;stroke-linecap:round;stroke-linejoin:miter;stroke-opacity:1;stroke-dasharray:none"
         d="m 209.28986,63.049876 c 0.0166,0.06651 0.0333,0.133047 0.008,0.349236 -0.0249,0.216189 -0.0915,0.58205 -0.43239,0.98949 -0.34092,0.40744 -0.95622,0.856443 -1.61312,1.20568 -0.6569,0.349236 -1.35535,0.598683 -2.07045,0.823191 -0.7151,0.224509 -1.44681,0.424066 -1.96235,0.548792 -0.51553,0.124725 -0.81487,0.174615 -1.11421,0.224505"
         id="path518"
         inkscape:path-effect="#path-effect518"
         inkscape:original-d="m 209.28986,63.049876 c 0.0166,0.06652 0.0333,0.133039 0.0499,0.199559 -0.0665,0.36587 -0.13305,0.731726 -0.19957,1.097588 -0.61532,0.449021 -1.23062,0.898025 -1.84594,1.347038 -0.69848,0.249456 -1.39693,0.498904 -2.09539,0.748355 -0.73174,0.199565 -1.46345,0.399124 -2.19517,0.598683 -0.29935,0.04989 -0.59869,0.09978 -0.89803,0.149671"
         transform="matrix(0.93749998,0,0,0.93749998,-71.77453,49.1364)" />
      <path
         style="fill:none;fill-rule:evenodd;stroke:#101010;stroke-width:0.60266668;stroke-linecap:round;stroke-linejoin:miter;stroke-opacity:1;stroke-dasharray:none"
         d="m 200.60895,60.50547 c -0.0665,0.48227 -0.13304,0.964545 -0.49059,1.554921 -0.35756,0.590377 -1.00612,1.288828 -1.55492,1.787735 -0.5488,0.498906 -0.9978,0.79824 -1.4385,1.072638 -0.4407,0.274398 -0.87308,0.523847 -1.30546,0.773297"
         id="path519"
         inkscape:path-effect="#path-effect519"
         inkscape:original-d="m 200.60895,60.50547 c -0.0665,0.482273 -0.13304,0.964545 -0.19956,1.446818 -0.64859,0.698478 -1.29715,1.39693 -1.94572,2.095393 -0.44903,0.299347 -0.89803,0.598684 -1.34704,0.898025 -0.43239,0.249457 -0.86477,0.498904 -1.29715,0.748355"
         transform="matrix(0.93749998,0,0,0.93749998,-71.77453,49.1364)" />
      <path
         style="fill:none;fill-rule:evenodd;stroke:#101010;stroke-width:0.60266668;stroke-linecap:round;stroke-linejoin:miter;stroke-opacity:1;stroke-dasharray:none"
         d="m 190.38144,57.961062 c 0.0166,0.08314 0.0333,0.166308 0.0249,0.407447 -0.008,0.241139 -0.0416,0.640249 -0.14968,1.089267 -0.1081,0.449018 -0.29103,0.947912 -0.63195,1.388613 -0.34092,0.4407 -0.83981,0.823185 -1.30546,1.164106 -0.46565,0.340921 -0.89802,0.640256 -1.34704,0.922972 -0.44902,0.282717 -0.91465,0.548791 -1.41356,0.78993 -0.49891,0.241139 -1.03106,0.457324 -1.56323,0.673517"
         id="path520"
         inkscape:path-effect="#path-effect520"
         inkscape:original-d="m 190.38144,57.961062 c 0.0166,0.08315 0.0333,0.166302 0.0499,0.249453 -0.0333,0.39913 -0.0665,0.798246 -0.0998,1.197368 -0.18293,0.498912 -0.36586,0.997805 -0.54879,1.496709 -0.49891,0.382498 -0.9978,0.764986 -1.49671,1.147476 -0.43239,0.299347 -0.86476,0.598683 -1.29714,0.898025 -0.46566,0.266088 -0.93129,0.532164 -1.39693,0.798246 -0.53218,0.216196 -1.06433,0.432384 -1.5965,0.648575"
         transform="matrix(0.93749998,0,0,0.93749998,-71.77453,49.1364)" />
      <path
         style="fill:none;fill-rule:evenodd;stroke:#101010;stroke-width:0.60266668;stroke-linecap:round;stroke-linejoin:miter;stroke-opacity:1;stroke-dasharray:none"
         d="m 181.05195,55.965451 c 0.0665,0.51553 0.13304,1.031066 -0.0582,1.696277 -0.19125,0.665211 -0.64026,1.480074 -1.34705,2.20349 -0.70679,0.723416 -1.67131,1.355345 -2.42799,1.837621 -0.75667,0.482276 -1.30546,0.814874 -1.86257,1.155793 -0.55711,0.340919 -1.12253,0.690147 -1.66301,1.031067 -0.54048,0.340919 -1.05601,0.673517 -1.57154,1.006119"
         id="path521"
         inkscape:path-effect="#path-effect521"
         inkscape:original-d="m 181.05195,55.965451 c 0.0665,0.515533 0.13304,1.031066 0.19956,1.546598 -0.44902,0.814891 -0.89803,1.629752 -1.34704,2.444626 -0.96457,0.631958 -1.92909,1.26389 -2.89364,1.895833 -0.5488,0.332608 -1.09759,0.665204 -1.64638,0.997806 -0.56543,0.349238 -1.13085,0.698463 -1.69627,1.047696 -0.51554,0.33261 -1.03107,0.665203 -1.5466,0.997808"
         transform="matrix(0.93749998,0,0,0.93749998,-71.77453,49.1364)" />
      <path
         style="fill:none;fill-rule:evenodd;stroke:#101010;stroke-width:0.60266668;stroke-linecap:round;stroke-linejoin:miter;stroke-opacity:1;stroke-dasharray:none"
         d="m 170.37542,56.514244 c -0.0166,0.715094 -0.0333,1.43019 -0.16631,2.145292 -0.13305,0.715103 -0.38249,1.430181 -0.57374,1.962349 -0.19125,0.532167 -0.32429,0.881391 -0.45733,1.230623"
         id="path522"
         inkscape:path-effect="#path-effect522"
         inkscape:original-d="m 170.37542,56.514244 c -0.0166,0.715095 -0.0333,1.430189 -0.0499,2.145284 -0.24946,0.715109 -0.4989,1.430189 -0.74835,2.145284 -0.13305,0.349239 -0.26609,0.698463 -0.39913,1.047696"
         transform="matrix(0.93749998,0,0,0.93749998,-71.77453,49.1364)" />
      <path
         style="fill:none;fill-rule:evenodd;stroke:#101010;stroke-width:0.60266668;stroke-linecap:round;stroke-linejoin:miter;stroke-opacity:1;stroke-dasharray:none"
         d="m 159.39955,58.95887 c 0.44901,0.997804 0.89803,1.995614 1.49672,2.727343 0.59869,0.731729 1.34703,1.197363 2.06213,1.563227 0.7151,0.365864 1.39692,0.631939 2.07876,0.898021"
         id="path523"
         inkscape:path-effect="#path-effect523"
         inkscape:original-d="m 159.39955,58.95887 c 0.44901,0.997805 0.89803,1.995613 1.34704,2.993418 0.74837,0.465653 1.49671,0.931285 2.24506,1.39693 0.68185,0.266087 1.36367,0.532163 2.04551,0.798243"
         transform="matrix(0.93749998,0,0,0.93749998,-71.77453,49.1364)" />
      <path
         style="fill:none;fill-rule:evenodd;stroke:#101010;stroke-width:0.60266668;stroke-linecap:round;stroke-linejoin:miter;stroke-opacity:1;stroke-dasharray:none"
         d="m 151.31732,65.145269 c 0.29934,0.46564 0.59868,0.931282 1.18075,1.31378 0.58206,0.382497 1.44681,0.681834 2.30326,0.823189 0.85646,0.141356 1.70458,0.124726 2.41968,0.01663 0.7151,-0.108096 1.29715,-0.307656 1.8792,-0.507216"
         id="path524"
         inkscape:path-effect="#path-effect524"
         inkscape:original-d="m 151.31732,65.145269 c 0.29934,0.465641 0.59868,0.931285 0.89803,1.396929 0.86478,0.299348 1.72953,0.598684 2.59429,0.898026 0.84815,-0.01662 1.69627,-0.03326 2.54441,-0.04989 0.58206,-0.199565 1.16411,-0.399121 1.74616,-0.598683"
         transform="matrix(0.93749998,0,0,0.93749998,-71.77453,49.1364)" />
      <path
         style="fill:none;fill-rule:evenodd;stroke:#101010;stroke-width:0.60266668;stroke-linecap:round;stroke-linejoin:miter;stroke-opacity:1;stroke-dasharray:none"
         d="m 146.97686,71.181996 c 0.2744,0.349234 0.5488,0.698467 1.20985,1.089278 0.66106,0.390811 1.70874,0.823186 2.75644,1.01443 1.04771,0.191245 2.09538,0.141355 3.0142,-0.08316 0.91883,-0.224511 1.70874,-0.623623 2.43216,-1.118374 0.72341,-0.494751 1.38029,-1.085109 2.03718,-1.675478"
         id="path525"
         inkscape:path-effect="#path-effect525"
         inkscape:original-d="m 146.97686,71.181996 c 0.2744,0.349233 0.5488,0.698464 0.82319,1.047697 1.04772,0.432392 2.0954,0.864765 3.14309,1.297147 1.04772,-0.04989 2.09539,-0.09978 3.14309,-0.149671 0.78995,-0.39913 1.57986,-0.798243 2.36979,-1.197367 0.6569,-0.590381 1.31378,-1.180736 1.97067,-1.771106"
         transform="matrix(0.93749998,0,0,0.93749998,-71.77453,49.1364)" />
      <path
         style="fill:none;fill-rule:evenodd;stroke:#101010;stroke-width:0.60266668;stroke-linecap:round;stroke-linejoin:miter;stroke-opacity:1;stroke-dasharray:none"
         d="m 144.38257,79.438842 c 0.74004,0.207877 1.48008,0.415753 2.39059,0.498904 0.9105,0.08315 1.99144,0.04157 3.07241,-0.12057 1.08096,-0.162145 2.1619,-0.444852 3.04746,-0.735882 0.88556,-0.291031 1.57569,-0.590366 2.32405,-0.977022 0.74837,-0.386657 1.55491,-0.860602 2.36147,-1.33456"
         id="path526"
         inkscape:path-effect="#path-effect526"
         inkscape:original-d="m 144.38257,79.438842 c 0.74004,0.207877 1.48008,0.415753 2.22012,0.62363 1.08097,-0.04158 2.16191,-0.08315 3.24287,-0.124726 1.08097,-0.282719 2.16191,-0.565423 3.24287,-0.848134 0.69016,-0.29935 1.38029,-0.598684 2.07044,-0.898028 0.80658,-0.473967 1.61312,-0.947914 2.41968,-1.421872"
         transform="matrix(0.93749998,0,0,0.93749998,-71.77453,49.1364)" />
      <path
         style="fill:none;fill-rule:evenodd;stroke:#101010;stroke-width:0.60266668;stroke-linecap:round;stroke-linejoin:miter;stroke-opacity:1;stroke-dasharray:none"
         d="m 148.42368,87.521075 c 0.0416,0 0.0832,0 0.49062,-0.03326 0.40742,-0.03326 1.18071,-0.09978 2.0829,-0.428232 0.9022,-0.328451 1.93324,-0.918805 2.86038,-1.529967 0.92713,-0.611162 1.75031,-1.243097 2.46541,-1.866733 0.7151,-0.623635 1.32209,-1.238939 1.92077,-2.008088 0.59869,-0.76915 1.18905,-1.692102 1.77942,-2.615073"
         id="path527"
         inkscape:path-effect="#path-effect527"
         inkscape:original-d="m 148.42368,87.521075 c 0.0416,0 0.0832,0 0.12473,0 0.77331,-0.06652 1.5466,-0.133043 2.3199,-0.199563 1.03109,-0.59038 2.06213,-1.180736 3.0932,-1.771105 0.8232,-0.631958 1.64638,-1.26389 2.46957,-1.895833 0.60701,-0.615327 1.214,-1.230628 1.82099,-1.84594 0.59038,-0.922991 1.18074,-1.845942 1.77111,-2.768913"
         transform="matrix(0.93749998,0,0,0.93749998,-71.77453,49.1364)" />
    </g>
  </g>
</svg>
