<?xml version="1.0" encoding="UTF-8" standalone="no"?>
<!-- Created with Inkscape (http://www.inkscape.org/) -->

<svg
   width="9.2431698mm"
   height="3.8380573mm"
   viewBox="0 0 9.2431698 3.8380573"
   version="1.1"
   id="svg1"
   xml:space="preserve"
   inkscape:version="1.4 (86a8ad7, 2024-10-11)"
   sodipodi:docname="wolf.svg"
   xmlns:inkscape="http://www.inkscape.org/namespaces/inkscape"
   xmlns:sodipodi="http://sodipodi.sourceforge.net/DTD/sodipodi-0.dtd"
   xmlns="http://www.w3.org/2000/svg"
   xmlns:svg="http://www.w3.org/2000/svg"><sodipodi:namedview
     id="namedview1"
     pagecolor="#505050"
     bordercolor="#eeeeee"
     borderopacity="1"
     inkscape:showpageshadow="0"
     inkscape:pageopacity="0"
     inkscape:pagecheckerboard="0"
     inkscape:deskcolor="#d1d1d1"
     inkscape:document-units="mm"
     inkscape:zoom="2.8284271"
     inkscape:cx="454.13933"
     inkscape:cy="25.455844"
     inkscape:window-width="1280"
     inkscape:window-height="961"
     inkscape:window-x="-8"
     inkscape:window-y="-8"
     inkscape:window-maximized="1"
     inkscape:current-layer="layer1"><inkscape:page
       x="0"
       y="0"
       width="9.2431698"
       height="3.8380573"
       id="page2"
       margin="0"
       bleed="0" /></sodipodi:namedview><defs
     id="defs1"><inkscape:path-effect
       effect="bspline"
       id="path-effect578"
       is_visible="true"
       lpeversion="1.3"
       weight="33.333333"
       steps="2"
       helper_size="0"
       apply_no_weight="true"
       apply_with_weight="true"
       only_selected="false"
       uniform="false" /></defs><g
     inkscape:label="Layer 1"
     inkscape:groupmode="layer"
     id="layer1"
     transform="translate(-85.688773,-182.19509)"><path
       style="fill:#c96733;fill-opacity:1;fill-rule:evenodd;stroke:#5c2a0c;stroke-width:0.165;stroke-linecap:butt;stroke-linejoin:miter;stroke-dasharray:none;stroke-opacity:1"
       d="m 85.853655,183.39573 c 0.357868,0.25974 0.715738,0.51949 1.212142,0.79944 0.496403,0.27995 1.131315,0.58009 1.818198,0.75903 0.686882,0.17893 1.425693,0.23665 2.002908,0.21933 0.577215,-0.0173 0.992787,-0.10967 1.373746,-0.25974 0.38096,-0.15008 0.727278,-0.35787 1.010111,-0.6003 0.282833,-0.24243 0.502165,-0.51948 0.704188,-0.84272 0.202024,-0.32324 0.386727,-0.69265 0.571434,-1.06206 0.09914,0.29194 0.19823,0.58373 0.297345,0.8756 -0.118122,0.27916 -0.236241,0.55831 -0.440597,0.86057 -0.204357,0.30225 -0.494926,0.62757 -0.801203,0.8921 -0.306278,0.26453 -0.627678,0.46789 -1.097062,0.61448 -0.469384,0.14659 -1.08039,0.23496 -1.624735,0.27559 -0.544344,0.0406 -1.014602,0.0325 -1.542331,-0.0524 -0.527729,-0.0849 -1.106804,-0.24484 -1.716272,-0.54541 -0.609468,-0.30058 -1.224427,-0.72951 -1.845794,-1.16291 z"
       id="path578"
       sodipodi:nodetypes="ccccccccccccccccc"
       inkscape:original-d="m 85.853655,183.39573 c 0,0 0.715737,0.51949 1.073603,0.77923 0.634941,0.30016 1.269854,0.6003 1.90478,0.90045 0.738841,0.0577 1.47765,0.11544 2.216473,0.17316 0.415597,-0.0924 0.831178,-0.18471 1.246767,-0.27706 0.346329,-0.2078 0.692647,-0.41559 1.038971,-0.62338 0.219342,-0.27707 0.438676,-0.55412 0.658013,-0.83118 0.184711,-0.36942 0.55412,-1.10824 0.55412,-1.10824 0.09914,0.29194 0.297345,0.8756 0.297345,0.8756 0,0 -0.236242,0.55831 -0.354367,0.83748 -0.290589,0.32534 -0.581159,0.65066 -0.871749,0.97601 -0.321964,0.20371 -0.643363,0.40707 -0.965867,0.61113 -0.616267,0.0891 -1.227269,0.17749 -1.84566,0.26692 -0.470301,-0.008 -0.940557,-0.0163 -1.410863,-0.0245 -0.585152,-0.16162 -1.164225,-0.32157 -1.755388,-0.48485 -0.627774,-0.43787 -1.8641,-1.3002 -1.8641,-1.3002 z"
       inkscape:path-effect="#path-effect578" /></g></svg>
