<?xml version="1.0" encoding="UTF-8" standalone="no"?>
<!-- Created with Inkscape (http://www.inkscape.org/) -->

<svg
   width="10.714763mm"
   height="7.5232463mm"
   viewBox="0 0 10.714763 7.5232463"
   version="1.1"
   id="svg1"
   xml:space="preserve"
   inkscape:version="1.3 (0e150ed6c4, 2023-07-21)"
   sodipodi:docname="WolfRightArm.svg"
   xmlns:inkscape="http://www.inkscape.org/namespaces/inkscape"
   xmlns:sodipodi="http://sodipodi.sourceforge.net/DTD/sodipodi-0.dtd"
   xmlns="http://www.w3.org/2000/svg"
   xmlns:svg="http://www.w3.org/2000/svg"><sodipodi:namedview
     id="namedview1"
     pagecolor="#505050"
     bordercolor="#eeeeee"
     borderopacity="1"
     inkscape:showpageshadow="0"
     inkscape:pageopacity="0"
     inkscape:pagecheckerboard="0"
     inkscape:deskcolor="#d1d1d1"
     inkscape:document-units="mm"
     inkscape:zoom="1.3505331"
     inkscape:cx="197.32949"
     inkscape:cy="-66.640352"
     inkscape:window-width="1280"
     inkscape:window-height="961"
     inkscape:window-x="-8"
     inkscape:window-y="-8"
     inkscape:window-maximized="1"
     inkscape:current-layer="layer1" /><defs
     id="defs1"><inkscape:path-effect
       effect="bspline"
       id="path-effect278"
       is_visible="true"
       lpeversion="1.3"
       weight="33.333333"
       steps="2"
       helper_size="0"
       apply_no_weight="true"
       apply_with_weight="true"
       only_selected="false"
       uniform="false" /><inkscape:path-effect
       effect="bspline"
       id="path-effect270"
       is_visible="true"
       lpeversion="1.3"
       weight="33.333333"
       steps="2"
       helper_size="0"
       apply_no_weight="true"
       apply_with_weight="true"
       only_selected="false"
       uniform="false" /><inkscape:path-effect
       effect="bspline"
       id="path-effect266"
       is_visible="true"
       lpeversion="1.3"
       weight="33.333333"
       steps="2"
       helper_size="0"
       apply_no_weight="true"
       apply_with_weight="true"
       only_selected="false"
       uniform="false" /><inkscape:path-effect
       effect="bspline"
       id="path-effect262"
       is_visible="true"
       lpeversion="1.3"
       weight="33.333333"
       steps="2"
       helper_size="0"
       apply_no_weight="true"
       apply_with_weight="true"
       only_selected="false"
       uniform="false" /></defs><g
     inkscape:label="Layer 1"
     inkscape:groupmode="layer"
     id="layer1"
     transform="translate(-154.72482,-97.071825)"><g
       id="g103"
       transform="translate(64.390989,-30.869954)"
       inkscape:transform-center-x="4.709265"
       inkscape:transform-center-y="1.59313"><path
         style="fill:#8f8782;fill-opacity:1;fill-rule:evenodd;stroke:#121212;stroke-width:0.165;stroke-linecap:butt;stroke-linejoin:miter;stroke-dasharray:none;stroke-opacity:1"
         d="m 98.338802,134.46793 c -0.0082,-0.12245 -0.02449,-0.36734 -0.122447,-0.60407 -0.09796,-0.23672 -0.27754,-0.46528 -0.579572,-0.65303 -0.302033,-0.18775 -0.726499,-0.33468 -1.191793,-0.45712 -0.465295,-0.12245 -0.971378,-0.2204 -1.501975,-0.26938 -0.530597,-0.049 -1.085664,-0.049 -1.591771,0.0571 -0.506108,0.10612 -0.963223,0.31835 -1.355046,0.53876 -0.391823,0.2204 -0.718336,0.44896 -0.987715,0.67752 -0.269378,0.22857 -0.481607,0.45712 -0.62854,0.68568 -0.146934,0.22857 -0.228562,0.45713 -0.46529,0.56324 -0.236728,0.10612 -0.62854,0.0898 -0.97955,0.15509 -0.351011,0.0653 -0.661197,0.21223 -0.840781,0.39998 -0.179584,0.18775 -0.228559,0.4163 -0.261212,0.64487 -0.03265,0.22856 -0.04898,0.45712 0.0082,0.63671 0.05714,0.17958 0.187745,0.31019 0.22856,0.43264 0.04082,0.12244 -0.0082,0.23672 -0.0082,0.4163 0,0.17959 0.04897,0.42447 0.130605,0.60406 0.08163,0.17958 0.195911,0.29386 0.334682,0.351 0.138771,0.0571 0.302027,0.0571 0.424473,0.17959 0.122445,0.12245 0.204071,0.36733 0.359159,0.53875 0.155087,0.17142 0.383666,0.26938 0.612229,0.26121 0.228563,-0.008 0.457122,-0.12244 0.644871,-0.30203 0.187749,-0.17958 0.334682,-0.42447 0.391819,-0.62854 0.05714,-0.20408 0.02449,-0.36733 -0.02449,-0.5061 -0.04898,-0.13877 -0.114283,-0.25305 -0.05714,-0.36733 0.05714,-0.11429 0.236719,-0.22856 0.424472,-0.2204 0.187753,0.008 0.383655,0.13877 0.595893,0.21224 0.212239,0.0735 0.440793,0.0898 0.636708,-0.0571 0.195914,-0.14693 0.359168,-0.45711 0.399981,-0.74281 0.04081,-0.28571 -0.04082,-0.54692 -0.155098,-0.75099 -0.114283,-0.20408 -0.261211,-0.35101 -0.399981,-0.48161 -0.13877,-0.13061 -0.269375,-0.24489 -0.163253,-0.40815 0.106121,-0.16326 0.448961,-0.3755 0.767318,-0.53876 0.318356,-0.16326 0.612212,-0.27754 0.881592,-0.33468 0.26938,-0.0571 0.514263,-0.0571 0.816296,-0.0408 0.302034,0.0163 0.66119,0.049 0.946895,0.13064 0.285706,0.0816 0.497937,0.21224 0.685695,0.32653 0.187758,0.11429 0.350994,0.21223 0.563234,0.29386 0.21224,0.0816 0.473446,0.14694 0.685694,0.1306 0.212248,-0.0163 0.375484,-0.11427 0.49793,-0.25305 0.122446,-0.13877 0.204074,-0.31835 0.244888,-0.40814 0.04081,-0.0898 0.04082,-0.0898 0.03266,-0.21228 z"
         id="path99"
         transform="translate(2.6245018,-4.4283561)"
         inkscape:original-d="m 98.346965,134.59037 c -0.01632,-0.24489 -0.03265,-0.48978 -0.04898,-0.73467 -0.179588,-0.22856 -0.359169,-0.45712 -0.538755,-0.68568 -0.424479,-0.14694 -0.848945,-0.29387 -1.273416,-0.4408 -0.506111,-0.098 -1.012203,-0.19591 -1.518306,-0.29387 -0.55509,0 -1.110157,0 -1.665237,0 -0.457131,0.21225 -0.914247,0.42448 -1.371373,0.63671 -0.326522,0.22857 -0.653034,0.45713 -0.979551,0.68569 -0.21224,0.22857 -0.424471,0.45712 -0.636706,0.68568 -0.08163,0.22857 -0.163259,0.45713 -0.244888,0.68569 -0.391829,-0.0163 -0.783643,-0.0326 -1.175462,-0.049 -0.310197,0.14694 -0.620384,0.29387 -0.930574,0.4408 -0.04898,0.22857 -0.09796,0.45712 -0.146933,0.68569 -0.01633,0.22856 -0.03265,0.45712 -0.04898,0.68568 0.130609,0.13061 0.261212,0.26122 0.391819,0.39183 -0.04898,0.11428 -0.09795,0.22856 -0.146931,0.34284 0.04898,0.24489 0.09795,0.48977 0.146931,0.73466 0.114284,0.11428 0.228563,0.22856 0.342844,0.34284 0.163261,0 0.326517,0 0.489776,0 0.08163,0.2449 0.163258,0.48978 0.244887,0.73467 0.228566,0.0979 0.457124,0.19591 0.685686,0.29386 0.228566,-0.11428 0.457124,-0.22856 0.685687,-0.34284 0.146936,-0.24489 0.293864,-0.48978 0.440798,-0.73466 -0.03265,-0.16327 -0.0653,-0.32652 -0.09796,-0.48978 -0.0653,-0.11428 -0.130606,-0.22856 -0.19591,-0.34284 0.179588,-0.11429 0.359169,-0.22856 0.538755,-0.34285 0.195913,0.13062 0.391819,0.26122 0.587729,0.39183 0.228569,0.0163 0.457126,0.0326 0.685687,0.049 0.163261,-0.3102 0.326517,-0.62038 0.489775,-0.93057 -0.08163,-0.26122 -0.163258,-0.52243 -0.244888,-0.78364 -0.146936,-0.14694 -0.293864,-0.29387 -0.440798,-0.4408 -0.130609,-0.11428 -0.261213,-0.22856 -0.391819,-0.34284 0.34285,-0.21224 0.685686,-0.42448 1.028528,-0.63671 0.293873,-0.11429 0.587732,-0.22856 0.881597,-0.34285 0.244893,0 0.489776,0 0.734663,0 0.359177,0.0327 0.718339,0.0653 1.077508,0.098 0.212238,0.13061 0.424471,0.26121 0.636707,0.39182 0.163261,0.098 0.326517,0.19591 0.489775,0.29387 0.261221,0.0653 0.522428,0.1306 0.783643,0.19591 0.163261,-0.098 0.326517,-0.19591 0.489775,-0.29387 0.08163,-0.17959 0.163259,-0.35917 0.244888,-0.53875 z"
         inkscape:path-effect="#path-effect262" /><path
         style="fill:#fefefe;fill-opacity:1;fill-rule:evenodd;stroke:#121212;stroke-width:0.165;stroke-linecap:butt;stroke-linejoin:miter;stroke-dasharray:none;stroke-opacity:0.339713"
         d="m 92.121713,137.83309 c 0.05,0.0163 0.149975,0.049 0.288755,-0.0336 0.138779,-0.0827 0.316315,-0.28059 0.22244,-0.53874 -0.09387,-0.25816 -0.459158,-0.57651 -0.766291,-0.8112 -0.307133,-0.23468 -0.556098,-0.3857 -0.813233,-0.47957 -0.257134,-0.0939 -0.522434,-0.13061 -0.785688,-0.0979 -0.263255,0.0326 -0.524463,0.13468 -0.718335,0.28774 -0.193871,0.15306 -0.320393,0.35713 -0.397941,0.62243 -0.07755,0.2653 -0.106118,0.59181 -0.08367,0.83466 0.02245,0.24285 0.09591,0.40202 0.220398,0.58568 0.124485,0.18367 0.299984,0.39182 0.465292,0.53264 0.165308,0.14081 0.320386,0.21427 0.440789,0.25101 0.120404,0.0367 0.206115,0.0367 0.310193,0.004 0.104078,-0.0326 0.226523,-0.098 0.290806,-0.19795 0.06428,-0.1 0.07041,-0.23468 0.05102,-0.37448 -0.01939,-0.13979 -0.06428,-0.28468 -0.0653,-0.40713 -0.001,-0.12245 0.04183,-0.22243 0.114271,-0.28875 0.07244,-0.0663 0.174498,-0.099 0.282646,-0.11118 0.108149,-0.0122 0.222437,-0.004 0.329577,0.0184 0.10714,0.0224 0.207141,0.0592 0.300001,0.0928 0.09286,0.0336 0.178579,0.0642 0.221426,0.0795 0.04285,0.0153 0.04284,0.0153 0.09284,0.0316 z"
         id="path100"
         transform="translate(2.5898694,-4.5235952)"
         sodipodi:nodetypes="ccccccccccccccccccccc"
         inkscape:original-d="m 92.071713,137.81676 c 0.09999,0.0327 0.199985,0.0653 0.299982,0.098 0.17755,-0.19796 0.355087,-0.3959 0.532634,-0.59385 -0.365297,-0.31836 -0.730579,-0.63671 -1.095875,-0.95507 -0.248973,-0.15101 -0.497938,-0.30202 -0.746906,-0.45304 -0.265303,-0.0367 -0.530593,-0.0735 -0.795888,-0.1102 -0.261218,0.10204 -0.522425,0.20408 -0.78364,0.30611 -0.126529,0.20408 -0.25305,0.40815 -0.379577,0.61222 -0.02857,0.32653 -0.05714,0.65304 -0.08571,0.97955 0.07347,0.15919 0.146931,0.31836 0.220398,0.47753 0.175506,0.20816 0.351007,0.41631 0.52651,0.62447 0.155099,0.0735 0.31019,0.14693 0.465286,0.2204 0.08571,0 0.171421,0 0.257133,0 0.122446,-0.0653 0.244888,-0.13061 0.367331,-0.19591 0.0061,-0.13469 0.01224,-0.26937 0.01837,-0.40406 -0.0449,-0.1449 -0.08979,-0.28979 -0.134688,-0.43469 0.04286,-0.1 0.08571,-0.19998 0.128564,-0.29998 0.102037,-0.0326 0.204073,-0.0653 0.30611,-0.0979 0.114282,0.008 0.22856,0.0163 0.342842,0.0245 0.100007,0.0367 0.199983,0.0735 0.299987,0.11019 0.08572,0.0306 0.171428,0.0612 0.257142,0.0917 z"
         inkscape:path-effect="#path-effect266" /><ellipse
         style="fill:#000000;fill-opacity:1;stroke:#000000;stroke-width:0.165;stroke-linecap:round;stroke-linejoin:round;stroke-dasharray:none;stroke-opacity:1"
         id="ellipse100"
         cx="95.196823"
         cy="133.28726"
         rx="0.20779425"
         ry="0.19047806" /><path
         style="fill:none;fill-rule:evenodd;stroke:#121212;stroke-width:0.165;stroke-linecap:butt;stroke-linejoin:miter;stroke-dasharray:none;stroke-opacity:1"
         d="m 90.681976,132.80269 c 0.14692,0.0816 0.293867,0.16325 0.440799,0.17142 0.146931,0.008 0.293861,-0.0572 0.379572,-0.1102 0.08571,-0.0531 0.110191,-0.0939 0.134693,-0.13469"
         id="path101"
         inkscape:original-d="m 90.681976,132.80269 c 0.146931,0.0816 0.293864,0.16326 0.440798,0.24488 0.146934,-0.0653 0.293865,-0.1306 0.440796,-0.19591 0.0245,-0.0408 0.04898,-0.0816 0.07347,-0.12244"
         inkscape:path-effect="#path-effect270" /><ellipse
         style="fill:#000000;fill-opacity:1;stroke:#000000;stroke-width:0.165;stroke-linecap:round;stroke-linejoin:round;stroke-dasharray:none;stroke-opacity:1"
         id="ellipse101"
         cx="90.624123"
         cy="132.87617"
         rx="0.20779425"
         ry="0.19047806" /><ellipse
         style="fill:#000000;fill-opacity:1;stroke:#000000;stroke-width:0.165;stroke-linecap:round;stroke-linejoin:round;stroke-dasharray:none;stroke-opacity:1"
         id="ellipse102"
         cx="92.460869"
         cy="135.19205"
         rx="0.20779425"
         ry="0.19047806" /><path
         style="fill:none;fill-rule:evenodd;stroke:#121212;stroke-width:0.165;stroke-linecap:butt;stroke-linejoin:miter;stroke-dasharray:none;stroke-opacity:1"
         d="m 91.416639,134.27201 c 0.12244,-0.0163 0.244879,-0.0327 0.346921,-0.10206 0.102041,-0.0694 0.183667,-0.19183 0.265298,-0.31428"
         id="path102"
         inkscape:original-d="m 91.416639,134.27201 c 0.122444,-0.0163 0.244888,-0.0326 0.367331,-0.049 0.08163,-0.12245 0.163259,-0.24489 0.244888,-0.36734"
         inkscape:path-effect="#path-effect278" /><ellipse
         style="fill:#000000;fill-opacity:1;stroke:#000000;stroke-width:0.165;stroke-linecap:round;stroke-linejoin:round;stroke-dasharray:none;stroke-opacity:1"
         id="ellipse103"
         cx="91.456825"
         cy="134.33495"
         rx="0.20779425"
         ry="0.19047806" /></g></g></svg>
