<?xml version="1.0" encoding="UTF-8" standalone="no"?>
<!-- Created with Inkscape (http://www.inkscape.org/) -->

<svg
   width="20.485025mm"
   height="17.988756mm"
   viewBox="0 0 20.485025 17.988756"
   version="1.1"
   id="svg1"
   xml:space="preserve"
   inkscape:version="1.3 (0e150ed6c4, 2023-07-21)"
   sodipodi:docname="WolfHeadEyeHurt.svg"
   xmlns:inkscape="http://www.inkscape.org/namespaces/inkscape"
   xmlns:sodipodi="http://sodipodi.sourceforge.net/DTD/sodipodi-0.dtd"
   xmlns:xlink="http://www.w3.org/1999/xlink"
   xmlns="http://www.w3.org/2000/svg"
   xmlns:svg="http://www.w3.org/2000/svg"><sodipodi:namedview
     id="namedview1"
     pagecolor="#505050"
     bordercolor="#eeeeee"
     borderopacity="1"
     inkscape:showpageshadow="0"
     inkscape:pageopacity="0"
     inkscape:pagecheckerboard="0"
     inkscape:deskcolor="#d1d1d1"
     inkscape:document-units="mm"
     inkscape:zoom="0.47748555"
     inkscape:cx="103.66806"
     inkscape:cy="-39.79178"
     inkscape:window-width="1280"
     inkscape:window-height="961"
     inkscape:window-x="-8"
     inkscape:window-y="-8"
     inkscape:window-maximized="1"
     inkscape:current-layer="layer1" /><defs
     id="defs1"><inkscape:path-effect
       effect="bspline"
       id="path-effect572"
       is_visible="true"
       lpeversion="1.3"
       weight="33.333333"
       steps="2"
       helper_size="0"
       apply_no_weight="true"
       apply_with_weight="true"
       only_selected="false"
       uniform="false" /><inkscape:path-effect
       effect="bspline"
       id="path-effect570"
       is_visible="true"
       lpeversion="1.3"
       weight="33.333333"
       steps="2"
       helper_size="0"
       apply_no_weight="true"
       apply_with_weight="true"
       only_selected="false"
       uniform="false" /><inkscape:path-effect
       effect="bspline"
       id="path-effect561"
       is_visible="true"
       lpeversion="1.3"
       weight="33.333333"
       steps="2"
       helper_size="0"
       apply_no_weight="true"
       apply_with_weight="true"
       only_selected="false"
       uniform="false" /><inkscape:path-effect
       effect="bspline"
       id="path-effect557"
       is_visible="true"
       lpeversion="1.3"
       weight="33.333333"
       steps="2"
       helper_size="0"
       apply_no_weight="true"
       apply_with_weight="true"
       only_selected="false"
       uniform="false" /><inkscape:path-effect
       effect="bspline"
       id="path-effect531"
       is_visible="true"
       lpeversion="1.3"
       weight="33.333333"
       steps="2"
       helper_size="0"
       apply_no_weight="true"
       apply_with_weight="true"
       only_selected="false"
       uniform="false" /><inkscape:path-effect
       effect="bspline"
       id="path-effect519"
       is_visible="true"
       lpeversion="1.3"
       weight="33.333333"
       steps="2"
       helper_size="0"
       apply_no_weight="true"
       apply_with_weight="true"
       only_selected="false"
       uniform="false" /><inkscape:path-effect
       effect="bspline"
       id="path-effect515"
       is_visible="true"
       lpeversion="1.3"
       weight="33.333333"
       steps="2"
       helper_size="0"
       apply_no_weight="true"
       apply_with_weight="true"
       only_selected="false"
       uniform="false" /><inkscape:path-effect
       effect="bspline"
       id="path-effect511"
       is_visible="true"
       lpeversion="1.3"
       weight="33.333333"
       steps="2"
       helper_size="0"
       apply_no_weight="true"
       apply_with_weight="true"
       only_selected="false"
       uniform="false" /><inkscape:path-effect
       effect="bspline"
       id="path-effect507"
       is_visible="true"
       lpeversion="1.3"
       weight="33.333333"
       steps="2"
       helper_size="0"
       apply_no_weight="true"
       apply_with_weight="true"
       only_selected="false"
       uniform="false" /><linearGradient
       id="linearGradient43"
       inkscape:collect="always"><stop
         style="stop-color:#33241d;stop-opacity:1;"
         offset="0"
         id="stop43" /><stop
         style="stop-color:#33241a;stop-opacity:1;"
         offset="0.23644067"
         id="stop46" /><stop
         style="stop-color:#554941;stop-opacity:1;"
         offset="0.3677966"
         id="stop45" /><stop
         style="stop-color:#786e65;stop-opacity:1;"
         offset="1"
         id="stop44" /></linearGradient><linearGradient
       id="linearGradient40"
       inkscape:collect="always"><stop
         style="stop-color:#e4ddd0;stop-opacity:1;"
         offset="0"
         id="stop40" /><stop
         style="stop-color:#8f8a81;stop-opacity:1;"
         offset="1"
         id="stop41" /></linearGradient><linearGradient
       id="linearGradient38"
       inkscape:collect="always"><stop
         style="stop-color:#431d09;stop-opacity:1;"
         offset="0"
         id="stop38" /><stop
         style="stop-color:#290c01;stop-opacity:1;"
         offset="1"
         id="stop39" /></linearGradient><linearGradient
       inkscape:collect="always"
       xlink:href="#linearGradient43"
       id="linearGradient539"
       gradientUnits="userSpaceOnUse"
       gradientTransform="translate(75.250232,-46.140457)"
       x1="98.963112"
       y1="113.65614"
       x2="99.130547"
       y2="126.58623" /><linearGradient
       inkscape:collect="always"
       xlink:href="#linearGradient40"
       id="linearGradient540"
       gradientUnits="userSpaceOnUse"
       x1="90.229111"
       y1="125.82314"
       x2="106.96267"
       y2="125.82314" /><linearGradient
       inkscape:collect="always"
       xlink:href="#linearGradient38"
       id="linearGradient541"
       gradientUnits="userSpaceOnUse"
       x1="89.91188"
       y1="126.07872"
       x2="89.825188"
       y2="130.61555" /></defs><g
     inkscape:label="Layer 1"
     inkscape:groupmode="layer"
     id="layer1"
     transform="translate(-163.03007,-67.694266)"><g
       id="g582"><path
         style="fill:url(#linearGradient539);fill-rule:evenodd;stroke:#121212;stroke-width:0.165;stroke-linecap:butt;stroke-linejoin:miter;stroke-dasharray:none;stroke-opacity:1"
         d="m 182.4783,67.797802 c -0.13878,-0.0163 -0.45716,0.0571 -0.80409,0.19586 -0.34692,0.13877 -0.72205,0.34266 -1.09347,0.54674 -0.37141,0.20407 -0.73888,0.40818 -1.05316,0.60409 -0.31428,0.19592 -0.57523,0.38364 -0.86093,0.59997 -0.28571,0.21632 -0.5962,0.46147 -0.86558,0.70228 -0.26938,0.24081 -0.49802,0.47714 -0.7674,0.73019 -0.26938,0.25305 -0.5795,0.52285 -0.79582,0.71468 -0.21631,0.19183 -0.33885,0.30568 -0.44906,0.40773 -0.11022,0.10205 -0.20788,0.19216 -0.29766,0.26562 -0.0898,0.0734 -0.17162,0.13026 -0.1757,0.0527 -0.004,-0.0775 0.0694,-0.28931 0.20412,-0.60358 0.13469,-0.31428 0.33087,-0.7307 0.5023,-1.13069 0.17142,-0.39999 0.31789,-0.78374 0.44441,-1.08985 0.12653,-0.30611 0.23309,-0.53449 0.35554,-0.74673 0.12244,-0.21223 0.26074,-0.40849 0.36277,-0.54725 0.10202,-0.13876 0.1678,-0.22036 0.23719,-0.31833 0.0694,-0.098 0.14266,-0.21219 0.0651,-0.23667 -0.0776,-0.0245 -0.30625,0.0408 -0.61236,0.16329 -0.30612,0.12245 -0.68981,0.3023 -1.0449,0.5023 -0.35509,0.19999 -0.68122,0.42012 -1.01182,0.62012 -0.3306,0.19999 -0.66562,0.37971 -0.98805,0.57154 -0.32244,0.19183 -0.63234,0.39595 -0.93845,0.68574 -0.30611,0.28979 -0.60809,0.66526 -0.87746,0.99994 -0.26938,0.33469 -0.50638,0.62845 -0.74311,0.91416 -0.23673,0.2857 -0.47326,0.56334 -0.7059,0.84904 -0.23265,0.28571 -0.46141,0.57941 -0.65733,0.8692 -0.19591,0.28979 -0.35924,0.57522 -0.52658,0.86093 -0.16734,0.2857 -0.33862,0.57166 -0.51005,0.74104 -0.17142,0.16938 -0.34258,0.22236 -0.50074,0.35398 -0.15816,0.13163 -0.30323,0.34192 -0.37465,0.56844 -0.0714,0.22652 -0.0696,0.46928 -0.0992,0.75396 -0.0296,0.28468 -0.0909,0.61134 -0.12558,0.85215 -0.0347,0.2408 -0.0426,0.39597 -0.10387,0.52658 -0.0612,0.13061 -0.17521,0.23633 -0.29765,0.28939 -0.12245,0.0531 -0.25351,0.0531 -0.39636,0.045 -0.14285,-0.008 -0.2978,-0.0242 -0.4284,-0.061 -0.1306,-0.0367 -0.23661,-0.094 -0.35088,-0.12661 -0.11428,-0.0327 -0.23654,-0.0408 -0.2651,0.004 -0.0286,0.0449 0.0367,0.14285 0.11834,0.24082 0.0816,0.098 0.17909,0.19583 0.32194,0.31419 0.14285,0.11836 0.33087,0.25707 0.50229,0.39584 0.17143,0.13877 0.32628,0.27784 0.54261,0.38396 0.21632,0.10612 0.49405,0.17949 0.85731,0.23254 0.36326,0.0531 0.81241,0.0858 1.29811,0.045 0.4857,-0.0408 1.00812,-0.15528 1.52239,-0.33486 0.51427,-0.17959 1.02004,-0.42469 1.45676,-0.69815 0.43672,-0.27346 0.80402,-0.57522 1.19992,-0.82011 0.39591,-0.24489 0.82043,-0.43294 1.32654,-0.62477 0.5061,-0.19183 1.09395,-0.38748 1.6123,-0.50177 0.51835,-0.11429 0.96721,-0.14721 1.35496,-0.10232 0.38774,0.0449 0.71454,0.1676 0.94309,0.22066 0.22856,0.053 0.35896,0.0366 0.42427,0.0284 0.0653,-0.008 0.065,-0.008 0.10283,-0.14573 0.0378,-0.13761 0.11367,-0.41276 0.14573,-0.66869 0.0321,-0.25593 0.0207,-0.49228 0.0351,-0.76068 0.0144,-0.2684 0.0545,-0.5689 0.12092,-0.89504 0.0664,-0.32613 0.15867,-0.67795 0.24237,-1.00407 0.0837,-0.32612 0.1591,-0.62636 0.27698,-1.03611 0.11789,-0.40975 0.2785,-0.92888 0.45682,-1.38855 0.17832,-0.45967 0.37402,-0.85998 0.52503,-1.22731 0.15102,-0.36734 0.25727,-0.70188 0.37156,-0.99167 0.11428,-0.28979 0.2367,-0.53454 0.35915,-0.75086 0.12244,-0.21632 0.24496,-0.40423 0.32659,-0.53485 0.0816,-0.13062 0.12248,-0.20373 0.1633,-0.29352 0.0408,-0.0898 0.0814,-0.19607 -0.0574,-0.2124 z"
         id="path496" /><path
         style="fill:#ffffff;fill-opacity:1;fill-rule:evenodd;stroke:none;stroke-width:0.264583px;stroke-linecap:butt;stroke-linejoin:miter;stroke-opacity:1"
         d="m 102.77944,118.64409 c 0.2204,-0.004 0.66119,-0.0123 0.96322,-0.15511 0.30203,-0.14286 0.46529,-0.42039 0.5959,-0.64896 0.13061,-0.22858 0.22856,-0.40814 0.31019,-0.58365 0.0816,-0.1755 0.14693,-0.34692 0.0979,-0.4408 -0.049,-0.0939 -0.21223,-0.11021 -0.41223,-10e-6 -0.19999,0.1102 -0.43671,0.34692 -0.63671,0.53467 -0.19999,0.18775 -0.36325,0.32652 -0.52242,0.46937 -0.15918,0.14285 -0.31427,0.28979 -0.41631,0.42856 -0.10204,0.13878 -0.15102,0.26939 -0.1755,0.33468 -0.0245,0.0653 -0.0245,0.0653 0.19591,0.0613 z"
         id="path497"
         transform="translate(75.250232,-46.140457)"
         inkscape:original-d="m 102.55904,118.64817 c 0.4408,-0.008 0.88159,-0.0163 1.32239,-0.0245 0.16326,-0.27755 0.32652,-0.55508 0.48977,-0.83262 0.098,-0.17959 0.19592,-0.35917 0.29387,-0.53875 0.0653,-0.17143 0.13061,-0.34285 0.19591,-0.51427 -0.16326,-0.0163 -0.32652,-0.0326 -0.48978,-0.049 -0.23672,0.23673 -0.47344,0.47345 -0.71017,0.71018 -0.16326,0.13877 -0.32652,0.27754 -0.48977,0.41631 -0.1551,0.14693 -0.3102,0.29386 -0.46529,0.4408 -0.049,0.13061 -0.098,0.26121 -0.14693,0.39182 z"
         inkscape:path-effect="#path-effect507" /><path
         style="fill:#ffffff;fill-opacity:1;fill-rule:evenodd;stroke:none;stroke-width:0.264583px;stroke-linecap:butt;stroke-linejoin:miter;stroke-opacity:1"
         d="m 97.526589,118.90938 c 0.232642,0.0163 0.697934,0.049 1.016289,-0.13065 0.318355,-0.1796 0.489772,-0.57141 0.612217,-0.87344 0.122444,-0.30203 0.195908,-0.51426 0.25305,-0.67344 0.05714,-0.15918 0.09796,-0.2653 -0.03265,-0.26121 -0.130609,0.004 -0.432632,0.11836 -0.69793,0.29794 -0.265298,0.17959 -0.493859,0.42448 -0.685687,0.64079 -0.191828,0.21632 -0.346922,0.40407 -0.461203,0.5306 -0.114281,0.12652 -0.187744,0.19182 -0.220397,0.25712 -0.03265,0.0653 -0.02448,0.13061 -0.0204,0.16326 0.0041,0.0327 0.0041,0.0327 0.236715,0.049 z"
         id="path498"
         transform="translate(75.250232,-46.140457)"
         inkscape:original-d="m 97.293947,118.89306 c 0.465286,0.0326 0.930574,0.0653 1.39586,0.0979 0.171426,-0.39183 0.342844,-0.78364 0.514265,-1.17546 0.07347,-0.21224 0.146934,-0.42447 0.220398,-0.63671 0.04082,-0.10612 0.08163,-0.21224 0.122444,-0.31835 -0.302032,0.11428 -0.604054,0.22856 -0.906084,0.34284 -0.228566,0.24489 -0.457123,0.48978 -0.685686,0.73466 -0.155099,0.18775 -0.310192,0.3755 -0.465286,0.56325 -0.07347,0.0653 -0.146934,0.1306 -0.2204,0.19591 0.0081,0.0653 0.01632,0.1306 0.0245,0.19591 z"
         inkscape:path-effect="#path-effect511" /><path
         style="fill:url(#linearGradient540);fill-rule:evenodd;stroke:none;stroke-width:0.264583px;stroke-linecap:butt;stroke-linejoin:miter;stroke-opacity:1"
         d="m 106.62154,124.89588 c -0.21934,0.0462 -0.65802,0.13853 -1.00027,0.0712 -0.34225,-0.0673 -0.58804,-0.2942 -0.73806,-0.51564 -0.15001,-0.22143 -0.20424,-0.43739 -0.23678,-0.6839 -0.0326,-0.24652 -0.0434,-0.52357 -0.0682,-0.70785 -0.0248,-0.18428 -0.0635,-0.27583 -0.37562,-0.44112 -0.31211,-0.1653 -0.89758,-0.40434 -1.4443,-0.61045 -0.54672,-0.20611 -1.05465,-0.37926 -1.45293,-0.50048 -0.39829,-0.12122 -0.68687,-0.19048 -0.96393,-0.23666 -0.27706,-0.0462 -0.542574,-0.0693 -0.848497,0.15583 -0.305923,0.22511 -0.652239,0.69841 -0.940844,1.1775 -0.288605,0.47908 -0.519485,0.96393 -0.80232,1.37375 -0.282835,0.40982 -0.617606,0.74459 -0.923528,1.06206 -0.305921,0.31746 -0.582974,0.6176 -0.981252,0.83117 -0.398277,0.21357 -0.917754,0.34055 -1.431472,0.39828 -0.513717,0.0577 -1.02165,0.0462 -1.385291,0.0289 -0.363642,-0.0173 -0.582977,-0.0404 -0.929087,-0.24874 -0.346109,-0.20833 -0.818916,-0.60182 -0.949734,-0.62143 -0.130819,-0.0196 0.0804,0.33466 0.13091,0.51384 0.05051,0.17918 -0.05968,0.18324 -0.231109,0.31385 -0.171428,0.1306 -0.404065,0.38772 -0.532632,0.63261 -0.128567,0.24489 -0.153056,0.47753 -0.155097,0.72854 -0.002,0.25102 0.01837,0.52039 0.07959,0.80406 0.06122,0.28366 0.163256,0.5816 0.265295,0.80812 0.102038,0.22653 0.204072,0.38162 0.573451,0.5612 0.36938,0.17959 1.006076,0.38366 1.69789,0.49386 0.691814,0.1102 1.438709,0.12654 2.216235,0.11634 0.777525,-0.0102 1.585643,-0.0469 2.259088,-0.16122 0.673445,-0.11428 1.212191,-0.30611 2.008087,-0.66324 0.795899,-0.35714 1.848899,-0.87955 2.856189,-1.37164 1.0073,-0.49208 1.96883,-0.9538 2.69781,-1.35206 0.72898,-0.39825 1.22537,-0.73303 1.49088,-1.05626 0.26551,-0.32324 0.30015,-0.63493 0.31746,-0.79078 0.0173,-0.15584 0.0174,-0.15583 -0.20193,-0.10966 z"
         id="path499"
         transform="translate(75.146335,-46.17509)"
         sodipodi:nodetypes="cccccccccccccccccccccccccccccccccc"
         inkscape:original-d="m 106.84087,124.84971 c -0.43868,0.0923 -0.87735,0.1847 -1.31603,0.27705 -0.24582,-0.22693 -0.49161,-0.45384 -0.73742,-0.68076 -0.0542,-0.21596 -0.10844,-0.43191 -0.16267,-0.64787 -0.0109,-0.27707 -0.0217,-0.55412 -0.0326,-0.83118 -0.0387,-0.0915 -0.0774,-0.18306 -0.11615,-0.27459 -0.5855,-0.23905 -1.17097,-0.47809 -1.75646,-0.71714 -0.50795,-0.17317 -1.01588,-0.34632 -1.52383,-0.51949 -0.28861,-0.0693 -0.5772,-0.13853 -0.8658,-0.20779 -0.26552,-0.0231 -0.531034,-0.0462 -0.796548,-0.0693 -0.346332,0.47332 -0.692648,0.94662 -1.038972,1.41993 -0.230888,0.48486 -0.461766,0.96971 -0.692647,1.45456 -0.334788,0.33479 -0.66956,0.66956 -1.00434,1.00434 -0.277064,0.30015 -0.554117,0.60029 -0.831178,0.90044 -0.519493,0.12699 -1.038971,0.25397 -1.558456,0.38096 -0.50795,-0.0115 -1.015881,-0.0231 -1.523823,-0.0346 -0.219342,-0.0231 -0.438677,-0.0462 -0.658016,-0.0693 -0.47288,-0.39355 -0.945685,-0.78704 -1.418558,-1.18058 0.211234,0.35431 0.422453,0.70859 0.633674,1.06288 -0.110202,0.004 -0.220398,0.008 -0.330597,0.0122 -0.232648,0.25714 -0.465288,0.51426 -0.697931,0.77139 -0.0245,0.23265 -0.04898,0.46529 -0.07347,0.69793 0.0204,0.26939 0.04082,0.53876 0.06122,0.80813 0.102039,0.29796 0.204073,0.5959 0.30611,0.89385 0.102039,0.1551 0.204073,0.31019 0.306109,0.46528 0.636723,0.20408 1.273419,0.40815 1.910125,0.61222 0.746924,0.0163 1.493817,0.0327 2.240725,0.049 0.808146,-0.0367 1.61626,-0.0735 2.42439,-0.1102 0.538763,-0.19183 1.077508,-0.38366 1.61626,-0.57549 1.053043,-0.52243 2.106043,-1.04485 3.159063,-1.56728 0.96157,-0.46174 1.9231,-0.92346 2.88465,-1.38519 0.49641,-0.33478 0.9928,-0.66955 1.48919,-1.00433 0.0346,-0.3117 0.0693,-0.62339 0.1039,-0.93508 z"
         inkscape:path-effect="#path-effect515" /><path
         style="fill:#ffffff;fill-opacity:1;fill-rule:evenodd;stroke:#121212;stroke-width:0.165;stroke-linecap:butt;stroke-linejoin:miter;stroke-dasharray:none;stroke-opacity:1"
         d="m 107.85885,127.41722 c -0.19415,0.28178 -0.58243,0.84533 -1.10653,1.37673 -0.5241,0.53139 -1.18396,1.03057 -1.94139,1.43369 -0.75742,0.40311 -1.61236,0.71013 -2.57325,0.9679 -0.9609,0.25777 -2.03484,0.46766 -3.697581,0.52667 -1.662741,0.059 -3.959332,-0.0313 -5.348879,-0.13353 -1.389548,-0.10226 -1.88734,-0.21713 -2.292087,-0.35537 -0.404747,-0.13824 -0.716432,-0.29985 -0.947317,-0.48456 -0.230885,-0.18471 -0.380956,-0.3925 -0.444448,-0.61184 -0.06349,-0.21934 -0.0404,-0.45022 0.225114,-0.55411 0.26552,-0.10389 0.773451,-0.0808 1.223678,-0.0461 0.450227,0.0346 0.84272,0.0808 1.28717,0.12122 0.44445,0.0404 0.940843,0.075 1.489193,0.0981 0.548349,0.0231 1.148635,0.0346 1.662352,0.0288 0.513717,-0.006 0.940842,-0.0289 1.339118,-0.0924 0.398276,-0.0635 0.767678,-0.16739 1.108234,-0.29438 0.340556,-0.12699 0.652242,-0.27706 0.911985,-0.42136 0.259744,-0.1443 0.467535,-0.28283 0.727283,-0.51949 0.259748,-0.23666 0.571435,-0.57143 0.860035,-0.83695 0.28861,-0.26551 0.55412,-0.46176 0.86581,-0.66379 0.3117,-0.20202 0.66956,-0.40981 1.05052,-0.55411 0.38096,-0.1443 0.78499,-0.22511 1.20636,-0.31602 0.42137,-0.0909 0.86002,-0.19192 1.19048,-0.29437 0.33046,-0.10246 0.55268,-0.20636 0.82541,-0.37808 0.27274,-0.17172 0.59596,-0.41125 0.83839,-0.61472 0.24243,-0.20347 0.40404,-0.37085 0.54979,-0.57143 0.14574,-0.20058 0.27561,-0.43434 0.35641,-0.73594 0.0808,-0.30161 0.11254,-0.671 0.20777,-0.65802 0.0952,0.013 0.25396,0.40837 0.35498,0.7547 0.10101,0.34633 0.14432,0.64358 0.17175,0.91487 0.0274,0.27129 0.039,0.51659 0.0303,0.79511 -0.009,0.27851 -0.0375,0.59018 -0.12699,0.87735 -0.0895,0.28717 -0.23953,0.54978 -0.47764,0.80375 -0.2381,0.25398 -0.56421,0.49929 -0.79655,0.66813 -0.23233,0.16884 -0.37084,0.26118 -0.29725,0.29004 0.0736,0.0289 0.3593,-0.006 0.60174,-0.12122 0.24243,-0.11544 0.44157,-0.31169 0.6104,-0.45022 0.16883,-0.13852 0.30736,-0.21933 0.42992,-0.31478 0.12256,-0.0955 0.22912,-0.20552 0.24643,-0.19397 0.0173,0.0115 -0.0546,0.1447 -0.0906,0.21128 -0.036,0.0666 -0.036,0.0666 -0.23016,0.34841 z"
         id="path500"
         sodipodi:nodetypes="scccaccccccccccccccccccccccccccccccccccss"
         transform="translate(75.250232,-46.140457)"
         inkscape:original-d="m 108.053,127.13544 c -0.3883,0.56356 -0.77659,1.12711 -1.16489,1.69069 -0.65989,0.49921 -1.31975,0.99839 -1.97963,1.49759 -0.85497,0.30704 -1.70991,0.61405 -2.56489,0.92109 -1.06681,0.2085 -2.14075,0.41839 -3.200348,0.62548 -2.276276,0.17531 -4.562475,-0.17934 -6.843766,-0.26901 -0.497805,-0.11486 -0.995595,-0.22973 -1.493392,-0.34459 -0.311698,-0.16162 -0.623385,-0.32323 -0.935075,-0.48485 -0.150077,-0.2078 -0.300149,-0.41559 -0.45022,-0.62338 0.0231,-0.23089 0.04618,-0.46177 0.06926,-0.69265 0.507953,0.0231 1.015884,0.0462 1.523826,0.0693 0.392509,0.0462 0.785,0.0924 1.177501,0.13853 0.496406,0.0346 0.992794,0.0693 1.489192,0.10389 0.600305,0.0115 1.200589,0.0231 1.800884,0.0346 0.42714,-0.0231 0.854265,-0.0462 1.281398,-0.0693 0.369419,-0.1039 0.738822,-0.20779 1.108236,-0.31169 0.311695,-0.15008 0.623382,-0.30015 0.935072,-0.45022 0.207799,-0.13853 0.415589,-0.27706 0.623385,-0.41559 0.311698,-0.33479 0.623387,-0.66956 0.935077,-1.00434 0.26552,-0.19625 0.53103,-0.3925 0.79654,-0.58875 0.35788,-0.2078 0.71574,-0.41559 1.07361,-0.62338 0.40405,-0.0808 0.80808,-0.16162 1.21213,-0.24243 0.43869,-0.10101 0.87734,-0.20202 1.31603,-0.30303 0.22223,-0.1039 0.44445,-0.2078 0.66668,-0.3117 0.32324,-0.23954 0.64646,-0.47907 0.9697,-0.71862 0.16162,-0.16739 0.32323,-0.33477 0.48485,-0.50216 0.12987,-0.23377 0.25974,-0.46753 0.38961,-0.70131 0.0317,-0.36943 0.0635,-0.73882 0.0952,-1.10824 0.15873,0.39539 0.31746,0.79077 0.47619,1.18616 0.0433,0.29727 0.0866,0.59452 0.12991,0.89178 0.0115,0.24532 0.0231,0.49062 0.0347,0.73595 -0.0289,0.3117 -0.0577,0.62337 -0.0866,0.93507 -0.15008,0.26264 -0.30014,0.52525 -0.45022,0.78788 -0.32613,0.24532 -0.65224,0.49063 -0.97836,0.73594 -0.13853,0.0924 -0.27706,0.18471 -0.41559,0.27706 0.28571,-0.0346 0.57142,-0.0693 0.85715,-0.1039 0.19914,-0.19625 0.39828,-0.3925 0.59741,-0.58875 0.13853,-0.0808 0.27706,-0.16161 0.41559,-0.24242 0.10659,-0.1101 0.21315,-0.22016 0.31973,-0.33024 -0.072,0.13316 -0.14389,0.26633 -0.21584,0.3995 z"
         inkscape:path-effect="#path-effect519" /><path
         style="fill:url(#linearGradient541);fill-rule:evenodd;stroke:#2a0d01;stroke-width:0.165;stroke-linecap:butt;stroke-linejoin:miter;stroke-dasharray:none;stroke-opacity:1"
         d="m 89.830605,130.61022 c 0.167391,-0.0231 0.502161,-0.0693 0.784997,-0.10967 0.282835,-0.0404 0.513721,-0.075 0.692656,-0.17316 0.178935,-0.0981 0.305914,-0.25974 0.386723,-0.51948 0.08081,-0.25975 0.115441,-0.61761 0.132758,-1.04475 0.01732,-0.42714 0.01732,-0.92352 -0.0058,-1.34489 -0.02309,-0.42136 -0.06927,-0.76768 -0.196251,-0.98124 -0.126985,-0.21357 -0.33478,-0.29438 -0.600297,-0.32323 -0.265517,-0.0289 -0.588748,-0.006 -0.917758,0.0116 -0.329011,0.0173 -0.663785,0.0289 -0.952395,0.0692 -0.28861,0.0404 -0.531024,0.10966 -0.721502,0.24819 -0.190479,0.13853 -0.329006,0.34632 -0.415587,0.57143 -0.08658,0.22511 -0.121211,0.46753 -0.121211,0.72728 1e-6,0.25975 0.03463,0.5368 0.10967,0.83118 0.07504,0.29438 0.190476,0.60606 0.334779,0.8658 0.144303,0.25975 0.31746,0.46754 0.50794,0.64648 0.190479,0.17893 0.398269,0.329 0.536802,0.41559 0.138533,0.0866 0.207795,0.10969 0.242426,0.12124 0.03463,0.0115 0.03463,0.0115 0.202023,-0.0116 z"
         id="path503"
         transform="translate(75.2156,-46.140457)"
         inkscape:original-d="m 89.663213,130.63331 c 0.33478,-0.0462 0.66956,-0.0923 1.00434,-0.13853 0.230889,-0.0346 0.461764,-0.0693 0.692648,-0.10389 0.126989,-0.16163 0.25397,-0.32324 0.380957,-0.48486 0.03463,-0.35787 0.06926,-0.71573 0.103897,-1.0736 0,-0.49641 0,-0.99279 0,-1.48919 -0.04618,-0.34633 -0.09235,-0.69265 -0.138531,-1.03897 -0.207798,-0.0808 -0.415589,-0.16162 -0.623382,-0.24243 -0.323241,0.0231 -0.646472,0.0462 -0.969706,0.0693 -0.334788,0.0115 -0.66956,0.0231 -1.00434,0.0346 -0.242432,0.0693 -0.484854,0.13853 -0.727278,0.20779 -0.138533,0.2078 -0.277061,0.41559 -0.415589,0.62338 -0.03463,0.24243 -0.06927,0.48485 -0.103897,0.72728 0.03463,0.27707 0.06926,0.55412 0.103897,0.83118 0.115443,0.3117 0.23088,0.62338 0.346323,0.93507 0.173165,0.2078 0.346324,0.41559 0.519486,0.62339 0.207798,0.15007 0.415589,0.30014 0.623382,0.45022 0.06927,0.0231 0.138531,0.0462 0.207793,0.0693 z"
         inkscape:path-effect="#path-effect531" /><ellipse
         style="fill:#ffffff;fill-opacity:0.643192;stroke:none;stroke-width:0.465;stroke-linecap:round;stroke-linejoin:round;stroke-dasharray:none;stroke-opacity:1"
         id="ellipse503"
         ry="0.30610985"
         rx="0.46528694"
         cy="80.737808"
         cx="163.91808" /><g
         id="g554"
         transform="rotate(7.4358,501.46355,492.56422)"
         inkscape:transform-center-x="0.032302308"
         inkscape:transform-center-y="-0.056863744"><path
           style="fill:none;fill-rule:evenodd;stroke:#000000;stroke-width:0.365;stroke-linecap:round;stroke-linejoin:miter;stroke-dasharray:none;stroke-opacity:1"
           d="m 123.08346,122.77176 c 0.75036,0.75037 1.50073,1.50074 2.2511,2.25111"
           id="path553"
           inkscape:original-d="m 123.08346,122.77176 c 0.75036,0.75037 1.50073,1.50074 2.2511,2.25111"
           inkscape:path-effect="#path-effect557" /><path
           style="fill:none;fill-rule:evenodd;stroke:#000000;stroke-width:0.365;stroke-linecap:round;stroke-linejoin:miter;stroke-dasharray:none;stroke-opacity:1"
           d="m 123.08346,122.77176 c 0.75036,0.75037 1.50073,1.50074 2.2511,2.25111"
           id="path554"
           transform="matrix(-1,0,0,1,248.41802,0)"
           inkscape:original-d="m 123.08346,122.77176 c 0.75036,0.75037 1.50073,1.50074 2.2511,2.25111"
           inkscape:path-effect="#path-effect561" /></g><g
         id="g568"
         transform="rotate(7.4358,500.29592,453.88303)"
         inkscape:transform-center-x="0.032302308"
         inkscape:transform-center-y="-0.056863744"><path
           style="fill:none;fill-rule:evenodd;stroke:#000000;stroke-width:0.365;stroke-linecap:round;stroke-linejoin:miter;stroke-dasharray:none;stroke-opacity:1"
           d="m 123.08346,122.77176 c 0.75036,0.75037 1.50073,1.50074 2.2511,2.25111"
           id="path567"
           inkscape:original-d="m 123.08346,122.77176 c 0.75036,0.75037 1.50073,1.50074 2.2511,2.25111"
           inkscape:path-effect="#path-effect570" /><path
           style="fill:none;fill-rule:evenodd;stroke:#000000;stroke-width:0.365;stroke-linecap:round;stroke-linejoin:miter;stroke-dasharray:none;stroke-opacity:1"
           d="m 123.08346,122.77176 c 0.75036,0.75037 1.50073,1.50074 2.2511,2.25111"
           id="path568"
           transform="matrix(-1,0,0,1,248.41802,0)"
           inkscape:original-d="m 123.08346,122.77176 c 0.75036,0.75037 1.50073,1.50074 2.2511,2.25111"
           inkscape:path-effect="#path-effect572" /></g></g></g></svg>
