<?xml version="1.0" encoding="UTF-8" standalone="no"?>
<!-- Created with Inkscape (http://www.inkscape.org/) -->

<svg
   width="8.9471188mm"
   height="11.131239mm"
   viewBox="0 0 8.9471188 11.131239"
   version="1.1"
   id="svg1"
   xml:space="preserve"
   inkscape:version="1.3 (0e150ed6c4, 2023-07-21)"
   sodipodi:docname="WolfLeftLeg.svg"
   xmlns:inkscape="http://www.inkscape.org/namespaces/inkscape"
   xmlns:sodipodi="http://sodipodi.sourceforge.net/DTD/sodipodi-0.dtd"
   xmlns:xlink="http://www.w3.org/1999/xlink"
   xmlns="http://www.w3.org/2000/svg"
   xmlns:svg="http://www.w3.org/2000/svg"><sodipodi:namedview
     id="namedview1"
     pagecolor="#505050"
     bordercolor="#eeeeee"
     borderopacity="1"
     inkscape:showpageshadow="0"
     inkscape:pageopacity="0"
     inkscape:pagecheckerboard="0"
     inkscape:deskcolor="#d1d1d1"
     inkscape:document-units="mm"
     inkscape:zoom="1.3505331"
     inkscape:cx="-102.5521"
     inkscape:cy="-27.396589"
     inkscape:window-width="1280"
     inkscape:window-height="961"
     inkscape:window-x="-8"
     inkscape:window-y="-8"
     inkscape:window-maximized="1"
     inkscape:current-layer="layer1" /><defs
     id="defs1"><inkscape:path-effect
       effect="bspline"
       id="path-effect234"
       is_visible="true"
       lpeversion="1.3"
       weight="33.333333"
       steps="2"
       helper_size="0"
       apply_no_weight="true"
       apply_with_weight="true"
       only_selected="false"
       uniform="false" /><inkscape:path-effect
       effect="bspline"
       id="path-effect107"
       is_visible="true"
       lpeversion="1.3"
       weight="33.333333"
       steps="2"
       helper_size="0"
       apply_no_weight="true"
       apply_with_weight="true"
       only_selected="false"
       uniform="false" /><inkscape:path-effect
       effect="bspline"
       id="path-effect105"
       is_visible="true"
       lpeversion="1.3"
       weight="33.333333"
       steps="2"
       helper_size="0"
       apply_no_weight="true"
       apply_with_weight="true"
       only_selected="false"
       uniform="false" /><inkscape:path-effect
       effect="bspline"
       id="path-effect103"
       is_visible="true"
       lpeversion="1.3"
       weight="33.333333"
       steps="2"
       helper_size="0"
       apply_no_weight="true"
       apply_with_weight="true"
       only_selected="false"
       uniform="false" /><inkscape:path-effect
       effect="bspline"
       id="path-effect101"
       is_visible="true"
       lpeversion="1.3"
       weight="33.333333"
       steps="2"
       helper_size="0"
       apply_no_weight="true"
       apply_with_weight="true"
       only_selected="false"
       uniform="false" /><inkscape:path-effect
       effect="bspline"
       id="path-effect97"
       is_visible="true"
       lpeversion="1.3"
       weight="33.333333"
       steps="2"
       helper_size="0"
       apply_no_weight="true"
       apply_with_weight="true"
       only_selected="false"
       uniform="false" /><inkscape:path-effect
       effect="bspline"
       id="path-effect91"
       is_visible="true"
       lpeversion="1.3"
       weight="33.333333"
       steps="2"
       helper_size="0"
       apply_no_weight="true"
       apply_with_weight="true"
       only_selected="false"
       uniform="false" /><inkscape:path-effect
       effect="bspline"
       id="path-effect84"
       is_visible="true"
       lpeversion="1.3"
       weight="33.333333"
       steps="2"
       helper_size="0"
       apply_no_weight="true"
       apply_with_weight="true"
       only_selected="false"
       uniform="false" /><linearGradient
       id="linearGradient29"
       inkscape:collect="always"><stop
         style="stop-color:#918984;stop-opacity:1;"
         offset="0"
         id="stop29" /><stop
         style="stop-color:#ada6a4;stop-opacity:1;"
         offset="1"
         id="stop30" /></linearGradient><linearGradient
       inkscape:collect="always"
       xlink:href="#linearGradient29"
       id="linearGradient107"
       gradientUnits="userSpaceOnUse"
       x1="96.368881"
       y1="143.11418"
       x2="95.057793"
       y2="150.16696" /></defs><g
     inkscape:label="Layer 1"
     inkscape:groupmode="layer"
     id="layer1"
     transform="translate(-167.6783,-106.98758)"><g
       id="g234"
       transform="rotate(8.0752362,179.00486,243.9894)"
       inkscape:transform-center-x="2.8608565"
       inkscape:transform-center-y="5.1392226"><path
         style="fill:url(#linearGradient107);fill-rule:evenodd;stroke:#121212;stroke-width:0.165;stroke-linecap:butt;stroke-linejoin:miter;stroke-dasharray:none;stroke-opacity:1"
         d="m 97.061444,141.11277 c 0.269436,0.37824 0.55036,1.08858 0.67591,1.83304 0.12555,0.74447 0.09571,1.52298 0.02449,2.12785 -0.07123,0.60487 -0.183844,1.03605 -0.305458,1.49654 -0.121614,0.46048 -0.25222,0.95025 -0.317523,1.27676 -0.0653,0.32652 -0.0653,0.48978 10e-7,0.73467 0.06531,0.24489 0.195909,0.5714 0.261213,0.8816 0.0653,0.31019 0.0653,0.60405 -0.228568,0.83261 -0.293871,0.22857 -0.881588,0.39182 -1.404018,0.48978 -0.52243,0.098 -0.979548,0.13063 -1.355038,0.19594 -0.375491,0.0653 -0.669369,0.16327 -1.012215,0.2449 -0.342846,0.0816 -0.734659,0.14693 -1.012187,0.13061 -0.277529,-0.0163 -0.440811,-0.11429 -0.702028,-0.098 -0.261217,0.0163 -0.620377,0.14693 -0.881594,0.11428 -0.261218,-0.0327 -0.42447,-0.22856 -0.702012,-0.3102 -0.277541,-0.0816 -0.66936,-0.049 -0.930573,-0.14697 -0.261213,-0.098 -0.391819,-0.32652 -0.408143,-0.53876 -0.01632,-0.21224 0.08163,-0.40814 0.228563,-0.62038 0.146935,-0.21224 0.342841,-0.4408 0.669363,-0.66936 0.326522,-0.22857 0.783633,-0.45713 1.224437,-0.60406 0.440803,-0.14693 0.865266,-0.21224 1.273416,-0.34285 0.40815,-0.1306 0.799965,-0.32651 1.19179,-0.40813 0.391826,-0.0816 0.783634,-0.049 0.946893,-0.26119 0.163259,-0.21224 0.09796,-0.66935 -0.01632,-1.22444 -0.114282,-0.55508 -0.277537,-1.2081 -0.391819,-1.69788 -0.114283,-0.48978 -0.179585,-0.81629 -0.191812,-1.24917 -0.01223,-0.43288 0.02862,-0.97209 0.307784,-1.42912 0.279164,-0.45703 0.796624,-0.83183 1.214694,-1.0229 0.418069,-0.19107 0.736752,-0.19841 1.055428,-0.20574 0.257947,0.0461 0.515897,0.0923 0.785334,0.47053 z"
         id="path16"
         inkscape:path-effect="#path-effect84"
         inkscape:original-d="m 97.049951,140.78066 c 0.28093,0.71035 0.561853,1.42069 0.84279,2.13106 -0.02984,0.77856 -0.05968,1.55707 -0.08951,2.33562 -0.11262,0.43119 -0.225235,0.86237 -0.337854,1.29356 -0.130609,0.48978 -0.261212,0.97955 -0.391821,1.46932 0,0.16326 0,0.32652 0,0.48978 0.130611,0.32652 0.261215,0.65303 0.391821,0.97955 0,0.29387 0,0.58773 0,0.8816 -0.587743,0.16326 -1.175461,0.32651 -1.763194,0.48977 -0.457131,0.0326 -0.914246,0.0653 -1.371369,0.098 -0.293873,0.0979 -0.587733,0.19591 -0.881597,0.29386 -0.39183,0.0653 -0.783641,0.13061 -1.175462,0.19591 -0.163261,-0.0979 -0.326517,-0.19591 -0.489776,-0.29386 -0.359177,0.13061 -0.718338,0.26121 -1.077507,0.39182 -0.163261,-0.19592 -0.326517,-0.39182 -0.489776,-0.58773 -0.391827,0.0326 -0.78364,0.0653 -1.175461,0.0979 -0.130609,-0.22856 -0.261213,-0.45712 -0.391822,-0.68568 0.09796,-0.19592 0.195911,-0.39182 0.293867,-0.58773 0.195914,-0.22857 0.391819,-0.45713 0.58773,-0.68569 0.457134,-0.22857 0.914249,-0.45712 1.371372,-0.68569 0.424482,-0.0653 0.848945,-0.1306 1.273416,-0.19591 0.39183,-0.19591 0.783643,-0.39182 1.175462,-0.58773 0.391829,0.0327 0.783643,0.0653 1.175462,0.098 -0.0653,-0.45714 -0.130607,-0.91425 -0.195908,-1.37138 -0.163264,-0.65304 -0.326517,-1.30606 -0.489776,-1.9591 -0.06531,-0.32652 -0.130609,-0.65303 -0.195911,-0.97955 0.04085,-0.53924 0.0817,-1.07845 0.122549,-1.6177 0.517477,-0.37481 1.034938,-0.74961 1.552407,-1.12442 0.318676,-0.007 0.956027,-0.022 0.956027,-0.022 0,0 0.515894,0.0923 0.773841,0.13842 z"
         transform="rotate(-10.622408,-44.151463,-194.48429)"
         sodipodi:nodetypes="sccccccccccccccccccccccccccscs" /><path
         style="fill:#ffffff;fill-opacity:1;fill-rule:evenodd;stroke:none;stroke-width:0.165;stroke-linecap:butt;stroke-linejoin:miter;stroke-dasharray:none;stroke-opacity:1"
         d="m 97.228645,150.07953 c -0.01632,0 -0.04897,0 -0.270892,0.0228 -0.221917,0.0228 -0.633063,0.0683 -1.100498,0.11357 -0.467435,0.0453 -0.991084,0.0905 -1.683412,0.0835 -0.692329,-0.007 -1.553235,-0.066 -2.308657,-0.23721 -0.755422,-0.17116 -1.405234,-0.45438 -1.812295,-0.58219 -0.407061,-0.12781 -0.571314,-0.10017 -0.682248,-0.046 -0.110934,0.0542 -0.168533,0.13485 -0.224142,0.21596 -0.05561,0.0811 -0.109151,0.16253 -0.165654,0.27229 -0.0565,0.10975 -0.115854,0.24763 -0.128971,0.37953 -0.01312,0.13189 0.02003,0.25769 0.09987,0.35662 0.07984,0.0989 0.206363,0.17096 0.337218,0.21283 0.130854,0.0419 0.26604,0.0536 0.390766,0.0636 0.124725,0.01 0.239014,0.0181 0.33493,0.0324 0.09592,0.0143 0.173464,0.0347 0.228563,0.0571 0.0551,0.0224 0.08775,0.047 0.13877,0.0796 0.05102,0.0327 0.120394,0.0735 0.208148,0.11225 0.08775,0.0388 0.19389,0.0755 0.306124,0.0857 0.112234,0.0102 0.230603,-0.006 0.367335,-0.0306 0.136733,-0.0245 0.291809,-0.0572 0.408136,-0.0735 0.116327,-0.0163 0.193873,-0.0163 0.289788,-0.004 0.09592,0.0122 0.210194,0.0367 0.322429,0.0531 0.112236,0.0163 0.222443,0.0245 0.330602,0.0265 0.10816,0.002 0.214275,-0.002 0.340807,-0.0204 0.126533,-0.0184 0.27345,-0.051 0.40815,-0.0837 0.1347,-0.0327 0.257134,-0.0653 0.406103,-0.102 0.148969,-0.0367 0.324467,-0.0775 0.473445,-0.11019 0.148978,-0.0327 0.271419,-0.0572 0.404068,-0.0796 0.132649,-0.0224 0.275498,-0.0428 0.443597,-0.0686 0.168099,-0.0258 0.361469,-0.0569 0.524728,-0.0855 0.163259,-0.0286 0.296423,-0.0546 0.432382,-0.088 0.135959,-0.0334 0.274724,-0.0742 0.405332,-0.11097 0.130608,-0.0367 0.253065,-0.0694 0.369387,-0.12037 0.116321,-0.051 0.226513,-0.12039 0.295899,-0.17754 0.06939,-0.0571 0.09796,-0.10204 0.112242,-0.12448 0.01428,-0.0224 0.01428,-0.0223 -0.002,-0.0223 z"
         id="path35"
         inkscape:path-effect="#path-effect91"
         inkscape:original-d="m 97.24497,150.07953 c -0.03265,0 -0.0653,0 -0.09796,0 -0.411174,0.0455 -0.82232,0.091 -1.233495,0.1365 -0.52369,0.0452 -1.047343,0.0903 -1.57103,0.13543 -0.860969,-0.0591 -1.721877,-0.11815 -2.582851,-0.17723 -0.649869,-0.28325 -1.299683,-0.56647 -1.949552,-0.84972 -0.164258,0.0276 -0.328499,0.0553 -0.492759,0.0829 -0.05762,0.0807 -0.115212,0.16139 -0.172839,0.24211 -0.05359,0.0815 -0.107133,0.16292 -0.160735,0.24443 -0.05941,0.138 -0.118758,0.27588 -0.178142,0.41384 0.03315,0.12583 0.06629,0.25163 0.09945,0.37747 0.126542,0.072 0.253048,0.14405 0.379576,0.21607 0.135186,0.0117 0.270366,0.0235 0.405551,0.0352 0.114281,0.008 0.22856,0.0163 0.342841,0.0245 0.07755,0.0204 0.155097,0.0408 0.232643,0.0612 0.03265,0.0245 0.0653,0.049 0.09796,0.0735 0.06939,0.0408 0.138769,0.0816 0.208153,0.12244 0.106122,0.0367 0.212238,0.0735 0.318355,0.1102 0.118366,-0.0163 0.236725,-0.0327 0.355089,-0.049 0.155099,-0.0327 0.310189,-0.0653 0.465286,-0.098 0.07755,0 0.155096,0 0.232642,0 0.114285,0.0245 0.228563,0.049 0.342845,0.0735 0.110201,0.008 0.220398,0.0163 0.330597,0.0245 0.106121,-0.004 0.212238,-0.008 0.318354,-0.0122 0.146937,-0.0327 0.293868,-0.0653 0.440799,-0.098 0.122446,-0.0327 0.244888,-0.0653 0.367331,-0.0979 0.175506,-0.0408 0.351007,-0.0816 0.526511,-0.12244 0.122446,-0.0245 0.244887,-0.049 0.367331,-0.0735 0.142854,-0.0204 0.285703,-0.0408 0.428554,-0.0612 0.193352,-0.0311 0.386712,-0.0623 0.580079,-0.0934 0.133162,-0.026 0.266314,-0.0521 0.399472,-0.0781 0.138771,-0.0408 0.27754,-0.0816 0.416308,-0.12245 0.122447,-0.0326 0.244888,-0.0653 0.367332,-0.0979 0.110202,-0.0694 0.220401,-0.13877 0.3306,-0.20816 0.02857,-0.0449 0.05714,-0.0898 0.08571,-0.13469 z"
         sodipodi:nodetypes="cccccccccccccccccccccccccccccccccccc"
         transform="rotate(-10.622408,-44.151463,-194.48429)" /><path
         style="fill:none;fill-rule:evenodd;stroke:#121212;stroke-width:0.165;stroke-linecap:round;stroke-linejoin:miter;stroke-dasharray:none;stroke-opacity:1"
         d="m 92.041103,151.25499 c -0.0081,-0.0163 -0.01631,-0.0326 -0.05709,-0.12422 -0.04078,-0.0916 -0.11414,-0.25841 -0.187503,-0.42522"
         id="path70"
         inkscape:path-effect="#path-effect97"
         inkscape:original-d="m 92.041103,151.25499 c -0.0081,-0.0163 -0.01633,-0.0326 -0.0245,-0.049 -0.07337,-0.16682 -0.220089,-0.50044 -0.220089,-0.50044"
         transform="rotate(-10.622408,-44.151463,-194.48429)"
         sodipodi:nodetypes="ccc" /><path
         style="fill:none;fill-rule:evenodd;stroke:#121212;stroke-width:0.165;stroke-linecap:round;stroke-linejoin:miter;stroke-dasharray:none;stroke-opacity:1"
         d="m 90.471164,150.34833 c 0.0044,0.0823 0.0089,0.16457 0.0057,0.25381 -0.0032,0.0892 -0.01405,0.18552 -0.01823,0.29193 -0.0042,0.10641 -0.0017,0.22291 8.25e-4,0.33953"
         id="path71"
         inkscape:path-effect="#path-effect101"
         inkscape:original-d="m 90.471164,150.34833 c 0,0 0.0089,0.16457 0.01334,0.24685 -0.01085,0.0962 -0.0217,0.19248 -0.03255,0.28872 0.0025,0.11658 0.005,0.23308 0.0075,0.3497"
         sodipodi:nodetypes="cccc"
         transform="rotate(-10.622408,-44.151463,-194.48429)" /><path
         style="fill:#000000;fill-opacity:1;fill-rule:evenodd;stroke:#000000;stroke-width:0.264583px;stroke-linecap:butt;stroke-linejoin:miter;stroke-opacity:1"
         d="m 82.551696,148.03267 c 0.02449,0.0592 0.07347,0.17755 0.09387,0.27753 0.02041,0.1 0.01224,0.18164 -0.02451,0.25919 -0.03674,0.0776 -0.102033,0.15101 -0.15713,0.13672 -0.0551,-0.0143 -0.1,-0.11632 -0.110198,-0.2306 -0.0102,-0.11428 0.01429,-0.24081 0.04898,-0.32652 0.03469,-0.0857 0.07959,-0.13061 0.102035,-0.15305 0.02245,-0.0224 0.02245,-0.0224 0.04694,0.0367 z"
         id="path73"
         inkscape:path-effect="#path-effect103"
         inkscape:original-d="m 82.527208,147.97349 c 0.04898,0.11836 0.09796,0.23673 0.146933,0.35509 -0.0081,0.0816 -0.01632,0.16326 -0.0245,0.24488 -0.0653,0.0735 -0.130606,0.14694 -0.195908,0.2204 -0.0449,-0.10203 -0.08979,-0.20407 -0.134689,-0.3061 0.0245,-0.12653 0.04898,-0.25306 0.07347,-0.37958 0.0449,-0.0449 0.08979,-0.0898 0.134686,-0.13469 z"
         transform="rotate(-10.622408,-35.280139,-246.08928)" /><path
         style="fill:none;fill-rule:evenodd;stroke:#121212;stroke-width:0.165;stroke-linecap:round;stroke-linejoin:miter;stroke-dasharray:none;stroke-opacity:1"
         d="m 90.582496,150.12005 c -0.05322,0.14622 -0.106448,0.29244 -0.128203,0.41974 -0.02176,0.1273 -0.01205,0.23571 0.01355,0.35497 0.0256,0.11926 0.06707,0.2493 0.10857,0.37946"
         id="path226"
         inkscape:path-effect="#path-effect234"
         inkscape:original-d="m 90.582496,150.12005 c 0,0 -0.106448,0.29244 -0.159668,0.43865 0.0097,0.10839 0.01942,0.2168 0.02913,0.3252 0.04149,0.13012 0.08295,0.26016 0.12446,0.39032"
         sodipodi:nodetypes="cccc"
         transform="rotate(-10.622408,-45.281425,-189.47466)" /><path
         style="fill:#000000;fill-opacity:1;fill-rule:evenodd;stroke:#000000;stroke-width:0.264583px;stroke-linecap:butt;stroke-linejoin:miter;stroke-opacity:1"
         d="m 82.551696,148.03267 c 0.02449,0.0592 0.07347,0.17755 0.09387,0.27753 0.02041,0.1 0.01224,0.18164 -0.02451,0.25919 -0.03674,0.0776 -0.102033,0.15101 -0.15713,0.13672 -0.0551,-0.0143 -0.1,-0.11632 -0.110198,-0.2306 -0.0102,-0.11428 0.01429,-0.24081 0.04898,-0.32652 0.03469,-0.0857 0.07959,-0.13061 0.102035,-0.15305 0.02245,-0.0224 0.02245,-0.0224 0.04694,0.0367 z"
         id="path81"
         inkscape:path-effect="#path-effect105"
         inkscape:original-d="m 82.527208,147.97349 c 0.04898,0.11836 0.09796,0.23673 0.146933,0.35509 -0.0081,0.0816 -0.01632,0.16326 -0.0245,0.24488 -0.0653,0.0735 -0.130606,0.14694 -0.195908,0.2204 -0.0449,-0.10203 -0.08979,-0.20407 -0.134689,-0.3061 0.0245,-0.12653 0.04898,-0.25306 0.07347,-0.37958 0.0449,-0.0449 0.08979,-0.0898 0.134686,-0.13469 z"
         transform="rotate(-10.622408,-40.728216,-233.96812)" /><path
         style="fill:#000000;fill-opacity:1;fill-rule:evenodd;stroke:#000000;stroke-width:0.264583px;stroke-linecap:butt;stroke-linejoin:miter;stroke-opacity:1"
         d="m 82.551696,148.03267 c 0.02449,0.0592 0.07347,0.17755 0.09387,0.27753 0.02041,0.1 0.01224,0.18164 -0.02451,0.25919 -0.03674,0.0776 -0.102033,0.15101 -0.15713,0.13672 -0.0551,-0.0143 -0.1,-0.11632 -0.110198,-0.2306 -0.0102,-0.11428 0.01429,-0.24081 0.04898,-0.32652 0.03469,-0.0857 0.07959,-0.13061 0.102035,-0.15305 0.02245,-0.0224 0.02245,-0.0224 0.04694,0.0367 z"
         id="path82"
         inkscape:path-effect="#path-effect107"
         inkscape:original-d="m 82.527208,147.97349 c 0.04898,0.11836 0.09796,0.23673 0.146933,0.35509 -0.0081,0.0816 -0.01632,0.16326 -0.0245,0.24488 -0.0653,0.0735 -0.130606,0.14694 -0.195908,0.2204 -0.0449,-0.10203 -0.08979,-0.20407 -0.134689,-0.3061 0.0245,-0.12653 0.04898,-0.25306 0.07347,-0.37958 0.0449,-0.0449 0.08979,-0.0898 0.134686,-0.13469 z"
         transform="rotate(-10.622408,-37.314217,-238.73034)" /></g></g></svg>
