<?xml version="1.0" encoding="UTF-8" standalone="no"?>
<!-- Created with Inkscape (http://www.inkscape.org/) -->

<svg
   width="9.3765707mm"
   height="13.693042mm"
   viewBox="0 0 9.3765707 13.693042"
   version="1.1"
   id="svg1"
   xml:space="preserve"
   inkscape:version="1.3 (0e150ed6c4, 2023-07-21)"
   sodipodi:docname="WolfAbdomen.svg"
   xmlns:inkscape="http://www.inkscape.org/namespaces/inkscape"
   xmlns:sodipodi="http://sodipodi.sourceforge.net/DTD/sodipodi-0.dtd"
   xmlns="http://www.w3.org/2000/svg"
   xmlns:svg="http://www.w3.org/2000/svg"><sodipodi:namedview
     id="namedview1"
     pagecolor="#505050"
     bordercolor="#eeeeee"
     borderopacity="1"
     inkscape:showpageshadow="0"
     inkscape:pageopacity="0"
     inkscape:pagecheckerboard="0"
     inkscape:deskcolor="#d1d1d1"
     inkscape:document-units="mm"
     inkscape:zoom="1.3505331"
     inkscape:cx="41.835332"
     inkscape:cy="-122.91443"
     inkscape:window-width="1280"
     inkscape:window-height="961"
     inkscape:window-x="-8"
     inkscape:window-y="-8"
     inkscape:window-maximized="1"
     inkscape:current-layer="layer1" /><defs
     id="defs1"><inkscape:path-effect
       effect="bspline"
       id="path-effect359"
       is_visible="true"
       lpeversion="1.3"
       weight="33.333333"
       steps="2"
       helper_size="0"
       apply_no_weight="true"
       apply_with_weight="true"
       only_selected="false"
       uniform="false" /><inkscape:path-effect
       effect="bspline"
       id="path-effect355"
       is_visible="true"
       lpeversion="1.3"
       weight="33.333333"
       steps="2"
       helper_size="0"
       apply_no_weight="true"
       apply_with_weight="true"
       only_selected="false"
       uniform="false" /></defs><g
     inkscape:label="Layer 1"
     inkscape:groupmode="layer"
     id="layer1"
     transform="translate(-167.08721,-95.807487)"><g
       id="g135"
       transform="translate(50.355703,-42.041953)"><path
         style="fill:#8f8782;fill-opacity:1;fill-rule:evenodd;stroke:#121212;stroke-width:0.165;stroke-linecap:butt;stroke-linejoin:miter;stroke-dasharray:none;stroke-opacity:1"
         d="m 99.685683,131.015 c -0.228562,0.34285 -0.685682,1.02853 -1.273421,1.77953 -0.587739,0.751 -1.30606,1.56727 -1.975428,2.3999 -0.669368,0.83263 -1.289739,1.68156 -1.714214,2.54684 -0.424474,0.86528 -0.653031,1.74686 -0.783638,2.64479 -0.130607,0.89793 -0.16326,1.81216 0.195916,2.44887 0.359176,0.63671 1.11015,0.99587 1.991757,1.19179 0.881607,0.19592 1.893789,0.22858 2.775393,0.13063 0.881605,-0.0979 1.632582,-0.32651 2.301952,-0.65303 0.66936,-0.32652 1.25708,-0.75098 1.56728,-1.14281 0.3102,-0.39182 0.34286,-0.75098 0.22859,-1.35504 -0.11428,-0.60407 -0.37549,-1.453 -0.71833,-2.25298 -0.34285,-0.79997 -0.76732,-1.55094 -1.12649,-2.23664 -0.35917,-0.68569 -0.65303,-1.30606 -0.84895,-1.87747 -0.19591,-0.57142 -0.29386,-1.09383 -0.27753,-1.63259 0.0163,-0.53875 0.14693,-1.09382 0.24489,-1.46932 0.098,-0.3755 0.16326,-0.5714 0.0979,-0.68569 -0.0653,-0.11429 -0.2612,-0.14695 -0.35917,-0.16329 -0.09796,-0.0163 -0.09799,-0.0163 -0.326557,0.32651 z"
         id="path124"
         transform="translate(22.967206,7.2490306)"
         inkscape:original-d="m 99.914246,130.67216 c -0.457124,0.68569 -0.914247,1.37137 -1.37137,2.05706 -0.718354,0.81631 -1.436677,1.63258 -2.155015,2.44888 -0.620395,0.84896 -1.240764,1.69789 -1.861148,2.54683 -0.228566,0.88162 -0.457124,1.7632 -0.685684,2.64479 -0.03265,0.91427 -0.0653,1.8285 -0.09796,2.74274 0.751004,0.35918 1.501979,0.71834 2.25297,1.07751 1.012222,0.0327 2.024406,0.0653 3.036609,0.098 0.751004,-0.22857 1.501982,-0.45713 2.252972,-0.68569 0.58774,-0.42448 1.17546,-0.84894 1.76319,-1.27342 0.0327,-0.35917 0.0653,-0.71833 0.098,-1.0775 -0.26122,-0.84896 -0.52243,-1.69789 -0.78364,-2.54684 -0.42449,-0.751 -0.84895,-1.50197 -1.27342,-2.25296 -0.29387,-0.6204 -0.58773,-1.24077 -0.8816,-1.86115 -0.098,-0.52244 -0.19591,-1.04486 -0.293867,-1.56729 0.130617,-0.55508 0.261217,-1.11015 0.391827,-1.66523 0.0653,-0.19592 0.1306,-0.39182 0.19591,-0.58773 -0.19592,-0.0326 -0.39182,-0.0653 -0.587737,-0.098 z"
         inkscape:path-effect="#path-effect355" /><path
         style="fill:#fefefe;fill-opacity:1;fill-rule:evenodd;stroke:none;stroke-width:0.264583px;stroke-linecap:butt;stroke-linejoin:miter;stroke-opacity:1"
         d="m 99.469369,131.8966 c -0.102035,0.14693 -0.306109,0.4408 -0.530592,0.74283 -0.224482,0.30203 -0.469368,0.61222 -0.697933,0.89384 -0.228566,0.28163 -0.440796,0.53467 -0.644869,0.78364 -0.204074,0.24897 -0.399983,0.49386 -0.595895,0.72651 -0.195912,0.23264 -0.391817,0.45303 -0.587732,0.69792 -0.195915,0.2449 -0.391816,0.51426 -0.579567,0.79997 -0.18775,0.28571 -0.36733,0.58773 -0.514263,0.89384 -0.146933,0.30611 -0.261213,0.6163 -0.363251,0.92649 -0.102038,0.3102 -0.191828,0.62038 -0.224479,0.95099 -0.03265,0.3306 -0.0082,0.6816 0.06122,1.02853 0.06939,0.34692 0.183665,0.68976 0.346927,0.98771 0.163261,0.29795 0.375491,0.55099 0.689769,0.75507 0.314277,0.20407 0.73058,0.35916 1.183628,0.4612 0.453047,0.10204 0.942815,0.15101 1.355041,0.13469 0.412225,-0.0163 0.746907,-0.0979 1.065264,-0.22448 0.318357,-0.12653 0.620378,-0.29795 0.865268,-0.51835 0.24488,-0.2204 0.43263,-0.48977 0.57548,-0.77139 0.14285,-0.28161 0.24081,-0.57549 0.26529,-0.88569 0.0245,-0.31019 -0.0245,-0.63669 -0.1306,-1.04077 -0.10612,-0.40407 -0.26938,-0.88567 -0.40815,-1.26525 -0.13877,-0.37958 -0.25305,-0.65711 -0.36325,-0.92649 -0.1102,-0.26938 -0.21631,-0.53059 -0.330594,-0.83262 -0.114281,-0.30203 -0.236725,-0.64487 -0.318355,-0.93057 -0.08163,-0.28571 -0.122444,-0.51427 -0.146934,-0.81222 -0.02449,-0.29795 -0.03266,-0.66527 -0.02041,-1.0122 0.01224,-0.34693 0.04489,-0.67344 0.0857,-0.92649 0.04081,-0.25305 0.08979,-0.43263 0.102042,-0.55098 0.01225,-0.11835 -0.01225,-0.17552 -0.0245,-0.20409 -0.01224,-0.0286 -0.01223,-0.0286 -0.114263,0.11836 z"
         id="path135"
         transform="translate(23.065161,6.85721)"
         inkscape:original-d="m 99.571404,131.74967 c -0.204073,0.29386 -0.408146,0.58773 -0.612219,0.8816 -0.244893,0.31019 -0.489776,0.62038 -0.734664,0.93057 -0.21224,0.25306 -0.424473,0.5061 -0.636709,0.75915 -0.195913,0.24489 -0.391821,0.48978 -0.587729,0.73467 -0.195916,0.2204 -0.391822,0.44079 -0.587733,0.66119 -0.195913,0.26939 -0.391821,0.53875 -0.587729,0.80813 -0.179589,0.30204 -0.359169,0.60406 -0.538755,0.90609 -0.114282,0.31019 -0.228561,0.62038 -0.342842,0.93057 -0.08979,0.3102 -0.179586,0.62038 -0.269378,0.93057 0.0245,0.35102 0.04898,0.70202 0.07347,1.05302 0.114284,0.34285 0.228563,0.68569 0.342842,1.02853 0.212241,0.25306 0.424474,0.5061 0.636709,0.75915 0.416319,0.1551 0.83262,0.3102 1.248929,0.46529 0.489786,0.049 0.979551,0.098 1.469326,0.14693 0.334688,-0.0816 0.669362,-0.16326 1.004041,-0.24488 0.302035,-0.17143 0.604057,-0.34285 0.906077,-0.51427 0.18776,-0.26938 0.3755,-0.53875 0.56325,-0.80813 0.0979,-0.29387 0.19591,-0.58773 0.29386,-0.88159 -0.049,-0.32653 -0.0979,-0.65304 -0.14693,-0.97956 -0.16326,-0.48162 -0.32652,-0.96322 -0.48978,-1.44483 -0.11428,-0.27755 -0.22856,-0.55508 -0.34284,-0.83262 -0.10612,-0.26122 -0.21224,-0.52243 -0.318351,-0.78365 -0.122444,-0.34284 -0.244888,-0.68568 -0.367332,-1.02852 -0.04081,-0.22857 -0.08163,-0.45713 -0.122444,-0.68569 -0.0081,-0.36734 -0.01632,-0.73466 -0.0245,-1.10199 0.03265,-0.32653 0.0653,-0.65304 0.09795,-0.97956 0.04898,-0.17958 0.09796,-0.35916 0.146934,-0.53875 -0.0245,-0.0571 -0.04898,-0.11428 -0.07347,-0.17142 z"
         inkscape:path-effect="#path-effect359" /></g></g></svg>
