<?xml version="1.0" encoding="UTF-8" standalone="no"?>
<!-- Created with Inkscape (http://www.inkscape.org/) -->

<svg
   width="7.8753324mm"
   height="8.0287962mm"
   viewBox="0 0 7.8753324 8.0287962"
   version="1.1"
   id="svg1"
   xml:space="preserve"
   inkscape:version="1.3 (0e150ed6c4, 2023-07-21)"
   sodipodi:docname="WolfMouthHurt.svg"
   xmlns:inkscape="http://www.inkscape.org/namespaces/inkscape"
   xmlns:sodipodi="http://sodipodi.sourceforge.net/DTD/sodipodi-0.dtd"
   xmlns="http://www.w3.org/2000/svg"
   xmlns:svg="http://www.w3.org/2000/svg"><sodipodi:namedview
     id="namedview1"
     pagecolor="#505050"
     bordercolor="#eeeeee"
     borderopacity="1"
     inkscape:showpageshadow="0"
     inkscape:pageopacity="0"
     inkscape:pagecheckerboard="0"
     inkscape:deskcolor="#d1d1d1"
     inkscape:document-units="mm"
     inkscape:zoom="1.3505331"
     inkscape:cx="164.74976"
     inkscape:cy="-48.129143"
     inkscape:window-width="1280"
     inkscape:window-height="961"
     inkscape:window-x="-8"
     inkscape:window-y="-8"
     inkscape:window-maximized="1"
     inkscape:current-layer="layer1" /><defs
     id="defs1"><inkscape:path-effect
       effect="bspline"
       id="path-effect430"
       is_visible="true"
       lpeversion="1.3"
       weight="33.333333"
       steps="2"
       helper_size="0"
       apply_no_weight="true"
       apply_with_weight="true"
       only_selected="false"
       uniform="false" /><inkscape:path-effect
       effect="bspline"
       id="path-effect426"
       is_visible="true"
       lpeversion="1.3"
       weight="33.333333"
       steps="2"
       helper_size="0"
       apply_no_weight="true"
       apply_with_weight="true"
       only_selected="false"
       uniform="false" /><inkscape:path-effect
       effect="bspline"
       id="path-effect422"
       is_visible="true"
       lpeversion="1.3"
       weight="33.333333"
       steps="2"
       helper_size="0"
       apply_no_weight="true"
       apply_with_weight="true"
       only_selected="false"
       uniform="false" /></defs><g
     inkscape:label="Layer 1"
     inkscape:groupmode="layer"
     id="layer1"
     transform="translate(-130.08203,-105.55329)"><g
       id="g419"
       transform="rotate(-21.208648,66.78104,225.12907)"><path
         style="fill:#6b3049;fill-opacity:1;fill-rule:evenodd;stroke:#000000;stroke-width:0.264583px;stroke-linecap:butt;stroke-linejoin:miter;stroke-opacity:1"
         d="m 129.30895,130.90072 c -0.57957,-0.0163 -1.7387,-0.049 -2.51418,-0.10615 -0.77547,-0.0572 -1.1673,-0.13877 -1.31422,-0.23674 -0.14692,-0.098 -0.049,-0.21222 0.27754,-0.27753 0.32652,-0.0653 0.88159,-0.0816 1.40606,-0.0939 0.52447,-0.0122 1.01831,-0.0204 1.46728,-0.049 0.44897,-0.0286 0.85301,-0.0775 1.28566,-0.10815 0.43264,-0.0306 0.89383,-0.0428 1.25505,-0.0469 0.36122,-0.004 0.62243,3e-5 0.88364,0.004 0.27346,-1e-5 0.54691,-3e-5 0.5612,0.0979 0.0143,0.0979 -0.2306,0.29386 -0.72855,0.44896 -0.49795,0.15509 -1.24892,0.26937 -1.62442,0.32651 -0.37549,0.0571 -0.37549,0.0572 -0.95506,0.0408 z"
         id="path416"
         transform="rotate(15.122164,118.79985,298.97145)"
         sodipodi:nodetypes="cccccccccaccc"
         inkscape:original-d="m 129.88852,130.91705 c -1.15914,-0.0326 -2.31827,-0.0653 -3.47741,-0.098 -0.39182,-0.0816 -0.78364,-0.16325 -1.17546,-0.24488 0.098,-0.11429 0.19591,-0.22857 0.29387,-0.34284 0.55509,-0.0163 1.11016,-0.0327 1.66524,-0.049 0.49386,-0.008 0.9877,-0.0163 1.48156,-0.0245 0.40408,-0.049 0.80813,-0.0979 1.2122,-0.14693 0.46121,-0.0122 0.9224,-0.0245 1.38362,-0.0367 0.26122,0.004 0.78364,0.0123 0.78364,0.0123 0,0 0.54691,-3e-5 0.82037,-4e-5 -0.24489,0.19591 -0.48977,0.39182 -0.73466,0.58773 -0.75101,0.11428 -1.50198,0.22856 -2.25297,0.34284 z"
         inkscape:path-effect="#path-effect422" /><g
         id="g418"
         transform="rotate(9.2676325,95.742389,398.29866)"
         inkscape:transform-center-x="1.7852945"
         inkscape:transform-center-y="2.6264007"><path
           style="fill:#ec3547;fill-opacity:1;fill-rule:evenodd;stroke:#9e1d1d;stroke-width:0.264583px;stroke-linecap:butt;stroke-linejoin:miter;stroke-opacity:1"
           d="m 131.18166,130.4082 c -0.17894,-0.0173 -0.5368,-0.052 -0.91776,-0.0635 -0.38096,-0.0115 -0.785,-10e-6 -1.14864,0.0231 -0.36365,0.0231 -0.68688,0.0577 -0.96971,0.17893 -0.28283,0.12122 -0.52525,0.32901 -0.75614,0.64647 -0.23088,0.31747 -0.45022,0.7446 -0.65802,1.19482 -0.20779,0.45023 -0.40404,0.92353 -0.60606,1.29871 -0.20202,0.37519 -0.40982,0.65224 -0.6003,0.8889 -0.19048,0.23666 -0.36363,0.43291 -0.44444,0.68111 -0.0808,0.2482 -0.0693,0.54834 0.0577,0.785 0.12698,0.23665 0.3694,0.40981 0.7215,0.50794 0.3521,0.0981 0.81386,0.12123 1.2179,0.0404 0.40405,-0.0808 0.75037,-0.2655 0.9928,-0.50216 0.24242,-0.23666 0.38095,-0.52526 0.46177,-0.83118 0.0808,-0.30592 0.10391,-0.62915 0.12123,-0.95239 0.0173,-0.32324 0.0289,-0.64647 0.13851,-0.95239 0.10967,-0.30592 0.31746,-0.59452 0.51948,-0.81963 0.20202,-0.22511 0.39827,-0.38673 0.62338,-0.50794 0.22512,-0.12121 0.47908,-0.20202 0.72728,-0.32324 0.24821,-0.12122 0.49063,-0.28283 0.6407,-0.43867 0.15007,-0.15584 0.20779,-0.30592 0.20202,-0.44446 -0.006,-0.13853 -0.075,-0.26551 -0.10967,-0.329 -0.0346,-0.0635 -0.0346,-0.0635 -0.21353,-0.0808 z"
           id="path417"
           transform="translate(-0.40718526,-0.42399171)"
           inkscape:original-d="m 131.36059,130.42552 c -0.35787,-0.0346 -0.71573,-0.0693 -1.0736,-0.1039 -0.40405,0.0115 -0.80809,0.0231 -1.21213,0.0346 -0.32325,0.0346 -0.64648,0.0693 -0.96971,0.1039 -0.24243,0.2078 -0.48485,0.41559 -0.72728,0.62338 -0.21934,0.42714 -0.43868,0.85427 -0.65802,1.2814 -0.19625,0.47332 -0.3925,0.94662 -0.58875,1.41993 -0.20779,0.27706 -0.41558,0.55412 -0.62338,0.83117 -0.17317,0.19626 -0.34632,0.39251 -0.51948,0.58876 0.0115,0.30015 0.0231,0.60029 0.0346,0.90044 0.24243,0.17316 0.48485,0.34632 0.72728,0.51948 0.46177,0.0231 0.92353,0.0462 1.38529,0.0693 0.34633,-0.18471 0.69265,-0.36941 1.03897,-0.55412 0.13854,-0.28861 0.27706,-0.57721 0.41559,-0.86581 0.0231,-0.32324 0.0462,-0.64647 0.0693,-0.96971 0.0115,-0.32324 0.0231,-0.64647 0.0346,-0.9697 0.2078,-0.28861 0.41559,-0.57721 0.62338,-0.86581 0.19625,-0.16162 0.3925,-0.32324 0.58875,-0.48485 0.25398,-0.0808 0.50794,-0.16162 0.76191,-0.24243 0.24244,-0.16162 0.48486,-0.32324 0.72728,-0.48486 0.0577,-0.15007 0.11545,-0.30014 0.17317,-0.45022 -0.0693,-0.12698 -0.13853,-0.25397 -0.2078,-0.38095 z"
           inkscape:path-effect="#path-effect426" /><path
           style="fill:#fffbfc;fill-opacity:0.197183;fill-rule:evenodd;stroke:none;stroke-width:0.264583px;stroke-linecap:butt;stroke-linejoin:miter;stroke-opacity:1"
           d="m 127.01238,132.93341 c -0.13668,0.41855 -0.22326,0.57439 -0.32716,0.74467 -0.10389,0.17027 -0.22511,0.35498 -0.34921,0.51948 -0.1241,0.16451 -0.25108,0.30881 -0.36942,0.40694 -0.11834,0.0981 -0.22799,0.15007 -0.30591,0.21355 -0.0779,0.0635 -0.12411,0.13856 -0.1472,0.21356 -0.0231,0.075 -0.0231,0.15009 0.0548,0.22512 0.0779,0.075 0.23378,0.15008 0.38674,0.18759 0.15296,0.0375 0.30303,0.0375 0.43579,0.006 0.13276,-0.0317 0.2482,-0.0952 0.33478,-0.1847 0.0866,-0.0895 0.1443,-0.20491 0.19047,-0.32035 0.0462,-0.11543 0.0808,-0.23089 0.10101,-0.33191 0.0202,-0.10103 0.026,-0.18757 0.0548,-0.30014 0.0289,-0.11257 0.0808,-0.25107 0.22534,-0.68288 0.14454,-0.43181 0.44818,-1.3603 0.87431,-1.95326 0.42614,-0.59295 1.0226,-0.99744 0.94284,-1.0535 -0.0798,-0.0561 -0.83576,0.23651 -1.30715,0.72333 -0.47139,0.48683 -0.65821,1.16819 -0.79489,1.58673 z"
           id="path418"
           sodipodi:nodetypes="scccccccccccccccss"
           inkscape:original-d="m 126.96228,133.19611 c -0.0866,0.15584 -0.17316,0.31169 -0.25974,0.46754 -0.12122,0.1847 -0.24243,0.36941 -0.36364,0.55411 -0.12699,0.14431 -0.25397,0.28861 -0.38096,0.43291 -0.10967,0.052 -0.21934,0.1039 -0.329,0.15584 -0.0462,0.075 -0.0924,0.15008 -0.13854,0.22511 0,0.075 0,0.15008 0,0.22511 0.15585,0.075 0.3117,0.15008 0.46754,0.22511 0.15008,0 0.30015,0 0.45022,0 0.11545,-0.0635 0.23089,-0.12698 0.34633,-0.19047 0.0577,-0.11545 0.11544,-0.23089 0.17316,-0.34633 0.0346,-0.11544 0.0693,-0.23088 0.10389,-0.34632 0.006,-0.0866 0.0115,-0.17316 0.0173,-0.25974 0.052,-0.13854 0.1039,-0.27706 0.15584,-0.41559 0.47935,-0.64588 0.55191,-1.64994 0.79624,-2.43477 0.5968,-0.40472 1.19326,-0.80921 1.79034,-1.21413 -0.7566,0.2928 -1.5126,0.58537 -2.26864,0.87795 -0.18673,0.68107 -0.37355,1.36243 -0.56034,2.04367 z"
           inkscape:path-effect="#path-effect430" /></g></g></g></svg>
