<?xml version="1.0" encoding="UTF-8" standalone="no"?>
<!-- Created with Inkscape (http://www.inkscape.org/) -->

<svg
   width="13.380116mm"
   height="5.9771399mm"
   viewBox="0 0 13.380116 5.9771399"
   version="1.1"
   id="svg1"
   xml:space="preserve"
   inkscape:version="1.3 (0e150ed6c4, 2023-07-21)"
   sodipodi:docname="WolfTail.svg"
   xmlns:inkscape="http://www.inkscape.org/namespaces/inkscape"
   xmlns:sodipodi="http://sodipodi.sourceforge.net/DTD/sodipodi-0.dtd"
   xmlns="http://www.w3.org/2000/svg"
   xmlns:svg="http://www.w3.org/2000/svg"><sodipodi:namedview
     id="namedview1"
     pagecolor="#505050"
     bordercolor="#eeeeee"
     borderopacity="1"
     inkscape:showpageshadow="0"
     inkscape:pageopacity="0"
     inkscape:pagecheckerboard="0"
     inkscape:deskcolor="#d1d1d1"
     inkscape:document-units="mm"
     inkscape:zoom="1.3505331"
     inkscape:cx="-5.5533627"
     inkscape:cy="-62.93811"
     inkscape:window-width="1280"
     inkscape:window-height="961"
     inkscape:window-x="-8"
     inkscape:window-y="-8"
     inkscape:window-maximized="1"
     inkscape:current-layer="layer1" /><defs
     id="defs1"><inkscape:path-effect
       effect="bspline"
       id="path-effect294"
       is_visible="true"
       lpeversion="1.3"
       weight="33.333333"
       steps="2"
       helper_size="0"
       apply_no_weight="true"
       apply_with_weight="true"
       only_selected="false"
       uniform="false" /><inkscape:path-effect
       effect="bspline"
       id="path-effect286"
       is_visible="true"
       lpeversion="1.3"
       weight="33.333333"
       steps="2"
       helper_size="0"
       apply_no_weight="true"
       apply_with_weight="true"
       only_selected="false"
       uniform="false" /></defs><g
     inkscape:label="Layer 1"
     inkscape:groupmode="layer"
     id="layer1"
     transform="translate(-183.30331,-109.45659)"><g
       id="g104"
       transform="rotate(32.505501,189.49998,243.20181)"
       inkscape:transform-center-x="-6.5463346"
       inkscape:transform-center-y="1.0441608"><path
         style="fill:#8f8782;fill-opacity:1;fill-rule:evenodd;stroke:#121212;stroke-width:0.165;stroke-linecap:butt;stroke-linejoin:miter;stroke-dasharray:none;stroke-opacity:1"
         d="m 104.36305,141.47988 c 0.18774,-0.0163 0.56323,-0.049 1.0122,-0.16329 0.44897,-0.11429 0.97138,-0.3102 1.42851,-0.52244 0.45713,-0.21224 0.84894,-0.4408 1.17546,-0.66936 0.32652,-0.22856 0.58773,-0.45712 0.82445,-0.7265 0.23673,-0.26938 0.44897,-0.57957 0.70202,-0.93874 0.25305,-0.35917 0.54692,-0.76731 0.80813,-1.11016 0.26122,-0.34284 0.48977,-0.62037 0.7265,-0.82444 0.23673,-0.20408 0.48161,-0.33469 0.7265,-0.39999 0.24489,-0.0653 0.48978,-0.0653 0.71018,-0.008 0.2204,0.0571 0.4163,0.17143 0.61221,0.35918 0.19592,0.18775 0.39182,0.44896 0.50611,0.76732 0.11429,0.31835 0.14695,0.69384 0.0898,1.16729 -0.0571,0.47346 -0.20407,1.04485 -0.48161,1.56728 -0.27754,0.52244 -0.68568,0.99588 -1.15914,1.47749 -0.47345,0.48162 -1.01219,0.97139 -1.57544,1.37954 -0.56325,0.40815 -1.15097,0.73466 -1.6734,0.97955 -0.52243,0.24489 -0.97955,0.40814 -1.50198,0.54691 -0.52244,0.13877 -1.11015,0.25305 -1.55911,0.31836 -0.44897,0.0653 -0.75916,0.0816 -1.10201,0.0653 -0.34284,-0.0163 -0.71832,-0.0653 -1.00403,-0.1306 -0.2857,-0.0653 -0.48161,-0.14693 -0.69385,-0.27754 -0.21224,-0.13061 -0.4408,-0.31019 -0.6612,-0.53875 -0.2204,-0.22856 -0.43263,-0.5061 -0.62038,-0.7918 -0.18775,-0.28571 -0.351,-0.57957 -0.41427,-0.79997 -0.0633,-0.22041 -0.0266,-0.36732 0.13465,-0.44488 0.16121,-0.0776 0.4469,-0.0857 0.74894,-0.10205 0.30204,-0.0163 0.60634,-0.0397 0.96644,-0.0696 0.36009,-0.0298 0.70691,-0.0603 0.89673,-0.077 0.18981,-0.0167 0.18982,-0.0167 0.37757,-0.033 z"
         id="path103"
         sodipodi:nodetypes="scccccccccccccccccccccccccccss"
         transform="translate(11.50973,-8.2282322)"
         inkscape:original-d="m 104.1753,141.49621 c 0.37549,-0.0327 0.75098,-0.0653 1.12648,-0.098 0.52244,-0.19591 1.04485,-0.39182 1.56728,-0.58773 0.39183,-0.22857 0.78364,-0.45713 1.17546,-0.68569 0.26122,-0.22856 0.52243,-0.45712 0.78364,-0.68568 0.21224,-0.3102 0.42448,-0.62039 0.63671,-0.93058 0.29388,-0.40815 0.58774,-0.81629 0.8816,-1.22443 0.22857,-0.27755 0.45712,-0.55508 0.68569,-0.83262 0.24489,-0.13061 0.48977,-0.26122 0.73466,-0.39183 0.24489,0 0.48978,0 0.73466,0 0.19592,0.11429 0.39182,0.22857 0.58773,0.34285 0.19592,0.26122 0.39182,0.52243 0.58773,0.78364 0.0327,0.3755 0.0653,0.75099 0.098,1.12648 -0.14694,0.57142 -0.29387,1.14281 -0.4408,1.71422 -0.40815,0.47346 -0.81629,0.9469 -1.22444,1.42035 -0.53876,0.48978 -1.0775,0.97955 -1.61626,1.46933 -0.58774,0.32652 -1.17546,0.65303 -1.76319,0.97955 -0.45713,0.16326 -0.91425,0.32651 -1.37137,0.48977 -0.58775,0.11429 -1.17546,0.22856 -1.76319,0.34284 -0.3102,0.0163 -0.62039,0.0327 -0.93058,0.049 -0.3755,-0.049 -0.75099,-0.0979 -1.12648,-0.14693 -0.19592,-0.0816 -0.39182,-0.16326 -0.58773,-0.24489 -0.22857,-0.17959 -0.45713,-0.35917 -0.68569,-0.53875 -0.21224,-0.27754 -0.42447,-0.55508 -0.63671,-0.83262 -0.16326,-0.29387 -0.32651,-0.58773 -0.48977,-0.8816 0.0367,-0.14694 0.0734,-0.29386 0.11014,-0.44079 0.28571,-0.008 0.5714,-0.0163 0.85711,-0.0245 0.31837,-0.0245 0.62267,-0.0479 0.95506,-0.0735 0.3878,-0.0341 0.73462,-0.0646 1.11425,-0.0979 z"
         inkscape:path-effect="#path-effect286" /><path
         style="fill:#ffffff;fill-opacity:1;fill-rule:evenodd;stroke:none;stroke-width:0.264583px;stroke-linecap:butt;stroke-linejoin:miter;stroke-opacity:1"
         d="m 109.83225,140.21927 c 0.004,0.0707 0.013,0.21211 0.0173,0.63492 0.004,0.42282 0.004,1.127 0.0231,1.53826 0.0188,0.41125 0.0563,0.52958 0.0938,0.64791 0.42136,-0.32901 0.8427,-0.658 1.28283,-1.04907 0.44014,-0.39107 0.89901,-0.84417 1.20926,-1.19482 0.31025,-0.35066 0.47185,-0.59884 0.63203,-0.94373 0.16018,-0.34489 0.3189,-0.78643 0.39677,-1.17606 0.0779,-0.38962 0.0749,-0.72727 0.0344,-1.01443 -0.0405,-0.28716 -0.11838,-0.52382 -0.2598,-0.74749 -0.14141,-0.22368 -0.34631,-0.43434 -0.58586,-0.55845 -0.23955,-0.1241 -0.51372,-0.16163 -0.77923,-0.10824 -0.26552,0.0534 -0.52237,0.19769 -0.74027,0.37662 -0.21789,0.17894 -0.39683,0.3925 -0.60174,0.65514 -0.20491,0.26263 -0.43578,0.57431 -0.65224,0.8658 -0.21645,0.29149 -0.41847,0.56278 -0.5974,0.79944 -0.17894,0.23665 -0.33478,0.43867 -0.49063,0.60895 -0.15585,0.17027 -0.31169,0.3088 -0.46754,0.44733 0.31458,-0.003 0.62916,-0.006 0.87596,0.0185 0.24681,0.0245 0.42587,0.0764 0.5154,0.10238 0.0895,0.026 0.0895,0.0264 0.0938,0.0971 z"
         id="path104"
         sodipodi:nodetypes="acccccccccccccccccaa"
         transform="translate(11.50973,-8.2282322)"
         inkscape:original-d="m 109.82792,140.14855 c 0.009,0.14142 0.0173,0.28283 0.026,0.42425 -2e-5,0.70421 -3e-5,1.40839 -5e-5,2.11258 0.0375,0.11833 0.11259,0.35498 0.11259,0.35498 0,0 0.8427,-0.658 1.26407,-0.98702 0.4589,-0.45312 0.91777,-0.90622 1.37665,-1.35932 0.16162,-0.24821 0.32322,-0.49639 0.48484,-0.7446 0.15874,-0.44157 0.31747,-0.88311 0.4762,-1.32469 -0.003,-0.33767 -0.006,-0.67532 -0.009,-1.01299 -0.0779,-0.23666 -0.15583,-0.47331 -0.23376,-0.70997 -0.20491,-0.21069 -0.40981,-0.42135 -0.61472,-0.63204 -0.27419,-0.0375 -0.54835,-0.0751 -0.82253,-0.11257 -0.25686,0.1443 -0.51371,0.2886 -0.77057,0.4329 -0.17893,0.21357 -0.35787,0.42713 -0.5368,0.6407 -0.23089,0.3117 -0.46176,0.62338 -0.69265,0.93507 -0.20202,0.27129 -0.40404,0.54258 -0.60606,0.81387 -0.15585,0.20202 -0.31169,0.40404 -0.46754,0.60606 -0.15585,0.13853 -0.46754,0.41559 -0.46754,0.41559 0,0 0.62916,-0.006 0.94374,-0.009 0.17904,0.0519 0.35809,0.10388 0.53714,0.15582 z"
         inkscape:path-effect="#path-effect294" /></g></g></svg>
