<?xml version="1.0" encoding="UTF-8" standalone="no"?>
<!-- Created with Inkscape (http://www.inkscape.org/) -->

<svg
   width="10.475471mm"
   height="6.4313717mm"
   viewBox="0 0 10.475471 6.4313717"
   version="1.1"
   id="svg1"
   xml:space="preserve"
   inkscape:version="1.3 (0e150ed6c4, 2023-07-21)"
   sodipodi:docname="WolfLeftArm.svg"
   xmlns:inkscape="http://www.inkscape.org/namespaces/inkscape"
   xmlns:sodipodi="http://sodipodi.sourceforge.net/DTD/sodipodi-0.dtd"
   xmlns="http://www.w3.org/2000/svg"
   xmlns:svg="http://www.w3.org/2000/svg"><sodipodi:namedview
     id="namedview1"
     pagecolor="#505050"
     bordercolor="#eeeeee"
     borderopacity="1"
     inkscape:showpageshadow="0"
     inkscape:pageopacity="0"
     inkscape:pagecheckerboard="0"
     inkscape:deskcolor="#d1d1d1"
     inkscape:document-units="mm"
     inkscape:zoom="1.3505331"
     inkscape:cx="96.62851"
     inkscape:cy="-114.7695"
     inkscape:window-width="1280"
     inkscape:window-height="961"
     inkscape:window-x="-8"
     inkscape:window-y="-8"
     inkscape:window-maximized="1"
     inkscape:current-layer="layer1" /><defs
     id="defs1"><inkscape:path-effect
       effect="bspline"
       id="path-effect315"
       is_visible="true"
       lpeversion="1.3"
       weight="33.333333"
       steps="2"
       helper_size="0"
       apply_no_weight="true"
       apply_with_weight="true"
       only_selected="false"
       uniform="false" /><inkscape:path-effect
       effect="bspline"
       id="path-effect308"
       is_visible="true"
       lpeversion="1.3"
       weight="33.333333"
       steps="2"
       helper_size="0"
       apply_no_weight="true"
       apply_with_weight="true"
       only_selected="false"
       uniform="false" /><inkscape:path-effect
       effect="bspline"
       id="path-effect304"
       is_visible="true"
       lpeversion="1.3"
       weight="33.333333"
       steps="2"
       helper_size="0"
       apply_no_weight="true"
       apply_with_weight="true"
       only_selected="false"
       uniform="false" /><inkscape:path-effect
       effect="bspline"
       id="path-effect300"
       is_visible="true"
       lpeversion="1.3"
       weight="33.333333"
       steps="2"
       helper_size="0"
       apply_no_weight="true"
       apply_with_weight="true"
       only_selected="false"
       uniform="false" /></defs><g
     inkscape:label="Layer 1"
     inkscape:groupmode="layer"
     id="layer1"
     transform="translate(-181.50277,-96.074381)"><g
       id="g110"
       transform="translate(79.81256,-31.681776)"
       inkscape:transform-center-x="-4.7101377"
       inkscape:transform-center-y="1.1775044"><path
         style="fill:#8f8782;fill-opacity:1;fill-rule:evenodd;stroke:#121212;stroke-width:0.165;stroke-linecap:butt;stroke-linejoin:miter;stroke-dasharray:none;stroke-opacity:1"
         d="m 99.212234,133.95366 c 0.08163,-0.14693 0.24489,-0.4408 0.555083,-0.65303 0.310193,-0.21224 0.767313,-0.34284 1.240773,-0.47345 0.47345,-0.13061 0.96321,-0.26122 1.42851,-0.32652 0.46529,-0.0653 0.90608,-0.0653 1.28974,-0.0408 0.38366,0.0245 0.71018,0.0735 1.0122,0.16326 0.30203,0.0898 0.57957,0.2204 0.84895,0.42448 0.26937,0.20407 0.53058,0.48161 0.77547,0.65303 0.24489,0.17142 0.47345,0.23673 0.64487,0.28569 0.17142,0.049 0.28572,0.0816 0.40817,0.0816 0.12245,-1e-5 0.25304,-0.0326 0.44078,0.0408 0.18775,0.0735 0.43263,0.25305 0.64487,0.44897 0.21224,0.19591 0.39182,0.40814 0.56324,0.71834 0.17142,0.31019 0.33468,0.71833 0.3755,1.04485 0.0408,0.32651 -0.0408,0.5714 -0.12245,0.79996 -0.0816,0.22856 -0.16326,0.4408 -0.29387,0.61222 -0.1306,0.17143 -0.31018,0.30203 -0.45712,0.43264 -0.14693,0.13061 -0.26121,0.26121 -0.43263,0.31835 -0.17143,0.0571 -0.39999,0.0408 -0.62039,-0.0245 -0.2204,-0.0653 -0.43263,-0.17959 -0.57956,-0.31835 -0.14693,-0.13877 -0.22857,-0.30204 -0.21224,-0.50612 0.0163,-0.20407 0.13061,-0.44895 0.0571,-0.64486 -0.0735,-0.19592 -0.33468,-0.34285 -0.49794,-0.26937 -0.16326,0.0735 -0.22856,0.36732 -0.35917,0.5714 -0.13061,0.20407 -0.32651,0.31835 -0.57957,0.351 -0.25305,0.0326 -0.56323,-0.0163 -0.80813,-0.13061 -0.24489,-0.11428 -0.42447,-0.29386 -0.48161,-0.47344 -0.0571,-0.17959 0.008,-0.35917 0.13877,-0.53059 0.13061,-0.17143 0.32652,-0.33468 0.44079,-0.51428 0.11428,-0.17959 0.14691,-0.37549 0.22037,-0.53874 0.0735,-0.16326 0.18774,-0.29387 0.0408,-0.45713 -0.14694,-0.16326 -0.55507,-0.35917 -0.97139,-0.48161 -0.41631,-0.12245 -0.84077,-0.17142 -1.30607,-0.13877 -0.46529,0.0327 -0.97138,0.14693 -1.34689,0.25305 -0.3755,0.10613 -0.62037,0.20407 -0.84077,0.31019 -0.2204,0.10612 -0.41631,0.2204 -0.604058,0.2204 -0.187748,0 -0.36733,-0.11428 -0.48161,-0.31019 -0.114281,-0.19591 -0.163259,-0.47345 -0.187748,-0.61222 -0.02449,-0.13877 -0.02444,-0.13875 0.05719,-0.28568 z"
         id="path105"
         transform="translate(2.6320604,-4.6061056)"
         inkscape:original-d="m 99.130605,134.10059 c 0.163259,-0.29386 0.326517,-0.58773 0.489776,-0.88159 0.457129,-0.13061 0.914249,-0.26122 1.371369,-0.39182 0.48979,-0.13062 0.97955,-0.26122 1.46933,-0.39183 0.44081,0 0.8816,0 1.3224,0 0.32652,0.049 0.65303,0.098 0.97955,0.14694 0.27754,0.13061 0.55508,0.26121 0.83262,0.39182 0.26121,0.27754 0.52242,0.55508 0.78364,0.83262 0.22856,0.0653 0.45712,0.1306 0.68568,0.19591 0.11429,0.0326 0.22857,0.0653 0.34284,0.0979 0.13062,-0.0327 0.26122,-0.0653 0.39183,-0.0979 0.24489,0.17958 0.48977,0.35916 0.73466,0.53875 0.17959,0.21224 0.35917,0.42447 0.53875,0.63671 0.16327,0.40815 0.32652,0.81629 0.48978,1.22444 -0.0816,0.24489 -0.16326,0.48977 -0.24489,0.73466 -0.0816,0.21224 -0.16326,0.42447 -0.24489,0.63671 -0.17958,0.13061 -0.35916,0.26121 -0.53875,0.39182 -0.11428,0.13061 -0.22856,0.26121 -0.34284,0.39182 -0.22857,-0.0163 -0.45713,-0.0326 -0.68569,-0.049 -0.21224,-0.11428 -0.42447,-0.22856 -0.63671,-0.34284 -0.0816,-0.16326 -0.16326,-0.32652 -0.24489,-0.48978 0.11429,-0.24489 0.22857,-0.48977 0.34285,-0.73466 -0.26122,-0.14694 -0.52243,-0.29386 -0.78364,-0.4408 -0.0653,0.29388 -0.13061,0.58773 -0.19591,0.8816 -0.19592,0.11428 -0.39182,0.22856 -0.58773,0.34284 -0.3102,-0.049 -0.62039,-0.0979 -0.93058,-0.14693 -0.17959,-0.17959 -0.35917,-0.35917 -0.53875,-0.53875 0.0653,-0.17959 0.13061,-0.35917 0.19591,-0.53876 0.19591,-0.16326 0.39182,-0.32651 0.58773,-0.48977 0.0327,-0.19592 0.0653,-0.39182 0.0979,-0.58773 0.11429,-0.13061 0.22857,-0.26122 0.34285,-0.39182 -0.40816,-0.19592 -0.81629,-0.39183 -1.22444,-0.58774 -0.42448,-0.049 -0.84895,-0.0979 -1.27342,-0.14693 -0.50611,0.11429 -1.0122,0.22856 -1.5183,0.34284 -0.2449,0.098 -0.48978,0.19592 -0.73467,0.29387 -0.19591,0.11428 -0.39182,0.22856 -0.587728,0.34284 -0.179589,-0.11428 -0.35917,-0.22856 -0.538753,-0.34284 -0.04898,-0.27754 -0.09796,-0.55508 -0.146934,-0.83262 z"
         inkscape:path-effect="#path-effect300" /><path
         style="fill:#ffffff;fill-opacity:1;fill-rule:evenodd;stroke:#121212;stroke-width:0.165;stroke-linecap:butt;stroke-linejoin:miter;stroke-dasharray:none;stroke-opacity:0.435407"
         d="m 106.26513,136.50781 c -0.0476,0.0303 -0.14288,0.0909 -0.21503,0.16885 -0.0721,0.0779 -0.12121,0.17315 -0.17316,0.27128 -0.052,0.0981 -0.10678,0.19914 -0.16885,0.27131 -0.0621,0.0722 -0.13131,0.11543 -0.20925,0.13419 -0.0779,0.0188 -0.16448,0.013 -0.22507,-0.0259 -0.0606,-0.0389 -0.0952,-0.11115 -0.10392,-0.25833 -0.009,-0.14718 0.009,-0.3694 0.088,-0.59019 0.0794,-0.22078 0.22078,-0.44012 0.38384,-0.6205 0.16306,-0.18037 0.34776,-0.32178 0.51371,-0.42135 0.16594,-0.0996 0.31313,-0.15729 0.45311,-0.17172 0.13998,-0.0144 0.27272,0.0144 0.39249,0.0577 0.11977,0.0433 0.22656,0.10101 0.34345,0.16306 0.11689,0.0621 0.24386,0.12843 0.37228,0.21068 0.12843,0.0822 0.25831,0.18038 0.37231,0.28716 0.11399,0.10677 0.21212,0.22223 0.27705,0.35931 0.0649,0.13708 0.0967,0.29583 0.0995,0.43436 0.003,0.13853 -0.0231,0.25684 -0.0707,0.37085 -0.0476,0.11401 -0.11687,0.22366 -0.19047,0.34198 -0.0736,0.11833 -0.15152,0.24532 -0.22944,0.35932 -0.0779,0.11399 -0.15584,0.21501 -0.22367,0.2684 -0.0678,0.0534 -0.12554,0.0592 -0.18905,0.0519 -0.0635,-0.007 -0.13274,-0.0274 -0.21356,-0.0895 -0.0808,-0.0621 -0.17315,-0.16593 -0.21211,-0.29147 -0.039,-0.12555 -0.0245,-0.27274 -0.0245,-0.41415 0,-0.14142 -0.0144,-0.27706 -0.0563,-0.39828 -0.0419,-0.12123 -0.11111,-0.22799 -0.18904,-0.31025 -0.0779,-0.0823 -0.1645,-0.13997 -0.23664,-0.17033 -0.0721,-0.0304 -0.12988,-0.0334 -0.18041,-0.032 -0.0505,0.001 -0.0938,0.007 -0.11542,0.01 -0.0216,0.003 -0.0216,0.003 -0.0692,0.0335 z"
         id="path106"
         transform="translate(2.5627957,-4.536841)"
         inkscape:original-d="m 106.31273,136.47752 c -0.0952,0.0606 -0.19048,0.12122 -0.28572,0.18183 -0.0491,0.0952 -0.0981,0.19047 -0.14719,0.28571 -0.0548,0.10102 -0.10967,0.20202 -0.1645,0.30304 -0.0693,0.0433 -0.13853,0.0866 -0.2078,0.12987 -0.0866,-0.006 -0.17316,-0.0115 -0.25974,-0.0173 -0.0346,-0.0721 -0.0693,-0.1443 -0.10389,-0.21646 0.0173,-0.22222 0.0346,-0.44444 0.0519,-0.66667 0.14142,-0.21934 0.28284,-0.43868 0.42425,-0.65801 0.18471,-0.14142 0.36941,-0.28283 0.55412,-0.42425 0.14719,-0.0577 0.29437,-0.11544 0.44156,-0.17316 0.13276,0.0289 0.26552,0.0577 0.39827,0.0866 0.10679,0.0577 0.21357,0.11544 0.32035,0.17316 0.12699,0.0664 0.25397,0.13276 0.38096,0.19914 0.12987,0.0981 0.25974,0.19625 0.38961,0.29437 0.0981,0.11545 0.19625,0.23089 0.29438,0.34633 0.0317,0.15873 0.0635,0.31746 0.0952,0.47619 -0.026,0.11833 -0.0519,0.23666 -0.0779,0.35498 -0.0693,0.10967 -0.13852,0.21934 -0.20779,0.32901 -0.0779,0.12699 -0.15585,0.25397 -0.23377,0.38096 -0.0779,0.10101 -0.15584,0.20202 -0.23377,0.30303 -0.0577,0.006 -0.11544,0.0115 -0.17316,0.0173 -0.0693,-0.0202 -0.13853,-0.0404 -0.20779,-0.0606 -0.0924,-0.1039 -0.18471,-0.20779 -0.27706,-0.31169 0.0144,-0.14719 0.0289,-0.29438 0.0433,-0.44156 -0.0144,-0.13565 -0.0289,-0.27129 -0.0433,-0.40694 -0.0693,-0.10678 -0.13853,-0.21356 -0.2078,-0.32035 -0.0866,-0.0577 -0.17316,-0.11544 -0.25974,-0.17316 -0.0577,-0.003 -0.11544,-0.006 -0.17316,-0.009 -0.0433,0.006 -0.0866,0.0115 -0.12987,0.0173 z"
         inkscape:path-effect="#path-effect304" /><path
         style="fill:none;fill-rule:evenodd;stroke:#121212;stroke-width:0.165;stroke-linecap:butt;stroke-linejoin:miter;stroke-dasharray:none;stroke-opacity:1"
         d="m 111.30845,130.16577 c -0.0115,0.17894 -0.0231,0.35787 -0.21393,0.60556 -0.19087,0.24768 -0.561,0.56407 -0.94093,0.59028 -0.37992,0.0262 -0.76942,-0.23774 -1.1591,-0.50181"
         id="path107"
         sodipodi:nodetypes="cccc"
         inkscape:original-d="m 111.30845,130.16577 c -0.0115,0.17894 -0.0231,0.35787 -0.0346,0.53681 -0.3702,0.31643 -0.74033,0.63282 -1.11055,0.94927 -0.38963,-0.26404 -0.77913,-0.52798 -1.16881,-0.79205"
         inkscape:path-effect="#path-effect308" /><ellipse
         style="fill:#000000;fill-opacity:1;stroke:#000000;stroke-width:0.165;stroke-linecap:round;stroke-linejoin:round;stroke-dasharray:none;stroke-opacity:1"
         id="ellipse107"
         cx="110.49485"
         cy="131.2998"
         rx="0.20779425"
         ry="0.19047806" /><path
         style="fill:none;fill-rule:evenodd;stroke:#121212;stroke-width:0.165;stroke-linecap:butt;stroke-linejoin:miter;stroke-dasharray:none;stroke-opacity:1"
         d="m 112.05304,131.89739 c -0.0923,0.11542 -0.18471,0.23089 -0.30304,0.30304 -0.11833,0.0722 -0.26261,0.10102 -0.36943,0.11257 -0.10681,0.0115 -0.17602,0.006 -0.24528,2e-5"
         id="path108"
         inkscape:original-d="m 112.05304,131.89739 c -0.0923,0.11544 -0.1847,0.23089 -0.27706,0.34633 -0.1443,0.0289 -0.2886,0.0577 -0.4329,0.0866 -0.0693,-0.006 -0.13853,-0.0115 -0.20779,-0.0173"
         inkscape:path-effect="#path-effect315" /><ellipse
         style="fill:#000000;fill-opacity:1;stroke:#000000;stroke-width:0.165;stroke-linecap:round;stroke-linejoin:round;stroke-dasharray:none;stroke-opacity:1"
         id="ellipse108"
         cx="111.0042"
         cy="132.32146"
         rx="0.20779425"
         ry="0.19047806" /><ellipse
         style="fill:#000000;fill-opacity:1;stroke:#000000;stroke-width:0.165;stroke-linecap:round;stroke-linejoin:round;stroke-dasharray:none;stroke-opacity:1"
         id="ellipse109"
         cx="110.4674"
         cy="133.91455"
         rx="0.20779425"
         ry="0.19047806" /><ellipse
         style="fill:#000000;fill-opacity:1;stroke:#000000;stroke-width:0.165;stroke-linecap:round;stroke-linejoin:round;stroke-dasharray:none;stroke-opacity:1"
         id="ellipse110"
         cx="107.00417"
         cy="132.8929"
         rx="0.20779425"
         ry="0.19047806" /></g></g></svg>
