<?xml version="1.0" encoding="UTF-8" standalone="no"?>
<!-- Created with Inkscape (http://www.inkscape.org/) -->

<svg
   width="9.6453161mm"
   height="9.367507mm"
   viewBox="0 0 9.6453161 9.367507"
   version="1.1"
   id="svg1"
   inkscape:version="1.3 (0e150ed6c4, 2023-07-21)"
   sodipodi:docname="WolfRightLeg.svg"
   xmlns:inkscape="http://www.inkscape.org/namespaces/inkscape"
   xmlns:sodipodi="http://sodipodi.sourceforge.net/DTD/sodipodi-0.dtd"
   xmlns:xlink="http://www.w3.org/1999/xlink"
   xmlns="http://www.w3.org/2000/svg"
   xmlns:svg="http://www.w3.org/2000/svg">
  <sodipodi:namedview
     id="namedview1"
     pagecolor="#505050"
     bordercolor="#eeeeee"
     borderopacity="1"
     inkscape:showpageshadow="0"
     inkscape:pageopacity="0"
     inkscape:pagecheckerboard="0"
     inkscape:deskcolor="#d1d1d1"
     inkscape:document-units="mm"
     inkscape:zoom="1.3505331"
     inkscape:cx="-32.579727"
     inkscape:cy="37.762865"
     inkscape:window-width="1280"
     inkscape:window-height="961"
     inkscape:window-x="-8"
     inkscape:window-y="-8"
     inkscape:window-maximized="1"
     inkscape:current-layer="layer1" />
  <defs
     id="defs1">
    <linearGradient
       inkscape:collect="always"
       xlink:href="#linearGradient29"
       id="linearGradient660"
       gradientUnits="userSpaceOnUse"
       x1="96.264984"
       y1="143.14882"
       x2="95.057793"
       y2="150.16696" />
    <linearGradient
       id="linearGradient29"
       inkscape:collect="always">
      <stop
         style="stop-color:#918984;stop-opacity:1;"
         offset="0"
         id="stop29" />
      <stop
         style="stop-color:#ada6a4;stop-opacity:1;"
         offset="1"
         id="stop30" />
    </linearGradient>
    <inkscape:path-effect
       effect="bspline"
       id="path-effect648"
       is_visible="true"
       lpeversion="1.3"
       weight="33.333333"
       steps="2"
       helper_size="0"
       apply_no_weight="true"
       apply_with_weight="true"
       only_selected="false"
       uniform="false" />
    <inkscape:path-effect
       effect="bspline"
       id="path-effect650"
       is_visible="true"
       lpeversion="1.3"
       weight="33.333333"
       steps="2"
       helper_size="0"
       apply_no_weight="true"
       apply_with_weight="true"
       only_selected="false"
       uniform="false" />
    <inkscape:path-effect
       effect="bspline"
       id="path-effect652"
       is_visible="true"
       lpeversion="1.3"
       weight="33.333333"
       steps="2"
       helper_size="0"
       apply_no_weight="true"
       apply_with_weight="true"
       only_selected="false"
       uniform="false" />
    <inkscape:path-effect
       effect="bspline"
       id="path-effect654"
       is_visible="true"
       lpeversion="1.3"
       weight="33.333333"
       steps="2"
       helper_size="0"
       apply_no_weight="true"
       apply_with_weight="true"
       only_selected="false"
       uniform="false" />
    <inkscape:path-effect
       effect="bspline"
       id="path-effect656"
       is_visible="true"
       lpeversion="1.3"
       weight="33.333333"
       steps="2"
       helper_size="0"
       apply_no_weight="true"
       apply_with_weight="true"
       only_selected="false"
       uniform="false" />
    <inkscape:path-effect
       effect="bspline"
       id="path-effect658"
       is_visible="true"
       lpeversion="1.3"
       weight="33.333333"
       steps="2"
       helper_size="0"
       apply_no_weight="true"
       apply_with_weight="true"
       only_selected="false"
       uniform="false" />
    <inkscape:path-effect
       effect="bspline"
       id="path-effect660"
       is_visible="true"
       lpeversion="1.3"
       weight="33.333333"
       steps="2"
       helper_size="0"
       apply_no_weight="true"
       apply_with_weight="true"
       only_selected="false"
       uniform="false" />
  </defs>
  <g
     inkscape:label="Layer 1"
     inkscape:groupmode="layer"
     id="layer1"
     transform="translate(-108.74375,-137.02998)">
    <g
       id="g662"
       transform="translate(-50.705302,29.67143)"
       inkscape:transform-center-x="2.7456884"
       inkscape:transform-center-y="4.5821418">
      <path
         style="fill:url(#linearGradient660);fill-rule:evenodd;stroke:#121212;stroke-width:0.165;stroke-linecap:butt;stroke-linejoin:miter;stroke-dasharray:none;stroke-opacity:1"
         d="m 95.814899,142.19728 c 0.158218,0.0248 0.474667,0.0744 0.882237,0.32499 0.40757,0.25054 0.906249,0.70198 1.163758,1.20933 0.257509,0.50734 0.273836,1.0706 0.167716,1.54813 -0.10612,0.47753 -0.334675,0.86934 -0.514262,1.31015 -0.179587,0.4408 -0.310193,0.93057 -0.375496,1.25708 -0.0653,0.32652 -0.0653,0.48978 10e-7,0.73467 0.06531,0.24489 0.195909,0.5714 0.261213,0.8816 0.0653,0.31019 0.0653,0.60405 -0.228568,0.83261 -0.293871,0.22857 -0.881588,0.39182 -1.404018,0.48978 -0.52243,0.098 -0.979548,0.13063 -1.355038,0.19594 -0.375491,0.0653 -0.669369,0.16327 -1.012215,0.2449 -0.342846,0.0816 -0.734659,0.14693 -1.012187,0.13061 -0.277529,-0.0163 -0.440811,-0.11429 -0.702028,-0.098 -0.261217,0.0163 -0.620377,0.14693 -0.881594,0.11428 -0.261218,-0.0327 -0.42447,-0.22856 -0.702012,-0.3102 -0.277541,-0.0816 -0.66936,-0.049 -0.930573,-0.14697 -0.261213,-0.098 -0.391819,-0.32652 -0.408143,-0.53876 -0.01632,-0.21224 0.08163,-0.40814 0.228563,-0.62038 0.146935,-0.21224 0.342841,-0.4408 0.669363,-0.66936 0.326522,-0.22857 0.783633,-0.45713 1.224437,-0.60406 0.440803,-0.14693 0.865266,-0.21224 1.273416,-0.34285 0.40815,-0.1306 0.799965,-0.32651 1.19179,-0.40813 0.391826,-0.0816 0.783634,-0.049 0.946893,-0.26119 0.163259,-0.21224 0.09796,-0.66935 -0.01632,-1.22444 -0.114282,-0.55508 -0.277537,-1.2081 -0.391819,-1.69788 -0.114283,-0.48978 -0.179585,-0.81629 -0.157281,-1.09585 0.0223,-0.27956 0.132213,-0.51215 0.317398,-0.70913 0.185185,-0.19697 0.44565,-0.35834 0.725956,-0.44768 0.280305,-0.0894 0.580454,-0.10669 0.730526,-0.11535 0.150072,-0.009 0.150072,-0.009 0.308291,0.0161 z"
         id="path641"
         inkscape:path-effect="#path-effect648"
         inkscape:original-d="m 95.65668,142.17247 c 0.316442,0.0496 0.63288,0.0993 0.94933,0.14889 0.498699,0.45145 0.997377,0.90289 1.496066,1.35434 0.01633,0.56324 0.03266,1.1265 0.04898,1.68973 -0.228565,0.39183 -0.457123,0.78364 -0.685686,1.17547 -0.130609,0.48978 -0.261212,0.97955 -0.391821,1.46932 0,0.16326 0,0.32652 0,0.48978 0.130611,0.32652 0.261215,0.65303 0.391821,0.97955 0,0.29387 0,0.58773 0,0.8816 -0.587743,0.16326 -1.175461,0.32651 -1.763194,0.48977 -0.457131,0.0326 -0.914246,0.0653 -1.371369,0.098 -0.293873,0.0979 -0.587733,0.19591 -0.881597,0.29386 -0.39183,0.0653 -0.783641,0.13061 -1.175462,0.19591 -0.163261,-0.0979 -0.326517,-0.19591 -0.489776,-0.29386 -0.359177,0.13061 -0.718338,0.26121 -1.077507,0.39182 -0.163261,-0.19592 -0.326517,-0.39182 -0.489776,-0.58773 -0.391827,0.0326 -0.78364,0.0653 -1.175461,0.0979 -0.130609,-0.22856 -0.261213,-0.45712 -0.391822,-0.68568 0.09796,-0.19592 0.195911,-0.39182 0.293867,-0.58773 0.195914,-0.22857 0.391819,-0.45713 0.58773,-0.68569 0.457134,-0.22857 0.914249,-0.45712 1.371372,-0.68569 0.424482,-0.0653 0.848945,-0.1306 1.273416,-0.19591 0.39183,-0.19591 0.783643,-0.39182 1.175462,-0.58773 0.391829,0.0327 0.783643,0.0653 1.175462,0.098 -0.0653,-0.45714 -0.130607,-0.91425 -0.195908,-1.37138 -0.163264,-0.65304 -0.326517,-1.30606 -0.489776,-1.9591 -0.06531,-0.32652 -0.130609,-0.65303 -0.195911,-0.97955 0.109911,-0.2326 0.219819,-0.46519 0.329729,-0.69778 0.260464,-0.16136 0.520925,-0.32273 0.781391,-0.48409 0.300149,-0.0173 0.600294,-0.0347 0.90044,-0.052 z"
         transform="translate(70.921685,-34.735253)"
         sodipodi:nodetypes="ccsccccccccccccccccccccccccscc" />
      <path
         style="fill:#ffffff;fill-opacity:1;fill-rule:evenodd;stroke:none;stroke-width:0.165;stroke-linecap:butt;stroke-linejoin:miter;stroke-dasharray:none;stroke-opacity:1"
         d="m 97.228645,150.07953 c -0.01632,0 -0.04897,0 -0.500921,0.0684 -0.451945,0.0684 -1.323117,0.20507 -2.029193,0.2878 -0.706075,0.0827 -1.246956,0.11146 -1.733796,-0.10935 -0.48684,-0.22081 -0.919571,-0.69112 -1.31604,-0.8105 -0.39647,-0.11939 -0.75661,0.11217 -1.076164,0.26927 -0.319554,0.1571 -0.598493,0.23971 -0.807464,0.31163 -0.208971,0.0719 -0.347962,0.13313 -0.465127,0.1448 -0.117164,0.0117 -0.212426,-0.0262 -0.29118,-0.0234 -0.07876,0.003 -0.140936,0.0462 -0.155469,0.13087 -0.01453,0.0846 0.01861,0.21044 0.09845,0.30937 0.07984,0.0989 0.206363,0.17096 0.337218,0.21283 0.130854,0.0419 0.26604,0.0536 0.390766,0.0636 0.124725,0.01 0.239014,0.0181 0.33493,0.0324 0.09592,0.0143 0.173464,0.0347 0.228563,0.0571 0.0551,0.0224 0.08775,0.047 0.13877,0.0796 0.05102,0.0327 0.120394,0.0735 0.208148,0.11225 0.08775,0.0388 0.19389,0.0755 0.306124,0.0857 0.112234,0.0102 0.230603,-0.006 0.367335,-0.0306 0.136733,-0.0245 0.291809,-0.0572 0.408136,-0.0735 0.116327,-0.0163 0.193873,-0.0163 0.289788,-0.004 0.09592,0.0122 0.210194,0.0367 0.322429,0.0531 0.112236,0.0163 0.222443,0.0245 0.330602,0.0265 0.10816,0.002 0.214275,-0.002 0.340807,-0.0204 0.126533,-0.0184 0.27345,-0.051 0.40815,-0.0837 0.1347,-0.0327 0.257134,-0.0653 0.406103,-0.102 0.148969,-0.0367 0.324467,-0.0775 0.473445,-0.11019 0.148978,-0.0327 0.271419,-0.0572 0.404068,-0.0796 0.132649,-0.0224 0.275498,-0.0428 0.443597,-0.0686 0.168099,-0.0258 0.361469,-0.0569 0.524728,-0.0855 0.163259,-0.0286 0.296423,-0.0546 0.432382,-0.088 0.135959,-0.0334 0.274724,-0.0742 0.405332,-0.11097 0.130608,-0.0367 0.253065,-0.0694 0.369387,-0.12037 0.116321,-0.051 0.226513,-0.12039 0.295899,-0.17754 0.06939,-0.0571 0.09796,-0.10204 0.112242,-0.12448 0.01428,-0.0224 0.01428,-0.0223 -0.002,-0.0223 z"
         id="path642"
         inkscape:path-effect="#path-effect650"
         inkscape:original-d="m 97.24497,150.07953 c -0.03265,0 -0.0653,0 -0.09796,0 -0.871231,0.13672 -1.742403,0.27343 -2.613638,0.41015 -0.540918,0.0287 -1.081795,0.0575 -1.622711,0.0862 -0.432765,-0.47035 -0.865496,-0.94066 -1.298264,-1.41101 -0.360172,0.23158 -0.720313,0.46314 -1.08048,0.69472 -0.278945,0.0826 -0.55788,0.16523 -0.836819,0.24785 -0.139011,0.0612 -0.277991,0.12244 -0.417032,0.18367 -0.09529,-0.0379 -0.190547,-0.0758 -0.285821,-0.11368 -0.06222,0.0435 -0.124424,0.0869 -0.186638,0.13036 0.03315,0.12583 0.06629,0.25163 0.09945,0.37747 0.126542,0.072 0.253048,0.14405 0.379576,0.21607 0.135186,0.0117 0.270366,0.0235 0.405551,0.0352 0.114281,0.008 0.22856,0.0163 0.342841,0.0245 0.07755,0.0204 0.155097,0.0408 0.232643,0.0612 0.03265,0.0245 0.0653,0.049 0.09796,0.0735 0.06939,0.0408 0.138769,0.0816 0.208153,0.12244 0.106122,0.0367 0.212238,0.0735 0.318355,0.1102 0.118366,-0.0163 0.236725,-0.0327 0.355089,-0.049 0.155099,-0.0327 0.310189,-0.0653 0.465286,-0.098 0.07755,0 0.155096,0 0.232642,0 0.114285,0.0245 0.228563,0.049 0.342845,0.0735 0.110201,0.008 0.220398,0.0163 0.330597,0.0245 0.106121,-0.004 0.212238,-0.008 0.318354,-0.0122 0.146937,-0.0327 0.293868,-0.0653 0.440799,-0.098 0.122446,-0.0327 0.244888,-0.0653 0.367331,-0.0979 0.175506,-0.0408 0.351007,-0.0816 0.526511,-0.12244 0.122446,-0.0245 0.244887,-0.049 0.367331,-0.0735 0.142854,-0.0204 0.285703,-0.0408 0.428554,-0.0612 0.193352,-0.0311 0.386712,-0.0623 0.580079,-0.0934 0.133162,-0.026 0.266314,-0.0521 0.399472,-0.0781 0.138771,-0.0408 0.27754,-0.0816 0.416308,-0.12245 0.122447,-0.0326 0.244888,-0.0653 0.367332,-0.0979 0.110202,-0.0694 0.220401,-0.13877 0.3306,-0.20816 0.02857,-0.0449 0.05714,-0.0898 0.08571,-0.13469 z"
         sodipodi:nodetypes="cccccccccccccccccccccccccccccccccccc"
         transform="translate(70.921685,-34.735253)" />
      <path
         style="fill:none;fill-rule:evenodd;stroke:#121212;stroke-width:0.165;stroke-linecap:round;stroke-linejoin:miter;stroke-dasharray:none;stroke-opacity:1"
         d="m 92.041103,151.25499 c -0.0081,-0.0163 -0.01631,-0.0326 -0.09591,-0.12856 -0.07961,-0.0959 -0.230618,-0.27145 -0.332656,-0.47144 -0.102037,-0.2 -0.155093,-0.42447 -0.167337,-0.59997 -0.01224,-0.17551 0.01632,-0.30203 0.04693,-0.38365 0.0306,-0.0816 0.06329,-0.1184 0.09592,-0.15511"
         id="path643"
         inkscape:path-effect="#path-effect652"
         inkscape:original-d="m 92.041103,151.25499 c -0.0081,-0.0163 -0.01633,-0.0326 -0.0245,-0.049 -0.151017,-0.17551 -0.302028,-0.35101 -0.453044,-0.52651 -0.05306,-0.22449 -0.106116,-0.44896 -0.159176,-0.67344 0.02857,-0.12653 0.05714,-0.25305 0.08571,-0.37958 0.03265,-0.0367 0.0653,-0.0735 0.09795,-0.1102"
         transform="translate(70.921685,-34.735253)" />
      <path
         style="fill:none;fill-rule:evenodd;stroke:#121212;stroke-width:0.165;stroke-linecap:round;stroke-linejoin:miter;stroke-dasharray:none;stroke-opacity:1"
         d="m 90.323302,149.73013 c -0.06002,0.20217 -0.120054,0.40435 -0.133749,0.55439 -0.0137,0.15004 0.01897,0.24805 0.05162,0.33987 0.03265,0.0918 0.0653,0.17755 0.10167,0.27803 0.03637,0.10047 0.07649,0.21581 0.116623,0.33118"
         id="path644"
         inkscape:path-effect="#path-effect654"
         inkscape:original-d="m 90.323302,149.73013 c -0.06002,0.20217 -0.120054,0.40435 -0.180082,0.60653 0.03265,0.0979 0.0653,0.19591 0.09796,0.29386 0.03265,0.0857 0.0653,0.17142 0.09795,0.25714 0.04009,0.11523 0.08021,0.23057 0.120339,0.34594"
         sodipodi:nodetypes="ccccc"
         transform="translate(70.921685,-34.735253)" />
      <path
         style="fill:#000000;fill-opacity:1;fill-rule:evenodd;stroke:#000000;stroke-width:0.264583px;stroke-linecap:butt;stroke-linejoin:miter;stroke-opacity:1"
         d="m 82.551696,148.03267 c 0.02449,0.0592 0.07347,0.17755 0.09387,0.27753 0.02041,0.1 0.01224,0.18164 -0.02451,0.25919 -0.03674,0.0776 -0.102033,0.15101 -0.15713,0.13672 -0.0551,-0.0143 -0.1,-0.11632 -0.110198,-0.2306 -0.0102,-0.11428 0.01429,-0.24081 0.04898,-0.32652 0.03469,-0.0857 0.07959,-0.13061 0.102035,-0.15305 0.02245,-0.0224 0.02245,-0.0224 0.04694,0.0367 z"
         id="path645"
         inkscape:path-effect="#path-effect656"
         inkscape:original-d="m 82.527208,147.97349 c 0.04898,0.11836 0.09796,0.23673 0.146933,0.35509 -0.0081,0.0816 -0.01632,0.16326 -0.0245,0.24488 -0.0653,0.0735 -0.130606,0.14694 -0.195908,0.2204 -0.0449,-0.10203 -0.08979,-0.20407 -0.134689,-0.3061 0.0245,-0.12653 0.04898,-0.25306 0.07347,-0.37958 0.0449,-0.0449 0.08979,-0.0898 0.134686,-0.13469 z"
         transform="translate(79.827622,-33.454875)" />
      <path
         style="fill:#000000;fill-opacity:1;fill-rule:evenodd;stroke:#000000;stroke-width:0.264583px;stroke-linecap:butt;stroke-linejoin:miter;stroke-opacity:1"
         d="m 82.551696,148.03267 c 0.02449,0.0592 0.07347,0.17755 0.09387,0.27753 0.02041,0.1 0.01224,0.18164 -0.02451,0.25919 -0.03674,0.0776 -0.102033,0.15101 -0.15713,0.13672 -0.0551,-0.0143 -0.1,-0.11632 -0.110198,-0.2306 -0.0102,-0.11428 0.01429,-0.24081 0.04898,-0.32652 0.03469,-0.0857 0.07959,-0.13061 0.102035,-0.15305 0.02245,-0.0224 0.02245,-0.0224 0.04694,0.0367 z"
         id="path646"
         inkscape:path-effect="#path-effect658"
         inkscape:original-d="m 82.527208,147.97349 c 0.04898,0.11836 0.09796,0.23673 0.146933,0.35509 -0.0081,0.0816 -0.01632,0.16326 -0.0245,0.24488 -0.0653,0.0735 -0.130606,0.14694 -0.195908,0.2204 -0.0449,-0.10203 -0.08979,-0.20407 -0.134689,-0.3061 0.0245,-0.12653 0.04898,-0.25306 0.07347,-0.37958 0.0449,-0.0449 0.08979,-0.0898 0.134686,-0.13469 z"
         transform="translate(77.230194,-32.796859)" />
      <path
         style="fill:#000000;fill-opacity:1;fill-rule:evenodd;stroke:#000000;stroke-width:0.264583px;stroke-linecap:butt;stroke-linejoin:miter;stroke-opacity:1"
         d="m 82.551696,148.03267 c 0.02449,0.0592 0.07347,0.17755 0.09387,0.27753 0.02041,0.1 0.01224,0.18164 -0.02451,0.25919 -0.03674,0.0776 -0.102033,0.15101 -0.15713,0.13672 -0.0551,-0.0143 -0.1,-0.11632 -0.110198,-0.2306 -0.0102,-0.11428 0.01429,-0.24081 0.04898,-0.32652 0.03469,-0.0857 0.07959,-0.13061 0.102035,-0.15305 0.02245,-0.0224 0.02245,-0.0224 0.04694,0.0367 z"
         id="path647"
         inkscape:path-effect="#path-effect660"
         inkscape:original-d="m 82.527208,147.97349 c 0.04898,0.11836 0.09796,0.23673 0.146933,0.35509 -0.0081,0.0816 -0.01632,0.16326 -0.0245,0.24488 -0.0653,0.0735 -0.130606,0.14694 -0.195908,0.2204 -0.0449,-0.10203 -0.08979,-0.20407 -0.134689,-0.3061 0.0245,-0.12653 0.04898,-0.25306 0.07347,-0.37958 0.0449,-0.0449 0.08979,-0.0898 0.134686,-0.13469 z"
         transform="translate(78.615489,-33.177816)" />
    </g>
  </g>
</svg>
