<?xml version="1.0" encoding="UTF-8" standalone="no"?>
<!-- Created with Inkscape (http://www.inkscape.org/) -->

<svg
   width="7.7381721mm"
   height="6.5804572mm"
   viewBox="0 0 7.7381721 6.5804572"
   version="1.1"
   id="svg1"
   xml:space="preserve"
   inkscape:version="1.3 (0e150ed6c4, 2023-07-21)"
   sodipodi:docname="WolfMouthTongue.svg"
   xmlns:inkscape="http://www.inkscape.org/namespaces/inkscape"
   xmlns:sodipodi="http://sodipodi.sourceforge.net/DTD/sodipodi-0.dtd"
   xmlns="http://www.w3.org/2000/svg"
   xmlns:svg="http://www.w3.org/2000/svg"><sodipodi:namedview
     id="namedview1"
     pagecolor="#505050"
     bordercolor="#eeeeee"
     borderopacity="1"
     inkscape:showpageshadow="0"
     inkscape:pageopacity="0"
     inkscape:pagecheckerboard="0"
     inkscape:deskcolor="#d1d1d1"
     inkscape:document-units="mm"
     inkscape:zoom="1.3505331"
     inkscape:cx="174.37559"
     inkscape:cy="-122.91443"
     inkscape:window-width="1280"
     inkscape:window-height="961"
     inkscape:window-x="-8"
     inkscape:window-y="-8"
     inkscape:window-maximized="1"
     inkscape:current-layer="layer1" /><defs
     id="defs1"><inkscape:path-effect
       effect="bspline"
       id="path-effect89"
       is_visible="true"
       lpeversion="1.3"
       weight="33.333333"
       steps="2"
       helper_size="0"
       apply_no_weight="true"
       apply_with_weight="true"
       only_selected="false"
       uniform="false" /><inkscape:path-effect
       effect="bspline"
       id="path-effect87"
       is_visible="true"
       lpeversion="1.3"
       weight="33.333333"
       steps="2"
       helper_size="0"
       apply_no_weight="true"
       apply_with_weight="true"
       only_selected="false"
       uniform="false" /><inkscape:path-effect
       effect="bspline"
       id="path-effect85"
       is_visible="true"
       lpeversion="1.3"
       weight="33.333333"
       steps="2"
       helper_size="0"
       apply_no_weight="true"
       apply_with_weight="true"
       only_selected="false"
       uniform="false" /></defs><g
     inkscape:label="Layer 1"
     inkscape:groupmode="layer"
     id="layer1"
     transform="translate(-129.8052,-97.67258)"><g
       id="g89"
       transform="translate(14.67597,-25.658131)"><path
         style="fill:none;fill-rule:evenodd;stroke:#000000;stroke-width:0.465;stroke-linecap:round;stroke-linejoin:miter;stroke-dasharray:none;stroke-opacity:1"
         d="m 62.54436,105.05689 c 0.58772,0.25305 1.175458,0.50611 1.763191,0.57957 0.587734,0.0735 1.17546,-0.0327 1.57544,-0.14286 0.39998,-0.1102 0.612223,-0.22448 0.938743,-0.36734 0.32652,-0.14285 0.767314,-0.31427 1.093832,-0.4612 0.326517,-0.14693 0.538754,-0.26938 0.75099,-0.39182 0,0 0.661199,-0.56324 0.661199,-0.56324 0.163259,-0.4408 0.326518,-0.8816 0.489777,-1.3224"
         id="path87"
         transform="translate(52.817368,21.175611)"
         sodipodi:nodetypes="cccccccc"
         inkscape:original-d="m 62.54436,105.05689 c 0.58772,0.25305 1.17546,0.5061 1.763192,0.75916 0.587732,-0.10613 1.175458,-0.21225 1.763192,-0.31837 0.212226,-0.11428 0.424472,-0.22856 0.63671,-0.34285 0.4408,-0.17142 0.881594,-0.34284 1.322393,-0.51426 0.212238,-0.12244 0.636709,-0.36733 0.636709,-0.36733 L 69.327755,103.71 c 0,0 0.32652,-0.8816 0.489777,-1.3224"
         inkscape:path-effect="#path-effect89" /><g
         id="g84"
         transform="rotate(9.2676325,161.95996,82.119852)"
         inkscape:transform-center-x="1.7852945"
         inkscape:transform-center-y="2.6264007"><path
           style="fill:#ec3547;fill-opacity:1;fill-rule:evenodd;stroke:#9e1d1d;stroke-width:0.264583px;stroke-linecap:butt;stroke-linejoin:miter;stroke-opacity:1"
           d="m 125.98558,133.95745 c -0.15929,0.21952 -0.31857,0.43903 -0.4848,0.64692 -0.16623,0.20789 -0.33938,0.40414 -0.42019,0.65234 -0.0808,0.2482 -0.0693,0.54834 0.0577,0.785 0.12698,0.23665 0.3694,0.40981 0.7215,0.50794 0.3521,0.0981 0.81386,0.12123 1.2179,0.0404 0.40405,-0.0808 0.75037,-0.2655 0.9928,-0.50216 0.24242,-0.23666 0.38095,-0.52526 0.46177,-0.83118 0.0808,-0.30592 0.10391,-0.62915 0.12123,-0.95239 0.0173,-0.32324 0.0289,-0.64647 0.11797,-1.02762 0.0891,-0.38114 0.25582,-0.82017 0.42252,-1.25922 z"
           id="path83"
           transform="translate(-0.40718526,-0.42399171)"
           sodipodi:nodetypes="cccccccccccc"
           inkscape:original-d="m 125.98558,133.95745 c 0,0 -0.31857,0.43903 -0.47786,0.65855 -0.17317,0.19626 -0.34632,0.39251 -0.51948,0.58876 0.0115,0.30015 0.0231,0.60029 0.0346,0.90044 0.24243,0.17316 0.48485,0.34632 0.72728,0.51948 0.46177,0.0231 0.92353,0.0462 1.38529,0.0693 0.34633,-0.18471 0.69265,-0.36941 1.03897,-0.55412 0.13854,-0.28861 0.27706,-0.57721 0.41559,-0.86581 0.0231,-0.32324 0.0462,-0.64647 0.0693,-0.96971 0.0115,-0.32324 0.0231,-0.64647 0.0346,-0.9697 0.16671,-0.43906 0.50011,-1.31714 0.50011,-1.31714 z"
           inkscape:path-effect="#path-effect85" /><path
           style="fill:#fffbfc;fill-opacity:0.197183;fill-rule:evenodd;stroke:none;stroke-width:0.264583px;stroke-linecap:butt;stroke-linejoin:miter;stroke-opacity:1"
           d="m 126.96228,133.19611 c -0.0866,0.15585 -0.17316,0.31169 -0.27706,0.48197 -0.10389,0.17027 -0.22511,0.35498 -0.34921,0.51948 -0.1241,0.16451 -0.25108,0.30881 -0.36942,0.40694 -0.11834,0.0981 -0.22799,0.15007 -0.30591,0.21355 -0.0779,0.0635 -0.12411,0.13856 -0.1472,0.21356 -0.0231,0.075 -0.0231,0.15009 0.0548,0.22512 0.0779,0.075 0.23378,0.15008 0.38674,0.18759 0.15296,0.0375 0.30303,0.0375 0.43579,0.006 0.13276,-0.0317 0.2482,-0.0952 0.33478,-0.1847 0.0866,-0.0895 0.1443,-0.20491 0.19047,-0.32035 0.0462,-0.11543 0.0808,-0.23089 0.10101,-0.33191 0.0202,-0.10103 0.026,-0.18757 0.0548,-0.30014 0.0289,-0.11257 0.0808,-0.25107 0.13275,-0.3896 z"
           id="path84"
           sodipodi:nodetypes="ccccccccccccccc"
           inkscape:original-d="m 126.96228,133.19611 c 0,0 -0.17316,0.31169 -0.25974,0.46754 -0.12122,0.1847 -0.24243,0.36941 -0.36364,0.55411 -0.12699,0.14431 -0.25397,0.28861 -0.38096,0.43291 -0.10967,0.052 -0.21934,0.1039 -0.329,0.15584 -0.0462,0.075 -0.0924,0.15008 -0.13854,0.22511 0,0.075 0,0.15008 0,0.22511 0.15585,0.075 0.3117,0.15008 0.46754,0.22511 0.15008,0 0.30015,0 0.45022,0 0.11545,-0.0635 0.23089,-0.12698 0.34633,-0.19047 0.0577,-0.11545 0.11544,-0.23089 0.17316,-0.34633 0.0346,-0.11544 0.0693,-0.23088 0.10389,-0.34632 0.006,-0.0866 0.0115,-0.17316 0.0173,-0.25974 0.052,-0.13854 0.15584,-0.41559 0.15584,-0.41559 z"
           inkscape:path-effect="#path-effect87" /></g></g></g></svg>
