<?xml version="1.0" encoding="UTF-8" standalone="no"?>
<!-- Created with Inkscape (http://www.inkscape.org/) -->

<svg
   width="196.43886"
   height="307.03198"
   viewBox="0 0 51.974447 81.235545"
   version="1.1"
   id="svg1"
   inkscape:version="1.3 (0e150ed6c4, 2023-07-21)"
   sodipodi:docname="InsideWagon.svg"
   xml:space="preserve"
   xmlns:inkscape="http://www.inkscape.org/namespaces/inkscape"
   xmlns:sodipodi="http://sodipodi.sourceforge.net/DTD/sodipodi-0.dtd"
   xmlns:xlink="http://www.w3.org/1999/xlink"
   xmlns="http://www.w3.org/2000/svg"
   xmlns:svg="http://www.w3.org/2000/svg"><sodipodi:namedview
     id="namedview1"
     pagecolor="#505050"
     bordercolor="#eeeeee"
     borderopacity="1"
     inkscape:showpageshadow="0"
     inkscape:pageopacity="0"
     inkscape:pagecheckerboard="0"
     inkscape:deskcolor="#1e1e1e"
     inkscape:document-units="px"
     inkscape:zoom="0.95497111"
     inkscape:cx="324.09357"
     inkscape:cy="457.60546"
     inkscape:window-width="1280"
     inkscape:window-height="961"
     inkscape:window-x="-8"
     inkscape:window-y="-8"
     inkscape:window-maximized="1"
     inkscape:current-layer="layer1" /><defs
     id="defs1"><linearGradient
       id="linearGradient36"
       inkscape:collect="always"><stop
         style="stop-color:#d6442b;stop-opacity:1;"
         offset="0.0021978"
         id="stop35" /><stop
         style="stop-color:#4f1813;stop-opacity:1;"
         offset="1"
         id="stop36" /></linearGradient><linearGradient
       id="linearGradient615"
       inkscape:collect="always"><stop
         style="stop-color:#f14c30;stop-opacity:1;"
         offset="0"
         id="stop614" /><stop
         style="stop-color:#4f1813;stop-opacity:1;"
         offset="1"
         id="stop615" /></linearGradient><linearGradient
       id="linearGradient27"
       inkscape:collect="always"><stop
         style="stop-color:#000000;stop-opacity:1;"
         offset="0"
         id="stop27" /><stop
         style="stop-color:#000000;stop-opacity:0;"
         offset="1"
         id="stop28" /></linearGradient><linearGradient
       inkscape:collect="always"
       xlink:href="#linearGradient36"
       id="linearGradient303"
       gradientUnits="userSpaceOnUse"
       gradientTransform="matrix(0.97500674,0,0,1.1067644,-8.3738404,33.939276)"
       x1="34.676121"
       y1="75.327507"
       x2="31.541557"
       y2="90.412598" /><linearGradient
       inkscape:collect="always"
       xlink:href="#linearGradient36"
       id="linearGradient304"
       gradientUnits="userSpaceOnUse"
       gradientTransform="matrix(1.1067644,0,0,1.1067644,-11.997733,32.5594)"
       x1="54.071239"
       y1="96.191948"
       x2="54.365105"
       y2="137.92084" /><radialGradient
       inkscape:collect="always"
       xlink:href="#linearGradient27"
       id="radialGradient304"
       gradientUnits="userSpaceOnUse"
       gradientTransform="matrix(1.1067644,0,0,1.4809888,-73.287884,-8.7547176)"
       cx="90.445709"
       cy="117.36419"
       fx="90.445709"
       fy="117.36419"
       r="22.070578" /><linearGradient
       inkscape:collect="always"
       xlink:href="#linearGradient615"
       id="linearGradient305"
       gradientUnits="userSpaceOnUse"
       gradientTransform="matrix(1.1067644,0,0,1.1067644,-14.144207,35.165832)"
       x1="54.071239"
       y1="96.191948"
       x2="25.860157"
       y2="147.32452" /><linearGradient
       inkscape:collect="always"
       xlink:href="#linearGradient615"
       id="linearGradient306"
       gradientUnits="userSpaceOnUse"
       gradientTransform="matrix(0.97500674,0,0,1.1067644,-9.523737,35.165832)"
       x1="34.676121"
       y1="75.327507"
       x2="31.541557"
       y2="90.412598" /></defs><g
     inkscape:label="Layer 1"
     inkscape:groupmode="layer"
     id="layer1"
     transform="translate(-46.784508,-117.41749)"><g
       id="g303"
       transform="translate(44.883553)"><path
         id="path298"
         style="fill:url(#linearGradient303);fill-rule:evenodd;stroke-width:1.63789;stroke-linecap:round"
         d="m 12.588792,117.41749 h 26.457697 c 3.782489,0 6.827608,3.27797 6.827608,7.34972 v 2.42986 c 0,4.07174 -3.045119,7.34972 -6.827608,7.34972 H 12.588792 c -3.7824945,0 -6.8276085,-3.27798 -6.8276085,-7.34972 v -2.42986 c 0,-4.07175 3.0451151,-7.34972 6.8276085,-7.34972 z" /><path
         style="fill:#b63925;fill-opacity:1;fill-rule:evenodd;stroke:none;stroke-width:0.292831px;stroke-linecap:butt;stroke-linejoin:miter;stroke-opacity:1"
         d="m 53.290684,169.23722 c -0.651707,-0.74861 -1.997411,-0.70467 -1.997411,-0.70467 h -6.23028 v 15.7365 l 4.614676,2.87201 4.168385,-15.78939 c 0,0 0.222066,-1.2214 -0.55537,-2.11445 z"
         id="path299"
         sodipodi:nodetypes="scccccs" /><path
         style="fill:#591b15;fill-opacity:1;fill-rule:evenodd;stroke:none;stroke-width:0.292831px;stroke-linecap:butt;stroke-linejoin:miter;stroke-opacity:1"
         d="m 46.090142,195.41035 7.77477,-17.37122 v -7.55055 l -8.981104,16.7251 z"
         id="path300"
         sodipodi:nodetypes="ccccc" /><path
         id="path301"
         style="fill:url(#linearGradient304);fill-rule:evenodd;stroke:url(#radialGradient304);stroke-width:3.32029;stroke-linecap:round"
         d="m 11.797688,134.03421 h 30.033055 c 4.293637,0 7.750251,3.11471 7.750251,6.98366 v 43.98211 c 0,1.8758 -1.170725,5.16829 -2.154085,7.25197 l -35.629221,3.79465 c -4.2694965,0.45471 -7.7502583,-3.1147 -7.7502583,-6.98365 v -48.04508 c 0,-3.86895 3.4566156,-6.98366 7.7502583,-6.98366 z"
         sodipodi:nodetypes="sssscssss" /><rect
         style="fill:#bfbfbf;fill-opacity:1;fill-rule:evenodd;stroke-width:2.545;stroke-linecap:round;stroke-dasharray:none"
         id="rect301"
         width="3.0573633"
         height="10.841327"
         x="31.674988"
         y="131.00316" /><rect
         style="fill:#bfbfbf;fill-opacity:1;fill-rule:evenodd;stroke-width:2.545;stroke-linecap:round;stroke-dasharray:none"
         id="rect302"
         width="3.0573633"
         height="10.841327"
         x="14.043242"
         y="131.00316" /><path
         id="path302"
         style="fill:url(#linearGradient305);fill-rule:evenodd;stroke-width:3.32029;stroke-linecap:round"
         d="M 9.6512136,136.64065 H 39.684273 c 4.293637,0 7.750251,3.11471 7.750251,6.98365 v 48.04508 c 0,3.86895 -3.456614,6.98365 -7.750251,6.98365 H 9.6512136 c -4.2936427,0 -7.7502583,-3.1147 -7.7502583,-6.98365 V 143.6243 c 0,-3.86894 3.4566156,-6.98365 7.7502583,-6.98365 z" /><path
         id="path303"
         style="fill:url(#linearGradient306);fill-rule:evenodd;stroke-width:1.63789;stroke-linecap:round"
         d="m 11.438895,118.64405 h 26.457699 c 3.782489,0 6.827608,3.27797 6.827608,7.34971 v 2.42987 c 0,4.07174 -3.045119,7.34971 -6.827608,7.34971 H 11.438895 c -3.7824948,0 -6.8276087,-3.27797 -6.8276087,-7.34971 v -2.42987 c 0,-4.07174 3.045115,-7.34971 6.8276087,-7.34971 z" /></g></g></svg>
