<?xml version="1.0" encoding="UTF-8" standalone="no"?>
<!-- Created with Inkscape (http://www.inkscape.org/) -->

<svg
   width="17.08527mm"
   height="11.370667mm"
   viewBox="0 0 17.08527 11.370667"
   version="1.1"
   id="svg1"
   inkscape:version="1.3 (0e150ed6c4, 2023-07-21)"
   sodipodi:docname="CrateEmpty.svg"
   xml:space="preserve"
   xmlns:inkscape="http://www.inkscape.org/namespaces/inkscape"
   xmlns:sodipodi="http://sodipodi.sourceforge.net/DTD/sodipodi-0.dtd"
   xmlns:xlink="http://www.w3.org/1999/xlink"
   xmlns="http://www.w3.org/2000/svg"
   xmlns:svg="http://www.w3.org/2000/svg"><sodipodi:namedview
     id="namedview1"
     pagecolor="#505050"
     bordercolor="#eeeeee"
     borderopacity="1"
     inkscape:showpageshadow="0"
     inkscape:pageopacity="0"
     inkscape:pagecheckerboard="0"
     inkscape:deskcolor="#d1d1d1"
     inkscape:document-units="mm"
     inkscape:zoom="5.6568542"
     inkscape:cx="33.941126"
     inkscape:cy="22.980971"
     inkscape:window-width="1280"
     inkscape:window-height="961"
     inkscape:window-x="-8"
     inkscape:window-y="-8"
     inkscape:window-maximized="1"
     inkscape:current-layer="layer1" /><defs
     id="defs1"><linearGradient
       id="linearGradient16"
       inkscape:collect="always"><stop
         style="stop-color:#521a02;stop-opacity:1;"
         offset="0"
         id="stop11" /><stop
         style="stop-color:#9a3409;stop-opacity:1;"
         offset="0.33305085"
         id="stop12" /><stop
         style="stop-color:#621e01;stop-opacity:1;"
         offset="0.45254236"
         id="stop13" /><stop
         style="stop-color:#a34117;stop-opacity:1;"
         offset="0.65677965"
         id="stop14" /><stop
         style="stop-color:#441602;stop-opacity:1;"
         offset="1"
         id="stop15" /></linearGradient><linearGradient
       id="linearGradient10"
       inkscape:collect="always"><stop
         style="stop-color:#521a02;stop-opacity:1;"
         offset="0"
         id="stop6" /><stop
         style="stop-color:#9a3409;stop-opacity:1;"
         offset="0.1398305"
         id="stop7" /><stop
         style="stop-color:#621e01;stop-opacity:1;"
         offset="0.29999998"
         id="stop8" /><stop
         style="stop-color:#a34117;stop-opacity:1;"
         offset="0.90084743"
         id="stop9" /><stop
         style="stop-color:#441602;stop-opacity:1;"
         offset="1"
         id="stop10" /></linearGradient><linearGradient
       id="linearGradient49"
       inkscape:collect="always"><stop
         style="stop-color:#521a02;stop-opacity:1;"
         offset="0"
         id="stop49" /><stop
         style="stop-color:#9a3409;stop-opacity:1;"
         offset="0.24830508"
         id="stop124" /><stop
         style="stop-color:#621e01;stop-opacity:1;"
         offset="0.49661016"
         id="stop122" /><stop
         style="stop-color:#a34117;stop-opacity:1;"
         offset="0.74830508"
         id="stop123" /><stop
         style="stop-color:#441602;stop-opacity:1;"
         offset="1"
         id="stop50" /></linearGradient><linearGradient
       inkscape:collect="always"
       xlink:href="#linearGradient49"
       id="linearGradient5"
       x1="111.72031"
       y1="144.60672"
       x2="128.45522"
       y2="144.60672"
       gradientUnits="userSpaceOnUse"
       gradientTransform="translate(1.3577697,4.0772034)" /><linearGradient
       inkscape:collect="always"
       xlink:href="#linearGradient10"
       id="linearGradient6"
       gradientUnits="userSpaceOnUse"
       gradientTransform="matrix(1,0,0,-1,1.3577697,295.93657)"
       x1="111.72031"
       y1="144.60672"
       x2="128.45522"
       y2="144.60672" /><linearGradient
       inkscape:collect="always"
       xlink:href="#linearGradient16"
       id="linearGradient11"
       gradientUnits="userSpaceOnUse"
       gradientTransform="matrix(-1,0,0,1,241.53329,9.3688703)"
       x1="111.72031"
       y1="144.60672"
       x2="128.45522"
       y2="144.60672" /><linearGradient
       inkscape:collect="always"
       xlink:href="#linearGradient49"
       id="linearGradient52"
       gradientUnits="userSpaceOnUse"
       gradientTransform="translate(1.3577697,12.014704)"
       x1="111.72031"
       y1="144.60672"
       x2="128.45522"
       y2="144.60672" /><linearGradient
       inkscape:collect="always"
       xlink:href="#linearGradient49"
       id="linearGradient53"
       gradientUnits="userSpaceOnUse"
       gradientTransform="rotate(-90,119.76506,149.70823)"
       x1="111.72031"
       y1="144.60672"
       x2="128.45522"
       y2="144.60672" /><linearGradient
       inkscape:collect="always"
       xlink:href="#linearGradient49"
       id="linearGradient69"
       gradientUnits="userSpaceOnUse"
       gradientTransform="rotate(-90,126.52721,142.94608)"
       x1="111.72031"
       y1="144.60672"
       x2="128.45522"
       y2="144.60672" /></defs><g
     inkscape:label="Layer 1"
     inkscape:groupmode="layer"
     id="layer1"
     transform="translate(-113.12787,-147.05039)"><g
       id="g1"><rect
         style="fill:#2f1604;fill-opacity:1;fill-rule:evenodd;stroke:#421f05;stroke-width:0.165;stroke-linecap:round;stroke-linejoin:round;stroke-dasharray:none;stroke-opacity:1"
         id="rect69"
         width="13.657473"
         height="8.6996231"
         x="114.31118"
         y="148.12744" /><path
         style="fill:url(#linearGradient5);fill-rule:evenodd;stroke:#421f05;stroke-width:0.165;stroke-linecap:butt;stroke-linejoin:miter;stroke-dasharray:none;stroke-opacity:1"
         d="m 113.21037,147.74596 v 2.05052 l 3.87521,-0.0935 3.90191,0.11693 4.90752,-0.14032 3.78568,0.11693 v -2.03398 l -3.81356,-0.21447 -4.4216,0.20647 -2.78457,-0.14432 z"
         id="path4"
         sodipodi:nodetypes="ccccccccccc" /><path
         style="fill:url(#linearGradient6);fill-rule:evenodd;stroke:#421f05;stroke-width:0.165;stroke-linecap:butt;stroke-linejoin:miter;stroke-dasharray:none;stroke-opacity:1"
         d="m 113.21037,152.2678 v -2.05052 l 3.87521,0.0935 3.90191,-0.11693 4.90752,0.14032 3.78568,-0.11693 v 2.03398 l -3.81356,0.21447 -4.4216,-0.20647 -2.78457,0.14432 z"
         id="path6"
         sodipodi:nodetypes="ccccccccccc" /><path
         style="fill:url(#linearGradient11);fill-rule:evenodd;stroke:#421f05;stroke-width:0.165;stroke-linecap:butt;stroke-linejoin:miter;stroke-dasharray:none;stroke-opacity:1"
         d="m 129.68069,153.03766 v 2.05052 l -3.87521,-0.0935 -3.90191,0.11693 -4.90752,-0.14032 -3.78568,0.11693 v -2.03398 l 3.81356,-0.21447 4.4216,0.20647 2.78457,-0.14432 z"
         id="path10"
         sodipodi:nodetypes="ccccccccccc" /><path
         style="fill:url(#linearGradient52);fill-rule:evenodd;stroke:#421f05;stroke-width:0.165;stroke-linecap:butt;stroke-linejoin:miter;stroke-dasharray:none;stroke-opacity:1"
         d="m 113.21037,155.68351 v 2.05052 l 3.87521,-0.0935 3.90191,0.11693 4.90752,-0.14032 3.78568,0.11693 v -2.03398 l -3.81356,-0.21447 -4.4216,0.20647 -2.78457,-0.14432 z"
         id="path43"
         sodipodi:nodetypes="ccccccccccc" /><path
         id="path53"
         style="fill:url(#linearGradient53);fill-rule:evenodd;stroke:#421f05;stroke-width:0.165;stroke-linecap:butt;stroke-linejoin:miter;stroke-dasharray:none;stroke-opacity:1"
         d="m 114.76997,147.13463 v 0.001 c -0.0745,0.004 -0.19722,0.0517 -0.24701,0.0605 -0.0213,0.004 -0.043,-4.8e-4 -0.0646,-5.2e-4 -0.0135,-3e-5 -0.0268,4e-5 -0.0403,0 -0.11499,-1.1e-4 -0.23021,0.001 -0.3452,0.001 -0.0153,-3.6e-4 -0.0307,-0.001 -0.046,-0.002 -0.0175,0.004 -0.0347,0.008 -0.0532,0.01 -0.004,0.009 -0.02,0.01 -0.03,0.0134 -0.0318,0.0134 -0.0496,0.0192 -0.078,0.0362 -0.0378,0.0112 -0.0334,0.0221 -0.0651,0.0398 -0.0297,0.0169 -0.0392,0.0168 -0.0724,0.0258 -0.003,0.002 -0.005,0.004 -0.008,0.005 -0.0264,0.009 -0.0538,0.0151 -0.0806,0.0227 l 0.0951,2.03864 -0.14469,2.78432 0.13591,5.45083 h 2.05052 l -0.093,-3.87521 0.11679,-3.90209 -0.0682,-2.39934 c -0.0126,-0.005 -0.0259,-0.0103 -0.0372,-0.0176 -0.009,-0.006 -0.0164,-0.0127 -0.0238,-0.0202 -0.0385,-0.0134 -0.0646,-0.0112 -0.10904,-0.0294 -0.0364,0.0164 -0.031,-0.0375 -0.0527,-0.0465 -10e-4,0 0.001,0.005 0,0.004 -0.0108,-0.004 -0.0193,-0.0179 -0.0253,-0.007 -0.0364,-0.006 -0.0606,-0.01 -0.0847,-0.0264 -0.12983,0.004 -0.22312,-0.0409 -0.36845,-0.10542 -0.0214,-0.011 -0.044,-0.0197 -0.0641,-0.0331 -0.003,-0.003 3e-4,-0.0106 -0.003,-0.0114 -0.0531,-0.01 -0.11305,0.007 -0.16485,-0.015 -0.008,-0.002 -0.0178,-0.002 -0.0284,-0.002 z m 0.8847,0.25786 c 0.003,0.002 0.006,0.004 0.009,0.007 l -0.005,-0.005 c -0.001,-10e-4 -0.005,-0.003 -0.004,-0.002 z" /><path
         id="path69"
         style="fill:url(#linearGradient69);fill-rule:evenodd;stroke:#421f05;stroke-width:0.165;stroke-linecap:butt;stroke-linejoin:miter;stroke-dasharray:none;stroke-opacity:1"
         d="m 128.29453,147.13463 v 0.001 c -0.0745,0.004 -0.19722,0.0517 -0.24701,0.0605 -0.0213,0.004 -0.043,-4.8e-4 -0.0646,-5.2e-4 -0.0135,-3e-5 -0.0268,4e-5 -0.0403,0 -0.11499,-1.1e-4 -0.23021,0.001 -0.3452,0.001 -0.0153,-3.6e-4 -0.0307,-0.001 -0.046,-0.002 -0.0175,0.004 -0.0347,0.008 -0.0532,0.01 -0.004,0.009 -0.02,0.01 -0.03,0.0134 -0.0318,0.0134 -0.0496,0.0192 -0.078,0.0362 -0.0378,0.0112 -0.0334,0.0221 -0.0651,0.0398 -0.0297,0.0169 -0.0392,0.0168 -0.0724,0.0258 -0.003,0.002 -0.005,0.004 -0.008,0.005 -0.0264,0.009 -0.0538,0.0151 -0.0806,0.0227 l 0.0951,2.03864 -0.14469,2.78432 0.13591,5.45083 h 2.05052 l -0.093,-3.87521 0.11679,-3.90209 -0.0682,-2.39934 c -0.0126,-0.005 -0.0259,-0.0103 -0.0372,-0.0176 -0.009,-0.006 -0.0164,-0.0127 -0.0238,-0.0202 -0.0385,-0.0134 -0.0646,-0.0112 -0.10904,-0.0294 -0.0364,0.0164 -0.031,-0.0375 -0.0527,-0.0465 -10e-4,0 0.001,0.005 0,0.004 -0.0108,-0.004 -0.0193,-0.0179 -0.0253,-0.007 -0.0364,-0.006 -0.0606,-0.01 -0.0847,-0.0264 -0.12983,0.004 -0.22312,-0.0409 -0.36845,-0.10542 -0.0214,-0.011 -0.044,-0.0197 -0.0641,-0.0331 -0.003,-0.003 3e-4,-0.0106 -0.003,-0.0114 -0.0531,-0.01 -0.11305,0.007 -0.16485,-0.015 -0.008,-0.002 -0.0178,-0.002 -0.0284,-0.002 z m 0.8847,0.25786 c 0.003,0.002 0.006,0.004 0.009,0.007 l -0.005,-0.005 c -0.001,-10e-4 -0.005,-0.003 -0.004,-0.002 z" /><path
         style="fill:#000000;fill-opacity:0.28648648;fill-rule:evenodd;stroke:none;stroke-width:0.264583px;stroke-linecap:butt;stroke-linejoin:miter;stroke-opacity:1"
         d="m 113.28219,157.52866 16.27671,0.14031 0.65424,0.75209 -16.06692,-0.0662 z"
         id="path74"
         sodipodi:nodetypes="ccccc" /></g></g></svg>
