<?xml version="1.0" encoding="UTF-8" standalone="no"?>
<!-- Created with Inkscape (http://www.inkscape.org/) -->

<svg
   width="15.000001"
   height="27.750061"
   viewBox="0 0 4.2333337 7.831684"
   version="1.1"
   id="svg1"
   inkscape:version="1.3 (0e150ed6c4, 2023-07-21)"
   sodipodi:docname="gameVolcanoInnerLevel3.svg"
   xml:space="preserve"
   xmlns:inkscape="http://www.inkscape.org/namespaces/inkscape"
   xmlns:sodipodi="http://sodipodi.sourceforge.net/DTD/sodipodi-0.dtd"
   xmlns="http://www.w3.org/2000/svg"
   xmlns:svg="http://www.w3.org/2000/svg"
   xmlns:rdf="http://www.w3.org/1999/02/22-rdf-syntax-ns#"
   xmlns:cc="http://creativecommons.org/ns#"
   xmlns:dc="http://purl.org/dc/elements/1.1/"><metadata
     id="metadata585"><rdf:RDF><cc:Work
         rdf:about=""><dc:format>image/svg+xml</dc:format><dc:type
           rdf:resource="http://purl.org/dc/dcmitype/StillImage" /></cc:Work></rdf:RDF></metadata><sodipodi:namedview
     id="namedview1"
     pagecolor="#505050"
     bordercolor="#eeeeee"
     borderopacity="1"
     inkscape:showpageshadow="0"
     inkscape:pageopacity="1"
     inkscape:pagecheckerboard="0"
     inkscape:deskcolor="#141414"
     inkscape:document-units="px"
     inkscape:zoom="0.3535534"
     inkscape:cx="1080.4591"
     inkscape:cy="424.26406"
     inkscape:window-width="1280"
     inkscape:window-height="961"
     inkscape:window-x="-8"
     inkscape:window-y="-8"
     inkscape:window-maximized="1"
     inkscape:current-layer="layer1"
     showgrid="false"
     units="px" /><defs
     id="defs1"><linearGradient
       id="swatch2"
       inkscape:swatch="solid"><stop
         style="stop-color:#000000;stop-opacity:1;"
         offset="0"
         id="stop2-3" /></linearGradient></defs><g
     inkscape:label="Layer 1"
     inkscape:groupmode="layer"
     id="layer1"
     transform="translate(-49.671112,-223.15858)"><g
       id="g67"
       transform="matrix(1.0666667,0,0,1.0666667,-78.195281,64.258733)"><path
         id="path66"
         style="opacity:1;fill:#aa5f34;fill-opacity:1;fill-rule:evenodd;stroke-width:0.079375"
         d="m 121.85912,148.96862 a 1.984375,1.984375 0 0 0 -1.98438,1.98438 1.984375,1.984375 0 0 0 1.02526,1.73116 v 3.62665 h 1.91823 v -3.62665 a 1.984375,1.984375 0 0 0 1.02526,-1.73116 1.984375,1.984375 0 0 0 -1.98437,-1.98438 z" /><path
         id="path67"
         style="opacity:1;fill:#2c1806;fill-opacity:1;fill-rule:evenodd;stroke-width:0.0498689"
         d="m 121.89219,149.70803 c -0.52971,-1e-5 -1.39176,0.53846 -1.39176,1.43348 0.001,0.58831 0.62337,1.12944 0.92818,1.41379 v 2.96176 h 0.92715 v -2.96176 c 0.30481,-0.28435 0.84527,-0.82548 0.84633,-1.41379 0,-0.89501 -0.7802,-1.43348 -1.3099,-1.43348 z"
         sodipodi:nodetypes="sccccccs" /></g></g></svg>
