<?xml version="1.0" encoding="UTF-8" standalone="no"?>
<!-- Created with Inkscape (http://www.inkscape.org/) -->

<svg
   width="83"
   height="37.176147"
   viewBox="0 0 23.424445 10.491935"
   version="1.1"
   id="svg1"
   inkscape:version="1.3 (0e150ed6c4, 2023-07-21)"
   sodipodi:docname="gameVolcano.svg"
   xml:space="preserve"
   xmlns:inkscape="http://www.inkscape.org/namespaces/inkscape"
   xmlns:sodipodi="http://sodipodi.sourceforge.net/DTD/sodipodi-0.dtd"
   xmlns:xlink="http://www.w3.org/1999/xlink"
   xmlns="http://www.w3.org/2000/svg"
   xmlns:svg="http://www.w3.org/2000/svg"
   xmlns:rdf="http://www.w3.org/1999/02/22-rdf-syntax-ns#"
   xmlns:cc="http://creativecommons.org/ns#"
   xmlns:dc="http://purl.org/dc/elements/1.1/"><metadata
     id="metadata585"><rdf:RDF><cc:Work
         rdf:about=""><dc:format>image/svg+xml</dc:format><dc:type
           rdf:resource="http://purl.org/dc/dcmitype/StillImage" /></cc:Work></rdf:RDF></metadata><sodipodi:namedview
     id="namedview1"
     pagecolor="#505050"
     bordercolor="#eeeeee"
     borderopacity="1"
     inkscape:showpageshadow="0"
     inkscape:pageopacity="1"
     inkscape:pagecheckerboard="0"
     inkscape:deskcolor="#d1d1d1"
     inkscape:document-units="px"
     inkscape:zoom="0.64"
     inkscape:cx="446.875"
     inkscape:cy="426.5625"
     inkscape:window-width="1280"
     inkscape:window-height="961"
     inkscape:window-x="-8"
     inkscape:window-y="-8"
     inkscape:window-maximized="1"
     inkscape:current-layer="layer1"
     showgrid="false"
     units="px" /><defs
     id="defs1"><linearGradient
       id="linearGradient103"
       inkscape:collect="always"><stop
         style="stop-color:#5c4942;stop-opacity:1;"
         offset="0"
         id="stop101" /><stop
         style="stop-color:#886a5d;stop-opacity:1;"
         offset="0.6401546"
         id="stop102" /><stop
         style="stop-color:#5b3c2a;stop-opacity:1;"
         offset="0.92352551"
         id="stop104" /><stop
         style="stop-color:#5b3c2a;stop-opacity:0;"
         offset="1"
         id="stop103" /></linearGradient><linearGradient
       id="linearGradient28"
       inkscape:collect="always"><stop
         style="stop-color:#5c4942;stop-opacity:1;"
         offset="0"
         id="stop18" /><stop
         style="stop-color:#886a5d;stop-opacity:1;"
         offset="0.24830508"
         id="stop19" /><stop
         style="stop-color:#5b3c2a;stop-opacity:1;"
         offset="0.3728478"
         id="stop25" /><stop
         style="stop-color:#a34117;stop-opacity:1;"
         offset="0.41909716"
         id="stop26" /><stop
         style="stop-color:#441602;stop-opacity:1;"
         offset="1"
         id="stop27" /></linearGradient><linearGradient
       id="swatch2"
       inkscape:swatch="solid"><stop
         style="stop-color:#000000;stop-opacity:1;"
         offset="0"
         id="stop2-3" /></linearGradient><linearGradient
       inkscape:collect="always"
       xlink:href="#linearGradient28"
       id="linearGradient915"
       gradientUnits="userSpaceOnUse"
       gradientTransform="matrix(0.49783169,0,0,1,137.48983,-76.189359)"
       x1="124.01074"
       y1="162.0327"
       x2="123.97898"
       y2="170.83011" /><linearGradient
       inkscape:collect="always"
       xlink:href="#linearGradient103"
       id="linearGradient916"
       gradientUnits="userSpaceOnUse"
       gradientTransform="matrix(0.49783169,0,0,1.0594136,147.02578,-69.075832)"
       x1="105.36106"
       y1="146.48575"
       x2="105.36106"
       y2="149.68184" /></defs><g
     inkscape:label="Layer 1"
     inkscape:groupmode="layer"
     id="layer1"
     transform="translate(-153.69669,-145.55861)"><g
       id="g916"
       transform="translate(-34.526922,59.531251)"><path
         id="path906"
         style="fill:url(#linearGradient915);fill-opacity:1;fill-rule:evenodd;stroke:none;stroke-width:0.705572"
         d="m 211.64804,86.027348 -23.42444,0.0186 v 9.87744 c 0.73533,0.300234 1.37692,0.595016 2.21288,0.496691 0.97389,0.280655 1.3468,-1.088864 2.30855,-0.921729 0.80318,0.204776 1.55248,-0.0683 2.1738,-0.575862 0.9186,-0.222185 3.57439,1.002203 4.3268,1.284337 2.11375,0.792599 3.39562,-0.113172 4.94675,-0.616425 1.34591,-0.436668 2.53779,0.407397 3.73086,-0.263856 0.91943,-0.628702 1.86425,-0.262845 2.7508,0.02367 0.31964,0.1033 0.974,0.573174 0.974,0.573174 v -9.896037 z"
         inkscape:connector-curvature="0"
         sodipodi:nodetypes="sccsscssssccs" /><path
         style="opacity:0.508064;fill:#a94614;fill-opacity:1;fill-rule:evenodd;stroke:#3e1201;stroke-width:0.264583px;stroke-linecap:butt;stroke-linejoin:miter;stroke-opacity:1"
         d="m 194.25013,92.839634 c -0.83118,0.3694 -1.66236,0.73882 -2.49353,1.10823 -0.87737,0.18471 -1.75471,0.36941 -2.63206,0.55413 -0.18471,-0.69267 -0.36941,-1.3853 -0.55412,-2.07795 0.4156,-0.55413 0.83118,-1.10823 1.24677,-1.66235 0.64648,-0.32324 1.29294,-0.64647 1.93941,-0.96971 0.83119,1.01591 1.66235,2.03177 2.49353,3.04765 z"
         id="path907"
         inkscape:connector-curvature="0" /><path
         style="opacity:0.508064;fill:#a94614;fill-opacity:1;fill-rule:evenodd;stroke:#6a2508;stroke-width:0.264583px;stroke-linecap:butt;stroke-linejoin:miter;stroke-opacity:1"
         d="m 210.35689,91.955539 c -0.36941,0.32324 -0.73883,0.64648 -1.10823,0.96971 0.46177,0.46177 0.92353,0.92353 1.38529,1.3853 0.27707,-0.23089 0.55412,-0.46177 0.83117,-0.69265 -0.36941,-0.55413 -0.73882,-1.10824 -1.10823,-1.66236 z"
         id="path910"
         inkscape:connector-curvature="0" /><path
         style="opacity:0.508064;fill:#a94614;fill-opacity:1;fill-rule:evenodd;stroke:#551c05;stroke-width:0.264583px;stroke-linecap:butt;stroke-linejoin:miter;stroke-opacity:1"
         d="m 208.66983,89.840301 c -0.55412,-0.0924 -1.10823,-0.1847 -1.66235,-0.27706 -0.13853,0.60031 -0.27707,1.20059 -0.4156,1.80089 0.50795,0.23088 1.0159,0.46176 1.52383,0.69265 0.4156,-0.13854 0.83117,-0.27706 1.24676,-0.41559 -0.23088,-0.60031 -0.46176,-1.20059 -0.69264,-1.80089 z"
         id="path911"
         inkscape:connector-curvature="0" /><path
         style="opacity:0.508064;fill:#a94614;fill-opacity:1;fill-rule:evenodd;stroke:#3e1201;stroke-width:0.264583px;stroke-linecap:butt;stroke-linejoin:miter;stroke-opacity:1"
         d="m 203.15513,91.825924 c 0.39126,0.43857 0.78251,0.877152 1.17376,1.315732 0.19897,0.56638 0.39791,1.13273 0.59688,1.69909 0.6428,0.0829 1.28558,0.16582 1.92838,0.24873 0.42807,-0.20685 0.85612,-0.41369 1.28418,-0.62053 0.0751,-0.5045 0.15009,-1.00898 0.22506,-1.51347 -0.72975,-0.18037 -1.45947,-0.36074 -2.18921,-0.54111 -0.4321,-0.533422 -0.86419,-1.066822 -1.29628,-1.600232 -0.52431,-0.53868 -1.0486,-1.07734 -1.5729,-1.616 0.0303,0.27925 0.0607,0.55848 0.091,0.83772 -0.0803,0.59669 -0.16061,1.19338 -0.24085,1.79007 z"
         id="path913"
         inkscape:connector-curvature="0" /><path
         style="opacity:0.508064;fill:#a94614;fill-opacity:1;fill-rule:evenodd;stroke:#3e1201;stroke-width:0.264583px;stroke-linecap:butt;stroke-linejoin:miter;stroke-opacity:1"
         d="m 199.59843,93.515067 c -0.69265,0.13853 -1.3853,0.27706 -2.07795,0.41559 -0.50794,0.18471 -1.01588,0.36941 -1.52382,0.55412 -0.46177,-0.50795 -0.92353,-1.01589 -1.38529,-1.52382 -0.0924,-0.46178 -0.18471,-0.92354 -0.27706,-1.3853 0.6003,-0.13853 1.20059,-0.27706 1.80088,-0.41559 0.4156,0.60031 0.83118,1.20059 1.24677,1.80089 0.55412,-0.4156 1.10823,-0.83118 1.66235,-1.24677 0.46177,-0.18471 0.92353,-0.36941 1.38529,-0.55412 0.50796,0.0924 1.01589,0.18471 1.52383,0.27706 -0.32324,0.4156 -0.64646,0.83118 -0.96971,1.24676 -0.46177,0.27707 -0.92353,0.55412 -1.38529,0.83118 z"
         id="path914"
         inkscape:connector-curvature="0" /><path
         style="opacity:0.508064;fill:#a94614;fill-opacity:1;fill-rule:evenodd;stroke:#3e1201;stroke-width:0.264583px;stroke-linecap:butt;stroke-linejoin:miter;stroke-opacity:1"
         d="m 202.63226,90.974586 c -0.55411,-0.55412 -1.10823,-1.10824 -1.66235,-1.66235 -0.78502,0.23088 -1.57,0.46176 -2.355,0.69264 -0.23089,0.13854 -0.46177,0.27706 -0.69265,0.41559 0,0.60031 0,1.20059 0,1.80089 0.60031,-0.50796 1.20059,-1.01589 1.80088,-1.52383 0.78502,-0.13853 1.57,-0.27706 2.35501,-0.41559 0.1847,0.23089 0.36941,0.46177 0.55411,0.69265 z"
         id="path915"
         inkscape:connector-curvature="0" /><rect
         style="fill:url(#linearGradient916);fill-rule:evenodd;stroke:none;stroke-width:0.209739;stroke-dasharray:none;stroke-opacity:1"
         id="rect915"
         width="23.424442"
         height="3.4750104"
         x="188.2236"
         y="86.027351" /></g></g></svg>
