<?xml version="1.0" encoding="UTF-8" standalone="no"?>
<!-- Created with Inkscape (http://www.inkscape.org/) -->

<svg
   width="25.43338"
   height="35.05188"
   viewBox="0 0 7.1778652 9.8924196"
   version="1.1"
   id="svg1"
   inkscape:version="1.3 (0e150ed6c4, 2023-07-21)"
   sodipodi:docname="gameVolcano.svg"
   xml:space="preserve"
   xmlns:inkscape="http://www.inkscape.org/namespaces/inkscape"
   xmlns:sodipodi="http://sodipodi.sourceforge.net/DTD/sodipodi-0.dtd"
   xmlns:xlink="http://www.w3.org/1999/xlink"
   xmlns="http://www.w3.org/2000/svg"
   xmlns:svg="http://www.w3.org/2000/svg"
   xmlns:rdf="http://www.w3.org/1999/02/22-rdf-syntax-ns#"
   xmlns:cc="http://creativecommons.org/ns#"
   xmlns:dc="http://purl.org/dc/elements/1.1/"><metadata
     id="metadata585"><rdf:RDF><cc:Work
         rdf:about=""><dc:format>image/svg+xml</dc:format><dc:type
           rdf:resource="http://purl.org/dc/dcmitype/StillImage" /></cc:Work></rdf:RDF></metadata><sodipodi:namedview
     id="namedview1"
     pagecolor="#505050"
     bordercolor="#eeeeee"
     borderopacity="1"
     inkscape:showpageshadow="0"
     inkscape:pageopacity="1"
     inkscape:pagecheckerboard="0"
     inkscape:deskcolor="#d1d1d1"
     inkscape:document-units="px"
     inkscape:zoom="0.45254834"
     inkscape:cx="620.92814"
     inkscape:cy="534.7495"
     inkscape:window-width="1280"
     inkscape:window-height="961"
     inkscape:window-x="-8"
     inkscape:window-y="-8"
     inkscape:window-maximized="1"
     inkscape:current-layer="layer1"
     showgrid="false"
     units="px" /><defs
     id="defs1"><linearGradient
       id="linearGradient196"
       inkscape:collect="always"><stop
         style="stop-color:#5c4942;stop-opacity:1;"
         offset="0"
         id="stop192" /><stop
         style="stop-color:#886a5d;stop-opacity:1;"
         offset="0.26084426"
         id="stop193" /><stop
         style="stop-color:#5b3c2a;stop-opacity:1;"
         offset="0.37598258"
         id="stop194" /><stop
         style="stop-color:#a34117;stop-opacity:1;"
         offset="0.41909716"
         id="stop195" /><stop
         style="stop-color:#441602;stop-opacity:1;"
         offset="1"
         id="stop196" /></linearGradient><linearGradient
       id="swatch2"
       inkscape:swatch="solid"><stop
         style="stop-color:#000000;stop-opacity:1;"
         offset="0"
         id="stop2-3" /></linearGradient><linearGradient
       inkscape:collect="always"
       xlink:href="#linearGradient196"
       id="linearGradient185"
       gradientUnits="userSpaceOnUse"
       gradientTransform="translate(-13.875282,5.254052)"
       x1="124.01074"
       y1="162.0327"
       x2="123.97898"
       y2="170.83011" /></defs><g
     inkscape:label="Layer 1"
     inkscape:groupmode="layer"
     id="layer1"
     transform="translate(-130.06096,-146.40475)"><g
       id="g185"
       transform="translate(-5.0261774,-21.06342)"><path
         id="path184"
         style="fill:url(#linearGradient185);fill-opacity:1;fill-rule:evenodd;stroke:none"
         d="m 135.08714,167.47075 v 9.88932 c 0.0362,-3e-5 0.0324,5.6e-4 0.0739,5.2e-4 0.63431,-6.7e-4 1.90311,-0.002 2.9099,-0.23926 1.00679,-0.23733 1.75136,-0.71087 2.25981,-1.64073 0.50846,-0.92986 0.78104,-2.3158 1.06402,-3.40083 0.28298,-1.08501 0.57654,-1.86909 0.72347,-2.58743 0.14693,-0.71835 0.14676,-1.37114 0.14676,-2.02417 z"
         inkscape:connector-curvature="0" /><path
         style="opacity:0.508064;fill:#a94614;fill-opacity:1;fill-rule:evenodd;stroke:#3e1201;stroke-width:0.264583px;stroke-linecap:butt;stroke-linejoin:miter;stroke-opacity:1"
         d="m 137.54217,175.51362 c 0.18471,0 0.36941,0 0.55412,0 0.83119,-0.64649 1.66235,-1.29294 2.49353,-1.93942 -0.60031,-0.6003 -1.20059,-1.20058 -1.80088,-1.80088 -0.18471,0.23089 -0.36942,0.46177 -0.55412,0.69265 -0.27707,0.46177 -0.55412,0.92353 -0.83118,1.38529 -0.55413,0.32324 -1.10824,0.64648 -1.66235,0.96971 0.6003,0.4156 1.20059,0.83118 1.80088,1.24677 0,-0.18471 0,-0.36942 0,-0.55412 z"
         id="path185"
         inkscape:connector-curvature="0" /></g></g></svg>
