<?xml version="1.0" encoding="UTF-8" standalone="no"?>
<!-- Created with Inkscape (http://www.inkscape.org/) -->

<svg
   width="166.72302"
   height="39.797123"
   viewBox="0 0 47.052943 11.231633"
   version="1.1"
   id="svg1"
   inkscape:version="1.3 (0e150ed6c4, 2023-07-21)"
   sodipodi:docname="gameVolcano.svg"
   xml:space="preserve"
   xmlns:inkscape="http://www.inkscape.org/namespaces/inkscape"
   xmlns:sodipodi="http://sodipodi.sourceforge.net/DTD/sodipodi-0.dtd"
   xmlns:xlink="http://www.w3.org/1999/xlink"
   xmlns="http://www.w3.org/2000/svg"
   xmlns:svg="http://www.w3.org/2000/svg"
   xmlns:rdf="http://www.w3.org/1999/02/22-rdf-syntax-ns#"
   xmlns:cc="http://creativecommons.org/ns#"
   xmlns:dc="http://purl.org/dc/elements/1.1/"><metadata
     id="metadata585"><rdf:RDF><cc:Work
         rdf:about=""><dc:format>image/svg+xml</dc:format><dc:type
           rdf:resource="http://purl.org/dc/dcmitype/StillImage" /></cc:Work></rdf:RDF></metadata><sodipodi:namedview
     id="namedview1"
     pagecolor="#505050"
     bordercolor="#eeeeee"
     borderopacity="1"
     inkscape:showpageshadow="0"
     inkscape:pageopacity="1"
     inkscape:pagecheckerboard="0"
     inkscape:deskcolor="#d1d1d1"
     inkscape:document-units="px"
     inkscape:zoom="0.45254834"
     inkscape:cx="620.92814"
     inkscape:cy="534.7495"
     inkscape:window-width="1280"
     inkscape:window-height="961"
     inkscape:window-x="-8"
     inkscape:window-y="-8"
     inkscape:window-maximized="1"
     inkscape:current-layer="layer1"
     showgrid="false"
     units="px" /><defs
     id="defs1"><linearGradient
       id="linearGradient103"
       inkscape:collect="always"><stop
         style="stop-color:#5c4942;stop-opacity:1;"
         offset="0"
         id="stop101" /><stop
         style="stop-color:#886a5d;stop-opacity:1;"
         offset="0.6401546"
         id="stop102" /><stop
         style="stop-color:#5b3c2a;stop-opacity:1;"
         offset="0.92352551"
         id="stop104" /><stop
         style="stop-color:#5b3c2a;stop-opacity:0;"
         offset="1"
         id="stop103" /></linearGradient><linearGradient
       id="linearGradient28"
       inkscape:collect="always"><stop
         style="stop-color:#5c4942;stop-opacity:1;"
         offset="0"
         id="stop18" /><stop
         style="stop-color:#886a5d;stop-opacity:1;"
         offset="0.24830508"
         id="stop19" /><stop
         style="stop-color:#5b3c2a;stop-opacity:1;"
         offset="0.3728478"
         id="stop25" /><stop
         style="stop-color:#a34117;stop-opacity:1;"
         offset="0.41909716"
         id="stop26" /><stop
         style="stop-color:#441602;stop-opacity:1;"
         offset="1"
         id="stop27" /></linearGradient><linearGradient
       id="swatch2"
       inkscape:swatch="solid"><stop
         style="stop-color:#000000;stop-opacity:1;"
         offset="0"
         id="stop2-3" /></linearGradient><linearGradient
       inkscape:collect="always"
       xlink:href="#linearGradient28"
       id="linearGradient72"
       gradientUnits="userSpaceOnUse"
       gradientTransform="translate(-19.154962,-15.811957)"
       x1="124.01074"
       y1="162.0327"
       x2="123.97898"
       y2="170.83011" /><linearGradient
       inkscape:collect="always"
       xlink:href="#linearGradient103"
       id="linearGradient74"
       x1="105.36106"
       y1="146.48575"
       x2="105.36106"
       y2="149.68184"
       gradientUnits="userSpaceOnUse"
       gradientTransform="matrix(1,0,0,1.0594136,0,-8.6984299)" /></defs><g
     inkscape:label="Layer 1"
     inkscape:groupmode="layer"
     id="layer1"
     transform="translate(-82.754517,-146.40475)"><g
       id="g904"><path
         id="path63"
         style="fill:url(#linearGradient72);fill-opacity:1;fill-rule:evenodd;stroke:none"
         d="m 129.80746,146.40475 -47.052942,0.0186 v 9.88777 c 0.33157,0.0187 0.6454,0.0491 0.89865,0.10593 0.47369,0.10631 0.74044,0.29956 1.08883,0.35915 0.34839,0.0596 0.77832,-0.0146 1.33635,-0.0191 0.55803,-0.005 1.24418,0.061 1.75028,0.061 0.5061,0 0.83229,-0.0654 1.25677,-0.24494 0.42448,-0.17959 0.94675,-0.4735 1.55081,-0.6041 0.60407,-0.1306 1.29,-0.0978 1.94304,-0.0651 0.65302,0.0327 1.27334,0.065 1.8774,-0.0656 0.60406,-0.13062 1.191577,-0.42419 1.746657,-0.53847 0.55509,-0.11428 1.07781,-0.0493 1.66553,0.17932 0.58774,0.22856 1.24078,0.62021 2.285655,1.02836 1.04487,0.40815 2.48168,0.83276 4.09794,1.01234 1.61628,0.17958 3.41204,0.11439 4.96301,0.0491 1.55097,-0.0653 2.8571,-0.13069 3.77134,-0.32659 0.91426,-0.19592 1.43645,-0.52261 2.10582,-0.73484 0.66937,-0.21224 1.48581,-0.31018 2.41639,-0.35915 0.93058,-0.049 1.97528,-0.0486 2.87321,-0.13023 0.89793,-0.0816 1.64911,-0.24487 2.13889,-0.35915 0.48978,-0.11428 0.71795,-0.17993 1.01182,-0.14728 0.29387,0.0327 0.65308,0.16343 1.0449,0.29404 0.39182,0.13061 0.81661,0.26118 1.30638,0.2775 0.48977,0.0163 1.04447,-0.0816 1.45262,-0.19585 0.40815,-0.11428 0.66939,-0.2448 0.88057,-0.20154 0.21118,0.0433 0.37263,0.26006 0.53588,0.39067 0.16326,0.13062 0.32867,0.17484 0.41135,0.19689 0.0773,0.0206 0.12467,0.0326 0.64285,0.0321 z"
         sodipodi:nodetypes="cccsscscsssscsssssssscsssssscc"
         inkscape:connector-curvature="0" /><path
         style="opacity:0.508064;fill:#a94614;fill-opacity:1;fill-rule:evenodd;stroke:#3e1201;stroke-width:0.264583px;stroke-linecap:butt;stroke-linejoin:miter;stroke-opacity:1"
         d="m 111.16039,155.53214 c -0.83118,0.3694 -1.66236,0.73882 -2.49353,1.10823 -0.87737,0.18471 -1.75471,0.36941 -2.63206,0.55413 -0.18471,-0.69267 -0.36941,-1.3853 -0.55412,-2.07795 0.4156,-0.55413 0.83118,-1.10823 1.24677,-1.66235 0.64648,-0.32324 1.29294,-0.64647 1.93941,-0.96971 0.83119,1.01591 1.66235,2.03177 2.49353,3.04765 z"
         id="path64"
         inkscape:connector-curvature="0" /><path
         style="opacity:0.508064;fill:#a94614;fill-opacity:1;fill-rule:evenodd;stroke:#3e1201;stroke-width:0.264583px;stroke-linecap:butt;stroke-linejoin:miter;stroke-opacity:1"
         d="m 108.604,151.74329 c 1.06206,0.73882 2.12412,1.47764 3.18618,2.21647 0.32324,0.69266 0.64647,1.38529 0.96971,2.07794 0.55412,-0.55413 1.10823,-1.10824 1.66235,-1.66235 0.78501,0.50795 1.57,1.01588 2.355,1.52382 0.55413,-0.13853 1.10824,-0.27706 1.66235,-0.41559 0.0924,-0.46177 0.18471,-0.92353 0.27706,-1.38529 0.64649,0.23088 1.29295,0.46176 1.93941,0.69264 -0.27706,-0.6003 -0.55411,-1.20058 -0.83117,-1.80088 -0.55413,-0.23089 -1.10824,-0.46176 -1.66236,-0.69265 -0.96972,-0.13853 -1.93941,-0.27705 -2.90912,-0.41559 -0.50795,-0.32324 -1.01588,-0.64647 -1.52382,-0.9697 -0.50795,0.0462 -1.01588,0.0923 -1.52382,0.13853 0.6003,0.41559 1.20058,0.83117 1.80088,1.24676 -0.64648,0.18471 -1.29294,0.36941 -1.93941,0.55412 -0.55413,-0.73884 -1.10824,-1.47765 -1.66236,-2.21647 -1.33914,-0.13853 -2.67824,-0.27706 -4.01735,-0.41559 0.73884,0.50795 1.47765,1.01588 2.21647,1.52383 z"
         id="path65"
         inkscape:connector-curvature="0" /><path
         style="opacity:0.508064;fill:#a94614;fill-opacity:1;fill-rule:evenodd;stroke:#3e1201;stroke-width:0.264583px;stroke-linecap:butt;stroke-linejoin:miter;stroke-opacity:1"
         d="m 117.73458,151.50686 c 0.82904,-0.69366 1.65807,-1.38734 2.48711,-2.08102 0.67918,0.39366 1.35833,0.7873 2.0375,1.18094 0.91074,-0.006 1.82144,-0.0117 2.73216,-0.0176 0.21199,0.92347 0.42397,1.84689 0.63593,2.77033 0.42039,0.56391 0.84077,1.12778 1.26115,1.69167 -0.28835,0.31322 -0.57661,0.62648 -0.86491,0.93973 -0.5003,-0.6102 -1.00057,-1.22038 -1.50085,-1.83058 -0.5825,-0.28422 -1.16496,-0.56842 -1.74741,-0.8527 -0.84127,-0.11399 -1.68251,-0.22798 -2.52377,-0.34197 -0.83898,-0.48628 -1.67794,-0.97254 -2.51691,-1.45882 z"
         id="path66"
         inkscape:connector-curvature="0" /><path
         style="opacity:0.508064;fill:#a94614;fill-opacity:1;fill-rule:evenodd;stroke:#6a2508;stroke-width:0.264583px;stroke-linecap:butt;stroke-linejoin:miter;stroke-opacity:1"
         d="m 105.43903,151.56124 c -0.36941,0.32324 -0.73883,0.64648 -1.10823,0.96971 0.46177,0.46177 0.92353,0.92353 1.38529,1.3853 0.27707,-0.23089 0.55412,-0.46177 0.83117,-0.69265 -0.36941,-0.55413 -0.73882,-1.10824 -1.10823,-1.66236 z"
         id="path67"
         inkscape:connector-curvature="0" /><path
         style="opacity:0.508064;fill:#a94614;fill-opacity:1;fill-rule:evenodd;stroke:#551c05;stroke-width:0.264583px;stroke-linecap:butt;stroke-linejoin:miter;stroke-opacity:1"
         d="m 103.64172,154.07621 c -0.55412,-0.0924 -1.10823,-0.1847 -1.66235,-0.27706 -0.13853,0.60031 -0.27707,1.20059 -0.4156,1.80089 0.50795,0.23088 1.0159,0.46176 1.52383,0.69265 0.4156,-0.13854 0.83117,-0.27706 1.24676,-0.41559 -0.23088,-0.60031 -0.46176,-1.20059 -0.69264,-1.80089 z"
         id="path68"
         inkscape:connector-curvature="0" /><path
         style="opacity:0.508064;fill:#a94614;fill-opacity:1;fill-rule:evenodd;stroke:#3e1201;stroke-width:0.264583px;stroke-linecap:butt;stroke-linejoin:miter;stroke-opacity:1"
         d="m 98.487775,154.27107 c 0.55411,-0.36941 1.10823,-0.73882 1.662355,-1.10823 0.96972,-0.13853 1.93941,-0.27706 2.90912,-0.41559 0.36942,-0.50795 0.73882,-1.01588 1.10823,-1.52382 0.64649,0.0462 1.29294,0.0924 1.93942,0.13852 -0.23089,-0.46177 -0.46177,-0.92353 -0.69265,-1.38529 -0.92355,0.18471 -1.84706,0.36941 -2.77059,0.55412 -0.55413,-0.13854 -1.10824,-0.27706 -1.66235,-0.41559 -0.69267,-0.13853 -1.385305,-0.27706 -2.077955,-0.41559 -0.46177,0.36942 -0.92353,0.73882 -1.38529,1.10824 0.41559,0.46177 0.83117,0.92353 1.24676,1.38529 -0.87737,0.36942 -1.7547,0.73882 -2.63206,1.10824 -0.0923,0.41559 -0.1847,0.83117 -0.27706,1.24676 0.87737,-0.0924 1.75471,-0.1847 2.63207,-0.27706 z"
         id="path69"
         inkscape:connector-curvature="0" /><path
         style="opacity:0.508064;fill:#a94614;fill-opacity:1;fill-rule:evenodd;stroke:#3e1201;stroke-width:0.264583px;stroke-linecap:butt;stroke-linejoin:miter;stroke-opacity:1"
         d="m 84.291523,152.69942 c 0.391253,0.43857 0.782507,0.87715 1.17376,1.31573 0.198965,0.56638 0.397911,1.13273 0.596877,1.69909 0.642802,0.0829 1.285584,0.16582 1.928376,0.24873 0.428072,-0.20685 0.856123,-0.41369 1.284185,-0.62053 0.07505,-0.5045 0.150092,-1.00898 0.225057,-1.51347 -0.729744,-0.18037 -1.459468,-0.36074 -2.189211,-0.54111 -0.4321,-0.53342 -0.864191,-1.06682 -1.296281,-1.60023 -0.524309,-0.53868 -1.0486,-1.07734 -1.572901,-1.616 0.03035,0.27925 0.0607,0.55848 0.09098,0.83772 -0.0803,0.59669 -0.160608,1.19338 -0.240842,1.79007 z"
         id="path70"
         inkscape:connector-curvature="0" /><path
         style="opacity:0.508064;fill:#a94614;fill-opacity:1;fill-rule:evenodd;stroke:#3e1201;stroke-width:0.264583px;stroke-linecap:butt;stroke-linejoin:miter;stroke-opacity:1"
         d="m 93.743503,150.63862 c -0.69265,-0.13853 -1.3853,-0.27706 -2.07795,-0.41559 -0.50794,-0.18471 -1.01588,-0.36941 -1.52382,-0.55412 -0.46177,0.50795 -0.92353,1.01589 -1.38529,1.52382 -0.0924,0.46178 -0.18471,0.92354 -0.27706,1.3853 0.6003,0.13853 1.20059,0.27706 1.80088,0.41559 0.4156,-0.60031 0.83118,-1.20059 1.24677,-1.80089 0.55412,0.4156 1.10823,0.83118 1.66235,1.24677 0.46177,0.18471 0.92353,0.36941 1.38529,0.55412 0.50796,-0.0924 1.015892,-0.18471 1.523832,-0.27706 -0.32324,-0.4156 -0.64647,-0.83118 -0.969712,-1.24676 -0.46177,-0.27707 -0.92353,-0.55412 -1.38529,-0.83118 z"
         id="path71"
         inkscape:connector-curvature="0" /><path
         style="opacity:0.508064;fill:#a94614;fill-opacity:1;fill-rule:evenodd;stroke:#3e1201;stroke-width:0.264583px;stroke-linecap:butt;stroke-linejoin:miter;stroke-opacity:1"
         d="m 95.454415,153.99401 c -0.554113,0.55412 -1.108233,1.10824 -1.662353,1.66235 -0.78502,-0.23088 -1.57,-0.46176 -2.355,-0.69264 -0.23089,-0.13854 -0.46177,-0.27706 -0.69265,-0.41559 0,-0.60031 0,-1.20059 0,-1.80089 0.60031,0.50796 1.20059,1.01589 1.80088,1.52383 0.78502,0.13853 1.57,0.27706 2.35501,0.41559 0.1847,-0.23089 0.369413,-0.46177 0.554113,-0.69265 z"
         id="path72"
         inkscape:connector-curvature="0" /><rect
         style="fill:url(#linearGradient74);fill-rule:evenodd;stroke:none;stroke-width:0.297261;stroke-dasharray:none;stroke-opacity:1"
         id="rect72"
         width="47.052937"
         height="3.4750104"
         x="82.754517"
         y="146.40475" /><path
         style="fill:#953c11;fill-opacity:1;fill-rule:evenodd;stroke:#6b260b;stroke-width:0.282222px;stroke-linecap:butt;stroke-linejoin:miter;stroke-opacity:1"
         d="m 126.66928,151.01114 1.76388,-0.55121 0.7717,1.43316 -0.55121,1.5434 0.7717,1.32292 h -0.99219 l -0.88194,-1.87413 -1.10243,-1.10244 z"
         id="path904" /></g></g></svg>
