<?xml version="1.0" encoding="UTF-8" standalone="no"?>
<!-- Created with Inkscape (http://www.inkscape.org/) -->

<svg
   width="22.374054"
   height="35.0354"
   viewBox="0 0 6.3144553 9.8877687"
   version="1.1"
   id="svg1"
   inkscape:version="1.3 (0e150ed6c4, 2023-07-21)"
   sodipodi:docname="gameVolcano.svg"
   xml:space="preserve"
   xmlns:inkscape="http://www.inkscape.org/namespaces/inkscape"
   xmlns:sodipodi="http://sodipodi.sourceforge.net/DTD/sodipodi-0.dtd"
   xmlns:xlink="http://www.w3.org/1999/xlink"
   xmlns="http://www.w3.org/2000/svg"
   xmlns:svg="http://www.w3.org/2000/svg"
   xmlns:rdf="http://www.w3.org/1999/02/22-rdf-syntax-ns#"
   xmlns:cc="http://creativecommons.org/ns#"
   xmlns:dc="http://purl.org/dc/elements/1.1/"><metadata
     id="metadata585"><rdf:RDF><cc:Work
         rdf:about=""><dc:format>image/svg+xml</dc:format><dc:type
           rdf:resource="http://purl.org/dc/dcmitype/StillImage" /></cc:Work></rdf:RDF></metadata><sodipodi:namedview
     id="namedview1"
     pagecolor="#505050"
     bordercolor="#eeeeee"
     borderopacity="1"
     inkscape:showpageshadow="0"
     inkscape:pageopacity="1"
     inkscape:pagecheckerboard="0"
     inkscape:deskcolor="#d1d1d1"
     inkscape:document-units="px"
     inkscape:zoom="0.45254834"
     inkscape:cx="620.92814"
     inkscape:cy="534.7495"
     inkscape:window-width="1280"
     inkscape:window-height="961"
     inkscape:window-x="-8"
     inkscape:window-y="-8"
     inkscape:window-maximized="1"
     inkscape:current-layer="layer1"
     showgrid="false"
     units="px" /><defs
     id="defs1"><linearGradient
       id="linearGradient191"
       inkscape:collect="always"><stop
         style="stop-color:#5c4942;stop-opacity:1;"
         offset="0"
         id="stop187" /><stop
         style="stop-color:#886a5d;stop-opacity:1;"
         offset="0.28592265"
         id="stop188" /><stop
         style="stop-color:#5b3c2a;stop-opacity:1;"
         offset="0.39479136"
         id="stop189" /><stop
         style="stop-color:#a34117;stop-opacity:1;"
         offset="0.41909716"
         id="stop190" /><stop
         style="stop-color:#441602;stop-opacity:1;"
         offset="1"
         id="stop191" /></linearGradient><linearGradient
       id="swatch2"
       inkscape:swatch="solid"><stop
         style="stop-color:#000000;stop-opacity:1;"
         offset="0"
         id="stop2-3" /></linearGradient><linearGradient
       inkscape:collect="always"
       xlink:href="#linearGradient191"
       id="linearGradient187"
       gradientUnits="userSpaceOnUse"
       gradientTransform="translate(-19.429055,-15.83056)"
       x1="124.01074"
       y1="162.0327"
       x2="123.97898"
       y2="170.83011" /></defs><g
     inkscape:label="Layer 1"
     inkscape:groupmode="layer"
     id="layer1"
     transform="translate(-76.16597,-146.40475)"><g
       id="g905"><path
         id="path186"
         style="fill:url(#linearGradient187);fill-opacity:1;fill-rule:evenodd;stroke:none"
         d="m 82.480425,156.29252 v -9.88777 l -6.296082,0.002 c -0.05529,0.67798 0.02703,1.27339 0.07803,2.02159 0.04627,0.6789 0.320516,1.25507 0.34509,1.77855 0.02262,0.48184 -0.0432,0.82531 0.04053,1.20081 0.08364,0.37506 -0.178832,0.72237 0.08239,1.37541 0.26122,0.65304 0.783602,1.43672 1.344621,2.0376 0.561019,0.60089 1.160542,1.01892 1.745113,1.22732 0.584571,0.2084 1.153971,0.20715 1.779221,0.216 0.29095,0.004 0.59251,0.0121 0.88108,0.0284 z"
         inkscape:connector-curvature="0"
         sodipodi:nodetypes="cccssssssccc" /><path
         style="opacity:0.508064;fill:#a94614;fill-opacity:1;fill-rule:evenodd;stroke:#3e1201;stroke-width:0.264583px;stroke-linecap:butt;stroke-linejoin:miter;stroke-opacity:1"
         d="m 79.105287,152.19003 c -0.27706,0.36941 -0.55412,0.73882 -0.83118,1.10823 0.32324,0.64649 0.64647,1.29294 0.96971,1.93941 0.96972,-0.1847 1.93941,-0.3694 2.90912,-0.55411 -0.4156,-0.4156 -0.83118,-0.83118 -1.24677,-1.24677 -0.27706,-0.64648 -0.55412,-1.29294 -0.83118,-1.93941 0,-0.55413 0,-1.10824 0,-1.66235 -0.32324,0.78501 -0.64647,1.57 -0.9697,2.355 z"
         id="path187"
         inkscape:connector-curvature="0" /></g></g></svg>
