<?xml version="1.0" encoding="UTF-8" standalone="no"?>
<!-- Created with Inkscape (http://www.inkscape.org/) -->

<svg
   width="46.215393"
   height="33.005981"
   viewBox="0 0 13.043011 9.3150216"
   version="1.1"
   id="svg1"
   inkscape:version="1.3 (0e150ed6c4, 2023-07-21)"
   sodipodi:docname="gameVolcanoInnerLevel1.svg"
   xml:space="preserve"
   xmlns:inkscape="http://www.inkscape.org/namespaces/inkscape"
   xmlns:sodipodi="http://sodipodi.sourceforge.net/DTD/sodipodi-0.dtd"
   xmlns="http://www.w3.org/2000/svg"
   xmlns:svg="http://www.w3.org/2000/svg"
   xmlns:rdf="http://www.w3.org/1999/02/22-rdf-syntax-ns#"
   xmlns:cc="http://creativecommons.org/ns#"
   xmlns:dc="http://purl.org/dc/elements/1.1/"><metadata
     id="metadata585"><rdf:RDF><cc:Work
         rdf:about=""><dc:format>image/svg+xml</dc:format><dc:type
           rdf:resource="http://purl.org/dc/dcmitype/StillImage" /></cc:Work></rdf:RDF></metadata><sodipodi:namedview
     id="namedview1"
     pagecolor="#505050"
     bordercolor="#eeeeee"
     borderopacity="1"
     inkscape:showpageshadow="0"
     inkscape:pageopacity="1"
     inkscape:pagecheckerboard="0"
     inkscape:deskcolor="#141414"
     inkscape:document-units="px"
     inkscape:zoom="0.3535534"
     inkscape:cx="492.14631"
     inkscape:cy="404.46507"
     inkscape:window-width="1280"
     inkscape:window-height="961"
     inkscape:window-x="-8"
     inkscape:window-y="-8"
     inkscape:window-maximized="1"
     inkscape:current-layer="layer1"
     showgrid="false"
     units="px" /><defs
     id="defs1"><linearGradient
       id="swatch2"
       inkscape:swatch="solid"><stop
         style="stop-color:#000000;stop-opacity:1;"
         offset="0"
         id="stop2-3" /></linearGradient></defs><g
     inkscape:label="Layer 1"
     inkscape:groupmode="layer"
     id="layer1"
     transform="translate(-137.32925,-153.97888)"><path
       id="path194"
       style="fill:#000000;fill-opacity:1;fill-rule:evenodd;stroke:none;stroke-width:0.282222px;stroke-linecap:butt;stroke-linejoin:miter;stroke-opacity:1"
       d="m 147.74278,153.97888 c -0.0112,0.35091 0.0542,0.71466 -0.11519,1.039 -0.13793,0.3826 -0.23909,0.78749 -0.51265,1.10074 -0.0336,0.20245 -0.38143,0.17664 -0.36772,0.34705 0.11054,0.22271 -0.31696,0.17385 -0.32447,0.3816 0.001,0.22889 -0.25684,0.31592 -0.23938,0.51921 -0.003,0.34863 0.0257,0.69565 0.0574,1.04252 -0.22148,0.10111 -0.33901,-0.0862 -0.54481,-0.12669 -0.22312,-0.0183 -0.31705,-0.2421 -0.53028,-0.2823 -0.22487,-0.0439 -0.3557,-0.16194 -0.33221,-0.40152 -0.0299,-0.19704 0.002,-0.46551 -0.27796,-0.37408 -0.23238,-0.0166 -0.41846,0.0736 -0.21471,-0.16067 -0.0107,-0.24512 0.32398,-0.10865 0.42438,-0.29161 0.0848,-0.15804 0.14416,-0.35363 0.29861,-0.42655 0.0184,-0.18836 0.0486,-0.39226 -0.1771,-0.45606 -0.20747,-0.27858 -0.25341,0.26282 -0.37003,0.004 -0.10138,-0.012 -0.14042,0.34343 -0.32336,0.3498 -0.15604,-0.0175 -0.50533,0.013 -0.42004,0.22595 -0.24916,-0.0873 -0.43317,0.35804 -0.17329,0.63956 0.039,0.23326 -0.37023,0.0655 -0.53378,0.1162 -0.19489,0.0139 -0.42889,-0.0667 -0.54345,0.14111 -0.14708,-0.0205 -0.3396,-0.19192 -0.49101,-0.29038 -0.30635,-0.19642 -0.58265,-0.4265 -0.80773,-0.71398 -0.14969,-0.0484 -0.50958,-0.26576 -0.26039,0.007 0.2007,0.23073 0.42771,0.44124 0.57128,0.71543 0.23462,0.0919 0.42634,0.2438 0.5931,0.4305 0.25066,0.002 0.35163,0.0611 0.21832,0.29949 -0.0452,0.21668 -0.11002,0.4229 -0.28596,0.56967 -0.17993,0.29226 -0.5275,0.37053 -0.80769,0.53481 -0.11437,0.33827 0.24744,0.90429 -0.19479,0.97997 -0.30479,0.12482 -0.4902,0.42716 -0.74171,0.63122 0.51947,-0.0524 0.18667,0.45059 -0.13955,0.47894 -0.19352,0.11471 -0.5009,0.0774 -0.56783,0.33662 -0.0897,0.30906 -0.33512,0.47625 -0.49772,0.73087 -0.0588,0.3132 0.10352,0.58215 -0.23597,0.77116 -0.23349,0.0861 -0.117,0.36931 9.4e-4,0.42282 0.20905,-0.26216 0.61773,-0.32873 0.71045,-0.68032 0.0423,-0.20389 0.23243,-0.28672 0.34403,-0.43656 0.12715,-0.24256 0.28995,-0.47308 0.46574,-0.67715 0.18423,-0.0823 0.3538,-0.17882 0.40629,-0.38833 0.10875,-0.11505 0.0733,-0.50968 0.28872,-0.37638 0.10837,-0.10284 0.16019,-0.36485 0.34239,-0.44968 0.0954,-0.42238 0.26227,0.0511 0.47071,0.10864 0.31383,0.15851 0.63063,0.30784 0.98578,0.33842 0.20293,0.0309 0.40032,0.0856 0.59728,0.14225 -0.22058,0.41766 0.0225,1.16144 0.56798,1.09211 0.32702,-0.038 0.57475,0.18806 0.87604,0.22609 0.16044,-0.04 0.45801,0.19879 0.49718,8e-5 0.0698,-0.22052 0.0706,-0.44887 0.0665,-0.67776 -0.28073,-0.10277 -0.50487,-0.31813 -0.775,-0.43039 -0.37176,-0.004 0.0713,-0.0274 0.20158,-0.12911 0.43593,-0.21675 0.95428,-0.10897 1.39745,-0.31387 0.18364,-0.0692 0.38277,-0.10221 0.55456,-0.199 0.0977,0.18439 0.47084,0.0639 0.48196,0.31583 0.0455,0.19609 0.0893,0.39164 0.28014,0.4943 0.34226,0.32807 0.41444,0.84891 0.7357,1.2013 0.16919,-0.062 0.26046,0.23355 0.39621,0.32963 0.18697,0.23424 0.49208,0.32468 0.70442,0.53352 0.29542,-0.0813 0.59173,-0.15726 0.90013,-0.15988 -0.19151,-0.008 -0.44525,-0.0593 -0.51157,-0.26456 -0.28542,0.0336 -0.5597,-0.0103 -0.72281,-0.28021 -0.28342,-0.46887 -0.64604,-0.94027 -0.85131,-1.43086 -0.0464,-0.21779 -0.0328,-0.47139 -0.11531,-0.66765 -0.34317,-0.22167 -0.63015,-0.55576 -1.04845,-0.62708 0.10777,-0.21677 -0.0416,-0.36352 -0.18593,-0.51166 -0.17873,-0.15547 -0.25641,-0.37108 -0.33,-0.58912 -0.18135,-0.0954 -0.41017,-0.11928 -0.55622,-0.26793 0.21658,-0.0394 0.50288,-0.10365 0.58038,-0.33691 0.40467,-0.16599 0.6338,-0.51725 0.49879,-0.87616 0.16011,-0.22846 0.12833,-0.54488 0.24874,-0.79829 0.10532,-0.36726 0.32433,-0.68638 0.49443,-1.02528 0.29011,-0.19857 0.45548,-0.69401 0.15079,-0.94644 -0.0782,-0.19059 -0.099,-0.4073 -0.281,-0.53217 z m -7.42707,6.5501 c -0.14831,0.14224 -0.0323,0.031 0,0 z m 0.53799,-4.31933 c -0.0354,-0.11216 -0.12629,-0.0162 0,0 z m -0.0397,-0.0573 c 0.0843,-0.1287 -0.2688,-0.23909 -0.35552,-0.36063 -0.51034,-0.45481 -1.19742,-0.64166 -1.70239,-1.10415 -0.13522,-0.17621 -0.34006,-0.14982 -0.53778,-0.14417 -0.29162,0.0206 -0.62689,-0.0704 -0.85759,0.15534 -0.1331,0.19183 0.19016,0.26156 0.33606,0.31241 0.31627,0.11715 0.55572,0.38386 0.8904,0.46869 0.21425,0.0272 0.21214,0.34301 0.44736,0.32158 0.38031,0.0742 0.75488,0.1805 1.12199,0.29469 0.20612,-1.7e-4 0.41224,-3.5e-4 0.61836,-5.2e-4 0.013,0.0189 0.0261,0.0378 0.0391,0.0568 z" /></g></svg>
