<?xml version="1.0" encoding="UTF-8" standalone="no"?>
<!-- Created with Inkscape (http://www.inkscape.org/) -->

<svg
   width="65.040894"
   height="65.607544"
   viewBox="0 0 18.355986 18.515907"
   version="1.1"
   id="svg1"
   inkscape:version="1.3 (0e150ed6c4, 2023-07-21)"
   sodipodi:docname="gameVolcanoInnerLevel4.svg"
   xml:space="preserve"
   xmlns:inkscape="http://www.inkscape.org/namespaces/inkscape"
   xmlns:sodipodi="http://sodipodi.sourceforge.net/DTD/sodipodi-0.dtd"
   xmlns:xlink="http://www.w3.org/1999/xlink"
   xmlns="http://www.w3.org/2000/svg"
   xmlns:svg="http://www.w3.org/2000/svg"
   xmlns:rdf="http://www.w3.org/1999/02/22-rdf-syntax-ns#"
   xmlns:cc="http://creativecommons.org/ns#"
   xmlns:dc="http://purl.org/dc/elements/1.1/"><metadata
     id="metadata585"><rdf:RDF><cc:Work
         rdf:about=""><dc:format>image/svg+xml</dc:format><dc:type
           rdf:resource="http://purl.org/dc/dcmitype/StillImage" /></cc:Work></rdf:RDF></metadata><sodipodi:namedview
     id="namedview1"
     pagecolor="#505050"
     bordercolor="#eeeeee"
     borderopacity="1"
     inkscape:showpageshadow="0"
     inkscape:pageopacity="1"
     inkscape:pagecheckerboard="0"
     inkscape:deskcolor="#141414"
     inkscape:document-units="px"
     inkscape:zoom="1"
     inkscape:cx="460.99999"
     inkscape:cy="611.99998"
     inkscape:window-width="1280"
     inkscape:window-height="961"
     inkscape:window-x="-8"
     inkscape:window-y="-8"
     inkscape:window-maximized="1"
     inkscape:current-layer="layer1"
     showgrid="false"
     units="px" /><defs
     id="defs1"><linearGradient
       id="swatch2"
       inkscape:swatch="solid"><stop
         style="stop-color:#000000;stop-opacity:1;"
         offset="0"
         id="stop2-3" /></linearGradient><linearGradient
       id="linearGradient809"
       inkscape:collect="always"><stop
         style="stop-color:#fbc544;stop-opacity:1;"
         offset="0"
         id="stop807" /><stop
         style="stop-color:#fab005;stop-opacity:1;"
         offset="0.48672566"
         id="stop808" /><stop
         style="stop-color:#c58b05;stop-opacity:1;"
         offset="1"
         id="stop809" /></linearGradient><linearGradient
       inkscape:collect="always"
       xlink:href="#linearGradient809"
       id="linearGradient471"
       gradientUnits="userSpaceOnUse"
       x1="155.86366"
       y1="245.21452"
       x2="163.04498"
       y2="245.21452" /><linearGradient
       inkscape:collect="always"
       xlink:href="#linearGradient809"
       id="linearGradient472"
       gradientUnits="userSpaceOnUse"
       x1="155.50446"
       y1="235.15305"
       x2="163.12447"
       y2="235.15305" /></defs><g
     inkscape:label="Layer 1"
     inkscape:groupmode="layer"
     id="layer1"
     transform="translate(-99.582184,-170.90086)"><g
       id="g471"
       transform="matrix(0.60290766,-0.87993193,0.87993193,0.60290766,-79.063045,338.79198)"><path
         id="path434"
         style="fill:#2492cc;fill-opacity:1;fill-rule:evenodd;stroke:#000000;stroke-width:0.265;stroke-linecap:butt;stroke-linejoin:miter;stroke-dasharray:none;stroke-opacity:1"
         d="m 221.72009,58.908762 -1.23237,0.739424 c 0,0 -2.32871,1.535607 -2.58799,2.773177 -0.33039,1.576943 0.9572,3.20778 1.60209,4.560458 0.86116,1.806328 3.85804,2.492193 5.73087,1.78728 2.02776,-0.763226 3.74047,-3.408352 3.38936,-5.546355 -0.28983,-1.764882 -2.53055,-2.32375 -4.02005,-3.461364 -0.85789,-0.655219 -2.88191,-0.85262 -2.88191,-0.85262 z m 0.84224,0.989983 c 0.48909,0.0085 1.59099,0.965147 2.01879,1.163269 1.37985,0.639029 2.77635,0.829244 2.99712,2.376302 0.35138,2.462257 -1.33671,3.738708 -2.71026,4.302373 -1.47325,0.604585 -3.73479,0.431684 -4.6424,-1.594293 -0.4783,-1.067664 -1.50056,-2.346252 -1.22012,-3.5732 0.25989,-1.137025 1.36928,-2.070976 2.45726,-2.491297 0.34205,-0.132143 0.71919,-0.189793 1.09961,-0.183154 z"
         sodipodi:nodetypes="ccssssscssssssss" /><g
         id="g466"
         transform="matrix(0.47797456,0.68279902,-0.68279902,0.47797456,304.67721,-165.11954)"><path
           style="fill:url(#linearGradient471);fill-opacity:1;fill-rule:evenodd;stroke:#1a1a1a;stroke-width:0.282222px;stroke-linecap:butt;stroke-linejoin:miter;stroke-opacity:1"
           d="m 158.04445,243.47861 h 2.75166 l 2.00446,3.47181 h -6.6964 z"
           id="path465" /><path
           style="fill:url(#linearGradient472);fill-opacity:1;fill-rule:evenodd;stroke:#1a1a1a;stroke-width:0.282222px;stroke-linecap:butt;stroke-linejoin:miter;stroke-opacity:1"
           d="m 155.64556,243.86666 h 7.33777 V 232.225 c 0,0 0.0373,-5.78556 -3.66888,-5.78556 -3.35345,0 -3.66889,5.78556 -3.66889,5.78556 z"
           id="path466"
           sodipodi:nodetypes="cccscc" /></g><path
         style="fill:#2492cc;fill-opacity:1;fill-rule:evenodd;stroke:#1a1a1a;stroke-width:0.264583px;stroke-linecap:butt;stroke-linejoin:miter;stroke-opacity:1"
         d="m 220.54674,59.589127 c 0,0 -2.40652,-0.581304 -3.05924,-1.513086 -0.68732,-0.981165 -0.39687,-3.571875 -0.39687,-3.571875 l 0.79375,-0.595313 c 0,0 -0.30487,2.600973 0.39687,3.571875 0.68197,0.943548 3.175,1.455209 3.175,1.455209 z"
         id="path467"
         sodipodi:nodetypes="caccacc" /><path
         style="fill:#2492cc;fill-opacity:1;fill-rule:evenodd;stroke:#1a1a1a;stroke-width:0.265;stroke-linecap:butt;stroke-linejoin:miter;stroke-dasharray:none;stroke-opacity:1"
         d="m 222.58631,58.150984 c 0,0 -2.30454,-0.601429 -2.92695,-1.504818 -0.67966,-0.986485 -0.39687,-3.571875 -0.39687,-3.571875 l 0.79375,-0.595313 c 0,0 -0.3016,2.598621 0.39687,3.571875 0.6614,0.921597 3.08405,1.438673 3.08405,1.438673 z"
         id="path468"
         sodipodi:nodetypes="caccacc" /><path
         style="fill:#ffba00;fill-opacity:1;fill-rule:evenodd;stroke:#000000;stroke-width:0.264583px;stroke-linecap:butt;stroke-linejoin:miter;stroke-opacity:1"
         d="m 225.16482,66.995715 -0.59532,1.488281 h 1.65365 l 0.49609,-1.455208 z"
         id="path469"
         sodipodi:nodetypes="ccccc" /><path
         id="path470"
         style="fill:#2492cc;fill-opacity:1;fill-rule:evenodd;stroke:#000000;stroke-width:0.265;stroke-linecap:butt;stroke-linejoin:miter;stroke-dasharray:none;stroke-opacity:1"
         d="m 226.1311,67.150207 1.39638,-0.340039 c 0,0 2.67971,-0.774678 3.29485,-1.879397 0.78384,-1.407658 0.0387,-3.347325 -0.17532,-4.8305 -0.28582,-1.980588 -2.94376,-3.52559 -4.94144,-3.408723 -2.16295,0.126533 -4.58398,2.143619 -4.88371,4.289428 -0.24743,1.771325 1.7262,2.970478 2.81061,4.499146 0.62457,0.88045 2.49863,1.670085 2.49863,1.670085 z m -0.5102,-1.19546 c -0.4645,-0.153378 -1.23255,-1.394126 -1.5822,-1.710366 -1.12779,-1.020015 -2.40478,-1.616413 -2.15611,-3.159231 0.39578,-2.455512 2.38681,-3.172995 3.86579,-3.303276 1.58633,-0.139742 3.69447,0.697043 3.9594,2.901164 0.13962,1.161544 0.736,2.686053 0.10381,3.774345 -0.58586,1.00853 -1.92258,1.570844 -3.0863,1.649064 -0.36587,0.02459 -0.74311,-0.03237 -1.10439,-0.1517 z"
         sodipodi:nodetypes="ccssssscssssssss" /><path
         style="fill:#ffba00;fill-opacity:1;fill-rule:evenodd;stroke:#000000;stroke-width:0.264583px;stroke-linecap:butt;stroke-linejoin:miter;stroke-opacity:1"
         d="m 228.9638,64.591405 -0.59532,1.488281 h 1.65365 l 0.49609,-1.455208 z"
         id="path471"
         sodipodi:nodetypes="ccccc" /></g></g></svg>
