<?xml version="1.0" encoding="UTF-8" standalone="no"?>
<!-- Created with Inkscape (http://www.inkscape.org/) -->

<svg
   width="27.602234"
   height="27.633118"
   viewBox="0 0 7.7899639 7.79868"
   version="1.1"
   id="svg1"
   inkscape:version="1.3 (0e150ed6c4, 2023-07-21)"
   sodipodi:docname="gameVolcanoInner.svg"
   xml:space="preserve"
   xmlns:inkscape="http://www.inkscape.org/namespaces/inkscape"
   xmlns:sodipodi="http://sodipodi.sourceforge.net/DTD/sodipodi-0.dtd"
   xmlns="http://www.w3.org/2000/svg"
   xmlns:svg="http://www.w3.org/2000/svg"
   xmlns:rdf="http://www.w3.org/1999/02/22-rdf-syntax-ns#"
   xmlns:cc="http://creativecommons.org/ns#"
   xmlns:dc="http://purl.org/dc/elements/1.1/"><metadata
     id="metadata585"><rdf:RDF><cc:Work
         rdf:about=""><dc:format>image/svg+xml</dc:format><dc:type
           rdf:resource="http://purl.org/dc/dcmitype/StillImage" /></cc:Work></rdf:RDF></metadata><sodipodi:namedview
     id="namedview1"
     pagecolor="#505050"
     bordercolor="#eeeeee"
     borderopacity="1"
     inkscape:showpageshadow="0"
     inkscape:pageopacity="1"
     inkscape:pagecheckerboard="0"
     inkscape:deskcolor="#141414"
     inkscape:document-units="px"
     inkscape:zoom="0.3535534"
     inkscape:cx="1173.7972"
     inkscape:cy="155.56349"
     inkscape:window-width="1280"
     inkscape:window-height="961"
     inkscape:window-x="-8"
     inkscape:window-y="-8"
     inkscape:window-maximized="1"
     inkscape:current-layer="layer1"
     showgrid="false"
     units="px" /><defs
     id="defs1"><linearGradient
       id="swatch2"
       inkscape:swatch="solid"><stop
         style="stop-color:#000000;stop-opacity:1;"
         offset="0"
         id="stop2-3" /></linearGradient></defs><g
     inkscape:label="Layer 1"
     inkscape:groupmode="layer"
     id="layer1"
     transform="translate(-130.69296,-133.52741)"><g
       id="g320"
       transform="matrix(1.4400152,0,0,1.4400152,-92.051251,-227.18575)"><path
         id="path318"
         style="fill-rule:evenodd;stroke-width:0.0958583"
         d="m 157.79181,250.4926 v 0.80918 h -0.84667 l 1e-5,-0.80422 a 2.7459471,2.7459471 0 0 0 -1.17354,0.49003 l 0.57106,0.57106 -0.59862,0.59862 -0.57106,-0.57106 a 2.7459471,2.7459471 0 0 0 -0.49114,1.19173 h 0.80533 v 0.84667 h -0.80532 a 2.7459471,2.7459471 0 0 0 0.47845,1.1785 l 0.57106,-0.57106 0.59862,0.59916 -0.57327,0.57327 a 2.7459471,2.7459471 0 0 0 1.18842,0.49885 v -0.80312 h 0.84667 v 0.80808 a 2.7459471,2.7459471 0 0 0 1.21212,-0.49113 l -0.57381,-0.57381 0.59862,-0.59862 0.57105,0.57105 a 2.7459471,2.7459471 0 0 0 0.49169,-1.19117 h -0.80587 l -1e-5,-0.84667 h 0.80589 a 2.7459471,2.7459471 0 0 0 -0.49886,-1.20937 l -0.57657,0.57657 -0.59862,-0.59861 0.56886,-0.56941 a 2.7459471,2.7459471 0 0 0 -1.19449,-0.48452 z" /><g
         id="g319"
         transform="translate(-11.873893,3.3925427)"><rect
           style="fill:#ffffff;fill-opacity:1;fill-rule:evenodd;stroke-width:0.0595464"
           id="rect318"
           width="0.81130266"
           height="2.5471058"
           x="-296.73181"
           y="-58.229122"
           transform="rotate(-135)" /><rect
           style="fill:#ffffff;fill-opacity:1;fill-rule:evenodd;stroke-width:0.0595464"
           id="rect319"
           width="0.81130266"
           height="2.5471058"
           x="-57.361221"
           y="-297.5997"
           transform="matrix(0.70710678,-0.70710678,-0.70710678,-0.70710678,0,0)" /></g></g></g></svg>
