<?xml version="1.0" encoding="UTF-8" standalone="no"?>
<!-- Created with Inkscape (http://www.inkscape.org/) -->

<svg
   width="81.622681"
   height="54.319763"
   viewBox="0 0 23.035735 15.330245"
   version="1.1"
   id="svg1"
   inkscape:version="1.3 (0e150ed6c4, 2023-07-21)"
   sodipodi:docname="gameVolcanoInnerLevel1.svg"
   xml:space="preserve"
   xmlns:inkscape="http://www.inkscape.org/namespaces/inkscape"
   xmlns:sodipodi="http://sodipodi.sourceforge.net/DTD/sodipodi-0.dtd"
   xmlns:xlink="http://www.w3.org/1999/xlink"
   xmlns="http://www.w3.org/2000/svg"
   xmlns:svg="http://www.w3.org/2000/svg"
   xmlns:rdf="http://www.w3.org/1999/02/22-rdf-syntax-ns#"
   xmlns:cc="http://creativecommons.org/ns#"
   xmlns:dc="http://purl.org/dc/elements/1.1/"><metadata
     id="metadata585"><rdf:RDF><cc:Work
         rdf:about=""><dc:format>image/svg+xml</dc:format><dc:type
           rdf:resource="http://purl.org/dc/dcmitype/StillImage" /></cc:Work></rdf:RDF></metadata><sodipodi:namedview
     id="namedview1"
     pagecolor="#505050"
     bordercolor="#eeeeee"
     borderopacity="1"
     inkscape:showpageshadow="0"
     inkscape:pageopacity="1"
     inkscape:pagecheckerboard="0"
     inkscape:deskcolor="#141414"
     inkscape:document-units="px"
     inkscape:zoom="0.50000001"
     inkscape:cx="1537"
     inkscape:cy="1256"
     inkscape:window-width="1280"
     inkscape:window-height="961"
     inkscape:window-x="-8"
     inkscape:window-y="-8"
     inkscape:window-maximized="1"
     inkscape:current-layer="layer1"
     showgrid="false"
     units="px" /><defs
     id="defs1"><inkscape:path-effect
       effect="spiro"
       id="path-effect1068"
       is_visible="true"
       lpeversion="1" /><inkscape:path-effect
       effect="spiro"
       id="path-effect1039"
       is_visible="true"
       lpeversion="1" /><inkscape:path-effect
       effect="spiro"
       id="path-effect1015"
       is_visible="true"
       lpeversion="1" /><inkscape:path-effect
       effect="spiro"
       id="path-effect986"
       is_visible="true"
       lpeversion="1" /><inkscape:path-effect
       effect="spiro"
       id="path-effect966"
       is_visible="true"
       lpeversion="1" /><linearGradient
       id="linearGradient909"
       inkscape:collect="always"><stop
         style="stop-color:#a24017;stop-opacity:1;"
         offset="0"
         id="stop908" /><stop
         style="stop-color:#6a2203;stop-opacity:1;"
         offset="0.42711863"
         id="stop910" /><stop
         style="stop-color:#a24017;stop-opacity:1;"
         offset="1"
         id="stop909" /></linearGradient><linearGradient
       id="swatch2"
       inkscape:swatch="solid"><stop
         style="stop-color:#000000;stop-opacity:1;"
         offset="0"
         id="stop2-3" /></linearGradient><linearGradient
       inkscape:collect="always"
       xlink:href="#linearGradient909"
       id="linearGradient908"
       x1="440.50928"
       y1="157.29492"
       x2="442.40808"
       y2="143.72475"
       gradientUnits="userSpaceOnUse"
       gradientTransform="translate(-13.470384,100.67865)" /></defs><g
     inkscape:label="Layer 1"
     inkscape:groupmode="layer"
     id="layer1"
     transform="translate(-418.53683,-243.52061)"><g
       id="g1524"
       inkscape:export-filename="..\..\Binary\Data\Sprites\VolcanoInner\RockMedium.svg"
       inkscape:export-xdpi="96"
       inkscape:export-ydpi="96"><path
         style="fill:url(#linearGradient908);fill-opacity:1;fill-rule:evenodd;stroke:#000000;stroke-width:0.0857956;stroke-linecap:butt;stroke-linejoin:miter;stroke-dasharray:none;stroke-opacity:1"
         d="m 418.57973,252.88251 c -0.003,0.49648 1.28634,2.77639 2.49452,3.5921 2.85541,1.92785 9.10203,2.49489 10.07784,2.29496 0.86816,-0.17788 5.46773,-1.86569 5.9405,-2.44108 0.58625,-0.71351 4.48037,-5.87434 4.43667,-6.73874 -0.0514,-1.0162 -2.35829,-4.18672 -4.39033,-5.18859 -2.50868,-1.23687 -7.86508,-0.81443 -8.87547,-0.54023 -0.82224,0.22314 -6.05426,4.82056 -6.71246,6.05738 -0.41433,0.77858 -2.96939,2.59857 -2.97127,2.9642 z"
         id="path902"
         sodipodi:nodetypes="sssssssss" /><path
         style="fill:#000000;fill-opacity:0.449086;fill-rule:evenodd;stroke:none;stroke-width:0.282222px;stroke-linecap:butt;stroke-linejoin:miter;stroke-opacity:1"
         d="m 450.21019,144.72031 -0.84134,0.24302 c -0.17844,0.38332 -0.3436,0.77282 -0.49507,1.16757 -0.10673,0.27814 -0.20666,0.55888 -0.29969,0.8419 l -1.03948,1.01067 -0.25454,0.35461 c -0.0188,-0.0651 -0.0629,-0.12245 -0.12105,-0.15722 -0.0581,-0.0348 -0.12958,-0.0465 -0.19578,-0.0323 -0.0662,0.0143 -0.12647,0.0544 -0.16514,0.11 -0.0387,0.0556 -0.0553,0.12607 -0.0456,0.1931 0.0113,0.0783 0.0589,0.15056 0.12631,0.1919 l -0.28081,-0.056 -0.17947,0.52306 h 0.33327 l 0.71718,0.007 0.14694,-0.20617 0.40736,-0.27096 0.41759,-0.14598 0.54178,-0.37805 -0.15195,-0.23319 0.38955,-0.49162 -0.008,-1.02988 c 0.0482,-0.11607 0.10582,-0.22824 0.17205,-0.33506 0.0634,-0.10229 0.13474,-0.19967 0.21312,-0.291 0.11889,0.0221 0.24408,0.009 0.35597,-0.0367 0.11189,-0.0459 0.2101,-0.12457 0.27925,-0.22378 0.0771,-0.11059 0.11749,-0.2463 0.11346,-0.38104 -0.004,-0.13475 -0.0525,-0.26779 -0.13606,-0.37357 z"
         id="path928"
         inkscape:path-effect="#path-effect966"
         inkscape:original-d="m 450.21019,144.72031 c -0.28002,0.0728 -0.62527,0.0115 -0.84134,0.24302 -0.24582,0.34851 -0.3565,0.76918 -0.49507,1.16757 -0.10963,0.27667 -0.13836,0.58843 -0.29969,0.8419 -0.36297,0.31892 -0.68117,0.68664 -1.03948,1.01067 -0.2294,0.0611 0.0177,0.40644 -0.25454,0.35461 -0.18919,-0.0961 -0.36666,0.0175 -0.5276,0.11359 -0.21438,0.12351 0.32326,-0.0108 0.12631,0.1919 -0.1287,0.22658 -0.30816,0.15444 -0.28081,-0.056 -0.0767,0.1583 -0.26676,0.34037 -0.17947,0.52306 0.10223,0.0451 0.22147,-0.0199 0.33327,0 0.23892,0.004 0.47904,-0.008 0.71718,0.007 0.18154,0.0783 0.15202,-0.0988 0.14694,-0.20617 0.10488,-0.12859 0.39991,-0.0765 0.40736,-0.27096 -0.09,-0.29839 0.29632,-0.032 0.41759,-0.14598 0.17998,-0.12642 0.37504,-0.23504 0.54178,-0.37805 -0.16845,0.06 -0.2841,-0.0912 -0.15195,-0.23319 0.10859,-0.17849 0.4266,-0.2407 0.38955,-0.49162 -0.0176,-0.34242 -0.003,-0.68671 -0.008,-1.02988 -0.0403,-0.15155 -0.0188,-0.31551 0.17205,-0.33506 0.15533,-0.0243 0.29884,-0.1243 0.21312,-0.291 0.17706,-0.159 0.52444,-0.004 0.63522,-0.26044 0.0982,-0.2454 -0.0246,-0.5039 -0.0226,-0.75461 z"
         transform="translate(-13.470384,100.67865)" /><path
         style="fill:#000000;fill-opacity:0.357702;fill-rule:evenodd;stroke:none;stroke-width:0.282222px;stroke-linecap:butt;stroke-linejoin:miter;stroke-opacity:1"
         d="m 436.64001,149.70934 0.96162,0.56232 1.895,-0.81998 0.68135,0.65979 0.62199,0.94856 0.92729,0.84719 0.74795,0.60438 0.75031,0.39072 0.78143,0.46036 0.2063,0.13799 0.53576,0.1999 1.02914,0.0198 -0.42459,-0.71718 c -0.11516,-0.10991 -0.23799,-0.21177 -0.36731,-0.30461 -0.31929,-0.22922 -0.67836,-0.40289 -1.05628,-0.5109 l -0.91286,-0.36426 -0.91332,-0.29797 0.12394,-0.21964 -0.39912,-0.39913 -0.79827,-0.79824 -0.43503,-0.59725 -0.36189,-0.42617 -0.24257,-0.39334 c -0.49857,0.0163 -0.99746,0.0229 -1.49629,0.0198 -0.33828,-0.002 -0.67653,-0.009 -1.01464,-0.0198 l -0.24123,0.21939 -0.38945,0.50451 -0.20923,0.29373 z"
         id="path966"
         inkscape:path-effect="#path-effect986"
         inkscape:original-d="m 436.64001,149.70934 c 0.0845,0.34323 0.96162,0.56232 0.96162,0.56232 0,0 1.1134,-0.7047 1.895,-0.81998 0.45964,-0.10501 0.45232,0.41932 0.68135,0.65979 0.23339,0.29881 0.49177,0.58645 0.62199,0.94856 0.29611,0.27775 0.55524,0.71238 0.92729,0.84719 0.35295,-2.5e-4 0.42172,0.52143 0.74795,0.60438 0.28157,-0.0152 0.4535,0.33332 0.75031,0.39072 0.2117,0.27413 0.43832,0.44464 0.78143,0.46036 0.15219,0.0478 0.63197,0.2058 0.2063,0.13799 -0.12491,0.12969 0.36095,0.25874 0.53576,0.1999 0.34286,0.009 0.68876,-0.0205 1.02914,0.0198 0.19656,-0.28826 -0.0574,-0.69634 -0.42459,-0.71718 -0.24485,-0.0788 -0.0119,-0.43295 -0.36731,-0.30461 -0.49621,0.18431 -0.60513,-0.47765 -1.05628,-0.5109 -0.33364,-0.0762 -0.66421,-0.0888 -0.91286,-0.36426 -0.26439,-0.24937 -0.65729,0.01 -0.91332,-0.29797 0.11633,0.007 0.34544,-0.0653 0.12394,-0.21964 -0.15385,-0.12666 -0.50831,-0.11389 -0.39912,-0.39913 -0.24433,-0.28636 -0.52836,-0.53638 -0.79827,-0.79824 -0.46407,0.14595 0.0385,-0.62668 -0.43503,-0.59725 -0.22096,-0.0461 -0.11456,-0.66466 -0.36189,-0.42617 -0.009,0.40468 -0.22816,-0.31728 -0.24257,-0.39334 -0.49593,0.0425 -0.99783,0.009 -1.49629,0.0198 -0.33804,-0.009 -0.67905,0.02 -1.01464,-0.0198 -0.0876,0.0918 0.0295,0.33635 -0.24123,0.21939 -0.35277,-0.11753 -0.13015,0.36761 -0.38945,0.50451 -0.0697,0.0979 -0.14252,0.19368 -0.20923,0.29373 z"
         sodipodi:nodetypes="sccccccccccccccccccccccccccss"
         transform="translate(-12.273017,101.27733)" /><path
         style="fill:#000000;fill-opacity:0.449086;fill-rule:evenodd;stroke:none;stroke-width:0.282222px;stroke-linecap:butt;stroke-linejoin:miter;stroke-opacity:1"
         d="m 432.05009,151.5054 c 0.2408,0.52743 0.52712,1.03407 0.85472,1.51245 0.11565,0.16888 0.23644,0.33425 0.36214,0.49579 l 0.49231,0.11799 0.16172,0.41817 0.28262,0.22962 c 0.0507,0.0707 0.098,0.14398 0.14148,0.21939 0.0383,0.0664 0.0737,0.13447 0.10608,0.20395 l 0.84455,-0.011 0.13537,0.18602 0.38886,0.0482 -0.31531,-0.0165 -0.63691,-0.21296 0.18766,-0.081 -0.41099,-0.11673 -0.34189,-0.38497 0.17651,-0.13454 -0.49074,-0.58964 -0.34168,-0.6869 -0.19125,-0.12814 -0.20765,-0.0349 -0.16327,-0.16362 -0.18743,-0.26421 c -0.16469,-0.0976 -0.32473,-0.20308 -0.4794,-0.31591 -0.1262,-0.0921 -0.24882,-0.18902 -0.3675,-0.29059 z"
         id="path986"
         inkscape:path-effect="#path-effect1015"
         inkscape:original-d="m 432.05009,151.5054 c 0.29647,0.49745 0.6202,0.9811 0.85472,1.51245 0.094,0.18155 0.20586,0.36207 0.36214,0.49579 0.17214,-0.041 0.34266,0.0311 0.49231,0.11799 0.18842,0.0781 0.0176,0.29424 0.16172,0.41817 0.0676,0.12913 0.10168,0.31274 0.28262,0.22962 0.13142,0.0277 -0.0678,0.30084 0.14148,0.21939 0.2098,-0.0844 0.15193,0.24878 0.10608,0.20395 0.28119,-0.0134 0.56401,0.006 0.84455,-0.011 0.15218,-0.0712 0.1839,0.0739 0.13537,0.18602 0.0991,0.0858 0.26481,-0.015 0.38886,0.0482 0.0418,-0.12719 -0.23398,0.0148 -0.31531,-0.0165 -0.21658,-0.0537 -0.42751,-0.13495 -0.63691,-0.21296 -0.0289,-0.0394 0.39332,0.0615 0.18766,-0.081 -0.12145,-0.10638 -0.26747,-0.12568 -0.41099,-0.11673 -0.11725,-0.12478 -0.25292,-0.23745 -0.34189,-0.38497 0.0457,-0.0448 0.2571,0.0277 0.17651,-0.13454 -0.0764,-0.26418 -0.40647,-0.32943 -0.49074,-0.58964 -0.11506,-0.22837 -0.22324,-0.46029 -0.34168,-0.6869 -0.0955,-0.006 -0.28209,0.0489 -0.19125,-0.12814 0.0308,-0.14054 -0.26708,-0.25809 -0.20765,-0.0349 0.0153,0.22438 -0.12872,-0.10101 -0.16327,-0.16362 -0.0853,-0.10934 0.0534,-0.37228 -0.18743,-0.26421 -0.18074,-0.0556 -0.32471,-0.20704 -0.4794,-0.31591 -0.12221,-0.0972 -0.24254,-0.19687 -0.3675,-0.29059 z"
         transform="translate(-11.474772,99.780624)" /><path
         style="fill:#000000;fill-opacity:0.449086;fill-rule:evenodd;stroke:none;stroke-width:0.282222px;stroke-linecap:butt;stroke-linejoin:miter;stroke-opacity:1"
         d="m 439.63343,152.5032 -0.38822,0.97728 c -0.18386,0.29372 -0.39172,0.5724 -0.62083,0.83236 -0.12533,0.1422 -0.257,0.2788 -0.3945,0.40927 l -0.11604,0.17513 -0.27647,0.20026 c -0.14228,-0.004 -0.28481,0.0601 -0.37711,0.16843 -0.0653,0.0767 -0.10555,0.17437 -0.11316,0.27481 -0.008,0.10043 0.0174,0.20308 0.0705,0.28872 l 0.38667,0.0724 0.43224,-0.006 0.29475,-0.28117 0.0885,-0.30283 0.44528,-0.045 0.0411,-0.37701 0.11492,-0.14689 c 0.0467,-0.001 0.093,-0.0145 0.13312,-0.0383 0.0401,-0.0238 0.074,-0.0581 0.0974,-0.0985 0.0418,-0.0723 0.0484,-0.16023 0.0381,-0.24306 -0.0103,-0.0828 -0.0362,-0.16281 -0.0558,-0.24395 -0.0567,-0.23484 -0.0605,-0.48231 -0.011,-0.71877 l 0.21053,-0.89694 z"
         id="path1015"
         inkscape:path-effect="#path-effect1039"
         inkscape:original-d="m 439.63343,152.5032 c -0.13666,0.32284 -0.23797,0.66035 -0.38822,0.97728 -0.16935,0.30329 -0.41046,0.55798 -0.62083,0.83236 -0.12093,0.14583 -0.32436,0.22415 -0.3945,0.40927 0.0402,0.0961 0.0245,0.24865 -0.11604,0.17513 -0.14196,-0.0377 -0.17128,0.15065 -0.27647,0.20026 -0.14616,-0.0242 -0.31385,0.0122 -0.37711,0.16843 -0.075,0.18042 0.0129,0.37913 -0.0427,0.56353 0.0338,0.17315 0.26257,0.0219 0.38667,0.0724 0.14368,0.001 0.29038,0.0213 0.43224,-0.006 0.11965,-0.0694 0.17701,-0.20758 0.29475,-0.28117 0.12061,-0.065 0.11359,-0.19025 0.0885,-0.30283 0.13105,-0.10356 0.32611,0.0861 0.44528,-0.045 0.0395,-0.1148 -0.16736,-0.37284 0.0411,-0.37701 0.1233,0.0769 0.17513,-0.048 0.11492,-0.14689 0.0136,-0.13967 0.27914,0.0677 0.23047,-0.13687 -0.0329,-0.15987 -0.0116,-0.32472 -0.0177,-0.48701 0.001,-0.23971 0.001,-0.47943 -0.011,-0.71877 0.036,-0.30482 0.14065,-0.59869 0.21053,-0.89694 z"
         transform="translate(-11.674333,100.97799)" /><path
         style="fill:#000000;fill-opacity:0.449086;fill-rule:evenodd;stroke:none;stroke-width:0.282222px;stroke-linecap:butt;stroke-linejoin:miter;stroke-opacity:1"
         d="m 441.82861,144.91987 0.36432,1.00732 c 0.0154,0.2324 0.0271,0.46505 0.035,0.69783 0.0171,0.50434 0.0164,1.00929 -0.002,1.51358 l 0.13369,0.17648 0.69222,-7.3e-4 0.17381,-0.20149 -0.20781,-0.0714 -0.14163,-0.12221 -0.25528,-0.26895 0.006,-0.33569 -0.2638,-0.0752 c -0.0826,-0.30528 -0.13005,-0.62006 -0.14108,-0.93612 -0.006,-0.17921 -8.4e-4,-0.35882 0.0162,-0.53733 -0.0873,-0.20237 -0.18079,-0.40207 -0.28031,-0.59871 -0.042,-0.083 -0.0851,-0.16551 -0.12927,-0.24742 z"
         id="path1063"
         inkscape:path-effect="#path-effect1068"
         inkscape:original-d="m 441.82861,144.91987 c 0.10984,0.33991 0.24,0.67266 0.36432,1.00732 0.0663,0.22651 0.0269,0.46543 0.035,0.69783 -0.002,0.5045 0.003,1.0092 -0.002,1.51358 -0.0565,0.11802 0.004,0.21299 0.13369,0.17648 0.2307,0.002 0.46164,-0.007 0.69222,-7.3e-4 0.14021,0.087 0.28216,-0.0786 0.17381,-0.20149 -0.0654,-0.0401 -0.24035,0.0807 -0.20781,-0.0714 0.0748,-0.11572 -0.042,-0.18111 -0.14163,-0.12221 -0.1272,-0.0154 -0.25646,-0.1333 -0.25528,-0.26895 -0.008,-0.11089 0.0893,-0.23725 0.006,-0.33569 -0.092,-0.0223 -0.21515,0.0573 -0.2638,-0.0752 -0.19122,-0.2719 -0.1548,-0.62223 -0.14108,-0.93612 0.0122,-0.17899 -0.003,-0.35893 0.0162,-0.53733 -0.0612,-0.21167 -0.18097,-0.4027 -0.28031,-0.59871 -0.0439,-0.0821 -0.0876,-0.16419 -0.12927,-0.24742 z"
         transform="translate(-13.470384,100.67865)" /></g></g></svg>
