<?xml version="1.0" encoding="UTF-8" standalone="no"?>
<!-- Created with Inkscape (http://www.inkscape.org/) -->

<svg
   width="56.082031"
   height="33.891357"
   viewBox="0 0 15.827596 9.5648944"
   version="1.1"
   id="svg1"
   inkscape:version="1.3 (0e150ed6c4, 2023-07-21)"
   sodipodi:docname="gameVolcanoInnerLevel1.svg"
   xml:space="preserve"
   xmlns:inkscape="http://www.inkscape.org/namespaces/inkscape"
   xmlns:sodipodi="http://sodipodi.sourceforge.net/DTD/sodipodi-0.dtd"
   xmlns:xlink="http://www.w3.org/1999/xlink"
   xmlns="http://www.w3.org/2000/svg"
   xmlns:svg="http://www.w3.org/2000/svg"
   xmlns:rdf="http://www.w3.org/1999/02/22-rdf-syntax-ns#"
   xmlns:cc="http://creativecommons.org/ns#"
   xmlns:dc="http://purl.org/dc/elements/1.1/"><metadata
     id="metadata585"><rdf:RDF><cc:Work
         rdf:about=""><dc:format>image/svg+xml</dc:format><dc:type
           rdf:resource="http://purl.org/dc/dcmitype/StillImage" /></cc:Work></rdf:RDF></metadata><sodipodi:namedview
     id="namedview1"
     pagecolor="#505050"
     bordercolor="#eeeeee"
     borderopacity="1"
     inkscape:showpageshadow="0"
     inkscape:pageopacity="1"
     inkscape:pagecheckerboard="0"
     inkscape:deskcolor="#141414"
     inkscape:document-units="px"
     inkscape:zoom="0.3535534"
     inkscape:cx="685.89356"
     inkscape:cy="1394.4145"
     inkscape:window-width="1280"
     inkscape:window-height="961"
     inkscape:window-x="-8"
     inkscape:window-y="-8"
     inkscape:window-maximized="1"
     inkscape:current-layer="layer1"
     showgrid="false"
     units="px" /><defs
     id="defs1"><inkscape:path-effect
       effect="spiro"
       id="path-effect1524"
       is_visible="true"
       lpeversion="1" /><inkscape:path-effect
       effect="spiro"
       id="path-effect1522"
       is_visible="true"
       lpeversion="1" /><inkscape:path-effect
       effect="spiro"
       id="path-effect1172"
       is_visible="true"
       lpeversion="1" /><inkscape:path-effect
       effect="spiro"
       id="path-effect1162"
       is_visible="true"
       lpeversion="1" /><inkscape:path-effect
       effect="spiro"
       id="path-effect1152"
       is_visible="true"
       lpeversion="1" /><linearGradient
       id="linearGradient909"
       inkscape:collect="always"><stop
         style="stop-color:#a24017;stop-opacity:1;"
         offset="0"
         id="stop908" /><stop
         style="stop-color:#6a2203;stop-opacity:1;"
         offset="0.42711863"
         id="stop910" /><stop
         style="stop-color:#a24017;stop-opacity:1;"
         offset="1"
         id="stop909" /></linearGradient><linearGradient
       id="swatch2"
       inkscape:swatch="solid"><stop
         style="stop-color:#000000;stop-opacity:1;"
         offset="0"
         id="stop2-3" /></linearGradient><linearGradient
       inkscape:collect="always"
       xlink:href="#linearGradient909"
       id="linearGradient1149"
       x1="465.23978"
       y1="250.64888"
       x2="467.20514"
       y2="263.20776"
       gradientUnits="userSpaceOnUse"
       gradientTransform="rotate(75,467.07341,256.72397)" /></defs><g
     inkscape:label="Layer 1"
     inkscape:groupmode="layer"
     id="layer1"
     transform="translate(-459.05206,-251.85629)"><g
       id="g1525"><path
         style="fill:url(#linearGradient1149);fill-rule:evenodd;stroke:#000000;stroke-width:0.0846667;stroke-linecap:butt;stroke-linejoin:miter;stroke-dasharray:none;stroke-opacity:1"
         d="m 474.83373,256.19378 c 0,0 -7.82246,-4.41096 -8.84607,-4.29258 -1.98941,0.23005 -6.88152,4.58136 -6.88152,4.58136 0,0 2.1944,3.73914 2.92972,4.38 0.69835,0.60863 6.37329,0.51046 6.37329,0.51046 2.0248,0.13649 6.13866,-3.14081 6.42458,-5.17924 z"
         id="path1146"
         sodipodi:nodetypes="cscscc" /><path
         style="fill:#000000;fill-opacity:0.449086;fill-rule:evenodd;stroke:none;stroke-width:0.282222px;stroke-linecap:butt;stroke-linejoin:miter;stroke-opacity:1"
         d="m 471.06432,255.17747 -0.43998,0.0623 -0.24278,0.20687 -0.0157,0.35973 c -0.0195,0.10949 -0.0215,0.22207 -0.006,0.3322 0.0155,0.11017 0.049,0.21883 0.1076,0.31342 0.0257,0.0415 0.0561,0.0801 0.0904,0.11482 l 0.0128,0.25857 c -0.0362,0.0696 -0.0746,0.13818 -0.11504,0.20548 -0.0289,0.0481 -0.0588,0.0955 -0.0897,0.14224 l -0.38709,0.28058 -0.012,0.17904 -0.01,0.31786 0.1641,0.0208 c 0.0599,0.0639 0.14594,0.10261 0.23352,0.10504 0.0876,0.002 0.17561,-0.0314 0.23898,-0.0919 0.0496,-0.0474 0.0841,-0.11054 0.097,-0.17796 0.0777,-0.069 0.14315,-0.15174 0.19238,-0.24324 0.0364,-0.0677 0.064,-0.14007 0.0818,-0.21481 l 0.003,-0.61251 -0.079,-0.15581 -0.0586,-0.24428 c -0.0275,-0.0635 -0.0492,-0.12948 -0.0646,-0.19691 -0.0366,-0.16016 -0.0377,-0.32837 -0.003,-0.48897 l 0.10932,-0.0859 0.19329,-0.38664 z"
         id="path1149"
         inkscape:path-effect="#path-effect1152"
         inkscape:original-d="m 471.06432,255.17747 c -0.14486,0.0327 -0.2931,0.0448 -0.43998,0.0623 -0.095,0.049 -0.15367,0.14794 -0.24278,0.20687 -0.0558,0.11132 -0.008,0.24067 -0.0157,0.35973 0.003,0.11087 -0.004,0.2216 -0.006,0.3322 0.004,0.11562 0.13304,0.19253 0.1076,0.31342 -0.0213,0.0801 -0.007,0.16221 0.0904,0.11482 0.0519,0.0772 -0.0118,0.17367 0.0128,0.25857 0.0358,0.0913 -0.007,0.20112 -0.11504,0.20548 -0.0902,0.004 -0.10227,0.0739 -0.0897,0.14224 -0.12961,0.092 -0.27909,0.16124 -0.38709,0.28058 -0.0382,0.0526 -0.003,0.11916 -0.012,0.17904 -0.002,0.10602 0.007,0.21313 -0.01,0.31786 0.028,0.0638 0.10964,0.006 0.1641,0.0208 0.15755,0.003 0.31607,-0.01 0.4725,0.0131 0.13166,0.0212 0.0409,-0.11438 0.097,-0.17796 0.0411,-0.0968 0.10199,-0.1863 0.19238,-0.24324 0.0815,-0.045 0.0992,-0.13115 0.0818,-0.21481 0.002,-0.20414 -0.003,-0.40854 0.003,-0.61251 0.0157,-0.0643 0.031,-0.21729 -0.079,-0.15581 -0.10331,-0.0406 0.0512,-0.1901 -0.0586,-0.24428 -0.0888,-0.0346 -0.068,-0.1234 -0.0646,-0.19691 -0.002,-0.16292 0.004,-0.32644 -0.003,-0.48897 -0.0452,-0.0978 0.068,-0.0753 0.10932,-0.0859 0.0644,-0.12887 0.12897,-0.25786 0.19329,-0.38664 z"
         transform="translate(1.3969287,0.59868374)" /><path
         style="fill:#000000;fill-opacity:0.449086;fill-rule:evenodd;stroke:none;stroke-width:0.282222px;stroke-linecap:butt;stroke-linejoin:miter;stroke-opacity:1"
         d="m 461.38559,256.07549 0.88434,0.68213 c 0.0976,0.23079 0.20723,0.45653 0.32818,0.67601 0.19164,0.34778 0.41142,0.67923 0.6116,1.02216 0.1395,0.23898 0.26947,0.48353 0.3895,0.73286 l 0.28092,0.17964 0.26897,0.35319 0.24277,0.14511 0.21587,0.11986 c 0.1658,0.0877 0.34555,0.14902 0.53041,0.18086 0.1542,0.0266 0.31192,0.0327 0.46771,0.0181 l 0.28868,-0.35793 -0.27403,-0.16897 -0.003,-0.0353 -0.58422,-0.28307 -0.42327,-0.42569 -0.25353,-0.13733 -0.31555,-0.51313 -0.36773,-0.414 -0.39182,-0.47731 -0.56613,-0.48354 c -0.15298,-0.1007 -0.29906,-0.21188 -0.43689,-0.33249 -0.0668,-0.0584 -0.13161,-0.11908 -0.19437,-0.1818 l -0.3234,-0.11392 -0.37515,-0.18542 z"
         id="path1152"
         inkscape:path-effect="#path-effect1162"
         inkscape:original-d="m 461.38559,256.07549 c 0.28744,0.23671 0.60736,0.43365 0.88434,0.68213 0.14205,0.20672 0.20501,0.45752 0.32818,0.67601 0.17444,0.3577 0.36971,0.70527 0.6116,1.02216 0.16699,0.22418 0.21689,0.51336 0.3895,0.73286 0.10367,0.046 0.21093,0.0834 0.28092,0.17964 -0.0528,0.19443 0.2925,0.13434 0.26897,0.35319 0.0307,0.11032 0.36186,-0.0211 0.24277,0.14511 -0.19756,0.003 0.15541,0.1232 0.21587,0.11986 0.0944,0.22402 0.32975,0.19714 0.53041,0.18086 0.15649,-0.006 0.31239,0.004 0.46771,0.0181 0.16905,-0.0342 0.15282,-0.26603 0.28868,-0.35793 -0.0268,-0.10417 -0.20457,-0.0531 -0.27403,-0.16897 -0.17507,-0.0786 -0.0338,-0.15295 -0.003,-0.0353 -0.24776,0.0292 -0.42358,-0.12117 -0.58422,-0.28307 -0.19965,-0.0672 -0.36549,-0.21809 -0.42327,-0.42569 -0.0186,-0.14282 -0.11207,-0.23442 -0.25353,-0.13733 -0.20339,-0.0307 -0.19837,-0.36451 -0.31555,-0.51313 -0.0568,-0.19932 -0.19916,-0.33619 -0.36773,-0.414 -10e-4,-0.20627 -0.27728,-0.31407 -0.39182,-0.47731 -0.21641,-0.12771 -0.41498,-0.28021 -0.56613,-0.48354 -0.13283,-0.14873 -0.34684,-0.11991 -0.43689,-0.33249 -0.0508,-0.1273 -0.24911,-0.0183 -0.19437,-0.1818 -0.12417,-0.003 -0.24273,0.0171 -0.3234,-0.11392 -0.12108,-0.0696 -0.25039,-0.12313 -0.37515,-0.18542 z"
         transform="translate(-1.0476965,-0.04989031)" /><path
         style="fill:#000000;fill-opacity:0.449086;fill-rule:evenodd;stroke:none;stroke-width:0.282222px;stroke-linecap:butt;stroke-linejoin:miter;stroke-opacity:1"
         d="m 467.27267,253.78054 -0.54343,0.48384 c -0.0328,0.34156 -0.0513,0.68451 -0.0553,1.02763 -0.001,0.0949 -0.001,0.18974 0,0.2846 l -0.1895,0.37322 -0.1905,0.38465 -0.122,0.44385 -0.19655,0.0955 -0.12436,0.41543 -0.0877,0.43566 0.26661,-0.17418 0.32045,-0.3636 0.2513,-0.2411 0.26465,-0.25612 0.007,-0.32674 -0.003,-1.0614 0.0991,-0.42484 0.19516,-0.47132 0.0681,-0.476 0.0402,-0.14907 z"
         id="path1162"
         inkscape:path-effect="#path-effect1172"
         inkscape:original-d="m 467.27267,253.78054 c -0.18548,0.15359 -0.4404,0.25167 -0.54343,0.48384 -0.10137,0.33321 -0.0449,0.68485 -0.0553,1.02763 -0.003,0.0949 0.005,0.19138 0,0.2846 -0.14327,0.0839 -0.0799,0.25587 -0.1895,0.37322 0.0196,0.15737 -0.11646,0.25868 -0.1905,0.38465 -0.0441,0.14657 0.008,0.3198 -0.122,0.44385 -0.0386,0.0848 -0.12144,0.10603 -0.19655,0.0955 -0.021,0.14623 0.0722,0.34925 -0.12436,0.41543 -0.15306,0.0942 -0.0433,0.29332 -0.0877,0.43566 0.0685,0.1803 0.22482,-0.088 0.26661,-0.17418 0.0832,-0.14496 0.12199,-0.33901 0.32045,-0.3636 0.096,-0.0652 0.16447,-0.16389 0.2513,-0.2411 0.0854,-0.0884 0.17568,-0.17278 0.26465,-0.25612 0.0356,-0.1048 -0.003,-0.21769 0.007,-0.32674 -0.002,-0.35378 0.004,-0.70778 -0.003,-1.0614 -0.0263,-0.14935 0.008,-0.30269 0.0991,-0.42484 0.12706,-0.1391 0.0777,-0.32894 0.19516,-0.47132 0.0149,-0.15841 0.005,-0.32238 0.0681,-0.476 0.0138,-0.0496 0.0278,-0.0992 0.0402,-0.14907 z"
         transform="translate(-2.1951737,-0.39912249)" /><path
         style="fill:#000000;fill-opacity:0.449086;fill-rule:evenodd;stroke:none;stroke-width:0.282222px;stroke-linecap:butt;stroke-linejoin:miter;stroke-opacity:1"
         d="m 469.16849,260.6654 -0.23072,-0.59019 c -0.23252,-0.14921 -0.43911,-0.33869 -0.60781,-0.55748 -0.17235,-0.22352 -0.30609,-0.47793 -0.50414,-0.67904 -0.055,-0.0559 -0.11498,-0.1076 -0.16164,-0.17064 -0.0233,-0.0315 -0.0432,-0.0659 -0.0562,-0.10285 -0.013,-0.037 -0.019,-0.0768 -0.0145,-0.11575 0.008,-0.0733 0.0558,-0.14094 0.12176,-0.1739 l 0.27235,-0.15877 0.45826,-0.0502 0.30981,0.15106 0.21337,0.053 v 0.26062 1.63522 l 0.0994,0.0613 0.11356,0.0901 -0.0135,0.34746 z"
         id="path1522"
         inkscape:path-effect="#path-effect1522"
         inkscape:original-d="m 469.16849,260.6654 c -0.088,-0.19239 -0.14299,-0.39793 -0.23072,-0.59019 -0.1336,-0.24901 -0.38842,-0.39395 -0.60781,-0.55748 -0.22724,-0.1752 -0.36233,-0.43603 -0.50414,-0.67904 -0.0731,-0.13234 -0.14846,-0.26356 -0.23236,-0.38924 -0.0615,-0.089 0.006,-0.22545 0.12176,-0.1739 0.11307,0.002 0.15066,-0.15132 0.27235,-0.15877 0.14339,-0.0715 0.30548,-0.0364 0.45826,-0.0502 0.11201,0.0278 0.20661,0.10136 0.30981,0.15106 0.0631,0.0548 0.14572,0.0474 0.21337,0.053 0.0318,0.0843 -0.01,0.17329 0,0.26062 2.2e-4,0.54507 -3.2e-4,1.09021 0,1.63522 0.0456,0.005 0.13931,-0.0266 0.0994,0.0613 -0.0208,0.061 0.10465,0.21666 0.11356,0.0901 -0.0157,0.11471 -0.0115,0.23208 -0.0135,0.34746 z"
         transform="translate(-1.3969287,0.59868374)" /><path
         style="fill:#000000;fill-opacity:0.449086;fill-rule:evenodd;stroke:none;stroke-width:0.282222px;stroke-linecap:butt;stroke-linejoin:miter;stroke-opacity:1"
         d="m 470.11168,255.01444 -0.47728,0.10829 -0.23895,0.48343 c -0.0564,0.21453 -0.16549,0.41501 -0.31494,0.57893 -0.0914,0.10021 -0.19759,0.18684 -0.31412,0.25619 l -0.14395,0.15155 -0.29126,0.13381 c -0.15346,0.0976 -0.31298,0.18567 -0.47735,0.26352 -0.17182,0.0814 -0.34894,0.15158 -0.52985,0.21003 l -0.19511,0.0875 -0.32761,0.11185 -0.26808,0.014 -0.35802,0.007 0.12637,-0.1481 0.42337,-0.21171 0.3208,-0.13076 c 0.10329,-0.008 0.20516,-0.0341 0.29908,-0.0777 0.0638,-0.0297 0.12394,-0.0672 0.17862,-0.11144 l 0.52655,-0.0828 0.16565,-0.16126 0.16878,-0.0652 0.0689,-0.0923 0.148,-0.14071 0.32845,-0.26886 0.0486,-0.31063 0.0901,-0.25718 0.33773,-0.20617 0.008,-0.0699 0.4003,-0.0712 c 0.0989,0.003 0.19784,0.002 0.29674,-1.7e-4 z"
         id="path1523"
         inkscape:path-effect="#path-effect1524"
         inkscape:original-d="m 470.11168,255.01444 c -0.16384,-0.002 -0.35945,-0.0371 -0.47728,0.10829 -0.13495,0.12753 -0.1611,0.32178 -0.23895,0.48343 -0.0792,0.2057 -0.15062,0.42234 -0.31494,0.57893 -0.1,0.0909 -0.19334,0.24014 -0.31412,0.25619 0.0375,0.0985 -0.1449,0.0311 -0.14395,0.15155 -0.0585,0.11974 -0.24453,-0.0308 -0.29126,0.13381 -0.13063,0.12842 -0.31971,0.17503 -0.47735,0.26352 -0.1686,0.0851 -0.33922,0.19358 -0.52985,0.21003 -0.0714,0.0184 -0.11477,0.0889 -0.19511,0.0875 -0.0459,0.15568 -0.3517,-0.048 -0.32761,0.11185 -0.0675,0.0481 -0.18035,-10e-6 -0.26808,0.014 -0.11928,0.003 -0.23962,-0.007 -0.35802,0.007 -0.0937,-0.10449 0.10346,-0.0564 0.12637,-0.1481 0.16256,0.002 0.2879,-0.13453 0.42337,-0.21171 0.11391,0.0316 0.26888,-0.037 0.3208,-0.13076 -0.12239,-0.0568 0.2193,-0.10792 0.29908,-0.0777 0.13487,0.0432 0.0346,-0.1239 0.17862,-0.11144 0.16496,-0.0861 0.39074,0.0395 0.52655,-0.0828 0.006,-0.11127 0.24385,-0.0703 0.16565,-0.16126 -0.13269,0.006 0.11879,-0.12277 0.16878,-0.0652 0.0726,-0.0147 0.2224,-0.0862 0.0689,-0.0923 -0.004,-0.0933 0.26639,-0.11055 0.148,-0.14071 0.0582,-0.14678 0.23,-0.17176 0.32845,-0.26886 0.1254,0.007 0.0136,-0.22332 0.0486,-0.31063 -0.03,-0.11116 0.0847,-0.17213 0.0901,-0.25718 0.14868,0.0286 0.18244,-0.24135 0.33773,-0.20617 0.1086,-0.0364 0.10979,-0.0908 0.008,-0.0699 0.12729,-0.0586 0.26087,-0.089 0.4003,-0.0712 0.0988,-1.1e-4 0.19851,2.3e-4 0.29674,-1.7e-4 z" /></g></g></svg>
