<?xml version="1.0" encoding="UTF-8" standalone="no"?>
<!-- Generator: Adobe Illustrator 16.0.0, SVG Export Plug-In . SVG Version: 6.00 Build 0)  -->

<svg
   version="1.1"
   x="0px"
   y="0px"
   width="133.00847"
   height="191.8382"
   viewBox="0 0 133.00847 191.83819"
   enable-background="new 0 0 1190.552 841.89"
   xml:space="preserve"
   id="svg4425"
   sodipodi:docname="dinosaure.svg"
   inkscape:version="1.3 (0e150ed6c4, 2023-07-21)"
   xmlns:inkscape="http://www.inkscape.org/namespaces/inkscape"
   xmlns:sodipodi="http://sodipodi.sourceforge.net/DTD/sodipodi-0.dtd"
   xmlns:xlink="http://www.w3.org/1999/xlink"
   xmlns="http://www.w3.org/2000/svg"
   xmlns:svg="http://www.w3.org/2000/svg"><defs
   id="defs4425"><radialGradient
     inkscape:collect="always"
     xlink:href="#linearGradient48"
     id="radialGradient49"
     cx="97.487137"
     cy="122.90784"
     fx="97.487137"
     fy="122.90784"
     r="17.609535"
     gradientTransform="matrix(2.5046095,0.60967887,-1.356826,5.5739497,162.23009,-960.60806)"
     gradientUnits="userSpaceOnUse" /><linearGradient
     id="linearGradient48"
     inkscape:collect="always"><stop
       style="stop-color:#c7d7b0;stop-opacity:1;"
       offset="0.328125"
       id="stop48-5" /><stop
       style="stop-color:#86b93e;stop-opacity:1;"
       offset="1"
       id="stop49-2" /></linearGradient><linearGradient
     inkscape:collect="always"
     xlink:href="#linearGradient54"
     id="linearGradient55"
     x1="107.4343"
     y1="105.26353"
     x2="107.7549"
     y2="118.22491"
     gradientUnits="userSpaceOnUse"
     gradientTransform="matrix(3.7795276,0,0,3.7795276,-136.22568,-686.22245)" /><linearGradient
     id="linearGradient54"
     inkscape:collect="always"><stop
       style="stop-color:#6da322;stop-opacity:1;"
       offset="0"
       id="stop54-6" /><stop
       style="stop-color:#6da322;stop-opacity:0;"
       offset="1"
       id="stop55-4" /></linearGradient></defs><sodipodi:namedview
   id="namedview4425"
   pagecolor="#505050"
   bordercolor="#eeeeee"
   borderopacity="1"
   inkscape:showpageshadow="0"
   inkscape:pageopacity="0"
   inkscape:pagecheckerboard="0"
   inkscape:deskcolor="#d1d1d1"
   inkscape:zoom="11.396394"
   inkscape:cx="107.09528"
   inkscape:cy="-384.24434"
   inkscape:window-width="1280"
   inkscape:window-height="961"
   inkscape:window-x="-8"
   inkscape:window-y="-8"
   inkscape:window-maximized="1"
   inkscape:current-layer="svg4425"
   inkscape:export-bgcolor="#ffffff00" />&#10;&#10;&#10;&#10;<g
   id="g3943"
   transform="translate(-150.80791,323.67512)"><path
     style="fill:url(#radialGradient49);fill-rule:evenodd;stroke:none;stroke-width:0.999999px;stroke-linecap:butt;stroke-linejoin:miter;stroke-opacity:1"
     d="m 255.72997,-323.63523 c 0,0 -2.19534,-0.22073 -3.01214,0.37652 -1.45054,1.06066 -1.55969,3.23947 -2.2591,4.89474 -2.72163,6.44099 -5.16911,12.99734 -7.53036,19.57897 -2.14441,5.97713 -4.09928,12.0215 -6.02431,18.07287 -1.31192,4.12403 -2.67712,8.23646 -3.76519,12.42512 -0.74271,2.85917 -1.12014,5.80596 -1.88259,8.65992 -0.74786,2.79934 -1.49741,5.61879 -2.63563,8.2834 -1.2355,2.89236 -2.90694,5.58232 -4.51822,8.2834 -1.53371,2.5711 -3.48411,4.88973 -4.89474,7.53037 -0.90074,1.68616 -2.25911,5.27127 -2.25911,5.27127 l -38.40488,7.90688 c 0,0 -3.92959,2.29304 -5.64777,3.76517 -3.103,2.65863 -5.80545,5.78732 -8.28341,9.03643 -3.14639,4.12555 -6.0666,8.48712 -8.2834,13.17816 -2.20443,4.66488 -3.96665,9.60888 -4.89474,14.68422 -0.56485,3.08893 -0.87493,6.3126 -0.37652,9.41295 0.51061,3.1762 2.10279,6.08765 3.38868,9.03643 1.68265,3.85867 3.26456,7.82555 5.64777,11.29558 2.21295,3.22212 4.85078,6.2228 7.90689,8.65991 3.38355,2.69825 7.28402,4.77706 11.29554,6.40082 3.24496,1.31346 6.74605,1.8881 10.166,2.63562 3.48743,0.76225 6.99154,1.51684 10.54252,1.88258 4.37138,0.45022 8.7962,0.70855 13.17814,0.37644 4.19757,-0.31823 8.31872,-1.33262 12.42511,-2.25914 4.69238,-1.05872 9.50962,-1.87063 13.93118,-3.76516 3.77887,-1.61915 7.3359,-3.82802 10.54253,-6.40082 3.25406,-2.61086 6.06584,-5.76896 8.65992,-9.03643 2.1428,-2.69912 4.16303,-5.5499 5.64778,-8.65996 1.93221,-4.04742 3.21162,-8.41414 4.14168,-12.8016 0.99447,-4.69134 1.1822,-9.52309 1.50607,-14.3077 0.27968,-4.13417 0.88902,-8.31334 0.37644,-12.42513 -0.33902,-2.72005 -1.67301,-5.22916 -2.2591,-7.90688 -0.35301,-1.61261 -0.75303,-4.89472 -0.75303,-4.89472 0,0 3.16335,-2.17647 4.14172,-3.7652 1.22944,-1.99646 1.56589,-4.45417 1.88258,-6.77733 0.22035,-1.61662 0.32806,-3.29647 0,-4.89472 -0.192,-0.9363 -1.12955,-2.63565 -1.12955,-2.63565 0,0 2.49422,-8.73158 3.38865,-13.17812 1.02554,-5.09847 1.3245,-10.3214 2.2591,-15.43729 0.94681,-5.18249 2.48595,-10.24687 3.38869,-15.43722 0.67222,-3.86494 1.25453,-7.75721 1.50606,-11.67209 0.17688,-2.75546 0,-8.2834 0,-8.2834 0,0 -5.05474,-6.24801 -7.53037,-9.41295 -3.30969,-4.23123 -5.64914,-9.37893 -9.78946,-12.80164 -2.8119,-2.32451 -9.78951,-4.89462 -9.78951,-4.89462 z"
     id="path47"
     sodipodi:nodetypes="csssssssssccssssssssssssssssssssscssscsssscssc" /><path
     style="fill:#6da322;fill-opacity:1;fill-rule:evenodd;stroke:none;stroke-width:0.999999px;stroke-linecap:butt;stroke-linejoin:miter;stroke-opacity:1"
     d="m 246.0817,-293.37257 c 0,0 1.78711,5.08634 2.72976,7.53041 1.11266,2.88487 3.4828,8.42456 3.4828,8.42456 0,0 -2.8278,-4.93723 -3.85931,-7.57742 -1.05555,-2.70172 -2.35325,-8.37755 -2.35325,-8.37755 z"
     id="path52"
     sodipodi:nodetypes="cscsc" /><path
     style="fill:#6da322;fill-opacity:1;fill-rule:evenodd;stroke:none;stroke-width:0.999999px;stroke-linecap:butt;stroke-linejoin:miter;stroke-opacity:1"
     d="m 244.76389,-286.50109 c 0,0 1.27389,5.05206 2.07084,7.53037 0.8038,2.49971 2.72977,7.38917 2.72977,7.38917 0,0 -2.53009,-4.71439 -3.3416,-7.248 -0.794,-2.47896 -1.45901,-7.67154 -1.45901,-7.67154 z"
     id="path53"
     sodipodi:nodetypes="cscsc" /><path
     style="fill:url(#linearGradient55);fill-rule:evenodd;stroke:none;stroke-width:0.999999px;stroke-linecap:butt;stroke-linejoin:miter;stroke-opacity:1"
     d="m 253.3184,-300.92599 c 0,0 2.38416,11.89871 4.14168,17.69635 0.62219,2.05244 1.40187,4.05842 2.2591,6.0243 0.78524,1.80072 2.63565,3.76517 2.63565,5.27127 0,1.50607 1.16066,9.05053 1.88259,13.55464 0.44413,2.77103 0.9335,5.53606 1.50606,8.28344 0.44723,2.14575 0.19465,4.64451 1.50607,6.40078 1.21081,1.62156 3.24831,2.95604 5.27127,3.01217 1.12214,0.0302 3.01213,-1.50611 3.01213,-1.50611 0,0 1.12539,-10.81927 2.07088,-16.00199 1.09262,-5.98919 2.14239,-13.74164 3.38865,-18.63768 0.87568,-3.44016 1.58525,-5.89648 2.07084,-9.41295 0.25965,-1.88141 0.75307,-5.64779 0.75307,-5.64779 0,0 -4.51631,-0.46038 -6.77733,-0.37644 -2.90911,0.1081 -5.78306,1.57455 -8.65992,1.12955 -4.1062,-0.63515 -8.00387,-2.73577 -11.29557,-5.27127 -1.55316,-1.19633 -3.76517,-4.51827 -3.76517,-4.51827 z"
     id="path54-0"
     sodipodi:nodetypes="cssssssscssscsssc" /><path
     style="fill:#e0e2dd;fill-opacity:1;fill-rule:evenodd;stroke:none;stroke-width:1px;stroke-linecap:butt;stroke-linejoin:miter;stroke-opacity:1"
     d="m 239.1431,-279.65901 c 0,0 -1.92287,19.86971 -1.24093,29.78234 0.60586,8.80677 4.71554,26.05955 4.71554,26.05955 0,0 -5.81324,-17.13357 -6.45284,-26.05955 -0.71308,-9.95144 2.97823,-29.78234 2.97823,-29.78234 z"
     id="path3942"
     sodipodi:nodetypes="cscsc" /><path
     style="fill:#e0e2dd;fill-opacity:1;fill-rule:evenodd;stroke:none;stroke-width:0.891939px;stroke-linecap:butt;stroke-linejoin:miter;stroke-opacity:1"
     d="m 272.90213,-264.97195 c 0,0 -2.17883,15.77422 -4.85259,23.22445 -2.37546,6.61906 -9.8549,18.83947 -9.8549,18.83947 0,0 9.10225,-11.69355 11.53457,-18.39569 2.71174,-7.47212 3.17292,-23.66823 3.17292,-23.66823 z"
     id="path3943"
     sodipodi:nodetypes="cscsc" /></g></svg>
