<?xml version="1.0" encoding="UTF-8" standalone="no"?>
<!-- Created with Inkscape (http://www.inkscape.org/) -->

<svg
   width="25.299061mm"
   height="22.009333mm"
   viewBox="0 0 25.299061 22.009333"
   version="1.1"
   id="svg1"
   xmlns:inkscape="http://www.inkscape.org/namespaces/inkscape"
   xmlns:sodipodi="http://sodipodi.sourceforge.net/DTD/sodipodi-0.dtd"
   xmlns:xlink="http://www.w3.org/1999/xlink"
   xmlns="http://www.w3.org/2000/svg"
   xmlns:svg="http://www.w3.org/2000/svg">
  <sodipodi:namedview
     id="namedview1"
     pagecolor="#505050"
     bordercolor="#eeeeee"
     borderopacity="1"
     inkscape:showpageshadow="0"
     inkscape:pageopacity="0"
     inkscape:pagecheckerboard="0"
     inkscape:deskcolor="#d1d1d1"
     inkscape:document-units="mm" />
  <defs
     id="defs1">
    <linearGradient
       id="linearGradient140"
       inkscape:collect="always">
      <stop
         style="stop-color:#cde3ad;stop-opacity:1;"
         offset="0"
         id="stop139" />
      <stop
         style="stop-color:#5fa300;stop-opacity:1;"
         offset="1"
         id="stop140" />
    </linearGradient>
    <linearGradient
       id="linearGradient137"
       inkscape:collect="always">
      <stop
         style="stop-color:#a5ce6d;stop-opacity:1;"
         offset="0"
         id="stop137" />
      <stop
         style="stop-color:#5fa300;stop-opacity:1;"
         offset="1"
         id="stop138" />
    </linearGradient>
    <linearGradient
       id="linearGradient136"
       inkscape:collect="always">
      <stop
         style="stop-color:#65a30d;stop-opacity:1;"
         offset="0"
         id="stop134" />
      <stop
         style="stop-color:#a0c46d;stop-opacity:1;"
         offset="0.45833334"
         id="stop135" />
      <stop
         style="stop-color:#dee6d3;stop-opacity:1;"
         offset="1"
         id="stop136" />
    </linearGradient>
    <linearGradient
       id="linearGradient132"
       inkscape:collect="always">
      <stop
         style="stop-color:#65a30d;stop-opacity:1;"
         offset="0"
         id="stop130" />
      <stop
         style="stop-color:#a0c46d;stop-opacity:1;"
         offset="0.28906253"
         id="stop131" />
      <stop
         style="stop-color:#dee6d3;stop-opacity:1;"
         offset="1"
         id="stop132" />
    </linearGradient>
    <linearGradient
       id="linearGradient128"
       inkscape:collect="always">
      <stop
         style="stop-color:#65a30d;stop-opacity:1;"
         offset="0"
         id="stop126" />
      <stop
         style="stop-color:#a0c46d;stop-opacity:1;"
         offset="0.19270836"
         id="stop127" />
      <stop
         style="stop-color:#dee6d3;stop-opacity:1;"
         offset="1"
         id="stop128" />
    </linearGradient>
    <linearGradient
       id="linearGradient124"
       inkscape:collect="always">
      <stop
         style="stop-color:#65a30d;stop-opacity:1;"
         offset="0"
         id="stop122" />
      <stop
         style="stop-color:#a0c46d;stop-opacity:1;"
         offset="0.18489586"
         id="stop123" />
      <stop
         style="stop-color:#dee6d3;stop-opacity:1;"
         offset="1"
         id="stop124" />
    </linearGradient>
    <linearGradient
       id="linearGradient120"
       inkscape:collect="always">
      <stop
         style="stop-color:#65a30d;stop-opacity:1;"
         offset="0"
         id="stop118" />
      <stop
         style="stop-color:#a0c46d;stop-opacity:1;"
         offset="0.35416669"
         id="stop119" />
      <stop
         style="stop-color:#dee6d3;stop-opacity:1;"
         offset="1"
         id="stop120" />
    </linearGradient>
    <linearGradient
       id="linearGradient114"
       inkscape:collect="always">
      <stop
         style="stop-color:#65a30d;stop-opacity:1;"
         offset="0.18229167"
         id="stop112" />
      <stop
         style="stop-color:#a0c46d;stop-opacity:1;"
         offset="0.52864587"
         id="stop113" />
      <stop
         style="stop-color:#dee6d3;stop-opacity:1;"
         offset="1"
         id="stop114" />
    </linearGradient>
    <linearGradient
       id="linearGradient110"
       inkscape:collect="always">
      <stop
         style="stop-color:#65a30d;stop-opacity:1;"
         offset="0.22395834"
         id="stop108" />
      <stop
         style="stop-color:#a0c46d;stop-opacity:1;"
         offset="0.41145834"
         id="stop109" />
      <stop
         style="stop-color:#dee6d3;stop-opacity:1;"
         offset="1"
         id="stop110" />
    </linearGradient>
    <linearGradient
       id="linearGradient99"
       inkscape:collect="always">
      <stop
         style="stop-color:#62a408;stop-opacity:1;"
         offset="0"
         id="stop99" />
      <stop
         style="stop-color:#8a9b71;stop-opacity:1;"
         offset="0.5"
         id="stop101" />
      <stop
         style="stop-color:#8a9b71;stop-opacity:1;"
         offset="0.70833331"
         id="stop102" />
      <stop
         style="stop-color:#687357;stop-opacity:1;"
         offset="1"
         id="stop100" />
    </linearGradient>
    <linearGradient
       id="linearGradient93"
       inkscape:collect="always">
      <stop
         style="stop-color:#dce0d7;stop-opacity:1;"
         offset="0.27604166"
         id="stop94" />
      <stop
         style="stop-color:#dce0d7;stop-opacity:0;"
         offset="1"
         id="stop95" />
    </linearGradient>
    <linearGradient
       id="linearGradient90"
       inkscape:collect="always">
      <stop
         style="stop-color:#95b46a;stop-opacity:1;"
         offset="0.375"
         id="stop90" />
      <stop
         style="stop-color:#5fa300;stop-opacity:1;"
         offset="0.84635419"
         id="stop91" />
    </linearGradient>
    <linearGradient
       id="linearGradient88"
       inkscape:collect="always">
      <stop
         style="stop-color:#7ea844;stop-opacity:1;"
         offset="0"
         id="stop88" />
      <stop
         style="stop-color:#89a265;stop-opacity:1;"
         offset="0.1953125"
         id="stop92" />
      <stop
         style="stop-color:#779055;stop-opacity:1;"
         offset="0.50390625"
         id="stop93" />
      <stop
         style="stop-color:#4a5737;stop-opacity:1;"
         offset="1"
         id="stop89" />
    </linearGradient>
    <linearGradient
       id="linearGradient85"
       inkscape:collect="always">
      <stop
         style="stop-color:#5fa300;stop-opacity:1;"
         offset="0.29166666"
         id="stop86" />
      <stop
         style="stop-color:#8f9e78;stop-opacity:1;"
         offset="1"
         id="stop87" />
    </linearGradient>
    <linearGradient
       id="linearGradient83"
       inkscape:collect="always">
      <stop
         style="stop-color:#65a30d;stop-opacity:1;"
         offset="0"
         id="stop83" />
      <stop
         style="stop-color:#a0c46d;stop-opacity:1;"
         offset="0.71354169"
         id="stop85" />
      <stop
         style="stop-color:#dee6d3;stop-opacity:1;"
         offset="1"
         id="stop84" />
    </linearGradient>
    <linearGradient
       id="linearGradient78"
       inkscape:collect="always">
      <stop
         style="stop-color:#c16f6b;stop-opacity:1;"
         offset="0.453125"
         id="stop78" />
      <stop
         style="stop-color:#bfd295;stop-opacity:1;"
         offset="1"
         id="stop79" />
    </linearGradient>
    <radialGradient
       inkscape:collect="always"
       xlink:href="#linearGradient78"
       id="radialGradient79"
       cx="85.041504"
       cy="149.92769"
       fx="85.041504"
       fy="149.92769"
       r="2.0929379"
       gradientTransform="matrix(1,0,0,1.08835,0,-13.246107)"
       gradientUnits="userSpaceOnUse" />
    <radialGradient
       inkscape:collect="always"
       xlink:href="#linearGradient78"
       id="radialGradient83"
       cx="92.224876"
       cy="150.57275"
       fx="92.224876"
       fy="150.57275"
       r="1.2234232"
       gradientTransform="matrix(1,0,0,0.64717236,0,52.821787)"
       gradientUnits="userSpaceOnUse" />
    <linearGradient
       inkscape:collect="always"
       xlink:href="#linearGradient83"
       id="linearGradient84"
       x1="90.519241"
       y1="148.04422"
       x2="91.921127"
       y2="148.27808"
       gradientUnits="userSpaceOnUse" />
    <linearGradient
       inkscape:collect="always"
       xlink:href="#linearGradient85"
       id="linearGradient87"
       x1="91.699692"
       y1="152.92258"
       x2="92.669289"
       y2="153.15643"
       gradientUnits="userSpaceOnUse" />
    <linearGradient
       inkscape:collect="always"
       xlink:href="#linearGradient88"
       id="linearGradient89"
       x1="90.82756"
       y1="151.94662"
       x2="94.429146"
       y2="153.25626"
       gradientUnits="userSpaceOnUse" />
    <linearGradient
       inkscape:collect="always"
       xlink:href="#linearGradient90"
       id="linearGradient91"
       x1="90.013596"
       y1="153.54594"
       x2="91.751823"
       y2="155.22974"
       gradientUnits="userSpaceOnUse" />
    <linearGradient
       inkscape:collect="always"
       xlink:href="#linearGradient93"
       id="linearGradient95"
       x1="86.746429"
       y1="165.62172"
       x2="86.467697"
       y2="166.21806"
       gradientUnits="userSpaceOnUse"
       gradientTransform="translate(6.3844008,-14.382442)" />
    <linearGradient
       inkscape:collect="always"
       xlink:href="#linearGradient93"
       id="linearGradient97"
       x1="91.242615"
       y1="168.95331"
       x2="91.04377"
       y2="169.36673"
       gradientUnits="userSpaceOnUse"
       gradientTransform="translate(9.4087436,-16.998158)" />
    <linearGradient
       inkscape:collect="always"
       xlink:href="#linearGradient99"
       id="linearGradient100"
       x1="92.651642"
       y1="157.41179"
       x2="97.736038"
       y2="149.6727"
       gradientUnits="userSpaceOnUse" />
    <linearGradient
       inkscape:collect="always"
       xlink:href="#linearGradient83"
       id="linearGradient106"
       x1="101.98186"
       y1="152.70299"
       x2="102.90197"
       y2="151.38008"
       gradientUnits="userSpaceOnUse" />
    <linearGradient
       inkscape:collect="always"
       xlink:href="#linearGradient110"
       id="linearGradient108"
       x1="96.597839"
       y1="163.32439"
       x2="97.737961"
       y2="163.12561"
       gradientUnits="userSpaceOnUse" />
    <linearGradient
       inkscape:collect="always"
       xlink:href="#linearGradient114"
       id="linearGradient112"
       x1="90.48349"
       y1="163.55695"
       x2="91.094521"
       y2="163.55695"
       gradientUnits="userSpaceOnUse" />
    <linearGradient
       inkscape:collect="always"
       xlink:href="#linearGradient83"
       id="linearGradient116"
       x1="91.966858"
       y1="163.2926"
       x2="92.314308"
       y2="163.25752"
       gradientUnits="userSpaceOnUse" />
    <linearGradient
       inkscape:collect="always"
       xlink:href="#linearGradient120"
       id="linearGradient118"
       x1="87.468773"
       y1="159.84271"
       x2="87.577614"
       y2="159.94194"
       gradientUnits="userSpaceOnUse" />
    <linearGradient
       inkscape:collect="always"
       xlink:href="#linearGradient124"
       id="linearGradient122"
       x1="86.64669"
       y1="158.70758"
       x2="86.843506"
       y2="158.80679"
       gradientUnits="userSpaceOnUse" />
    <linearGradient
       inkscape:collect="always"
       xlink:href="#linearGradient128"
       id="linearGradient126"
       x1="83.777451"
       y1="156.85063"
       x2="83.989182"
       y2="156.85648"
       gradientUnits="userSpaceOnUse" />
    <linearGradient
       inkscape:collect="always"
       xlink:href="#linearGradient132"
       id="linearGradient130"
       x1="82.989868"
       y1="157.05716"
       x2="83.177528"
       y2="157.05716"
       gradientUnits="userSpaceOnUse" />
    <linearGradient
       inkscape:collect="always"
       xlink:href="#linearGradient136"
       id="linearGradient134"
       x1="79.136337"
       y1="163.04852"
       x2="79.399734"
       y2="163.09813"
       gradientUnits="userSpaceOnUse"
       gradientTransform="translate(8.7477865,-15.436784)" />
    <linearGradient
       inkscape:collect="always"
       xlink:href="#linearGradient137"
       id="linearGradient138"
       x1="60.757542"
       y1="162.88409"
       x2="68.755997"
       y2="162.88409"
       gradientUnits="userSpaceOnUse"
       gradientTransform="translate(18.528858,-13.229166)" />
    <linearGradient
       inkscape:collect="always"
       xlink:href="#linearGradient140"
       id="linearGradient139"
       gradientUnits="userSpaceOnUse"
       gradientTransform="matrix(0.96150902,0,0,0.9405514,21.090737,-3.6332162)"
       x1="60.757542"
       y1="162.88409"
       x2="68.755997"
       y2="162.88409" />
  </defs>
  <g
     inkscape:label="Layer 1"
     inkscape:groupmode="layer"
     id="layer1"
     transform="translate(-78.033419,-143.36743)">
    <g
       id="g140">
      <path
         style="fill:url(#linearGradient106);fill-rule:evenodd;stroke:none;stroke-width:0.065;stroke-linecap:butt;stroke-linejoin:miter;stroke-dasharray:none;stroke-opacity:1"
         d="m 101.36385,152.10804 c 0,0 0.29108,-0.24013 0.43584,-0.36113 0.21246,-0.17758 0.40942,-0.37498 0.63508,-0.53545 0.12589,-0.0895 0.25522,-0.17881 0.39848,-0.2366 0.0672,-0.0271 0.1354,-0.0531 0.20547,-0.0716 0.0576,-0.0152 0.12784,-0.0155 0.18056,0.009 0.0323,0.0152 0.0473,0.0548 0.0623,0.0872 0.0287,0.0622 0.0459,0.1309 0.0498,0.19924 0.006,0.0961 -0.0135,0.19313 -0.0374,0.28641 -0.0397,0.15534 -0.1019,0.30526 -0.17434,0.4483 -0.0978,0.19312 -0.22006,0.37377 -0.34867,0.54791 -0.0875,0.11843 -0.18802,0.22671 -0.28641,0.33622 -0.0726,0.0808 -0.1422,0.16527 -0.22414,0.2366 -0.0539,0.0469 -0.17434,0.12452 -0.17434,0.12452 z"
         id="path56"
         sodipodi:nodetypes="csssssssssssscc" />
      <path
         style="fill:#ffffff;fill-opacity:1;fill-rule:evenodd;stroke:none;stroke-width:0.065;stroke-linecap:butt;stroke-linejoin:miter;stroke-dasharray:none;stroke-opacity:1"
         d="m 93.679488,150.40317 c 0,0 -0.003,-0.17038 -0.0088,-0.25535 -0.0079,-0.1148 -0.01948,-0.22942 -0.03522,-0.34341 -0.01874,-0.13575 -0.0404,-0.27133 -0.07044,-0.40504 -0.03138,-0.13965 -0.06383,-0.27998 -0.114469,-0.41385 -0.04505,-0.1191 -0.109303,-0.23005 -0.167299,-0.34341 -0.0622,-0.12158 -0.119243,-0.24654 -0.193717,-0.36102 -0.073,-0.1122 -0.158875,-0.21583 -0.246547,-0.31698 -0.07478,-0.0863 -0.152466,-0.17064 -0.237744,-0.24655 -0.05788,-0.0515 -0.120163,-0.0983 -0.184912,-0.14089 -0.04501,-0.0296 -0.140883,-0.0792 -0.140883,-0.0792 l -1.3296,3.07304 z"
         id="path62"
         sodipodi:nodetypes="csssssssssccc" />
      <path
         style="fill:url(#radialGradient83);fill-opacity:1;fill-rule:evenodd;stroke:none;stroke-width:0.065;stroke-linecap:butt;stroke-linejoin:miter;stroke-dasharray:none;stroke-opacity:1"
         d="m 93.622253,150.2887 c 0,0 -0.0285,-0.11857 -0.04843,-0.1761 -0.02971,-0.0858 -0.0646,-0.17001 -0.105664,-0.25095 -0.04259,-0.0839 -0.0895,-0.16633 -0.145286,-0.24215 -0.04312,-0.0586 -0.0936,-0.1117 -0.145288,-0.1629 -0.05542,-0.0549 -0.114075,-0.1068 -0.176106,-0.15409 -0.07833,-0.0597 -0.16008,-0.11572 -0.246547,-0.1629 -0.08306,-0.0453 -0.169877,-0.0849 -0.259757,-0.11447 -0.07,-0.023 -0.143125,-0.0358 -0.215728,-0.0484 -0.05828,-0.0102 -0.117105,-0.0177 -0.176107,-0.022 -0.06295,-0.005 -0.189315,-0.004 -0.189315,-0.004 l -0.647189,1.51451 z"
         id="path63"
         sodipodi:nodetypes="csssssssssccc" />
      <path
         style="fill:#b0f05b;fill-opacity:1;fill-rule:evenodd;stroke:none;stroke-width:0.065;stroke-linecap:butt;stroke-linejoin:miter;stroke-dasharray:none;stroke-opacity:1"
         d="m 92.85875,150.23393 c -0.01516,-0.0307 -0.0362,-0.0587 -0.05915,-0.0841 -0.02856,-0.0317 -0.06146,-0.0597 -0.09651,-0.084 -0.04655,-0.0323 -0.09783,-0.0575 -0.149429,-0.0809 -0.04636,-0.021 -0.09416,-0.0393 -0.143205,-0.0529 -0.04885,-0.0135 -0.09883,-0.0253 -0.149432,-0.028 -0.05301,-0.003 -0.106358,0.004 -0.158768,0.0125 -0.06013,0.01 -0.119935,0.0236 -0.177451,0.0436 -0.05174,0.018 -0.102204,0.0407 -0.149429,0.0685 -0.03774,0.0222 -0.07683,0.045 -0.105846,0.0778 -0.09546,0.10786 -0.211696,0.37669 -0.211696,0.37669 l 1.450724,-0.0903 c 0,0 -0.02525,-0.10911 -0.04981,-0.15889 z"
         id="path64"
         sodipodi:nodetypes="ssssssssssccs" />
      <path
         style="fill:url(#linearGradient84);fill-rule:evenodd;stroke:none;stroke-width:0.065;stroke-linecap:butt;stroke-linejoin:miter;stroke-dasharray:none;stroke-opacity:1"
         d="m 91.548608,150.16543 c 0,0 0.150629,-0.35654 0.220133,-0.53712 0.124395,-0.32319 0.242689,-0.64886 0.352211,-0.97739 0.08544,-0.25631 0.175107,-0.51206 0.237741,-0.77487 0.04419,-0.18541 0.07449,-0.37426 0.09686,-0.56354 0.01588,-0.13436 0.02948,-0.26978 0.0264,-0.40504 -0.0018,-0.0797 -0.01159,-0.15939 -0.0264,-0.23774 -0.01468,-0.0777 -0.02733,-0.15774 -0.06164,-0.22894 -0.03007,-0.0624 -0.07222,-0.12048 -0.123272,-0.1673 -0.04563,-0.0419 -0.101601,-0.0725 -0.158496,-0.0969 -0.07261,-0.0312 -0.150593,-0.0512 -0.228938,-0.0616 -0.07274,-0.01 -0.146781,-0.002 -0.220131,0 -0.108718,0.003 -0.217803,0.005 -0.325797,0.0176 -0.160061,0.0191 -0.31862,0.051 -0.475486,0.0881 -0.13379,0.0316 -0.266134,0.07 -0.396237,0.11447 -0.14339,0.049 -0.282616,0.10944 -0.422653,0.1673 -0.191986,0.0793 -0.381227,0.16514 -0.572344,0.24654 -0.16701,0.0711 -0.341168,0.12697 -0.501902,0.21133 -0.144911,0.0761 -0.41385,0.26416 -0.41385,0.26416 z"
         id="path61"
         sodipodi:nodetypes="cssssssssssssssssscc" />
      <path
         style="fill:url(#linearGradient108);fill-rule:evenodd;stroke:none;stroke-width:0.065;stroke-linecap:butt;stroke-linejoin:miter;stroke-dasharray:none;stroke-opacity:1"
         d="m 96.634926,162.42109 c 0,0 0.06795,0.41081 0.103354,0.61598 0.03355,0.19446 0.06179,0.39 0.103352,0.58291 0.03534,0.16402 0.07679,0.32683 0.124023,0.48783 0.02085,0.0711 0.04193,0.1424 0.07028,0.21084 0.01887,0.0456 0.03531,0.0938 0.06615,0.13229 0.01778,0.0222 0.03898,0.0455 0.06615,0.0538 0.01455,0.004 0.03111,0.001 0.04547,-0.004 0.01406,-0.005 0.02584,-0.0152 0.03721,-0.0248 0.02307,-0.0196 0.04544,-0.0409 0.06201,-0.0662 0.0362,-0.0552 0.05512,-0.12015 0.07855,-0.1819 0.03757,-0.099 0.07072,-0.1998 0.09922,-0.30179 0.04607,-0.16483 0.0803,-0.33279 0.115755,-0.50023 0.0378,-0.17847 0.07136,-0.35783 0.103352,-0.53743 0.03135,-0.17598 0.08682,-0.52917 0.08682,-0.52917 l 0.04961,-0.20671 z"
         id="path78"
         sodipodi:nodetypes="csssssssssssssccc" />
      <path
         style="fill:url(#linearGradient112);fill-rule:evenodd;stroke:none;stroke-width:0.065;stroke-linecap:butt;stroke-linejoin:miter;stroke-dasharray:none;stroke-opacity:1"
         d="m 90.527528,161.75569 0.02339,0.11109 c 0,0 -0.01109,0.25719 -0.0117,0.38587 -8.86e-4,0.18713 0.0058,0.37423 0.0117,0.56126 0.0073,0.23005 0.01401,0.46022 0.02923,0.68989 0.01721,0.25968 0.03486,0.51975 0.07016,0.77759 0.02043,0.14921 0.05226,0.29666 0.08185,0.44433 0.02351,0.11731 0.03688,0.23773 0.076,0.3508 0.02622,0.0758 0.05392,0.1547 0.105238,0.21632 0.02943,0.0353 0.06649,0.0706 0.111086,0.0818 0.02673,0.007 0.05522,-0.005 0.08185,-0.0117 0.03042,-0.008 0.06299,-0.0156 0.0877,-0.0351 0.03183,-0.0251 0.04866,-0.065 0.07016,-0.0994 0.04716,-0.0754 0.09012,-0.15366 0.128622,-0.23386 0.05294,-0.11028 0.100319,-0.2235 0.140316,-0.3391 0.05891,-0.17026 0.100538,-0.34605 0.146164,-0.52034 0.07111,-0.27161 0.139123,-0.54415 0.198781,-0.81851 0.04386,-0.20168 0.08482,-0.40416 0.11693,-0.60804 0.01986,-0.12607 0.04677,-0.38002 0.04677,-0.38002 z"
         id="path76"
         sodipodi:nodetypes="ccsssssssssssssssscc" />
      <path
         style="fill:url(#linearGradient116);fill-rule:evenodd;stroke:none;stroke-width:0.065;stroke-linecap:butt;stroke-linejoin:miter;stroke-dasharray:none;stroke-opacity:1"
         d="m 93.409864,162.61513 c 0,0 -0.076,0.30572 -0.122777,0.45603 -0.05897,0.18951 -0.123597,0.37758 -0.198782,0.56127 -0.0611,0.14927 -0.192936,0.4151 -0.204628,0.43848 -0.0117,0.0234 -0.137919,0.27785 -0.257247,0.36834 -0.0329,0.025 -0.07579,0.0374 -0.11693,0.0409 -0.03543,0.003 -0.0733,-0.002 -0.105238,-0.0175 -0.03097,-0.0152 -0.05558,-0.0424 -0.076,-0.0702 -0.04852,-0.066 -0.07635,-0.14548 -0.105238,-0.22216 -0.03502,-0.0929 -0.06086,-0.18942 -0.08185,-0.28649 -0.03081,-0.14251 -0.04647,-0.28794 -0.06431,-0.43264 -0.01222,-0.0991 -0.0221,-0.19856 -0.02923,-0.29817 -0.02465,-0.34441 -0.04677,-1.03483 -0.04677,-1.03483 z"
         id="path77"
         sodipodi:nodetypes="cssssssssssscc" />
      <path
         style="fill:url(#linearGradient118);fill-rule:evenodd;stroke:none;stroke-width:0.065;stroke-linecap:butt;stroke-linejoin:miter;stroke-dasharray:none;stroke-opacity:1"
         d="m 88.11584,160.16252 c 0,0 -0.15358,0.0653 -0.230939,0.0965 -0.09698,0.0392 -0.193346,0.0802 -0.292325,0.11401 -0.06537,0.0223 -0.131085,0.0448 -0.198784,0.0585 -0.04229,0.009 -0.08547,0.0147 -0.128622,0.0146 -0.03336,-7e-5 -0.06866,10e-4 -0.09939,-0.0117 -0.0185,-0.008 -0.03608,-0.021 -0.04677,-0.038 -0.01119,-0.0178 -0.01463,-0.0404 -0.01461,-0.0614 2.4e-5,-0.0251 0.0088,-0.0496 0.01754,-0.0731 0.01483,-0.0401 0.03647,-0.0774 0.05846,-0.11401 0.02811,-0.0468 0.06055,-0.091 0.09354,-0.13447 0.04349,-0.0574 0.08899,-0.11335 0.137395,-0.16663 0.05096,-0.0561 0.106609,-0.10776 0.16078,-0.16077 0.04532,-0.0443 0.137392,-0.13155 0.137392,-0.13155 z"
         id="path75"
         sodipodi:nodetypes="csssssssssssscc" />
      <path
         style="fill:url(#linearGradient122);fill-rule:evenodd;stroke:none;stroke-width:0.065;stroke-linecap:butt;stroke-linejoin:miter;stroke-dasharray:none;stroke-opacity:1"
         d="m 87.019616,157.93792 c 0,0 -0.152371,0.21549 -0.222168,0.3274 -0.09978,0.15998 -0.192078,0.32465 -0.280633,0.49111 -0.08269,0.15543 -0.164836,0.3116 -0.23386,0.47356 -0.03819,0.0896 -0.07976,0.17938 -0.09939,0.27479 -0.01337,0.065 -0.02356,0.13347 -0.01169,0.19878 0.0069,0.0378 0.01912,0.0786 0.04677,0.10524 0.03024,0.0291 0.07592,0.0378 0.11693,0.0468 0.07434,0.0163 0.152113,0.0173 0.228015,0.0117 0.09911,-0.007 0.195665,-0.0354 0.292325,-0.0585 0.10624,-0.0254 0.211861,-0.0539 0.315714,-0.0877 0.09499,-0.0309 0.189712,-0.0638 0.280633,-0.10524 0.123006,-0.056 0.356637,-0.19294 0.356637,-0.19294 z"
         id="path74"
         sodipodi:nodetypes="cssssssssssscc" />
      <path
         style="fill:url(#linearGradient126);fill-rule:evenodd;stroke:none;stroke-width:0.065;stroke-linecap:butt;stroke-linejoin:miter;stroke-dasharray:none;stroke-opacity:1"
         d="m 84.679067,156.2778 c 0,0 -0.135887,0.29448 -0.210839,0.43821 -0.06362,0.122 -0.12927,0.24322 -0.202573,0.35967 -0.04481,0.0712 -0.08957,0.14319 -0.144693,0.20671 -0.03834,0.0442 -0.07737,0.0909 -0.128158,0.11989 -0.0212,0.0121 -0.04604,0.0237 -0.07028,0.0207 -0.02697,-0.003 -0.0524,-0.0208 -0.07028,-0.0413 -0.03048,-0.0349 -0.04259,-0.0832 -0.05374,-0.12816 -0.01864,-0.0752 -0.01853,-0.15406 -0.02066,-0.23151 -0.0022,-0.0813 0.0054,-0.16261 0.0083,-0.24391 0.0027,-0.0744 0.0062,-0.1488 0.0083,-0.22324 0.0021,-0.0744 0.0041,-0.22325 0.0041,-0.22325 z"
         id="path73"
         sodipodi:nodetypes="csssssssssscc" />
      <path
         style="fill:url(#linearGradient130);fill-rule:evenodd;stroke:none;stroke-width:0.065;stroke-linecap:butt;stroke-linejoin:miter;stroke-dasharray:none;stroke-opacity:1"
         d="m 82.989866,156.50524 c 0,0 0.0026,0.31708 0.0088,0.47548 0.0058,0.14691 0.0062,0.29464 0.0264,0.44027 0.01319,0.0952 0.0222,0.19408 0.06163,0.28177 0.05339,0.11873 0.110522,0.12402 0.12328,0.11448 0.07381,-0.0552 0.09963,-0.0919 0.129016,-0.13793 0.05233,-0.0819 0.06748,-0.16147 0.108729,-0.2495 0.0548,-0.11698 0.09195,-0.24147 0.140883,-0.36102 0.03387,-0.0828 0.07452,-0.16273 0.105664,-0.24654 0.06435,-0.17316 0.167302,-0.52832 0.167302,-0.52832 z"
         id="path72"
         sodipodi:nodetypes="csssssssscc" />
      <path
         style="fill:url(#linearGradient100);fill-rule:evenodd;stroke:none;stroke-width:0.1;stroke-linecap:butt;stroke-linejoin:miter;stroke-dasharray:none;stroke-opacity:1"
         d="m 79.895635,146.8406 c 0,0 -0.640957,0.27108 -0.896585,0.49811 -0.275642,0.2448 -0.500097,0.55869 -0.647533,0.89658 -0.135435,0.31038 -0.151292,0.66098 -0.19924,0.99621 -0.05427,0.37946 -0.083,0.76267 -0.09962,1.14563 -0.01728,0.39811 -0.03287,0.79832 0,1.19545 0.04165,0.50325 0.133782,1.00267 0.24905,1.49431 0.09112,0.38863 0.230458,0.76436 0.348673,1.14563 0.09797,0.31598 0.09553,0.68544 0.29886,0.9464 0.563586,0.72331 1.169487,1.12599 2.341081,1.44449 1.171594,0.3185 3.550527,-0.59475 4.532734,-0.0996 0.982207,0.49515 1.363618,2.5083 1.842978,3.18786 0.47936,0.67956 0.521188,0.70649 0.846776,0.9962 0.402508,0.35815 0.871654,0.63901 1.344877,0.89659 0.476803,0.25952 0.987273,0.45359 1.494305,0.64753 0.490397,0.18758 0.979127,0.3968 1.494309,0.4981 0.489829,0.0963 0.995139,0.0934 1.494308,0.0996 0.398797,0.005 0.799623,-9.4e-4 1.195446,-0.0498 0.487992,-0.0602 0.962669,-0.20084 1.444495,-0.29887 0.414808,-0.0844 0.824011,-0.20734 1.245257,-0.24905 0.346975,-0.0344 0.712376,-0.0671 1.054822,-0.0484 0.314994,0.0172 0.625169,0.005 0.937582,0.0484 0.35912,0.0503 0.71592,0.14876 1.04602,0.29886 0.12615,0.0574 0.27285,0.11027 0.34883,0.22616 0.0196,0.0299 0.0219,0.0702 0.0176,0.10567 -0.005,0.0444 -0.0528,0.12327 -0.0528,0.12327 0,0 0.32032,0.0153 0.47548,-0.0176 0.2474,-0.0524 0.50369,-0.12794 0.70442,-0.28177 0.13978,-0.10712 0.26892,-0.25323 0.31699,-0.42265 0.0531,-0.18713 -0.0176,-0.51071 -0.0528,-0.58115 -0.0352,-0.0704 -0.28343,-0.47404 -0.45787,-0.68682 -0.13684,-0.16692 -0.30084,-0.30979 -0.45788,-0.45787 -0.15429,-0.14548 -0.47548,-0.42265 -0.47548,-0.42265 0,0 0.1139,-0.62292 0.1761,-0.93336 0.0778,-0.38834 0.18255,-0.77145 0.24655,-1.1623 0.14803,-0.90395 0.2491,-1.81616 0.31699,-2.72964 0.0266,-0.35729 0.0373,-0.71598 0.0352,-1.07425 -0.002,-0.26442 0.0149,-0.53284 -0.0352,-0.79248 -0.0471,-0.24427 -0.12082,-0.48975 -0.24655,-0.70442 -0.13452,-0.22968 -0.31936,-0.43387 -0.52831,-0.59876 -0.33396,-0.26354 -0.73443,-0.43503 -1.12708,-0.59876 -0.601497,-0.25082 -1.236806,-0.41407 -1.866723,-0.58115 -0.63328,-0.16797 -1.272621,-0.31903 -1.919552,-0.42265 -0.920501,-0.14744 -1.851754,-0.22863 -2.782472,-0.28177 -0.445448,-0.0254 -0.892649,-0.0369 -1.338406,-0.0176 -0.294696,0.0128 -0.880528,0.088 -0.880528,0.088 0,0 -0.03236,-0.22717 -0.07044,-0.3346 -0.08597,-0.2425 -0.214892,-0.46924 -0.352214,-0.68681 -0.216821,-0.34353 -0.450409,-0.68334 -0.739642,-0.96859 -0.322661,-0.31822 -0.701774,-0.5794 -1.091856,-0.81008 -0.266797,-0.15777 -0.552828,-0.28483 -0.84531,-0.38743 -0.205551,-0.0721 -0.633979,-0.1585 -0.633979,-0.1585 0,0 -0.03768,-0.31864 -0.07044,-0.47548 -0.07338,-0.35127 -0.130121,-0.7138 -0.281771,-1.03903 -0.208514,-0.44719 -0.476336,-0.88754 -0.845307,-1.21513 -0.308313,-0.27373 -0.706426,-0.43476 -1.091856,-0.58115 -0.327427,-0.12436 -0.67333,-0.20765 -1.021413,-0.24655 -0.408413,-0.0456 -0.82822,-0.0548 -1.232741,0.0176 -0.398409,0.0713 -0.793241,0.20429 -1.144688,0.40505 -0.412462,0.23561 -0.766311,0.56983 -1.091856,0.91575 -0.385416,0.40954 -0.738379,0.86021 -1.003803,1.35601 -0.12429,0.23217 -0.267788,0.74326 -0.267788,0.74326 z"
         id="path55"
         sodipodi:nodetypes="csssssssszzzssssssssssssscsssssscsssssssssssscssssscsssssssssc" />
      <path
         style="fill:url(#linearGradient91);fill-rule:evenodd;stroke:none;stroke-width:0.065;stroke-linecap:butt;stroke-linejoin:miter;stroke-dasharray:none;stroke-opacity:1"
         d="m 90.380692,152.76803 c -0.06726,0.0295 -0.108086,0.10119 -0.149432,0.16188 -0.08048,0.11814 -0.137479,0.25185 -0.186787,0.38603 -0.03994,0.10867 -0.06381,0.22282 -0.08717,0.33622 -0.02203,0.10694 -0.04408,0.21472 -0.04981,0.32376 -0.0046,0.0872 2.24e-4,0.1751 0.01246,0.26151 0.01256,0.0887 0.02817,0.17863 0.06226,0.2615 0.04252,0.10336 0.09981,0.20311 0.174334,0.28641 0.07695,0.086 0.169933,0.16172 0.273958,0.21169 0.127045,0.061 0.272616,0.0725 0.410935,0.0996 0.164763,0.0323 0.330542,0.0642 0.498102,0.0747 0.178184,0.0112 0.358951,0.0143 0.535461,-0.0125 0.119501,-0.0182 0.233949,-0.0615 0.34867,-0.0996 0.122192,-0.0406 0.361125,-0.13698 0.361125,-0.13698 l -1.979956,-2.1543 c 0,0 -0.155711,-0.0299 -0.22415,8e-5 z"
         id="path59"
         sodipodi:nodetypes="sssssssssssssccs" />
      <path
         style="fill:url(#linearGradient89);fill-rule:evenodd;stroke:none;stroke-width:0.065;stroke-linecap:butt;stroke-linejoin:miter;stroke-dasharray:none;stroke-opacity:1"
         d="m 94.900971,153.02953 c 0,0 -0.2231,-0.36228 -0.361124,-0.52301 -0.130086,-0.15148 -0.288488,-0.27619 -0.435841,-0.41093 -0.216992,-0.19842 -0.418134,-0.41804 -0.659984,-0.58527 -0.219914,-0.15206 -0.458142,-0.28327 -0.709795,-0.37358 -0.211478,-0.0759 -0.435444,-0.12903 -0.659988,-0.13698 -0.217656,-0.008 -0.438976,0.0245 -0.647533,0.0872 -0.136887,0.0412 -0.266577,0.10827 -0.38603,0.18679 -0.100828,0.0663 -0.194558,0.14574 -0.273954,0.2366 -0.075,0.0858 -0.138918,0.18296 -0.186788,0.2864 -0.0673,0.14541 -0.10604,0.30354 -0.13698,0.46075 -0.03222,0.16372 -0.05527,0.33133 -0.04981,0.4981 0.0083,0.25235 0.05752,0.50373 0.124526,0.74716 0.04848,0.17613 0.113972,0.34899 0.199242,0.51055 0.09619,0.18226 0.203925,0.36386 0.348671,0.51055 0.131841,0.13361 0.291348,0.2429 0.460745,0.32377 0.109081,0.0521 0.228578,0.0859 0.348673,0.0996 0.161052,0.0184 0.323799,-0.016 0.485648,-0.0249 0.07058,-0.004 0.211693,-0.0125 0.211693,-0.0125 z"
         id="path57"
         sodipodi:nodetypes="cssssssssssssssssscc" />
      <path
         style="fill:url(#linearGradient87);fill-rule:evenodd;stroke:none;stroke-width:0.065;stroke-linecap:butt;stroke-linejoin:miter;stroke-dasharray:none;stroke-opacity:1"
         d="m 93.655715,153.10424 c 0,0 -0.14004,-0.22299 -0.224145,-0.32376 -0.120363,-0.14422 -0.24377,-0.29194 -0.398483,-0.39848 -0.14232,-0.098 -0.306967,-0.16451 -0.473197,-0.2117 -0.120852,-0.0343 -0.248449,-0.061 -0.373576,-0.0498 -0.121595,0.0109 -0.244482,0.0485 -0.348673,0.11207 -0.07014,0.0428 -0.124452,0.10903 -0.174336,0.17434 -0.04063,0.0532 -0.07184,0.11344 -0.09962,0.17434 -0.0365,0.08 -0.06739,0.16335 -0.08717,0.24905 -0.01598,0.0692 -0.02578,0.14065 -0.0249,0.21169 0.0011,0.088 0.01359,0.17672 0.03736,0.2615 0.02561,0.0913 0.07352,0.17486 0.112072,0.26151 0.02416,0.0543 0.04389,0.11106 0.07471,0.16188 0.05984,0.0987 0.122566,0.20065 0.211694,0.27396 0.05018,0.0413 0.111515,0.0706 0.174336,0.0872 0.07636,0.0202 0.15765,0.0104 0.236598,0.0125 0.05809,0.002 0.174337,0 0.174337,0 z"
         id="path58"
         sodipodi:nodetypes="cssssssssssssssscc" />
      <path
         style="fill:#8cb059;fill-opacity:1;fill-rule:evenodd;stroke:none;stroke-width:0.065;stroke-linecap:butt;stroke-linejoin:miter;stroke-dasharray:none;stroke-opacity:1"
         d="m 101.51328,160.02787 c 0,0 -1.721101,-0.34287 -2.590132,-0.29886 -0.869031,0.044 -1.751679,0.43508 -2.552774,0.56036 -0.801095,0.12528 -2.241462,0.2117 -2.241462,0.2117 0,0 0.892243,-0.10089 1.332425,-0.18679 0.835926,-0.16313 1.640578,-0.46769 2.478059,-0.62263 0.546765,-0.10116 1.100167,-0.20399 1.656191,-0.19924 0.578203,0.005 1.228493,-0.0704 1.718453,0.2366 0.10145,0.0636 0.19924,0.29886 0.19924,0.29886 z"
         id="path60"
         sodipodi:nodetypes="czzcssssc" />
      <path
         style="fill:#81b637;fill-opacity:1;fill-rule:evenodd;stroke:none;stroke-width:0.065;stroke-linecap:butt;stroke-linejoin:miter;stroke-dasharray:none;stroke-opacity:1"
         d="m 79.529386,153.03595 c 0,0 0.791082,0.86748 1.356013,1.1623 0.564931,0.29482 1.972387,0.51071 1.972387,0.51071 0,0 -1.542583,-0.11197 -2.113269,-0.42266 -0.570686,-0.31069 -1.215131,-1.25035 -1.215131,-1.25035 z"
         id="path65"
         sodipodi:nodetypes="czczc" />
      <ellipse
         style="fill:url(#linearGradient138);fill-opacity:1;fill-rule:evenodd;stroke:none;stroke-width:0.1;stroke-dasharray:none;stroke-opacity:1"
         id="path136"
         cx="83.285629"
         cy="149.65492"
         rx="3.9492254"
         ry="4.5280013" />
      <ellipse
         style="fill:url(#linearGradient139);fill-opacity:1;fill-rule:evenodd;stroke:none;stroke-width:0.0950972;stroke-dasharray:none;stroke-opacity:1"
         id="ellipse138"
         cx="83.354958"
         cy="149.56766"
         rx="3.7972159"
         ry="4.2588181" />
      <ellipse
         style="fill:#ffffff;fill-opacity:1;fill-rule:evenodd;stroke:none;stroke-width:0.0748797;stroke-dasharray:none;stroke-opacity:1"
         id="path67"
         cx="83.535789"
         cy="149.39935"
         rx="3.8077512"
         ry="4.1599622" />
      <ellipse
         style="fill:url(#radialGradient79);fill-opacity:1;fill-rule:evenodd;stroke:none;stroke-width:0.0761586;stroke-dasharray:none;stroke-opacity:1"
         id="path68"
         cx="85.041504"
         cy="149.92769"
         rx="2.0548587"
         ry="2.2397697" />
      <ellipse
         style="fill:#b0f05b;fill-opacity:1;fill-rule:evenodd;stroke:none;stroke-width:0.07568;stroke-dasharray:none;stroke-opacity:1"
         id="path69"
         cx="85.340881"
         cy="149.99812"
         rx="1.0865161"
         ry="1.1657636" />
      <ellipse
         style="fill:#ffffff;fill-opacity:1;fill-rule:evenodd;stroke:none;stroke-width:0.0649999;stroke-dasharray:none;stroke-opacity:1"
         id="path70"
         cx="84.451546"
         cy="149.38176"
         rx="0.48429099"
         ry="0.30818516" />
      <ellipse
         style="fill:#ffffff;fill-opacity:1;fill-rule:evenodd;stroke:none;stroke-width:0.0649999;stroke-dasharray:none;stroke-opacity:1"
         id="path71"
         cx="84.19619"
         cy="150.09499"
         rx="0.24654813"
         ry="0.15849523" />
      <path
         style="fill:url(#linearGradient95);fill-rule:evenodd;stroke:none;stroke-width:0.065;stroke-linecap:butt;stroke-linejoin:miter;stroke-dasharray:none;stroke-opacity:1"
         d="m 94.62172,152.59765 c 0,0 -0.140389,-0.17342 -0.214974,-0.25632 -0.108859,-0.12099 -0.219643,-0.24075 -0.338998,-0.3514 -0.175841,-0.16302 -0.35675,-0.3225 -0.553971,-0.45888 -0.148741,-0.10285 -0.307934,-0.19115 -0.471289,-0.26872 -0.134773,-0.064 -0.275003,-0.11717 -0.417544,-0.16123 -0.114966,-0.0355 -0.232268,-0.0657 -0.351401,-0.0827 -0.07923,-0.0113 -0.159746,-0.0122 -0.239779,-0.0124 -0.08829,-2.1e-4 -0.176647,0.004 -0.264583,0.0124 -0.08308,0.007 -0.166114,0.0174 -0.248047,0.0331 -0.05023,0.01 -0.100105,0.0217 -0.148828,0.0372 -0.05778,0.0184 -0.169498,0.0661 -0.169498,0.0661 z"
         id="path93"
         sodipodi:nodetypes="csssssssssscc" />
      <path
         style="fill:url(#linearGradient97);fill-rule:evenodd;stroke:none;stroke-width:0.065;stroke-linecap:butt;stroke-linejoin:miter;stroke-dasharray:none;stroke-opacity:1"
         d="m 97.705162,151.04533 c 0,0 1.2957,0.30967 1.926497,0.5209 0.2873,0.0962 0.567081,0.21464 0.843361,0.33899 0.17983,0.0809 0.3566,0.16914 0.52917,0.26459 0.12987,0.0718 0.25922,0.14573 0.38034,0.23151 0.0959,0.0679 0.19126,0.13867 0.27285,0.22324 0.0601,0.0623 0.11196,0.13286 0.15709,0.2067 0.0399,0.0652 0.0692,0.13641 0.0992,0.20671 0.0277,0.065 0.0744,0.19844 0.0744,0.19844 0,0 -0.57966,-0.34455 -0.87643,-0.50436 -0.51873,-0.27933 -1.05216,-0.53048 -1.579232,-0.79375 -0.382621,-0.19112 -0.764603,-0.38357 -1.149284,-0.57051 -0.225085,-0.10938 -0.677992,-0.32246 -0.677992,-0.32246 z"
         id="path95"
         sodipodi:nodetypes="cssssssscsssc" />
      <path
         style="fill:#5fa300;fill-opacity:1;fill-rule:evenodd;stroke:none;stroke-width:0.065;stroke-linecap:butt;stroke-linejoin:miter;stroke-dasharray:none;stroke-opacity:1"
         d="m 90.721761,151.55078 c 0,0 -0.144253,0.28574 -0.190169,0.43821 -0.05004,0.16617 -0.08149,0.33934 -0.09095,0.51263 -0.009,0.16549 0.0084,0.33221 0.03307,0.4961 0.03031,0.20163 0.07713,0.40153 0.14056,0.59531 0.05494,0.16784 0.118625,0.33476 0.206706,0.48783 0.08247,0.14333 0.188457,0.27269 0.297656,0.39687 0.09396,0.10684 0.200207,0.20244 0.305925,0.29766 0.09596,0.0864 0.297656,0.24804 0.297656,0.24804 0,0 -0.229627,-0.0442 -0.330729,-0.0992 -0.149415,-0.0813 -0.271466,-0.20739 -0.388607,-0.33072 -0.112371,-0.11831 -0.215019,-0.24791 -0.297656,-0.38861 -0.101904,-0.1735 -0.179751,-0.36192 -0.239779,-0.55397 -0.0545,-0.17438 -0.08635,-0.35597 -0.107487,-0.53744 -0.0185,-0.15887 -0.0216,-0.31968 -0.01654,-0.47955 0.0045,-0.14116 0.0076,-0.28453 0.04134,-0.42168 0.03334,-0.13568 0.09182,-0.26507 0.157096,-0.38861 0.05107,-0.0967 0.181908,-0.27287 0.181908,-0.27287 z"
         id="path106"
         sodipodi:nodetypes="cssssssscssssssssc" />
      <path
         style="fill:url(#linearGradient134);fill-rule:evenodd;stroke:none;stroke-width:0.065;stroke-linecap:butt;stroke-linejoin:miter;stroke-dasharray:none;stroke-opacity:1"
         d="m 88.350093,147.05006 -0.413389,-0.0931 c 0,0 0.0068,0.15199 0.0058,0.22801 -9.81e-4,0.0761 -0.0088,0.15196 -0.01169,0.22801 -0.0031,0.0818 -0.0037,0.16371 -0.0058,0.24556 -0.0018,0.0682 -0.0014,0.13653 -0.0058,0.20463 -0.0025,0.0391 -0.0081,0.0779 -0.0117,0.11693 -0.0042,0.0448 -0.008,0.0896 -0.01169,0.13447 -0.0042,0.0506 -0.0117,0.15201 -0.0117,0.15201 0,0 0.0405,-0.0536 0.05846,-0.0819 0.02991,-0.0472 0.05747,-0.0959 0.08185,-0.14617 0.03776,-0.0778 0.06694,-0.15952 0.09939,-0.2397 0.02987,-0.0738 0.06025,-0.14743 0.0877,-0.22217 0.03336,-0.0908 0.06866,-0.18128 0.09354,-0.27479 0.01837,-0.069 0.03883,-0.18768 0.03883,-0.18768 z"
         id="path132"
         sodipodi:nodetypes="ccsssssscssssscc" />
    </g>
  </g>
</svg>
