<?xml version="1.0" encoding="UTF-8" standalone="no"?>
<!-- Generator: Adobe Illustrator 16.0.0, SVG Export Plug-In . SVG Version: 6.00 Build 0)  -->

<svg
   version="1.1"
   x="0px"
   y="0px"
   width="86.118591"
   height="68.185822"
   viewBox="0 0 86.118591 68.18582"
   enable-background="new 0 0 1190.552 841.89"
   xml:space="preserve"
   id="svg4425"
   sodipodi:docname="dinosaure.svg"
   inkscape:version="1.3 (0e150ed6c4, 2023-07-21)"
   xmlns:inkscape="http://www.inkscape.org/namespaces/inkscape"
   xmlns:sodipodi="http://sodipodi.sourceforge.net/DTD/sodipodi-0.dtd"
   xmlns:xlink="http://www.w3.org/1999/xlink"
   xmlns="http://www.w3.org/2000/svg"
   xmlns:svg="http://www.w3.org/2000/svg"><defs
   id="defs4425"><linearGradient
     id="linearGradient6423"
     inkscape:collect="always"><stop
       style="stop-color:#5fa300;stop-opacity:1;"
       offset="0.17931035"
       id="stop6423" /><stop
       style="stop-color:#9ccf74;stop-opacity:1;"
       offset="1"
       id="stop6424" /></linearGradient><linearGradient
     inkscape:collect="always"
     xlink:href="#linearGradient6423"
     id="linearGradient6424"
     x1="218.01199"
     y1="-270.32278"
     x2="304.13062"
     y2="-270.32278"
     gradientUnits="userSpaceOnUse"
     gradientTransform="translate(-218.01199,304.41569)" /></defs><sodipodi:namedview
   id="namedview4425"
   pagecolor="#505050"
   bordercolor="#eeeeee"
   borderopacity="1"
   inkscape:showpageshadow="0"
   inkscape:pageopacity="0"
   inkscape:pagecheckerboard="0"
   inkscape:deskcolor="#d1d1d1"
   inkscape:zoom="1.4245493"
   inkscape:cx="229.89728"
   inkscape:cy="110.91227"
   inkscape:window-width="1280"
   inkscape:window-height="961"
   inkscape:window-x="-8"
   inkscape:window-y="-8"
   inkscape:window-maximized="1"
   inkscape:current-layer="svg4425"
   inkscape:export-bgcolor="#ffffff00" />&#10;&#10;&#10;&#10;<path
   fill="#8b9c73"
   d="m 85.991726,31.149885 c 1.34728,-2.31374 -8.20873,-4.63558 -20.42187,-1.35146 -12.21215,3.28428 -25.23675,-4.0773 -30.15874,-8.57288 -4.92117,-4.49442 -4.17059,-12.7453298 -9.52095,-14.5832098 -5.35036,-1.83787 -8.58938,1.33818 -14.3438,0.79746 C 5.7919362,6.8990852 0.32712623,0.95437523 0.32712623,0.95437523 c 0,0 -0.12717,-0.34773 -0.32696999586,-0.954360001689 C -3.7658563e-6,9.9522831e-4 -3.7658563e-6,9.9522831e-4 -3.7658563e-6,9.9522831e-4 1.6245462,5.9087252 4.1221262,15.466425 7.0822062,19.741265 c 2.9609098,4.27598 2.11136,19.47201 8.6742398,28.56414 6.56386,9.09228 34.00152,21.84872 42.83129,19.62454 8.82879,-2.22434 25.53836,-11.64587 26.19682,-17.52714 0.65747,-5.88143 -0.56191,-17.03063 -0.56191,-17.03063 1.27132,-1.25429 1.76908,-2.22229 1.76908,-2.22229 z"
   id="path6421"
   style="fill:url(#linearGradient6424);stroke:none;stroke-opacity:1" /></svg>
