<?xml version="1.0" encoding="UTF-8" standalone="no"?>
<!-- Generator: Adobe Illustrator 16.0.0, SVG Export Plug-In . SVG Version: 6.00 Build 0)  -->

<svg
   version="1.1"
   x="0px"
   y="0px"
   width="27.193848"
   height="74.226166"
   viewBox="0 0 27.193848 74.226164"
   enable-background="new 0 0 1190.552 841.89"
   xml:space="preserve"
   id="svg4425"
   sodipodi:docname="dinosaure.svg"
   inkscape:version="1.3 (0e150ed6c4, 2023-07-21)"
   xmlns:inkscape="http://www.inkscape.org/namespaces/inkscape"
   xmlns:sodipodi="http://sodipodi.sourceforge.net/DTD/sodipodi-0.dtd"
   xmlns:xlink="http://www.w3.org/1999/xlink"
   xmlns="http://www.w3.org/2000/svg"
   xmlns:svg="http://www.w3.org/2000/svg"><defs
   id="defs4425"><linearGradient
     id="linearGradient3703"
     inkscape:collect="always"><stop
       style="stop-color:#758163;stop-opacity:1;"
       offset="0"
       id="stop3703" /><stop
       style="stop-color:#86a559;stop-opacity:1;"
       offset="0.5"
       id="stop3702" /><stop
       style="stop-color:#5fa300;stop-opacity:1;"
       offset="1"
       id="stop3701" /></linearGradient><linearGradient
     id="linearGradient1884"
     inkscape:collect="always"><stop
       style="stop-color:#a3ca6c;stop-opacity:1"
       offset="0"
       id="stop1902" /><stop
       style="stop-color:#cee3b2;stop-opacity:1;"
       offset="0.99741602"
       id="stop1903" /></linearGradient><linearGradient
     id="linearGradient4"
     inkscape:collect="always"><stop
       style="stop-color:#5fa300;stop-opacity:1;"
       offset="0"
       id="stop1876" /><stop
       style="stop-color:#86a559;stop-opacity:1;"
       offset="0.5"
       id="stop1878" /><stop
       style="stop-color:#758163;stop-opacity:1;"
       offset="1"
       id="stop1877" /></linearGradient><linearGradient
     inkscape:collect="always"
     xlink:href="#linearGradient4"
     id="linearGradient1877"
     x1="356.75189"
     y1="-199.34155"
     x2="402.95279"
     y2="-199.34155"
     gradientUnits="userSpaceOnUse" /><linearGradient
     inkscape:collect="always"
     xlink:href="#linearGradient1884"
     id="linearGradient1903"
     x1="388.30719"
     y1="-163.90359"
     x2="388.48901"
     y2="-157.98068"
     gradientUnits="userSpaceOnUse"
     gradientTransform="translate(11.912934,-6.7630723)" /><linearGradient
     inkscape:collect="always"
     xlink:href="#linearGradient1884"
     id="linearGradient1907"
     gradientUnits="userSpaceOnUse"
     gradientTransform="matrix(0.66024849,0.22551699,-0.22551699,0.66024849,102.76457,-151.83492)"
     x1="388.30719"
     y1="-163.90359"
     x2="388.48901"
     y2="-157.98068" /><linearGradient
     inkscape:collect="always"
     xlink:href="#linearGradient3703"
     id="linearGradient3701"
     x1="376.52261"
     y1="-165.40318"
     x2="380.42734"
     y2="-165.40318"
     gradientUnits="userSpaceOnUse"
     gradientTransform="rotate(6.9221824,458.11897,-16.234739)" /></defs><sodipodi:namedview
   id="namedview4425"
   pagecolor="#505050"
   bordercolor="#eeeeee"
   borderopacity="1"
   inkscape:showpageshadow="0"
   inkscape:pageopacity="0"
   inkscape:pagecheckerboard="0"
   inkscape:deskcolor="#d1d1d1"
   inkscape:zoom="2.0146169"
   inkscape:cx="194.82612"
   inkscape:cy="-213.44008"
   inkscape:window-width="1280"
   inkscape:window-height="961"
   inkscape:window-x="-8"
   inkscape:window-y="-8"
   inkscape:window-maximized="1"
   inkscape:current-layer="svg4425"
   inkscape:export-bgcolor="#ffffff00" />&#10;<g
   id="g3703"
   inkscape:export-filename="..\..\Binary\Data\Sprites\Dino\LeftLeg.svg"
   inkscape:export-xdpi="96"
   inkscape:export-ydpi="96"
   transform="rotate(34.331177,-178.7816,-663.45732)"
   inkscape:transform-center-x="6.465621"
   inkscape:transform-center-y="37.721821"><path
     style="fill:url(#linearGradient1903);fill-rule:evenodd;stroke:none;stroke-width:1px;stroke-linecap:butt;stroke-linejoin:miter;stroke-opacity:1"
     d="m 398.83356,-165.10263 0.30711,-4.34348 2.14981,-0.6581 c 0,0 0.26462,0.13239 0.39486,0.57035 0.071,0.23871 0.0484,0.49684 0.0439,0.74585 -0.006,0.30846 -0.022,0.61994 -0.0878,0.92135 -0.0759,0.34794 -0.1943,0.68928 -0.35098,1.00909 -0.15348,0.31327 -0.33366,0.62121 -0.57036,0.87747 -0.16275,0.1762 -0.36709,0.3114 -0.57036,0.43874 -0.22169,0.13889 -0.45226,0.27298 -0.70197,0.35098 -0.19741,0.0617 -0.61421,0.0877 -0.61421,0.0877 z"
     id="path1884"
     sodipodi:nodetypes="cccssssssscc" /><path
     style="fill:url(#linearGradient1907);fill-rule:evenodd;stroke:none;stroke-width:0.697701px;stroke-linecap:butt;stroke-linejoin:miter;stroke-opacity:1"
     d="m 393.93659,-169.12121 1.1823,-2.79852 1.56782,0.0503 c 0,0 0.14485,0.14712 0.13209,0.46562 -0.007,0.17361 -0.0801,0.33895 -0.13925,0.50233 -0.0734,0.20237 -0.15438,0.40434 -0.26579,0.5885 -0.12862,0.2126 -0.28373,0.41129 -0.4593,0.58711 -0.17198,0.17223 -0.36039,0.33491 -0.57446,0.45072 -0.14719,0.0796 -0.3126,0.12281 -0.47553,0.16105 -0.17768,0.0417 -0.36016,0.0782 -0.54263,0.0734 -0.14423,-0.004 -0.42531,-0.0806 -0.42531,-0.0806 z"
     id="path1907"
     sodipodi:nodetypes="cccssssssscc" /><path
     style="fill:url(#linearGradient3701);fill-rule:evenodd;stroke:none;stroke-width:1px;stroke-linecap:butt;stroke-linejoin:miter;stroke-opacity:1"
     d="m 396.75343,-176.15844 -1.41796,2.53975 -0.33178,0.86245 -0.15156,0.60976 0.12662,0.41313 0.90531,0.55187 0.84992,0.27996 0.57023,-0.32852 0.40823,-0.67867 c 0,0 0.34134,-0.89841 0.36777,-1.11618 0.0264,-0.21776 0.82297,-1.54668 0.82297,-1.54668 l 0.36986,-1.59034 -0.15432,-0.54908 z"
     id="path1909"
     sodipodi:nodetypes="cccccccccscccc" /><path
     style="fill:url(#linearGradient1877);fill-rule:evenodd;stroke:none;stroke-width:1px;stroke-linecap:butt;stroke-linejoin:miter;stroke-opacity:1"
     d="m 362.59995,-229.69627 c 0.91821,-0.26243 1.92276,0.0372 2.85414,0.24819 0.68937,0.15615 1.44393,0.29033 1.98549,0.74456 0.80986,0.67927 1.09551,1.80848 1.61321,2.73004 0.34441,0.61308 0.73678,1.20645 0.99275,1.8614 0.3579,0.91577 0.54196,1.89202 0.74456,2.85414 0.26765,1.27099 0.55717,2.54956 0.62046,3.84689 0.0969,1.987 -0.0902,3.98719 -0.37228,5.95646 -0.18637,1.3013 -0.51558,2.58061 -0.86865,3.84689 -0.5621,2.01599 -1.14684,4.03896 -1.98549,5.95647 -0.37834,0.86504 -0.88382,1.66953 -1.36502,2.48186 -0.27487,0.46402 -1.12818,0.89225 -0.86865,1.36502 0.47772,0.87024 2.0034,-0.18773 2.97823,0 1.09367,0.21062 2.11662,0.72242 3.10233,1.24093 0.92395,0.48603 1.79859,1.07542 2.60595,1.7373 0.99526,0.81592 1.80635,1.83392 2.73005,2.73005 0.69309,0.6724 1.41649,1.31309 2.10958,1.98549 0.75575,0.7332 1.50303,1.47547 2.23368,2.23368 0.54836,0.56905 1.13813,1.24247 1.79935,1.67525 0.73337,0.48001 1.48033,0.60918 2.29572,0.9307 1.05103,0.41443 2.03791,0.9863 3.10233,1.36503 1.17237,0.41714 2.44974,0.51487 3.59869,0.99274 0.61584,0.25614 1.11429,0.75459 1.73731,0.99274 0.55321,0.21147 1.1609,0.50835 1.7373,0.37228 0.25778,-0.0609 0.37054,-0.4087 0.62047,-0.49637 0.39033,-0.13692 0.84011,-0.10221 1.24093,0 0.50222,0.12806 1.00127,0.37536 1.36502,0.74456 0.62332,0.63266 0.89253,1.54083 1.24093,2.35777 0.30788,0.72192 0.51261,1.4839 0.74456,2.23367 0.267,0.86306 0.56391,1.72079 0.74456,2.60596 0.13338,0.65351 0.14134,1.32712 0.24818,1.98549 0.0676,0.41639 0.33848,0.82887 0.24819,1.24093 -0.12042,0.54958 -0.53876,1.03271 -0.99274,1.36502 -0.52775,0.38631 -1.21001,0.56174 -1.8614,0.62047 -0.29131,0.0263 -0.60704,0.007 -0.86865,-0.1241 -0.36625,-0.18313 -0.72144,-0.48654 -0.86865,-0.86865 -0.29777,-0.77295 -0.006,-1.66387 0.12409,-2.48186 0.0743,-0.46574 0.30968,-0.89757 0.37228,-1.36502 0.0769,-0.57398 0.49262,-1.43286 0,-1.73731 -0.3934,-0.24313 -0.81367,0.44349 -1.24093,0.62047 -0.48339,0.20023 -0.96902,0.55346 -1.48912,0.49637 -0.29031,-0.0318 -0.9259,-0.58319 -0.99274,-0.74456 -0.15829,-0.38216 -0.18499,-0.87096 0,-1.24093 0.18499,-0.36997 1.15728,-0.36505 0.99274,-0.74456 -0.28403,-0.65514 -1.40323,0.26766 -2.10958,0.37228 -1.03029,0.15261 -2.06107,0.34859 -3.10233,0.37228 -1.11961,0.0255 -2.24346,-0.0791 -3.35051,-0.24818 -1.25965,-0.19242 -2.48234,-0.57705 -3.72279,-0.86866 -1.57246,-0.36967 -3.17767,-0.62262 -4.71554,-1.11683 -1.66008,-0.53348 -3.25213,-1.26418 -4.83963,-1.98549 -1.34734,-0.61219 -2.70102,-1.22569 -3.97098,-1.98549 -1.47727,-0.88382 -2.8903,-1.88388 -4.21916,-2.97823 -1.01627,-0.83693 -1.97456,-1.75046 -2.85414,-2.73005 -1.35977,-1.51439 -2.68169,-3.09078 -3.72279,-4.83963 -0.41678,-0.70012 -0.76753,-1.45064 -0.99275,-2.23368 -0.32339,-1.12438 -0.365,-2.31204 -0.49637,-3.4746 -0.11185,-0.98989 -0.21955,-1.98246 -0.24819,-2.97824 -0.0464,-1.61307 0.0518,-3.22751 0.1241,-4.83963 0.14487,-3.22979 0.19339,-6.47455 0.62046,-9.67926 0.30112,-2.25957 0.7843,-4.49669 1.36502,-6.70102 0.44321,-1.68236 0.87782,-3.38702 1.61321,-4.96372 0.16495,-0.35366 0.35649,-0.70535 0.62047,-0.99275 0.27981,-0.30464 0.59502,-0.63089 0.99274,-0.74456 z"
     id="path4"
     sodipodi:nodetypes="sssssssssssssssssssssssssssssssssssssssssssssssssssssssssssssss" /><path
     style="fill:none;fill-rule:evenodd;stroke:#6b9a2a;stroke-width:0.3;stroke-linecap:butt;stroke-linejoin:miter;stroke-dasharray:none;stroke-opacity:1"
     d="m 401.85956,-170.55833 c 0,0 -1.11391,1.06117 -1.77688,1.18458 -0.66297,0.12341 -1.86463,-0.41679 -1.86463,-0.41679"
     id="path1906"
     sodipodi:nodetypes="czc" /></g>&#10;&#10;&#10;</svg>
