<?xml version="1.0" encoding="UTF-8" standalone="no"?>
<!-- Generator: Adobe Illustrator 16.0.0, SVG Export Plug-In . SVG Version: 6.00 Build 0)  -->

<svg
   version="1.1"
   x="0px"
   y="0px"
   width="74.274246"
   height="62.634228"
   viewBox="0 0 74.274246 62.634227"
   enable-background="new 0 0 1190.552 841.89"
   xml:space="preserve"
   id="svg4425"
   sodipodi:docname="dinosaure.svg"
   inkscape:version="1.3 (0e150ed6c4, 2023-07-21)"
   xmlns:inkscape="http://www.inkscape.org/namespaces/inkscape"
   xmlns:sodipodi="http://sodipodi.sourceforge.net/DTD/sodipodi-0.dtd"
   xmlns:xlink="http://www.w3.org/1999/xlink"
   xmlns="http://www.w3.org/2000/svg"
   xmlns:svg="http://www.w3.org/2000/svg"><defs
   id="defs4425"><linearGradient
     id="linearGradient4011"
     inkscape:collect="always"><stop
       style="stop-color:#fafcf7;stop-opacity:1;"
       offset="0.54780361"
       id="stop4011" /><stop
       style="stop-color:#86ad51;stop-opacity:1;"
       offset="1"
       id="stop4008" /></linearGradient><linearGradient
     id="linearGradient3962"
     inkscape:collect="always"><stop
       style="stop-color:#86ad51;stop-opacity:1;"
       offset="0"
       id="stop3963" /><stop
       style="stop-color:#fafcf7;stop-opacity:1;"
       offset="0.45219639"
       id="stop3964" /></linearGradient><linearGradient
     id="linearGradient3951"
     inkscape:collect="always"><stop
       style="stop-color:#5fa300;stop-opacity:1;"
       offset="0"
       id="stop3960" /><stop
       style="stop-color:#83ad49;stop-opacity:1;"
       offset="0.5"
       id="stop3962" /><stop
       style="stop-color:#6b7958;stop-opacity:1;"
       offset="1"
       id="stop3961" /></linearGradient><linearGradient
     inkscape:collect="always"
     xlink:href="#linearGradient3951"
     id="linearGradient3961"
     x1="250.37889"
     y1="-117.16782"
     x2="291.44681"
     y2="-58.903774"
     gradientUnits="userSpaceOnUse" /><linearGradient
     inkscape:collect="always"
     xlink:href="#linearGradient3962"
     id="linearGradient3964"
     x1="308.04712"
     y1="-58.790871"
     x2="316.32684"
     y2="-58.790871"
     gradientUnits="userSpaceOnUse" /><linearGradient
     inkscape:collect="always"
     xlink:href="#linearGradient4011"
     id="linearGradient4008"
     x1="269.78668"
     y1="-58.932121"
     x2="277.60605"
     y2="-58.932121"
     gradientUnits="userSpaceOnUse" /></defs><sodipodi:namedview
   id="namedview4425"
   pagecolor="#505050"
   bordercolor="#eeeeee"
   borderopacity="1"
   inkscape:showpageshadow="0"
   inkscape:pageopacity="0"
   inkscape:pagecheckerboard="0"
   inkscape:deskcolor="#d1d1d1"
   inkscape:zoom="2.8490986"
   inkscape:cx="278.86013"
   inkscape:cy="-73.707523"
   inkscape:window-width="1280"
   inkscape:window-height="961"
   inkscape:window-x="-8"
   inkscape:window-y="-8"
   inkscape:window-maximized="1"
   inkscape:current-layer="svg4425"
   inkscape:export-bgcolor="#ffffff00" />&#10;&#10;&#10;&#10;<g
   id="g4063"
   transform="translate(-241.72874,118.41406)"><path
     style="fill:url(#linearGradient3964);fill-rule:evenodd;stroke:none;stroke-width:0.6;stroke-linecap:butt;stroke-linejoin:miter;stroke-dasharray:none;stroke-opacity:1"
     d="m 308.43088,-55.894872 7.57212,0.115037 c 0,0 -0.0503,-0.667516 -0.12409,-0.992744 -0.12297,-0.542152 -0.30401,-1.07312 -0.5274,-1.582187 -0.2232,-0.508625 -0.47971,-1.009027 -0.8066,-1.458094 -0.26695,-0.366726 -0.56342,-0.726561 -0.9307,-0.992744 -0.41581,-0.301352 -0.91088,-0.483211 -1.39605,-0.651489 -0.34125,-0.118361 -0.69781,-0.193147 -1.05479,-0.248186 -0.40996,-0.06321 -1.24093,-0.09307 -1.24093,-0.09307 z"
     id="path3946"
     sodipodi:nodetypes="ccsssssscc" /><path
     style="fill:url(#linearGradient4008);fill-rule:evenodd;stroke:none;stroke-width:0.7;stroke-linecap:butt;stroke-linejoin:miter;stroke-dasharray:none;stroke-opacity:1"
     d="m 276.6655,-56.059044 -6.48386,-0.09307 c 0,0 0.064,-0.520756 0.12409,-0.775582 0.0871,-0.369265 0.20677,-0.731057 0.34126,-1.085814 0.1887,-0.497772 0.38816,-0.995441 0.65148,-1.458094 0.21288,-0.374031 0.45267,-0.738538 0.74456,-1.054791 0.21912,-0.237403 0.48066,-0.43411 0.74456,-0.620465 0.26511,-0.187212 0.53195,-0.387324 0.83763,-0.496372 0.32509,-0.11597 1.02377,-0.155117 1.02377,-0.155117 l 2.57493,3.846885 z"
     id="path3951"
     sodipodi:nodetypes="ccssssssccc" /><path
     style="fill:url(#linearGradient3961);fill-rule:evenodd;stroke:none;stroke-width:0.6;stroke-linecap:butt;stroke-linejoin:miter;stroke-dasharray:none;stroke-opacity:1"
     d="m 256.1281,-118.38479 c -2.15109,0.17375 -4.29714,0.63707 -6.32875,1.36503 -1.44551,0.51795 -2.85484,1.20427 -4.09507,2.10958 -0.89774,0.6553 -1.75604,1.42328 -2.35777,2.35777 -0.57401,0.89143 -0.84867,1.95245 -1.11684,2.97823 -0.27522,1.05274 -0.53904,2.13913 -0.49637,3.22642 0.0566,1.44368 0.46535,2.87406 0.99274,4.21916 0.64238,1.63838 1.67516,3.097943 2.60596,4.591447 1.16511,1.869475 2.37167,3.720295 3.72279,5.460095 1.4201,1.828632 3.01555,3.515689 4.59144,5.211909 1.93119,2.078653 3.91424,4.110892 5.95647,6.080561 1.8125,1.7481 3.66148,3.461719 5.58419,5.087816 2.04709,1.731292 4.23422,3.290135 6.32875,4.963722 1.79169,1.431606 3.60323,2.840874 5.336,4.343258 0.55292,0.479404 1.26545,0.845217 1.61321,1.489117 0.0598,0.11069 0.009,0.258121 0.062,0.372279 0.14799,0.319606 0.46623,0.528636 0.68252,0.806605 0.10926,0.140414 0.31023,0.434325 0.31023,0.434325 0,0 -0.42069,0.369757 -0.68251,0.434326 -0.2418,0.05963 -0.49987,-0.01568 -0.74456,-0.06205 -0.63646,-0.120623 -1.23152,-0.407174 -1.8614,-0.558419 -0.44968,-0.107977 -0.90293,-0.229651 -1.36502,-0.248186 -0.20769,-0.0083 -0.45811,-0.06773 -0.62047,0.06205 -0.15326,0.122512 -0.16681,0.363165 -0.18614,0.558419 -0.0329,0.331868 0.0666,0.664245 0.1241,0.992745 0.11329,0.647453 0.23331,1.297644 0.43432,1.923442 0.30896,0.961855 0.75629,1.874472 1.17889,2.792094 0.19345,0.420061 0.62046,1.240931 0.62046,1.240931 l 32.45034,0.248186 c 0,0 0.44811,-0.811781 0.62047,-1.240931 0.33889,-0.843798 0.64079,-1.711889 0.8066,-2.605954 0.11339,-0.611417 0.20782,-1.245216 0.12409,-1.861396 -0.059,-0.434256 -0.16205,-0.897524 -0.43432,-1.240931 -0.16753,-0.211305 -0.43104,-0.336948 -0.68251,-0.434326 -0.45025,-0.174356 -0.94479,-0.225159 -1.42707,-0.248186 -1.07742,-0.05144 -2.15421,0.130487 -3.22642,0.248186 -0.72686,0.07979 -1.44396,0.23818 -2.17163,0.310233 -0.74208,0.07348 -1.48815,0.140561 -2.23368,0.124093 -0.83121,-0.01836 -1.65995,-0.122826 -2.48186,-0.248186 -0.70973,-0.108251 -1.43116,-0.199411 -2.10958,-0.434326 -0.52441,-0.181587 -1.02836,-0.435227 -1.48912,-0.744558 -0.36507,-0.245089 -0.72391,-0.520695 -0.99274,-0.868652 -0.42412,-0.548951 -0.52508,-1.298636 -0.9307,-1.861396 -0.46176,-0.640657 -1.08379,-1.151976 -1.67526,-1.675256 -0.62902,-0.5565 -1.26902,-1.112941 -1.98549,-1.551163 -0.54467,-0.333142 -1.12241,-0.634666 -1.7373,-0.806605 -0.36073,-0.100871 -1.11684,-0.124093 -1.11684,-0.124093 0,0 -3.93437,-7.776016 -5.77032,-11.726796 -1.4558,-3.132743 -2.8346,-6.301822 -4.15712,-9.493119 -0.9778,-2.359477 -1.87282,-4.752463 -2.7921,-7.135352 -0.56546,-1.465738 -1.1431,-2.927148 -1.67525,-4.405308 -0.36997,-1.02768 -0.63379,-2.09447 -1.05479,-3.10232 -0.57042,-1.36554 -1.18789,-2.72441 -1.98549,-3.97098 -0.85649,-1.33861 -1.81729,-2.6376 -2.97824,-3.72279 -1.08555,-1.01471 -2.32826,-1.88622 -3.66074,-2.54391 -0.97362,-0.48057 -2.0342,-0.79786 -3.10233,-0.99275 -0.79453,-0.14497 -1.61474,-0.18911 -2.41977,-0.12409 z"
     id="path3945"
     sodipodi:nodetypes="ssssssssssssssssscsssssssssccssssssssssssssssscssssssssss" /><path
     style="fill:#8db754;fill-opacity:1;fill-rule:evenodd;stroke:none;stroke-width:1px;stroke-linecap:butt;stroke-linejoin:miter;stroke-opacity:1"
     d="m 309.38514,-62.059101 c 0,0 0.28964,1.010394 0.0329,2.566601 -0.24708,1.497632 -1.22846,2.939526 -1.22846,2.939526 0,0 0.78005,-1.967597 1.02006,-2.994368 0.17693,-0.756913 0.1755,-2.511759 0.1755,-2.511759 z"
     id="path4059"
     sodipodi:nodetypes="cscsc" /><path
     style="fill:#8db754;fill-opacity:1;fill-rule:evenodd;stroke:none;stroke-width:0.4;stroke-linecap:butt;stroke-linejoin:miter;stroke-dasharray:none;stroke-opacity:1"
     d="m 276.58651,-67.010926 c 0,0 2.16286,1.073977 3.57569,1.009091 1.41283,-0.06489 4.45317,-1.711068 4.45317,-1.711068 0,0 -1.7545,1.424326 -2.76403,1.908499 -0.46101,0.221099 -1.01961,0.196311 -1.46977,0.438735 -0.26048,0.140278 -0.68004,0.570356 -0.68004,0.570356 0,0 0.32885,0.858334 0.63617,1.184585 0.35343,0.3752 0.86114,0.56958 1.3162,0.81166 0.37559,0.199805 0.8128,0.284408 1.16265,0.526483 0.13606,0.09415 0.35099,0.350988 0.35099,0.350988 0,0 -0.47015,-0.0089 -0.70198,-0.04387 -0.43142,-0.06504 -0.8489,-0.201961 -1.27233,-0.307114 -0.34425,-0.08549 -1.03103,-0.263241 -1.03103,-0.263241 0,0 -0.45629,0.370869 -0.72391,0.482608 -0.23423,0.0978 -0.49228,0.165045 -0.74585,0.153558 -0.32815,-0.01487 -0.63476,-0.172412 -0.94328,-0.285178 -0.38146,-0.139427 -0.73993,-0.336205 -1.11877,-0.482609 -0.25236,-0.09753 -0.50918,-0.183733 -0.76779,-0.263241 -0.15938,-0.049 -0.48261,-0.131621 -0.48261,-0.131621 l -0.10968,0.131621 c 0,0 0.10557,0.276727 0.15355,0.416798 0.10192,0.297541 0.17393,0.60523 0.28518,0.899408 0.1216,0.321529 0.28047,0.627714 0.4168,0.94328 0.14165,0.327891 0.27653,0.65867 0.4168,0.987155 0.13763,0.3223 0.4168,0.965217 0.4168,0.965217 l 0.46067,0.943281 c 0,0 -1.74905,-2.698528 -2.10593,-3.707313 -0.35688,-1.008785 -0.35099,-2.127866 -0.35099,-2.127866 0,0 0.51343,0.01202 0.76779,0.04387 0.26609,0.03332 0.53109,0.08267 0.78972,0.153557 0.31451,0.08621 0.61085,0.229361 0.92135,0.329051 0.20274,0.06509 0.40775,0.123468 0.61423,0.175495 0.23226,0.05852 0.46311,0.17134 0.70197,0.153557 0.16387,-0.0122 0.32274,-0.08617 0.46067,-0.175494 0.1302,-0.08432 0.2697,-0.185742 0.32906,-0.329052 0.0336,-0.08107 0.0377,-0.184011 0,-0.263241 -0.0648,-0.136115 -0.24571,-0.177291 -0.35099,-0.285178 -0.14199,-0.145501 -0.26047,-0.313245 -0.37293,-0.482609 -0.10687,-0.160937 -0.21125,-0.326063 -0.28518,-0.504545 -0.0523,-0.126206 -0.0748,-0.262777 -0.10968,-0.394862 -0.0231,-0.08745 -0.0212,-0.184533 -0.0658,-0.263241 -0.14266,-0.251969 -0.39716,-0.422604 -0.61423,-0.614229 -0.18751,-0.165528 -0.39806,-0.303081 -0.59229,-0.460672 -0.1934,-0.156919 -0.57037,-0.482609 -0.57037,-0.482609 z"
     id="path4063"
     sodipodi:nodetypes="czcsscssscsscsssssccsssscczcsssssssssssssssc" /></g></svg>
