<?xml version="1.0" encoding="UTF-8" standalone="no"?>
<!-- Generator: Adobe Illustrator 16.0.0, SVG Export Plug-In . SVG Version: 6.00 Build 0)  -->

<svg
   version="1.1"
   x="0px"
   y="0px"
   width="50.404861"
   height="87.58847"
   viewBox="0 0 50.404861 87.588469"
   enable-background="new 0 0 1190.552 841.89"
   xml:space="preserve"
   id="svg4425"
   sodipodi:docname="dinosaure.svg"
   inkscape:version="1.3 (0e150ed6c4, 2023-07-21)"
   xmlns:inkscape="http://www.inkscape.org/namespaces/inkscape"
   xmlns:sodipodi="http://sodipodi.sourceforge.net/DTD/sodipodi-0.dtd"
   xmlns:xlink="http://www.w3.org/1999/xlink"
   xmlns="http://www.w3.org/2000/svg"
   xmlns:svg="http://www.w3.org/2000/svg"><defs
   id="defs4425"><linearGradient
     id="linearGradient3862"
     inkscape:collect="always"><stop
       style="stop-color:#515e3f;stop-opacity:1;"
       offset="0.09173127"
       id="stop3938" /><stop
       style="stop-color:#9cab88;stop-opacity:0.186722;"
       offset="1"
       id="stop3894" /></linearGradient><linearGradient
     inkscape:collect="always"
     xlink:href="#linearGradient2-2"
     id="linearGradient5"
     x1="81.932091"
     y1="157.54169"
     x2="85.269196"
     y2="160.00717"
     gradientUnits="userSpaceOnUse" /><linearGradient
     id="linearGradient2-2"
     inkscape:collect="always"><stop
       style="stop-color:#b2b9a4;stop-opacity:1;"
       offset="0"
       id="stop2-5" /><stop
       style="stop-color:#70a22b;stop-opacity:1;"
       offset="1"
       id="stop3-3" /></linearGradient><linearGradient
     inkscape:collect="always"
     xlink:href="#linearGradient2-2"
     id="linearGradient3-4"
     x1="79.021706"
     y1="147.13632"
     x2="92.622688"
     y2="147.13632"
     gradientUnits="userSpaceOnUse" /><radialGradient
     inkscape:collect="always"
     xlink:href="#linearGradient3862"
     id="radialGradient3894"
     cx="-24.024137"
     cy="-173.80841"
     fx="-24.024137"
     fy="-173.80841"
     r="15.355734"
     gradientTransform="matrix(-0.37964642,0.93662462,-1.5936401,-0.64595756,-308.48193,-268.74406)"
     gradientUnits="userSpaceOnUse" /></defs><sodipodi:namedview
   id="namedview4425"
   pagecolor="#505050"
   bordercolor="#eeeeee"
   borderopacity="1"
   inkscape:showpageshadow="0"
   inkscape:pageopacity="0"
   inkscape:pagecheckerboard="0"
   inkscape:deskcolor="#d1d1d1"
   inkscape:zoom="2.0146169"
   inkscape:cx="194.82612"
   inkscape:cy="-213.44008"
   inkscape:window-width="1280"
   inkscape:window-height="961"
   inkscape:window-x="-8"
   inkscape:window-y="-8"
   inkscape:window-maximized="1"
   inkscape:current-layer="svg4425"
   inkscape:export-bgcolor="#ffffff00" />&#10;&#10;&#10;&#10;<g
   id="g3938"
   inkscape:export-filename="..\..\Binary\Data\Sprites\Dino\RightThigh.svg"
   inkscape:export-xdpi="96"
   inkscape:export-ydpi="96"
   transform="translate(37.489118,208.48186)"><g
     id="g5"
     inkscape:export-filename="RightThigh.svg"
     inkscape:export-xdpi="96"
     inkscape:export-ydpi="96"
     transform="matrix(3.7795276,0,0,3.7795276,-336.65384,-725.40654)"><path
       style="fill:url(#linearGradient5);fill-rule:evenodd;stroke:none;stroke-width:0.264583px;stroke-linecap:butt;stroke-linejoin:miter;stroke-opacity:1"
       d="m 82.544837,154.76044 c 0,0 -0.51533,1.57805 -0.672439,2.39089 -0.117261,0.60668 -0.304097,1.23404 -0.199242,1.84298 0.04221,0.24516 0.134585,0.51088 0.323768,0.67243 0.197734,0.16885 0.489891,0.18639 0.747152,0.22415 0.484609,0.0711 0.984745,0.0708 1.469403,0 0.574371,-0.0839 1.139228,-0.26006 1.668642,-0.4981 0.445438,-0.20028 0.898849,-0.42778 1.245257,-0.77206 0.243421,-0.24192 0.547912,-0.87168 0.547912,-0.87168 l 0.249052,-0.79696 z"
       id="path2-1"
       sodipodi:nodetypes="csssssssccc" /><path
       style="fill:none;fill-rule:evenodd;stroke:#5fa300;stroke-width:0.264583px;stroke-linecap:butt;stroke-linejoin:miter;stroke-opacity:1"
       d="m 87.666032,157.45019 c 0,0 -1.349139,0.1543 -2.017312,0.0747 -0.548048,-0.0653 -1.038852,-0.0772 -1.59393,-0.44829 -0.656923,-0.4392 -1.270161,-1.27016 -1.270161,-1.27016"
       id="path5-0"
       sodipodi:nodetypes="cssc" /><path
       style="fill:url(#linearGradient3-4);fill-rule:evenodd;stroke:none;stroke-width:0.264583px;stroke-linecap:butt;stroke-linejoin:miter;stroke-opacity:1"
       d="m 87.974153,157.25095 c 0.830161,-1.51655 1.696882,-4.31509 2.390891,-6.52515 0.684114,-2.17855 1.354247,-4.37472 1.743358,-6.62476 0.232848,-1.34645 0.471029,-2.7235 0.348673,-4.08444 -0.07393,-0.82236 -0.117483,-1.75781 -0.647533,-2.39089 -0.424346,-0.50683 -1.134576,-0.79022 -1.793169,-0.84678 -0.806693,-0.0693 -1.630299,0.25981 -2.341083,0.64754 -1.789867,0.97637 -3.310806,1.6196 -4.893855,2.72711 -1.012331,0.70823 -2.240912,1.51008 -2.976163,2.50296 -0.216707,0.29264 -0.345922,0.64675 -0.448291,0.99621 -0.127401,0.43491 -0.184757,0.89193 -0.199242,1.34488 -0.01917,0.59949 0.03605,1.20418 0.149431,1.79316 0.364379,1.89274 0.959682,3.74661 1.693548,5.52894 0.557046,1.35289 1.103208,2.76321 2.042221,3.8852 0.364498,0.43552 0.821272,0.82607 1.344877,1.04602 0.571533,0.24008 1.223073,0.2514 1.842979,0.24905 0.587015,-0.002 1.57708,0.0547 1.743358,-0.24905 z"
       id="path1-4"
       sodipodi:nodetypes="sssssssssssssssss" /></g><ellipse
     style="opacity:0.382353;fill:url(#radialGradient3894);fill-rule:evenodd;stroke:none;stroke-width:0.293742;stroke-dasharray:none;stroke-opacity:1"
     id="path3862"
     cx="-12.836457"
     cy="-176.91078"
     rx="22.553131"
     ry="18.042505" /></g></svg>
