<?xml version="1.0" encoding="UTF-8" standalone="no"?>
<!-- Generator: Adobe Illustrator 16.0.0, SVG Export Plug-In . SVG Version: 6.00 Build 0)  -->

<svg
   version="1.1"
   x="0px"
   y="0px"
   width="17.808945"
   height="64.803101"
   viewBox="0 0 17.808945 64.803099"
   enable-background="new 0 0 1190.552 841.89"
   xml:space="preserve"
   id="svg4425"
   sodipodi:docname="dinosaure.svg"
   inkscape:version="1.3 (0e150ed6c4, 2023-07-21)"
   xmlns:inkscape="http://www.inkscape.org/namespaces/inkscape"
   xmlns:sodipodi="http://sodipodi.sourceforge.net/DTD/sodipodi-0.dtd"
   xmlns:xlink="http://www.w3.org/1999/xlink"
   xmlns="http://www.w3.org/2000/svg"
   xmlns:svg="http://www.w3.org/2000/svg"><defs
   id="defs4425"><linearGradient
     id="linearGradient2"
     inkscape:collect="always"><stop
       style="stop-color:#87907a;stop-opacity:1;"
       offset="0"
       id="stop2-0" /><stop
       style="stop-color:#b0bd9e;stop-opacity:1;"
       offset="0.49218747"
       id="stop4-2" /><stop
       style="stop-color:#8ab74c;stop-opacity:1;"
       offset="0.75520831"
       id="stop3-2" /></linearGradient><linearGradient
     inkscape:collect="always"
     xlink:href="#linearGradient3715-9"
     id="linearGradient3857-5"
     x1="111.65858"
     y1="-397.98703"
     x2="124.69635"
     y2="-402.69839"
     gradientUnits="userSpaceOnUse"
     gradientTransform="matrix(0.26458333,0,0,0.26458333,92.361973,274.82082)" /><linearGradient
     id="linearGradient3715-9"
     inkscape:collect="always"><stop
       style="stop-color:#99a18f;stop-opacity:1;"
       offset="0"
       id="stop3856-9" /><stop
       style="stop-color:#4a5737;stop-opacity:1;"
       offset="0.37080103"
       id="stop3858-7" /><stop
       style="stop-color:#4a5737;stop-opacity:1;"
       offset="0.66214472"
       id="stop3859-5" /><stop
       style="stop-color:#767e6b;stop-opacity:1;"
       offset="0.77378064"
       id="stop5-7" /><stop
       style="stop-color:#5a910d;stop-opacity:1;"
       offset="0.96354169"
       id="stop3857-3" /></linearGradient><linearGradient
     inkscape:collect="always"
     xlink:href="#linearGradient2"
     id="linearGradient3"
     x1="127.49465"
     y1="174.67155"
     x2="129.63937"
     y2="171.78342"
     gradientUnits="userSpaceOnUse" /></defs><sodipodi:namedview
   id="namedview4425"
   pagecolor="#505050"
   bordercolor="#eeeeee"
   borderopacity="1"
   inkscape:showpageshadow="0"
   inkscape:pageopacity="0"
   inkscape:pagecheckerboard="0"
   inkscape:deskcolor="#d1d1d1"
   inkscape:zoom="2.0146169"
   inkscape:cx="194.82612"
   inkscape:cy="-213.44008"
   inkscape:window-width="1280"
   inkscape:window-height="961"
   inkscape:window-x="-8"
   inkscape:window-y="-8"
   inkscape:window-maximized="1"
   inkscape:current-layer="svg4425"
   inkscape:export-bgcolor="#ffffff00" />&#10;&#10;&#10;&#10;<g
   id="g6"
   transform="matrix(2.7937207,2.5455753,-2.5455753,2.7937207,93.697359,-766.25799)"
   inkscape:transform-center-x="4.7970488"
   inkscape:transform-center-y="31.114265"><path
     style="fill:#cde2b0;fill-opacity:1;fill-rule:evenodd;stroke:none;stroke-width:0.264583px;stroke-linecap:butt;stroke-linejoin:miter;stroke-opacity:1"
     d="m 129.46818,176.53341 c 0,0 -0.005,0.68526 -0.0661,1.02142 -0.0582,0.31806 -0.28617,0.95537 -0.28617,0.95537 0,0 0.13434,0.0291 0.36982,-0.0748 0.62509,-0.27581 1.02582,-1.58495 1.02582,-1.58495 l -0.10566,-0.26416 z"
     id="path5-7"
     sodipodi:nodetypes="cscsccc" /><path
     style="fill:#cde2b0;fill-opacity:1;fill-rule:evenodd;stroke:none;stroke-width:0.264583px;stroke-linecap:butt;stroke-linejoin:miter;stroke-opacity:1"
     d="m 130.757,175.75203 c 0,0 0.36317,0.58114 0.49181,0.89766 0.1214,0.29969 0.27064,0.95988 0.27064,0.95988 0,0 0.129,-0.0474 0.27208,-0.26142 0.37979,-0.56794 0.0162,-1.88788 0.0162,-1.88788 l -0.23081,-0.16634 z"
     id="path6"
     sodipodi:nodetypes="cscsccc" /><path
     style="fill:url(#linearGradient3);fill-rule:evenodd;stroke:none;stroke-width:0.0529167;stroke-linecap:butt;stroke-linejoin:miter;stroke-dasharray:none;stroke-opacity:1"
     d="m 123.79243,170.99971 0.65665,2.03565 c 0,0 0.25499,0.40905 0.42683,0.57457 0.24378,0.23482 0.51826,0.46137 0.83724,0.57458 0.51221,0.18179 1.08217,0.15327 1.62523,0.13133 0.47642,-0.0192 1.41182,-0.22983 1.41182,-0.22983 0,0 -0.10974,0.30337 -0.0985,0.45966 0.0113,0.15715 0.0305,0.35979 0.16417,0.44325 0.13994,0.0874 0.33566,0.002 0.49249,-0.0493 0.1026,-0.0335 0.27908,-0.16417 0.27908,-0.16417 0,0 -0.18215,0.71871 -0.24624,1.08349 -0.0305,0.17381 -0.0706,0.34892 -0.0657,0.52533 0.002,0.0611 -0.004,0.13183 0.0328,0.18058 0.14342,0.18918 0.40686,0.2685 0.64024,0.31191 0.18899,0.0352 0.39731,0.0251 0.57458,-0.0493 0.093,-0.039 0.18356,-0.10733 0.22983,-0.197 0.0832,-0.16113 0.0589,-0.36067 0.0493,-0.54174 -0.004,-0.0836 -0.0493,-0.24625 -0.0493,-0.24625 l -0.0164,-0.21341 c 0,0 0.0487,0.21311 0.11491,0.2955 0.0742,0.0923 0.18148,0.16516 0.2955,0.19699 0.12134,0.0339 0.25916,0.0266 0.37758,-0.0164 0.11008,-0.04 0.2125,-0.11707 0.27908,-0.21341 0.065,-0.094 0.0959,-0.2141 0.0985,-0.32833 0.004,-0.1579 -0.0654,-0.30968 -0.11492,-0.45967 -0.10761,-0.32619 -0.2245,-0.6534 -0.39399,-0.95215 -0.14474,-0.25511 -0.31169,-0.50494 -0.52533,-0.70591 -0.35707,-0.33591 -0.78857,-0.59373 -1.23123,-0.80441 -0.2594,-0.12345 -0.5462,-0.17835 -0.82083,-0.26266 -0.0927,-0.0285 -0.27908,-0.0821 -0.27908,-0.0821 0,0 -0.21515,-0.23351 -0.32833,-0.34475 -0.26515,-0.26061 -0.53191,-0.52116 -0.82082,-0.75516 -0.19823,-0.16054 -0.39576,-0.329 -0.62383,-0.44324 -0.1439,-0.0721 -0.45966,-0.14775 -0.45966,-0.14775 l -1.34615,-0.41041 z"
     id="path3715-8"
     sodipodi:nodetypes="ccssscssscsssssssccsssssssssscsssccc" /><path
     style="fill:url(#linearGradient3857-5);fill-rule:evenodd;stroke:none;stroke-width:0.079375;stroke-linecap:butt;stroke-linejoin:miter;stroke-dasharray:none;stroke-opacity:1"
     d="m 121.45213,163.61423 c -0.0696,0.16251 -0.61043,0.73982 -0.64326,1.47293 -0.0328,0.73311 0.38921,2.7473 1.08437,4.28474 0.69517,1.53744 2.62346,3.66819 2.62346,3.66819 0,0 -0.43384,-0.97915 -0.37147,-1.48585 0.0322,-0.26115 0.17155,-0.52542 0.37147,-0.69649 0.28637,-0.24505 0.69327,-0.33053 1.06795,-0.37146 0.26337,-0.0288 0.78936,0.0929 0.78936,0.0929 0,0 -0.94451,-1.54896 -1.48585,-2.27521 -0.83025,-1.11382 -1.93174,-2.01864 -2.6931,-3.18064 -0.30728,-0.46898 -0.74293,-1.50907 -0.74293,-1.50907 z"
     id="path3706-4"
     sodipodi:nodetypes="czzcssscssc" /></g></svg>
