<?xml version="1.0" encoding="UTF-8" standalone="no"?>
<!-- Generator: Adobe Illustrator 16.0.0, SVG Export Plug-In . SVG Version: 6.00 Build 0)  -->

<svg
   version="1.1"
   x="0px"
   y="0px"
   width="40.11615"
   height="63.86882"
   viewBox="0 0 40.11615 63.868819"
   enable-background="new 0 0 1190.552 841.89"
   xml:space="preserve"
   id="svg4425"
   sodipodi:docname="dinosaure.svg"
   inkscape:version="1.3 (0e150ed6c4, 2023-07-21)"
   xmlns:inkscape="http://www.inkscape.org/namespaces/inkscape"
   xmlns:sodipodi="http://sodipodi.sourceforge.net/DTD/sodipodi-0.dtd"
   xmlns:xlink="http://www.w3.org/1999/xlink"
   xmlns="http://www.w3.org/2000/svg"
   xmlns:svg="http://www.w3.org/2000/svg"><defs
   id="defs4425"><linearGradient
     inkscape:collect="always"
     xlink:href="#linearGradient9"
     id="linearGradient11"
     x1="80.424004"
     y1="151.62003"
     x2="82.851585"
     y2="151.62003"
     gradientUnits="userSpaceOnUse"
     gradientTransform="translate(0.03522116,0.08805291)" /><linearGradient
     id="linearGradient9"
     inkscape:collect="always"><stop
       style="stop-color:#fefefe;stop-opacity:1;"
       offset="0.44010416"
       id="stop10-2" /><stop
       style="stop-color:#9fc866;stop-opacity:1;"
       offset="1"
       id="stop11-8" /></linearGradient><linearGradient
     inkscape:collect="always"
     xlink:href="#linearGradient6"
     id="linearGradient7"
     x1="81.607651"
     y1="144.74458"
     x2="90.43"
     y2="144.74458"
     gradientUnits="userSpaceOnUse" /><linearGradient
     id="linearGradient6"
     inkscape:collect="always"><stop
       style="stop-color:#4c573b;stop-opacity:1;"
       offset="0"
       id="stop6-2" /><stop
       style="stop-color:#7f935f;stop-opacity:1;"
       offset="0.46614584"
       id="stop9-0" /><stop
       style="stop-color:#82aa48;stop-opacity:1;"
       offset="0.78125"
       id="stop8-0" /><stop
       style="stop-color:#5c9709;stop-opacity:1;"
       offset="0.8671875"
       id="stop7-8" /></linearGradient><linearGradient
     inkscape:collect="always"
     xlink:href="#linearGradient9"
     id="linearGradient13"
     x1="74.718704"
     y1="152.6855"
     x2="74.757339"
     y2="151.41754"
     gradientUnits="userSpaceOnUse"
     gradientTransform="translate(11.456357,-0.0996205)" /><linearGradient
     inkscape:collect="always"
     xlink:href="#linearGradient16"
     id="linearGradient15"
     x1="77.576317"
     y1="152.08273"
     x2="79.578659"
     y2="152.08273"
     gradientUnits="userSpaceOnUse"
     gradientTransform="translate(11.643083,-0.35825463)" /><linearGradient
     id="linearGradient16"
     inkscape:collect="always"><stop
       style="stop-color:#9fc866;stop-opacity:1;"
       offset="0"
       id="stop16-9" /><stop
       style="stop-color:#fefefe;stop-opacity:1;"
       offset="0.38281247"
       id="stop15-0" /></linearGradient><linearGradient
     inkscape:collect="always"
     xlink:href="#linearGradient17"
     id="linearGradient18"
     x1="72.862228"
     y1="140.76376"
     x2="74.416512"
     y2="140.76376"
     gradientUnits="userSpaceOnUse"
     gradientTransform="translate(11.755218,-0.14943074)" /><linearGradient
     id="linearGradient17"
     inkscape:collect="always"><stop
       style="stop-color:#cde2b0;stop-opacity:0.55042017;"
       offset="0"
       id="stop17-2" /><stop
       style="stop-color:#cde2b0;stop-opacity:0;"
       offset="1"
       id="stop18-7" /></linearGradient></defs><sodipodi:namedview
   id="namedview4425"
   pagecolor="#505050"
   bordercolor="#eeeeee"
   borderopacity="1"
   inkscape:showpageshadow="0"
   inkscape:pageopacity="0"
   inkscape:pagecheckerboard="0"
   inkscape:deskcolor="#d1d1d1"
   inkscape:zoom="2.0146169"
   inkscape:cx="194.82612"
   inkscape:cy="-213.44008"
   inkscape:window-width="1280"
   inkscape:window-height="961"
   inkscape:window-x="-8"
   inkscape:window-y="-8"
   inkscape:window-maximized="1"
   inkscape:current-layer="svg4425"
   inkscape:export-bgcolor="#ffffff00" />&#10;&#10;&#10;&#10;<g
   id="g18"
   inkscape:export-filename="RightFeet.svg"
   inkscape:export-xdpi="96"
   inkscape:export-ydpi="96"
   transform="matrix(3.7795276,0,0,3.7795276,-304.65893,-515.84582)"
   inkscape:transform-center-x="5.6158113"
   inkscape:transform-center-y="27.026092"><path
     style="fill:url(#linearGradient11);fill-rule:evenodd;stroke:none;stroke-width:0.264583px;stroke-linecap:butt;stroke-linejoin:miter;stroke-opacity:1"
     d="m 80.607673,152.48323 h 2.042218 c 0,0 0.129598,-0.53093 0.09962,-0.79697 -0.02176,-0.19311 -0.05707,-0.41542 -0.199239,-0.54791 -0.176859,-0.16481 -0.456998,-0.22526 -0.697344,-0.19924 -0.243723,0.0264 -0.458388,0.19272 -0.647534,0.34867 -0.182073,0.15012 -0.344323,0.33607 -0.448294,0.54791 -0.0976,0.19886 -0.149427,0.64754 -0.149427,0.64754 z"
     id="path9"
     sodipodi:nodetypes="ccsssssc" /><path
     style="fill:url(#linearGradient7);fill-rule:evenodd;stroke:none;stroke-width:0.264583px;stroke-linecap:butt;stroke-linejoin:miter;stroke-opacity:1"
     d="m 90.142938,137.82395 c 0,0 -1.975737,-0.59988 -2.958579,-0.91575 -0.388803,-0.12496 -0.76077,-0.31288 -1.162298,-0.38743 -0.25421,-0.0472 -0.774864,-0.0352 -0.774864,-0.0352 0,0 -0.460704,0.2211 -0.59876,0.42265 -0.136774,0.19968 -0.176107,0.4931 -0.176107,0.70442 0,0.21133 -0.03339,1.03302 -0.03522,1.54973 -0.0027,0.75147 -0.0052,1.50377 0.03522,2.25416 0.04124,0.76526 0.124313,1.52796 0.211328,2.28938 0.0592,0.51799 0.119475,1.03653 0.211325,1.54973 0.05721,0.31964 0.211328,0.95097 0.211328,0.95097 0,0 -0.357496,0.25376 -0.563538,0.31699 -0.135152,0.0415 -0.288496,-0.009 -0.422654,0.0352 -0.105107,0.0349 -0.228078,0.0792 -0.28177,0.17611 -0.0626,0.11295 0,0.38743 0,0.38743 0,0 0.271317,0.51046 0.387434,0.77486 0.106089,0.24156 0.253449,0.47734 0.281768,0.73965 0.02549,0.23606 -0.01521,0.48489 -0.105664,0.70442 -0.08319,0.20192 -0.248328,0.35997 -0.387432,0.52832 -0.142873,0.17291 -0.283665,0.35181 -0.457875,0.4931 -0.106338,0.0862 -0.35221,0.21132 -0.35221,0.21132 0,0 -0.320281,-0.15169 -0.493099,-0.1761 -0.186363,-0.0263 -0.391984,-0.0422 -0.563539,0.0352 -0.105937,0.0478 -0.181387,0.15031 -0.246546,0.24655 -0.05013,0.074 -0.105664,0.24654 -0.105664,0.24654 0,0 0.297229,-0.03 0.422653,0.0352 0.162702,0.0846 0.289782,0.25021 0.352213,0.42265 0.06794,0.18767 0.03197,0.40175 0,0.59876 -0.02974,0.18324 -0.176106,0.52832 -0.176106,0.52832 0,0 0.537793,0.10227 0.810088,0.10566 0.22428,0.003 0.449291,-0.0263 0.6692,-0.0704 0.120176,-0.0241 0.234808,-0.0704 0.352213,-0.10567 0.117403,-0.0352 0.229883,-0.0979 0.352211,-0.10566 0.07127,-0.005 0.150579,-0.002 0.211328,0.0352 0.135843,0.0839 0.281768,0.38744 0.281768,0.38744 0,0 0.354296,-0.027 0.528317,0 0.267839,0.0416 0.504186,0.23245 0.774867,0.24654 0.347211,0.0181 0.68636,-0.11847 1.021413,-0.21132 0.239739,-0.0664 0.459768,-0.20147 0.704424,-0.24655 0.415816,-0.0766 1.26796,-0.0352 1.26796,-0.0352 0,0 -0.03485,-0.35182 -0.03522,-0.52832 -3.9e-4,-0.18821 -0.01035,-0.38093 0.03522,-0.56354 0.03434,-0.13764 0.07245,-0.29058 0.176107,-0.38743 0.0733,-0.0685 0.182047,-0.0948 0.281768,-0.10567 0.08253,-0.009 0.246549,0.0352 0.246549,0.0352 0,0 -0.169529,-0.21074 -0.28177,-0.28177 -0.294965,-0.18666 -0.63864,-0.31973 -0.986192,-0.35222 -0.22485,-0.021 -0.443386,0.10294 -0.6692,0.10567 -0.17765,0.002 -0.373919,0.0175 -0.52832,-0.0704 -0.246994,-0.1406 -0.386019,-0.42319 -0.528318,-0.66921 -0.126622,-0.21891 -0.281768,-0.70442 -0.281768,-0.70442 0,0 0.378382,-0.001 0.563539,-0.0352 0.157094,-0.0287 0.371169,-0.007 0.457875,-0.14088 0.0514,-0.0795 0.0088,-0.19801 -0.03522,-0.28178 -0.06582,-0.12512 -0.239165,-0.16374 -0.316989,-0.28176 -0.122628,-0.18597 -0.180431,-0.41338 -0.211328,-0.63398 -0.03749,-0.26767 0.02453,-0.54002 0.03522,-0.81009 0.01301,-0.32868 -0.02194,-0.66225 0.03522,-0.98619 0.07936,-0.44972 0.23976,-0.88474 0.422653,-1.30319 0.26945,-0.61648 0.697869,-1.15317 0.986192,-1.76106 0.3569,-0.75247 0.656336,-1.5332 0.915752,-2.32459 0.200471,-0.61157 0.410223,-1.2285 0.493096,-1.86673 0.03175,-0.2445 10e-7,-0.73966 10e-7,-0.73966 z"
     id="path5-4"
     sodipodi:nodetypes="csscsssssscssscssssscssscssscssssscsssscsssscssssscsssssssssssc" /><path
     style="fill:url(#linearGradient13);fill-rule:evenodd;stroke:none;stroke-width:0.264583px;stroke-linecap:butt;stroke-linejoin:miter;stroke-opacity:1"
     d="m 86.204914,153.38283 c 0,0 0.593919,-0.22191 0.783226,-0.32322 0.189307,-0.10131 0.328098,-0.16663 0.405043,-0.26416 0.07695,-0.0975 0.08188,-0.0905 0.08805,-0.24655 0.0062,-0.15601 -0.05592,-0.44009 -0.176104,-0.65159 -0.120185,-0.2115 -0.324071,-0.44942 -0.545928,-0.56354 -0.221857,-0.11412 -0.489681,-0.1128 -0.704424,-0.10566 -0.214743,0.007 -0.405401,0.0473 -0.563538,0.12327 -0.158137,0.076 -0.283143,0.19152 -0.369822,0.29938 -0.08668,0.10786 -0.123667,0.20988 -0.158496,0.31699 -0.03483,0.10711 -0.04767,0.21651 -0.05283,0.31699 -0.0052,0.10048 -0.006,0.18909 0.01762,0.28177 0.02362,0.0927 0.04812,0.1756 0.123275,0.26416 0.07516,0.0886 0.197122,0.15071 0.3346,0.22894 0.137478,0.0782 0.26048,0.12862 0.356118,0.17289 0.117228,0.0601 0.335164,0.13328 0.46321,0.15033 z"
     id="path11"
     sodipodi:nodetypes="czzzzzzzzzzzzzzc" /><path
     style="fill:url(#linearGradient15);fill-rule:evenodd;stroke:none;stroke-width:0.264583px;stroke-linecap:butt;stroke-linejoin:miter;stroke-opacity:1"
     d="m 89.297256,152.50939 1.917695,0.0747 c 0,0 0.03014,-0.44742 -0.0366,-0.64464 -0.132318,-0.39099 -0.284773,-0.55221 -0.457096,-0.69885 -0.158442,-0.13482 -0.314488,-0.21882 -0.50829,-0.29447 -0.127541,-0.0498 -0.293446,-0.0946 -0.429299,-0.0776 -0.121625,0.0152 -0.241039,0.0839 -0.323768,0.17434 -0.128016,0.13995 -0.18601,0.33721 -0.224147,0.52301 -0.03005,0.14638 -0.01169,0.29931 0,0.44829 0.01249,0.15919 0.03509,0.31689 0.03509,0.31689 z"
     id="path13"
     sodipodi:nodetypes="ccssssssscc" /><path
     style="fill:url(#linearGradient18);fill-rule:evenodd;stroke:none;stroke-width:0.264583px;stroke-linecap:butt;stroke-linejoin:miter;stroke-opacity:1"
     d="m 86.072106,136.77894 c -0.308493,-0.19978 -0.77734,0.0979 -1.046017,0.34867 -0.223145,0.20829 -0.2839,0.54847 -0.34867,0.84677 -0.09519,0.43839 0,1.14564 -0.04981,1.34488 -0.04981,0.19924 0.01672,1.66382 0.09962,2.49051 0.05202,0.51876 0.207409,1.02443 0.24905,1.54412 0.01591,0.1986 -0.05318,0.40571 0,0.59772 0.05169,0.1866 0.298862,0.4981 0.298862,0.4981 0,0 0.233443,-1.1574 0.29886,-1.74335 0.10515,-0.94186 0.149432,-2.63995 0.149432,-2.83919 0,-0.19924 0.408582,-1.37996 0.448294,-2.09203 0.01858,-0.33321 0.180493,-0.8148 -0.09962,-0.9962 z"
     id="path16"
     sodipodi:nodetypes="ssssssscssss" /></g></svg>
