<?xml version="1.0" encoding="UTF-8" standalone="no"?>
<!-- Generator: Adobe Illustrator 16.0.0, SVG Export Plug-In . SVG Version: 6.00 Build 0)  -->

<svg
   version="1.1"
   x="0px"
   y="0px"
   width="149.09984"
   height="179.6275"
   viewBox="0 0 149.09984 179.6275"
   enable-background="new 0 0 1190.552 841.89"
   xml:space="preserve"
   id="svg4425"
   sodipodi:docname="dinosaure.svg"
   inkscape:version="1.3 (0e150ed6c4, 2023-07-21)"
   xmlns:inkscape="http://www.inkscape.org/namespaces/inkscape"
   xmlns:sodipodi="http://sodipodi.sourceforge.net/DTD/sodipodi-0.dtd"
   xmlns:xlink="http://www.w3.org/1999/xlink"
   xmlns="http://www.w3.org/2000/svg"
   xmlns:svg="http://www.w3.org/2000/svg"><defs
   id="defs4425"><linearGradient
     id="linearGradient21"
     inkscape:collect="always"><stop
       style="stop-color:#6b7a56;stop-opacity:1;"
       offset="0"
       id="stop35-6" /><stop
       style="stop-color:#98ac7a;stop-opacity:1;"
       offset="0.5"
       id="stop37-5" /><stop
       style="stop-color:#668737;stop-opacity:1;"
       offset="1"
       id="stop36-6" /></linearGradient><linearGradient
     id="linearGradient37"
     inkscape:collect="always"><stop
       style="stop-color:#939b88;stop-opacity:1;"
       offset="0"
       id="stop38-9" /><stop
       style="stop-color:#4a5737;stop-opacity:1;"
       offset="0.18229167"
       id="stop40-9" /><stop
       style="stop-color:#6c844c;stop-opacity:1;"
       offset="0.59114581"
       id="stop41-6" /><stop
       style="stop-color:#86b93e;stop-opacity:1;"
       offset="0.80103362"
       id="stop39-8" /></linearGradient><linearGradient
     id="linearGradient41"
     inkscape:collect="always"><stop
       style="stop-color:#cde2b0;stop-opacity:1;"
       offset="0"
       id="stop42-2" /><stop
       style="stop-color:#cde2b0;stop-opacity:0;"
       offset="1"
       id="stop43-3" /></linearGradient><linearGradient
     inkscape:collect="always"
     xlink:href="#linearGradient21"
     id="linearGradient4487"
     gradientUnits="userSpaceOnUse"
     x1="61.650116"
     y1="122.39757"
     x2="78.872948"
     y2="122.39757" /><linearGradient
     inkscape:collect="always"
     xlink:href="#linearGradient37"
     id="linearGradient4489"
     gradientUnits="userSpaceOnUse"
     x1="73.607384"
     y1="115.69308"
     x2="95.17746"
     y2="139.07993" /><linearGradient
     inkscape:collect="always"
     xlink:href="#linearGradient41"
     id="linearGradient4490"
     gradientUnits="userSpaceOnUse"
     x1="73.375717"
     y1="149.35979"
     x2="83.461639"
     y2="149.35979" /></defs><sodipodi:namedview
   id="namedview4425"
   pagecolor="#505050"
   bordercolor="#eeeeee"
   borderopacity="1"
   inkscape:showpageshadow="0"
   inkscape:pageopacity="0"
   inkscape:pagecheckerboard="0"
   inkscape:deskcolor="#d1d1d1"
   inkscape:zoom="0.35613733"
   inkscape:cx="706.18826"
   inkscape:cy="188.12968"
   inkscape:window-width="1280"
   inkscape:window-height="961"
   inkscape:window-x="-8"
   inkscape:window-y="-8"
   inkscape:window-maximized="1"
   inkscape:current-layer="svg4425"
   inkscape:export-bgcolor="#ffffff00" />&#10;&#10;&#10;&#10;<g
   id="g4427"
   inkscape:export-filename="..\..\Binary\Data\Sprites\Dino\Tail.svg"
   inkscape:export-xdpi="96"
   inkscape:export-ydpi="96"
   transform="matrix(3.7795276,0,0,3.7795276,-219.67238,-433.49484)"
   inkscape:transform-center-x="47.401739"
   inkscape:transform-center-y="-38.967037"><circle
     id="circle4386"
     style="fill:#cde2b0;stroke:#000000;stroke-width:0.264583"
     cx="58.255802"
     cy="162.0878"
     r="0.0018619228" /><circle
     id="circle4387"
     style="fill:#cde2b0;stroke:#000000;stroke-width:0.264583"
     cx="61.989246"
     cy="160.74939"
     r="0.0018619228" /><path
     style="fill:url(#linearGradient4487);fill-rule:evenodd;stroke:none;stroke-width:0.264583px;stroke-linecap:butt;stroke-linejoin:miter;stroke-opacity:1"
     d="m 71.287633,114.92665 c -0.176104,0 -1.286217,0.29631 -1.901941,0.52832 -0.707575,0.26662 -1.396874,0.59314 -2.04283,0.98619 -0.551628,0.33565 -1.07188,0.728 -1.54973,1.1623 -0.528909,0.4807 -0.995988,1.02813 -1.444067,1.58495 -0.432954,0.53802 -0.851423,1.09301 -1.19752,1.69062 -0.350123,0.60456 -0.745509,1.17564 -0.986191,1.8315 -0.197238,0.53747 -0.287542,1.15699 -0.352212,1.72584 -0.06106,0.53711 -0.02772,1.08859 0.07044,1.62017 0.114608,0.62066 0.319366,1.23034 0.59876,1.79628 0.1946,0.39418 0.448186,0.76277 0.739645,1.09186 0.319997,0.36131 1.091856,0.95097 1.091856,0.95097 0,0 -0.476297,-0.5906 -0.669202,-0.91575 -0.225098,-0.37942 -0.425342,-0.77856 -0.563539,-1.19752 -0.13127,-0.39796 -0.228379,-0.81408 -0.246547,-1.23274 -0.01844,-0.42486 0.03322,-0.85657 0.140883,-1.26797 0.106543,-0.40714 0.241271,-0.80014 0.422657,-1.1799 0.172042,-0.3602 0.329841,-0.73862 0.545927,-1.07425 0.240248,-0.37316 0.589833,-0.70217 0.898139,-1.02141 0.359228,-0.37197 0.779227,-0.68217 1.19752,-0.9862 0.529527,-0.38488 1.076723,-0.75057 1.655395,-1.05663 0.395191,-0.20902 0.811116,-0.37967 1.232741,-0.52832 0.574912,-0.20269 1.158769,-0.39898 1.761056,-0.49309 0.62681,-0.0979 1.271334,-0.13978 1.901944,-0.0704 0.506671,0.0557 1.01865,0.16919 1.479288,0.38744 0.57723,0.2735 1.115438,0.65869 1.549731,1.12707 0.319,0.34404 0.553218,0.76697 0.739645,1.19752 0.178801,0.41293 0.227634,0.8708 0.352211,1.30319 0.16656,0.57811 0.528317,1.72583 0.528317,1.72583 l 1.479291,-6.23414 z"
     id="path4420"
     sodipodi:nodetypes="csssssssssscssssssssssssssssccc" /><path
     style="fill:url(#linearGradient4489);fill-rule:evenodd;stroke:none;stroke-width:0.264583px;stroke-linecap:butt;stroke-linejoin:miter;stroke-opacity:1"
     d="m 97.56262,149.40817 c 0.04418,-1.78005 0.224425,-8.95407 -8.994986,-11.01698 -0.696907,-0.15594 -1.564078,-0.10137 -2.275785,-0.0425 -0.444615,0.0368 -0.898031,0.0715 -1.338405,0 -0.36647,-0.0595 -0.75545,-0.13513 -1.056635,-0.35221 -0.190484,-0.13729 -0.313678,-0.35554 -0.422653,-0.56353 -0.103385,-0.19732 -0.169203,-0.41525 -0.211328,-0.63399 -0.07562,-0.39265 -0.07465,-0.79768 -0.07044,-1.19752 0.0062,-0.58886 0.07897,-1.17542 0.140883,-1.76105 0.09462,-0.89497 0.15416,-1.82797 0.202782,-2.72662 0.05583,-1.03191 0.104321,-2.01654 0.07899,-3.04965 -0.02188,-0.89231 0.0045,-1.78739 -0.07044,-2.67681 -0.05579,-0.66179 -0.122771,-1.32757 -0.281771,-1.97239 -0.268481,-1.08882 -0.571633,-2.19568 -1.127077,-3.1699 -0.454164,-0.79658 -1.122311,-1.45539 -1.761056,-2.11327 -0.56779,-0.5848 -1.159144,-1.15941 -1.831502,-1.62018 -0.632388,-0.43338 -1.336571,-0.75841 -2.042827,-1.05663 -0.684043,-0.28884 -1.378791,-0.59539 -2.113269,-0.70442 -0.859685,-0.12762 -1.740359,-0.003 -2.606368,0.0704 -0.496327,0.042 -1.391235,0.31699 -1.391235,0.31699 0,0 1.290863,0.17791 1.972384,0.40504 0.719227,0.2397 1.246286,0.37022 1.743448,0.75726 0.709412,0.55228 1.268294,1.29086 1.761059,2.04283 0.385665,0.58853 0.736458,1.22153 0.915749,1.90194 0.179889,0.68268 0.117392,1.40767 0.140886,2.11327 0.02501,0.75097 0.04669,1.50422 0,2.25415 -0.07058,1.13365 -0.204756,2.26648 -0.422654,3.38123 -0.261144,1.33599 -0.660965,2.64226 -1.056634,3.94477 -0.338849,1.11546 -0.80246,2.19111 -1.127078,3.31079 -0.363155,1.25261 -0.747991,2.51054 -0.915752,3.80389 -0.138971,1.0714 -0.110472,2.16072 -0.07044,3.24035 0.04545,1.22579 0.129575,2.45674 0.352211,3.663 0.128209,0.69465 0.327894,1.37692 0.563539,2.04283 0.333252,0.94174 0.718998,1.87035 1.19752,2.74725 0.648865,1.18906 1.376584,2.34936 2.254154,3.38123 0.893381,1.05046 1.945456,1.96476 3.029019,2.81769 1.437955,1.13189 4.049129,3.05952 5.878871,3.02902 7.080973,-0.11804 10.809396,-4.62591 10.95684,-10.56631 z"
     id="path4421"
     sodipodi:nodetypes="ssssssssssssssssssscssssssssssssssssss" /><path
     style="fill:url(#linearGradient4490);fill-rule:evenodd;stroke:none;stroke-width:0.264583px;stroke-linecap:butt;stroke-linejoin:miter;stroke-opacity:1"
     d="m 73.569733,140.31547 c 0,0 -0.09386,1.89367 -0.04981,2.83918 0.04898,1.05131 0.298862,2.9388 0.348673,3.13805 0.04981,0.19924 0.704491,2.57225 1.245256,3.78557 0.529842,1.18882 1.151753,2.35338 1.9426,3.3871 0.741907,0.96975 1.684364,1.77134 2.590133,2.59013 0.779083,0.70427 2.440702,1.99241 2.440702,1.99241 l 1.145635,0.19924 -2.639944,-5.57874 -1.544116,-0.79697 -0.747154,-0.19924 -0.796965,-1.19544 -1.145635,-0.49811 -0.348673,-1.14563 -0.946394,-1.34488 0.04981,-0.54791 -0.846775,-1.69355 -0.04981,-0.79697 -0.09962,-1.9924 -0.398484,-0.99621 z"
     id="path4422"
     sodipodi:nodetypes="csssssccccccccccccccc" /><path
     style="fill:#6da322;fill-opacity:1;fill-rule:evenodd;stroke:none;stroke-width:0.264583px;stroke-linecap:butt;stroke-linejoin:miter;stroke-opacity:1"
     d="m 85.026091,138.67173 c 0,0 -1.776303,0.85517 -2.615039,1.36978 -1.172159,0.71919 -3.36219,2.39089 -3.36219,2.39089 0,0 1.440016,-1.4457 3.187854,-2.56523 0.573148,-0.36711 1.768266,-1.02111 1.768266,-1.02111 l -1.569025,0.67244 -1.618832,0.62263 c 0,0 1.419705,-0.78438 2.166745,-1.09582 0.436156,-0.18184 0.875063,-0.3976 1.344877,-0.4483 0.232429,-0.0251 0.697344,0.0747 0.697344,0.0747 z"
     id="path4423"
     sodipodi:nodetypes="cscscccssc" /><path
     style="fill:#6da322;fill-opacity:1;fill-rule:evenodd;stroke:none;stroke-width:0.264583px;stroke-linecap:butt;stroke-linejoin:miter;stroke-opacity:1"
     d="m 83.681214,138.41022 c -0.298861,0.0498 -2.486204,0.58455 -3.648599,1.09583 -0.950716,0.41817 -2.677303,1.59393 -2.677303,1.59393 0,0 1.441349,-1.18474 2.839185,-1.80562 1.771232,-0.78673 3.486717,-0.88414 3.486717,-0.88414 z"
     id="path4424"
     sodipodi:nodetypes="cscsc" /></g></svg>
