<?xml version="1.0" encoding="UTF-8" standalone="no"?>
<!-- Created with Inkscape (http://www.inkscape.org/) -->

<svg
   width="35.558044"
   height="38.699463"
   viewBox="0 0 9.4080658 10.239233"
   version="1.1"
   id="svg1"
   xml:space="preserve"
   inkscape:version="1.3.2 (091e20ef0f, 2023-11-25)"
   sodipodi:docname="GameVolcano.svg"
   xmlns:inkscape="http://www.inkscape.org/namespaces/inkscape"
   xmlns:sodipodi="http://sodipodi.sourceforge.net/DTD/sodipodi-0.dtd"
   xmlns:xlink="http://www.w3.org/1999/xlink"
   xmlns="http://www.w3.org/2000/svg"
   xmlns:svg="http://www.w3.org/2000/svg"><sodipodi:namedview
     id="namedview1"
     pagecolor="#505050"
     bordercolor="#eeeeee"
     borderopacity="1"
     inkscape:showpageshadow="0"
     inkscape:pageopacity="0"
     inkscape:pagecheckerboard="0"
     inkscape:deskcolor="#d1d1d1"
     inkscape:document-units="px"
     inkscape:zoom="0.47748556"
     inkscape:cx="879.60776"
     inkscape:cy="448.1811"
     inkscape:window-width="1366"
     inkscape:window-height="706"
     inkscape:window-x="-8"
     inkscape:window-y="-8"
     inkscape:window-maximized="1"
     inkscape:current-layer="layer1" /><defs
     id="defs1"><linearGradient
       id="linearGradient29"
       inkscape:collect="always"><stop
         style="stop-color:#918984;stop-opacity:1;"
         offset="0"
         id="stop29" /><stop
         style="stop-color:#ada6a4;stop-opacity:1;"
         offset="1"
         id="stop30" /></linearGradient><linearGradient
       inkscape:collect="always"
       xlink:href="#linearGradient29"
       id="linearGradient850"
       gradientUnits="userSpaceOnUse"
       x1="398.55536"
       y1="184.79834"
       x2="398.82037"
       y2="176.20952"
       gradientTransform="translate(-196.69393,-46.234829)" /></defs><g
     inkscape:label="Layer 1"
     inkscape:groupmode="layer"
     id="layer1"
     transform="translate(-197.70551,-129.01096)"><g
       id="g964"><rect
         style="fill:url(#linearGradient850);fill-opacity:1;stroke:#4a4a4a;stroke-width:0.265112;stroke-linecap:round;stroke-linejoin:round;stroke-dasharray:none;stroke-opacity:1;paint-order:stroke fill markers"
         id="rect831"
         width="9.1429462"
         height="9.974124"
         x="197.83806"
         y="129.14351" /><g
         id="g955"><circle
           style="fill:#f5f5f5;fill-opacity:1;stroke:#4a4a4a;stroke-width:0.265112;stroke-linecap:round;stroke-linejoin:round;stroke-dasharray:none;stroke-opacity:1;paint-order:stroke fill markers"
           id="circle831"
           cx="199.76366"
           cy="131.60242"
           r="1.0043389" /><path
           d="m 200.00783,132.26801 h -0.16278 v -1.03728 q -0.0588,0.0561 -0.15464,0.11214 -0.095,0.0561 -0.17092,0.0841 v -0.15736 q 0.13655,-0.0642 0.23874,-0.15554 0.10219,-0.0913 0.14469,-0.17725 h 0.10491 z"
           id="text839"
           style="font-size:1.85208px;line-height:125%;font-family:Arial;-inkscape-font-specification:Arial;letter-spacing:0px;word-spacing:0px;fill:none;stroke:#000000;stroke-width:0.185738;stroke-dasharray:none"
           aria-label="1" /></g><g
         id="g956"><circle
           style="fill:#f5f5f5;fill-opacity:1;stroke:#4a4a4a;stroke-width:0.265112;stroke-linecap:round;stroke-linejoin:round;stroke-dasharray:none;stroke-opacity:1;paint-order:stroke fill markers"
           id="circle832"
           cx="202.40953"
           cy="131.60242"
           r="1.0043389" /><path
           d="m 202.84775,132.11156 v 0.15645 h -0.8763 q -0.002,-0.0588 0.019,-0.11304 0.0335,-0.0895 0.10672,-0.17635 0.0741,-0.0868 0.21342,-0.20076 0.21614,-0.17725 0.2921,-0.28035 0.076,-0.10399 0.076,-0.19624 0,-0.0968 -0.0696,-0.16278 -0.0687,-0.0669 -0.17996,-0.0669 -0.11757,0 -0.18811,0.0705 -0.0705,0.0705 -0.0714,0.19534 l -0.1673,-0.0172 q 0.0172,-0.18719 0.12932,-0.28486 0.11214,-0.0986 0.30114,-0.0986 0.19082,0 0.30205,0.1058 0.11124,0.10581 0.11124,0.26226 0,0.0796 -0.0326,0.15645 -0.0326,0.0769 -0.10852,0.16188 -0.0751,0.085 -0.2505,0.23332 -0.1465,0.12298 -0.1881,0.1673 -0.0416,0.0434 -0.0687,0.0877 z"
           id="text840"
           style="font-size:1.85208px;line-height:125%;font-family:Arial;-inkscape-font-specification:Arial;letter-spacing:0px;word-spacing:0px;fill:none;stroke:#000000;stroke-width:0.185738;stroke-dasharray:none"
           aria-label="2" /></g><g
         id="g957"><circle
           style="fill:#f5f5f5;fill-opacity:1;stroke:#4a4a4a;stroke-width:0.265112;stroke-linecap:round;stroke-linejoin:round;stroke-dasharray:none;stroke-opacity:1;paint-order:stroke fill markers"
           id="circle833"
           cx="205.0554"
           cy="131.60242"
           r="1.0043389" /><path
           d="m 204.62133,131.90628 0.16278,-0.0217 q 0.028,0.13836 0.095,0.19986 0.0678,0.0606 0.16459,0.0606 0.11485,0 0.19352,-0.0796 0.0796,-0.0796 0.0796,-0.19714 0,-0.11214 -0.0733,-0.18449 -0.0732,-0.0733 -0.18629,-0.0733 -0.0461,0 -0.11485,0.0181 l 0.0181,-0.14289 q 0.0163,0.002 0.0262,0.002 0.104,0 0.1872,-0.0543 0.0832,-0.0543 0.0832,-0.1673 0,-0.0895 -0.0606,-0.14831 -0.0606,-0.0588 -0.15645,-0.0588 -0.095,0 -0.15826,0.0597 -0.0633,0.0597 -0.0814,0.17906 l -0.16278,-0.0289 q 0.0298,-0.16368 0.13565,-0.25321 0.10581,-0.0904 0.26316,-0.0904 0.10852,0 0.19986,0.047 0.0913,0.0461 0.13927,0.12661 0.0488,0.0805 0.0488,0.17092 0,0.0859 -0.0461,0.15645 -0.0461,0.0705 -0.13655,0.11214 0.11756,0.0271 0.18267,0.11304 0.0651,0.085 0.0651,0.21342 0,0.17363 -0.1266,0.29481 -0.12661,0.12028 -0.32014,0.12028 -0.17454,0 -0.29029,-0.104 -0.11485,-0.104 -0.13113,-0.26949 z"
           id="text841"
           style="font-size:1.85208px;line-height:125%;font-family:Arial;-inkscape-font-specification:Arial;letter-spacing:0px;word-spacing:0px;fill:none;stroke:#000000;stroke-width:0.185738;stroke-dasharray:none"
           aria-label="3" /></g><g
         id="g958"><circle
           style="fill:#f5f5f5;fill-opacity:1;stroke:#4a4a4a;stroke-width:0.265112;stroke-linecap:round;stroke-linejoin:round;stroke-dasharray:none;stroke-opacity:1;paint-order:stroke fill markers"
           id="circle834"
           cx="199.76366"
           cy="134.24825"
           r="1.0043389" /><path
           d="m 199.8803,134.91112 v -0.31742 h -0.57516 v -0.14922 l 0.605,-0.85912 h 0.13294 v 0.85912 h 0.17905 v 0.14922 h -0.17905 v 0.31742 z m 0,-0.46664 v -0.59776 l -0.41509,0.59776 z"
           id="text842"
           style="font-size:1.85208px;line-height:125%;font-family:Arial;-inkscape-font-specification:Arial;letter-spacing:0px;word-spacing:0px;fill:none;fill-opacity:1;stroke:#000000;stroke-width:0.185738;stroke-dasharray:none;stroke-opacity:1"
           aria-label="4" /></g><g
         id="g959"><circle
           style="fill:#f5f5f5;fill-opacity:1;stroke:#4a4a4a;stroke-width:0.265112;stroke-linecap:round;stroke-linejoin:round;stroke-dasharray:none;stroke-opacity:1;paint-order:stroke fill markers"
           id="circle835"
           cx="202.40953"
           cy="134.24825"
           r="1.0043389" /><path
           d="m 201.97001,134.54352 0.17091,-0.0145 q 0.019,0.12479 0.0877,0.1881 0.0696,0.0624 0.1673,0.0624 0.11756,0 0.19895,-0.0886 0.0814,-0.0886 0.0814,-0.23513 0,-0.13926 -0.0787,-0.21975 -0.0778,-0.0805 -0.20438,-0.0805 -0.0787,0 -0.14198,0.0362 -0.0633,0.0353 -0.0995,0.0922 l -0.15284,-0.0199 0.12842,-0.68097 h 0.65926 v 0.15555 h -0.52904 l -0.0714,0.3563 q 0.11937,-0.0832 0.2505,-0.0832 0.17364,0 0.29301,0.12027 0.11937,0.12028 0.11937,0.30929 0,0.17996 -0.1049,0.31109 -0.12751,0.16097 -0.34817,0.16097 -0.18087,0 -0.29572,-0.10129 -0.11395,-0.10128 -0.13022,-0.26858 z"
           id="text843"
           style="font-size:1.85208px;line-height:125%;font-family:Arial;-inkscape-font-specification:Arial;letter-spacing:0px;word-spacing:0px;fill:none;stroke:#000000;stroke-width:0.185738;stroke-dasharray:none"
           aria-label="5" /></g><g
         id="g960"><circle
           style="fill:#f5f5f5;fill-opacity:1;stroke:#4a4a4a;stroke-width:0.265112;stroke-linecap:round;stroke-linejoin:round;stroke-dasharray:none;stroke-opacity:1;paint-order:stroke fill markers"
           id="circle836"
           cx="205.0554"
           cy="134.24825"
           r="1.0043389" /><path
           d="m 205.46959,133.90143 -0.16187,0.0127 q -0.0217,-0.0959 -0.0615,-0.13927 -0.066,-0.0696 -0.16278,-0.0696 -0.0778,0 -0.13655,0.0434 -0.0769,0.0561 -0.12118,0.16368 -0.0443,0.10762 -0.0461,0.30657 0.0588,-0.0895 0.14379,-0.13294 0.085,-0.0434 0.17816,-0.0434 0.16278,0 0.27672,0.12027 0.11486,0.11938 0.11486,0.30929 0,0.12479 -0.0543,0.23241 -0.0534,0.10671 -0.14741,0.16368 -0.094,0.057 -0.21342,0.057 -0.20348,0 -0.3319,-0.14922 -0.12841,-0.15012 -0.12841,-0.49376 0,-0.38435 0.14198,-0.55888 0.12389,-0.15193 0.3337,-0.15193 0.15645,0 0.25593,0.0877 0.10038,0.0877 0.12027,0.24236 z m -0.66468,0.57154 q 0,0.0841 0.0353,0.16097 0.0362,0.0769 0.10039,0.11757 0.0642,0.0398 0.13474,0.0398 0.1031,0 0.17725,-0.0832 0.0742,-0.0832 0.0742,-0.22609 0,-0.13746 -0.0733,-0.21613 -0.0732,-0.0796 -0.18449,-0.0796 -0.11033,0 -0.1872,0.0796 -0.0769,0.0787 -0.0769,0.20709 z"
           id="text844"
           style="font-size:1.85208px;line-height:125%;font-family:Arial;-inkscape-font-specification:Arial;letter-spacing:0px;word-spacing:0px;fill:none;stroke:#000000;stroke-width:0.185738;stroke-dasharray:none"
           aria-label="6" /></g><g
         id="g961"><circle
           style="fill:#f5f5f5;fill-opacity:1;stroke:#4a4a4a;stroke-width:0.265112;stroke-linecap:round;stroke-linejoin:round;stroke-dasharray:none;stroke-opacity:1;paint-order:stroke fill markers"
           id="circle837"
           cx="199.76366"
           cy="136.89409"
           r="1.0043389" /><path
           d="m 199.33456,136.39625 v -0.15645 h 0.85821 v 0.12661 q -0.12661,0.13474 -0.2514,0.35811 -0.1239,0.22337 -0.19172,0.45941 -0.0488,0.16639 -0.0624,0.36444 h -0.16731 q 0.003,-0.15645 0.0615,-0.37801 0.0588,-0.22156 0.16821,-0.42685 0.11033,-0.20618 0.23422,-0.34726 z"
           id="text845"
           style="font-size:1.85208px;line-height:125%;font-family:Arial;-inkscape-font-specification:Arial;letter-spacing:0px;word-spacing:0px;fill:none;stroke:#000000;stroke-width:0.185738;stroke-dasharray:none"
           aria-label="7" /></g><g
         id="g962"><circle
           style="fill:#f5f5f5;fill-opacity:1;stroke:#4a4a4a;stroke-width:0.265112;stroke-linecap:round;stroke-linejoin:round;stroke-dasharray:none;stroke-opacity:1;paint-order:stroke fill markers"
           id="circle838"
           cx="202.40953"
           cy="136.89409"
           r="1.0043389" /><path
           d="m 202.22505,136.82943 q -0.10128,-0.0371 -0.15012,-0.10581 -0.0488,-0.0687 -0.0488,-0.16459 0,-0.14469 0.104,-0.24327 0.104,-0.0986 0.27672,-0.0986 0.17364,0 0.27944,0.10129 0.10581,0.10038 0.10581,0.24507 0,0.0922 -0.0488,0.16097 -0.0479,0.0678 -0.1465,0.10491 0.12208,0.0398 0.18538,0.12841 0.0642,0.0886 0.0642,0.21162 0,0.17001 -0.12027,0.28577 -0.12028,0.11575 -0.31652,0.11575 -0.19624,0 -0.31652,-0.11575 -0.12028,-0.11666 -0.12028,-0.2903 0,-0.12932 0.0651,-0.21613 0.066,-0.0877 0.18719,-0.11937 z m -0.0325,-0.27583 q 0,0.094 0.0606,0.15374 0.0606,0.0597 0.15735,0.0597 0.094,0 0.15374,-0.0588 0.0606,-0.0597 0.0606,-0.1456 0,-0.0895 -0.0624,-0.15012 -0.0615,-0.0615 -0.15374,-0.0615 -0.0931,0 -0.15464,0.0597 -0.0615,0.0597 -0.0615,0.14288 z m -0.0525,0.61224 q 0,0.0696 0.0326,0.13475 0.0335,0.0651 0.0986,0.10128 0.0651,0.0353 0.14018,0.0353 0.11666,0 0.19262,-0.0751 0.076,-0.0751 0.076,-0.19081 0,-0.11757 -0.0787,-0.19444 -0.0778,-0.0769 -0.19534,-0.0769 -0.11485,0 -0.19081,0.076 -0.0751,0.076 -0.0751,0.18991 z"
           id="text846"
           style="font-size:1.85208px;line-height:125%;font-family:Arial;-inkscape-font-specification:Arial;letter-spacing:0px;word-spacing:0px;fill:none;stroke:#000000;stroke-width:0.185738;stroke-dasharray:none"
           aria-label="8" /></g><g
         id="g963"><circle
           style="fill:#f5f5f5;fill-opacity:1;stroke:#4a4a4a;stroke-width:0.265112;stroke-linecap:round;stroke-linejoin:round;stroke-dasharray:none;stroke-opacity:1;paint-order:stroke fill markers"
           id="circle839"
           cx="205.0554"
           cy="136.89409"
           r="1.0043389" /><path
           d="m 204.64393,137.2418 0.15645,-0.0145 q 0.0199,0.11033 0.076,0.16007 0.0561,0.0497 0.14379,0.0497 0.0751,0 0.13113,-0.0344 0.057,-0.0344 0.0931,-0.0913 0.0362,-0.0579 0.0606,-0.15555 0.0244,-0.0977 0.0244,-0.19895 0,-0.0109 -9e-4,-0.0326 -0.0488,0.0778 -0.13384,0.12661 -0.0841,0.0479 -0.18268,0.0479 -0.16459,0 -0.27853,-0.11937 -0.11395,-0.11938 -0.11395,-0.31471 0,-0.20167 0.11847,-0.32466 0.11937,-0.12299 0.29843,-0.12299 0.12932,0 0.23603,0.0696 0.10762,0.0696 0.16278,0.19896 0.0561,0.12841 0.0561,0.37258 0,0.25412 -0.0552,0.40515 -0.0552,0.15012 -0.16459,0.22879 -0.10852,0.0787 -0.25503,0.0787 -0.15554,0 -0.25411,-0.0859 -0.0986,-0.0868 -0.11847,-0.24327 z m 0.66649,-0.5851 q 0,-0.14017 -0.0751,-0.22247 -0.0741,-0.0823 -0.17905,-0.0823 -0.10853,0 -0.18901,0.0886 -0.0805,0.0886 -0.0805,0.2297 0,0.12661 0.076,0.20619 0.0769,0.0787 0.189,0.0787 0.11305,0 0.18539,-0.0787 0.0732,-0.0796 0.0732,-0.21975 z"
           id="text847"
           style="font-size:1.85208px;line-height:125%;font-family:Arial;-inkscape-font-specification:Arial;letter-spacing:0px;word-spacing:0px;fill:none;stroke:#000000;stroke-width:0.185738;stroke-dasharray:none"
           aria-label="9" /></g></g></g></svg>
