<?xml version="1.0" encoding="UTF-8" standalone="no"?>
<!-- Created with Inkscape (http://www.inkscape.org/) -->

<svg
   width="42.216053"
   height="153.80774"
   viewBox="0 0 11.169664 40.694965"
   version="1.1"
   id="svg1"
   xml:space="preserve"
   inkscape:version="1.3 (0e150ed6c4, 2023-07-21)"
   sodipodi:docname="PanelDecodeLRArm.svg"
   xmlns:inkscape="http://www.inkscape.org/namespaces/inkscape"
   xmlns:sodipodi="http://sodipodi.sourceforge.net/DTD/sodipodi-0.dtd"
   xmlns="http://www.w3.org/2000/svg"
   xmlns:svg="http://www.w3.org/2000/svg"><sodipodi:namedview
     id="namedview1"
     pagecolor="#505050"
     bordercolor="#eeeeee"
     borderopacity="1"
     inkscape:showpageshadow="0"
     inkscape:pageopacity="0"
     inkscape:pagecheckerboard="0"
     inkscape:deskcolor="#d1d1d1"
     inkscape:document-units="px"
     inkscape:zoom="1.8101934"
     inkscape:cx="17.125242"
     inkscape:cy="108.82815"
     inkscape:window-width="1280"
     inkscape:window-height="961"
     inkscape:window-x="-8"
     inkscape:window-y="-8"
     inkscape:window-maximized="1"
     inkscape:current-layer="layer1" /><defs
     id="defs1"><inkscape:path-effect
       effect="bspline"
       id="path-effect921-1-0"
       is_visible="true"
       lpeversion="1.3"
       weight="33.333333"
       steps="2"
       helper_size="0"
       apply_no_weight="true"
       apply_with_weight="true"
       only_selected="false"
       uniform="false" /><inkscape:path-effect
       effect="bspline"
       id="path-effect923-0-6"
       is_visible="true"
       lpeversion="1.3"
       weight="33.333333"
       steps="2"
       helper_size="0"
       apply_no_weight="true"
       apply_with_weight="true"
       only_selected="false"
       uniform="false" /></defs><g
     inkscape:label="Layer 1"
     inkscape:groupmode="layer"
     id="layer1"
     transform="translate(-376.16651,-171.73468)"><g
       id="g1"
       transform="rotate(1.003953,381.68274,192.08812)"><path
         style="fill:#de2120;fill-opacity:1;fill-rule:evenodd;stroke:#7d220e;stroke-width:0.264583px;stroke-linecap:butt;stroke-linejoin:miter;stroke-opacity:1"
         d="m 136.44545,155.72832 c 1.19063,0.13412 2.38125,0.26824 3.24346,0.31655 0.86222,0.0483 1.39597,0.0108 2.05876,0.0206 0.6628,0.01 1.45459,0.067 2.2464,0.12411 0.0245,0.82447 0.049,1.64895 0.0735,2.47342 -0.84078,-0.0245 -1.68156,-0.0489 -2.38009,-0.0188 -0.69853,0.0302 -1.07138,0.087 -2.21461,0.052 -1.14322,-0.035 -1.92291,-0.1271 -3.08613,-0.26453 -0.38091,-0.50555 -0.76182,-1.01109 -0.75203,-1.46166 0.01,-0.45057 0.41026,-0.84615 0.81074,-1.24174 z"
         id="path866-4-6"
         inkscape:path-effect="#path-effect921-1-0"
         inkscape:original-d="m 136.44545,155.72832 c 0,0 2.38125,0.26825 3.5719,0.40237 0.53378,-0.0375 1.06753,-0.075 1.6013,-0.11253 0.79182,0.0571 2.37542,0.17144 2.37542,0.17144 0.0245,0.82447 0.049,1.64895 0.0735,2.47342 0,0 -1.68156,-0.0489 -2.52234,-0.0734 -0.55628,0.0848 -0.92913,0.14163 -1.66882,0.25438 -1.54676,-0.18274 -3.48967,-0.41228 -3.48967,-0.41228 0,0 -0.76182,-1.01109 -1.14273,-1.51664 0.40048,-0.39559 1.20144,-1.18676 1.20144,-1.18676 z"
         sodipodi:nodetypes="ccccccccsc"
         transform="matrix(-0.15088549,-3.3710149,3.3710149,-0.15088549,-127.04245,692.89361)" /><path
         style="fill:#fbbb9f;fill-opacity:1;fill-rule:evenodd;stroke:#2a1e0b;stroke-width:0.264583px;stroke-linecap:butt;stroke-linejoin:miter;stroke-opacity:1"
         d="m 144.189,156.14008 c 0.20491,-2e-5 0.61473,-2e-5 0.94662,-0.006 0.3319,-0.006 0.58586,-0.0173 0.85138,-0.0231 0.26552,-0.006 0.54257,-0.006 0.77346,0.052 0.23088,0.0577 0.41558,0.17316 0.51948,0.40117 0.10391,0.228 0.12701,0.56854 0.12989,0.88312 0.003,0.31458 -0.0145,0.60318 -0.0462,0.84272 -0.0317,0.23955 -0.0779,0.43003 -0.17028,0.55413 -0.0924,0.12409 -0.23088,0.18181 -0.40693,0.21067 -0.17605,0.0289 -0.38962,0.0289 -0.58876,-0.006 -0.19914,-0.0346 -0.38383,-0.10389 -0.54834,-0.15008 -0.16451,-0.0462 -0.3088,-0.0693 -0.46176,-0.0866 -0.15297,-0.0173 -0.31458,-0.0289 -0.55652,-0.0557 -0.24195,-0.0269 -0.56421,-0.0691 -0.88647,-0.11132 0.0798,-0.8351 0.15968,-1.6702 0.1996,-2.08777 0.0399,-0.41757 0.0399,-0.41761 0.24483,-0.41763 z"
         id="path867-0-5"
         inkscape:path-effect="#path-effect923-0-6"
         inkscape:original-d="m 143.98409,156.14006 c 0.40982,0 0.81964,0 1.22945,0 0.25398,-0.0115 0.50794,-0.0231 0.76191,-0.0346 0.27707,0 0.55412,0 0.83118,0 0.18471,0.11545 0.36941,0.23088 0.55412,0.34633 0.0231,0.34056 0.0462,0.6811 0.0693,1.02165 -0.0173,0.28861 -0.0346,0.57721 -0.052,0.86581 -0.0462,0.19048 -0.0924,0.38096 -0.13852,0.57144 -0.13854,0.0577 -0.27706,0.11544 -0.41559,0.17316 -0.21357,0 -0.42714,0 -0.6407,0 -0.18471,-0.0693 -0.36941,-0.13853 -0.55412,-0.2078 -0.14431,-0.0231 -0.2886,-0.0462 -0.43291,-0.0693 -0.16162,-0.0115 -0.32323,-0.0231 -0.48485,-0.0346 -0.32227,-0.0422 -0.96679,-0.12667 -0.96679,-0.12667 0,0 0.15968,-1.6702 0.23952,-2.5053 0,-4e-5 0,-8e-5 0,-1.2e-4 z"
         transform="matrix(0.15088549,-3.3710149,-3.3710149,-0.15088549,890.7598,692.89361)"
         sodipodi:nodetypes="cccccccccccccccc" /></g></g></svg>
