<?xml version="1.0" encoding="UTF-8" standalone="no"?>
<!-- Created with Inkscape (http://www.inkscape.org/) -->

<svg
   width="68.079773"
   height="82.657349"
   viewBox="0 0 18.012773 21.869757"
   version="1.1"
   id="svg1"
   xml:space="preserve"
   inkscape:version="1.3.2 (091e20ef0f, 2023-11-25)"
   sodipodi:docname="GameVolcanoEntrance.svg"
   xmlns:inkscape="http://www.inkscape.org/namespaces/inkscape"
   xmlns:sodipodi="http://sodipodi.sourceforge.net/DTD/sodipodi-0.dtd"
   xmlns:xlink="http://www.w3.org/1999/xlink"
   xmlns="http://www.w3.org/2000/svg"
   xmlns:svg="http://www.w3.org/2000/svg"><sodipodi:namedview
     id="namedview1"
     pagecolor="#505050"
     bordercolor="#eeeeee"
     borderopacity="1"
     inkscape:showpageshadow="0"
     inkscape:pageopacity="0"
     inkscape:pagecheckerboard="0"
     inkscape:deskcolor="#d1d1d1"
     inkscape:document-units="px"
     inkscape:zoom="0.23874278"
     inkscape:cx="129.84686"
     inkscape:cy="460.74692"
     inkscape:window-width="1366"
     inkscape:window-height="706"
     inkscape:window-x="-8"
     inkscape:window-y="-8"
     inkscape:window-maximized="1"
     inkscape:current-layer="layer1" /><defs
     id="defs1"><linearGradient
       id="linearGradient15"
       inkscape:collect="always"><stop
         style="stop-color:#561407;stop-opacity:1;"
         offset="0"
         id="stop16-4" /><stop
         style="stop-color:#a55334;stop-opacity:1;"
         offset="1"
         id="stop17-7" /></linearGradient><linearGradient
       inkscape:collect="always"
       xlink:href="#linearGradient15"
       id="linearGradient854"
       x1="55.672646"
       y1="174.44856"
       x2="74.783875"
       y2="174.44856"
       gradientUnits="userSpaceOnUse"
       gradientTransform="matrix(0.99638861,0,0,1.3646563,3.2771906,-69.080853)" /></defs><g
     inkscape:label="Layer 1"
     inkscape:groupmode="layer"
     id="layer1"
     transform="translate(-58.729618,-158.57088)"><g
       id="g2"><g
         id="g944"><path
           style="fill:url(#linearGradient854);fill-rule:evenodd;stroke:#461d09;stroke-width:0.308523px;stroke-linecap:butt;stroke-linejoin:miter;stroke-opacity:1"
           d="m 63.456322,180.28631 6.246489,-0.0194 3.973568,-0.82003 2.868837,-1.25289 -5.369266,-13.88876 -2.935821,3.88886 -3.864469,-9.22521 -2.535604,6.00865 -2.930072,14.00787 z"
           id="path852"
           sodipodi:nodetypes="cccccccccc" /><path
           style="fill:none;fill-rule:evenodd;stroke:#461d09;stroke-width:0.264583px;stroke-linecap:butt;stroke-linejoin:miter;stroke-opacity:1"
           d="m 68.154031,167.9817 1.66524,4.31003"
           id="path944" /></g><path
         style="opacity:0.622093;fill:#4d1c0f;fill-opacity:1;fill-rule:evenodd;stroke:none;stroke-width:0.312969px;stroke-linecap:butt;stroke-linejoin:miter;stroke-opacity:1"
         d="m 63.210326,170.49863 c 0.08909,0.76659 0.178185,1.53319 0.267277,2.29979 0.01571,0.13517 0.04756,0.26878 0.04717,0.40584 -4.22e-4,0.14447 -0.04087,0.28389 -0.04952,0.42785 -0.0055,0.0911 0.03692,0.1795 0.03145,0.27056 -0.0087,0.14397 -0.04579,0.28347 -0.04952,0.42784 -0.0024,0.0912 0.02096,0.18038 0.03145,0.27056 0.0052,0.0451 0.02544,0.0917 0.01573,0.1353 -0.01376,0.0617 -0.0736,0.0935 -0.08098,0.15722 -0.01042,0.0902 0.02096,0.18037 0.03145,0.27056 0.01048,0.0901 0.02096,0.18037 0.03144,0.27056 0.03669,0.31566 0.07337,0.63132 0.110056,0.94698 0.02096,0.18037 0.04192,0.36074 0.06289,0.54113 0.0052,0.0451 0.01048,0.0901 0.01571,0.13516 0.0052,0.0452 -0.01078,0.10858 0.01573,0.1353 0.283931,0.28615 0.117493,0.0266 0.305787,0.0694 0.07207,0.0164 0.144402,0.0438 0.209082,0.0912 0.08181,0.0599 0.149878,0.15104 0.224814,0.22656 0.03748,0.0378 0.08541,0.061 0.11242,0.11333 0.01911,0.0371 0.01048,0.0901 0.01571,0.13516 0.0052,0.0452 0.01048,0.0901 0.01573,0.13531 0.03552,0.30562 -0.02144,-0.0572 0.143846,0.38384 0.01516,0.0404 0.01301,0.18079 0.01573,0.1353 0.01393,-0.23214 0.02129,-0.4655 0.01808,-0.69842 -0.0013,-0.0912 -0.03692,-0.17951 -0.03144,-0.27057 0.0061,-0.10172 0.05357,-0.19171 0.06524,-0.29255 0.0052,-0.0452 -0.01048,-0.0902 -0.01571,-0.13517 -0.0262,-0.22546 -0.05241,-0.45094 -0.07861,-0.67641 -0.0052,-0.0451 -0.02094,-0.0902 -0.01571,-0.13516 0.01168,-0.10089 0.05357,-0.19174 0.06524,-0.29256 0.0052,-0.0452 -0.01048,-0.0901 -0.01573,-0.1353 -0.01573,-0.13531 -0.03145,-0.27057 -0.04717,-0.40586 -0.04193,-0.36074 -0.08385,-0.72149 -0.125777,-1.08225 -0.110054,-0.94696 -0.22011,-1.89394 -0.330166,-2.84092 -0.01571,-0.13516 -0.03144,-0.27056 -0.04717,-0.40584 -0.0052,-0.0452 0.0034,-0.0984 -0.01573,-0.1353 -0.05126,-0.0995 -0.173566,-0.12719 -0.224812,-0.22657 -0.06041,-0.11725 -0.08345,-0.26666 -0.143856,-0.38383 -0.027,-0.0525 -0.06684,-0.12369 -0.11241,-0.11333 -0.164333,0.0373 -0.311802,0.16351 -0.467696,0.24533 z"
         id="path945" /><path
         style="opacity:0.712209;fill:#4d1c0f;fill-opacity:1;fill-rule:evenodd;stroke:none;stroke-width:0.264583px;stroke-linecap:butt;stroke-linejoin:miter;stroke-opacity:1"
         d="m 69.195483,175.72466 c 0.04618,0.11544 0.09921,0.22837 0.138528,0.34633 0.0073,0.0219 0,0.0462 0,0.0693 0,0.0462 0,0.0923 0,0.13853 0,0.0693 0,0.13853 0,0.20779 0,0.16162 0,0.32324 0,0.48486 0,0.0693 0,0.13853 0,0.20779 0,0.0231 -0.0073,0.0474 0,0.0693 0.01632,0.049 0.05294,0.0896 0.06927,0.13853 0.0073,0.0219 -0.0056,0.0469 0,0.0693 0.03541,0.14167 0.103113,0.27393 0.13853,0.41559 0.0173,0.0693 -0.03463,0.13853 0,0.20779 0.0292,0.0584 0.102304,0.0842 0.138528,0.13853 0.01281,0.0192 0,0.0462 0,0.0693 0,0.0231 -0.01032,0.0486 0,0.0693 0.08559,0.17118 0.06927,-0.0239 0.06927,0.13853 0,0.0462 0,0.0924 0,0.13853 0,0.0231 0,0.0924 0,0.0693 0,-0.23089 0,-0.46177 0,-0.69265 0,-0.0693 0,-0.13853 0,-0.20779 0,-0.0462 0.01119,-0.0937 0,-0.13853 -0.01251,-0.0501 -0.04618,-0.0924 -0.06927,-0.13853 -0.0231,-0.0462 -0.05914,-0.0879 -0.06927,-0.13853 -0.01357,-0.0679 0,-0.13853 0,-0.2078 0,-0.16161 0,-0.32323 0,-0.48485 0,-0.0923 0,-0.18471 0,-0.27706 0,-0.0231 0.0073,-0.0474 0,-0.0693 -0.01632,-0.049 -0.05294,-0.0896 -0.06926,-0.13853 -0.0073,-0.0219 0,-0.0462 0,-0.0693 0,-0.0231 0.01479,-0.0515 0,-0.0693 -0.104516,-0.12542 -0.230883,-0.23089 -0.346324,-0.34633 z"
         id="path946" /><path
         style="opacity:0.712209;fill:#4d1c0f;fill-opacity:1;fill-rule:evenodd;stroke:none;stroke-width:0.264583px;stroke-linecap:butt;stroke-linejoin:miter;stroke-opacity:1"
         d="m 71.971054,169.21377 c -0.04618,0.11544 -0.09921,0.22837 -0.138528,0.34633 -0.0073,0.0219 0,0.0462 0,0.0693 0,0.0462 0,0.0923 0,0.13853 0,0.0693 0,0.13853 0,0.20779 0,0.16162 0,0.32324 0,0.48486 0,0.0693 0,0.13853 0,0.20779 0,0.0231 0.0073,0.0474 0,0.0693 -0.01632,0.049 -0.05294,0.0896 -0.06927,0.13853 -0.0073,0.0219 0.0056,0.0469 0,0.0693 -0.03541,0.14167 -0.103113,0.27393 -0.13853,0.41559 -0.0173,0.0693 0.03463,0.13853 0,0.20779 -0.0292,0.0584 -0.102304,0.0842 -0.138528,0.13853 -0.01281,0.0192 0,0.0462 0,0.0693 0,0.0231 0.01032,0.0486 0,0.0693 -0.08559,0.17118 -0.06927,-0.0239 -0.06927,0.13853 0,0.0462 0,0.0924 0,0.13853 0,0.0231 0,0.0924 0,0.0693 0,-0.23089 0,-0.46177 0,-0.69265 0,-0.0693 0,-0.13853 0,-0.20779 0,-0.0462 -0.01119,-0.0937 0,-0.13853 0.01251,-0.0501 0.04618,-0.0924 0.06927,-0.13853 0.0231,-0.0462 0.05914,-0.0879 0.06927,-0.13853 0.01357,-0.0679 0,-0.13853 0,-0.2078 0,-0.16161 0,-0.32323 0,-0.48485 0,-0.0923 0,-0.18471 0,-0.27706 0,-0.0231 -0.0073,-0.0474 0,-0.0693 0.01632,-0.049 0.05294,-0.0896 0.06926,-0.13853 0.0073,-0.0219 0,-0.0462 0,-0.0693 0,-0.0231 -0.01479,-0.0515 0,-0.0693 0.104516,-0.12542 0.230883,-0.23089 0.346324,-0.34633 z"
         id="path947" /></g></g></svg>
