<?xml version="1.0" encoding="UTF-8" standalone="no"?>
<!-- Created with Inkscape (http://www.inkscape.org/) -->

<svg
   width="31.999998"
   height="31.999998"
   viewBox="0 0 8.4666661 8.4666661"
   version="1.1"
   id="svg1"
   xml:space="preserve"
   inkscape:version="1.3 (0e150ed6c4, 2023-07-21)"
   sodipodi:docname="sphere_particle.svg"
   xmlns:inkscape="http://www.inkscape.org/namespaces/inkscape"
   xmlns:sodipodi="http://sodipodi.sourceforge.net/DTD/sodipodi-0.dtd"
   xmlns:xlink="http://www.w3.org/1999/xlink"
   xmlns="http://www.w3.org/2000/svg"
   xmlns:svg="http://www.w3.org/2000/svg"><sodipodi:namedview
     id="namedview1"
     pagecolor="#505050"
     bordercolor="#eeeeee"
     borderopacity="1"
     inkscape:showpageshadow="0"
     inkscape:pageopacity="0"
     inkscape:pagecheckerboard="0"
     inkscape:deskcolor="#191919"
     inkscape:document-units="mm"
     inkscape:zoom="7.5120555"
     inkscape:cx="18.104233"
     inkscape:cy="24.227723"
     inkscape:window-width="1280"
     inkscape:window-height="961"
     inkscape:window-x="-8"
     inkscape:window-y="-8"
     inkscape:window-maximized="1"
     inkscape:current-layer="layer1" /><defs
     id="defs1"><linearGradient
       id="linearGradient3"
       inkscape:collect="always"><stop
         style="stop-color:#b2b1b1;stop-opacity:1;"
         offset="0"
         id="stop3" /><stop
         style="stop-color:#b2b1b1;stop-opacity:0.64285713;"
         offset="0.25"
         id="stop6" /><stop
         style="stop-color:#b2b1b1;stop-opacity:1;"
         offset="0.5"
         id="stop5" /><stop
         style="stop-color:#b2b1b1;stop-opacity:0.59243697;"
         offset="0.75"
         id="stop7" /><stop
         style="stop-color:#b2b1b1;stop-opacity:0.58403361;"
         offset="1"
         id="stop4" /></linearGradient><inkscape:path-effect
       effect="spiro"
       id="path-effect3"
       is_visible="true"
       lpeversion="1" /><linearGradient
       id="linearGradient1"
       inkscape:collect="always"><stop
         style="stop-color:#ffffff;stop-opacity:0.3277311;"
         offset="0"
         id="stop1" /><stop
         style="stop-color:#ffffff;stop-opacity:0;"
         offset="0.86627907"
         id="stop2" /></linearGradient><radialGradient
       inkscape:collect="always"
       xlink:href="#linearGradient1"
       id="radialGradient2"
       cx="4.2333331"
       cy="4.2333331"
       fx="4.2333331"
       fy="4.2333331"
       r="4.2333331"
       gradientUnits="userSpaceOnUse" /><linearGradient
       inkscape:collect="always"
       xlink:href="#linearGradient3"
       id="linearGradient4"
       x1="13.122986"
       y1="0.6966579"
       x2="13.188256"
       y2="7.7199025"
       gradientUnits="userSpaceOnUse" /></defs><g
     inkscape:label="Layer 1"
     inkscape:groupmode="layer"
     id="layer1"><g
       id="g7"><circle
         style="opacity:1;fill:url(#radialGradient2);fill-rule:evenodd;stroke:none;stroke-width:0.15875"
         id="path1"
         cx="4.2333331"
         cy="4.2333331"
         r="4.2333331"
         inkscape:export-filename="sphere_particle.svg"
         inkscape:export-xdpi="96"
         inkscape:export-ydpi="96" /><path
         style="opacity:0.62908;fill:none;fill-rule:evenodd;stroke:url(#linearGradient4);stroke-width:0.264583px;stroke-linecap:butt;stroke-linejoin:miter"
         d="M 10.953782,7.8014877 C 11.01366,7.6034746 11.093822,7.4116016 11.192608,7.2298438 11.291069,7.0486839 11.410285,6.8750912 11.570132,6.7448515 11.718139,6.624259 11.895881,6.5448458 12.045988,6.4268784 12.168189,6.3308426 12.269448,6.2113749 12.375599,6.09785 12.490678,5.9747766 12.612702,5.8574849 12.714782,5.7234335 12.839857,5.5591861 12.935031,5.364812 12.944949,5.1586021 12.954334,4.9634825 12.887319,4.7724838 12.802832,4.5963539 12.694134,4.3697512 12.555202,4.1583055 12.397802,3.9623739 12.254778,3.7843378 12.095828,3.61799 11.97322,3.4253246 11.860189,3.2477076 11.778578,3.0434139 11.781452,2.8329011 c 0.0029,-0.2124523 0.09075,-0.414352 0.19212,-0.6010838 0.134007,-0.2468547 0.293928,-0.4785337 0.441843,-0.7173146 0.114093,-0.1841812 0.221433,-0.3731877 0.3522,-0.5459298 0.06501,-0.0858794 0.135653,-0.16749618 0.21132,-0.24415254 0.02731,0.16869355 0.04933,0.33824124 0.06604,0.50831164 0.009,0.092122 0.01659,0.1847097 0.03658,0.2750907 0.01999,0.090381 0.05308,0.1792395 0.108704,0.2532267 0.05853,0.077852 0.139675,0.1361695 0.225685,0.1818765 0.08601,0.045707 0.177585,0.07981 0.267395,0.1175045 0.213277,0.089516 0.417683,0.1997894 0.633968,0.281772 0.241418,0.091509 0.496353,0.1472761 0.730505,0.256039 0.186986,0.086854 0.358682,0.2071592 0.501932,0.3554385 0.155289,0.1607408 0.275204,0.3514782 0.405298,0.5332135 0.06944,0.097002 0.142151,0.1919338 0.203587,0.2941923 0.06144,0.1022585 0.11173,0.2128796 0.131941,0.3304496 0.02971,0.1728468 -0.0093,0.3565455 -0.106598,0.5024371 -0.09197,0.1741821 -0.254194,0.309961 -0.441849,0.369824 -0.116414,0.037136 -0.239675,0.045697 -0.361437,0.055946 -0.121763,0.010249 -0.245171,0.022856 -0.358984,0.06733 -0.138238,0.054018 -0.257362,0.1550293 -0.33459,0.281771 -0.114063,0.1871922 -0.133511,0.4189465 -0.10566,0.6363762 0.02739,0.2138685 0.09738,0.4210721 0.19371,0.6139737 0.08081,0.161827 0.180282,0.3143262 0.295811,0.4535075 0.118695,0.1242525 0.205554,0.2786723 0.250099,0.4446329 0.02309,0.086037 0.03496,0.1750783 0.03522,0.2641599"
         id="path3"
         inkscape:path-effect="#path-effect3"
         inkscape:original-d="M 10.953782,7.8014877 C 10.880418,7.5611802 11.074269,7.4149599 11.192608,7.2298438 11.300931,7.060395 11.342885,6.8785451 11.570132,6.7448515 11.754899,6.6361496 11.874073,6.56859 12.045988,6.4268784 12.166106,6.3278634 12.263803,6.2062208 12.375599,6.09785 12.506462,5.9709964 12.594483,5.8549419 12.714782,5.7234335 12.862615,5.5618255 12.931089,5.3712984 12.944949,5.1586021 12.95832,4.9534131 12.899586,4.7666666 12.802832,4.5963539 12.680187,4.3804671 12.534883,4.1654552 12.397802,3.9623739 12.278916,3.7862473 12.112917,3.6423982 11.97322,3.4253246 11.864382,3.2562027 11.800308,3.0506132 11.781452,2.8329011 c -0.02006,-0.2316002 0.14039,-0.3925484 0.19212,-0.6010838 0.0396,-0.1596247 0.263723,-0.529913 0.441843,-0.7173146 0.148687,-0.1564349 0.23168,-0.3346953 0.3522,-0.5459298 0.03982,-0.0697973 0.224659,-0.40438618 0.21132,-0.24415254 0.01147,0.0656919 0.06502,0.45920264 0.06604,0.50831164 0.0044,0.2113415 0.01592,0.3599634 0.145281,0.5283174 0.08716,0.1134327 0.312403,0.2197651 0.49308,0.299381 0.208337,0.091804 0.405332,0.2268503 0.633968,0.281772 0.254088,0.061035 0.488386,0.1597267 0.730505,0.256039 0.19583,0.077899 0.363324,0.2077363 0.501932,0.3554385 0.164155,0.1611745 0.265359,0.341913 0.405298,0.5332135 0.138091,0.188774 0.354635,0.3510732 0.335528,0.6246419 -0.01824,0.2357838 -0.03389,0.259455 -0.106598,0.5024371 -0.137572,0.1331875 -0.254144,0.3476736 -0.441849,0.369824 -0.241867,0.028542 -0.502867,0.074282 -0.720421,0.123276 -0.199654,0.044963 -0.292819,0.1069701 -0.33459,0.281771 -0.04933,0.2064358 -0.100315,0.4107654 -0.10566,0.6363762 -0.0053,0.2222993 0.07469,0.4282597 0.19371,0.6139737 0.103706,0.1618156 0.225422,0.2815379 0.295811,0.4535075 0.147355,0.1243447 0.173641,0.2761956 0.250099,0.4446329 0.03053,0.067259 0.03868,0.1601471 0.03522,0.2641599"
         sodipodi:nodetypes="cssssssssssssscssssscsccssssscsc"
         transform="translate(-9.3954858,0.09976844)" /></g></g></svg>
