<?xml version="1.0" encoding="UTF-8" standalone="no"?>
<!-- Created with Inkscape (http://www.inkscape.org/) -->

<svg
   width="32"
   height="32"
   viewBox="0 0 8.4666666 8.4666666"
   version="1.1"
   id="svg1"
   xml:space="preserve"
   inkscape:version="1.3 (0e150ed6c4, 2023-07-21)"
   sodipodi:docname="RainDrop.svg"
   xmlns:inkscape="http://www.inkscape.org/namespaces/inkscape"
   xmlns:sodipodi="http://sodipodi.sourceforge.net/DTD/sodipodi-0.dtd"
   xmlns:xlink="http://www.w3.org/1999/xlink"
   xmlns="http://www.w3.org/2000/svg"
   xmlns:svg="http://www.w3.org/2000/svg"><sodipodi:namedview
     id="namedview1"
     pagecolor="#505050"
     bordercolor="#eeeeee"
     borderopacity="1"
     inkscape:showpageshadow="0"
     inkscape:pageopacity="0"
     inkscape:pagecheckerboard="0"
     inkscape:deskcolor="#191919"
     inkscape:document-units="mm"
     inkscape:zoom="10.623651"
     inkscape:cx="17.978754"
     inkscape:cy="16.47268"
     inkscape:window-width="1280"
     inkscape:window-height="961"
     inkscape:window-x="-8"
     inkscape:window-y="-8"
     inkscape:window-maximized="1"
     inkscape:current-layer="layer1" /><defs
     id="defs1"><linearGradient
       id="linearGradient247"
       inkscape:collect="always"><stop
         style="stop-color:#808080;stop-opacity:0.5;"
         offset="0"
         id="stop247" /><stop
         style="stop-color:#808080;stop-opacity:1;"
         offset="0.06510416"
         id="stop252" /><stop
         style="stop-color:#c2c2c2;stop-opacity:1;"
         offset="0.46875"
         id="stop249" /><stop
         style="stop-color:#c2c2c2;stop-opacity:1;"
         offset="0.51302081"
         id="stop250" /><stop
         style="stop-color:#808080;stop-opacity:1;"
         offset="0.907552"
         id="stop251" /><stop
         style="stop-color:#808080;stop-opacity:0.5;"
         offset="1"
         id="stop248" /></linearGradient><linearGradient
       inkscape:collect="always"
       xlink:href="#linearGradient247"
       id="linearGradient248"
       x1="21.851948"
       y1="8.2229305"
       x2="23.991587"
       y2="8.2229305"
       gradientUnits="userSpaceOnUse"
       gradientTransform="matrix(1.0037187,0,0,0.95362167,-18.605407,-3.6105379)" /></defs><g
     inkscape:label="Layer 1"
     inkscape:groupmode="layer"
     id="layer1"><path
       style="opacity:0.735905;fill:url(#linearGradient248);fill-rule:evenodd;stroke:#878787;stroke-width:0.258854;stroke-linecap:butt;stroke-linejoin:miter;stroke-dasharray:none;stroke-opacity:0.503311"
       d="m 4.4050103,0.19540999 c 0.03808,-0.00123 0.06197,0.49381478 0.062491,0.59375157 0.00107,0.2059838 0.014634,0.62337904 0.030804,0.82879294 0.011242,0.1429791 0.1469601,0.3794042 0.1484656,0.4813607 0.0018,0.1210909 0.045699,0.3464135 0.045699,0.4414136 0,0.095001 0.040169,0.262453 0.09999,0.3800012 0.05948,0.1168981 0.00463,0.1911195 0.062495,0.3087509 0.097582,0.1983708 0.1601809,0.4700013 0.1499871,0.6887518 -0.013922,0.2987934 -0.0392,0.6637616 -0.037494,0.8906275 0.0017,0.2280129 0.041975,0.5260927 0.037499,0.8431273 -0.00292,0.2064233 -0.041655,0.4112112 -0.049995,0.6175015 -0.00642,0.1582173 0.016919,0.3700113 0,0.4750018 C 4.8804811,7.2066251 4.9497724,7.5520535 4.8049602,7.908244 4.7495989,8.0444144 4.5903217,8.1716239 4.4549923,8.2407443 4.3366499,8.3011847 4.2258642,8.2564406 4.0925251,8.2407442 3.9328172,8.2219483 3.8972591,8.1887479 3.7675546,8.0982436 3.6815458,8.0382321 3.6778823,7.9564105 3.6425654,7.8607422 3.5956817,7.7337455 3.576601,7.5912983 3.5675676,7.4569911 3.5508657,7.2100489 3.484279,6.9676821 3.4675772,6.7207399 c -0.015498,-0.2291115 0,-0.4591679 0,-0.6887513 0,-0.2612508 -0.00742,-0.5225968 0,-0.7837522 0.00834,-0.2932382 0.021239,-0.5866825 0.049995,-0.8787524 0.023487,-0.2385609 0.0565,-0.4764887 0.099991,-0.7125019 C 3.651378,3.4734367 3.6985109,3.3751991 3.7800486,3.2057308 3.8320115,3.0977306 3.922335,2.9364444 3.9675315,2.8257298 4.0613696,2.5958505 4.1132333,2.1998311 4.1132333,2.0810807 c 0,-0.1187503 0.1530125,-0.495781 0.1499913,-0.638283 -0.00242,-0.113799 0.040602,-0.80118087 0.043335,-0.82137086 0.013505,-0.0998214 0.05486,-0.42460396 0.098451,-0.42601685 z"
       id="path247"
       sodipodi:nodetypes="sssssssssssssssssssssssssssss" /></g></svg>
