<?xml version="1.0" encoding="UTF-8" standalone="no"?>
<!-- Created with Inkscape (http://www.inkscape.org/) -->

<svg
   width="68.441406"
   height="115.9614"
   viewBox="0 0 18.108455 30.681452"
   version="1.1"
   id="svg1"
   xml:space="preserve"
   inkscape:version="1.3.2 (091e20ef0f, 2023-11-25)"
   sodipodi:docname="GameZipLine.svg"
   xmlns:inkscape="http://www.inkscape.org/namespaces/inkscape"
   xmlns:sodipodi="http://sodipodi.sourceforge.net/DTD/sodipodi-0.dtd"
   xmlns="http://www.w3.org/2000/svg"
   xmlns:svg="http://www.w3.org/2000/svg"><sodipodi:namedview
     id="namedview1"
     pagecolor="#505050"
     bordercolor="#eeeeee"
     borderopacity="1"
     inkscape:showpageshadow="0"
     inkscape:pageopacity="0"
     inkscape:pagecheckerboard="0"
     inkscape:deskcolor="#d1d1d1"
     inkscape:document-units="mm"
     inkscape:zoom="1.9099423"
     inkscape:cx="-478.81028"
     inkscape:cy="333.51793"
     inkscape:window-width="1366"
     inkscape:window-height="706"
     inkscape:window-x="-8"
     inkscape:window-y="-8"
     inkscape:window-maximized="1"
     inkscape:current-layer="layer2"
     showgrid="false"
     showguides="false" /><defs
     id="defs1" /><g
     inkscape:groupmode="layer"
     id="layer2"
     inkscape:label="Layer 2"
     transform="translate(140.49118,-113.39158)"><g
       id="g380"><path
         style="fill:#696969;fill-opacity:1;fill-rule:evenodd;stroke:#282828;stroke-width:0.166676px;stroke-linecap:butt;stroke-linejoin:miter;stroke-opacity:1"
         d="m -127.7615,143.87781 5.289,-14.55251 -1.77278,-4.01333 -0.35406,-0.11259 -1.38534,1.0759 -0.27624,0.30353 -0.33858,0.24486 -0.2463,0.1726 -1.45925,1.1223 -0.39204,6.14538 -1.00315,9.23397 z"
         id="path265"
         sodipodi:nodetypes="cccccccccccc" /><path
         style="fill:#8b8b8b;fill-opacity:1;fill-rule:evenodd;stroke:none;stroke-width:0.166676px;stroke-linecap:butt;stroke-linejoin:miter;stroke-opacity:1"
         d="m -124.36217,125.82329 c -1.66376,0.63246 -3.48398,2.77998 -3.48398,2.77998 l 0.0197,2.82133 -0.62751,6.34476 -0.62404,4.66811 0.90845,-3.55865 0.76658,-0.58436 0.58624,-5.05655 0.6154,-3.24584 0.34376,-0.39616 1.35351,0.30941 1.2401,-0.8559 0.11002,-0.48125 z"
         id="path266" /><path
         style="fill:#3e3e3e;fill-opacity:1;fill-rule:evenodd;stroke:none;stroke-width:0.166676px;stroke-linecap:butt;stroke-linejoin:miter;stroke-opacity:1"
         d="m -129.72344,143.46096 2.0453,0.46756 5.18244,-14.64017 -1.81661,-3.96006 0.71893,3.98014 -1.81046,3.29008 -0.47453,2.62631 -1.56778,4.01025 -1.45597,3.82031 -0.78521,-0.0293 z"
         id="path267"
         sodipodi:nodetypes="ccccccccccc" /><path
         style="fill:#696969;fill-opacity:1;fill-rule:evenodd;stroke:none;stroke-width:0.166676px;stroke-linecap:butt;stroke-linejoin:miter;stroke-opacity:1"
         d="m -124.56329,126.98001 -0.51399,1.97138 0.26467,0.5036 0.80611,-0.48036 0.0868,-0.51821 z"
         id="path268" /><path
         style="fill:#8b8b8b;fill-opacity:1;fill-rule:evenodd;stroke:none;stroke-width:0.166676px;stroke-linecap:butt;stroke-linejoin:miter;stroke-opacity:1"
         d="m -125.44683,130.29115 -0.80188,3.64632 0.38159,-1.11546 0.4065,-0.25523 0.38674,-1.96882 z"
         id="path269" /><path
         style="fill:#bdbdbd;fill-opacity:1;fill-rule:evenodd;stroke:none;stroke-width:0.166676px;stroke-linecap:butt;stroke-linejoin:miter;stroke-opacity:1"
         d="m -124.95085,126.32171 c 0,0 -0.14439,0.63164 -0.2269,0.99257 -0.0825,0.36094 0.007,1.07766 0.007,1.07766 l -0.18053,1.06647 -0.67032,0.16327 -0.79663,-0.53026 -0.48812,-0.0799 -0.45459,-0.64197 1.27018,-0.84903 0.73823,-0.87568 z"
         id="path270" /><path
         style="fill:#bdbdbd;fill-opacity:1;fill-rule:evenodd;stroke:none;stroke-width:0.166676px;stroke-linecap:butt;stroke-linejoin:miter;stroke-opacity:1"
         d="m -125.91002,129.96372 -0.2518,0.13234 -0.30683,1.48069 0.1461,0.19165 -1.41555,5.49996 0.15984,0.13149 1.43102,-5.84457 0.35839,-1.15241 z"
         id="path271" /><path
         style="fill:#696969;fill-opacity:1;fill-rule:evenodd;stroke:#282828;stroke-width:0.166676px;stroke-linecap:butt;stroke-linejoin:miter;stroke-opacity:1"
         d="m -134.12348,143.96622 0.0916,-8.07038 -0.49715,-7.75868 -3.11488,-3.08985 -0.37073,0.0244 -0.89728,1.50719 -0.14645,0.3834 -0.22589,0.35151 -0.16635,0.25056 -0.94917,1.57736 1.82822,5.35051 2.43512,8.9634 z"
         id="path272"
         sodipodi:nodetypes="ccccccccccccc" /><path
         style="fill:#8b8b8b;fill-opacity:1;fill-rule:evenodd;stroke:none;stroke-width:0.166676px;stroke-linecap:butt;stroke-linejoin:miter;stroke-opacity:1"
         d="m -137.56617,125.56604 c -1.31832,1.1959 -2.2295,3.85951 -2.2295,3.85951 l 1.04772,2.61964 1.7307,6.13632 1.12219,4.57399 -0.45258,-3.64479 0.50052,-0.82376 -1.29911,-4.92186 -0.61131,-3.24661 0.17552,-0.49428 1.37309,-0.20576 0.84233,-1.24937 -0.0732,-0.48821 z"
         id="path273" /><path
         style="fill:#3e3e3e;fill-opacity:1;fill-rule:evenodd;stroke:none;stroke-width:0.166676px;stroke-linecap:butt;stroke-linejoin:miter;stroke-opacity:1"
         d="m -136.14704,143.50313 1.95245,0.42374 0.20706,-7.90783 -0.57658,-7.90782 -3.13625,-3.02425 2.12157,3.44345 -0.48523,3.72383 0.51642,2.61839 0.003,4.30582 0.0383,4.08817 -0.8642,-0.35297 z"
         id="path274"
         sodipodi:nodetypes="cccccccccccc" /><path
         style="fill:#696969;fill-opacity:1;fill-rule:evenodd;stroke:none;stroke-width:0.166676px;stroke-linecap:butt;stroke-linejoin:miter;stroke-opacity:1"
         d="m -137.33139,126.71639 0.24073,2.02302 0.43017,0.37232 0.57527,-0.74137 -0.10826,-0.51415 z"
         id="path275" /><path
         style="fill:#8b8b8b;fill-opacity:1;fill-rule:evenodd;stroke:none;stroke-width:0.166676px;stroke-linecap:butt;stroke-linejoin:miter;stroke-opacity:1"
         d="m -136.94591,130.12164 0.58379,3.68752 -0.0517,-1.17779 0.28536,-0.38594 -0.35827,-1.97421 z"
         id="path276" /><path
         style="fill:#bdbcbd;fill-opacity:1;fill-rule:evenodd;stroke:none;stroke-width:0.166676px;stroke-linecap:butt;stroke-linejoin:miter;stroke-opacity:1"
         d="m -137.93242,126.24489 c 0,0 0.096,0.64077 0.15089,1.00693 0.0549,0.36616 0.39957,1.00087 0.39957,1.00087 l 0.22103,1.05882 -0.56454,0.39658 -0.93518,-0.20304 -0.48364,0.10367 -0.65748,-0.43185 0.87284,-1.25393 0.36783,-1.08467 z"
         id="path277" /><path
         style="fill:#bdbdbd;fill-opacity:1;fill-rule:evenodd;stroke:none;stroke-width:0.166676px;stroke-linecap:butt;stroke-linejoin:miter;stroke-opacity:1"
         d="m -137.49663,129.98578 -0.18617,0.21509 0.25458,1.49057 0.20594,0.12513 0.68877,5.63729 0.19679,0.0641 -0.80008,-5.96378 -0.0868,-1.20373 z"
         id="path278" /><path
         style="fill:#696969;fill-opacity:1;fill-rule:evenodd;stroke:#282828;stroke-width:0.264583px;stroke-linecap:butt;stroke-linejoin:miter;stroke-opacity:1"
         d="m -129.82274,143.55247 3.03661,-24.39082 -4.16309,-5.58345 -0.58773,-0.049 -1.76319,2.15502 -0.3201,0.56744 -0.43732,0.49869 -0.32009,0.35422 -1.86115,2.25296 1.56729,9.64858 1.71421,14.6443 z"
         id="path281"
         sodipodi:nodetypes="cccccccccccc" /><path
         style="fill:#8b8b8b;fill-opacity:1;fill-rule:evenodd;stroke:none;stroke-width:0.264583px;stroke-linecap:butt;stroke-linejoin:miter;stroke-opacity:1"
         d="m -130.94922,114.41082 c -2.35092,1.56728 -4.40798,5.53447 -4.40798,5.53447 l 1.02853,4.359 1.27342,10.0404 0.68568,7.44459 0.14693,-5.82833 0.97955,-1.17546 -0.88159,-8.03232 -0.19591,-5.2406 0.39182,-0.73466 h 2.20399 l 1.61626,-1.7632 v -0.78364 z"
         id="path282" /><path
         style="fill:#3e3e3e;fill-opacity:1;fill-rule:evenodd;stroke:none;stroke-width:0.264583px;stroke-linecap:butt;stroke-linejoin:miter;stroke-opacity:1"
         d="m -133.00628,143.60145 h 3.33048 l 2.8407,-24.48878 -4.21208,-5.48549 3.13457,5.87731 -1.46933,5.97526 -0.58773,4.01616 -0.19591,6.85686 -0.58773,6.07322 -2.35092,0.48977 z"
         id="path283" /><path
         style="fill:#696969;fill-opacity:1;fill-rule:evenodd;stroke:none;stroke-width:0.264583px;stroke-linecap:butt;stroke-linejoin:miter;stroke-opacity:1"
         d="m -130.85126,116.27197 -0.098,3.23252 0.58773,0.68569 1.07751,-1.02853 -0.049,-0.83262 z"
         id="path284" /><path
         style="fill:#8b8b8b;fill-opacity:1;fill-rule:evenodd;stroke:none;stroke-width:0.264583px;stroke-linecap:butt;stroke-linejoin:miter;stroke-opacity:1"
         d="m -131.04718,121.70848 0.049,5.92629 0.19591,-1.86115 0.53876,-0.53876 -0.098,-3.18354 z"
         id="path285" /><path
         style="fill:#bdbdbd;fill-opacity:1;fill-rule:evenodd;stroke:none;stroke-width:0.264583px;stroke-linecap:butt;stroke-linejoin:miter;stroke-opacity:1"
         d="m -131.68388,115.39037 c 0,0 0,1.02853 0,1.61626 0,0.58773 0.39182,1.66524 0.39182,1.66524 l 0.0979,1.71422 -0.97955,0.48977 -1.42035,-0.53875 -0.78364,0.049 -0.93057,-0.83262 1.66523,-1.76319 0.83262,-1.61626 z"
         id="path286" /><path
         style="fill:#bdbdbd;fill-opacity:1;fill-rule:evenodd;stroke:none;stroke-width:0.264583px;stroke-linecap:butt;stroke-linejoin:miter;stroke-opacity:1"
         d="m -131.87979,121.36564 -0.34285,0.29386 0.049,2.3999 0.29387,0.24489 -0.24489,9.01187 0.29386,0.14694 0.14694,-9.55063 0.14693,-1.91012 z"
         id="path287" /><path
         style="fill:#696969;fill-opacity:1;fill-rule:evenodd;stroke:#282828;stroke-width:0.0846315px;stroke-linecap:butt;stroke-linejoin:miter;stroke-opacity:1"
         d="m -133.13538,143.8374 -0.19562,-7.85964 -1.58161,-1.56889 -0.18824,0.0124 -0.45561,0.76529 -0.0744,0.19468 -0.1147,0.17848 -0.0845,0.12723 -0.48195,0.80091 0.95316,2.9779 1.23646,4.55125 z"
         id="path288"
         sodipodi:nodetypes="cccccccccccc" /><path
         style="fill:#8b8b8b;fill-opacity:1;fill-rule:evenodd;stroke:none;stroke-width:0.0846315px;stroke-linecap:butt;stroke-linejoin:miter;stroke-opacity:1"
         d="m -134.87314,134.67225 c -0.66939,0.60723 -1.13205,1.95971 -1.13205,1.95971 l 0.53199,1.33015 0.87878,3.11577 0.5698,2.32249 -0.2298,-1.85068 0.25414,-0.41827 -0.65963,-2.49912 -0.3104,-1.6485 0.0891,-0.25098 0.6972,-0.10447 0.4277,-0.63438 -0.0371,-0.24789 z"
         id="path289" /><path
         style="fill:#3e3e3e;fill-opacity:1;fill-rule:evenodd;stroke:none;stroke-width:0.0846315px;stroke-linecap:butt;stroke-linejoin:miter;stroke-opacity:1"
         d="m -134.14013,144.0038 1.05355,-0.15787 -0.26224,-7.88134 -1.59246,-1.53559 1.07725,1.74845 -0.24638,1.89081 0.26222,1.32951 0.002,2.18632 0.0194,2.07581 -0.37664,0.13164 z"
         id="path290"
         sodipodi:nodetypes="ccccccccccc" /><path
         style="fill:#696969;fill-opacity:1;fill-rule:evenodd;stroke:none;stroke-width:0.0846315px;stroke-linecap:butt;stroke-linejoin:miter;stroke-opacity:1"
         d="m -134.75393,135.25636 0.12223,1.0272 0.21843,0.18905 0.29209,-0.37644 -0.055,-0.26106 z"
         id="path291" /><path
         style="fill:#8b8b8b;fill-opacity:1;fill-rule:evenodd;stroke:none;stroke-width:0.0846315px;stroke-linecap:butt;stroke-linejoin:miter;stroke-opacity:1"
         d="m -134.5582,136.98541 0.29643,1.87237 -0.0262,-0.59803 0.14489,-0.19597 -0.18191,-1.00242 z"
         id="path292" /><path
         style="fill:#bdbdbd;fill-opacity:1;fill-rule:evenodd;stroke:none;stroke-width:0.0846315px;stroke-linecap:butt;stroke-linejoin:miter;stroke-opacity:1"
         d="m -135.05911,135.01695 c 0,0 0.0488,0.32536 0.0766,0.51128 0.0279,0.18592 0.20288,0.5082 0.20288,0.5082 l 0.11223,0.53762 -0.28665,0.20137 -0.47484,-0.1031 -0.24558,0.0526 -0.33384,-0.21928 0.44319,-0.6367 0.18677,-0.55075 z"
         id="path293" /><path
         style="fill:#bdbdbd;fill-opacity:1;fill-rule:evenodd;stroke:none;stroke-width:0.0846315px;stroke-linecap:butt;stroke-linejoin:miter;stroke-opacity:1"
         d="m -134.83783,136.91642 -0.0945,0.10921 0.12927,0.75685 0.10457,0.0635 0.34972,2.86239 0.0999,0.0326 -0.40625,-3.02817 -0.0441,-0.61121 z"
         id="path294" /><path
         style="fill:#696969;fill-opacity:1;fill-rule:evenodd;stroke:#282828;stroke-width:0.107831px;stroke-linecap:butt;stroke-linejoin:miter;stroke-opacity:1"
         d="m -129.95768,143.6441 3.1797,-9.256 -1.18476,-2.57936 -0.2301,-0.0695 -0.88596,0.70909 -0.17583,0.19896 -0.2167,0.1616 -0.15769,0.11398 -0.93334,0.73981 -0.19543,3.97904 -0.56152,5.98276 z"
         id="path295"
         sodipodi:nodetypes="cccccccccccc" /><path
         style="fill:#8b8b8b;fill-opacity:1;fill-rule:evenodd;stroke:none;stroke-width:0.107831px;stroke-linecap:butt;stroke-linejoin:miter;stroke-opacity:1"
         d="m -128.03351,132.14061 c -1.07027,0.42487 -2.22741,1.83129 -2.22741,1.83129 l 0.0394,1.82488 -0.34587,4.11023 -0.35949,3.02562 0.55397,-2.31062 0.49036,-0.38526 0.33136,-3.27653 0.36737,-2.1055 0.21862,-0.25953 0.87849,0.18735 0.79409,-0.56541 0.0666,-0.31235 z"
         id="path296" /><path
         style="fill:#3e3e3e;fill-opacity:1;fill-rule:evenodd;stroke:none;stroke-width:0.107831px;stroke-linecap:butt;stroke-linejoin:miter;stroke-opacity:1"
         d="m -131.33467,143.60082 1.36213,0.058 3.17921,-9.29438 -1.21262,-2.54449 0.50274,2.56787 -1.14001,2.14542 -0.2821,1.7034 -0.97621,2.60899 -0.90568,2.48507 -0.50821,-0.0115 z"
         id="path297"
         sodipodi:nodetypes="ccccccccccc" /><path
         style="fill:#696969;fill-opacity:1;fill-rule:evenodd;stroke:none;stroke-width:0.107831px;stroke-linecap:butt;stroke-linejoin:miter;stroke-opacity:1"
         d="m -128.15267,132.89077 -0.31382,1.28011 0.17597,0.32327 0.51691,-0.31837 0.0513,-0.33604 z"
         id="path299" /><path
         style="fill:#8b8b8b;fill-opacity:1;fill-rule:evenodd;stroke:none;stroke-width:0.107831px;stroke-linecap:butt;stroke-linejoin:miter;stroke-opacity:1"
         d="m -128.69287,135.04105 -0.48421,2.36631 0.23629,-0.72518 0.26054,-0.16894 0.23154,-1.27726 z"
         id="path371" /><path
         style="fill:#bdbdbd;fill-opacity:1;fill-rule:evenodd;stroke:none;stroke-width:0.107831px;stroke-linecap:butt;stroke-linejoin:miter;stroke-opacity:1"
         d="m -128.4096,132.4686 c 0,0 -0.0874,0.40996 -0.13739,0.64422 -0.0499,0.23427 0.0146,0.69705 0.0146,0.69705 l -0.10669,0.69159 -0.43207,0.11196 -0.52034,-0.33547 -0.31651,-0.0471 -0.30014,-0.41097 0.81361,-0.56125 0.46926,-0.57344 z"
         id="path379" /><path
         style="fill:#bdbdbd;fill-opacity:1;fill-rule:evenodd;stroke:none;stroke-width:0.107831px;stroke-linecap:butt;stroke-linejoin:miter;stroke-opacity:1"
         d="m -128.99559,134.83362 -0.16164,0.088 -0.18446,0.96074 0.0963,0.12259 -0.86363,3.57121 0.10464,0.0835 0.87038,-3.79428 0.22093,-0.74887 z"
         id="path380" /></g></g></svg>
