<?xml version="1.0" encoding="UTF-8" standalone="no"?>
<!-- Created with Inkscape (http://www.inkscape.org/) -->

<svg
   width="20.885073mm"
   height="17.922016mm"
   viewBox="0 0 20.885073 17.922016"
   version="1.1"
   id="svg1"
   xml:space="preserve"
   inkscape:version="1.3 (0e150ed6c4, 2023-07-21)"
   sodipodi:docname="wolf.svg"
   xmlns:inkscape="http://www.inkscape.org/namespaces/inkscape"
   xmlns:sodipodi="http://sodipodi.sourceforge.net/DTD/sodipodi-0.dtd"
   xmlns:xlink="http://www.w3.org/1999/xlink"
   xmlns="http://www.w3.org/2000/svg"
   xmlns:svg="http://www.w3.org/2000/svg"><sodipodi:namedview
     id="namedview1"
     pagecolor="#505050"
     bordercolor="#eeeeee"
     borderopacity="1"
     inkscape:showpageshadow="0"
     inkscape:pageopacity="0"
     inkscape:pagecheckerboard="0"
     inkscape:deskcolor="#d1d1d1"
     inkscape:document-units="mm"
     inkscape:zoom="1.3505331"
     inkscape:cx="106.25434"
     inkscape:cy="504.98578"
     inkscape:window-width="1280"
     inkscape:window-height="961"
     inkscape:window-x="-8"
     inkscape:window-y="-8"
     inkscape:window-maximized="1"
     inkscape:current-layer="layer1" /><defs
     id="defs1"><linearGradient
       id="linearGradient694"
       inkscape:collect="always"><stop
         style="stop-color:#0072b4;stop-opacity:1;"
         offset="0"
         id="stop693" /><stop
         style="stop-color:#61bbd5;stop-opacity:1;"
         offset="1"
         id="stop694" /></linearGradient><inkscape:path-effect
       effect="bspline"
       id="path-effect672"
       is_visible="true"
       lpeversion="1.3"
       weight="33.333333"
       steps="2"
       helper_size="0"
       apply_no_weight="true"
       apply_with_weight="true"
       only_selected="false"
       uniform="false" /><inkscape:path-effect
       effect="bspline"
       id="path-effect665"
       is_visible="true"
       lpeversion="1.3"
       weight="33.333333"
       steps="2"
       helper_size="0"
       apply_no_weight="true"
       apply_with_weight="true"
       only_selected="false"
       uniform="false" /><inkscape:path-effect
       effect="bspline"
       id="path-effect663"
       is_visible="true"
       lpeversion="1.3"
       weight="33.333333"
       steps="2"
       helper_size="0"
       apply_no_weight="true"
       apply_with_weight="true"
       only_selected="false"
       uniform="false" /><inkscape:path-effect
       effect="bspline"
       id="path-effect661"
       is_visible="true"
       lpeversion="1.3"
       weight="33.333333"
       steps="2"
       helper_size="0"
       apply_no_weight="true"
       apply_with_weight="true"
       only_selected="false"
       uniform="false" /><inkscape:path-effect
       effect="bspline"
       id="path-effect657"
       is_visible="true"
       lpeversion="1.3"
       weight="33.333333"
       steps="2"
       helper_size="0"
       apply_no_weight="true"
       apply_with_weight="true"
       only_selected="false"
       uniform="false" /><inkscape:path-effect
       effect="bspline"
       id="path-effect653"
       is_visible="true"
       lpeversion="1.3"
       weight="33.333333"
       steps="2"
       helper_size="0"
       apply_no_weight="true"
       apply_with_weight="true"
       only_selected="false"
       uniform="false" /><inkscape:path-effect
       effect="bspline"
       id="path-effect649"
       is_visible="true"
       lpeversion="1.3"
       weight="33.333333"
       steps="2"
       helper_size="0"
       apply_no_weight="true"
       apply_with_weight="true"
       only_selected="false"
       uniform="false" /><inkscape:path-effect
       effect="bspline"
       id="path-effect646"
       is_visible="true"
       lpeversion="1.3"
       weight="33.333333"
       steps="2"
       helper_size="0"
       apply_no_weight="true"
       apply_with_weight="true"
       only_selected="false"
       uniform="false" /><inkscape:path-effect
       effect="bspline"
       id="path-effect644"
       is_visible="true"
       lpeversion="1.3"
       weight="33.333333"
       steps="2"
       helper_size="0"
       apply_no_weight="true"
       apply_with_weight="true"
       only_selected="false"
       uniform="false" /><inkscape:path-effect
       effect="bspline"
       id="path-effect642"
       is_visible="true"
       lpeversion="1.3"
       weight="33.333333"
       steps="2"
       helper_size="0"
       apply_no_weight="true"
       apply_with_weight="true"
       only_selected="false"
       uniform="false" /><inkscape:path-effect
       effect="bspline"
       id="path-effect640"
       is_visible="true"
       lpeversion="1.3"
       weight="33.333333"
       steps="2"
       helper_size="0"
       apply_no_weight="true"
       apply_with_weight="true"
       only_selected="false"
       uniform="false" /><inkscape:path-effect
       effect="bspline"
       id="path-effect607"
       is_visible="true"
       lpeversion="1.3"
       weight="33.333333"
       steps="2"
       helper_size="0"
       apply_no_weight="true"
       apply_with_weight="true"
       only_selected="false"
       uniform="false" /><inkscape:path-effect
       effect="bspline"
       id="path-effect601"
       is_visible="true"
       lpeversion="1.3"
       weight="33.333333"
       steps="2"
       helper_size="0"
       apply_no_weight="true"
       apply_with_weight="true"
       only_selected="false"
       uniform="false" /><linearGradient
       id="linearGradient43"
       inkscape:collect="always"><stop
         style="stop-color:#33241d;stop-opacity:1;"
         offset="0"
         id="stop43" /><stop
         style="stop-color:#33241a;stop-opacity:1;"
         offset="0.23644067"
         id="stop46" /><stop
         style="stop-color:#554941;stop-opacity:1;"
         offset="0.3677966"
         id="stop45" /><stop
         style="stop-color:#786e65;stop-opacity:1;"
         offset="1"
         id="stop44" /></linearGradient><linearGradient
       id="linearGradient40"
       inkscape:collect="always"><stop
         style="stop-color:#e4ddd0;stop-opacity:1;"
         offset="0"
         id="stop40" /><stop
         style="stop-color:#8f8a81;stop-opacity:1;"
         offset="1"
         id="stop41" /></linearGradient><linearGradient
       id="linearGradient38"
       inkscape:collect="always"><stop
         style="stop-color:#431d09;stop-opacity:1;"
         offset="0"
         id="stop38" /><stop
         style="stop-color:#290c01;stop-opacity:1;"
         offset="1"
         id="stop39" /></linearGradient><linearGradient
       inkscape:collect="always"
       xlink:href="#linearGradient43"
       id="linearGradient667"
       gradientUnits="userSpaceOnUse"
       gradientTransform="translate(73.559393,-34.56136)"
       x1="98.963112"
       y1="113.65614"
       x2="99.130547"
       y2="126.58623" /><linearGradient
       inkscape:collect="always"
       xlink:href="#linearGradient40"
       id="linearGradient668"
       gradientUnits="userSpaceOnUse"
       x1="90.229111"
       y1="125.82314"
       x2="106.96267"
       y2="125.82314" /><linearGradient
       inkscape:collect="always"
       xlink:href="#linearGradient694"
       id="linearGradient669"
       gradientUnits="userSpaceOnUse"
       x1="59.66732"
       y1="98.609741"
       x2="61.696346"
       y2="100.54435" /><linearGradient
       inkscape:collect="always"
       xlink:href="#linearGradient694"
       id="linearGradient670"
       gradientUnits="userSpaceOnUse"
       x1="64.916519"
       y1="98.074699"
       x2="67.163445"
       y2="100.30318" /><linearGradient
       inkscape:collect="always"
       xlink:href="#linearGradient38"
       id="linearGradient671"
       gradientUnits="userSpaceOnUse"
       x1="89.91188"
       y1="126.07872"
       x2="89.825188"
       y2="130.61555" /></defs><g
     inkscape:label="Layer 1"
     inkscape:groupmode="layer"
     id="layer1"
     transform="translate(-30.690631,-144.60597)"><g
       id="g639"
       transform="matrix(0.97128824,0,0,0.93406718,-120.64383,-59.90147)"><g
         id="g638"
         transform="matrix(1.0666667,0,0,1.0666667,-17.126204,134.38378)"><path
           style="fill:url(#linearGradient667);fill-rule:evenodd;stroke:#121212;stroke-width:0.165;stroke-linecap:butt;stroke-linejoin:miter;stroke-dasharray:none;stroke-opacity:1"
           d="m 180.78747,79.376899 c -0.13878,-0.0163 -0.45716,0.0571 -0.80409,0.19586 -0.34692,0.13877 -0.72205,0.34266 -1.09347,0.54674 -0.37141,0.20407 -0.73888,0.40818 -1.05316,0.60409 -0.31428,0.19592 -0.57523,0.38364 -0.86093,0.59997 -0.28571,0.21632 -0.5962,0.46147 -0.86558,0.70228 -0.26938,0.24081 -0.49802,0.47714 -0.7674,0.73019 -0.26938,0.25305 -0.5795,0.52285 -0.79582,0.71468 -0.21631,0.19183 -0.33885,0.30568 -0.44906,0.40773 -0.11022,0.10205 -0.20788,0.19216 -0.29766,0.26562 -0.0898,0.0734 -0.17162,0.13026 -0.1757,0.0527 -0.004,-0.0775 0.0694,-0.28931 0.20412,-0.60358 0.13469,-0.31428 0.33087,-0.7307 0.5023,-1.13069 0.17142,-0.39999 0.31789,-0.78374 0.44441,-1.08985 0.12653,-0.30611 0.23309,-0.53449 0.35554,-0.74673 0.12244,-0.21223 0.26074,-0.40849 0.36277,-0.54725 0.10202,-0.13876 0.1678,-0.22036 0.23719,-0.31833 0.0694,-0.098 0.14266,-0.21219 0.0651,-0.23667 -0.0776,-0.0245 -0.30625,0.0408 -0.61236,0.16329 -0.30612,0.12245 -0.68981,0.3023 -1.0449,0.5023 -0.35509,0.19999 -0.68122,0.42012 -1.01182,0.62012 -0.3306,0.19999 -0.66562,0.37971 -0.98805,0.57154 -0.32244,0.19183 -0.63234,0.39595 -0.93845,0.68574 -0.30611,0.28979 -0.60809,0.66526 -0.87746,0.99994 -0.26938,0.33469 -0.50638,0.62845 -0.74311,0.91416 -0.23673,0.2857 -0.47326,0.56334 -0.7059,0.84904 -0.23265,0.28571 -0.46141,0.57941 -0.65733,0.8692 -0.19591,0.28979 -0.35924,0.57522 -0.52658,0.86093 -0.16734,0.2857 -0.33862,0.57166 -0.51005,0.74104 -0.17142,0.16938 -0.34258,0.22236 -0.50074,0.35398 -0.15816,0.13163 -0.30323,0.34192 -0.37465,0.56844 -0.0714,0.22652 -0.0696,0.46928 -0.0992,0.75396 -0.0296,0.28468 -0.0892,0.611586 -0.12558,0.85215 -0.0917,0.607177 -0.14414,0.985617 -0.4399,1.393994 -0.35674,0.258951 -0.63234,0.514083 -1.07958,0.560633 0.12056,0.297268 0.42269,-0.04915 0.69353,0.165182 0.17143,0.13877 0.25254,-0.213766 0.46887,-0.107646 0.21632,0.10612 0.49405,0.17949 0.85731,0.23254 0.36326,0.0531 0.81241,0.0858 1.29811,0.045 0.4857,-0.0408 1.00812,-0.15528 1.52239,-0.33486 0.51427,-0.17959 1.02004,-0.42469 1.45676,-0.69815 0.43672,-0.27346 0.80402,-0.57522 1.19992,-0.82011 0.39591,-0.24489 0.82043,-0.43294 1.32654,-0.62477 0.5061,-0.19183 1.09395,-0.38748 1.6123,-0.50177 0.51835,-0.11429 0.96721,-0.14721 1.35496,-0.10232 0.38774,0.0449 0.71454,0.1676 0.94309,0.22066 0.22856,0.053 0.35896,0.0366 0.42427,0.0284 0.0653,-0.008 0.065,-0.008 0.10283,-0.14573 0.0378,-0.13761 0.11367,-0.41276 0.14573,-0.66869 0.0321,-0.25593 0.0207,-0.49228 0.0351,-0.76068 0.0144,-0.2684 0.0545,-0.5689 0.12092,-0.89504 0.0664,-0.32613 0.15867,-0.67795 0.24237,-1.00407 0.0837,-0.32612 0.1591,-0.62636 0.27698,-1.03611 0.11789,-0.40975 0.2785,-0.92888 0.45682,-1.38855 0.17832,-0.45967 0.37402,-0.85998 0.52503,-1.22731 0.15102,-0.36734 0.25727,-0.70188 0.37156,-0.99167 0.11428,-0.28979 0.2367,-0.53454 0.35915,-0.75086 0.12244,-0.21632 0.24496,-0.40423 0.32659,-0.53485 0.0816,-0.13062 0.12248,-0.20373 0.1633,-0.29352 0.0408,-0.0898 0.0814,-0.19607 -0.0574,-0.2124 z"
           id="path616"
           sodipodi:nodetypes="csssssssscccsssssscsssssssssssssscssscsssssssccscsssssssssscc" /><path
           style="fill:#ffffff;fill-opacity:1;fill-rule:evenodd;stroke:none;stroke-width:0.165;stroke-linecap:butt;stroke-linejoin:miter;stroke-dasharray:none;stroke-opacity:1"
           d="m 167.179,87.587769 c 0.0704,0.001 0.14813,0.009 0.23565,0.0217 0.23336,0.0346 0.53548,0.10818 0.82527,0.20205 0.28979,0.0939 0.56764,0.20796 0.70642,0.2651 0.13877,0.0571 0.13873,0.0572 0.16278,0.0765 0.0241,0.0193 0.0474,0.0377 0.0801,0.11524 0.0326,0.0775 0.0618,0.20407 0.0847,0.3204 0.023,0.11632 0.0394,0.2227 0.0517,0.34106 0.0123,0.11836 0.0205,0.24896 0.008,0.39998 -0.0122,0.15101 -0.0449,0.32244 -0.0816,0.48162 -0.0367,0.15917 -0.0773,0.30611 -0.14263,0.4408 -0.0653,0.13469 -0.15542,0.25717 -0.26562,0.36329 -0.1102,0.10611 -0.24049,0.19581 -0.41599,0.22841 -0.17551,0.0327 -0.39594,0.008 -0.6041,-0.061 -0.20816,-0.0694 -0.40436,-0.18379 -0.58394,-0.33073 -0.17959,-0.14693 -0.34286,-0.32651 -0.49868,-0.52555 -0.15582,-0.19905 -0.30383,-0.41766 -0.37414,-0.60875 -0.0703,-0.19109 -0.0626,-0.35472 -0.0501,-0.51625 0.0125,-0.16153 0.0295,-0.32102 0.0646,-0.46819 0.0351,-0.14716 0.0881,-0.28166 0.1695,-0.40462 0.0814,-0.12297 0.19137,-0.23431 0.32866,-0.29197 0.0858,-0.036 0.18192,-0.0512 0.29921,-0.0491 z"
           id="path617" /><path
           style="fill:#ffffff;fill-opacity:1;fill-rule:evenodd;stroke:none;stroke-width:0.264583px;stroke-linecap:butt;stroke-linejoin:miter;stroke-opacity:1"
           d="m 102.77944,118.64409 c 0.2204,-0.004 0.66119,-0.0123 0.96322,-0.15511 0.30203,-0.14286 0.46529,-0.42039 0.5959,-0.64896 0.13061,-0.22858 0.22856,-0.40814 0.31019,-0.58365 0.0816,-0.1755 0.14693,-0.34692 0.0979,-0.4408 -0.049,-0.0939 -0.21223,-0.11021 -0.41223,-10e-6 -0.19999,0.1102 -0.43671,0.34692 -0.63671,0.53467 -0.19999,0.18775 -0.36325,0.32652 -0.52242,0.46937 -0.15918,0.14285 -0.31427,0.28979 -0.41631,0.42856 -0.10204,0.13878 -0.15102,0.26939 -0.1755,0.33468 -0.0245,0.0653 -0.0245,0.0653 0.19591,0.0613 z"
           id="path626"
           inkscape:path-effect="#path-effect640"
           inkscape:original-d="m 102.55904,118.64817 c 0.4408,-0.008 0.88159,-0.0163 1.32239,-0.0245 0.16326,-0.27755 0.32652,-0.55508 0.48977,-0.83262 0.098,-0.17959 0.19592,-0.35917 0.29387,-0.53875 0.0653,-0.17143 0.13061,-0.34285 0.19591,-0.51427 -0.16326,-0.0163 -0.32652,-0.0326 -0.48978,-0.049 -0.23672,0.23673 -0.47344,0.47345 -0.71017,0.71018 -0.16326,0.13877 -0.32652,0.27754 -0.48977,0.41631 -0.1551,0.14693 -0.3102,0.29386 -0.46529,0.4408 -0.049,0.13061 -0.098,0.26121 -0.14693,0.39182 z"
           transform="translate(73.559393,-34.56136)" /><path
           style="fill:#ffffff;fill-opacity:1;fill-rule:evenodd;stroke:none;stroke-width:0.264583px;stroke-linecap:butt;stroke-linejoin:miter;stroke-opacity:1"
           d="m 97.526589,118.90938 c 0.232642,0.0163 0.697934,0.049 1.016289,-0.13065 0.318355,-0.1796 0.489772,-0.57141 0.612217,-0.87344 0.122444,-0.30203 0.195908,-0.51426 0.25305,-0.67344 0.05714,-0.15918 0.09796,-0.2653 -0.03265,-0.26121 -0.130609,0.004 -0.432632,0.11836 -0.69793,0.29794 -0.265298,0.17959 -0.493859,0.42448 -0.685687,0.64079 -0.191828,0.21632 -0.346922,0.40407 -0.461203,0.5306 -0.114281,0.12652 -0.187744,0.19182 -0.220397,0.25712 -0.03265,0.0653 -0.02448,0.13061 -0.0204,0.16326 0.0041,0.0327 0.0041,0.0327 0.236715,0.049 z"
           id="path629"
           inkscape:path-effect="#path-effect642"
           inkscape:original-d="m 97.293947,118.89306 c 0.465286,0.0326 0.930574,0.0653 1.39586,0.0979 0.171426,-0.39183 0.342844,-0.78364 0.514265,-1.17546 0.07347,-0.21224 0.146934,-0.42447 0.220398,-0.63671 0.04082,-0.10612 0.08163,-0.21224 0.122444,-0.31835 -0.302032,0.11428 -0.604054,0.22856 -0.906084,0.34284 -0.228566,0.24489 -0.457123,0.48978 -0.685686,0.73466 -0.155099,0.18775 -0.310192,0.3755 -0.465286,0.56325 -0.07347,0.0653 -0.146934,0.1306 -0.2204,0.19591 0.0081,0.0653 0.01632,0.1306 0.0245,0.19591 z"
           transform="translate(73.559393,-34.56136)" /><path
           style="fill:url(#linearGradient668);fill-rule:evenodd;stroke:none;stroke-width:0.264583px;stroke-linecap:butt;stroke-linejoin:miter;stroke-opacity:1"
           d="m 106.62154,124.89588 c -0.21934,0.0462 -0.65802,0.13853 -1.00027,0.0712 -0.34225,-0.0673 -0.58804,-0.2942 -0.73806,-0.51564 -0.15001,-0.22143 -0.20424,-0.43739 -0.23678,-0.6839 -0.0326,-0.24652 -0.0434,-0.52357 -0.0682,-0.70785 -0.0248,-0.18428 -0.0635,-0.27583 -0.37562,-0.44112 -0.31211,-0.1653 -0.89758,-0.40434 -1.4443,-0.61045 -0.54672,-0.20611 -1.05465,-0.37926 -1.45293,-0.50048 -0.39829,-0.12122 -0.68687,-0.19048 -0.96393,-0.23666 -0.27706,-0.0462 -0.542574,-0.0693 -0.848497,0.15583 -0.305923,0.22511 -0.652239,0.69841 -0.940844,1.1775 -0.288605,0.47908 -0.519485,0.96393 -0.80232,1.37375 -0.282835,0.40982 -0.617606,0.74459 -0.923528,1.06206 -0.305921,0.31746 -0.582974,0.6176 -0.981252,0.83117 -0.398277,0.21357 -0.917754,0.34055 -1.431472,0.39828 -0.513717,0.0577 -1.02165,0.0462 -1.385291,0.0289 -0.363642,-0.0173 -0.582977,-0.0404 -0.868074,-0.0495 -0.285098,-0.009 -0.6359,-0.004 -0.870994,0.0418 -0.235095,0.046 -0.349943,0.12972 -0.478982,0.23991 -0.129039,0.11019 -0.263357,0.24032 -0.342763,0.42171 -0.07941,0.18139 -0.103895,0.41403 -0.105936,0.66504 -0.002,0.25102 0.01837,0.52039 0.07959,0.80406 0.06122,0.28366 0.163256,0.5816 0.265295,0.80812 0.102038,0.22653 0.204072,0.38162 0.573451,0.5612 0.36938,0.17959 1.006076,0.38366 1.69789,0.49386 0.691814,0.1102 1.438709,0.12654 2.216235,0.11634 0.777525,-0.0102 1.585643,-0.0469 2.259088,-0.16122 0.673445,-0.11428 1.212191,-0.30611 2.008087,-0.66324 0.795899,-0.35714 1.848899,-0.87955 2.856189,-1.37164 1.0073,-0.49208 1.96883,-0.9538 2.69781,-1.35206 0.72898,-0.39825 1.22537,-0.73303 1.49088,-1.05626 0.26551,-0.32324 0.30015,-0.63493 0.31746,-0.79078 0.0173,-0.15584 0.0174,-0.15614 -0.20193,-0.10997 z"
           id="path630"
           inkscape:path-effect="#path-effect644"
           inkscape:original-d="m 106.84087,124.84971 c -0.43868,0.0923 -0.87735,0.1847 -1.31603,0.27705 -0.24582,-0.22693 -0.49161,-0.45384 -0.73742,-0.68076 -0.0542,-0.21596 -0.10844,-0.43191 -0.16267,-0.64787 -0.0109,-0.27707 -0.0217,-0.55412 -0.0326,-0.83118 -0.0387,-0.0915 -0.0774,-0.18306 -0.11615,-0.27459 -0.5855,-0.23905 -1.17097,-0.47809 -1.75646,-0.71714 -0.50795,-0.17317 -1.01588,-0.34632 -1.52383,-0.51949 -0.28861,-0.0693 -0.5772,-0.13853 -0.8658,-0.20779 -0.26552,-0.0231 -0.531034,-0.0462 -0.796548,-0.0693 -0.346332,0.47332 -0.692648,0.94662 -1.038972,1.41993 -0.230888,0.48486 -0.461766,0.96971 -0.692647,1.45456 -0.334788,0.33479 -0.66956,0.66956 -1.00434,1.00434 -0.277064,0.30015 -0.554117,0.60029 -0.831178,0.90044 -0.519493,0.12699 -1.038971,0.25397 -1.558456,0.38096 -0.50795,-0.0115 -1.015881,-0.0231 -1.523823,-0.0346 -0.219342,-0.0231 -0.438677,-0.0462 -0.658016,-0.0693 -0.350855,0.005 -0.701656,0.01 -1.052537,0.0148 -0.119314,0.087 -0.234156,0.17076 -0.357907,0.261 -0.134329,0.13014 -0.268646,0.26027 -0.402968,0.3904 -0.0245,0.23265 -0.04898,0.46529 -0.07347,0.69793 0.0204,0.26939 0.04082,0.53876 0.06122,0.80813 0.102039,0.29796 0.204073,0.5959 0.30611,0.89385 0.102039,0.1551 0.204073,0.31019 0.306109,0.46528 0.636723,0.20408 1.273419,0.40815 1.910125,0.61222 0.746924,0.0163 1.493817,0.0327 2.240725,0.049 0.808146,-0.0367 1.61626,-0.0735 2.42439,-0.1102 0.538763,-0.19183 1.077508,-0.38366 1.61626,-0.57549 1.053043,-0.52243 2.106043,-1.04485 3.159063,-1.56728 0.96157,-0.46174 1.9231,-0.92346 2.88465,-1.38519 0.49641,-0.33478 0.9928,-0.66955 1.48919,-1.00433 0.0346,-0.3117 0.0693,-0.62339 0.1039,-0.93508 z"
           transform="translate(73.455496,-34.595993)"
           sodipodi:nodetypes="ccccccccccccccccccccccccccccccccc" /><path
           style="fill:#ffffff;fill-opacity:1;fill-rule:evenodd;stroke:#121212;stroke-width:0.165;stroke-linecap:butt;stroke-linejoin:miter;stroke-dasharray:none;stroke-opacity:1"
           d="m 107.85885,127.41722 c -0.19415,0.28178 -0.58243,0.84533 -1.10653,1.37673 -0.5241,0.53139 -1.18396,1.03057 -1.94139,1.43369 -0.75742,0.40311 -1.61236,0.71013 -2.57325,0.9679 -0.9609,0.25777 -2.03484,0.46766 -3.697581,0.52667 -1.662741,0.059 -3.959332,-0.0313 -5.348879,-0.13353 -1.389548,-0.10226 -1.88734,-0.21713 -2.292087,-0.35537 -0.404747,-0.13824 -0.716432,-0.29985 -0.947317,-0.48456 -0.230885,-0.18471 -0.380956,-0.3925 -0.444448,-0.61184 -0.06349,-0.21934 -0.0404,-0.45022 0.225114,-0.55411 0.26552,-0.10389 0.773451,-0.0808 1.223678,-0.0461 0.450227,0.0346 0.84272,0.0808 1.28717,0.12122 0.44445,0.0404 0.940843,0.075 1.489193,0.0981 0.548349,0.0231 1.148635,0.0346 1.662352,0.0288 0.513717,-0.006 0.940842,-0.0289 1.339118,-0.0924 0.398276,-0.0635 0.767678,-0.16739 1.108234,-0.29438 0.340556,-0.12699 0.652242,-0.27706 0.911985,-0.42136 0.259744,-0.1443 0.467535,-0.28283 0.727283,-0.51949 0.259748,-0.23666 0.571435,-0.57143 0.860035,-0.83695 0.28861,-0.26551 0.55412,-0.46176 0.86581,-0.66379 0.3117,-0.20202 0.66956,-0.40981 1.05052,-0.55411 0.38096,-0.1443 0.78499,-0.22511 1.20636,-0.31602 0.42137,-0.0909 0.86002,-0.19192 1.19048,-0.29437 0.33046,-0.10246 0.55268,-0.20636 0.82541,-0.37808 0.27274,-0.17172 0.59596,-0.41125 0.83839,-0.61472 0.24243,-0.20347 0.40404,-0.37085 0.54979,-0.57143 0.14574,-0.20058 0.27561,-0.43434 0.35641,-0.73594 0.0808,-0.30161 0.11254,-0.671 0.20777,-0.65802 0.0952,0.013 0.25396,0.40837 0.35498,0.7547 0.10101,0.34633 0.14432,0.64358 0.17175,0.91487 0.0274,0.27129 0.039,0.51659 0.0303,0.79511 -0.009,0.27851 -0.0375,0.59018 -0.12699,0.87735 -0.0895,0.28717 -0.23953,0.54978 -0.47764,0.80375 -0.2381,0.25398 -0.56421,0.49929 -0.79655,0.66813 -0.23233,0.16884 -0.37084,0.26118 -0.29725,0.29004 0.0736,0.0289 0.3593,-0.006 0.60174,-0.12122 0.24243,-0.11544 0.44157,-0.31169 0.60427,-0.45838 0.1627,-0.14668 0.28898,-0.24381 0.41156,-0.33928 0.12259,-0.0955 0.24137,-0.18919 0.36019,-0.28294 -0.072,0.13317 -0.14389,0.26633 -0.17987,0.33291 -0.036,0.0666 -0.036,0.0666 -0.23016,0.34841 z"
           id="path631"
           inkscape:path-effect="#path-effect646"
           inkscape:original-d="m 108.053,127.13544 c -0.3883,0.56356 -0.77659,1.12711 -1.16489,1.69069 -0.65989,0.49921 -1.31975,0.99839 -1.97963,1.49759 -0.85497,0.30704 -1.70991,0.61405 -2.56489,0.92109 -1.06681,0.2085 -2.14075,0.41839 -3.200348,0.62548 -2.276276,0.17531 -4.562475,-0.17934 -6.843766,-0.26901 -0.497805,-0.11486 -0.995595,-0.22973 -1.493392,-0.34459 -0.311698,-0.16162 -0.623385,-0.32323 -0.935075,-0.48485 -0.150077,-0.2078 -0.300149,-0.41559 -0.45022,-0.62338 0.0231,-0.23089 0.04618,-0.46177 0.06926,-0.69265 0.507953,0.0231 1.015884,0.0462 1.523826,0.0693 0.392509,0.0462 0.785,0.0924 1.177501,0.13853 0.496406,0.0346 0.992794,0.0693 1.489192,0.10389 0.600305,0.0115 1.200589,0.0231 1.800884,0.0346 0.42714,-0.0231 0.854265,-0.0462 1.281398,-0.0693 0.369419,-0.1039 0.738822,-0.20779 1.108236,-0.31169 0.311695,-0.15008 0.623382,-0.30015 0.935072,-0.45022 0.207799,-0.13853 0.415589,-0.27706 0.623385,-0.41559 0.311698,-0.33479 0.623387,-0.66956 0.935077,-1.00434 0.26552,-0.19625 0.53103,-0.3925 0.79654,-0.58875 0.35788,-0.2078 0.71574,-0.41559 1.07361,-0.62338 0.40405,-0.0808 0.80808,-0.16162 1.21213,-0.24243 0.43869,-0.10101 0.87734,-0.20202 1.31603,-0.30303 0.22223,-0.1039 0.44445,-0.2078 0.66668,-0.3117 0.32324,-0.23954 0.64646,-0.47907 0.9697,-0.71862 0.16162,-0.16739 0.32323,-0.33477 0.48485,-0.50216 0.12987,-0.23377 0.25974,-0.46753 0.38961,-0.70131 0.0317,-0.36943 0.0635,-0.73882 0.0952,-1.10824 0.15873,0.39539 0.31746,0.79077 0.47619,1.18616 0.0433,0.29727 0.0866,0.59452 0.12991,0.89178 0.0115,0.24532 0.0231,0.49062 0.0347,0.73595 -0.0289,0.3117 -0.0577,0.62337 -0.0866,0.93507 -0.15008,0.26264 -0.30014,0.52525 -0.45022,0.78788 -0.32613,0.24532 -0.65224,0.49063 -0.97836,0.73594 -0.13853,0.0924 -0.27706,0.18471 -0.41559,0.27706 0.28571,-0.0346 0.57142,-0.0693 0.85715,-0.1039 0.19914,-0.19625 0.39828,-0.3925 0.59741,-0.58875 0.12628,-0.0971 0.25255,-0.19425 0.37886,-0.2914 0.11884,-0.0938 0.35646,-0.28126 0.35646,-0.28126 0,0 -0.14389,0.26633 -0.21584,0.3995 z"
           sodipodi:nodetypes="scccaccccccccccccccccccccccccccccccccccss"
           transform="translate(73.559393,-34.56136)" /><path
           style="fill:#ffffff;fill-opacity:1;fill-rule:evenodd;stroke:none;stroke-width:0.165;stroke-linecap:butt;stroke-linejoin:miter;stroke-dasharray:none;stroke-opacity:1"
           d="m 68.691046,99.285701 c -0.02449,-0.236725 -0.07347,-0.710175 -0.216321,-1.118325 -0.142854,-0.408149 -0.379574,-0.750985 -0.604056,-0.995874 -0.224482,-0.244889 -0.436715,-0.391821 -0.66528,-0.489776 -0.228564,-0.09796 -0.473445,-0.146932 -0.706091,-0.07755 -0.232646,0.06939 -0.453041,0.25713 -0.636709,0.485694 -0.183667,0.228565 -0.330598,0.497937 -0.489777,0.72242 -0.159178,0.224483 -0.330596,0.404064 -0.469367,0.555079 -0.138771,0.151016 -0.244886,0.273456 -0.330598,0.408145 -0.08571,0.134689 -0.151013,0.28162 -0.179582,0.444882 -0.02857,0.163262 -0.0204,0.34284 0.05307,0.546916 0.07347,0.204075 0.212237,0.432633 0.379579,0.604053 0.167342,0.17143 0.363245,0.28571 0.575481,0.33876 0.212237,0.0531 0.4408,0.0449 0.685692,-0.0286 0.244893,-0.0735 0.506097,-0.21224 0.746914,-0.33061 0.240816,-0.11837 0.461196,-0.21631 0.677516,-0.31427 0.21632,-0.09796 0.42855,-0.19591 0.579564,-0.261213 0.151014,-0.0653 0.240807,-0.09795 0.334682,-0.134686 0.09388,-0.03673 0.191827,-0.07755 0.240806,-0.09795 0.04898,-0.02041 0.04897,-0.0204 0.02448,-0.257127 z"
           id="path632"
           inkscape:path-effect="#path-effect649"
           inkscape:original-d="m 68.715535,99.522427 c -0.04898,-0.473451 -0.09796,-0.946901 -0.146934,-1.42035 -0.236731,-0.342849 -0.473451,-0.685686 -0.710176,-1.02853 -0.212238,-0.146934 -0.424471,-0.293865 -0.636707,-0.440799 -0.244893,-0.04898 -0.489775,-0.09795 -0.734663,-0.146931 -0.220403,0.187751 -0.440798,0.375494 -0.661199,0.563243 -0.146934,0.26938 -0.293865,0.538752 -0.440798,0.80813 -0.171424,0.179588 -0.342842,0.359169 -0.514263,0.538752 -0.106122,0.122447 -0.212236,0.244888 -0.318355,0.367332 -0.0653,0.146936 -0.130606,0.293865 -0.19591,0.440798 0.0082,0.179589 0.01632,0.35917 0.0245,0.538753 0.138771,0.228568 0.27754,0.457125 0.416309,0.685685 0.195913,0.11429 0.391821,0.22856 0.587729,0.34285 0.228568,-0.008 0.457126,-0.0163 0.685686,-0.0245 0.261221,-0.13878 0.522428,-0.27754 0.783643,-0.41631 0.220403,-0.098 0.440799,-0.19591 0.661197,-0.29387 0.21224,-0.09796 0.424471,-0.195909 0.636709,-0.293866 0.08979,-0.03265 0.179583,-0.0653 0.269375,-0.09795 0.09796,-0.04081 0.19591,-0.08163 0.293867,-0.122444 z"
           transform="translate(106.66794,-9.6260515)" /><path
           style="fill:#000000;fill-opacity:1;fill-rule:evenodd;stroke:none;stroke-width:0.264583px;stroke-linecap:butt;stroke-linejoin:miter;stroke-opacity:1"
           d="m 61.8843,98.206651 c -0.08499,-0.08079 -0.254959,-0.242359 -0.44504,-0.373692 -0.19008,-0.131333 -0.400249,-0.232414 -0.647262,-0.295952 -0.247012,-0.06354 -0.530831,-0.08952 -0.733862,-0.09677 -0.203032,-0.0072 -0.325242,0.0043 -0.436911,0.03016 -0.111669,0.0259 -0.212773,0.0662 -0.312296,0.135382 -0.09952,0.06918 -0.197439,0.167237 -0.151062,0.171392 0.04638,0.0042 0.237049,-0.08559 0.405434,-0.124572 0.168386,-0.03898 0.314463,-0.02718 0.506337,-0.0054 0.191874,0.02181 0.429524,0.05363 0.630559,0.104151 0.201036,0.05052 0.365435,0.119742 0.493817,0.177443 0.128382,0.0577 0.220726,0.103874 0.313082,0.155824 0.09236,0.05195 0.184704,0.109668 0.261737,0.144428 0.07703,0.03476 0.138744,0.04656 0.1696,0.05246 0.03085,0.0059 0.03085,0.0059 -0.05413,-0.0749 z"
           id="path633"
           inkscape:path-effect="#path-effect653"
           inkscape:original-d="m 61.969288,98.287439 c -0.169976,-0.161576 -0.339947,-0.323147 -0.509926,-0.484725 -0.210182,-0.101088 -0.420351,-0.202169 -0.630534,-0.303257 -0.283842,-0.02599 -0.567661,-0.05197 -0.851503,-0.07796 -0.122221,0.0115 -0.244431,0.02301 -0.366654,0.03451 -0.101115,0.0403 -0.202218,0.0806 -0.303333,0.120896 -0.09793,0.09807 -0.195848,0.196121 -0.293775,0.294184 0.190683,-0.08975 0.381353,-0.179503 0.572037,-0.269258 0.146087,0.0118 0.292164,0.0236 0.438249,0.0354 0.237663,0.03182 0.475313,0.06364 0.712978,0.09546 0.164407,0.06922 0.328805,0.138443 0.493209,0.207665 0.09236,0.04618 0.184705,0.09235 0.277058,0.13853 0.09236,0.05772 0.184706,0.115441 0.277061,0.173162 0.06171,0.0118 0.123422,0.0236 0.185133,0.0354 z"
           transform="translate(107.35392,-9.9746195)"
           sodipodi:nodetypes="ccccccccccsccc" /><path
           style="fill:#000000;fill-opacity:1;fill-rule:evenodd;stroke:none;stroke-width:0.264583px;stroke-linecap:butt;stroke-linejoin:miter;stroke-opacity:1"
           d="m 67.512097,96.821807 c -0.05587,-0.04996 -0.167615,-0.14987 -0.294,-0.236531 -0.126384,-0.08666 -0.2674,-0.160063 -0.412092,-0.201799 -0.144693,-0.04174 -0.293041,-0.0518 -0.414927,-0.02917 -0.121887,0.02263 -0.2173,0.07796 -0.319766,0.142268 -0.102465,0.06431 -0.211966,0.137591 -0.315841,0.237431 -0.103876,0.09984 -0.202113,0.226227 -0.31541,0.381175 -0.113298,0.154948 -0.241648,0.338444 -0.355362,0.49952 -0.113713,0.161077 -0.212787,0.299726 -0.290894,0.413947 -0.07811,0.11422 -0.135247,0.204012 -0.204633,0.301969 -0.06939,0.09796 -0.151013,0.204072 -0.216316,0.289783 -0.0653,0.08571 -0.114283,0.151016 -0.155098,0.228567 -0.04081,0.07755 -0.07346,0.167335 -0.04278,0.180496 0.03068,0.01316 0.124694,-0.0503 0.243769,-0.18108 0.119075,-0.130776 0.2632,-0.328848 0.399727,-0.521764 0.136527,-0.192916 0.265444,-0.380658 0.37804,-0.545982 0.112596,-0.165324 0.208864,-0.308218 0.309207,-0.44592 0.100344,-0.137702 0.204756,-0.270204 0.313679,-0.384381 0.108922,-0.114176 0.222346,-0.21002 0.345486,-0.287465 0.12314,-0.07744 0.241429,-0.130016 0.411946,-0.112873 0.170517,0.01714 0.315752,0.09199 0.448076,0.167083 0.132323,0.07509 0.212266,0.130097 0.301643,0.190236 0.08938,0.06014 0.188184,0.125413 0.286992,0.190686 -0.01519,-0.07542 -0.03039,-0.15083 -0.03798,-0.188539 -0.0076,-0.03771 -0.0076,-0.0377 -0.06347,-0.08766 z"
           id="path634"
           inkscape:path-effect="#path-effect657"
           inkscape:original-d="m 67.567969,96.871764 c -0.111746,-0.09991 -0.223487,-0.199827 -0.335232,-0.299741 -0.141023,-0.07341 -0.28204,-0.14681 -0.423067,-0.220219 -0.148358,-0.01006 -0.296706,-0.02012 -0.445059,-0.03019 -0.09542,0.05533 -0.190833,0.110656 -0.286253,0.165986 -0.10951,0.07329 -0.219012,0.14657 -0.328522,0.219858 -0.09824,0.126393 -0.196478,0.252779 -0.294718,0.379171 -0.128355,0.183504 -0.256705,0.367 -0.385059,0.550503 -0.09907,0.138652 -0.198147,0.277299 -0.297221,0.41595 -0.05714,0.08979 -0.114279,0.179583 -0.171421,0.269375 -0.08163,0.106122 -0.163258,0.212236 -0.244887,0.318355 -0.04898,0.0653 -0.09796,0.130606 -0.146934,0.19591 -0.03265,0.0898 -0.0653,0.179584 -0.09795,0.269378 0.09402,-0.06347 0.188029,-0.126937 0.282047,-0.190407 0.144132,-0.198082 0.288256,-0.396154 0.432389,-0.594236 0.128922,-0.18775 0.257839,-0.375492 0.386761,-0.563242 0.09627,-0.142898 0.192539,-0.285791 0.288809,-0.42869 0.104416,-0.132506 0.208828,-0.265008 0.313243,-0.397513 0.113429,-0.09585 0.226854,-0.191692 0.340287,-0.287542 0.132847,-0.05904 0.251136,-0.111611 0.398528,-0.177116 0.193643,0.09979 0.338877,0.174636 0.523585,0.269824 0.07994,0.055 0.159882,0.110004 0.239828,0.165009 0.09881,0.06527 0.296423,0.19582 0.296423,0.19582 0,0 -0.03038,-0.150831 -0.04558,-0.226248 z"
           transform="translate(106.86414,-9.5827985)"
           sodipodi:nodetypes="cccccccccccccccccccccccc" /><g
           id="g636"
           transform="translate(73.559393,-34.56136)"><path
             style="fill:url(#linearGradient669);fill-rule:evenodd;stroke:none;stroke-width:0.264583px;stroke-linecap:butt;stroke-linejoin:miter;stroke-opacity:1"
             d="m 59.555832,99.962441 c 0.0044,0.01394 0.01324,0.0418 0.09243,0.142909 0.07919,0.1011 0.228732,0.27542 0.385771,0.40877 0.157038,0.13335 0.32152,0.22569 0.488907,0.28918 0.167388,0.0635 0.337674,0.0981 0.499293,0.10245 0.161619,0.004 0.314564,-0.0216 0.444441,-0.0995 0.129877,-0.0779 0.236656,-0.20779 0.305922,-0.3492 0.06926,-0.14142 0.10101,-0.29437 0.108231,-0.473208 0.0072,-0.178834 -0.0101,-0.383738 -0.05917,-0.582877 -0.04907,-0.199138 -0.129872,-0.392498 -0.2381,-0.554117 C 61.47533,98.685179 61.33969,98.55531 61.180956,98.4644 c -0.158734,-0.09091 -0.340551,-0.142858 -0.525258,-0.142857 -0.184707,0 -0.372296,0.05195 -0.512268,0.128427 -0.139973,0.07648 -0.232326,0.177492 -0.321793,0.308806 -0.08947,0.131315 -0.176047,0.292933 -0.232326,0.424248 -0.05628,0.131316 -0.08225,0.232324 -0.08351,0.354939 -0.0013,0.122615 0.02217,0.266602 0.03389,0.338679 0.01173,0.07208 0.01172,0.07186 0.01614,0.0858 z"
             id="path635"
             inkscape:path-effect="#path-effect661"
             inkscape:original-d="m 59.551418,99.948505 c 0.0088,0.02788 0.01766,0.05573 0.02648,0.08361 0.149554,0.17434 0.299093,0.34866 0.448644,0.52299 0.164508,0.0924 0.32901,0.1847 0.493512,0.27705 0.17028,0.0346 0.340553,0.0693 0.510828,0.1039 0.152964,-0.026 0.305919,-0.0519 0.45888,-0.0779 0.106783,-0.12988 0.213567,-0.25974 0.32035,-0.38961 0.03174,-0.15297 0.06349,-0.30592 0.09524,-0.45888 -0.0173,-0.204707 -0.03463,-0.409611 -0.05195,-0.61452 -0.08081,-0.193368 -0.161615,-0.386728 -0.242424,-0.580091 -0.135647,-0.129876 -0.271288,-0.259744 -0.406932,-0.389615 -0.181824,-0.05195 -0.363641,-0.103896 -0.54546,-0.155845 -0.187595,0.05195 -0.375184,0.103897 -0.562776,0.155845 -0.09235,0.101013 -0.184706,0.202023 -0.277059,0.303033 -0.08658,0.16162 -0.173162,0.323236 -0.259741,0.484854 -0.02598,0.101013 -0.05195,0.202023 -0.07793,0.303033 0.02346,0.144219 0.04688,0.288207 0.07034,0.432361 z"
             sodipodi:nodetypes="ccccccccccccccccc"
             transform="translate(33.641535,24.527403)" /><ellipse
             style="fill:#310c01;fill-opacity:1;stroke:none;stroke-width:0.465;stroke-linecap:round;stroke-linejoin:round;stroke-dasharray:none;stroke-opacity:1"
             id="ellipse635"
             cx="94.385963"
             cy="124.27022"
             rx="0.50202012"
             ry="0.61221969" /><ellipse
             style="fill:#ffffff;fill-opacity:1;stroke:none;stroke-width:0.465;stroke-linecap:round;stroke-linejoin:round;stroke-dasharray:none;stroke-opacity:1"
             id="ellipse636"
             cx="94.839012"
             cy="124.01308"
             rx="0.26937664"
             ry="0.30610985" /></g><g
           id="g637"
           transform="translate(73.559393,-34.56136)"><path
             style="fill:url(#linearGradient670);fill-rule:evenodd;stroke:none;stroke-width:0.264583px;stroke-linecap:butt;stroke-linejoin:miter;stroke-opacity:1"
             d="m 67.135507,100.09797 c -0.06715,0.0335 -0.201446,0.10065 -0.341152,0.18176 -0.139705,0.0811 -0.284708,0.17615 -0.442939,0.23594 -0.158231,0.0598 -0.329649,0.0843 -0.521479,0.0884 -0.191829,0.004 -0.404068,-0.0122 -0.555081,-0.10613 -0.151012,-0.0939 -0.240802,-0.26529 -0.297944,-0.46937 -0.05714,-0.204072 -0.08163,-0.440791 -0.07347,-0.648946 0.0082,-0.208156 0.04898,-0.387737 0.138769,-0.546916 0.08979,-0.159178 0.228562,-0.297947 0.338761,-0.395902 0.110199,-0.09795 0.191828,-0.155095 0.326518,-0.220399 0.134691,-0.0653 0.322433,-0.138769 0.49196,-0.169236 0.169528,-0.03047 0.320826,-0.01793 0.467762,0.03921 0.146936,0.05714 0.289496,0.158886 0.421999,0.2669 0.132503,0.108015 0.254945,0.222293 0.361064,0.397798 0.106118,0.175506 0.195908,0.412227 0.22856,0.58365 0.03265,0.171424 0.0082,0.277539 -0.0071,0.353643 -0.01529,0.0761 -0.02139,0.122195 -0.09803,0.179873 -0.07664,0.05768 -0.223829,0.126942 -0.297424,0.161577 -0.07359,0.0346 -0.0736,0.0346 -0.140751,0.0682 z"
             id="path636"
             inkscape:path-effect="#path-effect663"
             inkscape:original-d="m 67.202661,100.06441 c -0.134313,0.0671 -0.268602,0.13421 -0.402941,0.20134 -0.145063,0.0951 -0.290075,0.19013 -0.435109,0.2852 -0.171426,0.0245 -0.342844,0.049 -0.514265,0.0735 -0.212241,-0.0163 -0.424474,-0.0327 -0.636709,-0.049 -0.0898,-0.17142 -0.179584,-0.34284 -0.269375,-0.51426 -0.0245,-0.236731 -0.04898,-0.473451 -0.07347,-0.710174 0.04081,-0.179589 0.08163,-0.359169 0.122444,-0.538755 0.138771,-0.138771 0.27754,-0.27754 0.416308,-0.416309 0.08163,-0.05714 0.163259,-0.114281 0.244888,-0.171421 0.187751,-0.07347 0.375494,-0.146933 0.563242,-0.2204 0.151307,0.01253 0.302605,0.02507 0.453913,0.0376 0.142564,0.101749 0.285124,0.203494 0.427684,0.30524 0.122447,0.114282 0.244888,0.228561 0.367332,0.342842 0.08979,0.236731 0.179583,0.473451 0.269375,0.710176 -0.0245,0.106119 -0.04898,0.212236 -0.07346,0.318355 -0.0061,0.04609 -0.0122,0.09218 -0.01829,0.138273 -0.14719,0.06926 -0.294377,0.138525 -0.441564,0.207793 z"
             transform="translate(33.009152,25.085599)"
             sodipodi:nodetypes="scccccccccccccccsss" /><ellipse
             style="fill:#310c01;fill-opacity:1;stroke:none;stroke-width:0.465;stroke-linecap:round;stroke-linejoin:round;stroke-dasharray:none;stroke-opacity:1"
             id="ellipse637"
             cx="99.104385"
             cy="124.33865"
             rx="0.4806079"
             ry="0.62656486" /><circle
             style="fill:#ffffff;fill-opacity:1;stroke:none;stroke-width:0.465;stroke-linecap:round;stroke-linejoin:round;stroke-dasharray:none;stroke-opacity:1"
             id="circle637"
             cx="99.630898"
             cy="124.13049"
             r="0.23264347" /></g><path
           style="fill:url(#linearGradient671);fill-rule:evenodd;stroke:#2a0d01;stroke-width:0.165;stroke-linecap:butt;stroke-linejoin:miter;stroke-dasharray:none;stroke-opacity:1"
           d="m 89.830605,130.61022 c 0.167391,-0.0231 0.502161,-0.0693 0.784997,-0.10967 0.282835,-0.0404 0.513721,-0.075 0.692656,-0.17316 0.178935,-0.0981 0.305914,-0.25974 0.386723,-0.51948 0.08081,-0.25975 0.115441,-0.61761 0.132758,-1.04475 0.01732,-0.42714 0.01732,-0.92352 -0.0058,-1.34489 -0.02309,-0.42136 -0.06927,-0.76768 -0.196251,-0.98124 -0.126985,-0.21357 -0.33478,-0.29438 -0.600297,-0.32323 -0.265517,-0.0289 -0.588748,-0.006 -0.917758,0.0116 -0.329011,0.0173 -0.663785,0.0289 -0.952395,0.0692 -0.28861,0.0404 -0.531024,0.10966 -0.721502,0.24819 -0.190479,0.13853 -0.329006,0.34632 -0.415587,0.57143 -0.08658,0.22511 -0.121211,0.46753 -0.121211,0.72728 1e-6,0.25975 0.03463,0.5368 0.10967,0.83118 0.07504,0.29438 0.190476,0.60606 0.334779,0.8658 0.144303,0.25975 0.31746,0.46754 0.50794,0.64648 0.190479,0.17893 0.398269,0.329 0.536802,0.41559 0.138533,0.0866 0.207795,0.10969 0.242426,0.12124 0.03463,0.0115 0.03463,0.0115 0.202023,-0.0116 z"
           id="path637"
           inkscape:path-effect="#path-effect665"
           inkscape:original-d="m 89.663213,130.63331 c 0.33478,-0.0462 0.66956,-0.0923 1.00434,-0.13853 0.230889,-0.0346 0.461764,-0.0693 0.692648,-0.10389 0.126989,-0.16163 0.25397,-0.32324 0.380957,-0.48486 0.03463,-0.35787 0.06926,-0.71573 0.103897,-1.0736 0,-0.49641 0,-0.99279 0,-1.48919 -0.04618,-0.34633 -0.09235,-0.69265 -0.138531,-1.03897 -0.207798,-0.0808 -0.415589,-0.16162 -0.623382,-0.24243 -0.323241,0.0231 -0.646472,0.0462 -0.969706,0.0693 -0.334788,0.0115 -0.66956,0.0231 -1.00434,0.0346 -0.242432,0.0693 -0.484854,0.13853 -0.727278,0.20779 -0.138533,0.2078 -0.277061,0.41559 -0.415589,0.62338 -0.03463,0.24243 -0.06927,0.48485 -0.103897,0.72728 0.03463,0.27707 0.06926,0.55412 0.103897,0.83118 0.115443,0.3117 0.23088,0.62338 0.346323,0.93507 0.173165,0.2078 0.346324,0.41559 0.519486,0.62339 0.207798,0.15007 0.415589,0.30014 0.623382,0.45022 0.06927,0.0231 0.138531,0.0462 0.207793,0.0693 z"
           transform="matrix(0.79656712,0,0,0.79656712,92.175679,-8.5811468)" /><ellipse
           style="fill:#ffffff;fill-opacity:0.643192;stroke:none;stroke-width:0.465;stroke-linecap:round;stroke-linejoin:round;stroke-dasharray:none;stroke-opacity:1"
           id="ellipse638"
           ry="0.30610985"
           rx="0.46528694"
           cy="92.661034"
           cx="163.01381" /></g></g><path
       style="fill:#eb0513;fill-opacity:1;fill-rule:evenodd;stroke:#570a0a;stroke-width:0.264583px;stroke-linecap:butt;stroke-linejoin:miter;stroke-opacity:1"
       d="m 116.55525,134.15716 c 0.36364,0.19337 0.70998,0.23954 0.96972,0.22223 0.25973,-0.0173 0.4329,-0.0981 0.5772,-0.20203 0.1443,-0.1039 0.25974,-0.23088 0.3925,-0.30593 0.13276,-0.075 0.28283,-0.0981 0.42713,-0.0866 0.14431,0.0115 0.28284,0.0577 0.38674,0.13276 0.1039,0.0751 0.17315,0.17892 0.22509,0.25396 0.0519,0.075 0.0866,0.12126 0.15587,0.0866 0.0693,-0.0346 0.17315,-0.15009 0.27129,-0.25401 0.0982,-0.10392 0.19046,-0.19623 0.28858,-0.24817 0.0981,-0.0519 0.20203,-0.0635 0.31747,-0.0288 0.11543,0.0346 0.24242,0.11545 0.33478,0.19049 0.0924,0.0751 0.15007,0.1443 0.23088,0.19048 0.0808,0.0462 0.18471,0.0693 0.57861,0.008 0.3939,-0.0614 1.07766,-0.20743 1.11229,-0.16702 0.0346,0.0404 -0.5799,0.26719 -0.97378,0.38636 -0.39389,0.11917 -0.56705,0.13071 -0.69538,0.19723 -0.12832,0.0665 -0.21181,0.18802 -0.28107,0.28036 -0.0692,0.0923 -0.12436,0.15563 -0.20958,0.19875 -0.0852,0.0431 -0.20065,0.0662 -0.30457,0.0778 -0.10392,0.0115 -0.19623,0.0115 -0.27704,-0.0173 -0.0808,-0.0289 -0.15007,-0.0866 -0.25398,-0.0808 -0.1039,0.006 -0.24241,0.075 -0.34052,0.12697 -0.0981,0.0519 -0.15587,0.0866 -0.254,0.10967 -0.0981,0.0231 -0.23664,0.0346 -0.35786,0.006 -0.12123,-0.0289 -0.22511,-0.0981 -0.31747,-0.17895 -0.0924,-0.0808 -0.17315,-0.17315 -0.29437,-0.20777 -0.12121,-0.0346 -0.28283,-0.0115 -0.41558,0.006 -0.13276,0.0173 -0.23666,0.0289 -0.35787,-0.006 -0.12121,-0.0346 -0.25974,-0.11545 -0.60607,-0.38386 -0.34633,-0.2684 -0.90045,-0.72439 -0.98703,-0.78211 -0.0866,-0.0577 0.29438,0.28283 0.65802,0.47619 z"
       id="path671"
       sodipodi:nodetypes="scccccccccccccccccccccccccccccss"
       transform="matrix(-0.97975239,0.200213,0.200213,0.97975239,129.84562,5.7425015)"
       inkscape:original-d="m 116.57257,134.30435 c 0.34632,0.0462 0.69265,0.0924 1.03897,0.13853 0.17317,-0.0808 0.34633,-0.16162 0.51949,-0.24243 0.11544,-0.12699 0.23088,-0.25397 0.34632,-0.38096 0.15008,-0.0231 0.30015,-0.0462 0.45022,-0.0693 0.13853,0.0462 0.27706,0.0924 0.41559,0.13853 0.0693,0.1039 0.13853,0.20779 0.20779,0.31169 0.0346,0.0462 0.0693,0.0924 0.1039,0.13853 0.1039,-0.11544 0.2078,-0.23088 0.31169,-0.34632 0.0924,-0.0924 0.18471,-0.18471 0.27706,-0.27706 0.1039,-0.0115 0.2078,-0.0231 0.31169,-0.0346 0.12699,0.0808 0.25397,0.16162 0.38096,0.24243 0.0577,0.0693 0.11544,0.13853 0.17316,0.20779 0.1039,0.0231 0.2078,0.0462 0.31169,0.0693 0.68391,-0.14601 1.36767,-0.29198 2.05157,-0.43798 -0.61463,0.22682 -1.22917,0.4536 -1.84377,0.68041 -0.17317,0.0115 -0.34633,0.0231 -0.51949,0.0346 -0.0835,0.1215 -0.16698,0.24301 -0.25047,0.36451 -0.055,0.0632 -0.11013,0.12647 -0.16512,0.18961 -0.11544,0.0231 -0.23088,0.0462 -0.34632,0.0693 -0.0924,0 -0.18471,0 -0.27706,0 -0.0693,-0.0577 -0.13853,-0.11544 -0.20779,-0.17316 -0.13854,0.0693 -0.27706,0.13853 -0.41559,0.20779 -0.0577,0.0346 -0.11544,0.0693 -0.17316,0.1039 -0.13854,0.0115 -0.27706,0.0231 -0.41559,0.0346 -0.1039,-0.0693 -0.2078,-0.13853 -0.31169,-0.20779 -0.0808,-0.0924 -0.16162,-0.18471 -0.24243,-0.27706 -0.16162,0.0231 -0.32324,0.0462 -0.48485,0.0693 -0.1039,0.0115 -0.2078,0.0231 -0.31169,0.0346 -0.13854,-0.0808 -0.27706,-0.16162 -0.41559,-0.24243 -0.55413,-0.456 -1.10825,-0.91199 -1.66236,-1.36798 0.38095,0.34055 0.76191,0.6811 1.14287,1.02165 z"
       inkscape:path-effect="#path-effect672" /><g
       id="g695"
       transform="translate(4.9177972,8.9351526)"><path
         style="fill:#ffffff;fill-opacity:1;fill-rule:evenodd;stroke:none;stroke-width:0.264583px;stroke-linecap:butt;stroke-linejoin:miter;stroke-opacity:1"
         d="m 102.77944,118.64409 c 0.2204,-0.004 0.66119,-0.0123 0.96322,-0.15511 0.30203,-0.14286 0.46529,-0.42039 0.5959,-0.64896 0.13061,-0.22858 0.22856,-0.40814 0.31019,-0.58365 0.0816,-0.1755 0.14693,-0.34692 0.0979,-0.4408 -0.049,-0.0939 -0.21223,-0.11021 -0.41223,-10e-6 -0.19999,0.1102 -0.43671,0.34692 -0.63671,0.53467 -0.19999,0.18775 -0.36325,0.32652 -0.52242,0.46937 -0.15918,0.14285 -0.31427,0.28979 -0.41631,0.42856 -0.10204,0.13878 -0.15102,0.26939 -0.1755,0.33468 -0.0245,0.0653 -0.0245,0.0653 0.19591,0.0613 z"
         id="path584"
         transform="matrix(0.91314935,0.14794558,-0.1148531,0.70889604,-39.426415,42.858672)"
         inkscape:original-d="m 102.55904,118.64817 c 0.4408,-0.008 0.88159,-0.0163 1.32239,-0.0245 0.16326,-0.27755 0.32652,-0.55508 0.48977,-0.83262 0.098,-0.17959 0.19592,-0.35917 0.29387,-0.53875 0.0653,-0.17143 0.13061,-0.34285 0.19591,-0.51427 -0.16326,-0.0163 -0.32652,-0.0326 -0.48978,-0.049 -0.23672,0.23673 -0.47344,0.47345 -0.71017,0.71018 -0.16326,0.13877 -0.32652,0.27754 -0.48977,0.41631 -0.1551,0.14693 -0.3102,0.29386 -0.46529,0.4408 -0.049,0.13061 -0.098,0.26121 -0.14693,0.39182 z"
         inkscape:path-effect="#path-effect601" /><path
         style="fill:#ffffff;fill-opacity:1;fill-rule:evenodd;stroke:none;stroke-width:0.264583px;stroke-linecap:butt;stroke-linejoin:miter;stroke-opacity:1"
         d="m 97.526589,118.90938 c 0.232642,0.0163 0.697934,0.049 1.016289,-0.13065 0.318355,-0.1796 0.489772,-0.57141 0.612217,-0.87344 0.122444,-0.30203 0.195908,-0.51426 0.25305,-0.67344 0.05714,-0.15918 0.09796,-0.2653 -0.03265,-0.26121 -0.130609,0.004 -0.432632,0.11836 -0.69793,0.29794 -0.265298,0.17959 -0.493859,0.42448 -0.685687,0.64079 -0.191828,0.21632 -0.346922,0.40407 -0.461203,0.5306 -0.114281,0.12652 -0.187744,0.19182 -0.220397,0.25712 -0.03265,0.0653 -0.02448,0.13061 -0.0204,0.16326 0.0041,0.0327 0.0041,0.0327 0.236715,0.049 z"
         id="path589"
         transform="matrix(0.91314935,0.14794558,-0.1148531,0.70889604,-39.426415,42.858672)"
         inkscape:original-d="m 97.293947,118.89306 c 0.465286,0.0326 0.930574,0.0653 1.39586,0.0979 0.171426,-0.39183 0.342844,-0.78364 0.514265,-1.17546 0.07347,-0.21224 0.146934,-0.42447 0.220398,-0.63671 0.04082,-0.10612 0.08163,-0.21224 0.122444,-0.31835 -0.302032,0.11428 -0.604054,0.22856 -0.906084,0.34284 -0.228566,0.24489 -0.457123,0.48978 -0.685686,0.73466 -0.155099,0.18775 -0.310192,0.3755 -0.465286,0.56325 -0.07347,0.0653 -0.146934,0.1306 -0.2204,0.19591 0.0081,0.0653 0.01632,0.1306 0.0245,0.19591 z"
         inkscape:path-effect="#path-effect607" /><path
         style="fill:#e95583;fill-opacity:1;fill-rule:evenodd;stroke:#bc184a;stroke-width:0.215651px;stroke-linecap:butt;stroke-linejoin:miter;stroke-opacity:1"
         d="m 38.504413,137.64513 c -0.08777,-0.21175 0.117065,-0.42947 0.275362,-0.59786 0.266175,-0.28316 0.631092,-0.76885 1.076021,-0.63192 0.352293,0.10844 0.386163,0.57894 0.299647,0.8548 -0.07051,0.22483 -0.391572,0.33481 -0.61329,0.48012 -0.138466,0.0907 -0.257328,0.24947 -0.445027,0.24284 -0.237416,-0.008 -0.517476,-0.16648 -0.592713,-0.34798 z"
         id="path590"
         sodipodi:nodetypes="sssssss" /><path
         style="fill:#ea7398;fill-opacity:1;fill-rule:evenodd;stroke:#bc184a;stroke-width:0.215651px;stroke-linecap:butt;stroke-linejoin:miter;stroke-opacity:1"
         d="m 31.614407,142.75701 c -0.0932,0.0865 -0.299459,0.11783 -0.313347,0.23428 -0.0128,0.10737 0.09423,0.25274 0.228969,0.28652 0.109601,0.0275 0.198691,-0.0712 0.293655,-0.11276 0.215069,-0.0941 0.409147,-0.21397 0.623738,-0.30871 0.365128,-0.16121 0.745171,-0.30306 1.12709,-0.44094 0.485636,-0.17531 0.951868,-0.39625 1.479394,-0.49075 0.39345,-0.0705 0.812986,-0.0885 1.224559,-0.051 0.572387,0.0521 1.148397,0.18388 1.68263,0.37951 0.458202,0.16799 0.869156,0.41912 1.268587,0.66874 0.387966,0.24245 0.716234,0.54032 1.08674,0.79962 0.277137,0.19395 0.574344,0.40784 0.823581,0.624 0.122474,0.10622 0.195957,0.20232 0.33573,0.29427 0.104562,0.0688 0.334393,0.25853 0.45184,0.22009 0.08181,-0.0268 0.229951,-0.1802 0.232722,-0.25167 0.0066,-0.16916 -0.269974,-0.39237 -0.384863,-0.54338 -0.779556,-1.02469 -2.103487,-1.80094 -3.422381,-2.3895 -0.658333,-0.29378 -1.408606,-0.49274 -2.140979,-0.52503 -0.710044,-0.0313 -1.960105,0.3416 -2.049554,0.32711 -0.08944,-0.0145 -1.632815,0.50378 -2.26543,0.95133 -0.124616,0.0882 -0.1743,0.22768 -0.282681,0.3283 z"
         id="path591"
         sodipodi:nodetypes="sssssssssssssssssssss" /><path
         style="fill:#e95583;fill-opacity:1;fill-rule:evenodd;stroke:#bc184a;stroke-width:0.215651px;stroke-linecap:butt;stroke-linejoin:miter;stroke-opacity:1"
         d="m 31.671496,142.66052 c 0,0 -1.425245,-2.34397 -1.372422,-3.54813 0.02103,-0.47938 0.24483,-0.97976 0.665489,-1.30311 0.359976,-0.27671 0.907064,-0.44421 1.431649,-0.42312 0.350302,0.014 0.69914,0.17831 0.980164,0.36036 0.265079,0.17169 0.608233,0.65284 0.608233,0.65284 0.494904,-0.64808 1.913009,-1.17737 3.91032,-0.83141 1.39606,0.24183 2.163307,0.85314 2.163307,0.85314 0,0 1.09186,-0.29701 2.070154,0.0396 0.832507,0.44758 0.863966,0.88602 1.067111,1.17904 0,0 0.432451,-0.35329 0.719999,-0.43764 0.36135,-0.10599 0.784069,-0.12278 1.178262,-0.0611 0.414551,0.065 0.897621,0.17002 1.161954,0.44022 0.310616,0.31748 0.325582,0.77356 0.267726,1.15196 -0.08641,0.56517 -0.53674,1.03931 -0.895015,1.51788 -0.339237,0.45314 -1.021118,1.09432 -1.179438,1.27022 -0.158318,0.17591 -0.52277,0.41048 -0.862406,0.51536 -0.56461,0.17435 -1.842572,0.15498 -1.842572,0.15498 0,0 -1.063818,-0.90162 -1.675117,-1.2792 -0.802367,-0.4956 -1.633665,-1.02088 -2.584468,-1.27537 -0.703965,-0.18842 -1.470825,-0.22593 -2.18229,-0.152 -0.830499,0.0863 -1.560073,0.42966 -2.317529,0.68271 -0.447341,0.14945 -1.313111,0.49276 -1.313111,0.49276 z"
         id="path592"
         sodipodi:nodetypes="csssscscscssssssscssssc" /><path
         style="fill:#ea7398;fill-opacity:1;fill-rule:evenodd;stroke:none;stroke-width:0.215651px;stroke-linecap:butt;stroke-linejoin:miter;stroke-opacity:1"
         d="m 32.245715,140.41854 c 0.450725,0.24789 0.938663,0.57811 1.46717,0.57621 0.574091,-0.002 0.88659,-0.6102 1.457172,-0.63688 0.912419,-0.0427 1.728609,0.74959 2.649539,0.78559 0.819456,0.032 1.52653,-0.75629 2.309736,-0.51657 0.751694,0.23007 0.700008,1.22923 1.371126,1.59395 0.858835,0.46672 2.300872,1.0713 2.988056,0.53758 0.582152,-0.45214 0.225555,-1.66546 -0.548804,-1.99519 -0.508974,-0.21672 -0.93769,0.65559 -1.48502,0.52548 -0.980221,-0.23302 -0.835941,-1.74935 -1.809646,-2.00351 -0.93591,-0.24429 -1.671724,0.74783 -2.628708,0.78558 -0.954514,0.0376 -1.899881,-0.64971 -2.845449,-0.56791 -0.566997,0.0491 -0.912418,0.55629 -1.476721,0.6159 -0.396582,0.0419 -0.820472,-0.26638 -1.207544,-0.19564 -0.208359,0.0381 -0.488965,0.14167 -0.486752,0.31308 0.0011,0.085 0.153782,0.1317 0.245845,0.18233 z"
         id="path593"
         sodipodi:nodetypes="ssssssssssssssss" /><path
         style="fill:#bc184a;fill-opacity:0.696275;fill-rule:evenodd;stroke:none;stroke-width:0.215651px;stroke-linecap:butt;stroke-linejoin:miter;stroke-opacity:1"
         d="m 33.913832,138.47966 c -0.241485,-0.0567 -0.335595,0.4288 -0.350187,0.74497 -0.0077,0.16617 -0.02694,0.53423 0.181152,0.58164 0.244867,0.0557 0.196341,-0.66491 0.274802,-0.84626 0.122191,-0.28244 0.05484,-0.44259 -0.105767,-0.48035 z"
         id="path594"
         sodipodi:nodetypes="sssss" /><path
         style="fill:#bc184a;fill-opacity:1;fill-rule:evenodd;stroke:none;stroke-width:0.215651px;stroke-linecap:butt;stroke-linejoin:miter;stroke-opacity:1"
         d="m 43.290766,139.69437 c 0.230195,0.0852 -0.03933,0.51797 -0.251585,0.77465 -0.111548,0.1349 -0.356844,0.43493 -0.554163,0.36031 -0.232166,-0.0878 0.316007,-0.62889 0.382591,-0.81382 0.103705,-0.288 0.270042,-0.37781 0.423157,-0.32114 z"
         id="path595"
         sodipodi:nodetypes="sssss" /><path
         style="fill:#bc184a;fill-opacity:0.750716;fill-rule:evenodd;stroke:none;stroke-width:0.215651px;stroke-linecap:butt;stroke-linejoin:miter;stroke-opacity:1"
         d="m 38.973574,138.25294 c -0.180693,0.1288 -0.03779,0.39526 -0.05492,0.5931 -0.0208,0.24035 -0.296809,0.55276 -0.05807,0.72156 0.09292,0.0657 0.266496,0.0134 0.348581,-0.0504 0.176678,-0.13703 0.146353,-0.38541 0.147829,-0.58823 0.0016,-0.22449 0.07142,-0.51985 -0.15402,-0.67263 -0.06032,-0.0408 -0.174941,-0.0422 -0.229403,-0.003 z"
         id="path598"
         sodipodi:nodetypes="sssssss"
         inkscape:transform-center-x="0.17142151"
         inkscape:transform-center-y="0.17142151" /><g
         id="g692"
         transform="matrix(0.50257649,0,0,0.50257649,17.114428,57.008689)"><path
           style="fill:#fef9d4;fill-opacity:1;fill-rule:evenodd;stroke:none;stroke-width:0.264583px;stroke-linecap:butt;stroke-linejoin:miter;stroke-opacity:1"
           d="m 50.985654,168.14001 h 0.612219 c 0,0 0.451614,-0.43594 0.979552,-1.42035 0.656749,-1.22459 -0.750905,-1.74529 -1.22444,-1.7632 -0.465027,-0.0176 -1.857429,0.66114 -1.224439,1.81217 0.502499,0.91375 0.857108,1.37138 0.857108,1.37138 z"
           id="path684"
           sodipodi:nodetypes="ccsssc" /><path
           style="fill:#fef9d4;fill-opacity:1;fill-rule:evenodd;stroke:none;stroke-width:0.264583px;stroke-linecap:butt;stroke-linejoin:miter;stroke-opacity:1"
           d="m 51.853742,168.04515 0.276227,0.54636 c 0,0 0.592804,0.20636 1.709524,0.23333 1.389179,0.0336 1.218742,-1.45759 1.021068,-1.88826 -0.194109,-0.42295 -1.428075,-1.35933 -2.169686,-0.27509 -0.588732,0.86073 -0.837133,1.38366 -0.837133,1.38366 z"
           id="path688"
           sodipodi:nodetypes="ccsssc"
           inkscape:transform-center-x="-1.3797782"
           inkscape:transform-center-y="-0.82020637" /><path
           style="fill:#fef9d4;fill-opacity:1;fill-rule:evenodd;stroke:none;stroke-width:0.264583px;stroke-linecap:butt;stroke-linejoin:miter;stroke-opacity:1"
           d="m 52.215214,168.84111 -0.312943,0.52618 c 0,0 0.143812,0.61101 0.720051,1.56795 0.716786,1.19045 1.883884,0.24674 2.141325,-0.1511 0.252839,-0.39069 0.381222,-1.93439 -0.931634,-1.97871 -1.042221,-0.0352 -1.616799,0.0357 -1.616799,0.0357 z"
           id="path689"
           sodipodi:nodetypes="ccsssc"
           inkscape:transform-center-x="-1.322284"
           inkscape:transform-center-y="1.0120438" /><path
           style="fill:#fef9d4;fill-opacity:1;fill-rule:evenodd;stroke:none;stroke-width:0.264583px;stroke-linecap:butt;stroke-linejoin:miter;stroke-opacity:1"
           d="m 51.75604,169.59901 -0.611604,-0.0273 c 0,0 -0.47068,0.4153 -1.042087,1.37514 -0.710873,1.19398 0.672121,1.77711 1.144379,1.81618 0.463786,0.0384 1.885143,-0.57744 1.304248,-1.75562 -0.461134,-0.93531 -0.794963,-1.40831 -0.794963,-1.40831 z"
           id="path690"
           sodipodi:nodetypes="ccsssc"
           inkscape:transform-center-x="0.13547732"
           inkscape:transform-center-y="1.5345548" /><path
           style="fill:#fef9d4;fill-opacity:1;fill-rule:evenodd;stroke:none;stroke-width:0.264583px;stroke-linecap:butt;stroke-linejoin:miter;stroke-opacity:1"
           d="m 50.795244,169.48233 -0.342066,-0.50774 c 0,0 -0.613869,-0.13107 -1.725282,-0.019 -1.382573,0.13935 -1.028065,1.59778 -0.77839,2.00054 0.24517,0.39557 1.586004,1.17124 2.187064,0.003 0.477167,-0.92724 0.658588,-1.47702 0.658588,-1.47702 z"
           id="path691"
           sodipodi:nodetypes="ccsssc"
           inkscape:transform-center-x="1.3185441"
           inkscape:transform-center-y="1.0017061" /><path
           style="fill:#fef9d4;fill-opacity:1;fill-rule:evenodd;stroke:none;stroke-width:0.264583px;stroke-linecap:butt;stroke-linejoin:miter;stroke-opacity:1"
           d="m 50.396924,168.83227 0.321965,-0.52072 c 0,0 -0.133184,-0.61342 -0.692737,-1.58022 -0.696009,-1.20269 -1.879298,-0.27937 -2.143612,0.11393 -0.259613,0.38625 -0.414717,1.92749 0.89737,1.99449 1.041454,0.0533 1.617178,-0.008 1.617178,-0.008 z"
           id="path692"
           sodipodi:nodetypes="ccsssc"
           inkscape:transform-center-x="1.3124566"
           inkscape:transform-center-y="-1.0334526" /><circle
           style="opacity:1;fill:#fbe11e;fill-opacity:1;fill-rule:evenodd;stroke:none;stroke-width:0.608542;stroke-linecap:round;stroke-opacity:1"
           id="path683"
           cx="51.328495"
           cy="168.77672"
           r="1.1754618" /></g><path
         style="fill:#bc184a;fill-opacity:0.744986;fill-rule:evenodd;stroke:none;stroke-width:0.240612px;stroke-linecap:butt;stroke-linejoin:miter;stroke-opacity:1"
         d="m 39.601075,142.25074 c -0.165397,-0.20104 0.06754,-0.41883 0.103362,-0.62777 0.0435,-0.25386 -0.177072,-0.67927 0.135436,-0.76042 0.121635,-0.0315 0.300349,0.0883 0.374001,0.18518 0.158645,0.20792 0.05602,0.45038 0.0015,0.65843 -0.06047,0.23026 -0.06466,0.55918 -0.357941,0.62903 -0.07846,0.0186 -0.206406,-0.0239 -0.256152,-0.0849 z"
         id="path694"
         sodipodi:nodetypes="sssssss"
         inkscape:transform-center-x="0.1094648"
         inkscape:transform-center-y="-0.25525863" /><path
         style="fill:#bc184a;fill-opacity:0.60745;fill-rule:evenodd;stroke:none;stroke-width:0.175535px;stroke-linecap:butt;stroke-linejoin:miter;stroke-opacity:1"
         d="m 35.236259,140.4431 c -0.230544,0.0811 -0.161276,0.40906 -0.07504,0.60052 0.0453,0.10065 0.143703,0.3246 0.341899,0.25384 0.233192,-0.0833 -0.03541,-0.48101 -0.02312,-0.624 0.01913,-0.22267 -0.0904,-0.28429 -0.243736,-0.23036 z"
         id="path695"
         sodipodi:nodetypes="sssss" /></g></g></svg>
