<?xml version="1.0" encoding="UTF-8" standalone="no"?>
<!-- Created with Inkscape (http://www.inkscape.org/) -->

<svg
   width="5.2186785mm"
   height="7.6147914mm"
   viewBox="0 0 5.2186785 7.6147914"
   version="1.1"
   id="svg1"
   inkscape:version="1.3 (0e150ed6c4, 2023-07-21)"
   sodipodi:docname="IconBalloonExploded.svg"
   xml:space="preserve"
   xmlns:inkscape="http://www.inkscape.org/namespaces/inkscape"
   xmlns:sodipodi="http://sodipodi.sourceforge.net/DTD/sodipodi-0.dtd"
   xmlns="http://www.w3.org/2000/svg"
   xmlns:svg="http://www.w3.org/2000/svg"><sodipodi:namedview
     id="namedview1"
     pagecolor="#505050"
     bordercolor="#eeeeee"
     borderopacity="1"
     inkscape:showpageshadow="0"
     inkscape:pageopacity="0"
     inkscape:pagecheckerboard="0"
     inkscape:deskcolor="#d1d1d1"
     inkscape:document-units="mm"
     inkscape:zoom="5.6568543"
     inkscape:cx="27.223611"
     inkscape:cy="11.490485"
     inkscape:window-width="1280"
     inkscape:window-height="961"
     inkscape:window-x="-8"
     inkscape:window-y="-8"
     inkscape:window-maximized="1"
     inkscape:current-layer="layer1" /><defs
     id="defs1"><inkscape:path-effect
       effect="bspline"
       id="path-effect1"
       is_visible="true"
       lpeversion="1.3"
       weight="33.333333"
       steps="2"
       helper_size="0"
       apply_no_weight="true"
       apply_with_weight="true"
       only_selected="false"
       uniform="false" /></defs><g
     inkscape:label="Layer 1"
     inkscape:groupmode="layer"
     id="layer1"
     transform="translate(-108.38454,-147.95922)"><g
       id="g1"><path
         style="fill:none;fill-rule:evenodd;stroke:#1b1b1b;stroke-width:0.264583px;stroke-linecap:round;stroke-linejoin:miter;stroke-opacity:1"
         d="m 110.99467,154.20149 c 0,0.41341 0,0.82682 0,1.24023"
         id="path1"
         inkscape:path-effect="#path-effect1"
         inkscape:original-d="m 110.99467,154.20149 c 0,0.41341 0,0.82682 0,1.24023"
         transform="translate(-7.8923938e-4)" /><path
         style="opacity:1;fill:#ff1d00;fill-opacity:1;fill-rule:evenodd;stroke:#8a1313;stroke-width:0.265;stroke-linecap:butt;stroke-linejoin:miter;stroke-dasharray:none;stroke-opacity:1"
         d="m 110.39773,154.16671 h 1.28612 c 0,0 1.78687,-2.39985 1.78687,-3.40401 -1e-5,-1.68515 -0.77242,-2.67098 -2.45758,-2.67098 -1.75759,0 -2.481,0.91456 -2.49607,2.67209 -0.008,0.92269 1.88066,3.4029 1.88066,3.4029 z"
         id="path72"
         sodipodi:nodetypes="ccsssc" /><path
         sodipodi:type="star"
         style="fill:#eedf1f;fill-opacity:1;fill-rule:evenodd;stroke-width:0.564999;stroke-linecap:round;stroke-linejoin:round"
         id="path97"
         inkscape:flatsided="false"
         sodipodi:sides="10"
         sodipodi:cx="31.030605"
         sodipodi:cy="37.125904"
         sodipodi:r1="20.592026"
         sodipodi:r2="11.428574"
         sodipodi:arg1="0.4154921"
         sodipodi:arg2="0.72965137"
         inkscape:rounded="0"
         inkscape:randomized="0"
         d="m 49.870616,45.437674 -10.321074,-0.693371 1.837417,10.179845 -7.942372,-6.627524 -4.497061,9.315673 -2.529953,-10.030188 -9.113814,4.893232 3.848822,-9.601661 -10.2494,-1.398258 8.757477,-5.505627 -7.470064,-7.155661 10.321074,0.693371 -1.837416,-10.179844 7.942371,6.627523 4.497061,-9.315673 2.529953,10.030188 9.113815,-4.893232 -3.848822,9.601661 10.2494,1.398258 -8.757477,5.505627 z"
         inkscape:transform-center-x="0.75300924"
         inkscape:transform-center-y="1.0136091"
         transform="matrix(0.11836307,0.02639716,-0.01295655,0.07630435,107.80203,146.63387)" /><path
         d="m 109.85734,149.39379 0.33775,0.067 q 0.13698,0.0272 0.20612,0.0637 0.0699,0.0366 0.0987,0.0854 0.0295,0.0489 0.031,0.11077 0.003,0.0612 -0.0212,0.18468 l -0.0218,0.11462 q -0.024,0.12588 -0.0605,0.17856 -0.0365,0.0526 -0.11084,0.0699 -0.0737,0.0174 -0.18353,-0.004 l -0.09,-0.0178 -0.10105,0.52974 -0.33536,-0.0666 z m 0.29243,0.29163 -0.0639,0.33475 q 0.0141,0.004 0.0246,0.006 0.0463,0.009 0.0681,-0.01 0.0228,-0.02 0.0368,-0.0931 l 0.0205,-0.10806 q 0.0126,-0.0674 -0.004,-0.0918 -0.0169,-0.0244 -0.0822,-0.0374 z m 1.06495,-0.0222 -0.059,1.35353 -0.34333,-0.0681 0.0284,-0.23976 -0.12034,-0.024 -0.065,0.23249 -0.34731,-0.069 0.42143,-1.28158 z m -0.33901,0.81055 q 0.0172,-0.22849 0.0542,-0.56179 -0.12286,0.36687 -0.16898,0.53903 z m 0.58834,-0.76105 0.56796,0.11276 -0.0502,0.26325 -0.23261,-0.0462 -0.0475,0.24942 0.20713,0.041 -0.0478,0.25025 -0.2071,-0.0411 -0.10539,0.55251 -0.33536,-0.0666 z m 1.28089,0.25424 -0.24153,0.97998 -0.24854,-0.0493 0.13642,-1.00086 z m -0.22702,1.04695 -0.0502,0.26324 -0.30112,-0.0597 0.0502,-0.26325 z"
         id="text97"
         style="font-size:53.3333px;line-height:125%;font-family:Impact;-inkscape-font-specification:Impact;letter-spacing:0px;word-spacing:0px;white-space:pre;fill:#1e1e1e;stroke-width:0.0314722px"
         aria-label="PAF !" /></g></g></svg>
