<?xml version="1.0" encoding="UTF-8" standalone="no"?>
<!-- Created with Inkscape (http://www.inkscape.org/) -->

<svg
   width="101.77075"
   height="94.633057"
   viewBox="0 0 26.926844 25.03833"
   version="1.1"
   id="svg1"
   xml:space="preserve"
   inkscape:version="1.3.2 (091e20ef0f, 2023-11-25)"
   sodipodi:docname="GameVolcanoEntrance.svg"
   xmlns:inkscape="http://www.inkscape.org/namespaces/inkscape"
   xmlns:sodipodi="http://sodipodi.sourceforge.net/DTD/sodipodi-0.dtd"
   xmlns:xlink="http://www.w3.org/1999/xlink"
   xmlns="http://www.w3.org/2000/svg"
   xmlns:svg="http://www.w3.org/2000/svg"><sodipodi:namedview
     id="namedview1"
     pagecolor="#505050"
     bordercolor="#eeeeee"
     borderopacity="1"
     inkscape:showpageshadow="0"
     inkscape:pageopacity="0"
     inkscape:pagecheckerboard="0"
     inkscape:deskcolor="#d1d1d1"
     inkscape:document-units="px"
     inkscape:zoom="0.22627417"
     inkscape:cx="426.47378"
     inkscape:cy="667.33202"
     inkscape:window-width="1366"
     inkscape:window-height="706"
     inkscape:window-x="-8"
     inkscape:window-y="-8"
     inkscape:window-maximized="1"
     inkscape:current-layer="layer1" /><defs
     id="defs1"><linearGradient
       id="linearGradient31"
       inkscape:collect="always"><stop
         style="stop-color:#352010;stop-opacity:1;"
         offset="0"
         id="stop32" /><stop
         style="stop-color:#2b0c04;stop-opacity:1;"
         offset="1"
         id="stop33" /></linearGradient><linearGradient
       id="linearGradient25"
       inkscape:collect="always"><stop
         style="stop-color:#ae0003;stop-opacity:1;"
         offset="0"
         id="stop25" /><stop
         style="stop-color:#47080d;stop-opacity:1;"
         offset="0.21916446"
         id="stop31" /><stop
         style="stop-color:#30090c;stop-opacity:1;"
         offset="0.43832892"
         id="stop28" /><stop
         style="stop-color:#bf0b05;stop-opacity:1;"
         offset="0.82360744"
         id="stop27" /><stop
         style="stop-color:#750a26;stop-opacity:1;"
         offset="1"
         id="stop26" /></linearGradient><linearGradient
       id="linearGradient22"
       inkscape:collect="always"><stop
         style="stop-color:#a07448;stop-opacity:1;"
         offset="0"
         id="stop22" /><stop
         style="stop-color:#c28f6d;stop-opacity:1;"
         offset="1"
         id="stop23" /></linearGradient><linearGradient
       id="linearGradient20"
       inkscape:collect="always"><stop
         style="stop-color:#ebcbb6;stop-opacity:1;"
         offset="0"
         id="stop20" /><stop
         style="stop-color:#614534;stop-opacity:1;"
         offset="0.76127321"
         id="stop21" /></linearGradient><linearGradient
       id="linearGradient18"
       inkscape:collect="always"><stop
         style="stop-color:#c18c54;stop-opacity:1;"
         offset="0"
         id="stop18" /><stop
         style="stop-color:#fcd996;stop-opacity:1;"
         offset="1"
         id="stop19" /></linearGradient><linearGradient
       id="linearGradient7"
       inkscape:collect="always"><stop
         style="stop-color:#efd7bc;stop-opacity:1;"
         offset="0"
         id="stop16" /><stop
         style="stop-color:#533927;stop-opacity:1;"
         offset="0.7877984"
         id="stop17" /></linearGradient><linearGradient
       inkscape:collect="always"
       xlink:href="#linearGradient7"
       id="linearGradient17"
       x1="81.486694"
       y1="99.783928"
       x2="87.691025"
       y2="94.004578"
       gradientUnits="userSpaceOnUse" /><linearGradient
       inkscape:collect="always"
       xlink:href="#linearGradient18"
       id="linearGradient19"
       x1="86.908577"
       y1="99.542191"
       x2="90.151756"
       y2="95.819901"
       gradientUnits="userSpaceOnUse" /><linearGradient
       inkscape:collect="always"
       xlink:href="#linearGradient20"
       id="linearGradient21"
       x1="41.22015"
       y1="91.162018"
       x2="44.50658"
       y2="87.733414"
       gradientUnits="userSpaceOnUse"
       gradientTransform="translate(33.69657,0.29386544)" /><linearGradient
       inkscape:collect="always"
       xlink:href="#linearGradient22"
       id="linearGradient23"
       x1="45.168015"
       y1="94.672775"
       x2="48.971275"
       y2="88.942406"
       gradientUnits="userSpaceOnUse"
       gradientTransform="translate(30.26814,-0.58773087)" /><linearGradient
       inkscape:collect="always"
       xlink:href="#linearGradient25"
       id="linearGradient26"
       x1="55.247101"
       y1="107.02451"
       x2="63.773727"
       y2="96.984108"
       gradientUnits="userSpaceOnUse"
       gradientTransform="translate(26.643799,-1.371372)" /><radialGradient
       inkscape:collect="always"
       xlink:href="#linearGradient31"
       id="radialGradient33"
       cx="53.886089"
       cy="98.977554"
       fx="53.886089"
       fy="98.977554"
       r="2.0765119"
       gradientTransform="matrix(1,0,0,0.96631642,33.598615,4.6073352)"
       gradientUnits="userSpaceOnUse" /></defs><g
     inkscape:label="Layer 1"
     inkscape:groupmode="layer"
     id="layer1"
     transform="translate(-330.40775,-95.694839)"><g
       id="g34"
       transform="translate(257.87708,10.192115)"><path
         style="fill:url(#linearGradient17);fill-rule:evenodd;stroke:#f2d1af;stroke-width:0.264583px;stroke-linecap:butt;stroke-linejoin:miter;stroke-opacity:1"
         d="m 79.955886,85.882172 c 0,0 -0.510195,-0.233775 -0.78364,-0.244888 -0.593612,-0.02412 -1.197104,0.147637 -1.738704,0.391822 -0.660918,0.29798 -1.191658,0.827376 -1.763194,1.273415 -0.479539,0.374243 -0.980785,0.730795 -1.395859,1.175462 -0.358741,0.384318 -0.678428,0.812096 -0.930574,1.273419 -0.260281,0.476207 -0.474789,0.987489 -0.587733,1.518303 -0.06804,0.319768 -0.140943,0.665829 -0.04898,0.979554 0.07901,0.269538 0.489776,0.685683 0.489776,0.685683 l 1.028531,0.318355 3.648829,2.791722 4.261048,2.889678 2.791722,1.616253 1.959102,2.49786 2.889676,3.2815 2.399903,3.2815 0.500441,0.76157 1.437243,0.0346 1.471874,-0.76192 0.484854,-2.28573 -6.372357,-7.480595 -10.666772,-6.649415 1.731621,-3.740296 0.138528,-1.870149 z"
         id="path7"
         sodipodi:nodetypes="csssssssccccccccccccccccc" /><path
         style="fill:#63361b;fill-opacity:1;fill-rule:evenodd;stroke:none;stroke-width:0.264583px;stroke-linecap:butt;stroke-linejoin:miter;stroke-opacity:1"
         d="m 95.898089,108.9751 c -0.134127,0.17697 -0.430233,0.57148 -0.636709,0.48978 -0.429794,-0.17008 -0.734983,-0.47586 -1.24893,-1.02853 -0.527358,-0.56709 -1.534914,-1.52383 -1.98359,-2.15501 -0.433257,-0.60949 -0.713709,-1.12161 -1.199951,-1.68973 -0.375322,-0.43852 -0.562456,-0.9076 -0.906085,-1.37137 -0.330457,-0.446 -0.916328,-1.18864 -1.297907,-1.59177 -0.433063,-0.45752 -1.008061,-0.78148 -1.518302,-1.15097 -0.60955,-0.4414 -0.999407,-0.755074 -1.567284,-1.24894 -0.558579,-0.48578 -1.220671,-0.960822 -1.83666,-1.371371 -0.558972,-0.372548 -1.397249,-0.823188 -1.983592,-1.150974 -0.743203,-0.415477 -1.2718,-0.796812 -2.00808,-1.224437 -0.574671,-0.333764 -1.140159,-0.581401 -1.689724,-0.955063 -0.373413,-0.253892 -0.975164,-0.294864 -1.077509,-0.734664 -0.02818,-0.121099 0.146934,-0.342844 0.146934,-0.342844 0,0 0.881597,0.342844 1.126484,0.391821 0.244888,0.04898 2.693766,0.685686 2.987633,0.930574 0.293865,0.244888 1.861148,1.028528 2.350923,1.518304 0.489776,0.489778 3.036948,1.686789 4.40798,2.742744 1.244384,0.958412 2.34651,2.0939 3.428431,3.23253 0.989231,1.04109 2.644788,3.08559 2.791722,3.2815 0.146931,0.19591 2.056048,1.49179 2.057059,2.59581 3.62e-4,0.39521 -0.104127,0.51765 -0.342843,0.83261 z"
         id="path19"
         sodipodi:nodetypes="sssssssssssssscssssssss" /><path
         style="fill:url(#linearGradient19);fill-rule:evenodd;stroke:#f2d1af;stroke-width:0.264583px;stroke-linecap:butt;stroke-linejoin:miter;stroke-opacity:1"
         d="m 99.256383,103.48153 c 0,0 0.251678,2.75763 -0.207796,4.01736 -0.367091,1.00645 -1.939411,2.56279 -1.939411,2.56279 0,0 -2.605787,-1.71792 -3.671033,-2.83985 -0.948132,-0.99858 -1.563706,-2.26704 -2.355001,-3.39397 -0.618483,-0.88082 -1.120226,-1.86008 -1.870149,-2.63207 -0.987771,-1.01684 -2.231593,-1.751287 -3.393972,-2.562789 -1.328558,-0.927518 -2.676499,-1.833991 -4.086619,-2.632062 -1.545624,-0.874761 -4.779269,-2.355 -4.779269,-2.355 0,0 1.109739,-1.06619 1.59309,-1.662354 0.387172,-0.477538 0.781387,-0.965618 1.038972,-1.523825 0.330895,-0.717076 0.533623,-1.501115 0.623382,-2.285738 0.06828,-0.596845 -0.06927,-1.800881 -0.06927,-1.800881 l -0.277058,-0.55412 c 0,0 1.688528,1.449214 2.493531,2.216473 1.099124,1.047589 2.118301,2.176019 3.186179,3.255441 0.803733,0.812422 1.616177,1.61618 2.424266,2.424269 0.785,0.785 1.57,1.57 2.355,2.355 0.277059,0.277059 1.549909,1.499598 2.355004,2.216473 0.856626,0.762759 1.747875,1.485838 2.632059,2.216473 0.847788,0.70056 1.673385,1.43104 2.562796,2.07794 0.445392,0.32395 1.385299,0.90044 1.385299,0.90044 z"
         id="path5"
         sodipodi:nodetypes="cscssssscsssccsssssssc" /><path
         style="fill:url(#linearGradient21);fill-rule:evenodd;stroke:none;stroke-width:0.264583px;stroke-linecap:butt;stroke-linejoin:miter;stroke-opacity:1"
         d="m 77.367993,91.099949 c -0.539497,0.261208 -1.132229,0.489364 -1.731618,0.484854 -0.325077,-0.0024 -0.765917,5.48e-4 -0.935075,-0.277061 -0.256829,-0.421487 0.05732,-1.012604 0.277059,-1.45456 0.214695,-0.431806 0.617217,-0.74451 0.969706,-1.073603 0.300475,-0.280531 0.601797,-0.578544 0.969708,-0.761912 0.363385,-0.181112 0.808558,-0.481199 1.177499,-0.31169 0.361255,0.165978 0.55412,0.935072 0.519486,1.073602 -0.03463,0.138531 -0.137629,1.264072 -0.484852,1.76625 -0.178599,0.258302 -0.479265,0.41727 -0.761913,0.55412 z"
         id="path20"
         sodipodi:nodetypes="ssssssssss" /><path
         style="fill:url(#linearGradient23);fill-rule:evenodd;stroke:none;stroke-width:0.264583px;stroke-linecap:butt;stroke-linejoin:miter;stroke-opacity:1"
         d="m 78.407139,87.586293 c 0,0 0.8702,0.382035 1.108237,0.76191 0.285215,0.455165 0.316787,1.061119 0.242427,1.593091 -0.0615,0.439984 -0.380958,0.865809 -0.55412,1.212132 -0.173162,0.346324 -0.787566,1.121523 -1.246764,1.627722 -0.318293,0.350871 -0.681764,0.65854 -1.038971,0.969706 -0.3589,0.312641 -0.412984,0.426957 -0.887837,0.459643 -0.444408,0.03059 -0.808613,-0.110216 -1.289801,-0.300828 -0.372566,-0.147583 -0.973909,-0.747566 -0.973909,-0.747566 0,0 0.90383,0.384613 1.350663,0.277059 0.503061,-0.121088 1.141128,-0.690184 1.383555,-0.969706 0.16045,-0.185002 0.97244,-0.902347 1.387035,-1.489191 0.357781,-0.506427 0.564639,-0.834057 0.81089,-1.403123 0.1192,-0.275462 0.205223,-0.777451 0.174902,-1.076062 -0.03526,-0.347222 -0.466307,-0.914787 -0.466307,-0.914787 z"
         id="path21"
         sodipodi:nodetypes="cssssssscsssssc" /><path
         style="fill:none;fill-rule:evenodd;stroke:#f2d1af;stroke-width:0.396875;stroke-linecap:butt;stroke-linejoin:miter;stroke-dasharray:none;stroke-opacity:1"
         d="m 76.36945,90.406455 c 0,0 -0.279432,0.64296 -0.554117,0.831178 -0.263393,0.180481 -0.696486,0.419987 -0.935074,0.207796 -0.424877,-0.37787 -0.06025,-1.178505 0.173162,-1.696987 0.244823,-0.543829 0.759891,-0.927229 1.212133,-1.31603 0.422455,-0.363194 0.84131,-0.814828 1.385294,-0.935074 0.285385,-0.06308 0.676168,-0.08387 0.86581,0.138528 0.352049,0.412853 0,1.085147 0,1.627721 0,0.138531 -0.470592,1.221461 -0.86581,1.731619 -0.506126,0.653321 -1.15561,1.212474 -1.870146,1.627722 -0.42299,0.245818 -0.896578,0.462431 -1.385295,0.484854 -0.380381,0.01745 -0.833685,-0.01321 -1.108236,-0.277058 -0.355583,-0.341721 -0.438464,-0.927294 -0.415589,-1.419929 0.03341,-0.719508 0.405796,-1.403595 0.796544,-2.008677 0.549183,-0.850423 1.311592,-1.562769 2.112576,-2.181839 0.723951,-0.559532 1.501849,-1.129254 2.389632,-1.350663 0.436985,-0.108982 0.939258,-0.148612 1.350664,0.03463 0.275999,0.122932 0.51154,0.37734 0.623382,0.658016 0.18375,0.461136 0.06065,0.996513 0,1.489191 -0.08142,0.661375 -0.235791,1.321342 -0.484852,1.939415 -0.268658,0.666706 -0.659396,1.282689 -1.073605,1.870146 -0.48127,0.682567 -1.627722,1.904781 -1.627722,1.904781"
         id="path23"
         sodipodi:nodetypes="cssssssssssssssssssssc" /><path
         style="fill:#310300;fill-opacity:1;fill-rule:evenodd;stroke:none;stroke-width:0.264583px;stroke-linecap:butt;stroke-linejoin:miter;stroke-opacity:1"
         d="m 84.023618,100.26237 1.322395,0.97955 1.861148,-1.542789 c 0,0 -1.053017,-0.808129 -1.199951,-0.612217 -0.146931,0.19591 -0.734663,0.808127 -0.734663,0.808127 z"
         id="path34"
         sodipodi:nodetypes="cccscc" /><path
         style="fill:url(#linearGradient26);fill-rule:evenodd;stroke:#450813;stroke-width:0.264583px;stroke-linecap:butt;stroke-linejoin:miter;stroke-opacity:1"
         d="m 88.551451,93.841029 2.889676,2.79172 c 0,0 -0.247799,0.899733 -0.440799,1.322395 -0.21283,0.466089 -0.488584,0.903494 -0.78364,1.322394 -0.500744,0.71092 -1.42035,1.714222 -1.665237,2.008082 -0.244888,0.29387 -1.392904,1.028 -2.106036,1.51831 -0.46641,0.32068 -0.942279,0.62755 -1.42035,0.93057 -0.501368,0.31779 -1.589896,0.34132 -1.518303,0.93058 0.04546,0.37416 0.729541,0.19799 1.077505,0.34284 0.391003,0.16277 1.126485,0.58773 1.126485,0.58773 l -0.09796,0.97955 c 0,0 -1.231607,-0.3169 -1.861145,-0.39182 -0.551429,-0.0656 -1.201021,0.25576 -1.66524,-0.049 -0.482321,-0.31665 -0.738219,-0.99032 -0.734663,-1.56728 0.0035,-0.56222 0.368668,-1.0915 0.734663,-1.5183 0.374386,-0.43658 0.934384,-0.67197 1.420352,-0.97955 0.605724,-0.38337 1.30987,-0.61928 1.861145,-1.07751 0.463006,-0.38486 0.788578,-0.91007 1.175462,-1.371382 0.529241,-0.63106 1.184979,-1.180622 1.567283,-1.910122 0.331021,-0.631642 0.517462,-1.347404 0.587732,-2.057058 0.05972,-0.603083 -0.14693,-1.812149 -0.14693,-1.812149 z"
         id="path24"
         sodipodi:nodetypes="ccsssssssccsssssssssc" /><path
         style="fill:url(#radialGradient33);fill-rule:evenodd;stroke:#55331d;stroke-width:0.264583px;stroke-linecap:butt;stroke-linejoin:miter;stroke-opacity:1"
         d="m 87.001736,98.382592 1.627719,0.242427 0.796547,1.177499 -0.103899,1.454562 -1.038971,0.86581 -1.419927,-0.0693 -0.831178,-0.27706 -0.484851,-1.10824 0.380955,-1.593091 z"
         id="path31" /><path
         style="fill:none;fill-rule:evenodd;stroke:#450813;stroke-width:0.264583px;stroke-linecap:butt;stroke-linejoin:miter;stroke-opacity:1"
         d="m 85.53356,105.45732 -1.861746,-0.071 -0.06927,0.76192"
         id="path33"
         sodipodi:nodetypes="ccc" /></g></g></svg>
