<?xml version="1.0" encoding="UTF-8" standalone="no"?>
<!-- Created with Inkscape (http://www.inkscape.org/) -->

<svg
   width="5.1164989mm"
   height="5.1316857mm"
   viewBox="0 0 5.1164989 5.1316857"
   version="1.1"
   id="svg1"
   inkscape:version="1.3.2 (091e20ef0f, 2023-11-25)"
   sodipodi:docname="MouseCursor.svg"
   xml:space="preserve"
   xmlns:inkscape="http://www.inkscape.org/namespaces/inkscape"
   xmlns:sodipodi="http://sodipodi.sourceforge.net/DTD/sodipodi-0.dtd"
   xmlns:xlink="http://www.w3.org/1999/xlink"
   xmlns="http://www.w3.org/2000/svg"
   xmlns:svg="http://www.w3.org/2000/svg"><sodipodi:namedview
     id="namedview1"
     pagecolor="#505050"
     bordercolor="#eeeeee"
     borderopacity="1"
     inkscape:showpageshadow="0"
     inkscape:pageopacity="0"
     inkscape:pagecheckerboard="0"
     inkscape:deskcolor="#d1d1d1"
     inkscape:document-units="mm"
     inkscape:zoom="4"
     inkscape:cx="10.75"
     inkscape:cy="7.0000001"
     inkscape:window-width="1366"
     inkscape:window-height="706"
     inkscape:window-x="-8"
     inkscape:window-y="-8"
     inkscape:window-maximized="1"
     inkscape:current-layer="layer1" /><defs
     id="defs1"><linearGradient
       id="linearGradient9"
       inkscape:collect="always"><stop
         style="stop-color:#ffffff;stop-opacity:1;"
         offset="0.37316561"
         id="stop9" /><stop
         style="stop-color:#ffffff;stop-opacity:0;"
         offset="1"
         id="stop14" /></linearGradient><linearGradient
       id="linearGradient7"
       inkscape:collect="always"><stop
         style="stop-color:#ffd87a;stop-opacity:1;"
         offset="0"
         id="stop7" /><stop
         style="stop-color:#f50a69;stop-opacity:1;"
         offset="1"
         id="stop8" /></linearGradient><linearGradient
       inkscape:collect="always"
       xlink:href="#linearGradient7"
       id="linearGradient8"
       x1="107.39021"
       y1="149.45415"
       x2="107.41561"
       y2="154.01443"
       gradientUnits="userSpaceOnUse"
       gradientTransform="translate(-6.8755087,-4.3498116)" /><linearGradient
       inkscape:collect="always"
       xlink:href="#linearGradient9"
       id="linearGradient14"
       x1="107.82219"
       y1="155.52426"
       x2="109.49837"
       y2="156.49825"
       gradientUnits="userSpaceOnUse"
       gradientTransform="translate(-9.2841572,-10.470307)" /></defs><g
     inkscape:label="Layer 1"
     inkscape:groupmode="layer"
     id="layer1"
     transform="translate(-97.91885,-144.7186)"><g
       id="g14"><path
         style="fill:url(#linearGradient8);fill-rule:evenodd;stroke:#000000;stroke-width:0.165;stroke-linecap:butt;stroke-linejoin:miter;stroke-dasharray:none;stroke-opacity:1"
         d="m 101.41533,149.71464 c 0,0 0.37875,-0.49391 0.64312,-0.68404 0.23236,-0.16711 0.83021,-0.39172 0.83021,-0.39172 0,0 -0.76526,-0.79142 -1.13105,-1.10199 -0.25711,-0.21829 -0.69307,-0.51165 -0.69307,-0.51165 0,0 0.35855,-0.22908 0.56127,-0.28064 0.21922,-0.0558 0.67819,-0.0234 0.67819,-0.0234 0,0 -0.81119,-0.64178 -1.26285,-0.88867 -0.56143,-0.30689 -1.167429,-0.53158 -1.777339,-0.72497 -0.39655,-0.12574 -1.21607,-0.28064 -1.21607,-0.28064 0,0 0.29179,0.7757 0.42095,1.16931 0.16226,0.49448 0.3203,0.99128 0.44433,1.49671 0.0776,0.31625 0.14285,0.63621 0.18709,0.95883 0.0266,0.19369 0.0468,0.58465 0.0468,0.58465 0,0 0.36313,-0.59678 0.58465,-0.86529 0.12628,-0.15307 0.420949,-0.42095 0.420949,-0.42095 0,0 0.20304,0.3751 0.35055,0.61205 0.15849,0.25459 0.40385,0.60617 0.56151,0.86128 0.10576,0.17113 0.35076,0.49113 0.35076,0.49113 z"
         id="path4"
         sodipodi:nodetypes="cscscscsscssscscssc" /><path
         style="fill:url(#linearGradient14);fill-rule:evenodd;stroke:none;stroke-width:0.264583px;stroke-linecap:butt;stroke-linejoin:miter;stroke-opacity:1"
         d="m 98.936531,146.35369 -0.65481,-1.30962 c 0,0 0.72654,0.13901 1.07576,0.25725 0.3636,0.12311 1.052379,0.46772 1.052379,0.46772 l -0.912059,-0.1637 -0.56127,-0.0935 z"
         id="path8"
         sodipodi:nodetypes="ccscccc" /></g></g></svg>
