<?xml version="1.0" encoding="UTF-8" standalone="no"?>
<!-- Created with Inkscape (http://www.inkscape.org/) -->

<svg
   width="34.95816"
   height="34.897491"
   viewBox="0 0 9.8659699 9.8488477"
   version="1.1"
   id="svg1"
   inkscape:version="1.3 (0e150ed6c4, 2023-07-21)"
   sodipodi:docname="GameMap.svg"
   xml:space="preserve"
   xmlns:inkscape="http://www.inkscape.org/namespaces/inkscape"
   xmlns:sodipodi="http://sodipodi.sourceforge.net/DTD/sodipodi-0.dtd"
   xmlns="http://www.w3.org/2000/svg"
   xmlns:svg="http://www.w3.org/2000/svg"
   xmlns:rdf="http://www.w3.org/1999/02/22-rdf-syntax-ns#"
   xmlns:cc="http://creativecommons.org/ns#"
   xmlns:dc="http://purl.org/dc/elements/1.1/"><metadata
     id="metadata585"><rdf:RDF><cc:Work
         rdf:about=""><dc:format>image/svg+xml</dc:format><dc:type
           rdf:resource="http://purl.org/dc/dcmitype/StillImage" /></cc:Work></rdf:RDF></metadata><sodipodi:namedview
     id="namedview1"
     pagecolor="#505050"
     bordercolor="#eeeeee"
     borderopacity="1"
     inkscape:showpageshadow="0"
     inkscape:pageopacity="1"
     inkscape:pagecheckerboard="0"
     inkscape:deskcolor="#d1d1d1"
     inkscape:document-units="px"
     inkscape:zoom="0.5"
     inkscape:cx="440"
     inkscape:cy="162"
     inkscape:window-width="1280"
     inkscape:window-height="961"
     inkscape:window-x="-8"
     inkscape:window-y="-8"
     inkscape:window-maximized="1"
     inkscape:current-layer="layer1"
     showgrid="false"
     units="px" /><defs
     id="defs1" /><g
     inkscape:label="Layer 1"
     inkscape:groupmode="layer"
     id="layer1"
     transform="translate(-81.755447,68.407417)"><path
       style="fill:#15c3ff;fill-opacity:1;fill-rule:evenodd;stroke:#000000;stroke-width:0.280231;stroke-linecap:butt;stroke-linejoin:miter;stroke-dasharray:none;stroke-opacity:0.848396;paint-order:normal"
       d="m 85.198959,-66.609222 1.519603,-1.597533 1.578051,1.578051 h -0.986496 l -0.02755,2.279407 h -1.200228 v -2.240443 z"
       id="path4427-65"
       sodipodi:nodetypes="cccccccc"
       inkscape:export-filename="..\..\Binary\Data\Sprites\UI\JoyPadDirection.svg"
       inkscape:export-xdpi="96"
       inkscape:export-ydpi="96" /><path
       style="fill:#15c3ff;fill-opacity:1;fill-rule:evenodd;stroke:#000000;stroke-width:0.280231;stroke-linecap:butt;stroke-linejoin:miter;stroke-dasharray:none;stroke-opacity:0.848396;paint-order:normal"
       d="m 89.82323,-64.963909 1.59753,1.519603 -1.578048,1.578051 v -0.986496 l -2.279407,-0.02755 v -1.200228 h 2.240443 z"
       id="path7"
       sodipodi:nodetypes="cccccccc"
       inkscape:transform-center-x="-2.0673031"
       inkscape:transform-center-y="0.067909681" /><path
       style="fill:#15c3ff;fill-opacity:1;fill-rule:evenodd;stroke:#000000;stroke-width:0.280231;stroke-linecap:butt;stroke-linejoin:miter;stroke-dasharray:none;stroke-opacity:0.848396;paint-order:normal"
       d="m 85.198959,-60.35676 1.519603,1.597533 1.578051,-1.578052 h -0.986496 l -0.02755,-2.279407 h -1.200228 v 2.240444 z"
       id="path8"
       sodipodi:nodetypes="cccccccc" /><path
       style="fill:#15c3ff;fill-opacity:1;fill-rule:evenodd;stroke:#000000;stroke-width:0.280231;stroke-linecap:butt;stroke-linejoin:miter;stroke-dasharray:none;stroke-opacity:0.848396;paint-order:normal"
       d="m 83.553644,-64.963909 -1.59753,1.519603 1.578048,1.578051 v -0.986496 l 2.279408,-0.02755 v -1.200228 h -2.240444 z"
       id="path9"
       sodipodi:nodetypes="cccccccc"
       inkscape:transform-center-x="2.0673028"
       inkscape:transform-center-y="0.067909681" /><path
       style="font-weight:900;font-size:7.52594px;line-height:125%;font-family:Arial;-inkscape-font-specification:'Arial Heavy';letter-spacing:0px;word-spacing:0px;fill:#ffffff;fill-opacity:1;stroke:#9c9c9c;stroke-width:0.282222px;stroke-opacity:1"
       d="m 87.304421,-62.659019 h -1.396415 v -0.139642 c 0,-0.237635 0.02695,-0.429948 0.08085,-0.576939 0.05389,-0.149441 0.133513,-0.285408 0.23886,-0.407901 0.107793,-0.122492 0.347879,-0.338079 0.720256,-0.64676 0.198438,-0.16169 0.297657,-0.309906 0.297657,-0.444648 0,-0.134741 -0.04042,-0.23886 -0.121268,-0.312356 -0.0784,-0.07594 -0.198438,-0.113918 -0.360128,-0.113918 -0.173939,0 -0.31848,0.05757 -0.433623,0.172715 -0.112693,0.115143 -0.184964,0.31603 -0.216812,0.602663 l -1.425813,-0.176389 c 0.049,-0.524268 0.238863,-0.945642 0.56959,-1.264123 0.33318,-0.320931 0.842749,-0.481396 1.528707,-0.481396 0.534067,0 0.965241,0.111468 1.293521,0.334405 0.445873,0.301331 0.668809,0.703107 0.668809,1.205326 0,0.208237 -0.05757,0.409125 -0.172715,0.602663 -0.115143,0.193539 -0.350328,0.429949 -0.705556,0.709232 -0.247435,0.195988 -0.404226,0.354003 -0.470372,0.474046 -0.06369,0.117593 -0.09554,0.271933 -0.09554,0.463022 z m -1.444187,0.682966 h 1.495634 v 1.319244 h -1.495634 z"
       id="text9"
       aria-label="?"
       sodipodi:nodetypes="ccscccscsccccscssccscccccc" /></g></svg>
