<?xml version="1.0" encoding="UTF-8" standalone="no"?>
<!-- Created with Inkscape (http://www.inkscape.org/) -->

<svg
   width="44.41428"
   height="64"
   viewBox="0 0 12.534697 18.062222"
   version="1.1"
   id="svg1"
   inkscape:version="1.3.2 (091e20ef0f, 2023-11-25)"
   sodipodi:docname="IconLRForest.svg"
   xml:space="preserve"
   xmlns:inkscape="http://www.inkscape.org/namespaces/inkscape"
   xmlns:sodipodi="http://sodipodi.sourceforge.net/DTD/sodipodi-0.dtd"
   xmlns:xlink="http://www.w3.org/1999/xlink"
   xmlns="http://www.w3.org/2000/svg"
   xmlns:svg="http://www.w3.org/2000/svg"
   xmlns:rdf="http://www.w3.org/1999/02/22-rdf-syntax-ns#"
   xmlns:cc="http://creativecommons.org/ns#"
   xmlns:dc="http://purl.org/dc/elements/1.1/"><metadata
     id="metadata585"><rdf:RDF><cc:Work
         rdf:about=""><dc:format>image/svg+xml</dc:format><dc:type
           rdf:resource="http://purl.org/dc/dcmitype/StillImage" /></cc:Work></rdf:RDF></metadata><sodipodi:namedview
     id="namedview1"
     pagecolor="#505050"
     bordercolor="#eeeeee"
     borderopacity="1"
     inkscape:showpageshadow="0"
     inkscape:pageopacity="1"
     inkscape:pagecheckerboard="0"
     inkscape:deskcolor="#d1d1d1"
     inkscape:document-units="mm"
     inkscape:zoom="2.8284272"
     inkscape:cx="10.960155"
     inkscape:cy="50.911687"
     inkscape:window-width="1366"
     inkscape:window-height="706"
     inkscape:window-x="-8"
     inkscape:window-y="-8"
     inkscape:window-maximized="1"
     inkscape:current-layer="layer1"
     showgrid="false"
     units="px" /><defs
     id="defs1"><linearGradient
       inkscape:collect="always"
       xlink:href="#linearGradient67"
       id="linearGradient68"
       x1="101.68382"
       y1="163.89191"
       x2="102.65639"
       y2="186.8134"
       gradientUnits="userSpaceOnUse"
       gradientTransform="translate(-51.645126,-47.012767)" /><linearGradient
       id="linearGradient67"
       inkscape:collect="always"><stop
         style="stop-color:#e16462;stop-opacity:1;"
         offset="0"
         id="stop67" /><stop
         style="stop-color:#c70003;stop-opacity:1;"
         offset="0.56756759"
         id="stop68" /></linearGradient><linearGradient
       inkscape:collect="always"
       xlink:href="#linearGradient20"
       id="linearGradient23"
       x1="119.85658"
       y1="201.23041"
       x2="120.94621"
       y2="214.3907"
       gradientUnits="userSpaceOnUse"
       gradientTransform="translate(-62.051222,-60.321763)" /><linearGradient
       id="linearGradient20"
       inkscape:collect="always"><stop
         style="stop-color:#ce0003;stop-opacity:1;"
         offset="0"
         id="stop20" /><stop
         style="stop-color:#f84a47;stop-opacity:1;"
         offset="0.16756757"
         id="stop24" /><stop
         style="stop-color:#ce0808;stop-opacity:1;"
         offset="1"
         id="stop23" /></linearGradient><linearGradient
       inkscape:collect="always"
       xlink:href="#linearGradient41"
       id="linearGradient42"
       x1="83.330315"
       y1="163.63049"
       x2="83.40316"
       y2="168.77315"
       gradientUnits="userSpaceOnUse" /><linearGradient
       id="linearGradient41"
       inkscape:collect="always"><stop
         style="stop-color:#f1a488;stop-opacity:1;"
         offset="0"
         id="stop41-1" /><stop
         style="stop-color:#fac1a6;stop-opacity:1;"
         offset="1"
         id="stop42" /></linearGradient><linearGradient
       inkscape:collect="always"
       xlink:href="#linearGradient45"
       id="linearGradient46"
       x1="81.299469"
       y1="169.23465"
       x2="86.597427"
       y2="169.23465"
       gradientUnits="userSpaceOnUse" /><linearGradient
       id="linearGradient45"
       inkscape:collect="always"><stop
         style="stop-color:#f30206;stop-opacity:1;"
         offset="0"
         id="stop45-4" /><stop
         style="stop-color:#f24743;stop-opacity:1;"
         offset="0.99661016"
         id="stop46-3" /></linearGradient><linearGradient
       inkscape:collect="always"
       xlink:href="#linearGradient43-8"
       id="linearGradient44"
       x1="90.031593"
       y1="163.66962"
       x2="90.092003"
       y2="169.05714"
       gradientUnits="userSpaceOnUse" /><linearGradient
       id="linearGradient43-8"
       inkscape:collect="always"><stop
         style="stop-color:#f0a084;stop-opacity:1;"
         offset="0"
         id="stop43-0" /><stop
         style="stop-color:#fdbfa3;stop-opacity:1;"
         offset="1"
         id="stop44-4" /></linearGradient><linearGradient
       inkscape:collect="always"
       xlink:href="#linearGradient47"
       id="linearGradient48"
       x1="87.055992"
       y1="169.09024"
       x2="92.056755"
       y2="169.09024"
       gradientUnits="userSpaceOnUse" /><linearGradient
       id="linearGradient47"
       inkscape:collect="always"><stop
         style="stop-color:#f84a4a;stop-opacity:1;"
         offset="0"
         id="stop47" /><stop
         style="stop-color:#de0b0c;stop-opacity:1;"
         offset="1"
         id="stop48" /></linearGradient><linearGradient
       inkscape:collect="always"
       xlink:href="#linearGradient64"
       id="linearGradient65"
       x1="99.008575"
       y1="189.35208"
       x2="98.83786"
       y2="202.47807"
       gradientUnits="userSpaceOnUse"
       gradientTransform="translate(-51.865526,-49.559601)" /><linearGradient
       id="linearGradient64"
       inkscape:collect="always"><stop
         style="stop-color:#c70003;stop-opacity:1;"
         offset="0.04864865"
         id="stop64" /><stop
         style="stop-color:#f74945;stop-opacity:1;"
         offset="0.24864864"
         id="stop66" /><stop
         style="stop-color:#d91918;stop-opacity:1;"
         offset="1"
         id="stop65" /></linearGradient><marker
       markerWidth="2"
       markerHeight="2"
       refX="0"
       refY="0"
       id="SerifCap"
       viewBox="0 0 1.05 2"
       inkscape:stockid="Serif cap"
       style="overflow:visible"
       preserveAspectRatio="xMidYMid"
       inkscape:isstock="true"
       inkscape:collect="always"><path
         id="path104971"
         style="stroke-linecap:butt"
         d="M 0,-1 H 0.585 C 1.33,-1 1.7,-1.6 2,-2 V 2 C 1.7,1.6 1.33,1 0.585,1 H 0 L -0.1,0 Z"
         sodipodi:nodetypes="sssssscsss"
         transform="scale(0.5)"
         inkscape:connector-curvature="0" /></marker><marker
       style="overflow:visible"
       id="DartArrow"
       refX="0"
       refY="0"
       inkscape:stockid="Dart arrow"
       markerWidth="0.69999999"
       markerHeight="0.69999999"
       viewBox="0 0 1 1"
       inkscape:isstock="true"
       inkscape:collect="always"
       preserveAspectRatio="none"><path
         style="fill-rule:evenodd;stroke:none"
         d="M 0,0 5,-5 -12.5,0 5,5 Z"
         transform="scale(-0.5)"
         id="path7"
         inkscape:connector-curvature="0" /></marker><radialGradient
       inkscape:collect="always"
       xlink:href="#linearGradient21"
       id="radialGradient130"
       gradientUnits="userSpaceOnUse"
       gradientTransform="translate(-7.5947998,26.556535)"
       cx="102.06926"
       cy="153.20184"
       fx="102.06926"
       fy="153.20184"
       r="1.2734169" /><linearGradient
       id="linearGradient21"
       inkscape:collect="always"><stop
         style="stop-color:#fd4878;stop-opacity:1;"
         offset="0"
         id="stop21" /><stop
         style="stop-color:#f8438c;stop-opacity:0.147651;"
         offset="1"
         id="stop22" /></linearGradient><radialGradient
       inkscape:collect="always"
       xlink:href="#linearGradient21"
       id="radialGradient131"
       gradientUnits="userSpaceOnUse"
       gradientTransform="translate(2.379324,26.140946)"
       cx="102.06926"
       cy="153.20184"
       fx="102.06926"
       fy="153.20184"
       r="1.2734169" /><linearGradient
       inkscape:collect="always"
       xlink:href="#linearGradient15"
       id="linearGradient131"
       gradientUnits="userSpaceOnUse"
       gradientTransform="matrix(1.2037345,0,0,1.2037345,-27.047499,-8.735482)"
       x1="101.03868"
       y1="154.20589"
       x2="102.80596"
       y2="156.06703" /><linearGradient
       id="linearGradient15"
       inkscape:collect="always"><stop
         style="stop-color:#561407;stop-opacity:1;"
         offset="0"
         id="stop16" /><stop
         style="stop-color:#a55334;stop-opacity:1;"
         offset="1"
         id="stop17" /></linearGradient><linearGradient
       inkscape:collect="always"
       xlink:href="#linearGradient15"
       id="linearGradient132"
       gradientUnits="userSpaceOnUse"
       gradientTransform="matrix(1.2037345,0,0,1.2037345,-19.749841,-9.225258)"
       x1="101.03868"
       y1="154.20589"
       x2="102.80596"
       y2="156.06703" /><linearGradient
       inkscape:collect="always"
       xlink:href="#linearGradient31"
       id="linearGradient133"
       gradientUnits="userSpaceOnUse"
       x1="85.76815"
       y1="134.78792"
       x2="85.882812"
       y2="149.88763" /><linearGradient
       id="linearGradient31"
       inkscape:collect="always"><stop
         style="stop-color:#a53b05;stop-opacity:1;"
         offset="0"
         id="stop31" /><stop
         style="stop-color:#762101;stop-opacity:1;"
         offset="0.45423728"
         id="stop32" /></linearGradient></defs><g
     inkscape:label="Layer 1"
     inkscape:groupmode="layer"
     id="layer1"
     transform="translate(-39.851397,-116.66569)"><g
       id="g4"
       transform="matrix(0.40520798,0,0,0.40520798,23.703293,69.391821)"><path
         id="path62"
         style="fill:url(#linearGradient68);fill-rule:evenodd;stroke:#7d220e;stroke-width:0.264583px;stroke-linecap:butt;stroke-linejoin:miter;stroke-opacity:1"
         d="m 47.352901,140.12091 c 0.053,-0.0582 0.0803,-0.11023 0.05,-0.16228 -0.0571,-0.098 -0.31836,-0.19592 -0.71018,-0.3102 -0.39183,-0.11428 -0.91425,-0.24488 -1.44484,-0.43263 -0.53059,-0.18775 -1.06934,-0.43263 -1.58361,-0.7265 -0.51426,-0.29387 -1.00404,-0.63671 -1.42851,-0.98772 -0.42448,-0.35101 -0.78364,-0.71017 -1.08567,-1.14281 -0.30203,-0.43264 -0.54691,-0.93873 -0.73466,-1.54279 -0.18775,-0.60407 -0.31835,-1.30607 -0.38366,-2.04074 -0.0653,-0.73467 -0.0653,-1.50197 0.008,-2.17134 0.0735,-0.66936 0.2204,-1.24076 0.41632,-1.77135 0.19591,-0.5306 0.44079,-1.02036 0.74282,-1.54279 0.30203,-0.52244 0.6612,-1.07751 1.11833,-1.64892 0.45713,-0.57141 1.01221,-1.15913 1.56728,-1.76319 0.55508,-0.60406 1.11016,-1.22443 1.63258,-1.80401 0.52243,-0.57957 1.0122,-1.11831 1.41219,-1.56727 0.39998,-0.44897 0.71017,-0.80813 0.97139,-1.22445 0.26122,-0.41631 0.47344,-0.88975 0.65303,-1.24076 0.17959,-0.35101 0.32652,-0.57957 0.51426,-0.76731 0.18775,-0.18775 0.41631,-0.33468 0.66936,-0.41632 0.25306,-0.0816 0.53059,-0.098 0.82446,0.0571 0.29387,0.15509 0.60405,0.4816 1.00404,0.84893 0.39999,0.36734 0.88976,0.77548 1.33872,1.1918 0.44897,0.41631 0.8571,0.84077 1.33872,1.31422 0.48162,0.47346 1.03669,0.99588 1.59994,1.4775 0.56325,0.48162 1.13464,0.9224 1.70605,1.39586 0.57141,0.47345 1.1428,0.97955 1.66523,1.49381 0.52244,0.51427 0.99588,1.03669 1.3877,1.51831 0.39182,0.48161 0.70201,0.92241 0.97139,1.48565 0.26938,0.56325 0.49794,1.24892 0.65303,1.82849 0.1551,0.57957 0.23673,1.05302 0.20408,1.70607 -0.0327,0.65304 -0.17959,1.48564 -0.42448,2.30194 -0.24489,0.8163 -0.58773,1.61625 -1.00404,2.26929 -0.41632,0.65304 -0.90608,1.15913 -1.35505,1.59177 -0.44896,0.43264 -0.8571,0.7918 -1.22444,1.0775 -0.36733,0.28571 -0.69384,0.49794 -1.02036,0.6612 -0.32652,0.16326 -0.65303,0.27754 -0.90608,0.36733 -0.25306,0.0898 -0.43264,0.1551 -0.48162,0.24488 -0.0207,0.038 -0.0181,0.0803 0.005,0.12707"
         inkscape:connector-curvature="0" /><path
         id="path14"
         style="fill:url(#linearGradient23);fill-rule:evenodd;stroke:#7d220e;stroke-width:0.264583px;stroke-linecap:butt;stroke-linejoin:miter;stroke-opacity:1"
         d="m 56.261231,140.80869 c 0.0321,0.0638 0.10316,0.1357 0.20678,0.21578 0.17958,0.13877 0.45711,0.30203 0.77547,0.53876 0.31836,0.23673 0.67752,0.54691 0.96323,0.88159 0.2857,0.33469 0.49793,0.69385 0.71833,1.07751 0.2204,0.38366 0.44896,0.7918 0.62854,1.19995 0.17959,0.40815 0.31019,0.81629 0.40815,1.22444 0.098,0.40815 0.16326,0.81629 0.25306,1.24893 0.0898,0.43264 0.20407,0.88975 0.40814,1.37954 0.20408,0.48978 0.49794,1.0122 0.75099,1.41218 0.25305,0.39999 0.46529,0.67752 0.66936,0.91425 0.20407,0.23673 0.39998,0.43263 0.56324,0.62038 0.16326,0.18775 0.29386,0.36733 0.31019,0.56324 0.0163,0.1959 -0.0816,0.40815 -0.24489,0.57957 -0.16326,0.17142 -0.39182,0.30203 -0.60406,0.39998 -0.21223,0.0979 -0.40814,0.16326 -0.57956,0.21224 -0.17143,0.049 -0.31834,0.0816 -0.47345,0.098 -0.1551,0.0163 -0.31835,0.0163 -0.47345,0.0816 -0.1551,0.0653 -0.30203,0.1959 -0.41631,0.34283 -0.11428,0.14693 -2.00808,-0.10611 -2.0489,-0.0245 -0.0408,0.0816 1.5779,-0.0178 1.65712,0.11421 l -3e-5,-5e-5 -14.47288,-0.97955 c -0.19403,-0.0131 1.07588,-5.71644 1.48561,-6.37524 0.34485,-0.55446 1.80879,-3.01301 2.12336,-3.25378 0.57051,-0.43668 1.61489,-2.04601 1.96655,-2.10084 0.68697,-0.10711 3.83921,0.78682 3.85521,0.55063 0.0115,-0.16964 0.0574,-0.46896 -0.044,-0.52555"
         sodipodi:nodetypes="cssssssssssssssscsssscsssssc"
         inkscape:connector-curvature="0" /><g
         id="g61"
         transform="translate(-52.408846,-15.160538)"><path
           style="fill:#de2120;fill-opacity:1;fill-rule:evenodd;stroke:#7d220e;stroke-width:0.264583px;stroke-linecap:butt;stroke-linejoin:miter;stroke-opacity:1"
           d="m 136.85966,155.66705 c 0.5061,0.0163 1.51829,0.049 2.39582,0.11024 0.87753,0.0612 1.62033,0.15105 2.38766,0.22453 0.76733,0.0735 1.55912,0.13062 2.35093,0.18777 0.0245,0.82447 0.049,1.64895 0.0735,2.47342 -0.84078,-0.0245 -1.68156,-0.0489 -2.56724,-0.0857 -0.88568,-0.0367 -1.50942,-0.0695 -2.85536,-0.19438 -1.34594,-0.12482 -2.07912,-0.21784 -3.17295,-0.35661 0.0163,-0.42855 0.0327,-0.85708 0.0694,-1.26728 0.0367,-0.4102 0.0939,-0.80201 0.23266,-0.98367 0.13877,-0.18167 0.35913,-0.15317 0.46931,-0.13892 0.11019,0.0143 0.11016,0.0142 0.61626,0.0306 z"
           id="path55"
           sodipodi:nodetypes="ccccccccccc"
           transform="translate(-28.848835,-0.09795515)"
           inkscape:connector-curvature="0" /><path
           style="fill:#fbbb9f;fill-opacity:1;fill-rule:evenodd;stroke:#2a1e0b;stroke-width:0.264583px;stroke-linecap:butt;stroke-linejoin:miter;stroke-opacity:1"
           d="m 144.189,156.14006 c 0.20491,0 0.61473,0 0.94662,-0.006 0.3319,-0.006 0.58586,-0.0173 0.85138,-0.0231 0.26552,-0.006 0.54257,-0.006 0.77346,0.052 0.23088,0.0577 0.41558,0.17316 0.51948,0.40117 0.10391,0.228 0.12701,0.56854 0.12989,0.88312 0.003,0.31458 -0.0145,0.60318 -0.0462,0.84272 -0.0317,0.23955 -0.0779,0.43003 -0.17028,0.55413 -0.0924,0.12409 -0.23088,0.18181 -0.40693,0.21067 -0.17605,0.0289 -0.38962,0.0289 -0.58876,-0.006 -0.19914,-0.0346 -0.38383,-0.10389 -0.54834,-0.15008 -0.16451,-0.0462 -0.3088,-0.0693 -0.46176,-0.0866 -0.15297,-0.0173 -0.31458,-0.0289 -0.46754,-0.0433 -0.15296,-0.0144 -0.29726,-0.0317 -0.40691,-0.0461 -0.10965,-0.0144 -0.18473,-0.026 -0.2338,-0.45598 -0.0491,-0.43002 -0.0722,-1.27849 -0.0837,-1.70274 -0.0115,-0.42424 -0.0115,-0.42436 0.1934,-0.42436 z"
           id="path56"
           transform="translate(-28.848835,-0.09795515)"
           inkscape:connector-curvature="0" /></g><g
         id="g2"
         transform="translate(-78.631769,-15.177344)"><path
           style="fill:url(#linearGradient42);fill-rule:evenodd;stroke:#2a1e0b;stroke-width:0.165;stroke-linecap:butt;stroke-linejoin:miter;stroke-dasharray:none;stroke-opacity:1"
           d="m 81.49868,164.37689 c 0,0.44897 0,1.34689 -0.0082,2.13053 -0.0082,0.78365 -0.02449,1.453 -0.03265,1.94278 -0.0082,0.48978 -0.0082,0.79996 0.08979,0.86526 0.09795,0.0653 0.293861,-0.11427 0.514264,-0.31019 0.220402,-0.19591 0.465284,-0.40814 0.734672,-0.56324 0.269387,-0.1551 0.563235,-0.25305 0.848938,-0.31019 0.285704,-0.0571 0.563236,-0.0735 0.759153,-0.0572 0.195917,0.0163 0.310169,0.0653 0.457113,0.12243 0.146943,0.0571 0.326526,0.12245 0.457133,0.18775 0.130606,0.0653 0.212238,0.13061 0.204074,0.049 -0.0082,-0.0816 -0.106119,-0.31019 -0.18775,-0.58773 -0.08163,-0.27755 -0.146934,-0.60406 -0.19591,-0.93874 -0.04898,-0.33468 -0.08163,-0.67752 -0.163257,-1.09383 -0.08163,-0.41632 -0.212235,-0.90609 -0.318353,-1.27342 -0.106118,-0.36733 -0.187748,-0.61222 -0.710183,-0.69385 -0.522435,-0.0816 -1.485642,0 -1.967255,0.0408 -0.481613,0.0408 -0.481614,0.0408 -0.481614,0.48979 z"
           id="path38"
           transform="translate(44.883556,5.8182388)"
           inkscape:connector-curvature="0" /><path
           style="fill:url(#linearGradient46);fill-rule:evenodd;stroke:#2a1e0b;stroke-width:0.165;stroke-linecap:butt;stroke-linejoin:miter;stroke-dasharray:none;stroke-opacity:1"
           d="m 81.55582,169.4624 c 0.155094,0.14693 0.465289,0.4408 0.816295,0.62854 0.351005,0.18775 0.742825,0.26938 1.07751,0.32653 0.334686,0.0571 0.61221,0.0898 0.914244,0.098 0.302033,0.008 0.628546,-0.008 0.889761,-0.049 0.261214,-0.0408 0.457122,-0.10612 0.636701,-0.17958 0.179579,-0.0735 0.342848,-0.1551 0.448966,-0.31836 0.106119,-0.16326 0.155097,-0.40815 0.106117,-0.64487 -0.04898,-0.23673 -0.19591,-0.46529 -0.408149,-0.64487 -0.212238,-0.17959 -0.489771,-0.31019 -0.799966,-0.43264 -0.310195,-0.12244 -0.653033,-0.23672 -0.995882,-0.27754 -0.342848,-0.0408 -0.685682,-0.008 -1.012203,0.10608 -0.326521,0.11428 -0.636702,0.31018 -0.848949,0.45712 -0.212247,0.14695 -0.326504,0.24488 -0.473438,0.36733 -0.146934,0.12244 -0.326514,0.26937 -0.416308,0.34284 -0.08979,0.0735 -0.08979,0.0735 0.0653,0.22043 z"
           id="path40"
           transform="translate(44.883556,5.8182388)"
           inkscape:connector-curvature="0" /><path
           style="fill:#feae99;fill-opacity:1;fill-rule:evenodd;stroke:none"
           d="m 64.80549,167.48697 c 0.383659,0.0653 1.265254,0.0653 1.56728,-0.0163 0.302025,-0.0816 0.02449,-0.24488 -0.261215,-0.351 -0.285708,-0.10612 -0.579572,-0.15509 -0.824453,-0.13877 -0.244882,0.0163 -0.440796,0.0979 -0.595893,0.20407 -0.155097,0.10612 -0.269379,0.23673 0.114281,0.30203 z"
           id="path48"
           transform="matrix(1.3002788,0,0,1,43.721324,7.0916556)"
           inkscape:connector-curvature="0" /></g><g
         id="g1"
         transform="translate(-78.631769,-15.177344)"><path
           style="fill:url(#linearGradient44);fill-rule:evenodd;stroke:#2a1e0b;stroke-width:0.165;stroke-linecap:butt;stroke-linejoin:miter;stroke-dasharray:none;stroke-opacity:1"
           d="m 92.004369,164.5075 c 0.02449,0.67752 0.07347,2.03257 0.09795,2.9958 0.02449,0.96323 0.02449,1.53463 -0.114283,1.65707 -0.138771,0.12244 -0.416304,-0.20407 -0.702011,-0.45712 -0.285708,-0.25306 -0.579567,-0.43264 -0.963228,-0.5306 -0.383661,-0.0979 -0.8571,-0.11429 -1.232595,-0.0816 -0.375494,0.0326 -0.653037,0.11428 -0.808132,-0.10612 -0.155096,-0.22041 -0.187745,-0.74283 -0.171418,-1.22444 0.01633,-0.48162 0.08163,-0.92241 0.13877,-1.33056 0.05714,-0.40815 0.106117,-0.78364 0.138769,-1.0775 0.03265,-0.29387 0.04898,-0.50611 0.644885,-0.57957 0.595906,-0.0735 1.771343,-0.008 2.359074,0.0245 0.587731,0.0326 0.587727,0.0327 0.612215,0.71019 z"
           id="path39"
           transform="translate(44.883556,5.8182388)"
           inkscape:connector-curvature="0" /><path
           style="fill:url(#linearGradient48);fill-rule:evenodd;stroke:#2a1e0b;stroke-width:0.165;stroke-linecap:butt;stroke-linejoin:miter;stroke-dasharray:none;stroke-opacity:1"
           d="m 87.792298,170.22971 c 0.171421,0.0326 0.514265,0.098 0.85711,0.11429 0.342845,0.0163 0.685685,-0.0163 1.028527,-0.0489 0.342843,-0.0326 0.685683,-0.0653 0.93874,-0.10614 0.253058,-0.0408 0.41629,-0.0898 0.587721,-0.17958 0.171431,-0.0898 0.35101,-0.2204 0.506101,-0.32652 0.155091,-0.10611 0.285709,-0.18775 0.261218,-0.31836 -0.02449,-0.13061 -0.204073,-0.31019 -0.375496,-0.49794 -0.171424,-0.18775 -0.334676,-0.38365 -0.604058,-0.56324 -0.269382,-0.17958 -0.644867,-0.34284 -1.028528,-0.4163 -0.383662,-0.0735 -0.775475,-0.0571 -1.028525,-0.0408 -0.253049,0.0163 -0.367338,0.0327 -0.522432,0.098 -0.155095,0.0653 -0.351001,0.17959 -0.538751,0.31836 -0.18775,0.13877 -0.367333,0.30203 -0.465287,0.4408 -0.09795,0.13877 -0.114281,0.25305 -0.155096,0.41631 -0.04081,0.16326 -0.106117,0.37549 -0.114274,0.50611 -0.0082,0.13061 0.04078,0.17954 0.130586,0.26119 0.08981,0.0816 0.220413,0.19592 0.285716,0.25306 0.0653,0.0571 0.06531,0.0571 0.236728,0.0897 z"
           id="path41"
           transform="translate(44.883556,5.8182388)"
           inkscape:connector-curvature="0" /><path
           style="fill:#feae99;fill-opacity:1;fill-rule:evenodd;stroke:none"
           d="m 64.80549,167.48697 c 0.383659,0.0653 1.265254,0.0653 1.56728,-0.0163 0.302025,-0.0816 0.02449,-0.24488 -0.261215,-0.351 -0.285708,-0.10612 -0.579572,-0.15509 -0.824453,-0.13877 -0.244882,0.0163 -0.440796,0.0979 -0.595893,0.20407 -0.155097,0.10612 -0.269379,0.23673 0.114281,0.30203 z"
           id="path49"
           transform="matrix(-1.3002788,0,0,1,219.31437,6.9447229)"
           inkscape:connector-curvature="0" /></g><g
         id="g45"
         transform="translate(-78.811239,-15.196189)"><path
           style="fill:#ce852a;fill-opacity:1;fill-rule:evenodd;stroke:#421f05;stroke-width:0.264583px;stroke-linecap:butt;stroke-linejoin:miter;stroke-opacity:1"
           d="m 152.32473,142.16589 c 0.0115,0.38096 0.0346,1.14287 0.21937,2.00869 0.18471,0.86582 0.53103,1.83551 0.96971,2.77059 0.43868,0.93508 0.9697,1.83551 1.43147,2.7475 0.46177,0.912 0.85426,1.83551 1.16595,2.85141 0.3117,1.01589 0.54258,2.1241 0.62339,3.30162 0.0808,1.17751 0.0115,2.42425 -0.28861,3.65948 -0.30015,1.23523 -0.83117,2.45889 -1.43147,3.69412 -0.6003,1.23523 -1.26985,2.48197 -1.70853,3.47478 -0.43868,0.9928 -0.64647,1.73161 -0.785,2.41272 -0.13853,0.68111 -0.20779,1.30448 -0.26552,1.7547 -0.0577,0.45022 -0.10389,0.72729 -0.1847,0.785 -0.0808,0.0577 -0.19625,-0.1039 -0.27129,-0.4964 -0.075,-0.39251 -0.10966,-1.01588 -0.10389,-1.6335 0.006,-0.61762 0.052,-1.22944 0.16739,-1.77202 0.11545,-0.54258 0.30014,-1.01587 0.51948,-1.47764 0.21934,-0.46178 0.4733,-0.91198 0.79077,-1.4892 0.31748,-0.57722 0.69842,-1.28139 1.05052,-2.03754 0.3521,-0.75615 0.67533,-1.56422 0.91776,-2.26842 0.24243,-0.7042 0.40404,-1.30448 0.50794,-2.00868 0.1039,-0.7042 0.15007,-1.51226 0.11544,-2.33768 -0.0346,-0.82542 -0.15007,-1.66811 -0.35787,-2.53394 -0.2078,-0.86582 -0.50794,-1.7547 -0.81963,-2.4993 -0.3117,-0.7446 -0.63493,-1.34489 -0.93508,-1.91056 -0.30015,-0.56566 -0.5772,-1.09668 -0.77345,-1.47764 -0.19625,-0.38096 -0.31169,-0.61184 -0.46176,-0.93508 -0.15008,-0.32323 -0.33478,-0.73881 -0.45023,-1.22367 -0.11544,-0.48486 -0.16161,-1.03897 -0.19625,-1.54692 -0.0346,-0.50794 -0.0577,-0.9697 -0.0462,-1.38529 0.0115,-0.41559 0.0577,-0.78501 0.15006,-1.10824 0.0923,-0.32323 0.23088,-0.60028 0.31169,-0.54256 0.0808,0.0577 0.10392,0.45022 0.11547,0.64647 0.0115,0.19625 0.0115,0.19625 0.0231,0.5772 z"
           id="path51"
           sodipodi:nodetypes="sccccccccccccccccccccccccccccccss"
           transform="translate(-12.343394,1.371372)"
           inkscape:connector-curvature="0" /><path
           style="fill:#fbbb9f;fill-opacity:1;fill-rule:evenodd;stroke:#372307;stroke-width:0.264583px;stroke-linecap:butt;stroke-linejoin:miter;stroke-opacity:1"
           d="m 155.62691,154.67521 c 0.29454,-0.0205 0.88091,-0.0612 1.16662,0.58371 0.28571,0.64489 0.26937,1.97538 -0.0245,2.59578 -0.29387,0.6204 -0.86026,0.53139 -1.14846,-0.11912 -0.28819,-0.65052 -0.28818,-1.8372 -0.28817,-2.43856 1e-5,-0.60136 -3e-5,-0.60136 0.29451,-0.62181 z"
           id="path52"
           sodipodi:nodetypes="scccs"
           transform="translate(-11.976062,1.2979056)"
           inkscape:connector-curvature="0" /></g><g
         id="g3"
         transform="translate(-78.631769,-15.177344)"><g
           id="g35"
           transform="translate(44.079815,5.2895778)"><path
             style="fill:#aeebe1;fill-opacity:1;fill-rule:evenodd;stroke:#000000;stroke-width:0.264583px;stroke-linecap:butt;stroke-linejoin:miter;stroke-opacity:1"
             d="m 78.869457,164.43451 c 0.184706,0.17316 0.554116,0.51948 0.900443,0.75037 0.346328,0.23088 0.66956,0.34632 1.073608,0.4329 0.404048,0.0866 0.888894,0.1443 1.26408,0.16161 0.375186,0.0173 0.640695,-0.006 0.842722,-0.0404 0.202028,-0.0346 0.340563,-0.0808 0.525261,-0.075 0.184699,0.006 0.415582,0.0635 0.629155,0.12698 0.213574,0.0635 0.40981,0.13276 0.675328,0.21934 0.265518,0.0866 0.600291,0.19048 0.906212,0.23666 0.305921,0.0462 0.582977,0.0346 0.836947,2e-5 0.25397,-0.0346 0.484855,-0.0923 0.698419,-0.15007 0.213564,-0.0577 0.409817,-0.11544 0.611843,-0.12121 0.202027,-0.006 0.409822,0.0404 0.709967,0.0808 0.300145,0.0404 0.692644,0.075 1.027422,0.10967 0.334778,0.0346 0.611839,0.0693 0.883125,0.0577 0.271286,-0.0115 0.536801,-0.0693 0.738828,-0.12122 0.202027,-0.052 0.340529,-0.0981 0.484839,-0.19625 0.144311,-0.0981 0.29438,-0.24819 0.513723,-0.27128 0.219342,-0.0231 0.507943,0.0808 0.756143,0.0808 0.248199,0 0.455988,-0.10389 0.63493,-0.19048 0.178943,-0.0866 0.329002,-0.15584 0.484844,-0.21933 0.155842,-0.0635 0.317463,-0.12122 0.493536,-0.18472 0.176074,-0.0635 0.366498,-0.13274 0.417006,-0.24674 0.05051,-0.114 -0.03896,-0.27273 -0.148425,-0.44012 -0.109467,-0.1674 -0.238921,-0.34344 -0.356592,-0.59716 -0.11767,-0.25373 -0.223543,-0.58511 -0.316189,-0.91005 -0.09265,-0.32493 -0.172052,-0.64337 -0.248081,-1.04095 -0.07603,-0.39759 -0.148672,-0.87425 -0.227092,-1.29661 -0.07842,-0.42236 -0.162601,-0.79034 -0.200617,-1.0915 -0.03802,-0.30115 -0.02985,-0.5354 -0.05393,-0.79614 -0.02408,-0.26074 -0.0804,-0.54793 -0.135027,-0.92312 -0.05463,-0.37519 -0.107567,-0.83835 -0.211466,-1.34192 -0.103898,-0.50358 -0.258746,-1.04752 -0.490456,-1.5742 -0.231711,-0.52667 -0.540253,-1.036 -0.833061,-1.44075 -0.292807,-0.40475 -0.569859,-0.70489 -0.81806,-0.98772 -0.248201,-0.28284 -0.467536,-0.54835 -0.629155,-0.85427 -0.161618,-0.30592 -0.265513,-0.65224 -0.415589,-0.90044 -0.150076,-0.2482 -0.346322,-0.39827 -0.536799,-0.51371 -0.190478,-0.11544 -0.375183,-0.19625 -0.502171,-0.34056 -0.126987,-0.1443 -0.19625,-0.35209 -0.33478,-0.52525 -0.13853,-0.17316 -0.346322,-0.31169 -0.709964,-0.4329 -0.363642,-0.12122 -0.883114,-0.22511 -1.27562,-0.19624 -0.392506,0.0289 -0.658007,0.19048 -0.93219,0.34345 -0.274182,0.15297 -0.557003,0.29727 -0.822521,0.45023 -0.265517,0.15296 -0.513707,0.31457 -0.712849,0.45599 -0.199142,0.14142 -0.349211,0.26263 -0.614725,0.69842 -0.265514,0.43579 -0.646471,1.18616 -1.027428,1.93653 -0.288603,1.22368 -0.577205,2.44735 -0.865808,3.67103 -0.06927,0.34632 -0.138529,0.69264 -0.202022,1.0332 -0.06349,0.34055 -0.121214,0.67533 -0.184707,0.98703 -0.06349,0.31169 -0.132755,0.60028 -0.196248,0.91198 -0.06349,0.31169 -0.121214,0.64647 -0.190479,0.95816 -0.06926,0.31169 -0.150074,0.60029 -0.253972,0.95816 -0.103898,0.35787 -0.230882,0.785 -0.357868,1.13133 -0.126986,0.34632 -0.253968,0.61183 -0.380954,0.83117 -0.126987,0.21934 -0.253971,0.3925 -0.380969,0.52527 -0.126998,0.13276 -0.25396,0.2251 -0.375174,0.33477 -0.121215,0.10967 -0.236651,0.23665 -0.294373,0.30015 -0.05772,0.0635 -0.05772,0.0635 0.126983,0.23663 z"
             id="path32"
             sodipodi:nodetypes="sccccccccccccccccccccccccccccccccccccccccccccccccccccccccss"
             inkscape:connector-curvature="0" /><path
             style="fill:#32dfc3;fill-opacity:0.649306;fill-rule:evenodd;stroke:none"
             d="m 83.605435,165.27435 c -0.01443,-0.30304 -0.04329,-0.90911 -0.06349,-1.39108 -0.0202,-0.48197 -0.03175,-0.83983 -0.04906,-1.11112 -0.01732,-0.27129 -0.04041,-0.45599 -0.0837,-0.40115 -0.04329,0.0548 -0.106784,0.34921 -0.164504,0.62915 -0.05772,0.27995 -0.109668,0.54546 -0.164504,0.80521 -0.05483,0.25974 -0.112555,0.51371 -0.152961,0.74171 -0.04041,0.22799 -0.06349,0.43001 -0.08081,0.58586 -0.01732,0.15585 -0.02886,0.26551 -0.03175,0.355 -0.0029,0.0895 0.0029,0.15871 0.07502,0.19335 0.07215,0.0346 0.210677,0.0346 0.314582,0.0202 0.103906,-0.0144 0.173141,-0.0433 0.236635,-0.0664 0.06349,-0.0231 0.121206,-0.0404 0.150075,-0.0491 0.02887,-0.009 0.02889,-0.009 0.01446,-0.31163 z"
             id="path33"
             transform="translate(0,-0.09795515)"
             inkscape:connector-curvature="0" /><path
             style="fill:#2ddec2;fill-opacity:0.645833;fill-rule:evenodd;stroke:none"
             d="m 88.33564,165.87176 c -0.02886,-0.12122 -0.08658,-0.36365 -0.144303,-0.64937 -0.05772,-0.28572 -0.115439,-0.61472 -0.17316,-0.89178 -0.05772,-0.27706 -0.115441,-0.50217 -0.176049,-0.70131 -0.06061,-0.19913 -0.124099,-0.37229 -0.176048,-0.38672 -0.05195,-0.0144 -0.09235,0.12987 -0.115438,0.36364 -0.02309,0.23377 -0.02885,0.557 -0.03174,0.83118 -0.0029,0.27417 -0.0029,0.49928 -0.02597,0.71285 -0.02309,0.21356 -0.06927,0.41558 -0.08947,0.55699 -0.02021,0.14141 -0.01444,0.22223 0.06637,0.25109 0.08081,0.0289 0.236649,0.006 0.35786,0.003 0.121211,-0.003 0.207785,0.0144 0.291487,0.0231 0.0837,0.009 0.164509,0.009 0.204913,0.009 0.0404,0 0.04041,-1e-5 0.01155,-0.12122 z"
             id="path34"
             transform="translate(0,-0.13468832)"
             inkscape:connector-curvature="0" /><path
             style="fill:#32dfc3;fill-opacity:0.649306;fill-rule:evenodd;stroke:none"
             d="m 92.104797,165.45039 c -0.05195,-0.1443 -0.155843,-0.4329 -0.236653,-0.74171 -0.08081,-0.30881 -0.13853,-0.63781 -0.254238,-1.20507 -0.115709,-0.56726 -0.28935,-1.37252 -0.362717,-1.50508 -0.07337,-0.13257 -0.04637,0.4077 -0.02013,0.84509 0.02624,0.43739 0.05172,0.77171 0.07601,1.04277 0.02428,0.27105 0.04737,0.47884 0.07046,0.69241 0.02309,0.21357 0.04618,0.4329 0.05484,0.63781 0.0087,0.20491 0.0029,0.39539 0.0058,0.52527 0.0029,0.12989 0.01443,0.19912 0.07792,0.20201 0.0635,0.003 0.178933,-0.0606 0.294366,-0.12987 0.115434,-0.0693 0.230887,-0.1443 0.288609,-0.18182 0.05772,-0.0375 0.05769,-0.0375 0.0057,-0.18181 z"
             id="path35-6"
             transform="translate(0,-0.1714215)"
             sodipodi:nodetypes="sccccccccccss"
             inkscape:connector-curvature="0" /></g><circle
           style="fill:#ff0302;fill-opacity:1;stroke:#871a09;stroke-width:0.165;stroke-linecap:round;stroke-linejoin:round;stroke-dasharray:none;stroke-opacity:1"
           id="circle36"
           cx="131.11736"
           cy="160.91751"
           r="0.66119725" /><circle
           style="fill:#ff0302;fill-opacity:1;stroke:#871a09;stroke-width:0.165;stroke-linecap:round;stroke-linejoin:round;stroke-dasharray:none;stroke-opacity:1"
           id="path36"
           cx="130.54051"
           cy="158.70886"
           r="0.66119725" /><g
           id="g31"
           transform="translate(23.83109,5.2970645)"><path
             style="fill:none;stroke:#faf6f6;stroke-width:0.264583px;stroke-linecap:butt;stroke-linejoin:miter;stroke-opacity:1"
             d="m 107.64896,152.68259 c 0.11544,0.0231 0.34631,0.0693 0.55122,0.0721 0.20492,0.003 0.38386,-0.0375 0.51951,-0.12699 0.13565,-0.0895 0.22798,-0.22799 0.25685,-0.39827 0.0289,-0.17027 -0.006,-0.37231 -0.1039,-0.56278 -0.0981,-0.19047 -0.25975,-0.36941 -0.44157,-0.52526 -0.18182,-0.15584 -0.38384,-0.28859 -0.58009,-0.40981 -0.19625,-0.12121 -0.38672,-0.23088 -0.53968,-0.31457 -0.15296,-0.0837 -0.26841,-0.14142 -0.36078,-0.18184 -0.0924,-0.0404 -0.1616,-0.0635 -0.18468,0.009 -0.0231,0.0721 2e-5,0.23953 0.0202,0.40692 0.0202,0.1674 0.0375,0.33478 0.0375,0.49063 0,0.15585 -0.0173,0.30015 0.006,0.43002 0.0231,0.12987 0.0866,0.24531 0.14143,0.37808 0.0548,0.13276 0.101,0.28278 0.17894,0.39248 0.0779,0.10969 0.18758,0.17894 0.25686,0.22513 0.0693,0.0462 0.0981,0.0693 0.11255,0.0808 0.0144,0.0116 0.0144,0.0116 0.12982,0.0346 z"
             id="path29"
             sodipodi:nodetypes="cccccccccccccccccc"
             inkscape:connector-curvature="0" /><path
             style="fill:none;stroke:#faf6f6;stroke-width:0.264583px;stroke-linecap:butt;stroke-linejoin:miter;stroke-opacity:1"
             d="m 106.58402,151.6263 c -0.0491,0.14429 -0.14719,0.43291 -0.3319,0.69265 -0.18471,0.25975 -0.45599,0.49063 -0.69265,0.6003 -0.23665,0.10968 -0.43867,0.0981 -0.60895,0.003 -0.17028,-0.0952 -0.3088,-0.27417 -0.3925,-0.45888 -0.0837,-0.1847 -0.11256,-0.37517 -0.0462,-0.57142 0.0664,-0.19626 0.22799,-0.39827 0.41847,-0.55989 0.19048,-0.16162 0.40982,-0.28284 0.60894,-0.38961 0.19913,-0.10678 0.37808,-0.19915 0.52528,-0.29151 0.1472,-0.0924 0.26262,-0.18469 0.35208,-0.24818 0.0895,-0.0635 0.15298,-0.0981 0.19916,-0.0289 0.0462,0.0693 0.075,0.24242 0.0837,0.3925 0.009,0.15008 -0.003,0.27706 -0.0173,0.39251 -0.0144,0.11544 -0.0317,0.21933 -0.0404,0.27128 -0.009,0.052 -0.009,0.0519 -0.0578,0.19622 z"
             id="path31"
             inkscape:connector-curvature="0" /></g></g><path
         style="fill:none;stroke:#2f2d2d;stroke-width:0.465;stroke-linecap:butt;stroke-linejoin:miter;stroke-dasharray:none;stroke-opacity:1"
         d="m 60.794084,130.384 -3.739445,12.14644 3.739445,12.14644"
         id="path54"
         inkscape:connector-curvature="0"
         sodipodi:nodetypes="ccc" /><path
         style="fill:none;stroke:#000000;stroke-width:0.865;stroke-linecap:butt;stroke-linejoin:miter;stroke-dasharray:none;stroke-opacity:1;marker-start:url(#SerifCap);marker-end:url(#DartArrow)"
         d="m 55.981055,142.71266 h 11.01995"
         id="path3"
         inkscape:connector-curvature="0" /><g
         id="g60"
         transform="translate(-55.965053,-12.529496)"
         inkscape:transform-center-x="-5.9929795"
         inkscape:transform-center-y="0.19581382"><path
           style="fill:#de2120;fill-opacity:1;fill-rule:evenodd;stroke:#7d220e;stroke-width:0.264583px;stroke-linecap:butt;stroke-linejoin:miter;stroke-opacity:1"
           d="m 136.18622,155.83031 c 0.64079,-0.0163 1.92235,-0.0489 2.93457,-0.0204 1.01222,0.0286 1.75502,0.1184 2.52235,0.19188 0.76733,0.0735 1.55912,0.13062 2.35093,0.18777 0.0245,0.82447 0.049,1.64895 0.0735,2.47342 -0.84078,-0.0245 -1.68156,-0.0489 -2.56724,-0.0857 -0.88568,-0.0367 -1.50942,-0.0695 -3.09687,-0.1781 -1.58745,-0.10854 -2.56411,-0.18515 -4.02119,-0.29943 0.0816,-0.31427 0.16323,-0.62854 0.35708,-1.00406 0.19385,-0.37553 0.49996,-0.81234 0.65301,-1.03073 0.15305,-0.2184 0.15307,-0.21841 0.79386,-0.23473 z"
           id="path57"
           sodipodi:nodetypes="sccccccccss"
           transform="translate(-34.008436,-1.5939337)"
           inkscape:connector-curvature="0" /><path
           style="fill:#fbbb9f;fill-opacity:1;fill-rule:evenodd;stroke:#2a1e0b;stroke-width:0.264583px;stroke-linecap:butt;stroke-linejoin:miter;stroke-opacity:1"
           d="m 144.189,156.14006 c 0.20491,0 0.61473,0 0.94662,-0.006 0.3319,-0.006 0.58586,-0.0173 0.85138,-0.0231 0.26552,-0.006 0.54257,-0.006 0.77346,0.052 0.23088,0.0577 0.41558,0.17316 0.51948,0.40117 0.10391,0.228 0.12701,0.56854 0.12989,0.88312 0.003,0.31458 -0.0145,0.60318 -0.0462,0.84272 -0.0317,0.23955 -0.0779,0.43003 -0.17028,0.55413 -0.0924,0.12409 -0.23088,0.18181 -0.40693,0.21067 -0.17605,0.0289 -0.38962,0.0289 -0.58876,-0.006 -0.19914,-0.0346 -0.38383,-0.10389 -0.54834,-0.15008 -0.16451,-0.0462 -0.3088,-0.0693 -0.46176,-0.0866 -0.15297,-0.0173 -0.31458,-0.0289 -0.46754,-0.0433 -0.15296,-0.0144 -0.29726,-0.0317 -0.40691,-0.0461 -0.10965,-0.0144 -0.18473,-0.026 -0.2338,-0.45598 -0.0491,-0.43002 -0.0722,-1.27849 -0.0837,-1.70274 -0.0115,-0.42424 -0.0115,-0.42436 0.1934,-0.42436 z"
           id="path58"
           transform="translate(-34.008436,-1.5939337)"
           inkscape:connector-curvature="0" /></g><path
         id="path64"
         style="fill:url(#linearGradient65);fill-rule:evenodd;stroke:#7d220e;stroke-width:0.264583px;stroke-linecap:butt;stroke-linejoin:miter;stroke-opacity:1"
         d="m 53.188681,139.06026 c 0.0668,0.0333 1.95906,0.26121 2.60832,0.70315 0.64926,0.44194 -0.3375,1.01032 -0.47418,1.00444 -1.27123,-0.0546 -3.81072,-0.98195 -3.83232,-0.9081 -0.0979,0.33468 0.40197,1.48643 0.12443,1.85377 -0.27754,0.36734 -0.63671,0.77548 -0.95506,1.17547 -0.31836,0.39998 -0.59589,0.79179 -0.9469,1.22443 -0.35101,0.43264 -0.77548,0.90608 -1.08567,1.30607 -0.31021,0.39999 -0.50611,0.7265 -0.751,0.95506 -0.24489,0.22856 -0.53875,0.35917 -0.73466,0.68568 -0.19591,0.32652 -0.29387,0.84895 -0.39999,1.39587 -0.10611,0.54692 -0.2204,1.11832 -0.32652,1.64891 -0.10611,0.53059 -0.20407,1.02036 -0.33467,1.44484 -0.13061,0.42447 -0.29387,0.78364 -0.44896,1.06934 -0.1551,0.28571 -0.30203,0.49794 -0.47345,0.51426 -0.17143,0.0163 -0.36733,-0.16326 -0.53059,-0.31835 -0.16326,-0.1551 -0.29386,-0.2857 -0.46529,-0.34284 -0.17142,-0.0571 -0.38366,-0.0408 -0.62855,-0.008 -0.24489,0.0327 -0.52243,0.0816 -0.83262,0.0571 -0.3102,-0.0245 -0.65303,-0.12244 -0.93873,-0.31019 -0.28571,-0.18775 -0.51426,-0.46528 -0.68569,-0.66119 -0.17142,-0.19592 -0.2857,-0.3102 -0.36733,-0.43264 -0.0816,-0.12245 -0.1306,-0.25305 -0.0653,-0.35101 0.0653,-0.098 0.24489,-0.16326 0.43264,-0.26121 0.18775,-0.098 0.38365,-0.22856 0.55508,-0.41631 0.17142,-0.18775 0.31835,-0.43264 0.47345,-0.75916 0.1551,-0.32652 0.31835,-0.73466 0.47345,-1.1673 0.1551,-0.43264 0.30203,-0.88975 0.45712,-1.42851 0.1551,-0.53876 0.31836,-1.15913 0.48978,-1.69789 0.17142,-0.53875 0.351,-0.99587 0.58773,-1.40402 0.23673,-0.40815 0.53059,-0.76731 0.79996,-1.15097 0.26938,-0.38366 0.51427,-0.7918 0.8163,-1.14281 0.30203,-0.35101 0.66119,-0.64487 0.90608,-0.8816 0.24489,-0.23672 0.37549,-0.4163 0.51425,-0.55506 0.065,-0.065 0.0829,-0.0966 0.12964,-0.14792"
         sodipodi:nodetypes="csssssssssssssssscssssscssssssssssc"
         inkscape:connector-curvature="0" /><path
         style="fill:#c70003;fill-opacity:1;fill-rule:evenodd;stroke:none"
         d="m 49.750691,138.50204 0.0612,1.71421 1.39586,-0.75915 1.86115,-0.15918 c 0,0 2.77948,0.84486 2.76723,0.79589 -0.0122,-0.049 0.049,-0.74691 0.049,-0.74691 l -2.77947,-0.91833 -1.71422,0.12244 z"
         id="path68"
         sodipodi:nodetypes="ccccccccc"
         inkscape:connector-curvature="0" /><g
         id="g98"
         transform="translate(-47.677943,-44.563887)"><path
           style="fill:#f9ab99;fill-opacity:1;fill-rule:evenodd;stroke:none"
           d="m 79.446665,146.52957 c -0.25397,-0.2886 -0.577209,-0.47331 -0.854271,-0.63493 -0.277062,-0.16162 -0.507937,-0.30014 -0.715735,-0.39249 -0.207799,-0.0924 -0.392508,-0.13854 -0.484855,-0.0231 -0.09235,0.11544 -0.09235,0.3925 -0.04617,0.66956 0.04618,0.27706 0.138527,0.55411 0.311693,0.79654 0.173165,0.24243 0.427132,0.45022 0.692649,0.55411 0.265518,0.1039 0.542571,0.1039 0.831178,0.1039 0.288606,0 0.588746,0 0.646466,-0.19625 0.05772,-0.19625 -0.126985,-0.58875 -0.380955,-0.87735 z"
           id="path83"
           transform="translate(14.085066,33.413745)"
           inkscape:connector-curvature="0" /><path
           style="fill:#762101;fill-opacity:1;fill-rule:evenodd;stroke:#651900;stroke-width:0.264583px;stroke-linecap:butt;stroke-linejoin:miter;stroke-opacity:1"
           d="m 106.08163,178.7101 c 0.0942,0.33377 0.28249,1.00131 -0.0428,1.94287 -0.32526,0.94157 -1.16409,2.15708 -1.36495,2.23484 -0.20087,0.0778 0.23624,-0.98225 0.5207,-1.76872 0.28445,-0.78648 0.41622,-1.29933 0.42497,-1.72719 0.009,-0.42786 -0.10553,-0.77069 -0.0647,-0.92578 0.0408,-0.15509 0.23671,-0.12243 0.33467,-0.10609 0.098,0.0163 0.0979,0.0163 0.1921,0.35007 z"
           id="path84"
           sodipodi:nodetypes="cccccccc"
           inkscape:connector-curvature="0" /><path
           style="fill:#f9ab99;fill-opacity:1;fill-rule:evenodd;stroke:none"
           d="m 91.845055,144.07067 c 0.06927,-0.13853 0.207792,-0.41558 0.3925,-0.55411 0.184709,-0.13853 0.415588,-0.13853 0.542573,0.0924 0.126985,0.23088 0.150071,0.69263 0.09235,1.03896 -0.05772,0.34633 -0.196251,0.57721 -0.369419,0.72728 -0.173169,0.15008 -0.38095,0.21934 -0.588745,0.26552 -0.207795,0.0462 -0.415586,0.0693 -0.519484,-0.17315 -0.103898,-0.24243 -0.103898,-0.75036 -0.02309,-1.00433 0.08081,-0.25397 0.242425,-0.25397 0.323234,-0.25397 0.08081,0 0.08081,-3e-5 0.15008,-0.13856 z"
           id="path85"
           transform="translate(13.669478,33.20595)"
           inkscape:connector-curvature="0" /><path
           style="fill:#d6866b;fill-opacity:1;fill-rule:evenodd;stroke:#d5856a;stroke-width:0.165;stroke-linecap:butt;stroke-linejoin:miter;stroke-dasharray:none;stroke-opacity:1"
           d="m 101.79988,144.75321 c 0.0245,-0.0735 0.1714,-0.0245 0.30202,0.0898 0.13062,0.11429 0.2449,0.29387 0.30204,0.44081 0.0571,0.14693 0.0571,0.26121 -0.0245,0.24488 -0.0816,-0.0163 -0.24489,-0.16326 -0.37549,-0.33467 -0.1306,-0.17141 -0.22857,-0.36734 -0.20408,-0.44081 z"
           id="path86"
           transform="rotate(47.886458,67.207644,165.8276)"
           inkscape:connector-curvature="0" /><path
           style="fill:#fdc1a6;fill-opacity:1;fill-rule:evenodd;stroke:none"
           d="m 101.35741,148.43435 c 0.36941,0.17316 1.10824,0.51949 1.8817,0.77346 0.77347,0.25397 1.58154,0.41559 2.28574,0.49063 0.7042,0.0751 1.30448,0.0635 1.85283,-0.0115 0.54835,-0.075 1.04474,-0.21356 1.55846,-0.45022 0.51372,-0.23666 1.04473,-0.57142 1.52381,-0.97547 0.47909,-0.40405 0.90622,-0.87735 1.22368,-1.36221 0.31747,-0.48486 0.52526,-0.98125 0.64647,-1.56423 0.12121,-0.58299 0.15585,-1.25253 0.13276,-1.86438 -0.0231,-0.61184 -0.1039,-1.16595 -0.28284,-1.77779 -0.17893,-0.61185 -0.45598,-1.28139 -0.90044,-1.89323 -0.44445,-0.61185 -1.05628,-1.16596 -1.7143,-1.57578 -0.65802,-0.40982 -1.3622,-0.67533 -2.14144,-0.81963 -0.77923,-0.14431 -1.63348,-0.16741 -2.45313,-0.13278 -0.81965,0.0346 -1.60462,0.12698 -2.25687,0.37518 -0.65225,0.2482 -1.17171,0.65223 -1.52381,1.10246 -0.35211,0.45023 -0.5368,0.94661 -0.75615,1.47765 -0.21934,0.53104 -0.473299,1.09668 -0.634922,1.65081 -0.161623,0.55413 -0.230887,1.09669 -0.311697,1.59886 -0.08081,0.50218 -0.173162,0.96393 -0.16739,1.44879 0.0058,0.48486 0.109666,0.99278 0.225111,1.40838 0.115445,0.4156 0.242428,0.73883 0.427138,1.01589 0.18471,0.27706 0.42713,0.50793 0.60606,0.65223 0.17893,0.14431 0.29438,0.20203 0.3521,0.23089 0.0577,0.0289 0.0577,0.0289 0.42713,0.20201 z"
           id="path87"
           transform="translate(-6.5558286,33.967863)"
           sodipodi:nodetypes="sccccccccccccccccccccccss"
           inkscape:connector-curvature="0" /><circle
           style="opacity:0.657258;fill:url(#radialGradient130);stroke:none"
           id="circle87"
           cx="94.474449"
           cy="179.75836"
           r="1.2734169" /><path
           style="fill:#ffffff;fill-opacity:1;fill-rule:evenodd;stroke:none"
           d="m 100.64745,144.19767 c 0.006,0.0231 0.0173,0.0693 0.17314,0.24244 0.15584,0.17314 0.45598,0.47328 0.77922,0.68108 0.32324,0.2078 0.66956,0.32324 1.02743,0.34632 0.35788,0.0231 0.72728,-0.0462 1.04474,-0.17893 0.31747,-0.13276 0.58298,-0.32901 0.76768,-0.54258 0.18471,-0.21357 0.28861,-0.44445 0.23088,-0.7446 -0.0577,-0.30015 -0.27705,-0.66955 -0.51948,-0.91198 -0.24243,-0.24243 -0.50794,-0.35787 -0.82541,-0.42135 -0.31747,-0.0635 -0.68687,-0.075 -1.02742,-0.0115 -0.34056,0.0635 -0.65224,0.20203 -0.8889,0.3752 -0.23666,0.17316 -0.39827,0.38095 -0.51372,0.57721 -0.11544,0.19625 -0.1847,0.38095 -0.21933,0.4733 -0.0346,0.0924 -0.0346,0.0923 -0.0288,0.11542 z"
           id="path88"
           transform="translate(-6.5558286,33.967863)"
           inkscape:connector-curvature="0" /><circle
           style="opacity:0.657258;fill:url(#radialGradient131);stroke:none"
           id="circle88"
           cx="104.44859"
           cy="179.34277"
           r="1.2734169" /><path
           style="fill:#ffffff;fill-opacity:1;fill-rule:evenodd;stroke:none"
           d="m 108.20675,143.68459 c 0.0499,0.13339 0.14954,0.40019 0.33425,0.64839 0.18471,0.2482 0.45442,0.4778 0.70473,0.5926 0.2503,0.1148 0.48117,0.1148 0.71001,0.0673 0.22884,-0.0475 0.45564,-0.14254 0.65527,-0.26102 0.19964,-0.11847 0.3721,-0.26038 0.51844,-0.39757 0.14635,-0.13719 0.26657,-0.26966 0.36708,-0.40516 0.10052,-0.1355 0.18133,-0.27402 0.15281,-0.44959 -0.0285,-0.17556 -0.16632,-0.38811 -0.29908,-0.56705 -0.13277,-0.17894 -0.26045,-0.32423 -0.45128,-0.44882 -0.19083,-0.1246 -0.4448,-0.22849 -0.693,-0.26889 -0.2482,-0.0404 -0.49062,-0.0173 -0.75614,0.0577 -0.26552,0.0751 -0.55411,0.20202 -0.73882,0.33478 -0.1847,0.13276 -0.26551,0.27129 -0.34055,0.43291 -0.075,0.16163 -0.1443,0.34632 -0.17894,0.43867 -0.0346,0.0924 -0.0346,0.0923 0.0152,0.22573 z"
           id="path89"
           sodipodi:nodetypes="cccccccccccccccc"
           transform="translate(-6.5558286,33.967863)"
           inkscape:connector-curvature="0" /><circle
           style="fill:url(#linearGradient131);fill-opacity:1;stroke:#000000;stroke-width:0.240747;stroke-linecap:round;stroke-linejoin:round;stroke-opacity:0"
           id="circle89"
           cx="95.787315"
           cy="178.00761"
           r="1.3265097" /><circle
           style="fill:url(#linearGradient132);fill-opacity:1;stroke:#000000;stroke-width:0.240747;stroke-linecap:round;stroke-linejoin:round;stroke-opacity:0"
           id="circle90"
           cx="103.08498"
           cy="177.51784"
           r="1.3265097" /><circle
           style="fill:#350b03;fill-opacity:1;stroke:none"
           id="circle91"
           cx="95.85627"
           cy="178.05991"
           r="0.73466355" /><circle
           style="display:inline;fill:#350b03;fill-opacity:1;stroke:none"
           id="circle92"
           cx="103.15392"
           cy="177.61911"
           r="0.73466355" /><path
           style="fill:#000000;fill-opacity:1;fill-rule:evenodd;stroke:none"
           d="m 80.855054,144.34774 c -0.01154,-0.0173 -0.03466,-0.052 -0.06062,-0.13855 -0.02597,-0.0866 -0.05483,-0.2251 0.0058,-0.38961 0.06061,-0.1645 0.210678,-0.35497 0.404046,-0.51371 0.193368,-0.15873 0.430015,-0.28571 0.663793,-0.37518 0.233778,-0.0895 0.464644,-0.14141 0.712847,-0.1544 0.248203,-0.013 0.513709,0.013 0.77634,0.10099 0.262632,0.088 0.522369,0.23809 0.699862,0.38672 0.177493,0.14864 0.27273,0.29583 0.34488,0.43147 0.07215,0.13565 0.12121,0.25974 0.03174,0.21789 -0.08947,-0.0419 -0.317453,-0.24963 -0.536797,-0.40981 -0.219344,-0.16018 -0.430016,-0.27273 -0.636368,-0.35787 -0.206351,-0.0851 -0.408375,-0.14286 -0.633487,-0.14286 -0.225111,0 -0.473308,0.0577 -0.67821,0.1241 -0.204902,0.0664 -0.366535,0.14141 -0.49063,0.21933 -0.124096,0.0779 -0.210682,0.15874 -0.285719,0.27129 -0.07504,0.11256 -0.138527,0.25686 -0.187591,0.38674 -0.04906,0.12987 -0.08369,0.24531 -0.101011,0.30303 -0.01732,0.0577 -0.01731,0.0577 -0.02885,0.0404 z"
           id="path92"
           transform="translate(13.475998,33.722975)"
           sodipodi:nodetypes="sccccccccccccccccss"
           inkscape:connector-curvature="0" /><path
           style="fill:#000000;fill-opacity:1;fill-rule:evenodd;stroke:none"
           d="m 80.855054,144.34774 c -0.01154,-0.0173 -0.03466,-0.052 -0.06062,-0.13855 -0.02597,-0.0866 -0.05483,-0.2251 0.0058,-0.38961 0.06061,-0.1645 0.210678,-0.35497 0.404046,-0.51371 0.193368,-0.15873 0.430015,-0.28571 0.663793,-0.37518 0.233778,-0.0895 0.464644,-0.14141 0.709959,-0.14718 0.245315,-0.006 0.505051,0.0346 0.721506,0.12121 0.216455,0.0866 0.389617,0.21934 0.510829,0.35209 0.121213,0.13276 0.190475,0.26552 0.245309,0.39539 0.05483,0.12987 0.09524,0.25686 0.02886,0.23088 -0.06638,-0.026 -0.23954,-0.20491 -0.395386,-0.35787 -0.155847,-0.15296 -0.294371,-0.27994 -0.464647,-0.3723 -0.170275,-0.0923 -0.372299,-0.15007 -0.597411,-0.15007 -0.225111,0 -0.473308,0.0577 -0.67821,0.1241 -0.204902,0.0664 -0.366535,0.14141 -0.49063,0.21933 -0.124096,0.0779 -0.210682,0.15874 -0.285719,0.27129 -0.07504,0.11256 -0.138527,0.25686 -0.187591,0.38674 -0.04906,0.12987 -0.08369,0.24531 -0.101011,0.30303 -0.01732,0.0577 -0.01731,0.0577 -0.02885,0.0404 z"
           id="path93"
           transform="translate(20.818061,33.272754)"
           inkscape:connector-curvature="0" /><path
           style="fill:none;stroke:#e2836a;stroke-width:0.565;stroke-linecap:butt;stroke-linejoin:miter;stroke-dasharray:none;stroke-opacity:0.633803"
           d="m 87.55064,145.17891 c 0.115448,0.0462 0.145832,0.0583 0.315741,0.19745 0.169909,0.13912 0.111713,0.0564 0.194145,0.26709 0.08243,0.21069 0.08246,0.21173 0.06542,0.29327 -0.01704,0.0815 -0.05376,0.14671 -0.08366,0.19084 -0.0299,0.0441 -0.05301,0.0673 -0.09839,0.12315 -0.04538,0.0559 -0.08077,0.1023 -0.172509,0.20041 -0.09174,0.0981 -0.06569,0.074 -0.185067,0.0904 -0.119377,0.0165 -0.12569,0.009 -0.149981,-0.007 -0.02429,-0.0163 -0.02429,0.007 -0.02514,0.0181 -8.49e-4,0.0113 -0.01923,0.006 -0.08911,-0.0118 -0.06988,-0.0175 -0.112464,-0.0277 -0.157011,-0.0416 -0.04455,-0.0139 -0.12079,-0.0655 -0.169567,-0.12406 -0.04878,-0.0585 -0.124606,-0.17236 -0.206859,-0.29581"
           id="path94"
           transform="translate(13.738742,33.413745)"
           sodipodi:nodetypes="ccscccccccsccc"
           inkscape:connector-curvature="0" /><path
           style="fill:#f17769;fill-opacity:1;fill-rule:evenodd;stroke:none"
           d="m 81.882473,147.557 c 0.427132,0.23088 1.2814,0.69265 2.089499,0.96971 0.808099,0.27706 1.569991,0.36941 2.228015,0.36941 0.658023,-1e-5 1.212123,-0.0924 1.80088,-0.3117 0.588757,-0.21934 1.212127,-0.56566 1.639262,-0.94662 0.427134,-0.38096 0.658012,-0.79654 0.606059,-0.85426 -0.05195,-0.0577 -0.386723,0.24243 -0.779228,0.50218 -0.392505,0.25974 -0.842716,0.47907 -1.367983,0.63492 -0.525267,0.15585 -1.125545,0.2482 -1.714301,0.28282 -0.588756,0.0346 -1.165949,0.0115 -1.673894,-0.052 -0.507945,-0.0635 -0.946614,-0.16739 -1.362207,-0.30015 -0.415592,-0.13276 -0.808084,-0.29437 -1.119778,-0.38673 -0.311695,-0.0924 -0.542573,-0.11546 -0.658015,-0.12701 -0.115441,-0.0115 -0.115441,-0.0115 0.311691,0.2194 z"
           id="path95"
           transform="translate(13.622931,33.82093)"
           inkscape:connector-curvature="0" /><path
           style="fill:#d6866b;fill-opacity:1;fill-rule:evenodd;stroke:#d5856a;stroke-width:0.165;stroke-linecap:butt;stroke-linejoin:miter;stroke-dasharray:none;stroke-opacity:1"
           d="m 101.79988,144.75321 c 0.0245,-0.0735 0.1714,-0.0245 0.30202,0.0898 0.13062,0.11429 0.2449,0.29387 0.30204,0.44081 0.0571,0.14693 0.0571,0.26121 -0.0245,0.24488 -0.0816,-0.0163 -0.24489,-0.16326 -0.37549,-0.33467 -0.1306,-0.17141 -0.22857,-0.36734 -0.20408,-0.44081 z"
           id="path96"
           transform="translate(-9.8924205,34.788896)"
           inkscape:connector-curvature="0" /><path
           style="fill:url(#linearGradient133);fill-rule:evenodd;stroke:#651900;stroke-width:0.264583px;stroke-linecap:butt;stroke-linejoin:miter;stroke-opacity:1"
           d="m 82.147989,149.96395 c -0.173161,0.006 -0.519487,0.0173 -0.85427,-0.0808 -0.334782,-0.0981 -0.658012,-0.30592 -0.958161,-0.58875 -0.30015,-0.28284 -0.577202,-0.6407 -0.813858,-1.16597 -0.236656,-0.52526 -0.432902,-1.21789 -0.531027,-1.85283 -0.09813,-0.63493 -0.09813,-1.21212 -0.06927,-1.85282 0.02886,-0.64071 0.08658,-1.34489 0.213568,-2.00868 0.126988,-0.6638 0.323234,-1.28717 0.542575,-1.83552 0.21934,-0.54835 0.461761,-1.02165 0.865812,-1.55846 0.404052,-0.53681 0.969702,-1.13709 1.535369,-1.62772 0.565668,-0.49063 1.131316,-0.87157 1.714302,-1.22945 0.582985,-0.35787 1.183266,-0.69264 1.783567,-0.92352 0.600302,-0.23089 1.200583,-0.35787 1.829746,-0.38673 0.629164,-0.0288 1.287159,0.0404 1.916321,0.19048 0.629162,0.15008 1.229443,0.38096 1.772022,0.65802 0.54258,0.27706 1.027425,0.60029 1.419928,0.9697 0.392502,0.36942 0.692642,0.785 0.906209,1.18327 0.213567,0.39828 0.34055,0.77923 0.398271,1.17751 0.05772,0.39827 0.04618,0.81385 -0.04618,1.18904 -0.09235,0.37519 -0.265512,0.70996 -0.432905,1.00434 -0.167392,0.29438 -0.329005,0.54834 -0.461765,0.79654 -0.13276,0.24821 -0.236654,0.49063 -0.334779,0.70997 -0.09812,0.21934 -0.190474,0.41558 -0.248201,0.5368 -0.05773,0.12123 -0.08083,0.16742 -0.150089,0.22513 -0.06926,0.0577 -0.184688,0.12696 -0.253955,0.0981 -0.06927,-0.0289 -0.09235,-0.15584 -0.178939,-0.30592 -0.08658,-0.15008 -0.236653,-0.32323 -0.323236,-0.50217 -0.08658,-0.17894 -0.109671,-0.36364 -0.138532,-0.5368 -0.02886,-0.17316 -0.06349,-0.33478 -0.196253,-0.36364 -0.13276,-0.0289 -0.36364,0.075 -0.663789,0.13275 -0.300148,0.0577 -0.669556,0.0692 -0.95816,0.0635 -0.288605,-0.006 -0.496395,-0.0289 -0.689748,-0.052 -0.193353,-0.0231 -0.372305,-0.0462 -0.349215,-0.13856 0.02309,-0.0924 0.24819,-0.25398 0.424239,-0.38674 0.176048,-0.13276 0.303033,-0.23665 0.412704,-0.35209 0.109672,-0.11545 0.202024,-0.24243 0.27706,-0.37518 0.07504,-0.13276 0.132756,-0.27129 0.155845,-0.41559 0.02309,-0.14431 0.01154,-0.29438 -0.08658,-0.28861 -0.09813,0.006 -0.282826,0.16739 -0.519485,0.37519 -0.236659,0.2078 -0.525256,0.46176 -0.8889,0.68687 -0.363644,0.22511 -0.802311,0.42136 -1.223681,0.56566 -0.42137,0.14431 -0.825398,0.23666 -1.292937,0.32324 -0.46754,0.0866 -0.998564,0.16739 -1.448787,0.21356 -0.450224,0.0462 -0.819629,0.0577 -1.10245,0.0866 -0.282822,0.0289 -0.479096,0.075 -0.386736,-0.10967 0.09236,-0.18471 0.473307,-0.60029 0.727279,-0.90621 0.253973,-0.30593 0.380951,-0.50217 0.467534,-0.68688 0.08658,-0.18471 0.132759,-0.35787 -0.0058,-0.2886 -0.138533,0.0693 -0.461761,0.38095 -0.73305,0.66379 -0.27129,0.28283 -0.490624,0.5368 -0.744595,0.76768 -0.253972,0.23089 -0.542574,0.43868 -0.808089,0.66956 -0.265516,0.23088 -0.50794,0.48485 -0.709965,0.73883 -0.202024,0.25397 -0.363636,0.50793 -0.542572,0.83117 -0.178936,0.32324 -0.37518,0.71573 -0.490623,1.03897 -0.115442,0.32324 -0.150073,0.5772 -0.138529,0.87736 0.01154,0.30015 0.06926,0.64646 0.155845,1.01588 0.08658,0.36942 0.202022,0.76191 0.317462,1.0332 0.115441,0.27128 0.230885,0.42136 0.380958,0.59452 0.150073,0.17316 0.334778,0.36941 0.513713,0.5368 0.178935,0.16739 0.352094,0.30592 0.507938,0.40404 0.155843,0.0981 0.294379,0.15585 0.409816,0.22511 0.115437,0.0693 0.207796,0.15008 0.253973,0.19048 0.04618,0.0404 0.04618,0.0406 -0.126977,0.0464 z"
           id="path97-1"
           transform="translate(13.669478,33.690804)"
           sodipodi:nodetypes="ccccccccccccccccccccccccccccccccccccccccccccccccccccccccccccccc"
           inkscape:connector-curvature="0" /><circle
           style="fill:#ffffff;fill-opacity:1;stroke:#ffffff;stroke-width:0.165;stroke-linecap:round;stroke-linejoin:round;stroke-dasharray:none;stroke-opacity:1"
           id="circle97"
           cx="96.400299"
           cy="178.08997"
           r="0.13852949" /><circle
           style="fill:#ffffff;fill-opacity:1;stroke:#ffffff;stroke-width:0.165;stroke-linecap:round;stroke-linejoin:round;stroke-dasharray:none;stroke-opacity:1"
           id="circle98"
           cx="103.74236"
           cy="177.61699"
           r="0.13852949" /></g></g></g></svg>
