<?xml version="1.0" encoding="UTF-8" standalone="no"?>
<!-- Created with Inkscape (http://www.inkscape.org/) -->

<svg
   width="717.98187"
   height="619.41492"
   viewBox="0 0 202.63044 174.81266"
   version="1.1"
   id="svg1"
   inkscape:version="1.3.2 (091e20ef0f, 2023-11-25)"
   sodipodi:docname="GameMap.svg"
   xml:space="preserve"
   xmlns:inkscape="http://www.inkscape.org/namespaces/inkscape"
   xmlns:sodipodi="http://sodipodi.sourceforge.net/DTD/sodipodi-0.dtd"
   xmlns:xlink="http://www.w3.org/1999/xlink"
   xmlns="http://www.w3.org/2000/svg"
   xmlns:svg="http://www.w3.org/2000/svg"
   xmlns:rdf="http://www.w3.org/1999/02/22-rdf-syntax-ns#"
   xmlns:cc="http://creativecommons.org/ns#"
   xmlns:dc="http://purl.org/dc/elements/1.1/"><metadata
     id="metadata585"><rdf:RDF><cc:Work
         rdf:about=""><dc:format>image/svg+xml</dc:format><dc:type
           rdf:resource="http://purl.org/dc/dcmitype/StillImage" /></cc:Work></rdf:RDF></metadata><sodipodi:namedview
     id="namedview1"
     pagecolor="#505050"
     bordercolor="#eeeeee"
     borderopacity="1"
     inkscape:showpageshadow="0"
     inkscape:pageopacity="1"
     inkscape:pagecheckerboard="0"
     inkscape:deskcolor="#d1d1d1"
     inkscape:document-units="px"
     inkscape:zoom="0.35355339"
     inkscape:cx="223.44574"
     inkscape:cy="234.75945"
     inkscape:window-width="1366"
     inkscape:window-height="706"
     inkscape:window-x="-8"
     inkscape:window-y="-8"
     inkscape:window-maximized="1"
     inkscape:current-layer="layer1"
     showgrid="false"
     units="px" /><defs
     id="defs1"><linearGradient
       id="linearGradient27"
       inkscape:collect="always"><stop
         style="stop-color:#677373;stop-opacity:1;"
         offset="0.28930819"
         id="stop27" /><stop
         style="stop-color:#2f3535;stop-opacity:1;"
         offset="1"
         id="stop28" /></linearGradient><linearGradient
       inkscape:collect="always"
       xlink:href="#linearGradient27"
       id="linearGradient28"
       x1="83.374329"
       y1="119.17766"
       x2="83.289276"
       y2="133.00655"
       gradientUnits="userSpaceOnUse"
       gradientTransform="translate(-6.1279486,4.82908)" /><linearGradient
       inkscape:collect="always"
       xlink:href="#linearGradient27"
       id="linearGradient30"
       x1="79.569115"
       y1="123.55837"
       x2="79.777321"
       y2="141.90282"
       gradientUnits="userSpaceOnUse"
       gradientTransform="translate(2.8936381,1.59649)" /><linearGradient
       inkscape:collect="always"
       xlink:href="#linearGradient27"
       id="linearGradient34"
       x1="77.299156"
       y1="111.06454"
       x2="77.782776"
       y2="126.30453"
       gradientUnits="userSpaceOnUse"
       gradientTransform="translate(0.60577498,0.44997744)" /><linearGradient
       inkscape:collect="always"
       xlink:href="#linearGradient27"
       id="linearGradient35"
       gradientUnits="userSpaceOnUse"
       x1="79.569115"
       y1="123.55837"
       x2="79.777321"
       y2="141.90282"
       gradientTransform="matrix(-1,0,0,1,164.44355,-10.128697)" /><linearGradient
       inkscape:collect="always"
       xlink:href="#linearGradient27"
       id="linearGradient36"
       gradientUnits="userSpaceOnUse"
       gradientTransform="translate(-1.7830852,-14.802988)"
       x1="83.374329"
       y1="119.17766"
       x2="83.289276"
       y2="133.00655" /><linearGradient
       inkscape:collect="always"
       xlink:href="#linearGradient27"
       id="linearGradient193"
       gradientUnits="userSpaceOnUse"
       gradientTransform="translate(-1.7830852,-14.802988)"
       x1="83.374329"
       y1="119.17766"
       x2="83.289276"
       y2="133.00655" /><linearGradient
       inkscape:collect="always"
       xlink:href="#linearGradient27"
       id="linearGradient200"
       gradientUnits="userSpaceOnUse"
       gradientTransform="translate(0.60577498,0.44997744)"
       x1="77.299156"
       y1="111.06454"
       x2="77.782776"
       y2="126.30453" /><linearGradient
       inkscape:collect="always"
       xlink:href="#linearGradient27"
       id="linearGradient201"
       gradientUnits="userSpaceOnUse"
       gradientTransform="matrix(-1,0,0,1,164.44355,-10.128697)"
       x1="79.569115"
       y1="123.55837"
       x2="79.777321"
       y2="141.90282" /><linearGradient
       inkscape:collect="always"
       xlink:href="#linearGradient27"
       id="linearGradient208"
       gradientUnits="userSpaceOnUse"
       gradientTransform="translate(-6.1279486,4.82908)"
       x1="83.374329"
       y1="119.17766"
       x2="83.289276"
       y2="133.00655" /><linearGradient
       inkscape:collect="always"
       xlink:href="#linearGradient27"
       id="linearGradient209"
       gradientUnits="userSpaceOnUse"
       gradientTransform="translate(2.8936381,1.59649)"
       x1="79.569115"
       y1="123.55837"
       x2="79.777321"
       y2="141.90282" /></defs><g
     inkscape:label="Layer 1"
     inkscape:groupmode="layer"
     id="layer1"
     transform="translate(-7.835803,-0.17115001)"><path
       style="fill:#c4a54a;fill-opacity:1;fill-rule:evenodd;stroke:#836d2b;stroke-width:1.136;stroke-linecap:butt;stroke-linejoin:miter;stroke-dasharray:none;stroke-opacity:1"
       d="m 22.577778,90.337774 c 2.926303,4.289475 5.758235,7.621351 9.905223,10.170956 7.773477,1.29063 4.946554,11.63476 0.254778,15.22904 -4.711979,4.02346 -12.683564,3.61624 -14.111112,10.72445 -6.938483,2.97247 -3.67669,10.89224 -3.45388,16.46329 2.766728,4.39245 -10.1420872,7.86088 -1.62612,11.75893 4.624789,6.2924 8.011438,12.2011 15.271203,15.86088 3.708145,2.39163 8.790171,-0.37054 13.290662,0.50801 6.085568,0.75517 14.34128,5.26275 15.379252,-3.78321 4.023039,-4.42762 9.594482,0.57929 14.620606,-0.73234 4.699257,0.65394 11.133447,-0.22167 8.042723,-6.20889 -0.366936,-5.22978 -0.370202,-12.12708 6.102802,-13.02894 5.835637,0.47354 11.482485,-0.47099 17.011315,-1.08217 4.45575,0.40275 9.77011,-1.20012 13.38032,1.78756 6.91284,-0.93988 6.34289,11.89777 13.74112,11.7591 5.54449,2.04757 7.73704,9.9047 14.11111,11.85334 4.77054,1.53658 9.744,1.0662 14.67556,1.12888 4.9604,-5.55978 14.29149,-0.72874 20.88444,0.56445 5.07953,3.65965 9.42333,-3.1118 16.17188,-1.09046 2.82125,-1.65519 8.68458,1.39768 8.09923,-3.98954 3.58974,-4.70401 9.22205,-13.45066 2.25778,-18.62667 -2.9391,-4.24086 -0.092,-11.57816 -4.77161,-14.72737 -5.30347,-2.85265 -16.00133,-1.41346 -16.67293,-7.60883 3.57416,-3.10321 5.65778,-8.54034 2.77404,-12.67396 -1.89188,-4.06801 -3.83765,-11.93593 -8.98728,-16.354284 -3.30229,-1.112669 -6.44588,-0.373716 -9.53935,-1.128889 -5.28786,1.390262 -8.33332,-3.069328 -13.03842,-3.386666 -6.47654,-1.602766 -12.32665,-4.120025 -18.05633,-6.518428 -7.00765,1.611534 -10.96578,-5.999563 -2.82812,-7.028239 6.43045,-2.096571 1.33681,-12.421429 -4.29587,-12.930345 -2.65808,-3.169642 -6.63661,-2.208194 -10.37969,-2.309656 -8.1194,-3.596632 -8.6154,-8.647991 -10.29329,-16.591817 1.86351,-3.809545 1.38085,-6.65087 6.90663,-9.937072 0.73514,-4.308432 -1.21811,-8.08286 -2.25778,-11.853334 1.14135,-5.041689 -2.26243,-10.362904 -7.90222,-9.031112 C 98.439343,18.065689 95.899735,5.3982374 87.488891,5.1066604 79.07091,3.2531264 71.406962,6.5396239 63.21778,7.3644382 56.753656,5.6098027 50.135004,2.6302693 43.862658,0.80100833 39.667029,4.2906892 33.245434,2.4029485 27.938781,2.8488825 24.355947,2.1481841 21.449101,3.1457617 22.577778,7.2520371 21.048024,13.474841 10.175031,9.9273694 11.345235,18.508359 10.0939,17.294163 9.7930168,27.300703 10.724445,29.942217 c -0.541943,5.650133 -4.9563053,12.015173 0,17.497778 -0.9451633,4.406135 1.849387,7.760093 3.346864,11.34685 3.747169,2.970784 13.332202,8.139204 8.506469,13.488706 -4.452666,4.638417 -3.810429,10.713489 1.693334,14.111112 0.223075,1.500484 -1.412461,2.584848 -1.693334,3.951111 z"
       id="path123"
       inkscape:export-filename="..\Binary\Data\Sprites\Map\Map1FW.svg"
       inkscape:export-xdpi="20.716784"
       inkscape:export-ydpi="20.716784" /><g
       id="g36"
       inkscape:export-filename="..\Binary\Data\Sprites\Map\Map1\PicMountain.svg"
       inkscape:export-xdpi="20.716784"
       inkscape:export-ydpi="20.716784"
       transform="translate(-21.309498,18.721076)"
       style="opacity:0.745152"><path
         style="fill:url(#linearGradient36);fill-rule:evenodd;stroke:#393939;stroke-width:0.282222px;stroke-linecap:butt;stroke-linejoin:miter;stroke-opacity:1"
         d="m 79.214694,118.00925 1.975556,-13.12333 2.54,9.03111 0.987778,-3.10444 1.552222,7.33777 z"
         id="path35" /><path
         style="fill:url(#linearGradient34);fill-rule:evenodd;stroke:#393939;stroke-width:0.282222px;stroke-linecap:butt;stroke-linejoin:miter;stroke-opacity:1"
         d="m 73.983555,125.78331 0.987778,-3.66889 1.128889,1.83445 1.975555,-12.55889 4.656667,13.68777 -4.092222,2.25778 z"
         id="path32" /><path
         style="fill:url(#linearGradient35);fill-rule:evenodd;stroke:#393939;stroke-width:0.282222px;stroke-linecap:butt;stroke-linejoin:miter;stroke-opacity:1"
         d="m 88.102445,131.99685 -2.116667,-15.24 -0.846667,2.82222 -0.987777,-6.49111 -2.398889,13.26445 -1.975556,4.93889 4.938889,1.27 z"
         id="path34" /><path
         style="fill:url(#linearGradient28);fill-rule:evenodd;stroke:#393939;stroke-width:0.282222px;stroke-linecap:butt;stroke-linejoin:miter;stroke-opacity:1"
         d="m 74.869832,137.6413 1.975556,-13.12333 2.54,9.03111 0.987778,-3.10444 1.552222,7.33777 z"
         id="path3" /><path
         style="fill:url(#linearGradient30);fill-rule:evenodd;stroke:#393939;stroke-width:0.282222;stroke-linecap:butt;stroke-linejoin:miter;stroke-dasharray:none;stroke-opacity:1"
         d="m 79.234751,143.72204 2.116667,-15.24 0.846667,2.82222 0.987777,-6.49111 2.398889,13.26445 1.975556,4.93889 -4.938889,1.27 z"
         id="path2" /></g><path
       style="fill:none;fill-rule:evenodd;stroke:#58412d;stroke-width:2.286;stroke-linecap:round;stroke-linejoin:miter;stroke-dasharray:none;stroke-opacity:1"
       d="m 98.184138,28.97479 c 0.970957,-1.649501 2.194782,-0.96497 3.392542,-2.394735 0.4565,-0.830841 0.63735,-2.85126 0,-2.993418 -0.90897,-1.663913 -2.559036,-3.06458 -3.821482,-4.457259 -0.329088,-1.408548 -1.836481,-3.354408 -3.387961,-3.655352 -1.134342,-1.105787 -2.789373,-1.470133 -4.168389,-2.45965 -1.040551,-1.002199 -2.481327,-0.808718 -3.805919,-0.80273 -1.195142,-0.03425 -2.561614,0.129076 -3.575009,-0.498903 -1.360024,-0.685613 -2.933905,0.922322 -4.187211,1.501763 -1.401264,0.772737 -2.563844,2.181137 -2.597873,3.78661 -0.05453,1.007174 0.156378,2.067437 -0.215175,3.004543 0.272113,2.483033 -2.812,1.553304 -3.97561,2.982294 -1.733353,1.320758 -4.436284,0.126446 -5.903905,2.097652 -0.502936,1.491407 -1.022571,2.988436 -2.076498,4.289507 -1.047356,1.409867 -0.934962,1.525966 -2.088718,3.099807 -1.07539,1.538828 -3.22215,1.609243 -4.799233,0.860758 -1.645499,-0.741428 -2.55583,-2.393857 -3.443013,-3.865226 l -0.04827,-0.09654"
       id="path539"
       sodipodi:nodetypes="cccccccccccccccccc" /><path
       style="fill:none;fill-rule:evenodd;stroke:#58412d;stroke-width:2.286;stroke-linecap:butt;stroke-linejoin:miter;stroke-dasharray:none;stroke-opacity:1"
       d="m 38.714884,152.50321 c -1.60446,3.66388 -4.37305,5.23587 -8.381574,5.18859 -5.34916,0.17354 -11.025888,-0.52717 -10.377185,-7.46238 0.200407,-2.81329 -0.322354,-5.65656 -0.399122,-8.50252 0.269181,-2.13542 0.948652,-4.76533 1.197367,-7.18421 0.611297,-2.56221 1.68518,-4.95425 3.592103,-7.1842 1.471674,-1.58869 2.852159,-3.46304 5.719418,-2.79386 2.450185,0.19483 4.663378,-0.61425 7.118353,-0.39912 2.482222,-0.16184 5.210655,0.29436 6.897878,-1.77514 1.082045,-2.87939 2.268912,-6.1743 2.216088,-9.50646 -0.115999,-3.75758 -0.01294,-7.3005 -1.344776,-11.04548 -2.128295,-3.903628 -4.10833,-7.564493 -7.158181,-10.067105 -2.68398,-2.702836 -6.124284,-8.752763 -7.511833,-13.804245 -0.752558,-2.739748 0.201332,-5.724978 -0.321994,-8.517592 -0.681323,-3.635735 -1.901939,-7.449567 -3.624367,-10.488512 -1.462794,-1.783372 -1.17839,-5.743619 0.680367,-7.387443 3.149375,-2.330178 7.649992,-2.751431 9.202942,-6.085049 1.350158,-2.898297 -1.718435,-3.639517 -1.097589,-9.52905"
       id="path132"
       sodipodi:nodetypes="ccccccccccccaaccac" /><g
       id="g192"
       inkscape:export-filename="..\Binary\Data\Sprites\Map\Map1\PicMountain.svg"
       inkscape:export-xdpi="20.716784"
       inkscape:export-ydpi="20.716784"
       transform="matrix(-1,0,0,1,124.16162,-60.067347)"
       style="opacity:0.714681"><path
         style="fill:url(#linearGradient193);fill-rule:evenodd;stroke:#393939;stroke-width:0.282222px;stroke-linecap:butt;stroke-linejoin:miter;stroke-opacity:1"
         d="m 79.214694,118.00925 1.975556,-13.12333 2.54,9.03111 0.987778,-3.10444 1.552222,7.33777 z"
         id="path182" /><path
         style="fill:url(#linearGradient200);fill-rule:evenodd;stroke:#393939;stroke-width:0.282222px;stroke-linecap:butt;stroke-linejoin:miter;stroke-opacity:1"
         d="m 73.983555,125.78331 0.987778,-3.66889 1.128889,1.83445 1.975555,-12.55889 4.656667,13.68777 -4.092222,2.25778 z"
         id="path187" /><path
         style="fill:url(#linearGradient201);fill-rule:evenodd;stroke:#393939;stroke-width:0.282222px;stroke-linecap:butt;stroke-linejoin:miter;stroke-opacity:1"
         d="m 88.102445,131.99685 -2.116667,-15.24 -0.846667,2.82222 -0.987777,-6.49111 -2.398889,13.26445 -1.975556,4.93889 4.938889,1.27 z"
         id="path188" /><path
         style="fill:url(#linearGradient208);fill-rule:evenodd;stroke:#393939;stroke-width:0.282222px;stroke-linecap:butt;stroke-linejoin:miter;stroke-opacity:1"
         d="m 74.869832,137.6413 1.975556,-13.12333 2.54,9.03111 0.987778,-3.10444 1.552222,7.33777 z"
         id="path190" /><path
         style="fill:url(#linearGradient209);fill-rule:evenodd;stroke:#393939;stroke-width:0.282222;stroke-linecap:butt;stroke-linejoin:miter;stroke-dasharray:none;stroke-opacity:1"
         d="m 79.234751,143.72204 2.116667,-15.24 0.846667,2.82222 0.987777,-6.49111 2.398889,13.26445 1.975556,4.93889 -4.938889,1.27 z"
         id="path192" /></g></g></svg>
