<?xml version="1.0" encoding="UTF-8" standalone="no"?>
<!-- Created with Inkscape (http://www.inkscape.org/) -->

<svg
   width="651.20508"
   height="602.01544"
   viewBox="0 0 183.78455 169.90214"
   version="1.1"
   id="svg1"
   inkscape:version="1.3 (0e150ed6c4, 2023-07-21)"
   sodipodi:docname="GameMap.svg"
   xml:space="preserve"
   xmlns:inkscape="http://www.inkscape.org/namespaces/inkscape"
   xmlns:sodipodi="http://sodipodi.sourceforge.net/DTD/sodipodi-0.dtd"
   xmlns:xlink="http://www.w3.org/1999/xlink"
   xmlns="http://www.w3.org/2000/svg"
   xmlns:svg="http://www.w3.org/2000/svg"
   xmlns:rdf="http://www.w3.org/1999/02/22-rdf-syntax-ns#"
   xmlns:cc="http://creativecommons.org/ns#"
   xmlns:dc="http://purl.org/dc/elements/1.1/"><metadata
     id="metadata585"><rdf:RDF><cc:Work
         rdf:about=""><dc:format>image/svg+xml</dc:format><dc:type
           rdf:resource="http://purl.org/dc/dcmitype/StillImage" /></cc:Work></rdf:RDF></metadata><sodipodi:namedview
     id="namedview1"
     pagecolor="#505050"
     bordercolor="#eeeeee"
     borderopacity="1"
     inkscape:showpageshadow="0"
     inkscape:pageopacity="1"
     inkscape:pagecheckerboard="0"
     inkscape:deskcolor="#d1d1d1"
     inkscape:document-units="px"
     inkscape:zoom="0.35355339"
     inkscape:cx="401.63665"
     inkscape:cy="138.59293"
     inkscape:window-width="1280"
     inkscape:window-height="961"
     inkscape:window-x="-8"
     inkscape:window-y="-8"
     inkscape:window-maximized="1"
     inkscape:current-layer="layer1"
     showgrid="false"
     units="px" /><defs
     id="defs1"><linearGradient
       id="linearGradient849"
       inkscape:collect="always"><stop
         style="stop-color:#826c2a;stop-opacity:1;"
         offset="0"
         id="stop848" /><stop
         style="stop-color:#c4a54a;stop-opacity:1;"
         offset="1"
         id="stop849" /></linearGradient><linearGradient
       id="linearGradient27"
       inkscape:collect="always"><stop
         style="stop-color:#677373;stop-opacity:1;"
         offset="0.28930819"
         id="stop27" /><stop
         style="stop-color:#2f3535;stop-opacity:1;"
         offset="1"
         id="stop28" /></linearGradient><linearGradient
       inkscape:collect="always"
       xlink:href="#linearGradient27"
       id="linearGradient664"
       gradientUnits="userSpaceOnUse"
       gradientTransform="translate(-1.7830852,-14.802988)"
       x1="83.374329"
       y1="119.17766"
       x2="83.289276"
       y2="133.00655" /><linearGradient
       inkscape:collect="always"
       xlink:href="#linearGradient27"
       id="linearGradient665"
       gradientUnits="userSpaceOnUse"
       gradientTransform="translate(0.60577498,0.44997744)"
       x1="77.299156"
       y1="111.06454"
       x2="77.782776"
       y2="126.30453" /><linearGradient
       inkscape:collect="always"
       xlink:href="#linearGradient27"
       id="linearGradient666"
       gradientUnits="userSpaceOnUse"
       gradientTransform="matrix(-1,0,0,1,164.44355,-10.128697)"
       x1="79.569115"
       y1="123.55837"
       x2="79.777321"
       y2="141.90282" /><linearGradient
       inkscape:collect="always"
       xlink:href="#linearGradient27"
       id="linearGradient667"
       gradientUnits="userSpaceOnUse"
       gradientTransform="translate(-6.1279486,4.82908)"
       x1="83.374329"
       y1="119.17766"
       x2="83.289276"
       y2="133.00655" /><linearGradient
       inkscape:collect="always"
       xlink:href="#linearGradient27"
       id="linearGradient668"
       gradientUnits="userSpaceOnUse"
       gradientTransform="translate(2.8936381,1.59649)"
       x1="79.569115"
       y1="123.55837"
       x2="79.777321"
       y2="141.90282" /><linearGradient
       inkscape:collect="always"
       xlink:href="#linearGradient27"
       id="linearGradient685"
       gradientUnits="userSpaceOnUse"
       gradientTransform="translate(-1.7830852,-14.802988)"
       x1="83.374329"
       y1="119.17766"
       x2="83.289276"
       y2="133.00655" /><linearGradient
       inkscape:collect="always"
       xlink:href="#linearGradient27"
       id="linearGradient686"
       gradientUnits="userSpaceOnUse"
       gradientTransform="translate(0.60577498,0.44997744)"
       x1="77.299156"
       y1="111.06454"
       x2="77.782776"
       y2="126.30453" /><linearGradient
       inkscape:collect="always"
       xlink:href="#linearGradient27"
       id="linearGradient687"
       gradientUnits="userSpaceOnUse"
       gradientTransform="matrix(-1,0,0,1,164.44355,-10.128697)"
       x1="79.569115"
       y1="123.55837"
       x2="79.777321"
       y2="141.90282" /><linearGradient
       inkscape:collect="always"
       xlink:href="#linearGradient27"
       id="linearGradient688"
       gradientUnits="userSpaceOnUse"
       gradientTransform="translate(-6.1279486,4.82908)"
       x1="83.374329"
       y1="119.17766"
       x2="83.289276"
       y2="133.00655" /><linearGradient
       inkscape:collect="always"
       xlink:href="#linearGradient27"
       id="linearGradient689"
       gradientUnits="userSpaceOnUse"
       gradientTransform="translate(2.8936381,1.59649)"
       x1="79.569115"
       y1="123.55837"
       x2="79.777321"
       y2="141.90282" /><linearGradient
       inkscape:collect="always"
       xlink:href="#linearGradient27"
       id="linearGradient803"
       gradientUnits="userSpaceOnUse"
       gradientTransform="translate(-1.7830852,-14.802988)"
       x1="83.374329"
       y1="119.17766"
       x2="83.289276"
       y2="133.00655" /><linearGradient
       inkscape:collect="always"
       xlink:href="#linearGradient27"
       id="linearGradient804"
       gradientUnits="userSpaceOnUse"
       gradientTransform="translate(0.60577498,0.44997744)"
       x1="77.299156"
       y1="111.06454"
       x2="77.782776"
       y2="126.30453" /><linearGradient
       inkscape:collect="always"
       xlink:href="#linearGradient27"
       id="linearGradient805"
       gradientUnits="userSpaceOnUse"
       gradientTransform="matrix(-1,0,0,1,164.44355,-10.128697)"
       x1="79.569115"
       y1="123.55837"
       x2="79.777321"
       y2="141.90282" /><linearGradient
       inkscape:collect="always"
       xlink:href="#linearGradient27"
       id="linearGradient806"
       gradientUnits="userSpaceOnUse"
       gradientTransform="translate(-6.1279486,4.82908)"
       x1="83.374329"
       y1="119.17766"
       x2="83.289276"
       y2="133.00655" /><linearGradient
       inkscape:collect="always"
       xlink:href="#linearGradient27"
       id="linearGradient807"
       gradientUnits="userSpaceOnUse"
       gradientTransform="translate(2.8936381,1.59649)"
       x1="79.569115"
       y1="123.55837"
       x2="79.777321"
       y2="141.90282" /><linearGradient
       inkscape:collect="always"
       xlink:href="#linearGradient27"
       id="linearGradient817"
       gradientUnits="userSpaceOnUse"
       gradientTransform="translate(-1.7830852,-14.802988)"
       x1="83.374329"
       y1="119.17766"
       x2="83.289276"
       y2="133.00655" /><linearGradient
       inkscape:collect="always"
       xlink:href="#linearGradient27"
       id="linearGradient818"
       gradientUnits="userSpaceOnUse"
       gradientTransform="translate(0.60577498,0.44997744)"
       x1="77.299156"
       y1="111.06454"
       x2="77.782776"
       y2="126.30453" /><linearGradient
       inkscape:collect="always"
       xlink:href="#linearGradient27"
       id="linearGradient819"
       gradientUnits="userSpaceOnUse"
       gradientTransform="matrix(-1,0,0,1,164.44355,-10.128697)"
       x1="79.569115"
       y1="123.55837"
       x2="79.777321"
       y2="141.90282" /><linearGradient
       inkscape:collect="always"
       xlink:href="#linearGradient27"
       id="linearGradient820"
       gradientUnits="userSpaceOnUse"
       gradientTransform="translate(-6.1279486,4.82908)"
       x1="83.374329"
       y1="119.17766"
       x2="83.289276"
       y2="133.00655" /><linearGradient
       inkscape:collect="always"
       xlink:href="#linearGradient27"
       id="linearGradient821"
       gradientUnits="userSpaceOnUse"
       gradientTransform="translate(2.8936381,1.59649)"
       x1="79.569115"
       y1="123.55837"
       x2="79.777321"
       y2="141.90282" /><linearGradient
       inkscape:collect="always"
       xlink:href="#linearGradient27"
       id="linearGradient825"
       gradientUnits="userSpaceOnUse"
       gradientTransform="translate(-1.7830852,-14.802988)"
       x1="83.374329"
       y1="119.17766"
       x2="83.289276"
       y2="133.00655" /><linearGradient
       inkscape:collect="always"
       xlink:href="#linearGradient27"
       id="linearGradient826"
       gradientUnits="userSpaceOnUse"
       gradientTransform="translate(0.60577498,0.44997744)"
       x1="77.299156"
       y1="111.06454"
       x2="77.782776"
       y2="126.30453" /><linearGradient
       inkscape:collect="always"
       xlink:href="#linearGradient27"
       id="linearGradient827"
       gradientUnits="userSpaceOnUse"
       gradientTransform="matrix(-1,0,0,1,164.44355,-10.128697)"
       x1="79.569115"
       y1="123.55837"
       x2="79.777321"
       y2="141.90282" /><linearGradient
       inkscape:collect="always"
       xlink:href="#linearGradient27"
       id="linearGradient828"
       gradientUnits="userSpaceOnUse"
       gradientTransform="translate(-6.1279486,4.82908)"
       x1="83.374329"
       y1="119.17766"
       x2="83.289276"
       y2="133.00655" /><linearGradient
       inkscape:collect="always"
       xlink:href="#linearGradient27"
       id="linearGradient829"
       gradientUnits="userSpaceOnUse"
       gradientTransform="translate(2.8936381,1.59649)"
       x1="79.569115"
       y1="123.55837"
       x2="79.777321"
       y2="141.90282" /><linearGradient
       inkscape:collect="always"
       xlink:href="#linearGradient27"
       id="linearGradient833"
       gradientUnits="userSpaceOnUse"
       gradientTransform="translate(-1.7830852,-14.802988)"
       x1="83.374329"
       y1="119.17766"
       x2="83.289276"
       y2="133.00655" /><linearGradient
       inkscape:collect="always"
       xlink:href="#linearGradient27"
       id="linearGradient834"
       gradientUnits="userSpaceOnUse"
       gradientTransform="translate(0.60577498,0.44997744)"
       x1="77.299156"
       y1="111.06454"
       x2="77.782776"
       y2="126.30453" /><linearGradient
       inkscape:collect="always"
       xlink:href="#linearGradient27"
       id="linearGradient835"
       gradientUnits="userSpaceOnUse"
       gradientTransform="matrix(-1,0,0,1,164.44355,-10.128697)"
       x1="79.569115"
       y1="123.55837"
       x2="79.777321"
       y2="141.90282" /><linearGradient
       inkscape:collect="always"
       xlink:href="#linearGradient27"
       id="linearGradient836"
       gradientUnits="userSpaceOnUse"
       gradientTransform="translate(-6.1279486,4.82908)"
       x1="83.374329"
       y1="119.17766"
       x2="83.289276"
       y2="133.00655" /><linearGradient
       inkscape:collect="always"
       xlink:href="#linearGradient27"
       id="linearGradient837"
       gradientUnits="userSpaceOnUse"
       gradientTransform="translate(2.8936381,1.59649)"
       x1="79.569115"
       y1="123.55837"
       x2="79.777321"
       y2="141.90282" /><linearGradient
       inkscape:collect="always"
       xlink:href="#linearGradient27"
       id="linearGradient842"
       gradientUnits="userSpaceOnUse"
       gradientTransform="translate(-1.7830852,-14.802988)"
       x1="83.374329"
       y1="119.17766"
       x2="83.289276"
       y2="133.00655" /><linearGradient
       inkscape:collect="always"
       xlink:href="#linearGradient27"
       id="linearGradient843"
       gradientUnits="userSpaceOnUse"
       gradientTransform="translate(0.60577498,0.44997744)"
       x1="77.299156"
       y1="111.06454"
       x2="77.782776"
       y2="126.30453" /><linearGradient
       inkscape:collect="always"
       xlink:href="#linearGradient27"
       id="linearGradient844"
       gradientUnits="userSpaceOnUse"
       gradientTransform="matrix(-1,0,0,1,164.44355,-10.128697)"
       x1="79.569115"
       y1="123.55837"
       x2="79.777321"
       y2="141.90282" /><linearGradient
       inkscape:collect="always"
       xlink:href="#linearGradient27"
       id="linearGradient845"
       gradientUnits="userSpaceOnUse"
       gradientTransform="translate(-6.1279486,4.82908)"
       x1="83.374329"
       y1="119.17766"
       x2="83.289276"
       y2="133.00655" /><linearGradient
       inkscape:collect="always"
       xlink:href="#linearGradient27"
       id="linearGradient846"
       gradientUnits="userSpaceOnUse"
       gradientTransform="translate(2.8936381,1.59649)"
       x1="79.569115"
       y1="123.55837"
       x2="79.777321"
       y2="141.90282" /><radialGradient
       inkscape:collect="always"
       xlink:href="#linearGradient849"
       id="radialGradient848"
       cx="130.14426"
       cy="38.501255"
       fx="130.14426"
       fy="38.501255"
       r="32.500824"
       gradientTransform="matrix(0.46784527,-0.42917552,0.83589854,0.91121505,37.07374,59.273061)"
       gradientUnits="userSpaceOnUse" /><radialGradient
       inkscape:collect="always"
       xlink:href="#linearGradient849"
       id="radialGradient851"
       cx="67.099266"
       cy="106.1615"
       fx="67.099266"
       fy="106.1615"
       r="25.561907"
       gradientTransform="matrix(-0.50048015,0.05200599,-0.24965397,-2.4025462,108.78912,355.34996)"
       gradientUnits="userSpaceOnUse" /><radialGradient
       inkscape:collect="always"
       xlink:href="#linearGradient849"
       id="radialGradient852"
       cx="80.867363"
       cy="49.156399"
       fx="80.867363"
       fy="49.156399"
       r="21.042625"
       gradientTransform="matrix(0.72287274,0.2703026,-0.50735349,1.3568201,51.38509,-39.225013)"
       gradientUnits="userSpaceOnUse" /></defs><g
     inkscape:label="Layer 1"
     inkscape:groupmode="layer"
     id="layer1"
     transform="translate(-10.130043,-2.033315)"><path
       style="fill:#c4a54a;fill-opacity:1;fill-rule:evenodd;stroke:#836d2b;stroke-width:1.13594;stroke-linecap:butt;stroke-linejoin:miter;stroke-dasharray:none;stroke-opacity:1"
       d="m 13.49341,45.58865 c -1.342823,10.940033 9.752729,17.146902 10.274722,23.48323 0.59237,7.190612 -10.751075,10.48975 -12.804472,37.64289 -1.49142,7.12006 3.8101,12.47078 3.10023,19.25088 0.52942,6.1772 4.04838,10.32883 7.70461,13.32738 5.45881,1.58826 9.97865,6.22944 8.41896,12.79632 0.44787,4.89873 1.70934,9.89497 3.92453,14.31807 5.13877,3.45928 9.83755,-1.31028 13.12242,-4.76139 0.35225,-0.35747 8.14751,-8.00388 22.80193,0.006 7.6786,4.19712 17.20929,-0.0609 25.80452,-0.0211 5.71856,4.108 11.12062,14.54673 17.63681,7.1631 3.65792,-2.87873 6.21251,-0.69155 9.79937,-3.3068 6.48887,-4.73117 12.40412,-1.95129 19.96275,-7.43788 6.0666,-4.40359 13.17155,-7.98097 13.24985,-15.51656 0.89215,-8.40342 -0.78223,-17.93187 8.35074,-20.78498 4.04598,-6.38252 5.45227,-15.07386 8.11102,-22.22604 1.59929,-7.97912 11.80581,-1.68708 13.09968,-10.96665 3.13613,-7.48116 6.69618,-16.14949 6.82999,-25.06205 1.60378,-6.72196 -1.01341,-10.88897 -7.24271,-9.30893 -4.55961,0.63634 -8.41042,-0.48546 -11.53415,-3.58157 -6.36139,-3.70163 -17.5528,-1.31681 -16.74797,-12.54827 2.22947,-9.57156 -4.99204,-18.85046 -11.91184,-20.87962 -7.98705,-2.34179 -11.64262,-8.6525399 -16.53452,-13.1320699 -5.84162,-2.37274 -13.45943,-1.40237 -19.83607,0.0585 -8.0805,-0.13241 -16.41831,-2.1468 -24.25598,-0.0585 -4.13984,1.10297 -8.5796,-0.55994 -12.14629,2.33711 -4.43743,3.6672099 -18.41036,-1.08516 -23.94217,-0.65842 -3.72423,1.43873 -12.27471,-1.90425 -16.23818,-1.13063 -5.4869,1.07098 -5.73931,4.39075 -8.98451,9.2381299 -2.66365,2.96513 -11.19161,2.22703 -12.20834,5.90326 -1.51723,7.09959 2.31026,12.55282 3.29739,19.33294 z"
       id="path124-9"
       inkscape:export-filename="..\..\Binary\Data\Sprites\Map\Map1FW.svg"
       inkscape:export-xdpi="96"
       inkscape:export-ydpi="96"
       sodipodi:nodetypes="csccccccsccssccccccccsccsccscccc" /><path
       style="fill:url(#radialGradient852);fill-rule:evenodd;stroke:none;stroke-width:0.282222px;stroke-linecap:butt;stroke-linejoin:miter;stroke-opacity:1"
       d="M 90.999931,19.19629 79.8245,28.775231 c 0,0 -12.372797,9.179817 -12.771919,11.17543 -0.399124,1.99561 -3.991226,17.162267 -3.991226,17.162267 l 5.188594,12.771919 13.171043,7.982452 14.368408,-3.19298 5.98684,-4.789472 -0.39913,-10.776306 c 0,0 -2.39473,-12.372798 -1.995605,-13.969289 0.399121,-1.596489 5.188595,-3.991224 5.587715,-5.986837 0.39912,-1.995613 0,-9.978063 0,-9.978063 l -5.98684,-8.780695 z"
       id="path851" /><path
       style="fill:url(#radialGradient851);fill-rule:evenodd;stroke:none;stroke-width:0.282222px;stroke-linecap:butt;stroke-linejoin:miter;stroke-opacity:1"
       d="m 43.105229,52.72258 c 1.872067,-2.157546 4.776609,-4.52223 7.583328,-3.991226 3.799941,0.718912 7.184207,7.184206 7.583329,8.780695 0.399121,1.596492 2.817267,8.669179 3.19298,13.171044 0.310602,3.721696 -0.187345,7.491099 -0.798246,11.17543 -0.427564,2.578631 -2.237115,4.980671 -1.995613,7.583328 0.258427,2.785059 2.810091,4.897847 3.592105,7.583325 0.899666,3.089504 -0.08395,6.627224 1.197367,9.578944 1.241267,2.85945 4.325061,4.54683 5.986837,7.1842 1.872421,2.97168 4.789469,7.18421 4.390348,9.57895 -0.399122,2.39473 5.217972,7.86258 5.587715,12.37279 0.337499,4.11689 -2.391972,7.92139 -3.192981,11.97368 -0.598398,3.02728 1.087246,7.10543 -1.197367,9.17982 -2.95654,2.68448 -8.608617,2.54946 -11.973676,0.39912 -3.164897,-2.02243 -3.592102,-7.18421 -4.390348,-10.37719 -0.798243,-3.19298 -2.456281,-13.20777 -6.385958,-18.35963 -3.133289,-4.10779 -8.758023,-5.52801 -12.771922,-8.7807 -2.851397,-2.31065 -6.175275,-4.389 -7.982449,-7.58332 -2.415892,-4.27028 -3.291351,-9.4631 -3.192981,-14.368418 0.09382,-4.67824 2.216801,-9.097663 3.592102,-13.570165 1.533526,-4.987052 3.446404,-9.849487 5.188594,-14.767532 1.981229,-5.592831 2.098281,-12.281609 5.986836,-16.763145 z"
       id="path849"
       sodipodi:nodetypes="ssssssssssssssssssssss" /><path
       style="fill:url(#radialGradient848);fill-rule:evenodd;stroke:none;stroke-width:0.282222px;stroke-linecap:butt;stroke-linejoin:miter;stroke-opacity:1"
       d="m 104.96922,41.54715 c 2.3361,4.514913 6.49418,8.395333 11.17543,10.377184 4.66197,1.973689 10.7885,-1.743639 15.16665,0.798246 3.8298,2.223524 4.20127,7.902282 7.18421,11.17543 2.61728,2.871906 5.34337,6.568051 9.17982,7.184204 3.49025,0.560553 7.49659,-1.074486 9.97806,-3.592102 3.16017,-3.206195 5.98684,-12.372798 4.39035,-12.771919 -1.59649,-0.399124 -9.17982,-10.776309 -9.17982,-12.372798 0,-1.596491 -0.79824,-11.574554 -2.39474,-13.171043 -1.59649,-1.596489 -7.15075,-6.423988 -10.7763,-9.57894 -3.55966,-3.09762 -6.59269,-6.997208 -10.77631,-9.179818 -5.12115,-2.6717234 -11.07602,-5.4007225 -16.76315,-4.3903471 -3.67005,0.6520209 -6.5858,3.7091186 -9.17981,6.3859601 -2.20848,2.279 -5.141652,4.809278 -5.188597,7.98245 -0.05299,3.581842 4.394197,5.802255 5.587717,9.179817 1.34155,3.796488 -0.2539,8.397484 1.59649,11.973676 z"
       id="path846"
       sodipodi:nodetypes="ssssssssssssssss" /><g
       id="g514"
       inkscape:export-filename="..\Binary\Data\Sprites\Map\Map1\PicMountain.svg"
       inkscape:export-xdpi="20.716784"
       inkscape:export-ydpi="20.716784"
       transform="translate(-14.518713,12.71109)"
       style="opacity:1"><path
         style="fill:url(#linearGradient685);fill-rule:evenodd;stroke:#393939;stroke-width:0.282222px;stroke-linecap:butt;stroke-linejoin:miter;stroke-opacity:1"
         d="m 79.214694,118.00925 1.975556,-13.12333 2.54,9.03111 0.987778,-3.10444 1.552222,7.33777 z"
         id="path510" /><path
         style="fill:url(#linearGradient686);fill-rule:evenodd;stroke:#393939;stroke-width:0.282222px;stroke-linecap:butt;stroke-linejoin:miter;stroke-opacity:1"
         d="m 73.983555,125.78331 0.987778,-3.66889 1.128889,1.83445 1.975555,-12.55889 4.656667,13.68777 -4.092222,2.25778 z"
         id="path511" /><path
         style="fill:url(#linearGradient687);fill-rule:evenodd;stroke:#393939;stroke-width:0.282222px;stroke-linecap:butt;stroke-linejoin:miter;stroke-opacity:1"
         d="m 88.102445,131.99685 -2.116667,-15.24 -0.846667,2.82222 -0.987777,-6.49111 -2.398889,13.26445 -1.975556,4.93889 4.938889,1.27 z"
         id="path512" /><path
         style="fill:url(#linearGradient688);fill-rule:evenodd;stroke:#393939;stroke-width:0.282222px;stroke-linecap:butt;stroke-linejoin:miter;stroke-opacity:1"
         d="m 74.869832,137.6413 1.975556,-13.12333 2.54,9.03111 0.987778,-3.10444 1.552222,7.33777 z"
         id="path513" /><path
         style="fill:url(#linearGradient689);fill-rule:evenodd;stroke:#393939;stroke-width:0.282222;stroke-linecap:butt;stroke-linejoin:miter;stroke-dasharray:none;stroke-opacity:1"
         d="m 79.234751,143.72204 2.116667,-15.24 0.846667,2.82222 0.987777,-6.49111 2.398889,13.26445 1.975556,4.93889 -4.938889,1.27 z"
         id="path514" /></g><g
       id="g803"
       inkscape:export-filename="..\Binary\Data\Sprites\Map\Map1\PicMountain.svg"
       inkscape:export-xdpi="20.716784"
       inkscape:export-ydpi="20.716784"
       transform="matrix(-1,0,0,1,210.51819,-93.023984)"
       style="opacity:1"><path
         style="fill:url(#linearGradient803);fill-rule:evenodd;stroke:#393939;stroke-width:0.282222px;stroke-linecap:butt;stroke-linejoin:miter;stroke-opacity:1"
         d="m 79.214694,118.00925 1.975556,-13.12333 2.54,9.03111 0.987778,-3.10444 1.552222,7.33777 z"
         id="path799" /><path
         style="fill:url(#linearGradient804);fill-rule:evenodd;stroke:#393939;stroke-width:0.282222px;stroke-linecap:butt;stroke-linejoin:miter;stroke-opacity:1"
         d="m 73.983555,125.78331 0.987778,-3.66889 1.128889,1.83445 1.975555,-12.55889 4.656667,13.68777 -4.092222,2.25778 z"
         id="path800" /><path
         style="fill:url(#linearGradient805);fill-rule:evenodd;stroke:#393939;stroke-width:0.282222px;stroke-linecap:butt;stroke-linejoin:miter;stroke-opacity:1"
         d="m 88.102445,131.99685 -2.116667,-15.24 -0.846667,2.82222 -0.987777,-6.49111 -2.398889,13.26445 -1.975556,4.93889 4.938889,1.27 z"
         id="path801" /><path
         style="fill:url(#linearGradient806);fill-rule:evenodd;stroke:#393939;stroke-width:0.282222px;stroke-linecap:butt;stroke-linejoin:miter;stroke-opacity:1"
         d="m 74.869832,137.6413 1.975556,-13.12333 2.54,9.03111 0.987778,-3.10444 1.552222,7.33777 z"
         id="path802" /><path
         style="fill:url(#linearGradient807);fill-rule:evenodd;stroke:#393939;stroke-width:0.282222;stroke-linecap:butt;stroke-linejoin:miter;stroke-dasharray:none;stroke-opacity:1"
         d="m 79.234751,143.72204 2.116667,-15.24 0.846667,2.82222 0.987777,-6.49111 2.398889,13.26445 1.975556,4.93889 -4.938889,1.27 z"
         id="path803" /></g><g
       id="g833"
       inkscape:export-filename="..\Binary\Data\Sprites\Map\Map1\PicMountain.svg"
       inkscape:export-xdpi="20.716784"
       inkscape:export-ydpi="20.716784"
       transform="translate(33.346205,-98.982451)"
       style="opacity:1"><path
         style="fill:url(#linearGradient833);fill-rule:evenodd;stroke:#393939;stroke-width:0.282222px;stroke-linecap:butt;stroke-linejoin:miter;stroke-opacity:1"
         d="m 79.214694,118.00925 1.975556,-13.12333 2.54,9.03111 0.987778,-3.10444 1.552222,7.33777 z"
         id="path829" /><path
         style="fill:url(#linearGradient834);fill-rule:evenodd;stroke:#393939;stroke-width:0.282222px;stroke-linecap:butt;stroke-linejoin:miter;stroke-opacity:1"
         d="m 73.983555,125.78331 0.987778,-3.66889 1.128889,1.83445 1.975555,-12.55889 4.656667,13.68777 -4.092222,2.25778 z"
         id="path830" /><path
         style="fill:url(#linearGradient835);fill-rule:evenodd;stroke:#393939;stroke-width:0.282222px;stroke-linecap:butt;stroke-linejoin:miter;stroke-opacity:1"
         d="m 88.102445,131.99685 -2.116667,-15.24 -0.846667,2.82222 -0.987777,-6.49111 -2.398889,13.26445 -1.975556,4.93889 4.938889,1.27 z"
         id="path831" /><path
         style="fill:url(#linearGradient836);fill-rule:evenodd;stroke:#393939;stroke-width:0.282222px;stroke-linecap:butt;stroke-linejoin:miter;stroke-opacity:1"
         d="m 74.869832,137.6413 1.975556,-13.12333 2.54,9.03111 0.987778,-3.10444 1.552222,7.33777 z"
         id="path832" /><path
         style="fill:url(#linearGradient837);fill-rule:evenodd;stroke:#393939;stroke-width:0.282222;stroke-linecap:butt;stroke-linejoin:miter;stroke-dasharray:none;stroke-opacity:1"
         d="m 79.234751,143.72204 2.116667,-15.24 0.846667,2.82222 0.987777,-6.49111 2.398889,13.26445 1.975556,4.93889 -4.938889,1.27 z"
         id="path833" /></g><path
       style="fill:none;fill-rule:evenodd;stroke:#58412d;stroke-width:2.286;stroke-linecap:round;stroke-linejoin:miter;stroke-dasharray:none;stroke-opacity:1"
       d="m 102.60024,26.60877 c 0.97095,-1.6495 2.19478,-0.96497 3.39254,-2.39473 0.4565,-0.83085 0.63735,-2.85126 0,-2.99342 -0.90897,-1.66392 -2.55904,-3.06458 -3.82148,-4.45726 -0.32909,-1.40855 -1.83648,-3.35441 -3.38796,-3.65535 -1.13435,-1.10579 -2.78938,-1.47014 -4.16839,-2.45965 -1.04055,-1.0021999 -2.48133,-0.8087199 -3.80592,-0.8027299 -1.19514,-0.0343 -2.56162,0.12907 -3.57501,-0.49891 -1.36002,-0.68561 -2.93391,0.9223299 -4.18721,1.5017699 -1.40127,0.77273 -2.56385,2.18113 -2.59787,3.78661 -0.0545,1.00717 0.15637,2.06743 -0.21518,3.00454 0.27211,2.48303 -2.812,1.5533 -3.97561,2.98229 -1.73335,1.32076 -4.43628,0.12645 -5.9039,2.09766 -0.82419,2.73616 -2.5103,5.09173 -4.16522,7.38931 -1.07539,1.53883 0.76127,7.23731 -1.50146,8.51464 -2.84886,1.60821 -4.45667,-0.86792 -5.34386,-2.33929"
       id="path569"
       sodipodi:nodetypes="ccccccccccccccsc" /><path
       style="fill:none;fill-rule:evenodd;stroke:#58412d;stroke-width:2.286;stroke-linecap:butt;stroke-linejoin:miter;stroke-dasharray:none;stroke-opacity:1"
       d="m 49.33987,154.0883 c -1.61021,4.69288 -7.02824,8.29183 -11.38117,7.69867 -3.83185,0.28189 -5.671,-10.06784 -4.52239,-14.90985 -0.52704,-4.25689 -6.09424,-8.48307 -6.4021,-12.37375 -0.47529,-9.80101 -7.1614,-12.84884 -3.16776,-17.28147 2.6428,-6.06664 3.70963,-11.89144 0.61863,-17.61402 -5.75305,-10.65101 2.99234,-13.15781 4.26725,-17.32055 0.70866,-5.97605 6.51199,-10.59998 3.5094,-15.72996 -2.09131,-4.60202 2.23931,-8.2501 6.34749,-9.29165 5.62551,-1.53809 4.00595,-6.91724 2.82951,-10.96635 -0.0244,-0.66149 0.006,-1.32373 0.0757,-1.98152"
       id="path570"
       sodipodi:nodetypes="cccccscccca" /><g
       id="g575"
       inkscape:export-filename="..\Binary\Data\Sprites\Map\Map1\PicMountain.svg"
       inkscape:export-xdpi="20.716784"
       inkscape:export-ydpi="20.716784"
       transform="matrix(-1,0,0,1,130.55328,-51.70893)"
       style="opacity:1"><path
         style="fill:url(#linearGradient664);fill-rule:evenodd;stroke:#393939;stroke-width:0.282222px;stroke-linecap:butt;stroke-linejoin:miter;stroke-opacity:1"
         d="m 79.214694,118.00925 1.975556,-13.12333 2.54,9.03111 0.987778,-3.10444 1.552222,7.33777 z"
         id="path571" /><path
         style="fill:url(#linearGradient665);fill-rule:evenodd;stroke:#393939;stroke-width:0.282222px;stroke-linecap:butt;stroke-linejoin:miter;stroke-opacity:1"
         d="m 73.983555,125.78331 0.987778,-3.66889 1.128889,1.83445 1.975555,-12.55889 4.656667,13.68777 -4.092222,2.25778 z"
         id="path572" /><path
         style="fill:url(#linearGradient666);fill-rule:evenodd;stroke:#393939;stroke-width:0.282222px;stroke-linecap:butt;stroke-linejoin:miter;stroke-opacity:1"
         d="m 88.102445,131.99685 -2.116667,-15.24 -0.846667,2.82222 -0.987777,-6.49111 -2.398889,13.26445 -1.975556,4.93889 4.938889,1.27 z"
         id="path573" /><path
         style="fill:url(#linearGradient667);fill-rule:evenodd;stroke:#393939;stroke-width:0.282222px;stroke-linecap:butt;stroke-linejoin:miter;stroke-opacity:1"
         d="m 74.869832,137.6413 1.975556,-13.12333 2.54,9.03111 0.987778,-3.10444 1.552222,7.33777 z"
         id="path574" /><path
         style="fill:url(#linearGradient668);fill-rule:evenodd;stroke:#393939;stroke-width:0.282222;stroke-linecap:butt;stroke-linejoin:miter;stroke-dasharray:none;stroke-opacity:1"
         d="m 79.234751,143.72204 2.116667,-15.24 0.846667,2.82222 0.987777,-6.49111 2.398889,13.26445 1.975556,4.93889 -4.938889,1.27 z"
         id="path575" /></g><g
       id="g817"
       inkscape:export-filename="..\Binary\Data\Sprites\Map\Map1\PicMountain.svg"
       inkscape:export-xdpi="20.716784"
       inkscape:export-ydpi="20.716784"
       transform="translate(-40.860798,-24.80643)"
       style="opacity:1"><path
         style="fill:url(#linearGradient817);fill-rule:evenodd;stroke:#393939;stroke-width:0.282222px;stroke-linecap:butt;stroke-linejoin:miter;stroke-opacity:1"
         d="m 79.214694,118.00925 1.975556,-13.12333 2.54,9.03111 0.987778,-3.10444 1.552222,7.33777 z"
         id="path813" /><path
         style="fill:url(#linearGradient818);fill-rule:evenodd;stroke:#393939;stroke-width:0.282222px;stroke-linecap:butt;stroke-linejoin:miter;stroke-opacity:1"
         d="m 73.983555,125.78331 0.987778,-3.66889 1.128889,1.83445 1.975555,-12.55889 4.656667,13.68777 -4.092222,2.25778 z"
         id="path814" /><path
         style="fill:url(#linearGradient819);fill-rule:evenodd;stroke:#393939;stroke-width:0.282222px;stroke-linecap:butt;stroke-linejoin:miter;stroke-opacity:1"
         d="m 88.102445,131.99685 -2.116667,-15.24 -0.846667,2.82222 -0.987777,-6.49111 -2.398889,13.26445 -1.975556,4.93889 4.938889,1.27 z"
         id="path815" /><path
         style="fill:url(#linearGradient820);fill-rule:evenodd;stroke:#393939;stroke-width:0.282222px;stroke-linecap:butt;stroke-linejoin:miter;stroke-opacity:1"
         d="m 74.869832,137.6413 1.975556,-13.12333 2.54,9.03111 0.987778,-3.10444 1.552222,7.33777 z"
         id="path816" /><path
         style="fill:url(#linearGradient821);fill-rule:evenodd;stroke:#393939;stroke-width:0.282222;stroke-linecap:butt;stroke-linejoin:miter;stroke-dasharray:none;stroke-opacity:1"
         d="m 79.234751,143.72204 2.116667,-15.24 0.846667,2.82222 0.987777,-6.49111 2.398889,13.26445 1.975556,4.93889 -4.938889,1.27 z"
         id="path817" /></g><g
       id="g825"
       inkscape:export-filename="..\Binary\Data\Sprites\Map\Map1\PicMountain.svg"
       inkscape:export-xdpi="20.716784"
       inkscape:export-ydpi="20.716784"
       transform="translate(-26.89151,-12.83275)"
       style="opacity:1"><path
         style="fill:url(#linearGradient825);fill-rule:evenodd;stroke:#393939;stroke-width:0.282222px;stroke-linecap:butt;stroke-linejoin:miter;stroke-opacity:1"
         d="m 79.214694,118.00925 1.975556,-13.12333 2.54,9.03111 0.987778,-3.10444 1.552222,7.33777 z"
         id="path821" /><path
         style="fill:url(#linearGradient826);fill-rule:evenodd;stroke:#393939;stroke-width:0.282222px;stroke-linecap:butt;stroke-linejoin:miter;stroke-opacity:1"
         d="m 73.983555,125.78331 0.987778,-3.66889 1.128889,1.83445 1.975555,-12.55889 4.656667,13.68777 -4.092222,2.25778 z"
         id="path822" /><path
         style="fill:url(#linearGradient827);fill-rule:evenodd;stroke:#393939;stroke-width:0.282222px;stroke-linecap:butt;stroke-linejoin:miter;stroke-opacity:1"
         d="m 88.102445,131.99685 -2.116667,-15.24 -0.846667,2.82222 -0.987777,-6.49111 -2.398889,13.26445 -1.975556,4.93889 4.938889,1.27 z"
         id="path823" /><path
         style="fill:url(#linearGradient828);fill-rule:evenodd;stroke:#393939;stroke-width:0.282222px;stroke-linecap:butt;stroke-linejoin:miter;stroke-opacity:1"
         d="m 74.869832,137.6413 1.975556,-13.12333 2.54,9.03111 0.987778,-3.10444 1.552222,7.33777 z"
         id="path824" /><path
         style="fill:url(#linearGradient829);fill-rule:evenodd;stroke:#393939;stroke-width:0.282222;stroke-linecap:butt;stroke-linejoin:miter;stroke-dasharray:none;stroke-opacity:1"
         d="m 79.234751,143.72204 2.116667,-15.24 0.846667,2.82222 0.987777,-6.49111 2.398889,13.26445 1.975556,4.93889 -4.938889,1.27 z"
         id="path825" /></g><g
       id="g842"
       inkscape:export-filename="..\Binary\Data\Sprites\Map\Map1\PicMountain.svg"
       inkscape:export-xdpi="20.716784"
       inkscape:export-ydpi="20.716784"
       transform="translate(67.071048,-72.139539)"
       style="opacity:1"><path
         style="fill:url(#linearGradient842);fill-rule:evenodd;stroke:#393939;stroke-width:0.282222px;stroke-linecap:butt;stroke-linejoin:miter;stroke-opacity:1"
         d="m 79.214694,118.00925 1.975556,-13.12333 2.54,9.03111 0.987778,-3.10444 1.552222,7.33777 z"
         id="path838" /><path
         style="fill:url(#linearGradient843);fill-rule:evenodd;stroke:#393939;stroke-width:0.282222px;stroke-linecap:butt;stroke-linejoin:miter;stroke-opacity:1"
         d="m 73.983555,125.78331 0.987778,-3.66889 1.128889,1.83445 1.975555,-12.55889 4.656667,13.68777 -4.092222,2.25778 z"
         id="path839" /><path
         style="fill:url(#linearGradient844);fill-rule:evenodd;stroke:#393939;stroke-width:0.282222px;stroke-linecap:butt;stroke-linejoin:miter;stroke-opacity:1"
         d="m 88.102445,131.99685 -2.116667,-15.24 -0.846667,2.82222 -0.987777,-6.49111 -2.398889,13.26445 -1.975556,4.93889 4.938889,1.27 z"
         id="path840" /><path
         style="fill:url(#linearGradient845);fill-rule:evenodd;stroke:#393939;stroke-width:0.282222px;stroke-linecap:butt;stroke-linejoin:miter;stroke-opacity:1"
         d="m 74.869832,137.6413 1.975556,-13.12333 2.54,9.03111 0.987778,-3.10444 1.552222,7.33777 z"
         id="path841" /><path
         style="fill:url(#linearGradient846);fill-rule:evenodd;stroke:#393939;stroke-width:0.282222;stroke-linecap:butt;stroke-linejoin:miter;stroke-dasharray:none;stroke-opacity:1"
         d="m 79.234751,143.72204 2.116667,-15.24 0.846667,2.82222 0.987777,-6.49111 2.398889,13.26445 1.975556,4.93889 -4.938889,1.27 z"
         id="path842" /></g></g></svg>
