<?xml version="1.0" encoding="UTF-8" standalone="no"?>
<!-- Created with Inkscape (http://www.inkscape.org/) -->

<svg
   width="649.87543"
   height="600.68115"
   viewBox="0 0 183.40929 169.52557"
   version="1.1"
   id="svg1"
   inkscape:version="1.3 (0e150ed6c4, 2023-07-21)"
   sodipodi:docname="GameMap.svg"
   xml:space="preserve"
   xmlns:inkscape="http://www.inkscape.org/namespaces/inkscape"
   xmlns:sodipodi="http://sodipodi.sourceforge.net/DTD/sodipodi-0.dtd"
   xmlns="http://www.w3.org/2000/svg"
   xmlns:svg="http://www.w3.org/2000/svg"
   xmlns:rdf="http://www.w3.org/1999/02/22-rdf-syntax-ns#"
   xmlns:cc="http://creativecommons.org/ns#"
   xmlns:dc="http://purl.org/dc/elements/1.1/"><metadata
     id="metadata585"><rdf:RDF><cc:Work
         rdf:about=""><dc:format>image/svg+xml</dc:format><dc:type
           rdf:resource="http://purl.org/dc/dcmitype/StillImage" /></cc:Work></rdf:RDF></metadata><sodipodi:namedview
     id="namedview1"
     pagecolor="#505050"
     bordercolor="#eeeeee"
     borderopacity="1"
     inkscape:showpageshadow="0"
     inkscape:pageopacity="1"
     inkscape:pagecheckerboard="0"
     inkscape:deskcolor="#d1d1d1"
     inkscape:document-units="px"
     inkscape:zoom="0.35355339"
     inkscape:cx="346.48232"
     inkscape:cy="-19.79899"
     inkscape:window-width="1280"
     inkscape:window-height="961"
     inkscape:window-x="-8"
     inkscape:window-y="-8"
     inkscape:window-maximized="1"
     inkscape:current-layer="layer1"
     showgrid="false"
     units="px" /><defs
     id="defs1" /><g
     inkscape:label="Layer 1"
     inkscape:groupmode="layer"
     id="layer1"
     transform="translate(-10.316938,-2.2228835)"><path
       style="fill:none;fill-opacity:1;fill-rule:evenodd;stroke:#8ef6eb;stroke-width:0.762;stroke-linecap:butt;stroke-linejoin:miter;stroke-dasharray:none;stroke-opacity:1"
       d="m 13.49341,45.58865 c -1.342823,10.940033 9.752729,17.146902 10.274722,23.48323 0.59237,7.190612 -10.751075,10.48975 -12.804472,37.64289 -1.49142,7.12006 3.8101,12.47078 3.10023,19.25088 0.52942,6.1772 4.04838,10.32883 7.70461,13.32738 5.45881,1.58826 9.97865,6.22944 8.41896,12.79632 0.44787,4.89873 1.70934,9.89497 3.92453,14.31807 5.13877,3.45928 9.83755,-1.31028 13.12242,-4.76139 0.35225,-0.35747 8.14751,-8.00388 22.80193,0.006 7.6786,4.19712 17.20929,-0.0609 25.80452,-0.0211 5.71856,4.108 11.12062,14.54673 17.63681,7.1631 3.65792,-2.87873 6.21251,-0.69155 9.79937,-3.3068 6.48887,-4.73117 12.40412,-1.95129 19.96275,-7.43788 6.0666,-4.40359 13.17155,-7.98097 13.24985,-15.51656 0.89215,-8.40342 -0.78223,-17.93187 8.35074,-20.78498 4.04598,-6.38252 5.45227,-15.07386 8.11102,-22.22604 1.59929,-7.97912 11.80581,-1.68708 13.09968,-10.96665 3.13613,-7.48116 6.69618,-16.14949 6.82999,-25.06205 1.60378,-6.72196 -1.01341,-10.88897 -7.24271,-9.30893 -4.55961,0.63634 -8.41042,-0.48546 -11.53415,-3.58157 -6.36139,-3.70163 -17.5528,-1.31681 -16.74797,-12.54827 2.22947,-9.57156 -4.99204,-18.85046 -11.91184,-20.87962 -7.98705,-2.34179 -11.64262,-8.6525399 -16.53452,-13.1320699 -5.84162,-2.37274 -13.45943,-1.40237 -19.83607,0.0585 -8.0805,-0.13241 -16.41831,-2.1468 -24.25598,-0.0585 -4.13984,1.10297 -8.5796,-0.55994 -12.14629,2.33711 -4.43743,3.6672099 -18.41036,-1.08516 -23.94217,-0.65842 -3.72423,1.43873 -12.27471,-1.90425 -16.23818,-1.13063 -5.4869,1.07098 -5.73931,4.39075 -8.98451,9.2381299 -2.66365,2.96513 -11.19161,2.22703 -12.20834,5.90326 -1.51723,7.09959 2.31026,12.55282 3.29739,19.33294 z"
       id="path837"
       inkscape:export-filename="..\..\Binary\Data\Sprites\Map\Map1FW.svg"
       inkscape:export-xdpi="96"
       inkscape:export-ydpi="96"
       sodipodi:nodetypes="csccccccsccssccccccccsccsccscccc" /></g></svg>
