<?xml version="1.0" encoding="UTF-8" standalone="no"?>
<!-- Created with Inkscape (http://www.inkscape.org/) -->

<svg
   width="169.43579"
   height="199.02356"
   viewBox="0 0 47.818546 56.168872"
   version="1.1"
   id="svg1"
   inkscape:version="1.3 (0e150ed6c4, 2023-07-21)"
   sodipodi:docname="GameMap.svg"
   xml:space="preserve"
   xmlns:inkscape="http://www.inkscape.org/namespaces/inkscape"
   xmlns:sodipodi="http://sodipodi.sourceforge.net/DTD/sodipodi-0.dtd"
   xmlns="http://www.w3.org/2000/svg"
   xmlns:svg="http://www.w3.org/2000/svg"
   xmlns:rdf="http://www.w3.org/1999/02/22-rdf-syntax-ns#"
   xmlns:cc="http://creativecommons.org/ns#"
   xmlns:dc="http://purl.org/dc/elements/1.1/"><metadata
     id="metadata585"><rdf:RDF><cc:Work
         rdf:about=""><dc:format>image/svg+xml</dc:format><dc:type
           rdf:resource="http://purl.org/dc/dcmitype/StillImage" /></cc:Work></rdf:RDF></metadata><sodipodi:namedview
     id="namedview1"
     pagecolor="#505050"
     bordercolor="#eeeeee"
     borderopacity="1"
     inkscape:showpageshadow="0"
     inkscape:pageopacity="1"
     inkscape:pagecheckerboard="0"
     inkscape:deskcolor="#d1d1d1"
     inkscape:document-units="px"
     inkscape:zoom="0.35355339"
     inkscape:cx="401.63665"
     inkscape:cy="138.59293"
     inkscape:window-width="1280"
     inkscape:window-height="961"
     inkscape:window-x="-8"
     inkscape:window-y="-8"
     inkscape:window-maximized="1"
     inkscape:current-layer="layer1"
     showgrid="false"
     units="px" /><defs
     id="defs1" /><g
     inkscape:label="Layer 1"
     inkscape:groupmode="layer"
     id="layer1"
     transform="translate(-212.31551,-40.59079)"><path
       style="fill:#ccaf5b;fill-opacity:1;fill-rule:evenodd;stroke:#836d2b;stroke-width:1.13594;stroke-linecap:butt;stroke-linejoin:miter;stroke-dasharray:none;stroke-opacity:1"
       d="m 245.95403,45.18929 c -3.0371,-1.289133 -6.39509,-5.305146 -9.24548,-3.632154 -2.46733,1.448165 -4.11722,0.192222 -5.94352,0 -1.96927,-0.446759 -3.44917,1.14132 -5.32441,0.928675 -1.70849,0.158592 -2.58355,2.015831 -3.41289,3.111058 -0.43928,1.635195 -1.87905,3.031393 -3.69532,2.564184 -1.35489,0.13416 -2.85383,-0.333367 -4.07718,0.330196 -0.95676,1.53933 0.3624,2.946858 1.31691,3.930842 -0.66522,-1.373793 1.51018,1.485544 0.98446,2.392724 0.17638,1.670102 -0.0823,2.646594 -0.98619,4.43763 -1.16084,2.30013 0.0169,5.155068 0.006,7.729774 -1.13619,1.713009 -4.02334,3.331199 -1.98117,5.283134 0.7962,1.095737 0.19127,1.86097 0.91459,2.935417 1.30855,1.943751 0.53969,3.715672 2.05717,5.979872 1.21794,1.817258 2.20738,3.945558 4.29157,3.969018 2.32422,0.26724 4.95959,-0.23433 5.74871,2.50147 1.76528,1.21197 4.16913,1.63324 6.14728,2.42967 2.20686,0.47907 0.46661,3.53644 3.03315,3.92403 2.06914,0.93943 4.46663,2.00585 6.93166,2.04593 1.85916,0.48042 3.01168,-0.30357 2.57467,-2.16957 -0.176,-1.36583 0.13427,-2.51935 0.99059,-3.45506 1.0238,-1.90557 0.3642,-5.25797 3.4706,-5.01688 2.6473,0.66784 5.21366,-1.49538 5.77488,-3.568216 0.64778,-2.392532 2.39321,-3.487559 3.63216,-4.952938 0.65625,-1.749867 0.38786,-4.031793 -0.0162,-5.941923 0.0366,-2.420525 0.59376,-4.91813 0.0162,-7.265913 -0.30506,-1.240096 0.15486,-2.570031 -0.6464,-3.63844 -1.01428,-1.329236 -1.41712,-2.640484 -1.53515,-4.297547 -0.39793,-1.115603 -0.24605,-2.242217 -0.46002,-3.429483 -0.29621,-1.643603 1.10379,-3.034348 -0.2369,-4.006453 -0.8201,-0.797905 -2.74798,-1.160429 -3.76475,-1.464993 -1.96361,-0.454484 -2.88528,-1.619552 -4.76053,-1.323858 -0.62431,0.05666 -1.2052,-0.195501 -1.80409,-0.330196 z"
       id="path124"
       inkscape:export-filename="..\Binary\Data\Sprites\Map\MapCastleFW.svg"
       inkscape:export-xdpi="96"
       inkscape:export-ydpi="96"
       sodipodi:nodetypes="cscccccccsccssccccccccsccsccsccccc" /></g></svg>
