<?xml version="1.0" encoding="UTF-8" standalone="no"?>
<!-- Created with Inkscape (http://www.inkscape.org/) -->

<svg
   width="287.14417"
   height="337.73874"
   viewBox="0 0 81.038466 95.317379"
   version="1.1"
   id="svg1"
   inkscape:version="1.3.2 (091e20ef0f, 2023-11-25)"
   sodipodi:docname="GameMap.svg"
   xml:space="preserve"
   xmlns:inkscape="http://www.inkscape.org/namespaces/inkscape"
   xmlns:sodipodi="http://sodipodi.sourceforge.net/DTD/sodipodi-0.dtd"
   xmlns="http://www.w3.org/2000/svg"
   xmlns:svg="http://www.w3.org/2000/svg"
   xmlns:rdf="http://www.w3.org/1999/02/22-rdf-syntax-ns#"
   xmlns:cc="http://creativecommons.org/ns#"
   xmlns:dc="http://purl.org/dc/elements/1.1/"><metadata
     id="metadata585"><rdf:RDF><cc:Work
         rdf:about=""><dc:format>image/svg+xml</dc:format><dc:type
           rdf:resource="http://purl.org/dc/dcmitype/StillImage" /></cc:Work></rdf:RDF></metadata><sodipodi:namedview
     id="namedview1"
     pagecolor="#505050"
     bordercolor="#eeeeee"
     borderopacity="1"
     inkscape:showpageshadow="0"
     inkscape:pageopacity="1"
     inkscape:pagecheckerboard="0"
     inkscape:deskcolor="#d1d1d1"
     inkscape:document-units="px"
     inkscape:zoom="0.35355339"
     inkscape:cx="-110.30866"
     inkscape:cy="384.66609"
     inkscape:window-width="1366"
     inkscape:window-height="706"
     inkscape:window-x="-8"
     inkscape:window-y="-8"
     inkscape:window-maximized="1"
     inkscape:current-layer="layer1"
     showgrid="false"
     units="px" /><defs
     id="defs1" /><g
     inkscape:label="Layer 1"
     inkscape:groupmode="layer"
     id="layer1"
     transform="translate(-205.31351,-12.833601)"><path
       style="fill:#ccaf5b;fill-opacity:1;fill-rule:evenodd;stroke:#836d2b;stroke-width:1.24267;stroke-linecap:butt;stroke-linejoin:miter;stroke-dasharray:none;stroke-opacity:1"
       d="m 262.46667,20.346661 c -5.19169,-2.203675 -10.93193,-9.068739 -15.80444,-6.208889 -4.21772,2.475527 -7.03808,0.328589 -10.16,0 -3.36631,-0.7637 -5.89609,1.951 -9.10167,1.5875 -2.92053,0.2711 -4.41637,3.445908 -5.83406,5.318113 -0.75092,2.795241 -3.2121,5.181934 -6.31687,4.383276 -2.31608,0.229335 -4.87841,-0.569865 -6.96962,0.564444 -1.63552,2.631367 0.61949,5.037427 2.25115,6.719472 -1.13714,-2.348394 2.58154,2.539424 1.68285,4.090178 0.30151,2.85491 -0.14065,4.524149 -1.68581,7.585787 -1.98437,3.931894 0.0288,8.812191 0.01,13.213453 -1.94223,2.928257 -6.87758,5.694429 -3.38666,9.031112 1.36104,1.873077 0.32696,3.181184 1.56343,5.017869 2.23686,3.322693 0.92255,6.351655 3.51657,10.222131 2.08198,3.106468 3.77334,6.744628 7.33611,6.784724 3.97307,0.456834 8.47804,-0.400555 9.82697,4.276084 3.01761,2.071771 7.12681,2.79189 10.5083,4.153326 3.77247,0.81893 0.79764,6.045279 5.18495,6.707819 3.53703,1.60589 7.63535,3.42885 11.84914,3.49737 3.17809,0.82123 5.14822,-0.51893 4.40119,-3.70871 -0.30086,-2.33479 0.22952,-4.306635 1.69334,-5.906168 1.7501,-3.257421 0.62257,-8.988087 5.93272,-8.575972 4.52536,1.141619 8.91235,-2.55623 9.87172,-6.099584 1.10733,-4.089849 4.091,-5.961714 6.20889,-8.466667 1.12181,-2.991263 0.66303,-6.89204 -0.0277,-10.15726 0.0626,-4.137701 1.01499,-8.407165 0.0277,-12.420518 -0.52148,-2.119849 0.26473,-4.39327 -1.10497,-6.219633 -1.73383,-2.272227 -2.42246,-4.513705 -2.62422,-7.346327 -0.68022,-1.907037 -0.4206,-3.832896 -0.78636,-5.862436 -0.50635,-2.809613 1.88683,-5.186985 -0.40497,-6.848724 -1.40189,-1.363957 -4.69746,-1.983664 -6.43555,-2.504292 -3.35663,-0.776906 -4.93217,-2.7685 -8.13776,-2.263034 -1.0672,0.09686 -2.0602,-0.334193 -3.08395,-0.564444 z"
       id="path124"
       inkscape:export-filename="..\Binary\Data\Sprites\Map\MapCastleFW.svg"
       inkscape:export-xdpi="96"
       inkscape:export-ydpi="96"
       sodipodi:nodetypes="cscccccccsccssccccccccsccsccsccccc" /></g></svg>
