<?xml version="1.0" encoding="UTF-8" standalone="no"?>
<!-- Created with Inkscape (http://www.inkscape.org/) -->

<svg
   width="140.91077"
   height="122.15869"
   viewBox="0 0 39.76815 34.475898"
   version="1.1"
   id="svg1"
   inkscape:version="1.3.2 (091e20ef0f, 2023-11-25)"
   sodipodi:docname="GameMap.svg"
   xml:space="preserve"
   xmlns:inkscape="http://www.inkscape.org/namespaces/inkscape"
   xmlns:sodipodi="http://sodipodi.sourceforge.net/DTD/sodipodi-0.dtd"
   xmlns:xlink="http://www.w3.org/1999/xlink"
   xmlns="http://www.w3.org/2000/svg"
   xmlns:svg="http://www.w3.org/2000/svg"
   xmlns:rdf="http://www.w3.org/1999/02/22-rdf-syntax-ns#"
   xmlns:cc="http://creativecommons.org/ns#"
   xmlns:dc="http://purl.org/dc/elements/1.1/"><metadata
     id="metadata585"><rdf:RDF><cc:Work
         rdf:about=""><dc:format>image/svg+xml</dc:format><dc:type
           rdf:resource="http://purl.org/dc/dcmitype/StillImage" /></cc:Work></rdf:RDF></metadata><sodipodi:namedview
     id="namedview1"
     pagecolor="#505050"
     bordercolor="#eeeeee"
     borderopacity="1"
     inkscape:showpageshadow="0"
     inkscape:pageopacity="1"
     inkscape:pagecheckerboard="0"
     inkscape:deskcolor="#d1d1d1"
     inkscape:document-units="px"
     inkscape:zoom="0.70710678"
     inkscape:cx="289.20667"
     inkscape:cy="278.60007"
     inkscape:window-width="1366"
     inkscape:window-height="706"
     inkscape:window-x="-8"
     inkscape:window-y="-8"
     inkscape:window-maximized="1"
     inkscape:current-layer="layer1"
     showgrid="false"
     units="px" /><defs
     id="defs1"><linearGradient
       id="linearGradient127"
       inkscape:collect="always"><stop
         style="stop-color:#e69b41;stop-opacity:1;"
         offset="0.30708435"
         id="stop127" /><stop
         style="stop-color:#85c42b;stop-opacity:1;"
         offset="0.64847457"
         id="stop6" /><stop
         style="stop-color:#c4a54a;stop-opacity:1;"
         offset="0.99662161"
         id="stop128" /></linearGradient><linearGradient
       inkscape:collect="always"
       xlink:href="#linearGradient127"
       id="linearGradient128"
       x1="91.291115"
       y1="21.427382"
       x2="91.427414"
       y2="54.165161"
       gradientUnits="userSpaceOnUse"
       gradientTransform="translate(-4.5155556,2.8222223)" /></defs><g
     inkscape:label="Layer 1"
     inkscape:groupmode="layer"
     id="layer1"
     transform="translate(-122.56651,-92.651497)"><g
       id="g1"
       transform="translate(52.724284,69.835402)"><path
         style="fill:url(#linearGradient128);fill-opacity:1;fill-rule:evenodd;stroke:#000000;stroke-width:0.536222;stroke-linecap:butt;stroke-linejoin:miter;stroke-dasharray:none;stroke-opacity:0.377953"
         d="m 70.273335,53.366661 7.055556,-9.031111 3.951111,-12.135556 3.951111,-8.748889 3.386667,7.055556 7.055554,-5.362223 c 0,0 4.32481,7.42044 4.889246,8.549329 0.56445,1.128888 1.25703,6.92741 1.25703,6.92741 l 5.03158,6.426786 2.41037,8.595065 c 0,0 -5.76061,0.290048 -9.970465,0.852719 -4.209856,0.562672 -10.955558,-0.165753 -11.520002,0.257581 -1.128889,0.846667 -10.442222,-0.564444 -10.442222,-0.564444 z"
         id="path126"
         sodipodi:nodetypes="ccccccscccsscc" /><path
         style="fill:none;fill-rule:evenodd;stroke:#7f6d39;stroke-width:0.395111;stroke-linecap:butt;stroke-linejoin:miter;stroke-dasharray:none;stroke-opacity:1"
         d="m 88.56789,30.472421 4.283223,11.040907 2.257778,3.104444"
         id="path128"
         sodipodi:nodetypes="ccc" /><path
         style="fill:none;fill-rule:evenodd;stroke:#7f6d39;stroke-width:0.451556;stroke-linecap:butt;stroke-linejoin:miter;stroke-dasharray:none;stroke-opacity:1"
         d="m 88.879109,42.573321 c 0,0 -3.29276,2.993418 -3.093198,3.592102 0.199562,0.598683 -0.399121,3.891443 -0.399121,4.49013"
         id="path129"
         sodipodi:nodetypes="csc" /><path
         style="fill:#ffffff;fill-opacity:1;fill-rule:evenodd;stroke:#c6c6c6;stroke-width:0.282222px;stroke-linecap:butt;stroke-linejoin:miter;stroke-opacity:1"
         d="m 82.842381,28.753705 2.394738,-5.487936 2.743965,5.887058 -0.598684,1.5466 -1.396927,-1.147479 c 0,0 -0.798245,1.347038 -1.047696,1.696271 -0.249453,0.349234 -1.845942,1.297147 -1.845942,1.297147 l -0.199562,-1.89583 -0.498904,0.04989 z"
         id="path130"
         sodipodi:nodetypes="cccccscccc" /><path
         style="fill:#ffffff;fill-opacity:1;fill-rule:evenodd;stroke:#c6c6c6;stroke-width:0.282222px;stroke-linecap:butt;stroke-linejoin:miter;stroke-opacity:1"
         d="m 89.677355,33.04427 -0.997805,-2.694076 7.084424,-5.338265 4.340456,7.733 -1.546596,0.997808 -2.39474,-1.895834 -2.394733,3.04331 -1.147476,-1.147476 -1.197367,-2.045505 z"
         id="path131"
         sodipodi:nodetypes="cccccccccc" /><path
         style="fill:#045fb1;fill-opacity:0.997506;fill-rule:evenodd;stroke:#023461;stroke-width:0.282222px;stroke-linecap:butt;stroke-linejoin:miter;stroke-opacity:1"
         d="m 95.140828,44.291117 0.598683,1.197368 c 0,0 -0.449012,1.047696 -0.748354,1.446817 -0.299342,0.399125 -1.022751,1.147479 -1.022751,1.147479 l -2.344845,0.947915 -1.297149,1.197368 c 0,0 -0.473958,0.748356 -0.473958,0.997807 0,0.24945 0.04989,1.845942 0.04989,1.845942 0,0 -0.249454,0.498904 -0.698466,0.798246 -0.449013,0.299341 -1.74616,0.748354 -2.294955,1.197367 -0.548793,0.449013 -1.596489,1.459291 -1.696269,1.858413 -0.09978,0.399121 1.945722,0.112253 1.945722,0.112253 l 1.197367,-1.222311 2.394735,-0.798246 c 0,0 0.57609,-0.579484 0.62363,-0.773301 l 0.224506,-1.646379 -0.274396,-1.49671 1.521653,-1.247259 c 0,0 1.828878,-1.16932 2.170227,-1.5466 0.473959,-0.523847 0.522357,-0.712414 0.674255,-0.970351 l 0.323553,-1.299657 0.01107,-0.902304 -0.497131,-0.825697 -0.813894,-0.681345 z"
         id="path6"
         sodipodi:nodetypes="ccscccscssscccscccssccccc" /></g></g></svg>
