<?xml version="1.0" encoding="UTF-8" standalone="no"?>
<!-- Created with Inkscape (http://www.inkscape.org/) -->

<svg
   width="47.980129"
   height="73.165863"
   viewBox="0 0 12.694742 19.358468"
   version="1.1"
   id="svg1"
   xmlns:inkscape="http://www.inkscape.org/namespaces/inkscape"
   xmlns:sodipodi="http://sodipodi.sourceforge.net/DTD/sodipodi-0.dtd"
   xmlns="http://www.w3.org/2000/svg"
   xmlns:svg="http://www.w3.org/2000/svg">
  <sodipodi:namedview
     id="namedview1"
     pagecolor="#505050"
     bordercolor="#eeeeee"
     borderopacity="1"
     inkscape:showpageshadow="0"
     inkscape:pageopacity="0"
     inkscape:pagecheckerboard="0"
     inkscape:deskcolor="#1c1c1c"
     inkscape:document-units="px">
    <inkscape:page
       x="0"
       y="0"
       width="12.694742"
       height="19.358467"
       id="page2"
       margin="0"
       bleed="0" />
  </sodipodi:namedview>
  <defs
     id="defs1" />
  <g
     inkscape:label="Calque 1"
     inkscape:groupmode="layer"
     id="layer1"
     transform="translate(-82.814583,-82.549999)">
    <path
       style="fill:#5d3e26;stroke-width:0.264583"
       d="m 95.009288,101.44275 c -0.304535,0.20531 -0.67601,0.2913 -1.039019,0.33152 -0.231246,0.0257 -0.46355,0.0347 -0.695854,0.0423 -0.265906,0.009 -0.531283,0.0291 -0.79719,0.0357 -0.694266,0.0175 -1.386681,-0.0561 -2.080683,-0.0627 -0.651404,-0.006 -1.313921,0.0159 -1.935162,-0.21087 -0.0934,0.0685 -0.196321,0.12489 -0.305065,0.16457 -0.149754,0.0548 -0.336021,0.10134 -0.490537,0.0378 -0.198173,-0.0815 -0.211932,-0.32359 -0.205317,-0.5088 0.0019,-0.0495 0.0093,-0.0982 0.01561,-0.14684 -0.08202,0.17515 -0.184943,0.33655 -0.316177,0.46725 -0.186002,0.18548 -0.428096,0.28708 -0.688181,0.30877 -0.263525,0.022 -0.593196,-0.002 -0.812535,-0.1651 -0.216959,-0.16166 -0.2794,-0.46593 -0.308769,-0.72363 -0.04868,0.099 -0.103188,0.19553 -0.17145,0.28628 -0.178329,0.23733 -0.428096,0.42651 -0.711729,0.51832 -0.342371,0.11059 -0.720461,0.0294 -1.071563,0.01 -0.185473,-0.0103 -0.4953,-0.0124 -0.565944,-0.23099 -0.04207,-0.13017 0.01296,-0.29712 0.05054,-0.42201 0.05239,-0.17489 0.126471,-0.34237 0.193675,-0.51144 0.124883,-0.31406 0.265906,-0.61171 0.461169,-0.88926 0.06006,-0.08546 0.124354,-0.173302 0.193145,-0.258234 0.06456,-0.128058 0.06138,-0.289454 0.05159,-0.42836 -0.01429,-0.201612 -0.05768,-0.40005 -0.103187,-0.596371 -0.110596,-0.47625 -0.2032,-0.956998 -0.299244,-1.436423 -0.197379,-0.985837 -0.341842,-1.969558 -0.356658,-2.976562 -0.01482,-1.016794 0.06112,-2.032794 0.210873,-3.038211 0.148695,-0.99695 0.329935,-1.989137 0.607483,-2.958835 0.08176,-0.286015 0.170392,-0.569912 0.259821,-0.853281 0.01667,-0.191029 0.06694,-0.376238 0.135202,-0.555361 0.04445,-0.116416 0.09551,-0.230187 0.150283,-0.342106 0.09128,-0.269346 0.19685,-0.533664 0.354013,-0.772319 0.03175,-0.04815 0.08837,-0.0598 0.115093,-0.03995 0.01693,-0.02672 0.03334,-0.05345 0.05027,-0.08017 0.248709,-0.392377 0.498211,-0.784225 0.805127,-1.134534 0.589227,-0.672306 1.369484,-1.109662 2.205567,-1.403879 1.465792,-0.515937 3.214423,-0.541073 4.473046,0.484452 1.496218,1.218671 1.644121,3.260196 1.551252,5.04825 -0.05133,0.9906 -0.134409,1.982788 -0.216165,2.971271 -0.09604,1.16496 -0.174625,2.321983 0.110331,3.467894 0.27305,1.099079 0.756444,2.121958 1.151467,3.178704 0.08678,0.232304 0.165629,0.467783 0.235479,0.705644 0.09075,0.459581 0.231775,0.909902 0.276754,1.377951 0.0463,0.48101 -0.01879,0.99272 -0.45667,1.27608 -0.01402,0.01 -0.02355,0.0212 -0.03069,0.0336 z"
       id="path73" />
    <path
       style="fill:#adafb2;stroke-width:0.264583"
       d="m 85.401738,99.567908 c -5.29e-4,-7.93e-4 -0.0011,-7.93e-4 -0.0016,-0.0016 -0.102659,-0.216958 -0.399521,-0.332581 -0.614628,-0.397404 -0.292629,-0.08784 -0.556418,-0.0087 -0.772318,0.202671 -0.0635,0.06244 -0.121709,0.127793 -0.177536,0.194468 -0.01323,0.02143 -0.02566,0.04313 -0.04207,0.06297 -0.0079,0.0098 -0.01746,0.01746 -0.02725,0.02408 -0.274637,0.356397 -0.459052,0.765177 -0.628385,1.187717 -0.0598,0.14896 -0.118269,0.30136 -0.148696,0.45932 -0.02037,0.10583 -0.03519,0.21669 0.06244,0.28707 0.08123,0.0585 0.195792,0.0706 0.292364,0.0791 0.142875,0.0127 0.286809,0.0177 0.429948,0.0278 0.29263,0.0209 0.5715,0.0571 0.846138,-0.0712 0.260879,-0.12198 0.457994,-0.33867 0.589756,-0.59135 0.05424,-0.10398 0.09287,-0.21272 0.124354,-0.32385 0.0032,-0.17303 0.03016,-0.3466 0.09604,-0.50482 0.02831,-0.219078 0.05186,-0.432067 -0.02858,-0.635003 z"
       id="path74" />
    <path
       style="fill:#adafb2;stroke-width:0.264583"
       d="m 83.217603,101.17949 c 0.05371,-0.23072 0.139964,-0.45297 0.23151,-0.67099 0.08387,-0.19976 0.163248,-0.40402 0.262467,-0.596633 0.136525,-0.265377 0.318029,-0.523346 0.550333,-0.713317 -0.08837,0.04022 -0.171715,0.0979 -0.248708,0.173302 -0.0635,0.06244 -0.121709,0.127529 -0.177536,0.194469 -0.01323,0.02143 -0.02566,0.04313 -0.04207,0.06297 -0.0079,0.0098 -0.01746,0.01746 -0.02725,0.02408 -0.274637,0.356389 -0.459052,0.765169 -0.628385,1.187709 -0.0598,0.14896 -0.118269,0.30136 -0.148696,0.45932 -0.02037,0.10583 -0.03519,0.21669 0.06244,0.28707 0.03625,0.0262 0.0799,0.0421 0.124883,0.0534 -0.01587,-0.15319 0.0061,-0.31089 0.04101,-0.46143 z"
       id="path75" />
    <path
       style="fill:#adafb2;stroke-width:0.264583"
       d="m 85.401738,99.567908 c -5.29e-4,-7.93e-4 -0.0011,-7.93e-4 -0.0016,-0.0016 -0.102659,-0.216958 -0.399521,-0.332581 -0.614628,-0.397404 -0.283104,-0.0852 -0.538956,-0.0127 -0.750887,0.183885 0.186267,-0.0098 0.370417,0.03757 0.523875,0.154781 0.229129,0.175155 0.351631,0.450586 0.39079,0.73052 0.06218,0.44529 -0.04816,0.90302 -0.220398,1.3253 0.207433,-0.12674 0.3683,-0.31592 0.481012,-0.53208 0.05424,-0.10398 0.09287,-0.21273 0.124354,-0.32385 0.0032,-0.17304 0.03016,-0.34687 0.09604,-0.50483 0.02831,-0.21881 0.05186,-0.431799 -0.02858,-0.634735 z"
       id="path76" />
    <path
       style="fill:#adafb2;stroke-width:0.264583"
       d="m 87.491946,99.727717 c -0.05477,-0.228865 -0.169598,-0.460375 -0.376766,-0.587111 -0.193411,-0.118533 -0.425715,-0.11377 -0.631032,-0.02937 -0.522816,0.214577 -0.797189,0.769673 -0.933979,1.285874 -0.0016,0.006 -0.0053,0.0111 -0.0085,0.0167 -0.01482,0.0812 -0.03307,0.16113 -0.0553,0.23971 -0.0011,0.12012 0.0098,0.24025 0.02778,0.35296 0.04233,0.2667 0.124883,0.54954 0.394494,0.6641 0.220133,0.0937 0.509323,0.10875 0.742685,0.0643 0.240242,-0.0458 0.428625,-0.18257 0.56224,-0.38577 0.296068,-0.45111 0.403489,-1.09802 0.278341,-1.621365 z"
       id="path77" />
    <path
       style="fill:#adafb2;stroke-width:0.264583"
       d="m 85.654944,101.27923 c 0.01587,-0.53366 0.161661,-1.04537 0.367242,-1.535109 0.07197,-0.17145 0.153458,-0.348721 0.250031,-0.516731 -0.386556,0.261408 -0.605102,0.728662 -0.722048,1.16972 -0.0016,0.006 -0.0053,0.0111 -0.0085,0.0167 -0.01482,0.0812 -0.03307,0.16113 -0.0553,0.23971 -0.0011,0.12012 0.0098,0.24025 0.02752,0.35296 0.02434,0.15319 0.06324,0.31062 0.141817,0.43947 -7.94e-4,-0.0556 -0.0024,-0.11112 -7.94e-4,-0.16669 z"
       id="path78" />
    <path
       style="fill:#adafb2;stroke-width:0.264583"
       d="m 87.491946,99.727717 c -0.05477,-0.229129 -0.169598,-0.460375 -0.376766,-0.587111 -0.193411,-0.118533 -0.425715,-0.11377 -0.631032,-0.02937 -0.0127,0.0053 -0.02328,0.01296 -0.03572,0.01852 0.06456,0.0172 0.127,0.04392 0.185208,0.08281 0.271198,0.18124 0.376502,0.529696 0.399785,0.839524 0.04419,0.58473 -0.180181,1.14194 -0.395022,1.6846 0.0042,-8e-4 0.0087,-8e-4 0.01296,-0.002 0.240242,-0.0458 0.428625,-0.18256 0.56224,-0.38576 0.296068,-0.45138 0.403489,-1.09829 0.278341,-1.62163 z"
       id="path79" />
    <path
       style="fill:#adafb2;stroke-width:0.264583"
       d="m 88.643942,101.20727 c 0.07594,-0.15267 0.08758,-0.31777 0.09657,-0.48498 0.0079,-0.14658 0.01296,-0.29554 -0.0063,-0.44133 -0.01773,-0.13335 -0.05821,-0.286808 -0.171979,-0.37121 -0.11774,-0.08705 -0.254,-0.05794 -0.363273,0.02567 -0.202406,0.15532 -0.344752,0.40852 -0.448469,0.64585 -0.07064,0.20637 -0.130704,0.41804 -0.135731,0.63633 -0.0042,0.18335 0.01667,0.40984 0.237331,0.43709 0.3048,0.0373 0.659607,-0.18099 0.791898,-0.44742 z"
       id="path80" />
    <path
       style="fill:#adafb2;stroke-width:0.264583"
       d="m 87.770817,100.95247 c 0.134409,-0.37094 0.302948,-0.73316 0.513556,-1.067855 -0.02963,0.01296 -0.05847,0.03043 -0.08546,0.05106 -0.202406,0.155315 -0.344752,0.408525 -0.448469,0.645855 -0.07064,0.20637 -0.130704,0.41804 -0.135731,0.63632 -0.0016,0.0622 7.94e-4,0.12912 0.01191,0.19182 0.04313,-0.15451 0.08969,-0.30744 0.144198,-0.4572 z"
       id="path81" />
    <path
       style="fill:#adafb2;stroke-width:0.264583"
       d="m 88.73443,100.28096 c -0.01773,-0.13335 -0.05821,-0.286808 -0.171979,-0.37121 -0.11774,-0.08705 -0.254,-0.05794 -0.363273,0.02567 -0.06165,0.04736 -0.117211,0.10452 -0.168275,0.16668 0.169598,0.009 0.322527,0.0971 0.405341,0.24792 0.08017,0.14578 0.100807,0.31908 0.101071,0.48313 2.65e-4,0.20029 -0.02805,0.40005 -0.07011,0.59716 0.07382,-0.0664 0.136525,-0.14182 0.176741,-0.22278 0.07594,-0.15266 0.08758,-0.31776 0.09657,-0.48497 0.0082,-0.14684 0.01323,-0.29555 -0.0061,-0.4416 z"
       id="path82" />
    <path
       style="fill:#eec792;stroke-width:0.264583"
       d="m 93.987203,101.62822 c 0.410897,-0.0415 0.867833,-0.13441 1.163902,-0.44635 0.116681,-0.12303 0.192616,-0.2712 0.238654,-0.42969 0.01243,-0.1217 0.01058,-0.24579 -0.0021,-0.37015 -0.02699,-0.26194 -0.09287,-0.518053 -0.140758,-0.776551 -0.04974,-0.269081 -0.110861,-0.533929 -0.189706,-0.796131 -0.156105,-0.519906 -0.363273,-1.02235 -0.568061,-1.524529 -0.404812,-0.992188 -0.808831,-2.007923 -0.956204,-3.076046 -0.154517,-1.121569 0.0074,-2.258219 0.08467,-3.378994 0.06271,-0.909902 0.155045,-1.820068 0.182827,-2.731822 0.02778,-0.919692 -0.01508,-1.862138 -0.309034,-2.741348 -0.270404,-0.809361 -0.772054,-1.543315 -1.483518,-2.02565 -1.319213,-0.894292 -3.066257,-0.742421 -4.47384,-0.150813 -0.387614,0.162719 -0.771789,0.3556 -1.110456,0.606161 -0.378354,0.279929 -0.690827,0.63447 -0.963877,1.016 -0.26035,0.364066 -0.501121,0.748241 -0.726281,1.135062 -0.07488,0.128323 -0.150284,0.261938 -0.21934,0.399521 -0.07038,0.211931 -0.130704,0.427831 -0.197115,0.636323 -0.02275,0.07117 -0.04392,0.14261 -0.06641,0.213783 0,5.29e-4 -2.65e-4,7.94e-4 -2.65e-4,0.0013 -5.29e-4,0.009 -0.004,0.01826 -0.0087,0.02752 -0.141552,0.449262 -0.278871,0.900112 -0.396081,1.356518 -0.251619,0.981605 -0.420423,1.996811 -0.540808,3.002492 -0.121973,1.018911 -0.163248,2.051315 -0.107157,3.07631 0.05583,1.021557 0.273579,2.023798 0.478102,3.023659 0.07329,0.357981 0.166159,0.715169 0.226219,1.075266 0.02831,0.169598 0.05371,0.363538 0.02858,0.543719 0.0807,-0.07673 0.167217,-0.145521 0.261938,-0.199496 0.243945,-0.13917 0.506677,-0.141023 0.76782,-0.05027 0.161925,0.05636 0.351103,0.138377 0.480748,0.267229 0.01641,-0.0032 0.03122,2.64e-4 0.03995,0.01429 0.02593,0.0418 0.04657,0.0844 0.06403,0.127 0.0019,0.0034 0.0042,0.0066 0.0058,0.01005 0.0021,0.0042 0.0013,0.009 0.0019,0.01349 0.04736,0.127265 0.06085,0.258233 0.05768,0.391848 0.220133,-0.44794 0.566473,-0.843756 1.062037,-0.951442 0.240506,-0.05212 0.487627,-2.64e-4 0.672571,0.165894 0.209815,0.188913 0.299773,0.47334 0.333375,0.745596 0.02302,0.185481 0.02011,0.386031 -0.0042,0.587111 0.01323,-0.0264 0.0344,-0.0519 0.06112,-0.0653 0.03995,-0.0696 0.0807,-0.13837 0.126471,-0.20373 0.115359,-0.164837 0.264319,-0.338404 0.457465,-0.412487 0.150812,-0.05768 0.320675,-0.0299 0.429154,0.09551 0.111125,0.128588 0.139435,0.311947 0.150019,0.475717 0.02381,0.36963 0.0053,0.79587 -0.241036,1.09273 -0.01429,0.0169 -0.03069,0.0318 -0.04604,0.0476 0.65405,0.22622 1.349904,0.17912 2.032,0.19447 0.659871,0.0148 1.318419,0.0804 1.979083,0.0582 0.453496,-0.0153 0.914136,-0.0241 1.364986,-0.0696 z"
       id="path83" />
    <path
       style="fill:#d5b18d;stroke-width:0.264583"
       d="m 84.167192,99.111238 c -0.0127,-0.07064 -0.02461,-0.141552 -0.0381,-0.211932 -0.07752,-0.403225 -0.182827,-0.803804 -0.242623,-1.210204 -0.229658,-1.5621 -0.345546,-3.147218 -0.257439,-4.725723 0.08652,-1.548606 0.226748,-3.106472 0.619125,-4.611422 0.172508,-0.661988 0.390789,-1.312863 0.694531,-1.926961 0.272521,-0.551127 0.608012,-1.069181 0.99404,-1.547283 0.57785,-0.715698 1.268147,-1.330325 2.020358,-1.856846 -0.143669,0.04895 -0.285486,0.101071 -0.423333,0.159015 -0.387615,0.162718 -0.77179,0.3556 -1.110457,0.60616 -0.378354,0.280194 -0.690827,0.634471 -0.963877,1.016 -0.26035,0.364067 -0.501121,0.748242 -0.726281,1.135063 -0.07488,0.128322 -0.150283,0.261937 -0.21934,0.39952 -0.07038,0.211932 -0.130704,0.427832 -0.197114,0.636323 -0.02275,0.07117 -0.04392,0.142611 -0.06641,0.213784 0,5.29e-4 -2.64e-4,7.93e-4 -2.64e-4,0.0013 -5.29e-4,0.009 -0.004,0.01826 -0.0087,0.02752 -0.141553,0.449263 -0.278871,0.900113 -0.396082,1.356519 -0.251618,0.981604 -0.420423,1.99681 -0.540808,3.002492 -0.121973,1.01891 -0.163248,2.051314 -0.107156,3.07631 0.05583,1.021556 0.273579,2.023798 0.478102,3.023658 0.07329,0.357981 0.166158,0.715169 0.226219,1.075267 0.02831,0.169598 0.05371,0.363537 0.02858,0.543719 0.07355,-0.06932 0.1524,-0.130969 0.237066,-0.182298 z"
       id="path84" />
    <path
       style="fill:#d5b18d;stroke-width:0.264583"
       d="m 84.758271,93.111546 c 0.04339,0.06826 0.09022,0.134408 0.143405,0.195792 0.297391,0.3429 0.765175,0.597693 1.22555,0.458258 0.254,-0.07699 0.474133,-0.25691 0.655372,-0.445294 0.148167,-0.154252 0.276755,-0.327025 0.382588,-0.512762 -0.175683,0.05292 -0.351367,0.104775 -0.528902,0.150812 -0.570177,0.148167 -1.270529,0.290513 -1.878013,0.153194 z"
       id="path85" />
    <path
       style="fill:#d5b18d;stroke-width:0.264583"
       d="m 95.387378,100.38203 c -0.02699,-0.26194 -0.09287,-0.518053 -0.140759,-0.776551 -0.04974,-0.269081 -0.11086,-0.533929 -0.189706,-0.796131 -0.156104,-0.519906 -0.363273,-1.02235 -0.56806,-1.524529 -0.404813,-0.992188 -0.808832,-2.007923 -0.956205,-3.076046 -0.154516,-1.121569 0.0074,-2.258219 0.08467,-3.378994 0.06271,-0.909902 0.155046,-1.820068 0.182827,-2.731822 0.02805,-0.919692 -0.01508,-1.862138 -0.309033,-2.741348 -0.270669,-0.809361 -0.772054,-1.543315 -1.483519,-2.02565 -1.319212,-0.894292 -3.066256,-0.742421 -4.473839,-0.151077 -0.387615,0.162718 -0.77179,0.3556 -1.110457,0.60616 -0.378354,0.280194 -0.690827,0.634471 -0.963877,1.016 -0.186796,0.261144 -0.360362,0.533929 -0.528373,0.809096 0.435769,-0.475721 0.925513,-0.918369 1.487223,-1.239308 0.4953,-0.28284 1.065213,-0.468313 1.639888,-0.382588 0.598223,0.08916 1.166812,0.490273 1.454679,1.021292 0.356658,0.658548 0.348191,1.464733 0.265377,2.188368 -0.09499,0.829734 -0.306123,1.640946 -0.526521,2.444486 -0.09234,0.336814 -0.188383,0.672835 -0.271198,1.012031 -0.126735,0.519642 -0.215106,1.050925 -0.293158,1.579827 -0.176742,1.195388 -0.252148,2.411942 -0.150283,3.617913 0.102922,1.217083 0.4445,2.397918 0.595577,3.608122 0,2.65e-4 2.64e-4,5.3e-4 2.64e-4,7.94e-4 0,0 0,0 -2.64e-4,0 7.93e-4,0.0066 0.0021,0.01323 0.0029,0.02011 0.01058,0.08572 -0.127529,0.09975 -0.147637,0.02011 -0.05159,-0.205317 -0.180975,-0.361156 -0.401109,-0.379677 -0.194733,-0.01667 -0.389731,0.05715 -0.55245,0.15875 -0.03307,0.02064 -0.08467,0.0085 -0.102923,-0.02699 -0.197908,-0.382852 -0.47625,-0.880268 -0.944033,-0.962818 -0.457994,-0.08096 -0.926835,0.245797 -1.280319,0.491066 -0.03254,0.02249 -0.08467,0.0069 -0.102923,-0.02699 -0.112712,-0.208227 -0.284691,-0.372269 -0.513821,-0.443442 -0.40296,-0.124619 -0.849312,0.02434 -1.193535,0.238919 -0.0098,0.0061 -0.01958,0.01349 -0.02937,0.01984 0.01164,0.05953 0.02355,0.119327 0.03334,0.179122 0.02831,0.169598 0.05371,0.363538 0.02858,0.543719 0.0807,-0.07673 0.167216,-0.145521 0.261937,-0.199496 0.243946,-0.13917 0.506677,-0.141023 0.767821,-0.05027 0.161925,0.05636 0.351102,0.138377 0.480748,0.267229 0.0164,-0.0032 0.03122,2.64e-4 0.03995,0.01429 0.02593,0.0418 0.04657,0.0844 0.06403,0.127 0.0019,0.0034 0.0042,0.0063 0.0058,0.01005 0.0021,0.0042 0.0013,0.009 0.0019,0.01349 0.04736,0.127265 0.06085,0.258233 0.05768,0.391848 0.220134,-0.44794 0.566473,-0.843756 1.062038,-0.951442 0.240506,-0.05212 0.487627,-2.64e-4 0.672571,0.165894 0.209814,0.188913 0.299773,0.47334 0.333375,0.745596 0.02302,0.185477 0.02011,0.386027 -0.0042,0.587107 0.01323,-0.0264 0.0344,-0.0519 0.06112,-0.0653 0.03995,-0.0696 0.0807,-0.13837 0.126471,-0.20373 0.115358,-0.164833 0.264319,-0.3384 0.457465,-0.412483 0.150812,-0.05768 0.320675,-0.0299 0.429154,0.09551 0.111125,0.128588 0.139435,0.311953 0.150018,0.475723 0.02381,0.36963 0.0053,0.79587 -0.241035,1.09273 -0.01402,0.0169 -0.03069,0.0318 -0.04577,0.0476 0.65405,0.22622 1.349904,0.17912 2.032,0.19447 0.659871,0.0148 1.318683,0.0804 1.979083,0.0582 0.452702,-0.0153 0.913342,-0.0241 1.364192,-0.0696 0.410898,-0.0415 0.867833,-0.13441 1.163902,-0.44635 0.116681,-0.12303 0.192617,-0.2712 0.238654,-0.42969 0.01376,-0.12197 0.01191,-0.24579 -7.93e-4,-0.37015 z"
       id="path86" />
    <path
       style="fill:#d5b18d;stroke-width:0.264583"
       d="m 95.387378,100.38203 c -0.02699,-0.26194 -0.09287,-0.518053 -0.140759,-0.776551 -0.04974,-0.269081 -0.11086,-0.533929 -0.189706,-0.796131 -0.156104,-0.519906 -0.363273,-1.02235 -0.56806,-1.524529 -0.404813,-0.992188 -0.808832,-2.007923 -0.956205,-3.076046 -0.154516,-1.121569 0.0074,-2.258219 0.08467,-3.378994 0.06271,-0.909902 0.155046,-1.820068 0.182827,-2.731822 0.02805,-0.919692 -0.01508,-1.862138 -0.309033,-2.741348 -0.254529,-0.761471 -0.716227,-1.453621 -1.36234,-1.934898 0.297921,0.368035 0.4953,0.816769 0.592931,1.293283 0.18759,0.916252 0.05477,1.856052 -0.124883,2.76225 -0.225689,1.137708 -0.563298,2.248694 -0.827617,3.377142 -0.264054,1.12686 -0.451643,2.281766 -0.370681,3.442758 0.08625,1.237721 0.504561,2.400565 0.867569,3.576108 0.280723,0.909373 0.798248,1.920081 0.379677,2.870728 -0.191029,0.43365 -0.555625,0.73316 -0.970227,0.9406 0.315648,0.0145 0.631296,0.0243 0.947473,0.0135 0.452702,-0.0153 0.913342,-0.0241 1.364192,-0.0696 0.410897,-0.0415 0.867833,-0.1344 1.163902,-0.44635 0.116681,-0.12303 0.192616,-0.2712 0.238654,-0.42968 0.01217,-0.12224 0.01032,-0.24606 -0.0024,-0.37042 z"
       id="path87" />
    <path
       style="opacity:0.22;fill:#a0785b;stroke-width:0.264583"
       d="m 92.784142,89.469557 c -0.209021,-0.0807 -0.457729,-0.16219 -0.685271,-0.138113 -0.251883,0.02646 -0.875506,0.184944 -0.943768,0.500856 -0.02963,0.03149 -0.05212,0.06879 -0.06191,0.1143 -0.02381,0.109538 0.02381,0.218811 0.0799,0.310357 0.07408,0.12065 0.163513,0.234156 0.248444,0.347397 0.161396,0.215371 0.343165,0.443442 0.589227,0.565944 0.237067,0.118004 0.47334,0.07541 0.696913,-0.05053 0.369887,-0.208492 0.948002,-0.6731 0.71702,-1.16205 -0.117739,-0.249502 -0.396081,-0.3937 -0.640556,-0.488156 z"
       id="path88" />
    <path
       style="opacity:0.3652;fill:#a0785b;stroke-width:0.264583"
       d="m 86.705076,90.423115 c -0.106098,-0.0336 -0.217753,-0.06032 -0.324909,-0.0164 -0.138641,0.05662 -0.197908,0.205846 -0.206639,0.346075 -0.0074,0.120385 0.02381,0.248179 0.08837,0.352425 0.02672,0.08758 0.07355,0.171979 0.148696,0.218546 0.08837,0.0545 0.186267,0.02064 0.272786,-0.02011 0.106891,-0.05053 0.205316,-0.121973 0.2921,-0.201877 0.07197,-0.06641 0.151077,-0.145256 0.181239,-0.241035 0.03519,-0.112184 -0.02434,-0.207963 -0.112448,-0.274109 -0.09922,-0.07514 -0.221191,-0.125941 -0.339195,-0.163512 z"
       id="path89" />
    <path
       style="opacity:0.22;fill:#a0785b;stroke-width:0.264583"
       d="m 90.331455,91.063407 c -0.109009,-0.04815 -0.234421,-0.06562 -0.341048,-0.0011 -0.124884,0.07541 -0.192882,0.2286 -0.236538,0.361156 -0.05424,0.164307 -0.08625,0.34925 -0.03704,0.518848 0.04498,0.155311 0.16166,0.233098 0.305064,0.250296 0.09313,0.04075 0.205581,0.02805 0.306917,7.94e-4 0.15875,-0.04313 0.309562,-0.1143 0.466196,-0.164306 0.07699,-0.02461 0.165893,-0.05186 0.211931,-0.123825 0.0463,-0.0725 0.03995,-0.173832 0.01058,-0.251354 -0.05503,-0.144728 -0.197114,-0.253471 -0.315383,-0.345546 -0.116417,-0.09128 -0.23495,-0.184944 -0.370681,-0.245004 z"
       id="path90" />
    <path
       style="opacity:0.204512;fill:#a0785b;stroke-width:0.264583"
       d="m 85.437192,91.091717 c -0.09075,-0.03704 -0.197644,-0.05186 -0.294746,-0.04154 -0.04286,0.0045 -0.08837,0.01561 -0.124618,0.03969 -0.02222,0.01482 -0.03916,0.03519 -0.05186,0.05794 0.01376,0.117475 0.04762,0.232568 0.112977,0.32967 0.0045,0.0069 0.01005,0.0127 0.01482,0.01931 2.65e-4,2.65e-4 5.29e-4,2.65e-4 0.0011,5.29e-4 5.3e-4,0.0013 0.0016,0.0024 0.0021,0.0037 0.01905,0.0254 0.03995,0.04921 0.06324,0.07038 0.01905,0.01217 0.03995,0.0217 0.06377,0.02646 0.116946,0.02328 0.261673,-0.01455 0.342371,-0.104775 0.05318,-0.05953 0.06112,-0.144198 0.03969,-0.218546 -0.01138,-0.03995 -0.0336,-0.08123 -0.06085,-0.112448 -0.02884,-0.03307 -0.068,-0.05398 -0.10795,-0.07038 z"
       id="path91" />
    <path
       style="opacity:0.22;fill:#a0785b;stroke-width:0.264583"
       d="m 89.348263,93.006506 c -0.08176,-0.01508 -0.162719,0.0032 -0.238125,0.03545 -0.163248,0.07011 -0.305065,0.212195 -0.381,0.372004 -0.0026,0.0056 -0.0032,0.01111 -0.0053,0.01667 0.03096,0.09234 0.07646,0.179387 0.129117,0.260879 0.03598,0.03519 0.07646,0.06615 0.119592,0.09393 0.09604,0.04392 0.195527,0.08123 0.299243,0.103452 0.09102,-0.0164 0.180446,-0.04286 0.262202,-0.08467 0.107157,-0.05477 0.200025,-0.142875 0.220928,-0.265906 0.0209,-0.12409 -0.0254,-0.251354 -0.104775,-0.346075 -0.07461,-0.08943 -0.186267,-0.164306 -0.30189,-0.185738 z"
       id="path92" />
    <path
       style="opacity:0.22;fill:#a0785b;stroke-width:0.264583"
       d="m 92.352078,97.621104 c 0.0426,0.180975 0.103452,0.389732 0.226483,0.534194 0.13626,0.160073 0.536839,0.513292 0.785283,0.411956 0.03545,0.0056 0.07144,0.0034 0.107421,-0.01111 0.08625,-0.03493 0.138906,-0.118798 0.175154,-0.20029 0.04789,-0.107421 0.08361,-0.221721 0.121709,-0.332846 0.07197,-0.211402 0.142875,-0.442912 0.111654,-0.668866 -0.03016,-0.217752 -0.170127,-0.359569 -0.361157,-0.453761 -0.316177,-0.155575 -0.905404,-0.334168 -1.132152,0.05318 -0.115887,0.197114 -0.08414,0.455612 -0.03439,0.667543 z"
       id="path93" />
    <path
       style="opacity:0.3652;fill:#a0785b;stroke-width:0.264583"
       d="m 90.75664,99.616856 c 0.03202,0.106363 0.07329,0.213784 0.169863,0.277284 0.124883,0.08229 0.281781,0.0471 0.402431,-0.02487 0.103452,-0.06191 0.191558,-0.159808 0.241035,-0.271992 0.05715,-0.07144 0.100277,-0.157956 0.09631,-0.246062 -0.0048,-0.103717 -0.08811,-0.165365 -0.170657,-0.213784 -0.102129,-0.05953 -0.216693,-0.100541 -0.331523,-0.127264 -0.09525,-0.02196 -0.205052,-0.04286 -0.30136,-0.01349 -0.112448,0.0344 -0.157956,0.137583 -0.162719,0.24765 -0.0058,0.124619 0.0209,0.254 0.05662,0.372533 z"
       id="path94" />
    <path
       style="opacity:0.22;fill:#a0785b;stroke-width:0.264583"
       d="m 89.38213,97.532998 c 0.02169,0.117211 0.07832,0.230452 0.191558,0.282046 0.132821,0.06059 0.297392,0.03016 0.4318,-0.0085 0.166158,-0.04789 0.336815,-0.126206 0.449262,-0.262202 0.102923,-0.124619 0.101071,-0.264848 0.03413,-0.393171 -0.01905,-0.100012 -0.09287,-0.185737 -0.172773,-0.253735 -0.125148,-0.106627 -0.269081,-0.190765 -0.398727,-0.2921 -0.06377,-0.04974 -0.136525,-0.107685 -0.221986,-0.104775 -0.08599,0.0026 -0.166158,0.06509 -0.213518,0.133085 -0.08837,0.127265 -0.0979,0.305859 -0.107157,0.455348 -0.0093,0.147109 -0.01984,0.297921 0.0074,0.443971 z"
       id="path95" />
    <path
       style="opacity:0.204512;fill:#a0785b;stroke-width:0.264583"
       d="m 92.024259,100.28572 c 0.02064,0.0958 0.06879,0.19236 0.132291,0.26697 0.02778,0.0328 0.06271,0.064 0.103188,0.0804 0.02487,0.0101 0.05107,0.0124 0.07699,0.0101 0.08916,-0.0778 0.1651,-0.17066 0.208491,-0.2794 0.0029,-0.008 0.005,-0.0154 0.0077,-0.023 0,-2.7e-4 0,-8e-4 0,-0.001 7.94e-4,-10e-4 0.0011,-0.003 0.0019,-0.004 0.01032,-0.0299 0.01826,-0.0606 0.02249,-0.0918 -7.94e-4,-0.0225 -0.0048,-0.0452 -0.01402,-0.0675 -0.04683,-0.1098 -0.159808,-0.207962 -0.279929,-0.223573 -0.07937,-0.01005 -0.153458,0.03096 -0.202936,0.09048 -0.02646,0.032 -0.04789,0.0736 -0.05847,0.11378 -0.01138,0.0423 -0.0066,0.0865 0.0024,0.12858 z"
       id="path96" />
    <path
       style="opacity:0.22;fill:#a0785b;stroke-width:0.264583"
       d="m 91.396667,95.976719 c 0.0336,0.0762 0.09446,0.132556 0.163777,0.176477 0.150019,0.09525 0.347398,0.132027 0.522288,0.10451 0.0058,-0.0011 0.01111,-0.0037 0.01693,-0.0048 0.059,-0.07779 0.10504,-0.164306 0.142346,-0.254 0.0087,-0.04948 0.01138,-0.100542 0.01005,-0.151871 -0.01799,-0.103981 -0.04339,-0.207169 -0.08334,-0.305329 -0.06482,-0.06588 -0.137318,-0.124619 -0.218016,-0.16854 -0.105834,-0.05741 -0.230717,-0.08467 -0.344223,-0.03228 -0.1143,0.05265 -0.193146,0.162984 -0.226484,0.282046 -0.03201,0.111654 -0.03069,0.246327 0.01667,0.353748 z"
       id="path97" />
  </g>
</svg>
