<?xml version="1.0" encoding="UTF-8" standalone="no"?>
<!-- Created with Inkscape (http://www.inkscape.org/) -->

<svg
   width="15.171175mm"
   height="12.541596mm"
   viewBox="0 0 15.171175 12.541596"
   version="1.1"
   id="svg1"
   xml:space="preserve"
   inkscape:version="1.3.2 (091e20ef0f, 2023-11-25)"
   sodipodi:docname="LR4Direction.svg"
   xmlns:inkscape="http://www.inkscape.org/namespaces/inkscape"
   xmlns:sodipodi="http://sodipodi.sourceforge.net/DTD/sodipodi-0.dtd"
   xmlns:xlink="http://www.w3.org/1999/xlink"
   xmlns="http://www.w3.org/2000/svg"
   xmlns:svg="http://www.w3.org/2000/svg"><sodipodi:namedview
     id="namedview1"
     pagecolor="#505050"
     bordercolor="#eeeeee"
     borderopacity="1"
     inkscape:showpageshadow="0"
     inkscape:pageopacity="0"
     inkscape:pagecheckerboard="0"
     inkscape:deskcolor="#d1d1d1"
     inkscape:document-units="mm"
     inkscape:zoom="0.7071068"
     inkscape:cx="222.03152"
     inkscape:cy="558.61434"
     inkscape:window-width="1366"
     inkscape:window-height="706"
     inkscape:window-x="-8"
     inkscape:window-y="-8"
     inkscape:window-maximized="1"
     inkscape:current-layer="layer2"
     showgrid="false" /><defs
     id="defs1"><inkscape:path-effect
       effect="bspline"
       id="path-effect649"
       is_visible="true"
       lpeversion="1.3"
       weight="33.333333"
       steps="2"
       helper_size="0"
       apply_no_weight="true"
       apply_with_weight="true"
       only_selected="false"
       uniform="false" /><inkscape:path-effect
       effect="bspline"
       id="path-effect634"
       is_visible="true"
       lpeversion="1.3"
       weight="33.333333"
       steps="2"
       helper_size="0"
       apply_no_weight="true"
       apply_with_weight="true"
       only_selected="false"
       uniform="false" /><inkscape:path-effect
       effect="bspline"
       id="path-effect630"
       is_visible="true"
       lpeversion="1.3"
       weight="33.333333"
       steps="2"
       helper_size="0"
       apply_no_weight="true"
       apply_with_weight="true"
       only_selected="false"
       uniform="false" /><inkscape:path-effect
       effect="bspline"
       id="path-effect626"
       is_visible="true"
       lpeversion="1.3"
       weight="33.333333"
       steps="2"
       helper_size="0"
       apply_no_weight="true"
       apply_with_weight="true"
       only_selected="false"
       uniform="false" /><inkscape:path-effect
       effect="bspline"
       id="path-effect618"
       is_visible="true"
       lpeversion="1.3"
       weight="33.333333"
       steps="2"
       helper_size="0"
       apply_no_weight="true"
       apply_with_weight="true"
       only_selected="false"
       uniform="false" /><inkscape:path-effect
       effect="bspline"
       id="path-effect616"
       is_visible="true"
       lpeversion="1.3"
       weight="33.333333"
       steps="2"
       helper_size="0"
       apply_no_weight="true"
       apply_with_weight="true"
       only_selected="false"
       uniform="false" /><inkscape:path-effect
       effect="bspline"
       id="path-effect612"
       is_visible="true"
       lpeversion="1.3"
       weight="33.333333"
       steps="2"
       helper_size="0"
       apply_no_weight="true"
       apply_with_weight="true"
       only_selected="false"
       uniform="false" /><linearGradient
       id="linearGradient21"
       inkscape:collect="always"><stop
         style="stop-color:#fd4878;stop-opacity:1;"
         offset="0"
         id="stop21" /><stop
         style="stop-color:#f8438c;stop-opacity:0.147651;"
         offset="1"
         id="stop22" /></linearGradient><radialGradient
       inkscape:collect="always"
       xlink:href="#linearGradient21"
       id="radialGradient636"
       gradientUnits="userSpaceOnUse"
       gradientTransform="matrix(0.99997649,0,0,1.0039411,-37.780053,-17.466311)"
       cx="102.06926"
       cy="153.20184"
       fx="102.06926"
       fy="153.20184"
       r="1.2734169" /><radialGradient
       inkscape:collect="always"
       xlink:href="#linearGradient21"
       id="radialGradient637"
       gradientUnits="userSpaceOnUse"
       gradientTransform="matrix(0.99997649,0,0,1.0039411,-27.806164,-17.883538)"
       cx="102.06926"
       cy="153.20184"
       fx="102.06926"
       fy="153.20184"
       r="1.2734169" /></defs><g
     inkscape:groupmode="layer"
     id="layer2"
     inkscape:label="Layer 2"
     transform="translate(-60.277345,-127.30433)"><g
       id="g1407"
       transform="translate(-0.93544332,-0.46772166)"><path
         style="fill:#f9ab99;fill-opacity:1;fill-rule:evenodd;stroke:none;stroke-width:0.264583px;stroke-linecap:butt;stroke-linejoin:miter;stroke-opacity:1"
         d="m 79.446665,146.52957 c -0.25397,-0.2886 -0.577209,-0.47331 -0.854271,-0.63493 -0.277062,-0.16162 -0.507937,-0.30014 -0.715735,-0.39249 -0.207799,-0.0924 -0.392508,-0.13854 -0.484855,-0.0231 -0.09235,0.11544 -0.09235,0.3925 -0.04617,0.66956 0.04618,0.27706 0.138527,0.55411 0.311693,0.79654 0.173165,0.24243 0.427132,0.45022 0.692649,0.55411 0.265518,0.1039 0.542571,0.1039 0.831178,0.1039 0.288606,0 0.588746,0 0.646466,-0.19625 0.05772,-0.19625 -0.126985,-0.58875 -0.380955,-0.87735 z"
         id="path562"
         inkscape:path-effect="#path-effect612"
         inkscape:original-d="m 79.515929,146.42567 c -0.323236,-0.1847 -0.646472,-0.36941 -0.969706,-0.55411 -0.230888,-0.13854 -0.461766,-0.27706 -0.692647,-0.41559 -0.184711,-0.0462 -0.369414,-0.0924 -0.554119,-0.13853 0,0.27706 0,0.55412 0,0.83118 0.09235,0.27706 0.184705,0.55411 0.277058,0.83117 0.253976,0.2078 0.507942,0.41559 0.761913,0.62338 0.277066,0 0.554119,0 0.831178,0 0.300154,0 0.600294,0 0.90044,0 -0.184708,-0.3925 -0.369411,-0.785 -0.554117,-1.1775 z"
         transform="matrix(0.99997649,0,0,1.0039411,-16.100697,-10.582076)" /><path
         style="fill:#f9ab99;fill-opacity:1;fill-rule:evenodd;stroke:none;stroke-width:0.264583px;stroke-linecap:butt;stroke-linejoin:miter;stroke-opacity:1"
         d="m 91.845055,144.07067 c 0.06927,-0.13853 0.207792,-0.41558 0.3925,-0.55411 0.184709,-0.13853 0.415588,-0.13853 0.542573,0.0924 0.126985,0.23088 0.150071,0.69263 0.09235,1.03896 -0.05772,0.34633 -0.196251,0.57721 -0.369419,0.72728 -0.173169,0.15008 -0.38095,0.21934 -0.588745,0.26552 -0.207795,0.0462 -0.415586,0.0693 -0.519484,-0.17315 -0.103898,-0.24243 -0.103898,-0.75036 -0.02309,-1.00433 0.08081,-0.25397 0.242425,-0.25397 0.323234,-0.25397 0.08081,0 0.08081,-3e-5 0.15008,-0.13856 z"
         id="path564"
         inkscape:path-effect="#path-effect616"
         inkscape:original-d="m 91.775789,144.2092 c 0.138531,-0.27706 0.277059,-0.55411 0.415589,-0.83117 0.230886,0 0.461765,0 0.692648,0 0.0231,0.46177 0.04617,0.92352 0.06926,1.38529 -0.138533,0.23089 -0.277061,0.46177 -0.415589,0.69265 -0.207798,0.0693 -0.415589,0.13853 -0.623382,0.20779 -0.207798,0.0231 -0.415589,0.0462 -0.623385,0.0693 0,-0.50796 0,-1.01589 0,-1.52383 0.161621,0 0.323236,0 0.484854,0 z"
         transform="matrix(0.99997649,0,0,1.0039411,-16.516275,-10.79069)" /><path
         style="fill:#d6866b;fill-opacity:1;fill-rule:evenodd;stroke:#d5856a;stroke-width:0.165;stroke-linecap:butt;stroke-linejoin:miter;stroke-dasharray:none;stroke-opacity:1"
         d="m 101.79988,144.75321 c 0.0245,-0.0735 0.1714,-0.0245 0.30202,0.0898 0.13062,0.11429 0.2449,0.29387 0.30204,0.44081 0.0571,0.14693 0.0571,0.26121 -0.0245,0.24488 -0.0816,-0.0163 -0.24489,-0.16326 -0.37549,-0.33467 -0.1306,-0.17141 -0.22857,-0.36734 -0.20408,-0.44081 z"
         id="path565"
         inkscape:path-effect="#path-effect618"
         inkscape:original-d="m 101.67744,144.63077 c 0.14693,0.049 0.29386,0.0979 0.4408,0.14693 0.11428,0.17959 0.22856,0.35917 0.34284,0.53876 0,0.11428 0,0.22856 0,0.34284 -0.16326,-0.14694 -0.32652,-0.29387 -0.48978,-0.4408 -0.0979,-0.19591 -0.19591,-0.39182 -0.29386,-0.58773 z"
         transform="matrix(0.6705862,0.74474094,-0.74179992,0.67324488,114.96301,-39.34123)" /><path
         id="path566"
         style="display:inline;fill:#fdc1a6;fill-opacity:1;fill-rule:evenodd;stroke:none;stroke-width:0.264583px;stroke-linecap:butt;stroke-linejoin:miter;stroke-opacity:1"
         d="m 105.59003,137.25688 c -0.20752,4.5e-4 -0.41418,0.006 -0.6191,0.0144 -0.81964,0.0346 -1.60503,0.12704 -2.25728,0.37524 -0.65224,0.2482 -1.17135,0.65233 -1.52345,1.10257 -0.35211,0.45023 -0.53722,0.94625 -0.75656,1.47729 -0.21934,0.53104 -0.472982,1.09664 -0.634605,1.65075 -0.161623,0.55413 -0.230806,1.0966 -0.311616,1.59877 -0.08081,0.50218 -0.173208,0.96413 -0.167436,1.44898 0.0058,0.48486 0.109353,0.99272 0.224798,1.40832 0.115445,0.4156 0.242665,0.73903 0.427374,1.01609 0.184705,0.27706 0.427245,0.50787 0.606175,0.65217 0.17894,0.1443 0.29421,0.20226 0.35193,0.23112 0.0577,0.0289 0.058,0.0286 0.42737,0.20177 0.36941,0.17316 1.10812,0.51968 1.88159,0.77365 0.77346,0.25397 1.5815,0.4155 2.2857,0.49054 0.7042,0.075 1.30429,0.0632 1.85264,-0.0118 0.54835,-0.075 1.04488,-0.21322 1.5586,-0.44987 0.51372,-0.23666 1.04489,-0.57138 1.52397,-0.97543 0.47909,-0.40405 0.90627,-0.87764 1.22373,-1.3625 0.31746,-0.48486 0.52527,-0.9813 0.64649,-1.56429 0.12121,-0.58298 0.15538,-1.25253 0.13229,-1.86437 -0.0231,-0.61184 -0.10374,-1.16554 -0.28267,-1.77738 -0.17894,-0.61184 -0.45577,-1.28187 -0.90023,-1.89371 -0.44445,-0.61185 -1.05664,-1.16579 -1.71466,-1.57561 -0.65802,-0.40982 -1.36177,-0.67515 -2.14101,-0.81946 -0.58442,-0.10823 -1.21147,-0.14856 -1.83404,-0.14721 z m -2.69912,5.17052 c 0.1746,0.003 0.34616,0.0218 0.50489,0.0535 0.31747,0.0635 0.58286,0.17914 0.82529,0.42157 0.24243,0.24243 0.46164,0.61145 0.51936,0.91159 0.0577,0.30015 -0.0458,0.53126 -0.23048,0.74483 -0.18471,0.21357 -0.45047,0.40977 -0.76793,0.54253 -0.31746,0.13276 -0.68653,0.20221 -1.04441,0.17913 -0.35787,-0.0231 -0.70463,-0.13862 -1.02786,-0.34642 -0.32324,-0.2078 -0.62295,-0.50786 -0.77879,-0.681 -0.15583,-0.17313 -0.16735,-0.21934 -0.17312,-0.24244 -0.006,-0.0231 -0.006,-0.0235 0.0284,-0.11581 0.0346,-0.0924 0.10418,-0.27679 0.21963,-0.47304 0.11544,-0.19626 0.27701,-0.40386 0.51367,-0.57702 0.23666,-0.17317 0.5483,-0.31174 0.88886,-0.37524 0.17027,-0.0317 0.34786,-0.0451 0.52246,-0.0422 z m 6.80026,0 c 0.1746,-0.003 0.35218,0.0105 0.52246,0.0422 0.34055,0.0635 0.6522,0.20207 0.88886,0.37524 0.23666,0.17316 0.39823,0.38076 0.51367,0.57702 0.11545,0.19625 0.185,0.38069 0.21963,0.47304 0.0346,0.0923 0.0347,0.0927 0.0289,0.11581 -0.006,0.0231 -0.0173,0.0693 -0.17312,0.24244 -0.15583,0.17314 -0.45606,0.4732 -0.7793,0.681 -0.32324,0.2078 -0.66947,0.32333 -1.02735,0.34642 -0.35787,0.0231 -0.72746,-0.0464 -1.04492,-0.17913 -0.31746,-0.13276 -0.58323,-0.32896 -0.76793,-0.54253 -0.18471,-0.21357 -0.28821,-0.44468 -0.23048,-0.74483 0.0577,-0.30013 0.27693,-0.66916 0.51936,-0.91159 0.24243,-0.24243 0.50782,-0.35808 0.82529,-0.42157 0.15873,-0.0317 0.33029,-0.0506 0.50489,-0.0535 z"
         transform="matrix(0.99997649,0,0,1.0039411,-36.741106,-10.025774)" /><path
         id="circle566"
         style="opacity:0.657258;fill:url(#radialGradient636);stroke:none;stroke-width:0.165323;stroke-linecap:round;stroke-linejoin:round;stroke-dasharray:none;stroke-opacity:1"
         d="m 64.287032,135.06101 a 1.273387,1.2784356 0 0 0 -1.273824,1.27847 1.273387,1.2784356 0 0 0 1.273824,1.27848 1.273387,1.2784356 0 0 0 1.273307,-1.27848 1.273387,1.2784356 0 0 0 -0.164847,-0.62838 c -0.160605,-0.0571 -0.317587,-0.13365 -0.469222,-0.23151 -0.187033,-0.12072 -0.365064,-0.27225 -0.513147,-0.41238 a 1.273387,1.2784356 0 0 0 -0.126091,-0.006 z" /><path
         id="circle567"
         style="opacity:0.657258;fill:url(#radialGradient637);stroke:none;stroke-width:0.165323;stroke-linecap:round;stroke-linejoin:round;stroke-dasharray:none;stroke-opacity:1"
         d="m 74.918941,134.82743 c -0.161968,0.1769 -0.445085,0.45514 -0.750342,0.65216 -0.323231,0.20861 -0.669462,0.3246 -1.027327,0.34778 -0.04902,0.003 -0.09851,0.004 -0.147795,0.004 a 1.273387,1.2784356 0 0 0 -0.0062,0.0909 1.273387,1.2784356 0 0 0 1.273307,1.27847 1.273387,1.2784356 0 0 0 1.273308,-1.27847 1.273387,1.2784356 0 0 0 -0.61495,-1.09451 z" /><path
         style="fill:none;fill-rule:evenodd;stroke:#e2836a;stroke-width:0.565;stroke-linecap:butt;stroke-linejoin:miter;stroke-dasharray:none;stroke-opacity:0.633803"
         d="m 87.55064,145.17891 c 0.115448,0.0462 0.145832,0.0583 0.315741,0.19745 0.169909,0.13912 0.111713,0.0564 0.194145,0.26709 0.08243,0.21069 0.08246,0.21173 0.06542,0.29327 -0.01704,0.0815 -0.05376,0.14671 -0.08366,0.19084 -0.0299,0.0441 -0.05301,0.0673 -0.09839,0.12315 -0.04538,0.0559 -0.08077,0.1023 -0.172509,0.20041 -0.09174,0.0981 -0.06569,0.074 -0.185067,0.0904 -0.119377,0.0165 -0.12569,0.009 -0.149981,-0.007 -0.02429,-0.0163 -0.02429,0.007 -0.02514,0.0181 -8.49e-4,0.0113 -0.01923,0.006 -0.08911,-0.0118 -0.06988,-0.0175 -0.112464,-0.0277 -0.157011,-0.0416 -0.04455,-0.0139 -0.12079,-0.0655 -0.169567,-0.12406 -0.04878,-0.0585 -0.124606,-0.17236 -0.206859,-0.29581"
         id="path573"
         inkscape:path-effect="#path-effect630"
         inkscape:original-d="m 87.55064,145.17891 c 0.11544,0.0462 0.145845,0.0583 0.346323,0.13853 0.139328,0.19804 0.08113,0.11532 0.240691,0.34212 0.0053,0.19458 0.0054,0.19562 0.008,0.2935 -0.03675,0.0652 -0.07346,0.13037 -0.1102,0.19556 -0.08637,-0.0402 -0.04617,0.0462 -0.06927,0.0693 -0.06765,0.0887 -0.103055,0.13509 -0.171068,0.22424 -0.115459,0.10707 -0.08943,0.0829 -0.23736,0.22011 -0.09081,-0.10424 -0.09712,-0.11149 -0.145704,-0.16726 0,0.0231 0,0.0462 0,0.0693 -0.0017,-5.1e-4 -0.02011,-0.006 -0.04057,-0.0123 -0.119252,-0.0288 -0.161856,-0.039 -0.236486,-0.057 -0.01432,-0.01 -0.09071,-0.0614 -0.126286,-0.0855 -0.06199,-0.093 -0.137802,-0.20682 -0.220054,-0.33027"
         transform="matrix(0.64458368,0.76753404,-0.76450302,0.64713926,125.11174,-25.54617)"
         sodipodi:nodetypes="ccscccccccsccc" /><path
         style="fill:#d6866b;fill-opacity:1;fill-rule:evenodd;stroke:#d5856a;stroke-width:0.165;stroke-linecap:butt;stroke-linejoin:miter;stroke-dasharray:none;stroke-opacity:1"
         d="m 101.79988,144.75321 c 0.0245,-0.0735 0.1714,-0.0245 0.30202,0.0898 0.13062,0.11429 0.2449,0.29387 0.30204,0.44081 0.0571,0.14693 0.0571,0.26121 -0.0245,0.24488 -0.0816,-0.0163 -0.24489,-0.16326 -0.37549,-0.33467 -0.1306,-0.17141 -0.22857,-0.36734 -0.20408,-0.44081 z"
         id="path575"
         inkscape:path-effect="#path-effect634"
         inkscape:original-d="m 101.67744,144.63077 c 0.14693,0.049 0.29386,0.0979 0.4408,0.14693 0.11428,0.17959 0.22856,0.35917 0.34284,0.53876 0,0.11428 0,0.22856 0,0.34284 -0.16326,-0.14694 -0.32652,-0.29387 -0.48978,-0.4408 -0.0979,-0.19591 -0.19591,-0.39182 -0.29386,-0.58773 z"
         transform="matrix(0.99997649,0,0,1.0039411,-40.07762,-9.2015055)" /><path
         style="fill:#000000;fill-opacity:1;fill-rule:evenodd;stroke:none;stroke-width:0.165;stroke-linecap:butt;stroke-linejoin:miter;stroke-dasharray:none;stroke-opacity:1"
         d="m 80.855054,144.34774 c -0.01154,-0.0173 -0.03466,-0.052 -0.06062,-0.13855 -0.02597,-0.0866 -0.05483,-0.2251 0.0058,-0.38961 0.06061,-0.1645 0.210678,-0.35497 0.404046,-0.51371 0.193368,-0.15873 0.430015,-0.28571 0.663793,-0.37518 0.233778,-0.0895 0.464644,-0.14141 0.712847,-0.1544 0.248203,-0.013 0.513709,0.013 0.77634,0.10099 0.262632,0.088 0.522369,0.23809 0.699862,0.38672 0.177493,0.14864 0.27273,0.29583 0.34488,0.43147 0.07215,0.13565 0.12121,0.25974 0.03174,0.21789 -0.08947,-0.0419 -0.317453,-0.24963 -0.536797,-0.40981 -0.219344,-0.16018 -0.430016,-0.27273 -0.636368,-0.35787 -0.206351,-0.0851 -0.408375,-0.14286 -0.633487,-0.14286 -0.225111,0 -0.473308,0.0577 -0.67821,0.1241 -0.204902,0.0664 -0.366535,0.14141 -0.49063,0.21933 -0.124096,0.0779 -0.210682,0.15874 -0.285719,0.27129 -0.07504,0.11256 -0.138527,0.25686 -0.187591,0.38674 -0.04906,0.12987 -0.08369,0.24531 -0.101011,0.30303 -0.01732,0.0577 -0.01731,0.0577 -0.02885,0.0404 z"
         id="path571"
         inkscape:path-effect="#path-effect626"
         inkscape:original-d="m 80.866593,144.36505 c -0.0231,-0.0346 -0.04618,-0.0693 -0.06927,-0.1039 -0.02886,-0.13853 -0.05772,-0.27706 -0.08658,-0.41559 0.150077,-0.19048 0.300149,-0.38095 0.450221,-0.57143 0.236661,-0.12699 0.47331,-0.25397 0.709964,-0.38096 0.230889,-0.052 0.461767,-0.10389 0.692647,-0.15584 0.265522,0.026 0.531024,0.052 0.796546,0.0779 0.25975,0.15007 0.519484,0.30014 0.779229,0.45021 0.09524,0.1472 0.190477,0.29439 0.285716,0.44158 0.04906,0.1241 0.09812,0.24819 0.147187,0.37229 -0.228002,-0.2078 -0.455987,-0.41558 -0.683989,-0.62338 -0.210685,-0.11256 -0.421358,-0.22511 -0.632041,-0.33767 -0.202025,-0.0577 -0.404043,-0.11544 -0.606065,-0.17316 -0.248206,0.0577 -0.496398,0.11544 -0.744596,0.17316 -0.161621,0.075 -0.323236,0.15008 -0.484854,0.22511 -0.08658,0.0808 -0.173162,0.16162 -0.259744,0.24243 -0.06349,0.1443 -0.126985,0.2886 -0.190477,0.43291 -0.03463,0.11544 -0.06927,0.23088 -0.103896,0.34632 z"
         transform="matrix(0.99997649,0,0,1.0039411,-16.639594,-10.459454)"
         sodipodi:nodetypes="sccccccccccccccccss" /><path
         style="fill:#000000;fill-opacity:1;fill-rule:evenodd;stroke:none;stroke-width:0.165;stroke-linecap:butt;stroke-linejoin:miter;stroke-dasharray:none;stroke-opacity:1"
         d="m 80.855054,144.34774 c -0.01154,-0.0173 -0.03466,-0.052 -0.06062,-0.13855 -0.02597,-0.0866 -0.05483,-0.2251 0.0058,-0.38961 0.06061,-0.1645 0.210678,-0.35497 0.404046,-0.51371 0.193368,-0.15873 0.430015,-0.28571 0.663793,-0.37518 0.233778,-0.0895 0.464644,-0.14141 0.712847,-0.1544 0.248203,-0.013 0.513709,0.013 0.77634,0.10099 0.262632,0.088 0.522369,0.23809 0.699862,0.38672 0.177493,0.14864 0.27273,0.29583 0.34488,0.43147 0.07215,0.13565 0.12121,0.25974 0.03174,0.21789 -0.08947,-0.0419 -0.317453,-0.24963 -0.536797,-0.40981 -0.219344,-0.16018 -0.430016,-0.27273 -0.636368,-0.35787 -0.206351,-0.0851 -0.408375,-0.14286 -0.633487,-0.14286 -0.225111,0 -0.473308,0.0577 -0.67821,0.1241 -0.204902,0.0664 -0.366535,0.14141 -0.49063,0.21933 -0.124096,0.0779 -0.210682,0.15874 -0.285719,0.27129 -0.07504,0.11256 -0.138527,0.25686 -0.187591,0.38674 -0.04906,0.12987 -0.08369,0.24531 -0.101011,0.30303 -0.01732,0.0577 -0.01731,0.0577 -0.02885,0.0404 z"
         id="path645"
         transform="matrix(-0.99997649,0,0,1.0039411,155.7345,-10.459454)"
         sodipodi:nodetypes="sccccccccccccccccss"
         inkscape:original-d="m 80.866593,144.36505 c -0.0231,-0.0346 -0.04618,-0.0693 -0.06927,-0.1039 -0.02886,-0.13853 -0.05772,-0.27706 -0.08658,-0.41559 0.150077,-0.19048 0.300149,-0.38095 0.450221,-0.57143 0.236661,-0.12699 0.47331,-0.25397 0.709964,-0.38096 0.230889,-0.052 0.461767,-0.10389 0.692647,-0.15584 0.265522,0.026 0.531024,0.052 0.796546,0.0779 0.25975,0.15007 0.519484,0.30014 0.779229,0.45021 0.09524,0.1472 0.190477,0.29439 0.285716,0.44158 0.04906,0.1241 0.09812,0.24819 0.147187,0.37229 -0.228002,-0.2078 -0.455987,-0.41558 -0.683989,-0.62338 -0.210685,-0.11256 -0.421358,-0.22511 -0.632041,-0.33767 -0.202025,-0.0577 -0.404043,-0.11544 -0.606065,-0.17316 -0.248206,0.0577 -0.496398,0.11544 -0.744596,0.17316 -0.161621,0.075 -0.323236,0.15008 -0.484854,0.22511 -0.08658,0.0808 -0.173162,0.16162 -0.259744,0.24243 -0.06349,0.1443 -0.126985,0.2886 -0.190477,0.43291 -0.03463,0.11544 -0.06927,0.23088 -0.103896,0.34632 z"
         inkscape:path-effect="#path-effect649" /></g></g></svg>
