<?xml version="1.0" encoding="UTF-8" standalone="no"?>
<!-- Created with Inkscape (http://www.inkscape.org/) -->

<svg
   width="22.278234mm"
   height="37.457745mm"
   viewBox="0 0 22.278234 37.457745"
   version="1.1"
   id="svg1"
   xml:space="preserve"
   inkscape:version="1.3.2 (091e20ef0f, 2023-11-25)"
   sodipodi:docname="LR4Direction.svg"
   xmlns:inkscape="http://www.inkscape.org/namespaces/inkscape"
   xmlns:sodipodi="http://sodipodi.sourceforge.net/DTD/sodipodi-0.dtd"
   xmlns:xlink="http://www.w3.org/1999/xlink"
   xmlns="http://www.w3.org/2000/svg"
   xmlns:svg="http://www.w3.org/2000/svg"><sodipodi:namedview
     id="namedview1"
     pagecolor="#505050"
     bordercolor="#eeeeee"
     borderopacity="1"
     inkscape:showpageshadow="0"
     inkscape:pageopacity="0"
     inkscape:pagecheckerboard="0"
     inkscape:deskcolor="#d1d1d1"
     inkscape:document-units="mm"
     inkscape:zoom="0.7071068"
     inkscape:cx="222.03152"
     inkscape:cy="558.61434"
     inkscape:window-width="1366"
     inkscape:window-height="706"
     inkscape:window-x="-8"
     inkscape:window-y="-8"
     inkscape:window-maximized="1"
     inkscape:current-layer="layer2"
     showgrid="false" /><defs
     id="defs1"><inkscape:path-effect
       effect="bspline"
       id="path-effect1268"
       is_visible="true"
       lpeversion="1.3"
       weight="33.333333"
       steps="2"
       helper_size="0"
       apply_no_weight="true"
       apply_with_weight="true"
       only_selected="false"
       uniform="false" /><inkscape:path-effect
       effect="bspline"
       id="path-effect1266"
       is_visible="true"
       lpeversion="1.3"
       weight="33.333333"
       steps="2"
       helper_size="0"
       apply_no_weight="true"
       apply_with_weight="true"
       only_selected="false"
       uniform="false" /><inkscape:path-effect
       effect="offset"
       id="path-effect1264"
       is_visible="true"
       lpeversion="1.2"
       linejoin_type="miter"
       unit="mm"
       offset="0"
       miter_limit="4"
       attempt_force_join="false"
       update_on_knot_move="true" /><linearGradient
       id="linearGradient906"
       inkscape:collect="always"><stop
         style="stop-color:#df6c69;stop-opacity:1;"
         offset="0"
         id="stop902" /><stop
         style="stop-color:#fa0002;stop-opacity:1;"
         offset="0.29158205"
         id="stop903" /><stop
         style="stop-color:#c30003;stop-opacity:1;"
         offset="0.63988721"
         id="stop904" /><stop
         style="stop-color:#fa0002;stop-opacity:1;"
         offset="0.69627148"
         id="stop905" /><stop
         style="stop-color:#cf0001;stop-opacity:1;"
         offset="1"
         id="stop906" /></linearGradient><linearGradient
       inkscape:collect="always"
       xlink:href="#linearGradient906"
       id="linearGradient1299"
       gradientUnits="userSpaceOnUse"
       x1="103.08064"
       y1="126.95338"
       x2="107.81947"
       y2="164.07837" /></defs><g
     inkscape:groupmode="layer"
     id="layer2"
     inkscape:label="Layer 2"
     transform="translate(-84.980661,-107.05975)"><g
       id="g2036"><path
         style="fill:url(#linearGradient1299);fill-rule:evenodd;stroke:#7d220e;stroke-width:0.264583px;stroke-linecap:butt;stroke-linejoin:miter;stroke-opacity:1"
         d="m 107.59222,150.42529 c -0.33408,-0.01 -0.63623,-0.22054 -0.96809,-0.26006 -0.13371,-0.0159 -0.28605,0.015 -0.39182,0.098 l -0.74416,0.5838 c -0.30001,0.23536 -0.4077,0.60972 -0.63734,0.91366 -0.32765,0.43367 -0.68939,0.74973 -1.02789,1.17503 -0.29909,0.37578 -0.67347,0.90363 -0.99799,1.25782 -1.01403,1.10674 -1.54664,2.44637 -1.83322,3.2694 -0.17484,0.50211 -0.19261,1.04547 -0.29386,1.56728 -0.111,0.57205 -0.22859,1.1428 -0.34285,1.71421 -0.0979,0.48978 -0.14694,0.99185 -0.29386,1.46933 -0.115987,0.37696 -0.30151,0.73069 -0.489776,1.0775 -0.123113,0.22679 -0.183151,0.61218 -0.440799,0.63671 -0.265045,0.0252 -0.395065,-0.35572 -0.587729,-0.53875 -0.13393,-0.12723 -0.216319,-0.3333 -0.391822,-0.39182 -0.201861,-0.0673 -0.425725,0.0209 -0.636709,0.049 -0.279379,0.0373 -0.551648,0.16915 -0.832617,0.14693 -0.355569,-0.0281 -0.730817,-0.0982 -1.028531,-0.29386 -0.300827,-0.19769 -0.448902,-0.562 -0.685686,-0.83262 -0.106401,-0.1216 -0.25326,-0.20848 -0.342842,-0.34285 -0.07743,-0.11615 -0.224365,-0.27567 -0.146933,-0.39182 0.105756,-0.15864 0.400363,-0.44386 0.562142,-0.54532 0.684508,-0.42934 0.82376,-1.20945 1.144116,-2.09469 0.583455,-1.62752 0.997673,-2.24771 1.281374,-3.13934 0.148893,-0.46794 0.304536,-0.93948 0.538753,-1.37137 0.509739,-0.93995 1.041912,-1.69768 1.61626,-2.30195 0.319558,-0.33621 0.709639,-0.59861 1.077509,-0.8816 0.34241,-0.2634 0.6291,-0.59721 0.83262,-0.83262 -0.26799,-0.28377 -0.82268,-0.56468 -1.04128,-0.68568 -0.55804,-0.19746 -1.102585,-0.44114 -1.616257,-0.73466 -0.519257,-0.29672 -1.008741,-0.64766 -1.469326,-1.02853 -0.391597,-0.32382 -0.786948,-0.6613 -1.077505,-1.07751 -0.322016,-0.46127 -0.631893,-0.96589 -0.734666,-1.5183 0,0 -0.326241,-1.39507 -0.391819,-2.10604 -0.07048,-0.7641 -0.146934,-1.73055 0,-2.30195 0.146936,-0.57141 0.236394,-1.16062 0.440799,-1.71421 0.189616,-0.51354 0.460539,-0.99517 0.734663,-1.46933 0.330852,-0.57229 0.66434,-1.14877 1.077505,-1.66523 0.504867,-0.63108 1.118271,-1.16797 1.665237,-1.7632 0.563302,-0.613 1.107859,-1.24281 1.665239,-1.86115 0.48749,-0.54082 0.98501,-1.07263 1.46933,-1.61626 0.31571,-0.35437 0.67848,-0.67573 0.93057,-1.0775 0.27589,-0.4397 0.40035,-0.95837 0.63671,-1.42035 0.12372,-0.24182 0.24851,-0.4934 0.4408,-0.68569 0.19197,-0.19197 0.42688,-0.35733 0.68568,-0.4408 0.26451,-0.0853 0.58696,-0.17866 0.83262,-0.049 0.39879,0.21049 0.59877,0.67483 0.93058,0.97955 0.46949,0.43116 1.00193,0.79104 1.46932,1.22444 0.4319,0.40049 0.79555,0.86974 1.22444,1.27341 l 1.66524,1.56729 c 0.52533,0.49443 1.15859,0.86202 1.71421,1.32239 0.58785,0.48708 1.18948,0.96433 1.71422,1.51831 0.72063,0.76078 1.01256,1.7466 1.40508,2.82378 0.24748,0.67916 0.33286,1.59224 0.32188,2.12295 -0.01,0.48028 0.26888,0.94056 0.24489,1.42035 -0.0422,0.84436 -0.1978,1.68787 -0.4408,2.49786 -0.25002,0.83341 -0.56042,1.66562 -1.02853,2.3999 -0.37831,0.59343 -0.96212,1.02953 -1.46933,1.5183 -0.39143,0.37719 -0.76834,0.78105 -1.22444,1.07751 -0.32652,0.21223 -0.65303,0.42448 -0.97955,0.63671 -0.28984,0.18839 -0.65247,0.23015 -0.97955,0.34284 -0.44915,0.15475 -0.89065,0.33455 -1.34906,0.45945 -0.46141,0.12571 -0.927,0.30437 -1.40515,0.29035 z"
         id="path1216"
         transform="matrix(0.99997649,0,0,1.0039411,-9.340923,-20.190424)"
         sodipodi:nodetypes="sssssssssssssssssssssssssssssssssssssssssssssssssssssssssssssss"
         inkscape:path-effect="#path-effect1264"
         inkscape:original-d="m 107.59222,150.42529 c -0.33408,-0.01 -0.63623,-0.22054 -0.96809,-0.26006 -0.13371,-0.0159 -0.28605,0.015 -0.39182,0.098 l -0.74416,0.5838 c -0.30001,0.23536 -0.4077,0.60972 -0.63734,0.91366 -0.32765,0.43367 -0.68939,0.74973 -1.02789,1.17503 -0.29909,0.37578 -0.67347,0.90363 -0.99799,1.25782 -1.01403,1.10674 -1.54664,2.44637 -1.83322,3.2694 -0.17484,0.50211 -0.19261,1.04547 -0.29386,1.56728 -0.111,0.57205 -0.22859,1.1428 -0.34285,1.71421 -0.0979,0.48978 -0.14694,0.99185 -0.29386,1.46933 -0.115987,0.37696 -0.30151,0.73069 -0.489776,1.0775 -0.123113,0.22679 -0.183151,0.61218 -0.440799,0.63671 -0.265045,0.0252 -0.395065,-0.35572 -0.587729,-0.53875 -0.13393,-0.12723 -0.216319,-0.3333 -0.391822,-0.39182 -0.201861,-0.0673 -0.425725,0.0209 -0.636709,0.049 -0.279379,0.0373 -0.551648,0.16915 -0.832617,0.14693 -0.355569,-0.0281 -0.730817,-0.0982 -1.028531,-0.29386 -0.300827,-0.19769 -0.448902,-0.562 -0.685686,-0.83262 -0.106401,-0.1216 -0.25326,-0.20848 -0.342842,-0.34285 -0.07743,-0.11615 -0.224365,-0.27567 -0.146933,-0.39182 0.105756,-0.15864 0.400363,-0.44386 0.562142,-0.54532 0.684508,-0.42934 0.82376,-1.20945 1.144116,-2.09469 0.583455,-1.62752 0.997673,-2.24771 1.281374,-3.13934 0.148893,-0.46794 0.304536,-0.93948 0.538753,-1.37137 0.509739,-0.93995 1.041912,-1.69768 1.61626,-2.30195 0.319558,-0.33621 0.709639,-0.59861 1.077509,-0.8816 0.34241,-0.2634 0.6291,-0.59721 0.83262,-0.83262 -0.26799,-0.28377 -0.82268,-0.56468 -1.04128,-0.68568 -0.55804,-0.19746 -1.102585,-0.44114 -1.616257,-0.73466 -0.519257,-0.29672 -1.008741,-0.64766 -1.469326,-1.02853 -0.391597,-0.32382 -0.786948,-0.6613 -1.077505,-1.07751 -0.322016,-0.46127 -0.631893,-0.96589 -0.734666,-1.5183 0,0 -0.326241,-1.39507 -0.391819,-2.10604 -0.07048,-0.7641 -0.146934,-1.73055 0,-2.30195 0.146936,-0.57141 0.236394,-1.16062 0.440799,-1.71421 0.189616,-0.51354 0.460539,-0.99517 0.734663,-1.46933 0.330852,-0.57229 0.66434,-1.14877 1.077505,-1.66523 0.504867,-0.63108 1.118271,-1.16797 1.665237,-1.7632 0.563302,-0.613 1.107859,-1.24281 1.665239,-1.86115 0.48749,-0.54082 0.98501,-1.07263 1.46933,-1.61626 0.31571,-0.35437 0.67848,-0.67573 0.93057,-1.0775 0.27589,-0.4397 0.40035,-0.95837 0.63671,-1.42035 0.12372,-0.24182 0.24851,-0.4934 0.4408,-0.68569 0.19197,-0.19197 0.42688,-0.35733 0.68568,-0.4408 0.26451,-0.0853 0.58696,-0.17866 0.83262,-0.049 0.39879,0.21049 0.59877,0.67483 0.93058,0.97955 0.46949,0.43116 1.00193,0.79104 1.46932,1.22444 0.4319,0.40049 0.79555,0.86974 1.22444,1.27341 l 1.66524,1.56729 c 0.52533,0.49443 1.15859,0.86202 1.71421,1.32239 0.58785,0.48708 1.18948,0.96433 1.71422,1.51831 0.72063,0.76078 1.01256,1.7466 1.40508,2.82378 0.24748,0.67916 0.33286,1.59224 0.32188,2.12295 -0.01,0.48028 0.26888,0.94056 0.24489,1.42035 -0.0422,0.84436 -0.1978,1.68787 -0.4408,2.49786 -0.25002,0.83341 -0.56042,1.66562 -1.02853,2.3999 -0.37831,0.59343 -0.96212,1.02953 -1.46933,1.5183 -0.39143,0.37719 -0.76834,0.78105 -1.22444,1.07751 -0.32652,0.21223 -0.65303,0.42448 -0.97955,0.63671 -0.28984,0.18839 -0.65247,0.23015 -0.97955,0.34284 -0.44915,0.15475 -0.89065,0.33455 -1.34906,0.45945 -0.46141,0.12571 -0.927,0.30437 -1.40515,0.29035 z" /><g
         id="g1218"
         transform="matrix(0.99997649,0,0,1.0039411,-9.619542,-20.548327)"><path
           style="fill:none;fill-rule:evenodd;stroke:#faf6f6;stroke-width:0.264583px;stroke-linecap:butt;stroke-linejoin:miter;stroke-opacity:1"
           d="m 107.64896,152.68259 c 0.11544,0.0231 0.34631,0.0693 0.55122,0.0721 0.20492,0.003 0.38386,-0.0375 0.51951,-0.12699 0.13565,-0.0895 0.22798,-0.22799 0.25685,-0.39827 0.0289,-0.17027 -0.006,-0.37231 -0.1039,-0.56278 -0.0981,-0.19047 -0.25975,-0.36941 -0.44157,-0.52526 -0.18182,-0.15584 -0.38384,-0.28859 -0.58009,-0.40981 -0.19625,-0.12121 -0.38672,-0.23088 -0.53968,-0.31457 -0.15296,-0.0837 -0.26841,-0.14142 -0.36078,-0.18184 -0.0924,-0.0404 -0.1616,-0.0635 -0.18468,0.009 -0.0231,0.0721 2e-5,0.23953 0.0202,0.40692 0.0202,0.1674 0.0375,0.33478 0.0375,0.49063 0,0.15585 -0.0173,0.30015 0.006,0.43002 0.0231,0.12987 0.0866,0.24531 0.14143,0.37808 0.0548,0.13276 0.101,0.28278 0.17894,0.39248 0.0779,0.10969 0.18758,0.17894 0.25686,0.22513 0.0693,0.0462 0.0981,0.0693 0.11255,0.0808 0.0144,0.0116 0.0144,0.0116 0.12982,0.0346 z"
           id="path1217"
           inkscape:path-effect="#path-effect1266"
           inkscape:original-d="m 107.53352,152.6595 c 0.23088,0.0462 0.46176,0.0923 0.69265,0.13853 0.17893,-0.0404 0.35787,-0.0808 0.5368,-0.12121 0.0924,-0.13853 0.1847,-0.27706 0.27706,-0.41559 -0.0346,-0.20203 -0.0693,-0.40405 -0.1039,-0.60607 -0.16162,-0.17893 -0.32324,-0.35787 -0.48485,-0.5368 -0.20203,-0.13276 -0.40405,-0.26551 -0.60607,-0.39827 -0.19048,-0.10967 -0.38095,-0.21934 -0.57143,-0.32901 -0.11545,-0.0577 -0.23089,-0.11544 -0.34633,-0.17316 -0.0693,-0.0231 -0.13853,-0.0462 -0.20779,-0.0693 0.0231,0.16739 0.0462,0.33477 0.0693,0.50216 0.0173,0.1674 0.0346,0.33478 0.0519,0.50217 -0.0173,0.14431 -0.0346,0.28861 -0.0519,0.43291 0.0635,0.11544 0.12699,0.23088 0.19048,0.34632 0.0462,0.15009 0.0923,0.30013 0.13854,0.45022 0.10968,0.0693 0.21933,0.13853 0.329,0.2078 0.0289,0.0231 0.0577,0.0462 0.0866,0.0693 z"
           sodipodi:nodetypes="cccccccccccccccccc" /><path
           style="fill:none;fill-rule:evenodd;stroke:#faf6f6;stroke-width:0.264583px;stroke-linecap:butt;stroke-linejoin:miter;stroke-opacity:1"
           d="m 106.58402,151.6263 c -0.0491,0.14429 -0.14719,0.43291 -0.3319,0.69265 -0.18471,0.25975 -0.45599,0.49063 -0.69265,0.6003 -0.23665,0.10968 -0.43867,0.0981 -0.60895,0.003 -0.17028,-0.0952 -0.3088,-0.27417 -0.3925,-0.45888 -0.0837,-0.1847 -0.11256,-0.37517 -0.0462,-0.57142 0.0664,-0.19626 0.22799,-0.39827 0.41847,-0.55989 0.19048,-0.16162 0.40982,-0.28284 0.60894,-0.38961 0.19913,-0.10678 0.37808,-0.19915 0.52528,-0.29151 0.1472,-0.0924 0.26262,-0.18469 0.35208,-0.24818 0.0895,-0.0635 0.15298,-0.0981 0.19916,-0.0289 0.0462,0.0693 0.075,0.24242 0.0837,0.3925 0.009,0.15008 -0.003,0.27706 -0.0173,0.39251 -0.0144,0.11544 -0.0317,0.21933 -0.0404,0.27128 -0.009,0.052 -0.009,0.0519 -0.0578,0.19622 z"
           id="path1218"
           inkscape:path-effect="#path-effect1268"
           inkscape:original-d="m 106.63308,151.482 c -0.0981,0.2886 -0.19625,0.57721 -0.29438,0.86581 -0.27129,0.23089 -0.54257,0.46177 -0.81386,0.69265 -0.20202,-0.0115 -0.40404,-0.0231 -0.60606,-0.0346 -0.13854,-0.17894 -0.27707,-0.35787 -0.41559,-0.53681 -0.0289,-0.19048 -0.0577,-0.38095 -0.0866,-0.57143 0.16163,-0.20203 0.32324,-0.40404 0.48486,-0.60607 0.21934,-0.12121 0.43868,-0.24242 0.65802,-0.36364 0.17893,-0.0923 0.35786,-0.1847 0.53679,-0.27706 0.11545,-0.0924 0.23089,-0.1847 0.34633,-0.27705 0.0635,-0.0346 0.12699,-0.0693 0.19048,-0.1039 0.0289,0.17316 0.0577,0.34632 0.0866,0.51948 -0.0115,0.12699 -0.0231,0.25397 -0.0346,0.38096 -0.0173,0.1039 -0.0346,0.20779 -0.0519,0.31169 z" /></g></g></g></svg>
