<?xml version="1.0" encoding="UTF-8" standalone="no"?>
<!-- Created with Inkscape (http://www.inkscape.org/) -->

<svg
   width="9.7130375mm"
   height="13.873403mm"
   viewBox="0 0 9.7130375 13.873403"
   version="1.1"
   id="svg1"
   xml:space="preserve"
   inkscape:version="1.3.2 (091e20ef0f, 2023-11-25)"
   sodipodi:docname="LR4Direction.svg"
   xmlns:inkscape="http://www.inkscape.org/namespaces/inkscape"
   xmlns:sodipodi="http://sodipodi.sourceforge.net/DTD/sodipodi-0.dtd"
   xmlns:xlink="http://www.w3.org/1999/xlink"
   xmlns="http://www.w3.org/2000/svg"
   xmlns:svg="http://www.w3.org/2000/svg"><sodipodi:namedview
     id="namedview1"
     pagecolor="#505050"
     bordercolor="#eeeeee"
     borderopacity="1"
     inkscape:showpageshadow="0"
     inkscape:pageopacity="0"
     inkscape:pagecheckerboard="0"
     inkscape:deskcolor="#d1d1d1"
     inkscape:document-units="mm"
     inkscape:zoom="0.7071068"
     inkscape:cx="222.03152"
     inkscape:cy="558.61434"
     inkscape:window-width="1366"
     inkscape:window-height="706"
     inkscape:window-x="-8"
     inkscape:window-y="-8"
     inkscape:window-maximized="1"
     inkscape:current-layer="layer2"
     showgrid="false" /><defs
     id="defs1"><linearGradient
       id="linearGradient909"
       inkscape:collect="always"><stop
         style="stop-color:#c70003;stop-opacity:1;"
         offset="0.00257069"
         id="stop907" /><stop
         style="stop-color:#f80002;stop-opacity:1;"
         offset="0.16756757"
         id="stop908" /><stop
         style="stop-color:#d90001;stop-opacity:1;"
         offset="1"
         id="stop909" /></linearGradient><linearGradient
       inkscape:collect="always"
       xlink:href="#linearGradient909"
       id="linearGradient1298"
       gradientUnits="userSpaceOnUse"
       gradientTransform="translate(-17.784518,-70.579024)"
       x1="119.85658"
       y1="201.23041"
       x2="120.94621"
       y2="214.3907" /></defs><g
     inkscape:groupmode="layer"
     id="layer2"
     inkscape:label="Layer 2"
     transform="translate(-97.476054,-129.82922)"><path
       id="path1215"
       style="fill:url(#linearGradient1298);fill-rule:evenodd;stroke:#7d220e;stroke-width:0.264583px;stroke-linecap:butt;stroke-linejoin:miter;stroke-opacity:1"
       d="m 99.734175,129.9065 c 0.0321,0.0638 0.896905,0.78062 1.000525,0.8607 0.17958,0.13877 0.45711,0.30203 0.77548,0.53876 0.31836,0.23673 0.67751,0.54691 0.96323,0.88159 0.2857,0.33469 0.49793,0.69385 0.71833,1.07751 0.2204,0.38366 0.44896,0.7918 0.62854,1.19995 0.17959,0.40815 0.31019,0.81629 0.40815,1.22444 0.098,0.40815 0.16326,0.81629 0.25306,1.24893 0.0898,0.43264 0.20407,0.88975 0.40814,1.37954 0.20408,0.48978 0.49794,1.0122 0.75099,1.41218 0.25305,0.39999 0.46529,0.67752 0.66936,0.91425 0.20407,0.23673 0.70356,1.43889 0.70356,1.43889 l -0.86176,0.30813 c -0.55865,0.19975 -0.88425,0.0697 -1.14534,0.1796 -0.1551,0.0653 -0.60502,1.0845 -0.79015,0.99461 l -1.21816,-0.59149 c -0.3237,-0.15718 -1.30036,0.91984 -1.29843,0.14402 0.002,-0.75037 0.35958,-2.64063 0.26408,-3.02509 -0.19846,-0.79901 -1.02982,-2.54935 -1.22372,-3.5601 -0.32226,-1.67987 0.12939,-2.65615 -1.421685,-3.9071 -0.2681,-0.21622 -1.20868,-1.87591 -1.38148,-2.03775 -0.23339,-0.21862 -0.28708,-0.55417 -0.38848,-0.61076"
       sodipodi:nodetypes="csssssssssscsssssssssc" /></g></svg>
