<?xml version="1.0" encoding="UTF-8" standalone="no"?>
<!-- Created with Inkscape (http://www.inkscape.org/) -->

<svg
   width="69.142937"
   height="70.982788"
   viewBox="0 0 18.294068 18.780863"
   version="1.1"
   id="svg1"
   xml:space="preserve"
   sodipodi:docname="GranMa.svg"
   inkscape:version="1.3 (0e150ed6c4, 2023-07-21)"
   xmlns:inkscape="http://www.inkscape.org/namespaces/inkscape"
   xmlns:sodipodi="http://sodipodi.sourceforge.net/DTD/sodipodi-0.dtd"
   xmlns="http://www.w3.org/2000/svg"
   xmlns:svg="http://www.w3.org/2000/svg"><sodipodi:namedview
     id="namedview1"
     pagecolor="#505050"
     bordercolor="#eeeeee"
     borderopacity="1"
     inkscape:showpageshadow="0"
     inkscape:pageopacity="0"
     inkscape:pagecheckerboard="0"
     inkscape:deskcolor="#121212"
     inkscape:document-units="mm"
     inkscape:zoom="3.8198845"
     inkscape:cx="376.71297"
     inkscape:cy="635.88311"
     inkscape:window-width="1280"
     inkscape:window-height="961"
     inkscape:window-x="-8"
     inkscape:window-y="-8"
     inkscape:window-maximized="1"
     inkscape:current-layer="layer1" /><defs
     id="defs1"><linearGradient
       id="swatch2"
       inkscape:swatch="solid"><stop
         style="stop-color:#000000;stop-opacity:1;"
         offset="0"
         id="stop2-3" /></linearGradient></defs><g
     inkscape:label="Layer 1"
     inkscape:groupmode="layer"
     id="layer1"
     transform="translate(-138.68091,-149.34589)"><g
       id="g998"
       transform="translate(-19.379796,53.816752)"><path
         id="path855"
         style="opacity:1;fill:#3f3f3f;fill-opacity:1;fill-rule:evenodd;stroke:#000000;stroke-width:0.264583;stroke-linecap:round"
         d="m 170.13174,105.05098 c 0,0 0.007,-0.45825 0.58841,-0.61401 0.58132,-0.15577 0.81658,0.23754 0.81658,0.23754 l 2.27674,8.49688 c 0,0 0.0514,0.51864 -0.5694,0.68497 -0.6208,0.16635 -0.8356,-0.3085 -0.8356,-0.3085 z"
         sodipodi:nodetypes="czcczcc"
         inkscape:transform-center-y="4.3991348"
         inkscape:transform-center-x="-1.1699137" /><path
         id="path858"
         style="opacity:1;fill:#3f3f3f;fill-opacity:1;fill-rule:evenodd;stroke:#000000;stroke-width:0.264583;stroke-linecap:round"
         d="m 164.47893,105.05098 c 0,0 -0.007,-0.45825 -0.58841,-0.61401 -0.58132,-0.15577 -0.81658,0.23754 -0.81658,0.23754 l -2.27674,8.49688 c 0,0 -0.0514,0.51864 0.5694,0.68497 0.6208,0.16635 0.8356,-0.3085 0.8356,-0.3085 z"
         sodipodi:nodetypes="czcczcc"
         inkscape:transform-center-y="4.3991348"
         inkscape:transform-center-x="1.1699137" /><path
         style="fill:#a42020;fill-opacity:1;fill-rule:evenodd;stroke:#000000;stroke-width:0.264583px;stroke-linecap:butt;stroke-linejoin:miter;stroke-opacity:1"
         d="m 158.20068,99.187118 h 18.00884 c 0,0 -0.37541,6.649412 -9.00442,6.649412 -8.62901,0 -9.00442,-6.649412 -9.00442,-6.649412 z"
         id="path852"
         sodipodi:nodetypes="cczc" /><ellipse
         style="opacity:1;fill:#3a1b1b;fill-opacity:1;fill-rule:evenodd;stroke:#656565;stroke-width:0.267016;stroke-linecap:round;stroke-dasharray:none;stroke-opacity:1"
         id="path853"
         cx="167.20819"
         cy="99.326515"
         rx="9.0130701"
         ry="1.9615315" /><path
         style="fill:#d62929;fill-opacity:1;fill-rule:evenodd;stroke:none;stroke-width:0.264583px;stroke-linecap:butt;stroke-linejoin:miter;stroke-opacity:1"
         d="m 159.01454,100.57241 c 0,0 1.32902,0.75793 4.51953,0.96971 0.78467,0.0521 2.68618,0.22711 4.43024,0.23961 1.74406,0.0125 4.57418,-0.48201 4.57418,-0.48201 0,0 -1.17116,1.90778 -1.76626,2.54549 -0.59509,0.63771 -2.28573,1.54114 -2.28573,1.54114 0,0 -1.64865,0.18792 -3.42103,-0.1467 -1.77238,-0.33462 -3.6685,-1.19177 -4.16346,-1.61955 -0.98991,-0.85556 -1.88747,-3.04769 -1.88747,-3.04769 z"
         id="path856"
         sodipodi:nodetypes="cssczczsc" /><path
         id="rect853"
         style="opacity:1;fill:#3f3f3f;fill-opacity:1;fill-rule:evenodd;stroke:#000000;stroke-width:0.264583;stroke-linecap:round"
         d="m 166.57805,104.86683 c 0,0 0.12545,-0.4408 0.72729,-0.4408 0.60183,0 0.72728,0.4408 0.72728,0.4408 v 8.79662 c 0,0 -0.0846,0.51426 -0.72728,0.51426 -0.6427,0 -0.72729,-0.51426 -0.72729,-0.51426 z"
         sodipodi:nodetypes="czcczcc" /><path
         style="fill:#de5151;fill-opacity:1;fill-rule:evenodd;stroke:none;stroke-width:0.264583px;stroke-linecap:butt;stroke-linejoin:miter;stroke-opacity:1"
         d="m 159.04917,100.71094 c 0,0 3.1299,0.7233 4.69269,0.90045 1.56279,0.17715 4.64074,0.13856 4.64074,0.13856 0,0 -0.6863,1.49219 -1.2814,2.1299 -0.59509,0.63771 -1.87014,1.43724 -1.87014,1.43724 0,0 -3.33914,-0.84143 -4.32905,-1.69699 -0.98991,-0.85556 -1.85284,-2.90916 -1.85284,-2.90916 z"
         id="path857"
         sodipodi:nodetypes="czczczc" /><path
         id="path854"
         style="opacity:1;fill:#9d9d9d;fill-opacity:1;fill-rule:evenodd;stroke:none;stroke-width:0.167517;stroke-linecap:round"
         d="m 166.89379,105.47263 c 0,0 0.0558,-0.39763 0.32319,-0.39763 0.26745,0 0.32319,0.39763 0.32319,0.39763 v 7.93506 c 0,0 -0.0376,0.46389 -0.32319,0.46389 -0.28561,0 -0.32319,-0.46389 -0.32319,-0.46389 z"
         sodipodi:nodetypes="czcczcc" /><path
         style="fill:none;fill-rule:evenodd;stroke:#656565;stroke-width:0.529167;stroke-linecap:butt;stroke-linejoin:miter;stroke-dasharray:none;stroke-opacity:1"
         d="m 167.17047,97.386234 v 3.844196"
         id="path859" /><path
         style="fill:none;fill-rule:evenodd;stroke:#656565;stroke-width:0.521967;stroke-linecap:butt;stroke-linejoin:miter;stroke-dasharray:none;stroke-opacity:1"
         d="m 168.75798,97.490131 v 3.740299"
         id="path860" /><path
         style="fill:none;fill-rule:evenodd;stroke:#656565;stroke-width:0.517111;stroke-linecap:butt;stroke-linejoin:miter;stroke-dasharray:none;stroke-opacity:1"
         d="m 170.34549,97.490131 v 3.671039"
         id="path861" /><path
         style="fill:none;fill-rule:evenodd;stroke:#656565;stroke-width:0.494034;stroke-linecap:butt;stroke-linejoin:miter;stroke-dasharray:none;stroke-opacity:1"
         d="m 171.933,97.663293 v 3.350687"
         id="path862" /><path
         style="fill:none;fill-rule:evenodd;stroke:#656565;stroke-width:0.455511;stroke-linecap:butt;stroke-linejoin:miter;stroke-dasharray:none;stroke-opacity:1"
         d="m 173.52051,97.923036 v 2.848514"
         id="path863" /><path
         style="fill:none;fill-rule:evenodd;stroke:#656565;stroke-width:0.378368;stroke-linecap:butt;stroke-linejoin:miter;stroke-dasharray:none;stroke-opacity:1"
         d="m 175.10802,98.373257 v 1.965393"
         id="path866" /><path
         style="fill:none;fill-rule:evenodd;stroke:#656565;stroke-width:0.521967;stroke-linecap:butt;stroke-linejoin:miter;stroke-dasharray:none;stroke-opacity:1"
         d="m 165.58296,97.490131 v 3.740299"
         id="path867" /><path
         style="fill:none;fill-rule:evenodd;stroke:#656565;stroke-width:0.517111;stroke-linecap:butt;stroke-linejoin:miter;stroke-dasharray:none;stroke-opacity:1"
         d="m 163.99545,97.490131 v 3.671039"
         id="path868" /><path
         style="fill:none;fill-rule:evenodd;stroke:#656565;stroke-width:0.494034;stroke-linecap:butt;stroke-linejoin:miter;stroke-dasharray:none;stroke-opacity:1"
         d="m 162.40794,97.663293 v 3.350687"
         id="path869" /><path
         style="fill:none;fill-rule:evenodd;stroke:#656565;stroke-width:0.455511;stroke-linecap:butt;stroke-linejoin:miter;stroke-dasharray:none;stroke-opacity:1"
         d="m 160.82043,97.923036 v 2.848514"
         id="path870" /><path
         style="fill:none;fill-rule:evenodd;stroke:#656565;stroke-width:0.378368;stroke-linecap:butt;stroke-linejoin:miter;stroke-dasharray:none;stroke-opacity:1"
         d="m 159.23292,98.373257 v 1.965393"
         id="path871" /><g
         id="g905"
         transform="matrix(1.4428517,0,0,1.3792074,-67.940075,-39.11408)"><path
           style="fill:#da5a22;fill-opacity:1;fill-rule:evenodd;stroke:#da5a22;stroke-width:0.296421px;stroke-linecap:butt;stroke-linejoin:miter;stroke-opacity:1"
           d="m 163.18725,97.911301 c 0,0 -0.63598,-0.431827 -0.95874,0.223755 -0.32275,0.655583 0.52984,1.402203 0.52984,1.402203 0,0 1.04201,1.110181 2.48514,1.148611 1.44315,0.0384 2.33378,-0.52209 2.33378,-0.52209 0,0 0.80409,-0.394848 0.5046,-1.059114 -0.29949,-0.664266 -0.78213,-0.537015 -0.78213,-0.537015 0,0 -1.50991,0.813498 -2.24546,0.641432 -0.73556,-0.172066 -1.86703,-1.297782 -1.86703,-1.297782 z"
           id="path897"
           sodipodi:nodetypes="czczczczc" /><path
           style="fill:#e9946e;fill-opacity:1;fill-rule:evenodd;stroke:none;stroke-width:0.264583px;stroke-linecap:butt;stroke-linejoin:miter;stroke-opacity:1"
           d="m 162.63363,97.775849 c 0.2109,0.03713 0.24176,0.0061 0.47619,0.09519 0.33811,0.128432 0.69581,0.542388 0.99568,0.744598 0.36707,0.247528 0.71974,0.491808 1.16018,0.5368 0.40876,0.04176 0.77985,-0.08415 1.16885,-0.216452 0.30352,-0.103226 0.56915,-0.316125 0.88312,-0.380957 0.065,-0.01342 0.13408,-0.01314 0.19914,0 0.0583,0.01178 0.17316,-0.02597 0.17316,-0.02597 0,0 -0.0646,0.240223 -0.12129,0.27706 -0.34043,0.221097 -0.67153,0.34976 -1.03031,0.450222 -0.44149,0.123622 -0.86966,0.263786 -1.3247,0.207792 -0.48955,-0.06024 -0.90674,-0.280552 -1.33334,-0.528143 -0.43147,-0.250424 -0.96814,-0.536075 -1.22945,-0.961048 -0.0306,-0.04971 -0.0173,-0.199098 -0.0173,-0.199098 z"
           id="path898"
           sodipodi:nodetypes="csssssscssssscc" /><path
           style="fill:#ed723c;fill-opacity:1;fill-rule:evenodd;stroke:none;stroke-width:0.264583px;stroke-linecap:butt;stroke-linejoin:miter;stroke-opacity:1"
           d="m 162.60554,97.795968 c 0.13297,0.06873 0.1034,0.286387 0.19591,0.404063 0.1308,0.166388 0.31427,0.285769 0.48977,0.404067 0.27713,0.186804 0.58138,0.330696 0.8816,0.47753 0.2282,0.111611 0.45445,0.233653 0.69793,0.30611 0.21416,0.06373 0.43787,0.117086 0.6612,0.110199 0.32656,-0.01007 0.64101,-0.130287 0.95506,-0.220398 0.24069,-0.06906 0.48874,-0.127987 0.71018,-0.244888 0.17542,-0.0926 0.3501,-0.203072 0.47753,-0.355089 0.0234,-0.02798 0.013,-0.104172 0.049,-0.09795 0.16611,0.02873 0.0979,0.453043 0.0612,0.50202 -0.0367,0.04898 -0.34285,0.440797 -0.61222,0.575488 -0.0701,0.03506 -0.49149,0.249828 -0.96731,0.342841 -0.78604,0.153659 -1.0916,0.05074 -1.61626,-0.110201 -0.3155,-0.10337 -0.6424,-0.213733 -0.94282,-0.355087 -0.22491,-0.10583 -0.3556,-0.238176 -0.55099,-0.391821 -0.14073,-0.110662 -0.3306,-0.330599 -0.36734,-0.391821 -0.0367,-0.06122 -0.25711,-0.526504 -0.24489,-0.58773 0.0122,-0.06122 -0.0343,-0.26942 0.049,-0.355086 0.0173,-0.0178 0.0514,-0.02364 0.0734,-0.01225 z"
           id="path899"
           sodipodi:nodetypes="ssssssssssssssssssss" /><path
           style="fill:#923c16;fill-opacity:1;fill-rule:evenodd;stroke:none;stroke-width:0.264583px;stroke-linecap:butt;stroke-linejoin:miter;stroke-opacity:1"
           d="m 167.0646,98.599386 c 0,0 0.0395,0.484579 0.14693,0.697931 0.1074,0.213352 0.47754,0.538753 0.47754,0.538753 0,0 -0.54542,-0.228629 -0.6612,-0.465286 -0.11578,-0.236657 0.0367,-0.771398 0.0367,-0.771398 z"
           id="path900"
           sodipodi:nodetypes="czczc" /><path
           style="fill:#923c16;fill-opacity:1;fill-rule:evenodd;stroke:none;stroke-width:0.264583px;stroke-linecap:butt;stroke-linejoin:miter;stroke-opacity:1"
           d="m 166.19315,98.963745 c 0,0 -0.22436,0.447486 -0.17143,0.685687 0.0529,0.238199 0.47754,0.587728 0.47754,0.587728 0,0 -0.6845,-0.23629 -0.74691,-0.526506 -0.0624,-0.290218 0.4408,-0.746909 0.4408,-0.746909 z"
           id="path901"
           sodipodi:nodetypes="czczc" /><path
           style="fill:#923c16;fill-opacity:1;fill-rule:evenodd;stroke:none;stroke-width:0.264583px;stroke-linecap:butt;stroke-linejoin:miter;stroke-opacity:1"
           d="m 165.17016,99.102649 c 0,0 -0.38957,0.376171 -0.43573,0.635607 -0.0462,0.259438 0.19956,0.785484 0.19956,0.785484 0,0 -0.47108,-0.525426 -0.41728,-0.821974 0.0538,-0.296551 0.65345,-0.599117 0.65345,-0.599117 z"
           id="path902"
           sodipodi:nodetypes="czczc" /><path
           style="fill:#923c16;fill-opacity:1;fill-rule:evenodd;stroke:none;stroke-width:0.264583px;stroke-linecap:butt;stroke-linejoin:miter;stroke-opacity:1"
           d="m 164.20115,98.670753 c 0,0 -0.51662,0.198962 -0.63671,0.440795 -0.12009,0.241833 0.0367,0.844864 0.0367,0.844864 0,0 0.0538,-0.527602 0.15917,-0.746907 0.10536,-0.219305 0.44084,-0.538752 0.44084,-0.538752 z"
           id="path903"
           sodipodi:nodetypes="czczc" /><path
           style="fill:#923c16;fill-opacity:1;fill-rule:evenodd;stroke:none;stroke-width:0.264583px;stroke-linecap:butt;stroke-linejoin:miter;stroke-opacity:1"
           d="m 163.57126,98.10961 c 0,0 -0.46121,-0.09878 -0.63671,0.06122 -0.1755,0.159996 -0.14693,0.771398 -0.14693,0.771398 0,0 0.15037,-0.4582 0.29386,-0.599977 0.14349,-0.141777 0.48978,-0.232641 0.48978,-0.232641 z"
           id="path904"
           sodipodi:nodetypes="czczc" /><path
           style="fill:#6a2b10;fill-opacity:1;fill-rule:evenodd;stroke:none;stroke-width:0.32181px;stroke-linecap:butt;stroke-linejoin:miter;stroke-opacity:1"
           d="m 168.24714,99.213256 -0.12286,-0.349978 -0.3202,-0.282965 0.25691,0.305301 -0.27552,-0.134034 0.25317,0.171268 -0.0744,0.193605 0.10423,-0.167544 0.041,0.230837 0.004,-0.215944 z"
           id="path905" /></g><g
         id="g880"
         transform="matrix(1.4428517,0,0,1.3792074,-73.327608,-38.134528)"><path
           style="fill:#da5a22;fill-opacity:1;fill-rule:evenodd;stroke:#da5a22;stroke-width:0.296421px;stroke-linecap:butt;stroke-linejoin:miter;stroke-opacity:1"
           d="m 163.18725,97.911301 c 0,0 -0.63598,-0.431827 -0.95874,0.223755 -0.32275,0.655583 0.52984,1.402203 0.52984,1.402203 0,0 1.04201,1.110181 2.48514,1.148611 1.44315,0.0384 2.33378,-0.52209 2.33378,-0.52209 0,0 0.80409,-0.394848 0.5046,-1.059114 -0.29949,-0.664266 -0.78213,-0.537015 -0.78213,-0.537015 0,0 -1.50991,0.813498 -2.24546,0.641432 -0.73556,-0.172066 -1.86703,-1.297782 -1.86703,-1.297782 z"
           id="path872"
           sodipodi:nodetypes="czczczczc" /><path
           style="fill:#e9946e;fill-opacity:1;fill-rule:evenodd;stroke:none;stroke-width:0.264583px;stroke-linecap:butt;stroke-linejoin:miter;stroke-opacity:1"
           d="m 162.63363,97.775849 c 0.2109,0.03713 0.24176,0.0061 0.47619,0.09519 0.33811,0.128432 0.69581,0.542388 0.99568,0.744598 0.36707,0.247528 0.71974,0.491808 1.16018,0.5368 0.40876,0.04176 0.77985,-0.08415 1.16885,-0.216452 0.30352,-0.103226 0.56915,-0.316125 0.88312,-0.380957 0.065,-0.01342 0.13408,-0.01314 0.19914,0 0.0583,0.01178 0.17316,-0.02597 0.17316,-0.02597 0,0 -0.0646,0.240223 -0.12129,0.27706 -0.34043,0.221097 -0.67153,0.34976 -1.03031,0.450222 -0.44149,0.123622 -0.86966,0.263786 -1.3247,0.207792 -0.48955,-0.06024 -0.90674,-0.280552 -1.33334,-0.528143 -0.43147,-0.250424 -0.96814,-0.536075 -1.22945,-0.961048 -0.0306,-0.04971 -0.0173,-0.199098 -0.0173,-0.199098 z"
           id="path873"
           sodipodi:nodetypes="csssssscssssscc" /><path
           style="fill:#ed723c;fill-opacity:1;fill-rule:evenodd;stroke:none;stroke-width:0.264583px;stroke-linecap:butt;stroke-linejoin:miter;stroke-opacity:1"
           d="m 162.60554,97.795968 c 0.13297,0.06873 0.1034,0.286387 0.19591,0.404063 0.1308,0.166388 0.31427,0.285769 0.48977,0.404067 0.27713,0.186804 0.58138,0.330696 0.8816,0.47753 0.2282,0.111611 0.45445,0.233653 0.69793,0.30611 0.21416,0.06373 0.43787,0.117086 0.6612,0.110199 0.32656,-0.01007 0.64101,-0.130287 0.95506,-0.220398 0.24069,-0.06906 0.48874,-0.127987 0.71018,-0.244888 0.17542,-0.0926 0.3501,-0.203072 0.47753,-0.355089 0.0234,-0.02798 0.013,-0.104172 0.049,-0.09795 0.16611,0.02873 0.0979,0.453043 0.0612,0.50202 -0.0367,0.04898 -0.34285,0.440797 -0.61222,0.575488 -0.0701,0.03506 -0.49149,0.249828 -0.96731,0.342841 -0.78604,0.153659 -1.0916,0.05074 -1.61626,-0.110201 -0.3155,-0.10337 -0.6424,-0.213733 -0.94282,-0.355087 -0.22491,-0.10583 -0.3556,-0.238176 -0.55099,-0.391821 -0.14073,-0.110662 -0.3306,-0.330599 -0.36734,-0.391821 -0.0367,-0.06122 -0.25711,-0.526504 -0.24489,-0.58773 0.0122,-0.06122 -0.0343,-0.26942 0.049,-0.355086 0.0173,-0.0178 0.0514,-0.02364 0.0734,-0.01225 z"
           id="path874"
           sodipodi:nodetypes="ssssssssssssssssssss" /><path
           style="fill:#923c16;fill-opacity:1;fill-rule:evenodd;stroke:none;stroke-width:0.264583px;stroke-linecap:butt;stroke-linejoin:miter;stroke-opacity:1"
           d="m 167.0646,98.599386 c 0,0 0.0395,0.484579 0.14693,0.697931 0.1074,0.213352 0.47754,0.538753 0.47754,0.538753 0,0 -0.54542,-0.228629 -0.6612,-0.465286 -0.11578,-0.236657 0.0367,-0.771398 0.0367,-0.771398 z"
           id="path875"
           sodipodi:nodetypes="czczc" /><path
           style="fill:#923c16;fill-opacity:1;fill-rule:evenodd;stroke:none;stroke-width:0.264583px;stroke-linecap:butt;stroke-linejoin:miter;stroke-opacity:1"
           d="m 166.19315,98.963745 c 0,0 -0.22436,0.447486 -0.17143,0.685687 0.0529,0.238199 0.47754,0.587728 0.47754,0.587728 0,0 -0.6845,-0.23629 -0.74691,-0.526506 -0.0624,-0.290218 0.4408,-0.746909 0.4408,-0.746909 z"
           id="path876"
           sodipodi:nodetypes="czczc" /><path
           style="fill:#923c16;fill-opacity:1;fill-rule:evenodd;stroke:none;stroke-width:0.264583px;stroke-linecap:butt;stroke-linejoin:miter;stroke-opacity:1"
           d="m 165.17016,99.102649 c 0,0 -0.38957,0.376171 -0.43573,0.635607 -0.0462,0.259438 0.19956,0.785484 0.19956,0.785484 0,0 -0.47108,-0.525426 -0.41728,-0.821974 0.0538,-0.296551 0.65345,-0.599117 0.65345,-0.599117 z"
           id="path877"
           sodipodi:nodetypes="czczc" /><path
           style="fill:#923c16;fill-opacity:1;fill-rule:evenodd;stroke:none;stroke-width:0.264583px;stroke-linecap:butt;stroke-linejoin:miter;stroke-opacity:1"
           d="m 164.20115,98.670753 c 0,0 -0.51662,0.198962 -0.63671,0.440795 -0.12009,0.241833 0.0367,0.844864 0.0367,0.844864 0,0 0.0538,-0.527602 0.15917,-0.746907 0.10536,-0.219305 0.44084,-0.538752 0.44084,-0.538752 z"
           id="path878"
           sodipodi:nodetypes="czczc" /><path
           style="fill:#923c16;fill-opacity:1;fill-rule:evenodd;stroke:none;stroke-width:0.264583px;stroke-linecap:butt;stroke-linejoin:miter;stroke-opacity:1"
           d="m 163.57126,98.10961 c 0,0 -0.46121,-0.09878 -0.63671,0.06122 -0.1755,0.159996 -0.14693,0.771398 -0.14693,0.771398 0,0 0.15037,-0.4582 0.29386,-0.599977 0.14349,-0.141777 0.48978,-0.232641 0.48978,-0.232641 z"
           id="path879"
           sodipodi:nodetypes="czczc" /><path
           style="fill:#6a2b10;fill-opacity:1;fill-rule:evenodd;stroke:none;stroke-width:0.32181px;stroke-linecap:butt;stroke-linejoin:miter;stroke-opacity:1"
           d="m 168.24714,99.213256 -0.12286,-0.349978 -0.3202,-0.282965 0.25691,0.305301 -0.27552,-0.134034 0.25317,0.171268 -0.0744,0.193605 0.10423,-0.167544 0.041,0.230837 0.004,-0.215944 z"
           id="path880" /></g></g></g></svg>
