<?xml version="1.0" encoding="UTF-8" standalone="no"?>
<!-- Created with Inkscape (http://www.inkscape.org/) -->

<svg
   width="181.34006"
   height="99.438629"
   viewBox="0 0 47.979556 26.309804"
   version="1.1"
   id="svg1"
   xml:space="preserve"
   sodipodi:docname="bol.svg"
   inkscape:version="1.3 (0e150ed6c4, 2023-07-21)"
   xmlns:inkscape="http://www.inkscape.org/namespaces/inkscape"
   xmlns:sodipodi="http://sodipodi.sourceforge.net/DTD/sodipodi-0.dtd"
   xmlns:xlink="http://www.w3.org/1999/xlink"
   xmlns="http://www.w3.org/2000/svg"
   xmlns:svg="http://www.w3.org/2000/svg"><sodipodi:namedview
     id="namedview1"
     pagecolor="#505050"
     bordercolor="#eeeeee"
     borderopacity="1"
     inkscape:showpageshadow="0"
     inkscape:pageopacity="0"
     inkscape:pagecheckerboard="0"
     inkscape:deskcolor="#121212"
     inkscape:document-units="px"
     inkscape:zoom="16"
     inkscape:cx="354.8125"
     inkscape:cy="915.375"
     inkscape:window-width="1280"
     inkscape:window-height="961"
     inkscape:window-x="-8"
     inkscape:window-y="-8"
     inkscape:window-maximized="1"
     inkscape:current-layer="layer1" /><defs
     id="defs1"><linearGradient
       id="linearGradient885"
       inkscape:collect="always"><stop
         style="stop-color:#888888;stop-opacity:1;"
         offset="0"
         id="stop885" /><stop
         style="stop-color:#eeeeee;stop-opacity:1;"
         offset="1"
         id="stop886" /></linearGradient><linearGradient
       id="linearGradient883"
       inkscape:collect="always"><stop
         style="stop-color:#b5c6bc;stop-opacity:1;"
         offset="0"
         id="stop883" /><stop
         style="stop-color:#768171;stop-opacity:1;"
         offset="1"
         id="stop884" /></linearGradient><linearGradient
       id="linearGradient881"
       inkscape:collect="always"><stop
         style="stop-color:#696969;stop-opacity:1;"
         offset="0"
         id="stop881" /><stop
         style="stop-color:#f5f3f4;stop-opacity:1;"
         offset="1"
         id="stop882" /></linearGradient><linearGradient
       id="linearGradient846"
       inkscape:collect="always"><stop
         style="stop-color:#a3a3a3;stop-opacity:1;"
         offset="0"
         id="stop848" /><stop
         style="stop-color:#e4e5e7;stop-opacity:1;"
         offset="0.92447919"
         id="stop850" /><stop
         style="stop-color:#cdcfd3;stop-opacity:1;"
         offset="1"
         id="stop849" /></linearGradient><linearGradient
       id="linearGradient841"
       inkscape:collect="always"><stop
         style="stop-color:#000000;stop-opacity:1;"
         offset="0.49739584"
         id="stop841" /><stop
         style="stop-color:#1a1a1a;stop-opacity:1;"
         offset="1"
         id="stop844" /></linearGradient><linearGradient
       id="linearGradient715"
       inkscape:collect="always"><stop
         style="stop-color:#8a8a8a;stop-opacity:1;"
         offset="0.00260417"
         id="stop716" /><stop
         style="stop-color:#d3d3d3;stop-opacity:1;"
         offset="0.12890624"
         id="stop718" /><stop
         style="stop-color:#d3d3d3;stop-opacity:1;"
         offset="0.750651"
         id="stop719" /><stop
         style="stop-color:#8a8a8a;stop-opacity:1;"
         offset="1"
         id="stop717" /></linearGradient><linearGradient
       id="linearGradient712"
       inkscape:collect="always"><stop
         style="stop-color:#575757;stop-opacity:1;"
         offset="0"
         id="stop712" /><stop
         style="stop-color:#272727;stop-opacity:1;"
         offset="0.19270833"
         id="stop714" /><stop
         style="stop-color:#272727;stop-opacity:1;"
         offset="0.75"
         id="stop715" /><stop
         style="stop-color:#575757;stop-opacity:1;"
         offset="1"
         id="stop713" /></linearGradient><linearGradient
       id="linearGradient698"
       inkscape:collect="always"><stop
         style="stop-color:#d7d7d5;stop-opacity:0.11764706;"
         offset="0"
         id="stop698" /><stop
         style="stop-color:#ececeb;stop-opacity:1;"
         offset="0.49739584"
         id="stop700" /><stop
         style="stop-color:#d7d7d5;stop-opacity:0.04201681;"
         offset="0.99739581"
         id="stop699" /></linearGradient><linearGradient
       inkscape:collect="always"
       id="linearGradient685"><stop
         style="stop-color:#8d7959;stop-opacity:1;"
         offset="0"
         id="stop682" /><stop
         id="stop683"
         offset="0.46685138"
         style="stop-color:#a3a3a3;stop-opacity:1;" /><stop
         id="stop684"
         offset="0.71294558"
         style="stop-color:#796451;stop-opacity:1;" /><stop
         style="stop-color:#ffffff;stop-opacity:1;"
         offset="1"
         id="stop685" /></linearGradient><linearGradient
       id="linearGradient649"
       inkscape:collect="always"><stop
         style="stop-color:#ffffff;stop-opacity:1;"
         offset="0"
         id="stop649" /><stop
         style="stop-color:#ec080c;stop-opacity:1;"
         offset="0.48113209"
         id="stop651" /><stop
         style="stop-color:#ec080c;stop-opacity:1;"
         offset="1"
         id="stop650" /></linearGradient><linearGradient
       id="swatch2"
       inkscape:swatch="solid"><stop
         style="stop-color:#000000;stop-opacity:1;"
         offset="0"
         id="stop2-3" /></linearGradient><linearGradient
       inkscape:collect="always"
       xlink:href="#linearGradient385-2"
       id="linearGradient393"
       gradientUnits="userSpaceOnUse"
       gradientTransform="matrix(1.084193,0,0,0.88087283,-82.67547,89.39067)"
       x1="174.63815"
       y1="59.065517"
       x2="174.86061"
       y2="77.085503" /><linearGradient
       id="linearGradient385-2"
       inkscape:collect="always"><stop
         style="stop-color:#a97948;stop-opacity:1;"
         offset="0"
         id="stop385" /><stop
         style="stop-color:#d2ad81;stop-opacity:1;"
         offset="1"
         id="stop386" /></linearGradient><linearGradient
       inkscape:collect="always"
       xlink:href="#linearGradient385-2"
       id="linearGradient394"
       gradientUnits="userSpaceOnUse"
       gradientTransform="matrix(1.0633235,0,0,0.94366172,-74.406609,82.50082)"
       x1="174.63815"
       y1="59.065517"
       x2="174.86061"
       y2="77.085503" /><linearGradient
       inkscape:collect="always"
       xlink:href="#linearGradient385-2"
       id="linearGradient386-3"
       x1="174.63815"
       y1="59.065517"
       x2="174.86061"
       y2="77.085503"
       gradientUnits="userSpaceOnUse"
       gradientTransform="matrix(1.0691199,0,0,0.8625257,-113.42846,90.45802)" /><linearGradient
       inkscape:collect="always"
       xlink:href="#linearGradient385-2"
       id="linearGradient395"
       gradientUnits="userSpaceOnUse"
       gradientTransform="matrix(1.0633235,0,0,0.94366172,-107.77255,82.50082)"
       x1="174.63815"
       y1="59.065517"
       x2="174.86061"
       y2="77.085503" /><linearGradient
       inkscape:collect="always"
       xlink:href="#linearGradient389-7"
       id="linearGradient390"
       x1="195.46033"
       y1="58.067944"
       x2="195.45372"
       y2="59.235909"
       gradientUnits="userSpaceOnUse"
       gradientTransform="translate(-101.38915,82.82175)" /><linearGradient
       id="linearGradient389-7"
       inkscape:collect="always"><stop
         style="stop-color:#cda67a;stop-opacity:1;"
         offset="0"
         id="stop389" /><stop
         style="stop-color:#9b6e3b;stop-opacity:1;"
         offset="1"
         id="stop390" /></linearGradient><linearGradient
       inkscape:collect="always"
       xlink:href="#linearGradient391"
       id="linearGradient392"
       x1="214.52832"
       y1="55.386536"
       x2="215.04631"
       y2="55.996109"
       gradientUnits="userSpaceOnUse"
       gradientTransform="translate(-101.38915,82.82175)" /><linearGradient
       id="linearGradient391"
       inkscape:collect="always"><stop
         style="stop-color:#d0aa7e;stop-opacity:1;"
         offset="0.00209644"
         id="stop391" /><stop
         style="stop-color:#a37745;stop-opacity:1;"
         offset="1"
         id="stop392" /></linearGradient><linearGradient
       inkscape:collect="always"
       xlink:href="#linearGradient387-8"
       id="linearGradient388-5"
       x1="169.59625"
       y1="55.412209"
       x2="217.64272"
       y2="55.412209"
       gradientUnits="userSpaceOnUse"
       gradientTransform="translate(-101.38915,82.82175)" /><linearGradient
       id="linearGradient387-8"
       inkscape:collect="always"><stop
         style="stop-color:#c69d70;stop-opacity:1;"
         offset="0"
         id="stop387" /><stop
         style="stop-color:#d2ad81;stop-opacity:1;"
         offset="1"
         id="stop388" /></linearGradient><linearGradient
       inkscape:collect="always"
       id="linearGradient4195"><stop
         style="stop-color:#dfe0e2;stop-opacity:1"
         offset="0"
         id="stop4197" /><stop
         style="stop-color:#cd935f;stop-opacity:0;"
         offset="1"
         id="stop4199" /></linearGradient><linearGradient
       inkscape:collect="always"
       xlink:href="#linearGradient4195"
       id="linearGradient626"
       gradientUnits="userSpaceOnUse"
       gradientTransform="matrix(0.26458333,0,0,0.26458333,247.84122,-26.739921)"
       x1="258.6008"
       y1="225.11188"
       x2="348.50439"
       y2="228.14232" /><linearGradient
       inkscape:collect="always"
       xlink:href="#linearGradient649"
       id="linearGradient650"
       x1="75.609123"
       y1="132.86375"
       x2="75.645851"
       y2="134.66368"
       gradientUnits="userSpaceOnUse"
       gradientTransform="rotate(-45.817848,74.896829,134.72662)" /><linearGradient
       inkscape:collect="always"
       xlink:href="#linearGradient649"
       id="linearGradient652"
       gradientUnits="userSpaceOnUse"
       gradientTransform="rotate(-30.945312,74.756881,134.28753)"
       x1="75.609123"
       y1="132.86375"
       x2="75.645851"
       y2="134.66368" /><linearGradient
       inkscape:collect="always"
       xlink:href="#linearGradient649"
       id="linearGradient653"
       gradientUnits="userSpaceOnUse"
       gradientTransform="rotate(31.979665,77.627085,138.0915)"
       x1="75.609123"
       y1="132.86375"
       x2="75.645851"
       y2="134.66368" /><linearGradient
       inkscape:collect="always"
       xlink:href="#linearGradient649"
       id="linearGradient654"
       gradientUnits="userSpaceOnUse"
       gradientTransform="rotate(-2.8360304,65.187458,91.322343)"
       x1="75.609123"
       y1="132.86375"
       x2="75.645851"
       y2="134.66368" /><linearGradient
       inkscape:collect="always"
       xlink:href="#linearGradient649"
       id="linearGradient655"
       gradientUnits="userSpaceOnUse"
       gradientTransform="rotate(-2.8360304,65.69183,130.93037)"
       x1="75.609123"
       y1="132.86375"
       x2="75.645851"
       y2="134.66368" /><linearGradient
       inkscape:collect="always"
       xlink:href="#linearGradient649"
       id="linearGradient656"
       gradientUnits="userSpaceOnUse"
       gradientTransform="rotate(-38.392436,75.327697,133.2857)"
       x1="75.609123"
       y1="132.86375"
       x2="75.645851"
       y2="134.66368" /><linearGradient
       inkscape:collect="always"
       xlink:href="#linearGradient649"
       id="linearGradient657"
       gradientUnits="userSpaceOnUse"
       gradientTransform="rotate(24.536281,76.897348,135.05605)"
       x1="75.609123"
       y1="132.86375"
       x2="75.645851"
       y2="134.66368" /><linearGradient
       inkscape:collect="always"
       xlink:href="#linearGradient649"
       id="linearGradient658"
       gradientUnits="userSpaceOnUse"
       gradientTransform="rotate(5.2747442,81.293788,145.42248)"
       x1="75.609123"
       y1="132.86375"
       x2="75.645851"
       y2="134.66368" /><linearGradient
       inkscape:collect="always"
       xlink:href="#linearGradient649"
       id="linearGradient659"
       gradientUnits="userSpaceOnUse"
       gradientTransform="rotate(-24.658393,75.433528,130.09688)"
       x1="75.609123"
       y1="132.86375"
       x2="75.645851"
       y2="134.66368" /><linearGradient
       inkscape:collect="always"
       xlink:href="#linearGradient649"
       id="linearGradient660"
       gradientUnits="userSpaceOnUse"
       gradientTransform="rotate(55.836218,77.204034,136.28495)"
       x1="75.609123"
       y1="132.86375"
       x2="75.645851"
       y2="134.66368" /><linearGradient
       inkscape:collect="always"
       xlink:href="#linearGradient649"
       id="linearGradient661"
       gradientUnits="userSpaceOnUse"
       gradientTransform="rotate(-61.608751,76.025132,132.87901)"
       x1="75.609123"
       y1="132.86375"
       x2="75.645851"
       y2="134.66368" /><linearGradient
       inkscape:collect="always"
       xlink:href="#linearGradient649"
       id="linearGradient662"
       gradientUnits="userSpaceOnUse"
       gradientTransform="rotate(-61.608751,74.735131,134.94925)"
       x1="75.609123"
       y1="132.86375"
       x2="75.645851"
       y2="134.66368" /><linearGradient
       inkscape:collect="always"
       xlink:href="#linearGradient685"
       id="linearGradient687"
       gradientUnits="userSpaceOnUse"
       x1="155.32874"
       y1="233.8138"
       x2="140.29788"
       y2="223.0085"
       gradientTransform="matrix(0.2681782,0,0,0.2681782,48.549948,77.617675)" /><linearGradient
       inkscape:collect="always"
       xlink:href="#linearGradient698"
       id="linearGradient699"
       x1="124.56026"
       y1="227.29037"
       x2="124.55479"
       y2="229.02679"
       gradientUnits="userSpaceOnUse" /><linearGradient
       inkscape:collect="always"
       xlink:href="#linearGradient698"
       id="linearGradient702"
       x1="126.24343"
       y1="227.59412"
       x2="126.26938"
       y2="228.87451"
       gradientUnits="userSpaceOnUse" /><linearGradient
       inkscape:collect="always"
       xlink:href="#linearGradient712"
       id="linearGradient713"
       x1="125.52441"
       y1="230.35126"
       x2="125.5244"
       y2="232.27776"
       gradientUnits="userSpaceOnUse" /><linearGradient
       inkscape:collect="always"
       xlink:href="#linearGradient715"
       id="linearGradient717"
       x1="125.48692"
       y1="230.4769"
       x2="125.49104"
       y2="232.04785"
       gradientUnits="userSpaceOnUse" /><linearGradient
       inkscape:collect="always"
       xlink:href="#linearGradient698"
       id="linearGradient814"
       gradientUnits="userSpaceOnUse"
       x1="126.24343"
       y1="227.59412"
       x2="126.26938"
       y2="228.87451" /><linearGradient
       inkscape:collect="always"
       xlink:href="#linearGradient698"
       id="linearGradient815"
       gradientUnits="userSpaceOnUse"
       x1="124.56026"
       y1="227.29037"
       x2="124.55479"
       y2="229.02679" /><linearGradient
       inkscape:collect="always"
       xlink:href="#linearGradient712"
       id="linearGradient816"
       gradientUnits="userSpaceOnUse"
       x1="125.52441"
       y1="230.35126"
       x2="125.5244"
       y2="232.27776" /><linearGradient
       inkscape:collect="always"
       xlink:href="#linearGradient715"
       id="linearGradient817"
       gradientUnits="userSpaceOnUse"
       x1="125.48692"
       y1="230.4769"
       x2="125.49104"
       y2="232.04785" /><linearGradient
       inkscape:collect="always"
       xlink:href="#linearGradient841"
       id="linearGradient844"
       x1="100.71801"
       y1="239.45686"
       x2="100.88403"
       y2="240.80458"
       gradientUnits="userSpaceOnUse" /><linearGradient
       inkscape:collect="always"
       xlink:href="#linearGradient846"
       id="linearGradient849"
       x1="100.91819"
       y1="241.69006"
       x2="101.22162"
       y2="241.62392"
       gradientUnits="userSpaceOnUse" /><linearGradient
       inkscape:collect="always"
       xlink:href="#linearGradient881"
       id="linearGradient882"
       x1="90.382118"
       y1="242.4294"
       x2="95.58242"
       y2="242.4294"
       gradientUnits="userSpaceOnUse" /><linearGradient
       inkscape:collect="always"
       xlink:href="#linearGradient883"
       id="linearGradient884"
       x1="90.383698"
       y1="241.16148"
       x2="95.533852"
       y2="241.16148"
       gradientUnits="userSpaceOnUse" /><linearGradient
       inkscape:collect="always"
       xlink:href="#linearGradient885"
       id="linearGradient886"
       x1="91.483177"
       y1="243.97888"
       x2="94.406891"
       y2="243.97888"
       gradientUnits="userSpaceOnUse" /></defs><g
     inkscape:label="Layer 1"
     inkscape:groupmode="layer"
     id="layer1"
     transform="translate(-68.207085,-131.99914)"><g
       id="g888"><g
         id="g1283"><path
           id="rect385"
           style="fill:url(#linearGradient386-3);stroke:#421f05;stroke-width:0.263117;stroke-linecap:round;stroke-linejoin:round;stroke-dasharray:none;stroke-opacity:1"
           d="m 72.091421,140.73194 h 2.37848 v 17.07779 h -1.18924 -1.18924 z"
           sodipodi:nodetypes="cccccc" /><path
           id="path393-6"
           style="fill:url(#linearGradient394);stroke:#421f05;stroke-width:0.274468;stroke-linecap:round;stroke-linejoin:round;stroke-dasharray:none;stroke-opacity:1"
           d="m 110.10774,137.50391 h 2.36555 v 18.68426 h -1.18277 -1.18278 z"
           sodipodi:nodetypes="cccccc" /><path
           id="path394-0"
           style="fill:url(#linearGradient395);stroke:#421f05;stroke-width:0.274468;stroke-linecap:round;stroke-linejoin:round;stroke-dasharray:none;stroke-opacity:1"
           d="m 76.741521,137.50391 h 2.36555 v 18.68426 h -1.18277 -1.18278 z"
           sodipodi:nodetypes="cccccc" /><path
           id="path392-8"
           style="fill:url(#linearGradient393);stroke:#421f05;stroke-width:0.267769;stroke-linecap:round;stroke-linejoin:round;stroke-dasharray:none;stroke-opacity:1"
           d="m 105.46026,140.734 h 2.412 v 17.44106 h -1.20599 -1.20601 z"
           sodipodi:nodetypes="cccccc" /><path
           style="fill:url(#linearGradient388-5);fill-rule:evenodd;stroke:#421f05;stroke-width:0.265;stroke-linecap:butt;stroke-linejoin:miter;stroke-dasharray:none;stroke-opacity:1"
           d="m 68.504911,141.0262 h 41.844279 l 5.52017,-5.58448 H 73.538821 Z"
           id="path386-1"
           sodipodi:nodetypes="ccccc" /><path
           style="fill:url(#linearGradient390);fill-rule:evenodd;stroke:#421f05;stroke-width:0.265;stroke-linecap:butt;stroke-linejoin:miter;stroke-dasharray:none;stroke-opacity:1"
           d="m 68.563901,141.00654 v 1.10117 h 41.775459 v -1.09134 z"
           id="path388-9" /><path
           style="fill:url(#linearGradient392);fill-rule:evenodd;stroke:#421f05;stroke-width:0.264583px;stroke-linecap:butt;stroke-linejoin:miter;stroke-opacity:1"
           d="m 110.3626,142.12737 5.54438,-5.7123 -0.005,-0.78308 -5.54405,5.40952 z"
           id="path390-7"
           sodipodi:nodetypes="ccccc" /></g><g
         id="g626"
         transform="matrix(-0.04562552,0,0,0.04562552,121.96227,134.27386)"><path
           id="path620"
           style="fill:#ea1b21;fill-opacity:1;stroke:#000000;stroke-width:0.264583px;stroke-linecap:butt;stroke-linejoin:miter;stroke-opacity:1"
           d="m 307.70111,33.428967 c 0.10005,19.297148 0.30213,38.607216 4.34703,58.397469 2.66443,5.667846 4.70679,10.869214 9.26041,17.953944 l 0.75603,2.26756 c 9.8643,8.28039 38.03056,5.63641 43.27798,0.75603 l 2.4567,-5.29167 c 64.23095,-33.646639 39.72312,-73.273677 22.11182,-67.279614 -2.55771,1.372713 -5.25585,1.760735 -8.31525,-0.378271 -0.5198,-2.015871 -0.31287,-4.031821 -0.37827,-6.047693 -8.66283,10.764841 -66.71695,10.282947 -73.51645,-0.377755 z m 85.09197,12.236979 c 9.0798,1.298691 10.22923,5.840196 11.24479,8.504391 1.14385,6.355801 0.031,11.141766 -1.70067,15.497245 -4.15449,7.146735 -9.20733,13.394802 -15.12569,18.777665 -3.08429,2.080366 -5.68224,3.604553 -7.88479,4.677234 l -1.98334,0.02687 -1.13379,-0.850594 0.0946,-2.173511 c 1.24323,-5.200007 2.34511,-3.777175 4.0628,-31.27716 0.64934,-0.179515 1.25681,-0.307249 2.31511,-0.992188 0.73041,-0.976436 0.93192,-1.953101 1.03973,-2.929537 1.73191,-3.603563 2.5284,-7.581245 9.07128,-9.260417 z" /><path
           sodipodi:nodetypes="cccccccccccccccccccccccccccccccccccccc"
           inkscape:connector-curvature="0"
           id="path621"
           d="m 322.06433,112.04802 c 6.15005,1.38021 11.65391,0.66029 17.10342,-0.23623 7.6796,-1.81114 12.59166,-5.00605 17.10708,-8.39928 4.47889,-4.272233 7.31572,-9.049714 9.48807,-14.031651 1.74073,-6.877519 2.97993,-13.969976 3.4745,-21.381564 -0.19752,-5.248394 -0.65288,-12.17272 -0.53454,-15.367997 0.29876,-3.00295 0.47848,-5.7678 0.93544,-9.087162 l 0.53454,-4.476766 c 2.27579,-0.487677 4.56493,-1.042173 7.01583,-2.405426 1.76914,-0.510626 2.79653,-1.577557 3.87541,-2.605878 0.0339,0.751374 0.18941,2.840782 0.4009,5.545844 l -2.80633,4.343128 c -0.41986,1.288483 -0.45846,2.195719 -0.53454,3.140419 0.0806,1.27799 0.2195,2.497743 0.13364,3.942225 l 1.60362,4.744032 c 0.24117,0.8069 0.6006,1.456129 0.33408,2.939965 -0.81864,-0.499231 -1.64049,-0.997394 -1.9377,-1.670433 -1.49406,-3.764767 -2.18868,-7.209756 -2.80633,-10.623963 l -0.53454,0.46772 0.33409,21.582015 0.0668,16.102988 0.13364,7.550364 0.73499,0.267269 1.26953,0.801809 1.87088,-0.06682 c 2.62816,-1.246434 5.2563,-2.971687 7.88446,-4.744032 2.77223,-2.6166 4.93098,-4.865116 6.81537,-6.949009 2.43831,-2.854412 4.36537,-5.538407 6.28083,-8.218538 l 2.07134,-3.674956 c -1.00734,2.987048 -1.90341,5.918461 -3.94222,9.421251 -2.52,4.384273 -5.2648,6.97016 -7.95127,10.022607 -3.21693,2.161487 -6.38179,3.958429 -9.42125,4.877668 -1.33635,0.429241 -2.6727,0.50487 -4.00904,0.400904 -1.8597,1.022319 -2.88931,2.210652 -3.87541,3.407688 -1.50934,1.960716 -2.4106,4.008309 -2.6727,6.147199 -1.05792,2.20478 -1.91952,2.83901 -2.80633,3.67496 l -2.40543,5.27857 c -10.73851,7.32744 -39.83193,4.70518 -43.23084,-0.71892 z"
           style="fill:#d91a21;fill-opacity:1;stroke:none;stroke-width:0.264583" /><path
           sodipodi:nodetypes="ccccccccscccccccc"
           inkscape:connector-curvature="0"
           id="path622"
           d="m 307.70123,33.145494 c 1.58457,3.100452 6.50379,4.764435 12.14249,6.11849 4.01209,0.930725 8.2918,1.433246 12.61496,1.866257 5.31529,0.597887 10.63058,0.554496 15.94587,0.47247 5.28224,-0.12754 10.28564,-0.533919 15.00093,-1.228421 4.23112,-0.650092 8.41662,-1.404459 12.21335,-3.047434 2.68317,-1.018859 4.42537,-2.233756 5.59877,-3.567151 0.22307,-0.236235 0.10205,-0.47247 0.0945,-0.708705 -0.0568,-0.684078 -1.83044,-2.505934 -2.38598,-2.834821 -1.34212,-0.794558 -2.88491,-1.335053 -5.71689,-2.244234 -2.50862,-0.695202 -5.41883,-1.335642 -9.30766,-1.842634 -2.13884,-0.251984 -4.17909,-0.503968 -6.92169,-0.755952 -2.22848,-0.150518 -4.45697,-0.241945 -6.68545,-0.330729 -4.01122,-0.07689 -8.17067,-0.06484 -12.49684,0.04725 -4.32851,0.135377 -8.60886,0.60787 -12.87482,1.181175 -2.85322,0.398138 -5.72908,0.822681 -8.95331,1.653646 -4.32327,1.115016 -7.15675,2.657322 -8.26823,5.220796 z"
           style="fill:#f2f2f4;fill-opacity:1;stroke:#000000;stroke-width:0.264583px;stroke-linecap:butt;stroke-linejoin:miter;stroke-opacity:1" /><path
           style="fill:url(#linearGradient626);fill-opacity:1;stroke:none;stroke-width:0.264583"
           d="m 311.61873,33.177049 c 1.43413,2.806107 5.88634,4.312115 10.98973,5.537626 3.63119,0.842367 7.5046,1.297178 11.41733,1.689078 4.81068,0.541129 9.62136,0.501857 14.43204,0.427617 4.78077,-0.115432 9.30917,-0.483229 13.5768,-1.1118 3.82943,-0.588375 7.61758,-1.271122 11.05387,-2.758122 2.42844,-0.922132 4.00524,-2.02169 5.06724,-3.228497 0.20189,-0.213809 0.0924,-0.427619 0.0855,-0.641424 -0.0514,-0.619135 -1.65666,-2.268032 -2.15946,-2.565696 -1.21469,-0.719127 -2.61103,-1.208307 -5.17414,-2.031174 -2.27047,-0.629203 -4.90439,-1.208839 -8.42403,-1.667704 -1.93579,-0.228062 -3.78235,-0.456123 -6.26457,-0.684183 -2.01693,-0.136229 -4.03385,-0.218974 -6.05077,-0.299331 -3.63041,-0.06959 -7.39497,-0.05868 -11.31044,0.04276 -3.91757,0.12252 -7.79157,0.550158 -11.65252,1.069035 -2.58236,0.360342 -5.1852,0.74458 -8.10332,1.496656 -3.91284,1.00916 -6.47733,2.405046 -7.48328,4.725154 z"
           id="path623"
           inkscape:connector-curvature="0"
           sodipodi:nodetypes="ccccccccscccccccc" /><path
           inkscape:connector-curvature="0"
           id="path624"
           d="m 374.8865,96.173025 1.6064,0.09449 0.18899,1.984375 -1.6064,-0.09449 z"
           style="fill:#ffecd7;fill-opacity:1;stroke:none;stroke-width:0.264583" /><path
           inkscape:connector-curvature="0"
           id="path625"
           d="m 382.31215,46.455888 -0.13364,-1.804069 -1.60361,-0.06682 -1.26953,0.734991 -0.0668,1.269529 1.80407,-0.334087 0.80181,0.668174 z"
           style="fill:#faf3eb;fill-opacity:1;stroke:none;stroke-width:0.264583" /><path
           sodipodi:nodetypes="cccc"
           inkscape:connector-curvature="0"
           id="path626"
           d="m 399.66174,45.654079 c -1.01559,-1.232789 -2.40025,-2.506948 -5.87993,-2.939965 -2.63992,0.04848 -5.31378,0.760767 -6.68174,1.670433 5.84001,-0.993497 9.14505,0.185836 12.56167,1.269532 z"
           style="fill:#fde5d7;fill-opacity:1;stroke:none;stroke-width:0.264583" /></g><g
         id="g719"
         transform="translate(-42.657524,-94.944439)"
         style="opacity:0.807122"><path
           style="fill:#c2c1bf;fill-opacity:1;fill-rule:evenodd;stroke:none;stroke-width:0.264583px;stroke-linecap:butt;stroke-linejoin:miter;stroke-opacity:1"
           d="m 124.41528,226.9988 0.0367,-0.0245 c 0,0 0.70187,-0.033 1.05302,-0.0306 0.36378,0.002 1.09036,0.0466 1.09036,0.0466 l 0.0314,0.0325 -0.82793,0.0195 -0.3236,0.007 -0.83226,-0.0216 -0.22619,-0.009 z"
           id="path689"
           sodipodi:nodetypes="ccsccccccc" /><path
           style="fill:#c6c6c6;fill-opacity:1;fill-rule:evenodd;stroke:#000000;stroke-width:0.0132292;stroke-linecap:butt;stroke-linejoin:miter;stroke-dasharray:none;stroke-opacity:1"
           d="m 124.39083,227.00655 1.09957,0.026 1.13422,-0.009 c 0,0 0.32747,1.07221 0.28571,1.75759 -0.0112,0.18376 -0.0142,0.37619 -0.0866,0.54546 -0.0955,0.22344 -0.28169,0.39708 -0.44156,0.58009 -0.12889,0.14754 -0.41559,0.41559 -0.41559,0.41559 0,0 -0.29541,0.0891 -0.45022,0.0866 -0.15481,-0.003 -0.45888,-0.1039 -0.45888,-0.1039 0,0 -0.31747,-0.31 -0.3884,-0.38935 -0.15515,-0.17355 -0.17378,-0.16553 -0.29559,-0.3639 -0.11418,-0.18595 -0.21328,-0.39683 -0.22511,-0.61472 -0.0303,-0.55869 0.24245,-1.93046 0.24245,-1.93046 z"
           id="path688"
           sodipodi:nodetypes="cccsssczcsssc" /><path
           style="fill:url(#linearGradient702);fill-opacity:1;fill-rule:evenodd;stroke:none;stroke-width:0.264583px;stroke-linecap:butt;stroke-linejoin:miter;stroke-opacity:1"
           d="m 126.23105,227.50859 c 0,0 0.10605,0.59299 0.12403,0.89297 0.009,0.14584 0.0294,0.29698 -0.008,0.43822 -0.009,0.0334 -0.0151,0.0903 -0.0496,0.091 -0.0482,9.9e-4 -0.0599,-0.078 -0.0744,-0.12403 -0.0597,-0.18975 -0.0358,-0.39647 -0.0413,-0.59531 -0.005,-0.18736 -0.02,-0.37691 0.008,-0.56224 0.007,-0.0483 0.0413,-0.14061 0.0413,-0.14061 z"
           id="path690"
           sodipodi:nodetypes="cssssssc" /><path
           style="fill:url(#linearGradient699);fill-opacity:1;fill-rule:evenodd;stroke:none;stroke-width:0.264583px;stroke-linecap:butt;stroke-linejoin:miter;stroke-opacity:1"
           d="m 124.65182,227.31015 c 0.0465,0.0697 -0.001,0.65074 -0.0165,0.97565 -0.009,0.1988 0.0401,0.41565 -0.0455,0.59532 -0.0155,0.0326 -0.0427,0.0783 -0.0786,0.0744 -0.0463,-0.005 -0.0785,-0.0661 -0.0785,-0.11575 0,-0.0496 -0.009,-0.58339 0.0248,-0.8723 0.0252,-0.21528 0.008,-0.4592 0.1323,-0.63666 0.0121,-0.0172 0.0332,-0.0376 0.0537,-0.0331 0.005,0.001 0.008,0.0124 0.008,0.0124 z"
           id="path691"
           sodipodi:nodetypes="sssssssss" /><path
           style="fill:#848484;fill-opacity:1;fill-rule:evenodd;stroke:#000000;stroke-width:0.0132292;stroke-linecap:butt;stroke-linejoin:miter;stroke-dasharray:none;stroke-opacity:1"
           d="m 124.92261,232.32277 c 0,0 -0.0703,0.0228 -0.091,0.0269 -0.0207,0.004 -0.38237,0.0476 -0.39688,0.0537 -0.0145,0.006 -0.1609,0.0101 -0.23564,0.0372 -0.0264,0.01 -0.0555,0.0209 -0.0724,0.0434 -0.0129,0.0171 -0.0188,0.0407 -0.0165,0.062 0.002,0.0193 0.0118,0.0394 0.0269,0.0517 0.035,0.0285 0.0858,0.0289 0.13023,0.0372 0.15711,0.0293 0.31799,0.0334 0.47749,0.0434 0.17615,0.0111 0.3527,0.0151 0.52916,0.0186 0.12951,0.003 0.25907,0.002 0.38861,0.002 0.16193,-2.5e-4 0.32386,-8.7e-4 0.48576,-0.004 0.11303,-0.002 0.22625,-0.002 0.339,-0.0103 0.0775,-0.006 0.15474,-0.015 0.23151,-0.0269 0.0465,-0.007 0.098,-0.003 0.13849,-0.0269 0.024,-0.0142 0.0432,-0.0383 0.0537,-0.0641 0.007,-0.0166 0.0113,-0.0373 0.004,-0.0537 -0.006,-0.0135 -0.0215,-0.0212 -0.0351,-0.0269 -0.0777,-0.0325 -0.16718,-0.0206 -0.25011,-0.0351 -0.0825,-0.0145 -0.16481,-0.031 -0.24598,-0.0517 -0.0739,-0.0189 -0.14714,-0.0409 -0.21911,-0.0662 -0.0434,-0.0153 -0.12816,-0.0517 -0.12816,-0.0517 z"
           id="path693"
           sodipodi:nodetypes="csssssssssssssssssssscc" /><path
           style="fill:url(#linearGradient713);fill-opacity:1;fill-rule:evenodd;stroke:#000000;stroke-width:0.0132292;stroke-linecap:butt;stroke-linejoin:miter;stroke-dasharray:none;stroke-opacity:1"
           d="m 125.0611,230.29705 c 0,0 0.16116,0.26815 0.21704,0.41341 0.0299,0.0777 0.0494,0.15959 0.062,0.24185 0.0174,0.11321 0.0155,0.22863 0.0186,0.34313 0.002,0.0599 0.002,0.11992 0,0.17983 -0.002,0.0531 -0.005,0.10631 -0.0103,0.15917 -0.006,0.0596 -0.0134,0.11937 -0.0269,0.17776 -0.0135,0.0584 -0.0306,0.11627 -0.0537,0.17157 -0.0198,0.0475 -0.0412,0.0955 -0.0724,0.13643 -0.0419,0.0551 -0.0936,0.10378 -0.15089,0.14262 -0.0352,0.0239 -0.0943,0.017 -0.11576,0.0537 -0.004,0.007 -0.003,0.0181 0.002,0.0248 0.0154,0.0209 0.0469,0.0237 0.0723,0.0289 0.027,0.006 0.0551,0.003 0.0827,0.002 0.0601,-0.002 0.11983,-0.0105 0.17983,-0.0145 0.0503,-0.003 0.10058,-0.006 0.1509,-0.008 0.0682,-0.003 0.13637,-0.008 0.20463,-0.008 0.0462,-2.4e-4 0.13023,0.004 0.1385,0.004 0.008,0 0.0932,0.0188 0.14056,0.0207 0.031,0.001 0.0627,0.001 0.093,-0.006 0.021,-0.005 0.0497,-0.006 0.0599,-0.0248 0.009,-0.0161 3.2e-4,-0.039 -0.0104,-0.0538 -0.0125,-0.0172 -0.0385,-0.0186 -0.0558,-0.031 -0.0317,-0.0227 -0.0601,-0.0501 -0.0868,-0.0786 -0.0288,-0.0308 -0.057,-0.063 -0.0786,-0.0992 -0.0269,-0.0451 -0.0465,-0.0946 -0.062,-0.14469 -0.0168,-0.0543 -0.0249,-0.11113 -0.0331,-0.16743 -0.01,-0.0657 -0.0146,-0.13212 -0.0186,-0.19844 -0.004,-0.0736 -0.006,-0.14743 -0.006,-0.22118 -2.7e-4,-0.0689 0.001,-0.13785 0.004,-0.2067 0.003,-0.0731 0.003,-0.14676 0.0145,-0.21911 0.0111,-0.0722 0.0268,-0.14425 0.0517,-0.21291 0.0324,-0.0895 0.0809,-0.17253 0.12609,-0.25631 0.0232,-0.0429 0.0744,-0.12609 0.0744,-0.12609 z"
           id="path692"
           sodipodi:nodetypes="csssssssssssssssssssssssssssssssscc" /><path
           style="fill:#d7d7d5;fill-opacity:1;fill-rule:evenodd;stroke:none;stroke-width:0.264583px;stroke-linecap:butt;stroke-linejoin:miter;stroke-opacity:1"
           d="m 124.21372,232.48544 c 0.019,-0.004 0.18563,-0.0161 0.18563,-0.0161 l 0.14616,-0.0278 0.13447,-0.0131 -0.11693,0.038 -0.15493,0.0424 -0.038,-0.006 -0.0526,0.003 -0.0614,0.007 -0.0482,0.007 -0.0146,-0.0131 0.007,-0.0102 z"
           id="path694" /><path
           style="fill:#d7d7d5;fill-opacity:1;fill-rule:evenodd;stroke:none;stroke-width:0.264583px;stroke-linecap:butt;stroke-linejoin:miter;stroke-opacity:1"
           d="m 125.25294,232.60822 -0.0175,0.0117 -0.007,0.0131 0.006,0.0102 0.0365,0.002 0.0702,0.002 0.0439,0.009 0.0541,0.0132 c 0,0 0.12131,-0.006 0.12716,-0.006 0.006,0 0.0848,-0.0131 0.0906,-0.0146 0.006,-0.002 0.0658,-0.007 0.0658,-0.007 l -0.16662,-0.009 -0.0818,-0.004 c 0,0 -0.0351,0.006 -0.0409,0.006 -0.006,0 -0.17978,-0.0249 -0.17978,-0.0249 z"
           id="path695" /><path
           style="fill:#d7d7d5;fill-opacity:1;fill-rule:evenodd;stroke:none;stroke-width:0.264583px;stroke-linecap:butt;stroke-linejoin:miter;stroke-opacity:1"
           d="m 126.53078,232.50053 0.004,-0.0165 -0.0165,-0.0186 -0.17157,-0.0393 -0.0413,-0.0165 -0.22944,-0.0579 0.24184,0.11162 c 0,0 0.0331,0.002 0.0413,0.002 0.008,0 0.0909,0.0103 0.0909,0.0103 l 0.0538,0.0186 z"
           id="path696" /><path
           style="fill:url(#linearGradient717);fill-rule:evenodd;stroke:none;stroke-width:0.0264583;stroke-linecap:butt;stroke-linejoin:miter;stroke-dasharray:none;stroke-opacity:1"
           d="m 125.32982,230.43141 c 0,0 0.12706,0.0211 0.18603,0.0207 0.059,-4e-4 0.16536,-0.0207 0.16536,-0.0207 0,0 -0.0613,0.57828 -0.0661,0.85163 -0.005,0.27335 0.0331,0.78548 0.0331,0.78548 0,0 -0.097,0.01 -0.14056,0.008 -0.0436,-0.002 -0.11989,-0.0165 -0.11989,-0.0165 0,0 0.0501,-0.51305 0.0413,-0.78549 -0.009,-0.27244 -0.0661,-0.84312 -0.0661,-0.84312 z"
           id="path697"
           sodipodi:nodetypes="czczczczcc" /><path
           style="fill:#d7d7d5;fill-opacity:0.629139;fill-rule:evenodd;stroke:none;stroke-width:0.264583px;stroke-linecap:butt;stroke-linejoin:miter;stroke-opacity:1"
           d="m 125.28641,232.14707 c -0.0205,0.005 -0.0463,0.007 -0.0579,0.0248 -0.006,0.009 -0.004,0.0227 0,0.0331 0.005,0.0158 0.0161,0.0319 0.031,0.0393 0.0592,0.0295 0.13229,0.003 0.19844,0.004 0.051,8.5e-4 0.1385,0.004 0.15297,0.002 0.0145,-0.002 0.0873,0.003 0.13022,-0.004 0.0254,-0.004 0.0577,-0.001 0.0744,-0.0207 0.008,-0.01 0.009,-0.0259 0.004,-0.0372 -0.009,-0.0203 -0.0347,-0.0298 -0.0558,-0.0372 -0.0522,-0.0183 -0.11005,-0.0129 -0.16536,-0.0145 -0.0668,-0.002 -0.13368,0.004 -0.20051,0.006 -0.0372,10e-4 -0.0752,-0.004 -0.11146,0.004 z"
           id="path698"
           sodipodi:nodetypes="sssssssssssss" /></g><g
         id="g647"><path
           style="fill:#3f6ab5;fill-opacity:1;fill-rule:evenodd;stroke:#3f6ab5;stroke-width:0.264583px;stroke-linecap:butt;stroke-linejoin:miter;stroke-opacity:1"
           d="m 81.655465,139.29221 0.955064,0.8816 h 3.008278 c 0,0 1.084169,-0.83261 0.814794,-0.8571 -0.269378,-0.0245 -4.778136,-0.0245 -4.778136,-0.0245 z"
           id="path646"
           sodipodi:nodetypes="cccsc" /><ellipse
           style="opacity:1;fill:#feffe0;fill-opacity:1;fill-rule:evenodd;stroke:#3f6ab5;stroke-width:0.132292;stroke-linecap:round;stroke-dasharray:none;stroke-opacity:1"
           id="path645"
           cx="84.101074"
           cy="138.40839"
           rx="4.1558847"
           ry="1.4545597" /><ellipse
           style="opacity:1;fill:#3f6ab5;fill-opacity:0.339241;fill-rule:evenodd;stroke:#3f6ab5;stroke-width:0.132292;stroke-linecap:round;stroke-dasharray:none;stroke-opacity:1"
           id="path647"
           cx="84.101074"
           cy="138.60654"
           rx="1.7876815"
           ry="0.58773082" /></g><g
         id="g649"
         transform="translate(13.71372,-1.8611478)"><path
           style="fill:#3f6ab5;fill-opacity:1;fill-rule:evenodd;stroke:#3f6ab5;stroke-width:0.264583px;stroke-linecap:butt;stroke-linejoin:miter;stroke-opacity:1"
           d="m 81.655465,139.29221 0.955064,0.8816 h 3.008278 c 0,0 1.084169,-0.83261 0.814794,-0.8571 -0.269378,-0.0245 -4.778136,-0.0245 -4.778136,-0.0245 z"
           id="path648"
           sodipodi:nodetypes="cccsc" /><ellipse
           style="opacity:1;fill:#feffe0;fill-opacity:1;fill-rule:evenodd;stroke:#3f6ab5;stroke-width:0.132292;stroke-linecap:round;stroke-dasharray:none;stroke-opacity:1"
           id="ellipse648"
           cx="84.101074"
           cy="138.40839"
           rx="4.1558847"
           ry="1.4545597" /><ellipse
           style="opacity:1;fill:#3f6ab5;fill-opacity:0.339241;fill-rule:evenodd;stroke:#3f6ab5;stroke-width:0.132292;stroke-linecap:round;stroke-dasharray:none;stroke-opacity:1"
           id="ellipse649"
           cx="84.101074"
           cy="138.60654"
           rx="1.7876815"
           ry="0.58773082" /></g><g
         id="g887"><g
           id="g886"
           transform="translate(-16.714116,-107.1509)"><path
             style="fill:url(#linearGradient884);fill-rule:evenodd;stroke:#000000;stroke-width:0.0264583;stroke-linecap:butt;stroke-linejoin:miter;stroke-dasharray:none;stroke-opacity:1"
             d="m 90.416445,240.9819 c 0.01941,-0.0765 0.125931,-0.0983 0.198781,-0.12863 0.176777,-0.0737 0.371767,-0.0951 0.561266,-0.12278 0.309404,-0.0452 0.623221,-0.0531 0.935443,-0.0702 0.28038,-0.0154 0.561099,-0.0301 0.841899,-0.0292 0.329634,0.001 0.659162,0.0189 0.988062,0.0409 0.316355,0.0212 0.633339,0.0423 0.947137,0.0877 0.159246,0.023 0.325444,0.0307 0.473567,0.0935 0.05026,0.0213 0.111136,0.0441 0.134472,0.0935 0.02089,0.0442 0.0058,0.12277 -0.0117,0.14616 -0.01754,0.0234 -0.53205,0.3858 -0.555418,0.39172 -0.02341,0.006 -1.40789,0.22221 -2.116442,0.20462 -0.736479,-0.0183 -1.582195,0.0997 -2.186599,-0.32156 -0.120167,-0.0837 -0.246491,-0.24376 -0.210468,-0.38573 z"
             id="path865"
             sodipodi:nodetypes="ssssssssssssss" /><path
             style="fill:url(#linearGradient886);fill-rule:evenodd;stroke:#000000;stroke-width:0.0264583;stroke-linecap:butt;stroke-linejoin:miter;stroke-dasharray:none;stroke-opacity:1"
             d="m 91.591595,243.68884 c 0,0 -0.07882,0.0865 -0.08185,0.14616 -0.003,0.0597 0.07601,0.17539 0.07601,0.17539 0,0 0.628544,0.28036 1.485016,0.25725 0.856472,-0.0231 1.251154,-0.28063 1.251154,-0.28063 0,0 0.06022,-0.0763 0.05846,-0.12863 -0.0018,-0.0523 -0.08185,-0.15201 -0.08185,-0.15201 z"
             id="path881"
             sodipodi:nodetypes="czczczcc" /><path
             style="fill:url(#linearGradient882);fill-rule:evenodd;stroke:#000000;stroke-width:0.0264583;stroke-linecap:butt;stroke-linejoin:miter;stroke-dasharray:none;stroke-opacity:1"
             d="m 91.556516,243.68299 c -0.397959,-0.22997 -0.518516,-0.41923 -0.876977,-1.06407 -0.358461,-0.64484 -0.257247,-1.61364 -0.257247,-1.61364 0,0 0.08959,0.10605 0.152009,0.12862 0.614146,0.22207 1.570281,0.26232 2.373688,0.26895 0.803407,0.007 1.890897,0.0162 2.420458,-0.23387 0.05503,-0.026 0.106755,-0.0803 0.11693,-0.14031 0.0056,-0.0328 0.0063,-0.0894 0.0063,-0.0894 0,0 0.05816,0.0532 0.0639,0.0894 0.06632,0.41776 -0.03196,0.90436 -0.268941,1.48501 -0.236984,0.58065 -0.531645,0.94875 -0.982215,1.20439 -0.397444,0.2255 -0.892773,0.24499 -1.356392,0.24012 -0.463619,-0.005 -0.984249,-0.0403 -1.391471,-0.2752 z"
             id="path864"
             sodipodi:nodetypes="szcszsscszszs" /></g><path
           style="fill:url(#linearGradient650);fill-rule:evenodd;stroke:none;stroke-width:0.264583px;stroke-linecap:butt;stroke-linejoin:miter;stroke-opacity:1"
           d="m 74.149961,133.33192 0.773694,0.82022 c 0,0 0.345048,0.14421 0.450667,0.0282 0.105697,-0.11593 -0.07618,-0.48382 -0.07618,-0.48382 l -0.806841,-0.71583 c 0,0 -0.388413,-0.18246 -0.485792,-0.0623 -0.09737,0.12013 0.144451,0.41356 0.144451,0.41356 z"
           id="path649"
           sodipodi:nodetypes="cczcczc" /><path
           style="fill:url(#linearGradient652);fill-rule:evenodd;stroke:none;stroke-width:0.264583px;stroke-linecap:butt;stroke-linejoin:miter;stroke-opacity:1"
           d="m 74.738829,133.05248 0.537249,0.99133 c 0,0 0.296475,0.22794 0.428331,0.14293 0.131912,-0.0849 0.05055,-0.48717 0.05055,-0.48717 l -0.596079,-0.89894 c 0,0 -0.328569,-0.27604 -0.453527,-0.1849 -0.124942,0.0911 0.03346,0.43678 0.03346,0.43678 z"
           id="path652"
           sodipodi:nodetypes="cczcczc" /><path
           style="fill:url(#linearGradient653);fill-rule:evenodd;stroke:none;stroke-width:0.264583px;stroke-linecap:butt;stroke-linejoin:miter;stroke-opacity:1"
           d="m 78.298613,132.76651 -0.638159,0.92959 c 0,0 -0.06802,0.36773 0.06769,0.44644 0.135637,0.0788 0.45679,-0.17672 0.45679,-0.17672 l 0.529117,-0.93992 c 0,0 0.09624,-0.4182 -0.04179,-0.48798 -0.137985,-0.0698 -0.373684,0.22859 -0.373684,0.22859 z"
           id="path653"
           sodipodi:nodetypes="cczcczc" /><path
           style="fill:url(#linearGradient654);fill-rule:evenodd;stroke:none;stroke-width:0.264583px;stroke-linecap:butt;stroke-linejoin:miter;stroke-opacity:1"
           d="m 77.436964,132.66356 0.0068,1.12753 c 0,0 0.154107,0.34074 0.310463,0.32788 0.156346,-0.0128 0.274125,-0.40589 0.274125,-0.40589 l -0.102236,-1.07376 c 0,0 -0.159754,-0.39828 -0.312916,-0.37677 -0.153136,0.0215 -0.176281,0.40103 -0.176281,0.40103 z"
           id="path654"
           sodipodi:nodetypes="cczcczc" /><path
           style="fill:url(#linearGradient655);fill-rule:evenodd;stroke:none;stroke-width:0.264583px;stroke-linecap:butt;stroke-linejoin:miter;stroke-opacity:1"
           d="m 75.477861,132.73703 0.0068,1.12753 c 0,0 0.154107,0.34074 0.310463,0.32788 0.156346,-0.0128 0.274125,-0.40589 0.274125,-0.40589 l -0.102236,-1.07376 c 0,0 -0.159754,-0.39828 -0.312916,-0.37677 -0.153136,0.0215 -0.176281,0.40103 -0.176281,0.40103 z"
           id="path655"
           sodipodi:nodetypes="cczcczc" /><path
           style="fill:url(#linearGradient656);fill-rule:evenodd;stroke:none;stroke-width:0.264583px;stroke-linecap:butt;stroke-linejoin:miter;stroke-opacity:1"
           d="m 75.324518,133.20313 0.661196,0.91334 c 0,0 0.323514,0.18759 0.443238,0.0862 0.119751,-0.10133 -0.01301,-0.48962 -0.01301,-0.48962 l -0.707569,-0.8141 c 0,0 -0.361568,-0.23112 -0.473664,-0.12455 -0.112081,0.10654 0.08979,0.42876 0.08979,0.42876 z"
           id="path656"
           sodipodi:nodetypes="cczcczc" /><path
           style="fill:url(#linearGradient657);fill-rule:evenodd;stroke:none;stroke-width:0.264583px;stroke-linecap:butt;stroke-linejoin:miter;stroke-opacity:1"
           d="m 76.276685,132.75333 -0.512366,1.00442 c 0,0 -0.01981,0.37344 0.124961,0.4339 0.144726,0.0605 0.430056,-0.23441 0.430056,-0.23441 l 0.402895,-1.00054 c 0,0 0.04125,-0.42714 -0.10466,-0.47845 -0.145875,-0.0513 -0.340922,0.27508 -0.340922,0.27508 z"
           id="path657"
           sodipodi:nodetypes="cczcczc" /><path
           style="fill:url(#linearGradient658);fill-rule:evenodd;stroke:none;stroke-width:0.264583px;stroke-linecap:butt;stroke-linejoin:miter;stroke-opacity:1"
           d="m 76.523426,132.7267 -0.152347,1.11721 c 0,0 0.10449,0.35907 0.261102,0.36839 0.156582,0.009 0.328655,-0.36315 0.328655,-0.36315 l 0.05028,-1.07744 c 0,0 -0.101964,-0.41684 -0.256633,-0.41714 -0.154632,-3.1e-4 -0.231094,0.37214 -0.231094,0.37214 z"
           id="path658"
           sodipodi:nodetypes="cczcczc" /><path
           style="fill:url(#linearGradient659);fill-rule:evenodd;stroke:none;stroke-width:0.264583px;stroke-linecap:butt;stroke-linejoin:miter;stroke-opacity:1"
           d="m 76.684256,132.95811 0.425451,1.0442 c 0,0 0.269724,0.25904 0.410095,0.18897 0.140187,-0.0703 0.103608,-0.47871 0.103608,-0.47871 l -0.494058,-0.95881 c 0,0 -0.296361,-0.31035 -0.430549,-0.23344 -0.13416,0.0769 -0.01457,0.43782 -0.01457,0.43782 z"
           id="path659"
           sodipodi:nodetypes="cczcczc" /><path
           style="fill:url(#linearGradient660);fill-rule:evenodd;stroke:none;stroke-width:0.264583px;stroke-linecap:butt;stroke-linejoin:miter;stroke-opacity:1"
           d="m 78.714617,133.05105 -0.959603,0.59205 c 0,0 -0.210945,0.30881 -0.118655,0.43568 0.09249,0.12664 0.489247,0.0231 0.489247,0.0231 l 0.864056,-0.64561 c 0,0 0.257145,-0.34355 0.159135,-0.4632 -0.098,-0.11961 -0.434217,0.0579 -0.434217,0.0579 z"
           id="path660"
           sodipodi:nodetypes="cczcczc" /><path
           style="fill:url(#linearGradient661);fill-rule:evenodd;stroke:none;stroke-width:0.264583px;stroke-linecap:butt;stroke-linejoin:miter;stroke-opacity:1"
           d="m 76.015811,133.61131 0.967695,0.57873 c 0,0 0.371278,0.0449 0.441333,-0.0955 0.06976,-0.14045 -0.204992,-0.44483 -0.204992,-0.44483 l -0.971189,-0.46926 c 0,0 -0.423402,-0.0699 -0.484413,0.0723 -0.06098,0.1421 0.251512,0.35866 0.251512,0.35866 z"
           id="path661"
           sodipodi:nodetypes="cczcczc" /><path
           style="fill:url(#linearGradient662);fill-rule:evenodd;stroke:none;stroke-width:0.264583px;stroke-linecap:butt;stroke-linejoin:miter;stroke-opacity:1"
           d="m 73.517955,133.56233 0.967695,0.57873 c 0,0 0.371278,0.0449 0.441333,-0.0955 0.06976,-0.14045 -0.204992,-0.44483 -0.204992,-0.44483 l -0.971189,-0.46926 c 0,0 -0.423402,-0.0699 -0.484413,0.0723 -0.06098,0.1421 0.251512,0.35866 0.251512,0.35866 z"
           id="path662"
           sodipodi:nodetypes="cczcczc" /></g><path
         style="fill:url(#linearGradient687);fill-rule:evenodd;stroke:#393939;stroke-width:0.0283821;stroke-linecap:butt;stroke-linejoin:miter;stroke-dasharray:none;stroke-opacity:1"
         d="m 90.297294,140.52511 c 0,0 0.06089,-0.0147 0.08538,-0.0328 0.02003,-0.0149 0.04597,-0.0591 0.04597,-0.0591 0,0 -0.460264,-0.36708 -0.689572,-0.55166 -0.357686,-0.2879 -0.689814,-0.61014 -1.070479,-0.86689 -0.344448,-0.23232 -0.733065,-0.39186 -1.090182,-0.60419 -0.02454,-0.0146 -0.0517,-0.0262 -0.07224,-0.046 -0.03058,-0.0295 -0.04985,-0.0689 -0.07224,-0.10507 -0.02373,-0.0383 -0.03645,-0.0839 -0.06567,-0.11821 -0.147429,-0.17308 -0.341761,-0.30181 -0.512256,-0.45315 -0.167147,-0.14837 -0.500678,-0.44597 -0.500678,-0.44597 l -0.03019,0.0232 c 0,0 0.233892,0.29039 0.355253,0.43188 0.127758,0.14895 0.397049,0.39473 0.397049,0.39473 l 0.0069,0.0464 -0.04412,-0.002 c 0,0 -0.06544,-0.0423 -0.0952,-0.0673 -0.127789,-0.10739 -0.24195,-0.23035 -0.355252,-0.35293 -0.122628,-0.13267 -0.350609,-0.4133 -0.350609,-0.4133 l -0.03715,0.0163 c 0,0 0.202064,0.27847 0.308815,0.4133 0.127883,0.16153 0.317343,0.31489 0.397046,0.47367 0.0042,0.008 0,0.0279 0,0.0279 l -0.03483,-0.002 c 0,0 -0.09781,-0.0958 -0.143958,-0.14628 -0.112224,-0.12284 -0.216036,-0.25313 -0.322747,-0.38079 -0.09521,-0.1139 -0.283271,-0.34364 -0.283271,-0.34364 l -0.03715,0.0163 c 0,0 0.214765,0.30634 0.325067,0.45741 0.08215,0.11252 0.161696,0.22724 0.250766,0.33436 0.03362,0.0404 0.10681,0.11609 0.10681,0.11609 l -0.0093,0.0325 -0.04412,-0.002 c 0,0 -0.202608,-0.23568 -0.301848,-0.35525 -0.08399,-0.1012 -0.16571,-0.20427 -0.248445,-0.30649 -0.06198,-0.0766 -0.185751,-0.22987 -0.185751,-0.22987 l -0.02786,0.0232 c 0,0 0.135561,0.25795 0.213615,0.38079 0.07706,0.12128 0.161239,0.23823 0.250768,0.35061 0.05603,0.0703 0.107357,0.14739 0.178786,0.20201 0.06379,0.0488 0.138664,0.085 0.215937,0.10681 0.06507,0.0184 0.134395,0.0175 0.202008,0.0186 0.06357,0.001 0.126843,-0.01 0.190396,-0.0116 0.07581,-0.002 0.152473,-0.0108 0.227546,0 0.04073,0.006 0.08038,0.0191 0.11842,0.0348 0.04963,0.0205 0.09673,0.0472 0.141635,0.0766 0.151266,0.0991 0.285731,0.22175 0.427232,0.33435 0.187747,0.14941 0.370735,0.30476 0.559581,0.45278 0.12695,0.0995 0.256977,0.19501 0.385437,0.29256 0.161008,0.12226 0.320778,0.24616 0.482959,0.36686 0.119098,0.0886 0.235721,0.18101 0.359895,0.26238 0.06529,0.0428 0.133242,0.0815 0.202008,0.11841 0.06205,0.0333 0.189758,0.0929 0.189758,0.0929 z"
         id="path687"
         sodipodi:nodetypes="cscsssssssccscccssccssccssccsscccssccsssssssssssssssc" /><g
         id="g814"
         transform="translate(-25.757264,-92.695481)"
         style="opacity:0.807122"><path
           style="fill:#c2c1bf;fill-opacity:1;fill-rule:evenodd;stroke:none;stroke-width:0.264583px;stroke-linecap:butt;stroke-linejoin:miter;stroke-opacity:1"
           d="m 124.41528,226.9988 0.0367,-0.0245 c 0,0 0.70187,-0.033 1.05302,-0.0306 0.36378,0.002 1.09036,0.0466 1.09036,0.0466 l 0.0314,0.0325 -0.82793,0.0195 -0.3236,0.007 -0.83226,-0.0216 -0.22619,-0.009 z"
           id="path722"
           sodipodi:nodetypes="ccsccccccc" /><path
           style="fill:#c6c6c6;fill-opacity:1;fill-rule:evenodd;stroke:#000000;stroke-width:0.0132292;stroke-linecap:butt;stroke-linejoin:miter;stroke-dasharray:none;stroke-opacity:1"
           d="m 124.39083,227.00655 1.09957,0.026 1.13422,-0.009 c 0,0 0.32747,1.07221 0.28571,1.75759 -0.0112,0.18376 -0.0142,0.37619 -0.0866,0.54546 -0.0955,0.22344 -0.28169,0.39708 -0.44156,0.58009 -0.12889,0.14754 -0.41559,0.41559 -0.41559,0.41559 0,0 -0.29541,0.0891 -0.45022,0.0866 -0.15481,-0.003 -0.45888,-0.1039 -0.45888,-0.1039 0,0 -0.31747,-0.31 -0.3884,-0.38935 -0.15515,-0.17355 -0.17378,-0.16553 -0.29559,-0.3639 -0.11418,-0.18595 -0.21328,-0.39683 -0.22511,-0.61472 -0.0303,-0.55869 0.24245,-1.93046 0.24245,-1.93046 z"
           id="path723"
           sodipodi:nodetypes="cccsssczcsssc" /><path
           style="fill:url(#linearGradient814);fill-opacity:1;fill-rule:evenodd;stroke:none;stroke-width:0.264583px;stroke-linecap:butt;stroke-linejoin:miter;stroke-opacity:1"
           d="m 126.23105,227.50859 c 0,0 0.10605,0.59299 0.12403,0.89297 0.009,0.14584 0.0294,0.29698 -0.008,0.43822 -0.009,0.0334 -0.0151,0.0903 -0.0496,0.091 -0.0482,9.9e-4 -0.0599,-0.078 -0.0744,-0.12403 -0.0597,-0.18975 -0.0358,-0.39647 -0.0413,-0.59531 -0.005,-0.18736 -0.02,-0.37691 0.008,-0.56224 0.007,-0.0483 0.0413,-0.14061 0.0413,-0.14061 z"
           id="path734"
           sodipodi:nodetypes="cssssssc" /><path
           style="fill:url(#linearGradient815);fill-opacity:1;fill-rule:evenodd;stroke:none;stroke-width:0.264583px;stroke-linecap:butt;stroke-linejoin:miter;stroke-opacity:1"
           d="m 124.65182,227.31015 c 0.0465,0.0697 -0.001,0.65074 -0.0165,0.97565 -0.009,0.1988 0.0401,0.41565 -0.0455,0.59532 -0.0155,0.0326 -0.0427,0.0783 -0.0786,0.0744 -0.0463,-0.005 -0.0785,-0.0661 -0.0785,-0.11575 0,-0.0496 -0.009,-0.58339 0.0248,-0.8723 0.0252,-0.21528 0.008,-0.4592 0.1323,-0.63666 0.0121,-0.0172 0.0332,-0.0376 0.0537,-0.0331 0.005,0.001 0.008,0.0124 0.008,0.0124 z"
           id="path735"
           sodipodi:nodetypes="sssssssss" /><path
           style="fill:#848484;fill-opacity:1;fill-rule:evenodd;stroke:#000000;stroke-width:0.0132292;stroke-linecap:butt;stroke-linejoin:miter;stroke-dasharray:none;stroke-opacity:1"
           d="m 124.92261,232.32277 c 0,0 -0.0703,0.0228 -0.091,0.0269 -0.0207,0.004 -0.38237,0.0476 -0.39688,0.0537 -0.0145,0.006 -0.1609,0.0101 -0.23564,0.0372 -0.0264,0.01 -0.0555,0.0209 -0.0724,0.0434 -0.0129,0.0171 -0.0188,0.0407 -0.0165,0.062 0.002,0.0193 0.0118,0.0394 0.0269,0.0517 0.035,0.0285 0.0858,0.0289 0.13023,0.0372 0.15711,0.0293 0.31799,0.0334 0.47749,0.0434 0.17615,0.0111 0.3527,0.0151 0.52916,0.0186 0.12951,0.003 0.25907,0.002 0.38861,0.002 0.16193,-2.5e-4 0.32386,-8.7e-4 0.48576,-0.004 0.11303,-0.002 0.22625,-0.002 0.339,-0.0103 0.0775,-0.006 0.15474,-0.015 0.23151,-0.0269 0.0465,-0.007 0.098,-0.003 0.13849,-0.0269 0.024,-0.0142 0.0432,-0.0383 0.0537,-0.0641 0.007,-0.0166 0.0113,-0.0373 0.004,-0.0537 -0.006,-0.0135 -0.0215,-0.0212 -0.0351,-0.0269 -0.0777,-0.0325 -0.16718,-0.0206 -0.25011,-0.0351 -0.0825,-0.0145 -0.16481,-0.031 -0.24598,-0.0517 -0.0739,-0.0189 -0.14714,-0.0409 -0.21911,-0.0662 -0.0434,-0.0153 -0.12816,-0.0517 -0.12816,-0.0517 z"
           id="path746"
           sodipodi:nodetypes="csssssssssssssssssssscc" /><path
           style="fill:url(#linearGradient816);fill-opacity:1;fill-rule:evenodd;stroke:#000000;stroke-width:0.0132292;stroke-linecap:butt;stroke-linejoin:miter;stroke-dasharray:none;stroke-opacity:1"
           d="m 125.0611,230.29705 c 0,0 0.16116,0.26815 0.21704,0.41341 0.0299,0.0777 0.0494,0.15959 0.062,0.24185 0.0174,0.11321 0.0155,0.22863 0.0186,0.34313 0.002,0.0599 0.002,0.11992 0,0.17983 -0.002,0.0531 -0.005,0.10631 -0.0103,0.15917 -0.006,0.0596 -0.0134,0.11937 -0.0269,0.17776 -0.0135,0.0584 -0.0306,0.11627 -0.0537,0.17157 -0.0198,0.0475 -0.0412,0.0955 -0.0724,0.13643 -0.0419,0.0551 -0.0936,0.10378 -0.15089,0.14262 -0.0352,0.0239 -0.0943,0.017 -0.11576,0.0537 -0.004,0.007 -0.003,0.0181 0.002,0.0248 0.0154,0.0209 0.0469,0.0237 0.0723,0.0289 0.027,0.006 0.0551,0.003 0.0827,0.002 0.0601,-0.002 0.11983,-0.0105 0.17983,-0.0145 0.0503,-0.003 0.10058,-0.006 0.1509,-0.008 0.0682,-0.003 0.13637,-0.008 0.20463,-0.008 0.0462,-2.4e-4 0.13023,0.004 0.1385,0.004 0.008,0 0.0932,0.0188 0.14056,0.0207 0.031,0.001 0.0627,0.001 0.093,-0.006 0.021,-0.005 0.0497,-0.006 0.0599,-0.0248 0.009,-0.0161 3.2e-4,-0.039 -0.0104,-0.0538 -0.0125,-0.0172 -0.0385,-0.0186 -0.0558,-0.031 -0.0317,-0.0227 -0.0601,-0.0501 -0.0868,-0.0786 -0.0288,-0.0308 -0.057,-0.063 -0.0786,-0.0992 -0.0269,-0.0451 -0.0465,-0.0946 -0.062,-0.14469 -0.0168,-0.0543 -0.0249,-0.11113 -0.0331,-0.16743 -0.01,-0.0657 -0.0146,-0.13212 -0.0186,-0.19844 -0.004,-0.0736 -0.006,-0.14743 -0.006,-0.22118 -2.7e-4,-0.0689 0.001,-0.13785 0.004,-0.2067 0.003,-0.0731 0.003,-0.14676 0.0145,-0.21911 0.0111,-0.0722 0.0268,-0.14425 0.0517,-0.21291 0.0324,-0.0895 0.0809,-0.17253 0.12609,-0.25631 0.0232,-0.0429 0.0744,-0.12609 0.0744,-0.12609 z"
           id="path747"
           sodipodi:nodetypes="csssssssssssssssssssssssssssssssscc" /><path
           style="fill:#d7d7d5;fill-opacity:1;fill-rule:evenodd;stroke:none;stroke-width:0.264583px;stroke-linecap:butt;stroke-linejoin:miter;stroke-opacity:1"
           d="m 124.21372,232.48544 c 0.019,-0.004 0.18563,-0.0161 0.18563,-0.0161 l 0.14616,-0.0278 0.13447,-0.0131 -0.11693,0.038 -0.15493,0.0424 -0.038,-0.006 -0.0526,0.003 -0.0614,0.007 -0.0482,0.007 -0.0146,-0.0131 0.007,-0.0102 z"
           id="path758" /><path
           style="fill:#d7d7d5;fill-opacity:1;fill-rule:evenodd;stroke:none;stroke-width:0.264583px;stroke-linecap:butt;stroke-linejoin:miter;stroke-opacity:1"
           d="m 125.25294,232.60822 -0.0175,0.0117 -0.007,0.0131 0.006,0.0102 0.0365,0.002 0.0702,0.002 0.0439,0.009 0.0541,0.0132 c 0,0 0.12131,-0.006 0.12716,-0.006 0.006,0 0.0848,-0.0131 0.0906,-0.0146 0.006,-0.002 0.0658,-0.007 0.0658,-0.007 l -0.16662,-0.009 -0.0818,-0.004 c 0,0 -0.0351,0.006 -0.0409,0.006 -0.006,0 -0.17978,-0.0249 -0.17978,-0.0249 z"
           id="path803" /><path
           style="fill:#d7d7d5;fill-opacity:1;fill-rule:evenodd;stroke:none;stroke-width:0.264583px;stroke-linecap:butt;stroke-linejoin:miter;stroke-opacity:1"
           d="m 126.53078,232.50053 0.004,-0.0165 -0.0165,-0.0186 -0.17157,-0.0393 -0.0413,-0.0165 -0.22944,-0.0579 0.24184,0.11162 c 0,0 0.0331,0.002 0.0413,0.002 0.008,0 0.0909,0.0103 0.0909,0.0103 l 0.0538,0.0186 z"
           id="path804" /><path
           style="fill:url(#linearGradient817);fill-rule:evenodd;stroke:none;stroke-width:0.0264583;stroke-linecap:butt;stroke-linejoin:miter;stroke-dasharray:none;stroke-opacity:1"
           d="m 125.32982,230.43141 c 0,0 0.12706,0.0211 0.18603,0.0207 0.059,-4e-4 0.16536,-0.0207 0.16536,-0.0207 0,0 -0.0613,0.57828 -0.0661,0.85163 -0.005,0.27335 0.0331,0.78548 0.0331,0.78548 0,0 -0.097,0.01 -0.14056,0.008 -0.0436,-0.002 -0.11989,-0.0165 -0.11989,-0.0165 0,0 0.0501,-0.51305 0.0413,-0.78549 -0.009,-0.27244 -0.0661,-0.84312 -0.0661,-0.84312 z"
           id="path813"
           sodipodi:nodetypes="czczczczcc" /><path
           style="fill:#d7d7d5;fill-opacity:0.629139;fill-rule:evenodd;stroke:none;stroke-width:0.264583px;stroke-linecap:butt;stroke-linejoin:miter;stroke-opacity:1"
           d="m 125.28641,232.14707 c -0.0205,0.005 -0.0463,0.007 -0.0579,0.0248 -0.006,0.009 -0.004,0.0227 0,0.0331 0.005,0.0158 0.0161,0.0319 0.031,0.0393 0.0592,0.0295 0.13229,0.003 0.19844,0.004 0.051,8.5e-4 0.1385,0.004 0.15297,0.002 0.0145,-0.002 0.0873,0.003 0.13022,-0.004 0.0254,-0.004 0.0577,-0.001 0.0744,-0.0207 0.008,-0.01 0.009,-0.0259 0.004,-0.0372 -0.009,-0.0203 -0.0347,-0.0298 -0.0558,-0.0372 -0.0522,-0.0183 -0.11005,-0.0129 -0.16536,-0.0145 -0.0668,-0.002 -0.13368,0.004 -0.20051,0.006 -0.0372,10e-4 -0.0752,-0.004 -0.11146,0.004 z"
           id="path814"
           sodipodi:nodetypes="sssssssssssss" /></g><g
         id="g853"
         transform="matrix(1.1549766,0,0,1.1549766,-23.275751,-140.9297)"><path
           style="fill:url(#linearGradient844);fill-rule:evenodd;stroke:#000000;stroke-width:0.0132292;stroke-linecap:butt;stroke-linejoin:miter;stroke-dasharray:none;stroke-opacity:1"
           d="m 100.79987,240.83281 0.14908,-0.009 0.0439,-0.0292 c 0,0 -0.0142,-0.16366 -0.0204,-0.24556 -0.009,-0.11395 -0.006,-0.229 -0.0234,-0.34202 -0.0172,-0.11478 -0.0562,-0.22529 -0.0789,-0.3391 -0.0116,-0.0581 -0.0311,-0.11615 -0.0292,-0.17539 8.1e-4,-0.0251 0.009,-0.0495 0.0171,-0.0733 0.008,-0.0228 0.0262,-0.0423 0.0289,-0.0662 0.002,-0.0188 -0.001,-0.0392 -0.0103,-0.0558 -0.0127,-0.0231 -0.035,-0.0407 -0.0579,-0.0537 -0.0237,-0.0134 -0.0513,-0.0213 -0.0785,-0.0227 -0.0314,-0.002 -0.0649,0.002 -0.093,0.0165 -0.017,0.009 -0.0316,0.023 -0.0413,0.0393 -0.008,0.0135 -0.0107,0.0299 -0.0124,0.0455 -0.004,0.0405 0.003,0.0814 0.006,0.12195 0.006,0.0808 0.017,0.16119 0.0248,0.24185 0.009,0.0909 0.0116,0.18249 0.0248,0.27285 0.013,0.089 0.0335,0.17687 0.0537,0.26458 0.006,0.027 0.0142,0.0536 0.0207,0.0806 0.0162,0.0673 0.0297,0.13519 0.0455,0.20257 0.01,0.0422 0.0308,0.12627 0.0308,0.12627 z"
           id="path837"
           sodipodi:nodetypes="cccssssssssssssssssssc" /><path
           style="fill:url(#linearGradient849);fill-rule:evenodd;stroke:#000000;stroke-width:0.0132292;stroke-linecap:butt;stroke-linejoin:miter;stroke-dasharray:none;stroke-opacity:1"
           d="m 101.1682,242.72416 c 0,0 0.2623,-0.11597 0.15201,-0.92375 -0.0368,-0.26978 -0.21048,-0.78928 -0.21048,-0.78928 0,0 -0.0681,-0.0588 -0.0885,-0.0977 -0.0184,-0.0351 -0.0269,-0.11576 -0.0269,-0.11576 l -0.0455,0.0248 -0.1509,0.0145 z"
           id="path835"
           sodipodi:nodetypes="cscscccc" /><path
           style="fill:none;fill-rule:evenodd;stroke:#000000;stroke-width:0.0132292;stroke-linecap:butt;stroke-linejoin:miter;stroke-dasharray:none;stroke-opacity:1"
           d="m 100.83495,241.01844 0.26893,-0.003"
           id="path836" /><path
           style="fill:#c6c6c6;fill-opacity:1;fill-rule:evenodd;stroke:none;stroke-width:0.0132292;stroke-linecap:butt;stroke-linejoin:miter;stroke-dasharray:none;stroke-opacity:1"
           d="m 100.66052,239.51406 0.11576,0.0145 c 0,0 0.0222,0.0272 0.0196,0.0413 -0.003,0.0141 -0.0289,0.0279 -0.0289,0.0279 l -0.11472,-0.0186 c 0,0 -0.0187,-0.0254 -0.0165,-0.0382 0.002,-0.0128 0.0248,-0.0269 0.0248,-0.0269 z"
           id="path838"
           sodipodi:nodetypes="cczcczc" /></g></g></g></svg>
