<?xml version="1.0" encoding="UTF-8" standalone="no"?>
<!-- Created with Inkscape (http://www.inkscape.org/) -->

<svg
   width="312.50348"
   height="145.2316"
   viewBox="0 0 82.683209 38.425862"
   version="1.1"
   id="svg1"
   inkscape:version="1.3.2 (091e20ef0f, 2023-11-25)"
   sodipodi:docname="Cloud1.svg"
   xml:space="preserve"
   xmlns:inkscape="http://www.inkscape.org/namespaces/inkscape"
   xmlns:sodipodi="http://sodipodi.sourceforge.net/DTD/sodipodi-0.dtd"
   xmlns:xlink="http://www.w3.org/1999/xlink"
   xmlns="http://www.w3.org/2000/svg"
   xmlns:svg="http://www.w3.org/2000/svg"><sodipodi:namedview
     id="namedview1"
     pagecolor="#505050"
     bordercolor="#eeeeee"
     borderopacity="1"
     inkscape:showpageshadow="0"
     inkscape:pageopacity="0"
     inkscape:pagecheckerboard="0"
     inkscape:deskcolor="#d1d1d1"
     inkscape:document-units="mm"
     inkscape:zoom="1.4142136"
     inkscape:cx="162.98811"
     inkscape:cy="93.338095"
     inkscape:window-width="1366"
     inkscape:window-height="706"
     inkscape:window-x="-8"
     inkscape:window-y="-8"
     inkscape:window-maximized="1"
     inkscape:current-layer="layer1" /><defs
     id="defs1"><linearGradient
       id="linearGradient699"
       inkscape:collect="always"><stop
         style="stop-color:#303030;stop-opacity:1;"
         offset="0"
         id="stop699" /><stop
         style="stop-color:#363636;stop-opacity:1;"
         offset="0.5"
         id="stop701" /><stop
         style="stop-color:#796261;stop-opacity:1;"
         offset="1"
         id="stop700" /></linearGradient><radialGradient
       inkscape:collect="always"
       xlink:href="#linearGradient699"
       id="radialGradient700"
       cx="268.85895"
       cy="290.45056"
       fx="268.85895"
       fy="290.45056"
       r="44.74498"
       gradientTransform="matrix(1.0126989,-0.09851269,0.05694888,0.5854279,-19.955053,146.89872)"
       gradientUnits="userSpaceOnUse" /></defs><g
     inkscape:label="Layer 1"
     inkscape:groupmode="layer"
     id="layer1"
     transform="translate(-228.97487,-271.09996)"><path
       style="fill:url(#radialGradient700);fill-rule:evenodd;stroke:#000000;stroke-width:0.265;stroke-linecap:butt;stroke-linejoin:miter;stroke-dasharray:none;stroke-opacity:1"
       d="m 241.02029,299.31821 c 1.72657,3.07891 4.42107,7.33207 8.15266,8.69887 6.42538,2.35347 13.54963,-2.48362 20.39148,-2.36776 6.90167,0.11687 14.04968,5.60047 20.4771,3.08355 3.91311,-1.53233 4.67463,-7.12233 7.87692,-9.84368 3.95803,-3.36358 13.05343,-2.41117 13.57797,-7.6456 0.59806,-5.96826 -8.03835,-5.1974 -11.57667,-8.38998 -3.75604,-3.38903 -5.28027,-9.83361 -10.11849,-11.31175 -6.64817,-2.03111 -14.41734,6.70031 -20.21649,5.1192 l -14.4828,-3.94867 c -4.13095,-1.12629 -10.26269,6.4691 -15.33109,9.80075 -3.58335,2.35546 -10.47847,2.91816 -10.65931,7.20254 -0.21503,5.09477 7.7539,5.14512 11.90872,9.60253 z"
       id="path699"
       sodipodi:nodetypes="saaaasaassaas" /></g></svg>
