<?xml version="1.0" encoding="UTF-8" standalone="no"?>
<!-- Created with Inkscape (http://www.inkscape.org/) -->

<svg
   width="31.358643"
   height="47.534481"
   viewBox="0 0 8.2969741 12.576831"
   version="1.1"
   id="svg1"
   xml:space="preserve"
   sodipodi:docname="GranMa.svg"
   inkscape:version="1.3 (0e150ed6c4, 2023-07-21)"
   xmlns:inkscape="http://www.inkscape.org/namespaces/inkscape"
   xmlns:sodipodi="http://sodipodi.sourceforge.net/DTD/sodipodi-0.dtd"
   xmlns="http://www.w3.org/2000/svg"
   xmlns:svg="http://www.w3.org/2000/svg"><sodipodi:namedview
     id="namedview1"
     pagecolor="#505050"
     bordercolor="#eeeeee"
     borderopacity="1"
     inkscape:showpageshadow="0"
     inkscape:pageopacity="0"
     inkscape:pagecheckerboard="0"
     inkscape:deskcolor="#121212"
     inkscape:document-units="px"
     inkscape:zoom="2"
     inkscape:cx="334.5"
     inkscape:cy="610.5"
     inkscape:window-width="1280"
     inkscape:window-height="961"
     inkscape:window-x="-8"
     inkscape:window-y="-8"
     inkscape:window-maximized="1"
     inkscape:current-layer="layer1" /><defs
     id="defs1"><linearGradient
       id="swatch2"
       inkscape:swatch="solid"><stop
         style="stop-color:#000000;stop-opacity:1;"
         offset="0"
         id="stop2-3" /></linearGradient></defs><g
     inkscape:label="Layer 1"
     inkscape:groupmode="layer"
     id="layer1"
     transform="translate(-304.94644,-161.94357)"><g
       id="g212"
       transform="translate(42.784495,6.3750654)"><path
         style="fill:#feffe0;fill-opacity:1;fill-rule:evenodd;stroke:none;stroke-width:0.264583px;stroke-linecap:butt;stroke-linejoin:miter;stroke-opacity:1"
         d="m 265.45714,158.63359 c 0,0 -0.107,-3.08748 0.91776,-3.06497 1.02476,0.0225 0.70996,3.04765 0.70996,3.04765 z"
         id="path14"
         sodipodi:nodetypes="czcc" /><path
         style="fill:#feffe0;fill-opacity:1;fill-rule:evenodd;stroke:none;stroke-width:0.264583px;stroke-linecap:butt;stroke-linejoin:miter;stroke-opacity:1"
         d="m 266.63721,158.43028 c 0,0 2.03292,-2.32621 2.76534,-1.60912 0.73242,0.71708 -1.56569,2.7094 -1.56569,2.7094 z"
         id="path15"
         sodipodi:nodetypes="czcc"
         inkscape:transform-center-x="-0.86464609"
         inkscape:transform-center-y="-0.86395561" /><path
         style="fill:#feffe0;fill-opacity:1;fill-rule:evenodd;stroke:none;stroke-width:0.264583px;stroke-linecap:butt;stroke-linejoin:miter;stroke-opacity:1"
         d="m 267.35152,158.89949 c 0,0 3.07821,-0.26194 3.1072,0.76271 0.029,1.0246 -3.00815,0.86212 -3.00815,0.86212 z"
         id="path16"
         sodipodi:nodetypes="czcc"
         inkscape:transform-center-x="-1.5047854"
         inkscape:transform-center-y="0.0031571997" /><path
         style="fill:none;fill-rule:evenodd;stroke:#07b900;stroke-width:0.423333;stroke-linecap:butt;stroke-linejoin:miter;stroke-dasharray:none;stroke-opacity:1"
         d="m 266.39221,160.07083 c 0,0 0.37412,3.42162 0.37359,4.93461 -5.3e-4,1.51299 -0.30433,3.1001 -0.30433,3.1001"
         id="path209"
         sodipodi:nodetypes="czc" /><path
         style="fill:#feffe0;fill-opacity:1;fill-rule:evenodd;stroke:none;stroke-width:0.264583px;stroke-linecap:butt;stroke-linejoin:miter;stroke-opacity:1"
         d="m 267.74415,160.12817 c 0,0 2.00674,2.34883 1.19096,2.96952 -0.81573,0.62066 -2.45364,-1.94213 -2.45364,-1.94213 z"
         id="path162"
         sodipodi:nodetypes="czcc"
         inkscape:transform-center-x="-0.68244643"
         inkscape:transform-center-y="1.0278603" /><path
         style="fill:#feffe0;fill-opacity:1;fill-rule:evenodd;stroke:none;stroke-width:0.264583px;stroke-linecap:butt;stroke-linejoin:miter;stroke-opacity:1"
         d="m 266.81557,160.64121 c 0,0 0.0437,3.08903 -0.98039,3.04553 -1.02408,-0.0435 -0.64738,-3.06155 -0.64738,-3.06155 z"
         id="path163"
         sodipodi:nodetypes="czcc"
         inkscape:transform-center-x="0.047155894"
         inkscape:transform-center-y="1.5226543" /><path
         style="fill:#feffe0;fill-opacity:1;fill-rule:evenodd;stroke:none;stroke-width:0.264583px;stroke-linecap:butt;stroke-linejoin:miter;stroke-opacity:1"
         d="m 264.74561,159.52707 c 0,0 -2.1832,-2.18577 -1.41817,-2.86794 0.76503,-0.68219 2.59715,1.74555 2.59715,1.74555 z"
         id="path186"
         sodipodi:nodetypes="czcc" /><path
         style="fill:#feffe0;fill-opacity:1;fill-rule:evenodd;stroke:none;stroke-width:0.264583px;stroke-linecap:butt;stroke-linejoin:miter;stroke-opacity:1"
         d="m 265.15321,160.68983 c 0,0 -3.08696,-0.1209 -2.98897,-1.14121 0.098,-1.02032 3.09168,-0.48336 3.09168,-0.48336 z"
         id="path187"
         sodipodi:nodetypes="czcc" /><path
         style="fill:#feffe0;fill-opacity:1;fill-rule:evenodd;stroke:none;stroke-width:0.264583px;stroke-linecap:butt;stroke-linejoin:miter;stroke-opacity:1"
         d="m 265.77144,160.92499 c 0,0 -1.96729,2.38196 -2.71941,1.68557 -0.75211,-0.6964 1.48955,-2.75197 1.48955,-2.75197 z"
         id="path188"
         sodipodi:nodetypes="czcc" /><ellipse
         style="fill:#f9ff02;fill-opacity:1;fill-rule:evenodd;stroke:#968c00;stroke-width:0.264583;stroke-linecap:round;stroke-dasharray:none;stroke-opacity:1"
         id="path13"
         cx="266.24207"
         cy="159.71587"
         rx="1.6652374"
         ry="1.5672823" /></g></g></svg>
