<?xml version="1.0" encoding="UTF-8" standalone="no"?>
<!-- Created with Inkscape (http://www.inkscape.org/) -->

<svg
   width="212.57809"
   height="24.843689"
   viewBox="0 0 56.24462 6.573226"
   version="1.1"
   id="svg1"
   xml:space="preserve"
   sodipodi:docname="GranMa.svg"
   inkscape:version="1.3 (0e150ed6c4, 2023-07-21)"
   xmlns:inkscape="http://www.inkscape.org/namespaces/inkscape"
   xmlns:sodipodi="http://sodipodi.sourceforge.net/DTD/sodipodi-0.dtd"
   xmlns:xlink="http://www.w3.org/1999/xlink"
   xmlns="http://www.w3.org/2000/svg"
   xmlns:svg="http://www.w3.org/2000/svg"><sodipodi:namedview
     id="namedview1"
     pagecolor="#505050"
     bordercolor="#eeeeee"
     borderopacity="1"
     inkscape:showpageshadow="0"
     inkscape:pageopacity="0"
     inkscape:pagecheckerboard="0"
     inkscape:deskcolor="#121212"
     inkscape:document-units="mm"
     inkscape:zoom="3.8198845"
     inkscape:cx="376.71297"
     inkscape:cy="635.88311"
     inkscape:window-width="1280"
     inkscape:window-height="961"
     inkscape:window-x="-8"
     inkscape:window-y="-8"
     inkscape:window-maximized="1"
     inkscape:current-layer="layer1" /><defs
     id="defs1"><linearGradient
       id="linearGradient1262"
       inkscape:collect="always"><stop
         style="stop-color:#2d9a0c;stop-opacity:1;"
         offset="0"
         id="stop1261" /><stop
         style="stop-color:#2d9a0c;stop-opacity:1;"
         offset="0.53645831"
         id="stop1263" /><stop
         style="stop-color:#4af449;stop-opacity:0;"
         offset="1"
         id="stop1262" /></linearGradient><linearGradient
       id="swatch2"
       inkscape:swatch="solid"><stop
         style="stop-color:#000000;stop-opacity:1;"
         offset="0"
         id="stop2-3" /></linearGradient><linearGradient
       inkscape:collect="always"
       xlink:href="#linearGradient1262"
       id="linearGradient360"
       gradientUnits="userSpaceOnUse"
       gradientTransform="translate(-97.288076,-6.513276)"
       x1="201.12556"
       y1="185.19376"
       x2="201.12556"
       y2="191.75674" /></defs><g
     inkscape:label="Layer 1"
     inkscape:groupmode="layer"
     id="layer1"
     transform="translate(-72.589791,-178.43047)"><path
       style="fill:url(#linearGradient360);fill-rule:evenodd;stroke:none;stroke-width:0.9375"
       d="m 76.186477,185.0037 -3.59669,-4.96093 5.12614,4.57854 2.68734,-5.9428 -0.8649,5.98867 2.22917,-3.38418 2.85018,3.36405 -1.48592,-5.84452 3.61443,5.76076 0.35431,-5.63673 1.74194,5.74298 2.35081,-4.62677 -0.43896,4.70818 5.27589,-5.20428 -2.9171,5.20755 3.66124,-3.09915 3.926143,3.1015 -2.313843,-5.58196 4.938463,5.54171 -1.21776,-5.78976 2.7084,5.74389 2.25254,-5.37182 0.30843,5.42657 5.76872,-4.43438 -3.93503,4.48026 5.05124,-3.11601 3.35517,3.04112 -3.23114,-6.01768 4.71615,6.01206 -1.36753,-5.76401 2.95082,5.72938 0.27379,-6.22547 0.93743,6.25121 2.78327,-3.39868 1.99888,3.28029 1.47378,-5.63673 0.68213,3.90674 -0.4961,2.1704 z"
       id="path360"
       sodipodi:nodetypes="ccccccccccccccccccccccccccccccccccccccc"
       inkscape:connector-curvature="0" /></g></svg>
