<?xml version="1.0" encoding="UTF-8" standalone="no"?>
<!-- Created with Inkscape (http://www.inkscape.org/) -->

<svg
   width="82.202812"
   height="158.02405"
   viewBox="0 0 23.199461 44.597899"
   version="1.1"
   id="svg1"
   inkscape:version="1.3.2 (091e20ef0f, 2023-11-25)"
   sodipodi:docname="LR.svg"
   xml:space="preserve"
   xmlns:inkscape="http://www.inkscape.org/namespaces/inkscape"
   xmlns:sodipodi="http://sodipodi.sourceforge.net/DTD/sodipodi-0.dtd"
   xmlns:xlink="http://www.w3.org/1999/xlink"
   xmlns="http://www.w3.org/2000/svg"
   xmlns:svg="http://www.w3.org/2000/svg"
   xmlns:rdf="http://www.w3.org/1999/02/22-rdf-syntax-ns#"
   xmlns:cc="http://creativecommons.org/ns#"
   xmlns:dc="http://purl.org/dc/elements/1.1/"><metadata
     id="metadata585"><rdf:RDF><cc:Work
         rdf:about=""><dc:format>image/svg+xml</dc:format><dc:type
           rdf:resource="http://purl.org/dc/dcmitype/StillImage" /></cc:Work></rdf:RDF></metadata><sodipodi:namedview
     id="namedview1"
     pagecolor="#505050"
     bordercolor="#eeeeee"
     borderopacity="1"
     inkscape:showpageshadow="0"
     inkscape:pageopacity="1"
     inkscape:pagecheckerboard="0"
     inkscape:deskcolor="#d1d1d1"
     inkscape:document-units="px"
     inkscape:zoom="1.4142136"
     inkscape:cx="-3.1819805"
     inkscape:cy="73.539105"
     inkscape:window-width="1366"
     inkscape:window-height="706"
     inkscape:window-x="-8"
     inkscape:window-y="-8"
     inkscape:window-maximized="1"
     inkscape:current-layer="layer1"
     showgrid="false"
     units="px" /><defs
     id="defs1"><linearGradient
       inkscape:collect="always"
       xlink:href="#linearGradient67"
       id="linearGradient68"
       x1="101.68382"
       y1="163.89191"
       x2="102.65639"
       y2="186.8134"
       gradientUnits="userSpaceOnUse"
       gradientTransform="translate(-53.479571,-48.494434)" /><linearGradient
       id="linearGradient67"
       inkscape:collect="always"><stop
         style="stop-color:#e16462;stop-opacity:1;"
         offset="0"
         id="stop67" /><stop
         style="stop-color:#c70003;stop-opacity:1;"
         offset="0.56756759"
         id="stop68" /></linearGradient><linearGradient
       inkscape:collect="always"
       xlink:href="#linearGradient20"
       id="linearGradient23"
       x1="119.85658"
       y1="201.23041"
       x2="120.94621"
       y2="214.3907"
       gradientUnits="userSpaceOnUse"
       gradientTransform="translate(-63.885667,-61.80343)" /><linearGradient
       id="linearGradient20"
       inkscape:collect="always"><stop
         style="stop-color:#ce0003;stop-opacity:1;"
         offset="0"
         id="stop20" /><stop
         style="stop-color:#f84a47;stop-opacity:1;"
         offset="0.16756757"
         id="stop24" /><stop
         style="stop-color:#ce0808;stop-opacity:1;"
         offset="1"
         id="stop23" /></linearGradient><linearGradient
       inkscape:collect="always"
       xlink:href="#linearGradient41"
       id="linearGradient42"
       x1="83.330315"
       y1="163.63049"
       x2="83.40316"
       y2="168.77315"
       gradientUnits="userSpaceOnUse" /><linearGradient
       id="linearGradient41"
       inkscape:collect="always"><stop
         style="stop-color:#f1a488;stop-opacity:1;"
         offset="0"
         id="stop41-1" /><stop
         style="stop-color:#fac1a6;stop-opacity:1;"
         offset="1"
         id="stop42" /></linearGradient><linearGradient
       inkscape:collect="always"
       xlink:href="#linearGradient45"
       id="linearGradient46"
       x1="81.299469"
       y1="169.23465"
       x2="86.597427"
       y2="169.23465"
       gradientUnits="userSpaceOnUse" /><linearGradient
       id="linearGradient45"
       inkscape:collect="always"><stop
         style="stop-color:#f30206;stop-opacity:1;"
         offset="0"
         id="stop45-4" /><stop
         style="stop-color:#f24743;stop-opacity:1;"
         offset="0.99661016"
         id="stop46-3" /></linearGradient><linearGradient
       inkscape:collect="always"
       xlink:href="#linearGradient43-8"
       id="linearGradient44"
       x1="90.031593"
       y1="163.66962"
       x2="90.092003"
       y2="169.05714"
       gradientUnits="userSpaceOnUse" /><linearGradient
       id="linearGradient43-8"
       inkscape:collect="always"><stop
         style="stop-color:#f0a084;stop-opacity:1;"
         offset="0"
         id="stop43-0" /><stop
         style="stop-color:#fdbfa3;stop-opacity:1;"
         offset="1"
         id="stop44-4" /></linearGradient><linearGradient
       inkscape:collect="always"
       xlink:href="#linearGradient47"
       id="linearGradient48"
       x1="87.055992"
       y1="169.09024"
       x2="92.056755"
       y2="169.09024"
       gradientUnits="userSpaceOnUse" /><linearGradient
       id="linearGradient47"
       inkscape:collect="always"><stop
         style="stop-color:#f84a4a;stop-opacity:1;"
         offset="0"
         id="stop47" /><stop
         style="stop-color:#de0b0c;stop-opacity:1;"
         offset="1"
         id="stop48" /></linearGradient><linearGradient
       inkscape:collect="always"
       xlink:href="#linearGradient64"
       id="linearGradient65"
       x1="99.008575"
       y1="189.35208"
       x2="98.83786"
       y2="202.47807"
       gradientUnits="userSpaceOnUse"
       gradientTransform="translate(-53.699971,-51.041268)" /><linearGradient
       id="linearGradient64"
       inkscape:collect="always"><stop
         style="stop-color:#c70003;stop-opacity:1;"
         offset="0.04864865"
         id="stop64" /><stop
         style="stop-color:#f74945;stop-opacity:1;"
         offset="0.24864864"
         id="stop66" /><stop
         style="stop-color:#d91918;stop-opacity:1;"
         offset="1"
         id="stop65" /></linearGradient><radialGradient
       inkscape:collect="always"
       xlink:href="#linearGradient21"
       id="radialGradient130"
       gradientUnits="userSpaceOnUse"
       gradientTransform="translate(-7.5947998,26.556535)"
       cx="102.06926"
       cy="153.20184"
       fx="102.06926"
       fy="153.20184"
       r="1.2734169" /><linearGradient
       id="linearGradient21"
       inkscape:collect="always"><stop
         style="stop-color:#fd4878;stop-opacity:1;"
         offset="0"
         id="stop21" /><stop
         style="stop-color:#f8438c;stop-opacity:0.147651;"
         offset="1"
         id="stop22" /></linearGradient><radialGradient
       inkscape:collect="always"
       xlink:href="#linearGradient21"
       id="radialGradient131"
       gradientUnits="userSpaceOnUse"
       gradientTransform="translate(2.379324,26.140946)"
       cx="102.06926"
       cy="153.20184"
       fx="102.06926"
       fy="153.20184"
       r="1.2734169" /><linearGradient
       inkscape:collect="always"
       xlink:href="#linearGradient15"
       id="linearGradient131"
       gradientUnits="userSpaceOnUse"
       gradientTransform="matrix(1.2037345,0,0,1.2037345,-27.047499,-8.735482)"
       x1="101.03868"
       y1="154.20589"
       x2="102.80596"
       y2="156.06703" /><linearGradient
       id="linearGradient15"
       inkscape:collect="always"><stop
         style="stop-color:#561407;stop-opacity:1;"
         offset="0"
         id="stop16" /><stop
         style="stop-color:#a55334;stop-opacity:1;"
         offset="1"
         id="stop17" /></linearGradient><linearGradient
       inkscape:collect="always"
       xlink:href="#linearGradient15"
       id="linearGradient132"
       gradientUnits="userSpaceOnUse"
       gradientTransform="matrix(1.2037345,0,0,1.2037345,-19.749841,-9.225258)"
       x1="101.03868"
       y1="154.20589"
       x2="102.80596"
       y2="156.06703" /><linearGradient
       inkscape:collect="always"
       xlink:href="#linearGradient31"
       id="linearGradient133"
       gradientUnits="userSpaceOnUse"
       x1="85.76815"
       y1="134.78792"
       x2="85.882812"
       y2="149.88763" /><linearGradient
       id="linearGradient31"
       inkscape:collect="always"><stop
         style="stop-color:#a53b05;stop-opacity:1;"
         offset="0"
         id="stop31" /><stop
         style="stop-color:#762101;stop-opacity:1;"
         offset="0.45423728"
         id="stop32" /></linearGradient></defs><g
     inkscape:label="Layer 1"
     inkscape:groupmode="layer"
     id="layer1"
     transform="translate(-38.016953,-115.18402)"><g
       id="g5"><path
         id="path62"
         style="fill:url(#linearGradient68);fill-rule:evenodd;stroke:#7d220e;stroke-width:0.264583px;stroke-linecap:butt;stroke-linejoin:miter;stroke-opacity:1"
         d="m 45.518456,138.63924 c 0.053,-0.0582 0.0803,-0.11023 0.05,-0.16228 -0.0571,-0.098 -0.31836,-0.19592 -0.71018,-0.3102 -0.39183,-0.11428 -0.91425,-0.24488 -1.44484,-0.43263 -0.53059,-0.18775 -1.06934,-0.43263 -1.58361,-0.7265 -0.51426,-0.29387 -1.00404,-0.63671 -1.42851,-0.98772 -0.42448,-0.35101 -0.78364,-0.71017 -1.08567,-1.14281 -0.30203,-0.43264 -0.54691,-0.93873 -0.73466,-1.54279 -0.18775,-0.60407 -0.31835,-1.30607 -0.38366,-2.04074 -0.0653,-0.73467 -0.0653,-1.50197 0.008,-2.17134 0.0735,-0.66936 0.2204,-1.24076 0.41632,-1.77135 0.19591,-0.5306 0.44079,-1.02036 0.74282,-1.54279 0.30203,-0.52244 0.6612,-1.07751 1.11833,-1.64892 0.45713,-0.57141 1.01221,-1.15913 1.56728,-1.76319 0.55508,-0.60406 1.11016,-1.22443 1.63258,-1.80401 0.52243,-0.57957 1.0122,-1.11831 1.41219,-1.56727 0.39998,-0.44897 0.71017,-0.80813 0.97139,-1.22445 0.26122,-0.41631 0.47344,-0.88975 0.65303,-1.24076 0.17959,-0.35101 0.32652,-0.57957 0.51426,-0.76731 0.18775,-0.18775 0.41631,-0.33468 0.66936,-0.41632 0.25306,-0.0816 0.53059,-0.098 0.82446,0.0571 0.29387,0.15509 0.60405,0.4816 1.00404,0.84893 0.39999,0.36734 0.88976,0.77548 1.33872,1.1918 0.44897,0.41631 0.8571,0.84077 1.33872,1.31422 0.48162,0.47346 1.03669,0.99588 1.59994,1.4775 0.56325,0.48162 1.13464,0.9224 1.70605,1.39586 0.57141,0.47345 1.1428,0.97955 1.66523,1.49381 0.52244,0.51427 0.99588,1.03669 1.3877,1.51831 0.39182,0.48161 0.70201,0.92241 0.97139,1.48565 0.26938,0.56325 0.49794,1.24892 0.65303,1.82849 0.1551,0.57957 0.23673,1.05302 0.20408,1.70607 -0.0327,0.65304 -0.17959,1.48564 -0.42448,2.30194 -0.24489,0.8163 -0.58773,1.61625 -1.00404,2.26929 -0.41632,0.65304 -0.90608,1.15913 -1.35505,1.59177 -0.44896,0.43264 -0.8571,0.7918 -1.22444,1.0775 -0.36733,0.28571 -0.69384,0.49794 -1.02036,0.6612 -0.32652,0.16326 -0.65303,0.27754 -0.90608,0.36733 -0.25306,0.0898 -0.43264,0.1551 -0.48162,0.24488 -0.0207,0.038 -0.0181,0.0803 0.005,0.12707"
         inkscape:connector-curvature="0" /><path
         id="path14"
         style="fill:url(#linearGradient23);fill-rule:evenodd;stroke:#7d220e;stroke-width:0.264583px;stroke-linecap:butt;stroke-linejoin:miter;stroke-opacity:1"
         d="m 54.426786,139.32702 c 0.0321,0.0638 0.10316,0.1357 0.20678,0.21578 0.17958,0.13877 0.45711,0.30203 0.77547,0.53876 0.31836,0.23673 0.67752,0.54691 0.96323,0.88159 0.2857,0.33469 0.49793,0.69385 0.71833,1.07751 0.2204,0.38366 0.44896,0.7918 0.62854,1.19995 0.17959,0.40815 0.31019,0.81629 0.40815,1.22444 0.098,0.40815 0.16326,0.81629 0.25306,1.24893 0.0898,0.43264 0.20407,0.88975 0.40814,1.37954 0.20408,0.48978 0.49794,1.0122 0.75099,1.41218 0.25305,0.39999 0.46529,0.67752 0.66936,0.91425 0.20407,0.23673 0.39998,0.43263 0.56324,0.62038 0.16326,0.18775 0.29386,0.36733 0.31019,0.56324 0.0163,0.1959 -0.0816,0.40815 -0.24489,0.57957 -0.16326,0.17142 -0.39182,0.30203 -0.60406,0.39998 -0.21223,0.0979 -0.40814,0.16326 -0.57956,0.21224 -0.17143,0.049 -0.31834,0.0816 -0.47345,0.098 -0.1551,0.0163 -0.31835,0.0163 -0.47345,0.0816 -0.1551,0.0653 -0.30203,0.1959 -0.41631,0.34283 -0.11428,0.14693 -2.00808,-0.10611 -2.0489,-0.0245 -0.0408,0.0816 1.5779,-0.0178 1.65712,0.11421 l -3e-5,-5e-5 -14.47288,-0.97955 c -0.19403,-0.0131 1.07588,-5.71644 1.48561,-6.37524 0.34485,-0.55446 1.80879,-3.01301 2.12336,-3.25378 0.57051,-0.43668 1.61489,-2.04601 1.96655,-2.10084 0.68697,-0.10711 3.83921,0.78682 3.85521,0.55063 0.0115,-0.16964 0.0574,-0.46896 -0.044,-0.52555"
         sodipodi:nodetypes="cssssssssssssssscsssscsssssc"
         inkscape:connector-curvature="0" /><g
         id="g61"
         transform="rotate(52.676033,96.964207,94.554449)"
         inkscape:transform-center-x="-3.0560538"
         inkscape:transform-center-y="5.0708231"><path
           style="fill:#de2120;fill-opacity:1;fill-rule:evenodd;stroke:#7d220e;stroke-width:0.264583px;stroke-linecap:butt;stroke-linejoin:miter;stroke-opacity:1"
           d="m 136.35356,155.65072 c 1.0122,0.0326 2.02439,0.0653 3.03661,0.098 0.74284,0.0898 1.48564,0.17962 2.22848,0.26943 0.79182,0.0571 2.37542,0.17144 2.37542,0.17144 0.0245,0.82447 0.049,1.64895 0.0735,2.47342 0,0 -1.68156,-0.0489 -2.52234,-0.0734 -0.93058,-0.049 -1.55432,-0.0818 -2.79172,-0.14694 -1.45448,-0.18452 -3.28149,-0.41631 -3.28149,-0.41631 0,0 0.0326,-0.85708 0.049,-1.28565 0.0571,-0.39184 0.11431,-0.78364 0.17146,-1.17547 0.22038,0.0285 0.44074,0.057 0.66111,0.0855 z"
           id="path55"
           sodipodi:nodetypes="ccccccccccc"
           transform="translate(-28.848835,-0.09795515)"
           inkscape:connector-curvature="0" /><path
           style="fill:#fbbb9f;fill-opacity:1;fill-rule:evenodd;stroke:#2a1e0b;stroke-width:0.264583px;stroke-linecap:butt;stroke-linejoin:miter;stroke-opacity:1"
           d="m 143.98409,156.14006 c 0.40982,0 0.81964,0 1.22945,0 0.25398,-0.0115 0.50794,-0.0231 0.76191,-0.0346 0.27707,0 0.55412,0 0.83118,0 0.18471,0.11545 0.36941,0.23088 0.55412,0.34633 0.0231,0.34056 0.0462,0.6811 0.0693,1.02165 -0.0173,0.28861 -0.0346,0.57721 -0.052,0.86581 -0.0462,0.19048 -0.0924,0.38096 -0.13852,0.57144 -0.13854,0.0577 -0.27706,0.11544 -0.41559,0.17316 -0.21357,0 -0.42714,0 -0.6407,0 -0.18471,-0.0693 -0.36941,-0.13853 -0.55412,-0.2078 -0.14431,-0.0231 -0.2886,-0.0462 -0.43291,-0.0693 -0.16162,-0.0115 -0.32323,-0.0231 -0.48485,-0.0346 -0.1443,-0.0173 -0.2886,-0.0346 -0.4329,-0.0519 -0.075,-0.0115 -0.15008,-0.0231 -0.22511,-0.0346 -0.0231,-0.84851 -0.0462,-1.69698 -0.0693,-2.54547 z"
           id="path56"
           transform="translate(-28.848835,-0.09795515)"
           inkscape:connector-curvature="0" /></g><g
         id="g2"
         transform="translate(-80.466214,-16.659011)"><path
           style="fill:url(#linearGradient42);fill-rule:evenodd;stroke:#2a1e0b;stroke-width:0.165;stroke-linecap:butt;stroke-linejoin:miter;stroke-dasharray:none;stroke-opacity:1"
           d="m 81.49868,163.92793 c 0,0.89793 0,1.79585 0,2.69377 -0.01632,0.66937 -0.03265,1.33872 -0.04898,2.00808 0,0.3102 0,0.62038 0,0.93057 0.195913,-0.17958 0.391819,-0.35916 0.587729,-0.53875 0.244893,-0.21224 0.489776,-0.42447 0.734663,-0.63671 0.293873,-0.098 0.587733,-0.19591 0.881597,-0.29386 0.277546,-0.0163 0.55508,-0.0326 0.83262,-0.049 0.114282,0.049 0.228561,0.0979 0.342842,0.14693 0.179589,0.0653 0.359169,0.13061 0.538755,0.19591 0.08163,0.0653 0.163259,0.13061 0.244888,0.19591 -0.09796,-0.22856 -0.195911,-0.45712 -0.293867,-0.68568 -0.0653,-0.32653 -0.130607,-0.65304 -0.195911,-0.97955 -0.03265,-0.34285 -0.0653,-0.68569 -0.09795,-1.02853 -0.130609,-0.48979 -0.261213,-0.97956 -0.391822,-1.46933 -0.08163,-0.24489 -0.163258,-0.48978 -0.244887,-0.73466 -0.963245,0.0816 -1.92645,0.16325 -2.889676,0.24488 z"
           id="path38"
           transform="translate(44.883556,5.8182388)"
           inkscape:connector-curvature="0" /><path
           style="fill:url(#linearGradient46);fill-rule:evenodd;stroke:#2a1e0b;stroke-width:0.165;stroke-linecap:butt;stroke-linejoin:miter;stroke-dasharray:none;stroke-opacity:1"
           d="m 81.400726,169.31547 c 0.310189,0.29386 0.620381,0.58773 0.930574,0.88159 0.391826,0.0816 0.78364,0.16326 1.175461,0.24489 0.277546,0.0327 0.555078,0.0653 0.832618,0.098 0.326525,-0.0163 0.653034,-0.0327 0.979551,-0.049 0.195916,-0.0653 0.391821,-0.13061 0.587732,-0.19591 0.163261,-0.0816 0.326517,-0.16326 0.489775,-0.24489 0.04898,-0.24489 0.09795,-0.48978 0.146934,-0.73466 -0.146936,-0.22857 -0.293867,-0.45713 -0.440798,-0.68569 -0.277546,-0.13061 -0.55508,-0.26121 -0.83262,-0.39182 -0.34285,-0.11428 -0.685687,-0.22856 -1.028528,-0.34284 -0.34285,0.0327 -0.685687,0.0653 -1.028531,0.0979 -0.310198,0.19592 -0.620382,0.39182 -0.930574,0.58773 -0.114281,0.098 -0.22856,0.19591 -0.342842,0.29387 -0.179588,0.14693 -0.359169,0.29386 -0.538752,0.4408 z"
           id="path40"
           transform="translate(44.883556,5.8182388)"
           inkscape:connector-curvature="0" /><path
           style="fill:#feae99;fill-opacity:1;fill-rule:evenodd;stroke:none"
           d="m 64.307553,167.55227 c 0.881596,0 1.763191,0 2.644788,0 -0.277546,-0.16326 -0.55508,-0.32651 -0.832618,-0.48977 -0.293872,-0.049 -0.587732,-0.098 -0.881597,-0.14693 -0.195916,0.0816 -0.391821,0.16325 -0.587732,0.24488 -0.114281,0.13061 -0.22856,0.26122 -0.342841,0.39182 z"
           id="path48"
           transform="matrix(1.3002788,0,0,1,43.721324,7.0916556)"
           inkscape:connector-curvature="0" /></g><g
         id="g1"
         transform="matrix(-1,0,0,1,188.54804,-16.659011)"><path
           style="fill:url(#linearGradient44);fill-rule:evenodd;stroke:#2a1e0b;stroke-width:0.165;stroke-linecap:butt;stroke-linejoin:miter;stroke-dasharray:none;stroke-opacity:1"
           d="m 91.979881,163.82998 c 0.04898,1.35504 0.09795,2.71009 0.146931,4.06514 0,0.57141 0,1.14281 0,1.71421 -0.277545,-0.32652 -0.555077,-0.65303 -0.832617,-0.97955 -0.293873,-0.17959 -0.587732,-0.35917 -0.881597,-0.53875 -0.473459,-0.0163 -0.946899,-0.0326 -1.420349,-0.049 -0.277546,0.0816 -0.55508,0.16326 -0.83262,0.24489 -0.03265,-0.52244 -0.0653,-1.04486 -0.09795,-1.56728 0.0653,-0.44081 0.130606,-0.8816 0.19591,-1.3224 0.04898,-0.3755 0.09795,-0.75099 0.146931,-1.12648 0.01632,-0.21224 0.03265,-0.42448 0.04898,-0.63671 1.175486,0.0653 2.350923,0.1306 3.526385,0.19591 z"
           id="path39"
           transform="translate(44.883556,5.8182388)"
           inkscape:connector-curvature="0" /><path
           style="fill:url(#linearGradient48);fill-rule:evenodd;stroke:#2a1e0b;stroke-width:0.165;stroke-linecap:butt;stroke-linejoin:miter;stroke-dasharray:none;stroke-opacity:1"
           d="m 87.620876,170.19706 c 0.342844,0.0653 0.685686,0.13061 1.028528,0.19591 0.342852,-0.0326 0.685686,-0.0653 1.028531,-0.0979 0.342849,-0.0326 0.685686,-0.0653 1.028528,-0.098 0.163264,-0.049 0.326517,-0.0979 0.489775,-0.14693 0.179589,-0.13061 0.359169,-0.26121 0.538755,-0.39182 0.130609,-0.0816 0.261213,-0.16326 0.391819,-0.24489 -0.179586,-0.17959 -0.359169,-0.35917 -0.538752,-0.53875 -0.163261,-0.19592 -0.326517,-0.39182 -0.489776,-0.58773 -0.375502,-0.16327 -0.75099,-0.32652 -1.126485,-0.48978 -0.391829,0.0163 -0.78364,0.0327 -1.175461,0.049 -0.114284,0.0163 -0.228563,0.0327 -0.342842,0.049 -0.195916,0.11428 -0.391821,0.22856 -0.587732,0.34284 -0.179589,0.16326 -0.359169,0.32652 -0.538753,0.48977 -0.01632,0.11429 -0.03265,0.22857 -0.04898,0.34285 -0.0653,0.21224 -0.130609,0.42447 -0.19591,0.63671 0.04898,0.049 0.09795,0.0979 0.146931,0.14693 0.130611,0.11428 0.261215,0.22856 0.391821,0.34284 z"
           id="path41"
           transform="translate(44.883556,5.8182388)"
           inkscape:connector-curvature="0" /><path
           style="fill:#feae99;fill-opacity:1;fill-rule:evenodd;stroke:none"
           d="m 64.307553,167.55227 c 0.881596,0 1.763191,0 2.644788,0 -0.277546,-0.16326 -0.55508,-0.32651 -0.832618,-0.48977 -0.293872,-0.049 -0.587732,-0.098 -0.881597,-0.14693 -0.195916,0.0816 -0.391821,0.16325 -0.587732,0.24488 -0.114281,0.13061 -0.22856,0.26122 -0.342841,0.39182 z"
           id="path49"
           transform="matrix(-1.3002788,0,0,1,219.31437,6.9447229)"
           inkscape:connector-curvature="0" /></g><g
         id="g3"
         transform="translate(-80.466214,-16.659011)"><g
           id="g35"
           transform="translate(44.079815,5.2895778)"><path
             style="fill:#aeebe1;fill-opacity:1;fill-rule:evenodd;stroke:#000000;stroke-width:0.264583px;stroke-linecap:butt;stroke-linejoin:miter;stroke-opacity:1"
             d="m 78.684751,164.26135 c 0.369414,0.34632 0.738825,0.69264 1.108237,1.03897 0.323241,0.11544 0.646472,0.23088 0.969706,0.34632 0.484864,0.0577 0.969708,0.11544 1.45456,0.17316 0.26552,-0.0231 0.531029,-0.0462 0.796544,-0.0693 0.138533,-0.0462 0.277061,-0.0924 0.415589,-0.13853 0.230888,0.0577 0.461766,0.11544 0.692647,0.17316 0.196255,0.0693 0.392501,0.13853 0.588751,0.20779 0.334788,0.1039 0.66956,0.2078 1.00434,0.3117 0.277063,-0.0115 0.554117,-0.0231 0.831175,-0.0346 0.230889,-0.0577 0.461767,-0.11545 0.692647,-0.17317 0.196255,-0.0577 0.392502,-0.11544 0.588751,-0.17316 0.207799,0.0462 0.415589,0.0924 0.623382,0.13853 0.39251,0.0346 0.785003,0.0693 1.177502,0.1039 0.277064,0.0346 0.554117,0.0693 0.831178,0.1039 0.26552,-0.0577 0.531029,-0.11545 0.796544,-0.17317 0.138533,-0.0462 0.277058,-0.0923 0.415589,-0.13853 0.150077,-0.15007 0.300146,-0.30014 0.45022,-0.45022 0.288608,0.1039 0.577207,0.2078 0.865809,0.31169 0.207799,-0.1039 0.415589,-0.20779 0.623383,-0.31169 0.150077,-0.0693 0.300148,-0.13853 0.45022,-0.20779 0.161621,-0.0577 0.323236,-0.11544 0.484854,-0.17317 0.19052,-0.0693 0.380953,-0.13852 0.571434,-0.20779 -0.08947,-0.15873 -0.178932,-0.31746 -0.2684,-0.47619 -0.129464,-0.17606 -0.258919,-0.3521 -0.388383,-0.52815 -0.10588,-0.3314 -0.211753,-0.66278 -0.317634,-0.99419 -0.07941,-0.31846 -0.158814,-0.6369 -0.238226,-0.95536 -0.07265,-0.47671 -0.145291,-0.95337 -0.217939,-1.43007 -0.08419,-0.36802 -0.168375,-0.736 -0.252569,-1.10404 0.0082,-0.23427 0.01633,-0.46852 0.02449,-0.70279 -0.05632,-0.28721 -0.11264,-0.5744 -0.168961,-0.86161 -0.05294,-0.46317 -0.105876,-0.92633 -0.158815,-1.3895 -0.154858,-0.54398 -0.309706,-1.08792 -0.464567,-1.63191 -0.30856,-0.50936 -0.617102,-1.01869 -0.92565,-1.52803 -0.277066,-0.30016 -0.554119,-0.6003 -0.831178,-0.90045 -0.219342,-0.26552 -0.438676,-0.53103 -0.658016,-0.79654 -0.103899,-0.34633 -0.207793,-0.69265 -0.31169,-1.03897 -0.196254,-0.15008 -0.392501,-0.30015 -0.58875,-0.45022 -0.184711,-0.0808 -0.369412,-0.16162 -0.55412,-0.24243 -0.06927,-0.2078 -0.138528,-0.41559 -0.207793,-0.62338 -0.207799,-0.13853 -0.415589,-0.27706 -0.623382,-0.41559 -0.519491,-0.1039 -1.038963,-0.20779 -1.558456,-0.31169 -0.26552,0.16163 -0.531022,0.32325 -0.796547,0.48489 -0.28284,0.1443 -0.565659,0.2886 -0.848492,0.4329 -0.248201,0.16162 -0.496392,0.32323 -0.744597,0.48485 -0.150077,0.12122 -0.300146,0.24243 -0.450219,0.36364 -0.380959,0.75037 -1.142871,2.25111 -1.142871,2.25111 -0.288603,1.22368 -0.577205,2.44735 -0.865808,3.67103 0,0 -0.138529,0.69264 -0.207795,1.03897 -0.05772,0.33478 -0.11544,0.66956 -0.173161,1.00434 -0.06927,0.28861 -0.138528,0.5772 -0.207794,0.86581 -0.05772,0.33478 -0.115443,0.66956 -0.173161,1.00434 -0.08081,0.2886 -0.161619,0.5772 -0.242428,0.8658 -0.126986,0.42714 -0.25397,0.85427 -0.380955,1.2814 -0.126989,0.26552 -0.25397,0.53103 -0.380957,0.79655 -0.126987,0.17316 -0.253971,0.34632 -0.380955,0.51948 -0.12699,0.0924 -0.253971,0.18471 -0.380958,0.27706 -0.115443,0.12699 -0.230881,0.25397 -0.346324,0.38096 z"
             id="path32"
             sodipodi:nodetypes="sccccccccccccccccccccccccccccccccccccccccccccccccccccccccss"
             inkscape:connector-curvature="0" /><path
             style="fill:#32dfc3;fill-opacity:0.649306;fill-rule:evenodd;stroke:none"
             d="m 83.619865,165.57738 c -0.02886,-0.60607 -0.05772,-1.21214 -0.08658,-1.8182 -0.01154,-0.35788 -0.0231,-0.71574 -0.03463,-1.07361 -0.0231,-0.18471 -0.04618,-0.36941 -0.06927,-0.55412 -0.06349,0.29439 -0.126984,0.58876 -0.190477,0.88313 -0.05195,0.26552 -0.103899,0.53103 -0.155847,0.79655 -0.05772,0.25397 -0.11544,0.50794 -0.173162,0.76191 -0.0231,0.20202 -0.04618,0.40404 -0.06927,0.60607 -0.01154,0.10967 -0.0231,0.21933 -0.03463,0.329 0.0058,0.0693 0.01154,0.13853 0.0173,0.2078 0.138531,0 0.277059,0 0.415589,0 0.06927,-0.0289 0.138528,-0.0577 0.207793,-0.0866 0.05772,-0.0173 0.115441,-0.0346 0.173162,-0.052 z"
             id="path33"
             transform="translate(0,-0.09795515)"
             inkscape:connector-curvature="0" /><path
             style="fill:#2ddec2;fill-opacity:0.645833;fill-rule:evenodd;stroke:none"
             d="m 88.364501,165.99297 c -0.05772,-0.24243 -0.115441,-0.48486 -0.173162,-0.72728 -0.05772,-0.32902 -0.11544,-0.65802 -0.173162,-0.98703 -0.05772,-0.22511 -0.11544,-0.45022 -0.173162,-0.67533 -0.0635,-0.17316 -0.126987,-0.34632 -0.190479,-0.51948 -0.0404,0.1443 -0.08081,0.2886 -0.121213,0.4329 -0.0058,0.32324 -0.01154,0.64647 -0.0173,0.96971 0,0.22511 0,0.45022 0,0.67533 -0.04618,0.20202 -0.09235,0.40404 -0.13853,0.60606 0.0058,0.0808 0.01154,0.16162 0.0173,0.24243 0.155848,-0.0231 0.31169,-0.0462 0.467538,-0.0693 0.08658,0.0173 0.173161,0.0346 0.259741,0.052 0.08081,0 0.161618,0 0.242427,0 z"
             id="path34"
             transform="translate(0,-0.13468832)"
             inkscape:connector-curvature="0" /><path
             style="fill:#32dfc3;fill-opacity:0.649306;fill-rule:evenodd;stroke:none"
             d="m 92.156745,165.59469 c -0.103897,-0.2886 -0.207794,-0.5772 -0.31169,-0.86581 -0.05772,-0.32901 -0.115443,-0.65801 -0.173162,-0.98702 -0.173696,-0.80551 -0.347336,-1.61077 -0.521078,-2.41649 0.02701,0.54059 0.054,1.08086 0.081,1.62131 0.02548,0.33433 0.05096,0.66865 0.07644,1.00296 0.0231,0.2078 0.04618,0.41559 0.06927,0.62338 0.0231,0.21935 0.04618,0.43868 0.06927,0.65802 -0.0058,0.19048 -0.01154,0.38096 -0.0173,0.57143 0.01154,0.0693 0.0231,0.13853 0.03463,0.2078 0.115446,-0.0635 0.230884,-0.12699 0.346324,-0.19048 0.115446,-0.075 0.230883,-0.15007 0.346324,-0.22511 z"
             id="path35-6"
             transform="translate(0,-0.1714215)"
             sodipodi:nodetypes="sccccccccccss"
             inkscape:connector-curvature="0" /></g><path
           id="circle36"
           style="fill:#ff0302;stroke:#871a09;stroke-width:0.165;stroke-linecap:round;stroke-linejoin:round"
           d="m 131.77855,160.91751 a 0.66119725,0.66119725 0 0 1 -0.66119,0.6612 0.66119725,0.66119725 0 0 1 -0.6612,-0.6612 0.66119725,0.66119725 0 0 1 0.6612,-0.6612 0.66119725,0.66119725 0 0 1 0.66119,0.6612 z" /><path
           id="path36"
           style="fill:#ff0302;stroke:#871a09;stroke-width:0.165;stroke-linecap:round;stroke-linejoin:round"
           d="m 131.20171,158.70886 a 0.66119725,0.66119725 0 0 1 -0.6612,0.6612 0.66119725,0.66119725 0 0 1 -0.6612,-0.6612 0.66119725,0.66119725 0 0 1 0.6612,-0.66119 0.66119725,0.66119725 0 0 1 0.6612,0.66119 z" /><g
           id="g31"
           transform="translate(23.83109,5.2970645)"><path
             style="fill:none;stroke:#faf6f6;stroke-width:0.264583px;stroke-linecap:butt;stroke-linejoin:miter;stroke-opacity:1"
             d="m 107.53352,152.6595 c 0.23088,0.0462 0.46176,0.0923 0.69265,0.13853 0.17893,-0.0404 0.35787,-0.0808 0.5368,-0.12121 0.0924,-0.13853 0.1847,-0.27706 0.27706,-0.41559 -0.0346,-0.20203 -0.0693,-0.40405 -0.1039,-0.60607 -0.16162,-0.17893 -0.32324,-0.35787 -0.48485,-0.5368 -0.20203,-0.13276 -0.40405,-0.26551 -0.60607,-0.39827 -0.19048,-0.10967 -0.38095,-0.21934 -0.57143,-0.32901 -0.11545,-0.0577 -0.23089,-0.11544 -0.34633,-0.17316 -0.0693,-0.0231 -0.13853,-0.0462 -0.20779,-0.0693 0.0231,0.16739 0.0462,0.33477 0.0693,0.50216 0.0173,0.1674 0.0346,0.33478 0.0519,0.50217 -0.0173,0.14431 -0.0346,0.28861 -0.0519,0.43291 0.0635,0.11544 0.12699,0.23088 0.19048,0.34632 0.0462,0.15009 0.0923,0.30013 0.13854,0.45022 0.10968,0.0693 0.21933,0.13853 0.329,0.2078 0.0289,0.0231 0.0577,0.0462 0.0866,0.0693 z"
             id="path29"
             sodipodi:nodetypes="cccccccccccccccccc"
             inkscape:connector-curvature="0" /><path
             style="fill:none;stroke:#faf6f6;stroke-width:0.264583px;stroke-linecap:butt;stroke-linejoin:miter;stroke-opacity:1"
             d="m 106.63308,151.482 c -0.0981,0.2886 -0.19625,0.57721 -0.29438,0.86581 -0.27129,0.23089 -0.54257,0.46177 -0.81386,0.69265 -0.20202,-0.0115 -0.40404,-0.0231 -0.60606,-0.0346 -0.13854,-0.17894 -0.27707,-0.35787 -0.41559,-0.53681 -0.0289,-0.19048 -0.0577,-0.38095 -0.0866,-0.57143 0.16163,-0.20203 0.32324,-0.40404 0.48486,-0.60607 0.21934,-0.12121 0.43868,-0.24242 0.65802,-0.36364 0.17893,-0.0923 0.35786,-0.1847 0.53679,-0.27706 0.11545,-0.0924 0.23089,-0.1847 0.34633,-0.27705 0.0635,-0.0346 0.12699,-0.0693 0.19048,-0.1039 0.0289,0.17316 0.0577,0.34632 0.0866,0.51948 -0.0115,0.12699 -0.0231,0.25397 -0.0346,0.38096 -0.0173,0.1039 -0.0346,0.20779 -0.0519,0.31169 z"
             id="path31"
             inkscape:connector-curvature="0" /></g></g><g
         id="g60"
         transform="rotate(64.361314,86.342118,103.56518)"
         inkscape:transform-center-x="-2.5644884"
         inkscape:transform-center-y="5.779349"><path
           style="fill:#de2120;fill-opacity:1;fill-rule:evenodd;stroke:#7d220e;stroke-width:0.264583px;stroke-linecap:butt;stroke-linejoin:miter;stroke-opacity:1"
           d="m 135.54543,155.84663 c 1.28158,-0.0326 2.56314,-0.0653 3.84474,-0.0979 0.74284,0.0898 1.48564,0.17962 2.22848,0.26943 0.79182,0.0571 2.37542,0.17144 2.37542,0.17144 0.0245,0.82447 0.049,1.64895 0.0735,2.47342 0,0 -1.68156,-0.0489 -2.52234,-0.0734 -0.93058,-0.049 -1.55432,-0.0818 -2.79172,-0.14694 -1.9375,-0.15196 -4.37124,-0.34285 -4.37124,-0.34285 0,0 0.16322,-0.62854 0.24484,-0.9428 0.30609,-0.43679 0.6122,-0.8736 0.9183,-1.31039 z"
           id="path57"
           sodipodi:nodetypes="sccccccccss"
           transform="translate(-34.008436,-1.5939337)"
           inkscape:connector-curvature="0" /><path
           style="fill:#fbbb9f;fill-opacity:1;fill-rule:evenodd;stroke:#2a1e0b;stroke-width:0.264583px;stroke-linecap:butt;stroke-linejoin:miter;stroke-opacity:1"
           d="m 143.98409,156.14006 c 0.40982,0 0.81964,0 1.22945,0 0.25398,-0.0115 0.50794,-0.0231 0.76191,-0.0346 0.27707,0 0.55412,0 0.83118,0 0.18471,0.11545 0.36941,0.23088 0.55412,0.34633 0.0231,0.34056 0.0462,0.6811 0.0693,1.02165 -0.0173,0.28861 -0.0346,0.57721 -0.052,0.86581 -0.0462,0.19048 -0.0924,0.38096 -0.13852,0.57144 -0.13854,0.0577 -0.27706,0.11544 -0.41559,0.17316 -0.21357,0 -0.42714,0 -0.6407,0 -0.18471,-0.0693 -0.36941,-0.13853 -0.55412,-0.2078 -0.14431,-0.0231 -0.2886,-0.0462 -0.43291,-0.0693 -0.16162,-0.0115 -0.32323,-0.0231 -0.48485,-0.0346 -0.1443,-0.0173 -0.2886,-0.0346 -0.4329,-0.0519 -0.075,-0.0115 -0.15008,-0.0231 -0.22511,-0.0346 -0.0231,-0.84851 -0.0462,-1.69698 -0.0693,-2.54547 z"
           id="path58"
           transform="translate(-34.008436,-1.5939337)"
           inkscape:connector-curvature="0" /></g><path
         id="path64"
         style="fill:url(#linearGradient65);fill-rule:evenodd;stroke:#7d220e;stroke-width:0.264583px;stroke-linecap:butt;stroke-linejoin:miter;stroke-opacity:1"
         d="m 51.354236,137.57859 c 0.0668,0.0333 1.95906,0.26121 2.60832,0.70315 0.64926,0.44194 -0.3375,1.01032 -0.47418,1.00444 -1.27123,-0.0546 -3.81072,-0.98195 -3.83232,-0.9081 -0.0979,0.33468 0.40197,1.48643 0.12443,1.85377 -0.27754,0.36734 -0.63671,0.77548 -0.95506,1.17547 -0.31836,0.39998 -0.59589,0.79179 -0.9469,1.22443 -0.35101,0.43264 -0.77548,0.90608 -1.08567,1.30607 -0.31021,0.39999 -0.50611,0.7265 -0.751,0.95506 -0.24489,0.22856 -0.53875,0.35917 -0.73466,0.68568 -0.19591,0.32652 -0.29387,0.84895 -0.39999,1.39587 -0.10611,0.54692 -0.2204,1.11832 -0.32652,1.64891 -0.10611,0.53059 -0.20407,1.02036 -0.33467,1.44484 -0.13061,0.42447 -0.29387,0.78364 -0.44896,1.06934 -0.1551,0.28571 -0.30203,0.49794 -0.47345,0.51426 -0.17143,0.0163 -0.36733,-0.16326 -0.53059,-0.31835 -0.16326,-0.1551 -0.29386,-0.2857 -0.46529,-0.34284 -0.17142,-0.0571 -0.38366,-0.0408 -0.62855,-0.008 -0.24489,0.0327 -0.52243,0.0816 -0.83262,0.0571 -0.3102,-0.0245 -0.65303,-0.12244 -0.93873,-0.31019 -0.28571,-0.18775 -0.51426,-0.46528 -0.68569,-0.66119 -0.17142,-0.19592 -0.2857,-0.3102 -0.36733,-0.43264 -0.0816,-0.12245 -0.1306,-0.25305 -0.0653,-0.35101 0.0653,-0.098 0.24489,-0.16326 0.43264,-0.26121 0.18775,-0.098 0.38365,-0.22856 0.55508,-0.41631 0.17142,-0.18775 0.31835,-0.43264 0.47345,-0.75916 0.1551,-0.32652 0.31835,-0.73466 0.47345,-1.1673 0.1551,-0.43264 0.30203,-0.88975 0.45712,-1.42851 0.1551,-0.53876 0.31836,-1.15913 0.48978,-1.69789 0.17142,-0.53875 0.351,-0.99587 0.58773,-1.40402 0.23673,-0.40815 0.53059,-0.76731 0.79996,-1.15097 0.26938,-0.38366 0.51427,-0.7918 0.8163,-1.14281 0.30203,-0.35101 0.66119,-0.64487 0.90608,-0.8816 0.24489,-0.23672 0.37549,-0.4163 0.51425,-0.55506 0.065,-0.065 0.0829,-0.0966 0.12964,-0.14792"
         sodipodi:nodetypes="csssssssssssssssscssssscssssssssssc"
         inkscape:connector-curvature="0" /><path
         style="fill:#c70003;fill-opacity:1;fill-rule:evenodd;stroke:none"
         d="m 47.916246,137.02037 0.0612,1.71421 1.39586,-0.75915 1.86115,-0.15918 c 0,0 2.77948,0.84486 2.76723,0.79589 -0.0122,-0.049 0.049,-0.74691 0.049,-0.74691 l -2.77947,-0.91833 -1.71422,0.12244 z"
         id="path68"
         sodipodi:nodetypes="ccccccccc"
         inkscape:connector-curvature="0" /><g
         id="g98"
         transform="translate(-49.512388,-46.045554)"><path
           style="fill:#f9ab99;fill-opacity:1;fill-rule:evenodd;stroke:none"
           d="m 79.515929,146.42567 c -0.323236,-0.1847 -0.646472,-0.36941 -0.969706,-0.55411 -0.230888,-0.13854 -0.461766,-0.27706 -0.692647,-0.41559 -0.184711,-0.0462 -0.369414,-0.0924 -0.554119,-0.13853 0,0.27706 0,0.55412 0,0.83118 0.09235,0.27706 0.184705,0.55411 0.277058,0.83117 0.253976,0.2078 0.507942,0.41559 0.761913,0.62338 0.277066,0 0.554119,0 0.831178,0 0.300154,0 0.600294,0 0.90044,0 -0.184708,-0.3925 -0.369411,-0.785 -0.554117,-1.1775 z"
           id="path83"
           transform="translate(14.085066,33.413745)"
           inkscape:connector-curvature="0" /><path
           style="fill:#762101;fill-opacity:1;fill-rule:evenodd;stroke:#651900;stroke-width:0.264583px;stroke-linecap:butt;stroke-linejoin:miter;stroke-opacity:1"
           d="m 105.98747,178.37632 c 0.18833,0.66755 0.37665,1.33509 0.56498,2.00265 -0.83886,1.21557 -1.67769,2.43108 -2.51656,3.64667 0.43714,-1.06008 0.87425,-2.12008 1.31139,-3.18016 0.13177,-0.51287 0.26354,-1.02572 0.39532,-1.53859 -0.11428,-0.34285 -0.22856,-0.68568 -0.34284,-1.02853 0.19591,0.0327 0.39182,0.0653 0.58773,0.098 z"
           id="path84"
           sodipodi:nodetypes="cccccccc"
           inkscape:connector-curvature="0" /><path
           style="fill:#f9ab99;fill-opacity:1;fill-rule:evenodd;stroke:none"
           d="m 91.775789,144.2092 c 0.138531,-0.27706 0.277059,-0.55411 0.415589,-0.83117 0.230886,0 0.461765,0 0.692648,0 0.0231,0.46177 0.04617,0.92352 0.06926,1.38529 -0.138533,0.23089 -0.277061,0.46177 -0.415589,0.69265 -0.207798,0.0693 -0.415589,0.13853 -0.623382,0.20779 -0.207798,0.0231 -0.415589,0.0462 -0.623385,0.0693 0,-0.50796 0,-1.01589 0,-1.52383 0.161621,0 0.323236,0 0.484854,0 z"
           id="path85"
           transform="translate(13.669478,33.20595)"
           inkscape:connector-curvature="0" /><path
           style="fill:#d6866b;fill-opacity:1;fill-rule:evenodd;stroke:#d5856a;stroke-width:0.165;stroke-linecap:butt;stroke-linejoin:miter;stroke-dasharray:none;stroke-opacity:1"
           d="m 101.67744,144.63077 c 0.14693,0.049 0.29386,0.0979 0.4408,0.14693 0.11428,0.17959 0.22856,0.35917 0.34284,0.53876 0,0.11428 0,0.22856 0,0.34284 -0.16326,-0.14694 -0.32652,-0.29387 -0.48978,-0.4408 -0.0979,-0.19591 -0.19591,-0.39182 -0.29386,-0.58773 z"
           id="path86"
           transform="rotate(47.886458,67.207644,165.8276)"
           inkscape:connector-curvature="0" /><path
           style="fill:#fdc1a6;fill-opacity:1;fill-rule:evenodd;stroke:none"
           d="m 100.988,148.26119 c 0.73882,0.34632 1.47765,0.69265 2.21647,1.03897 0.80811,0.16162 1.61618,0.32324 2.42427,0.48486 0.60031,-0.0115 1.20059,-0.0231 1.80088,-0.0346 0.49641,-0.13853 0.9928,-0.27706 1.48919,-0.41559 0.53105,-0.33478 1.06206,-0.66955 1.59309,-1.00433 0.42714,-0.47332 0.85427,-0.94662 1.2814,-1.41993 0.2078,-0.49641 0.41559,-0.9928 0.62338,-1.4892 0.0346,-0.66957 0.0693,-1.33911 0.1039,-2.00867 -0.0808,-0.55413 -0.16162,-1.10824 -0.24243,-1.66236 -0.27706,-0.66957 -0.55411,-1.33911 -0.83117,-2.00867 -0.61185,-0.55413 -1.22368,-1.10824 -1.83552,-1.66236 -0.7042,-0.26552 -1.40838,-0.53103 -2.11257,-0.79654 -0.85428,-0.0231 -1.70853,-0.0462 -2.5628,-0.0693 -0.78502,0.0924 -1.57,0.18471 -2.355,0.27706 -0.5195,0.40405 -1.03896,0.80808 -1.55846,1.21213 -0.18471,0.49641 -0.36941,0.99279 -0.55411,1.4892 -0.25398,0.56567 -0.507941,1.13131 -0.761919,1.69699 -0.06927,0.54258 -0.13853,1.08514 -0.207796,1.62772 -0.09235,0.46177 -0.184705,0.92352 -0.277061,1.38529 0.1039,0.50795 0.207793,1.01587 0.311693,1.52382 0.126988,0.32325 0.253972,0.64648 0.380956,0.96971 0.242437,0.23089 0.484857,0.46176 0.727287,0.69265 0.11544,0.0577 0.23088,0.11544 0.34632,0.17316 z"
           id="path87"
           transform="translate(-6.5558286,33.967863)"
           sodipodi:nodetypes="sccccccccccccccccccccccss"
           inkscape:connector-curvature="0" /><path
           id="circle87"
           style="opacity:0.657258;fill:url(#radialGradient130)"
           d="m 95.747866,179.75836 a 1.2734169,1.2734169 0 0 1 -1.273417,1.27342 1.2734169,1.2734169 0 0 1 -1.273417,-1.27342 1.2734169,1.2734169 0 0 1 1.273417,-1.27342 1.2734169,1.2734169 0 0 1 1.273417,1.27342 z" /><path
           style="fill:#ffffff;fill-opacity:1;fill-rule:evenodd;stroke:none"
           d="m 100.64168,144.17457 c 0.0115,0.0462 0.0231,0.0924 0.0346,0.13853 0.30015,0.30015 0.60029,0.60029 0.90044,0.90044 0.34633,0.11544 0.69265,0.23088 1.03897,0.34633 0.36942,-0.0693 0.73883,-0.13854 1.10824,-0.2078 0.26552,-0.19625 0.53103,-0.3925 0.79654,-0.58875 0.1039,-0.23089 0.2078,-0.46177 0.31169,-0.69265 -0.21934,-0.36942 -0.43867,-0.73882 -0.65801,-1.10823 -0.26552,-0.11545 -0.53103,-0.23089 -0.79655,-0.34633 -0.36942,-0.0115 -0.73882,-0.0231 -1.10823,-0.0346 -0.3117,0.13853 -0.62338,0.27706 -0.93507,0.41559 -0.16163,0.2078 -0.32324,0.41559 -0.48486,0.62338 -0.0693,0.18471 -0.13853,0.36942 -0.20779,0.55412 z"
           id="path88"
           transform="translate(-6.5558286,33.967863)"
           inkscape:connector-curvature="0" /><path
           id="circle88"
           style="opacity:0.657258;fill:url(#radialGradient131)"
           d="m 105.72201,179.34277 a 1.2734169,1.2734169 0 0 1 -1.27342,1.27342 1.2734169,1.2734169 0 0 1 -1.27341,-1.27342 1.2734169,1.2734169 0 0 1 1.27341,-1.27341 1.2734169,1.2734169 0 0 1 1.27342,1.27341 z" /><path
           style="fill:#ffffff;fill-opacity:1;fill-rule:evenodd;stroke:none"
           d="m 108.1569,143.55119 c 0.0997,0.26679 0.19939,0.53359 0.29909,0.80038 0.26972,0.22961 0.53943,0.45921 0.80915,0.68881 0.23089,0 0.46176,0 0.69264,0 0.22681,-0.095 0.4536,-0.19006 0.68041,-0.2851 0.17246,-0.14191 0.34492,-0.28382 0.51738,-0.42573 0.12023,-0.13247 0.24045,-0.26494 0.36067,-0.39741 0.0808,-0.13853 0.16162,-0.27705 0.24243,-0.41559 -0.13784,-0.21259 -0.27565,-0.42514 -0.41349,-0.63773 -0.12769,-0.14529 -0.25537,-0.29058 -0.38306,-0.43587 -0.25397,-0.1039 -0.50794,-0.20779 -0.76191,-0.31169 -0.24243,0.0231 -0.48485,0.0462 -0.72728,0.0693 -0.28861,0.12698 -0.5772,0.25397 -0.86581,0.38095 -0.0808,0.13853 -0.16161,0.27706 -0.24242,0.41559 -0.0693,0.18471 -0.13853,0.36941 -0.2078,0.55412 z"
           id="path89"
           sodipodi:nodetypes="cccccccccccccccc"
           transform="translate(-6.5558286,33.967863)"
           inkscape:connector-curvature="0" /><path
           id="circle89"
           style="fill:url(#linearGradient131);stroke:#000000;stroke-width:0.240747;stroke-linecap:round;stroke-linejoin:round;stroke-opacity:0"
           d="m 97.113825,178.00761 a 1.3265097,1.3265097 0 0 1 -1.32651,1.32651 1.3265097,1.3265097 0 0 1 -1.326509,-1.32651 1.3265097,1.3265097 0 0 1 1.326509,-1.32651 1.3265097,1.3265097 0 0 1 1.32651,1.32651 z" /><path
           id="circle90"
           style="fill:url(#linearGradient132);stroke:#000000;stroke-width:0.240747;stroke-linecap:round;stroke-linejoin:round;stroke-opacity:0"
           d="m 104.41149,177.51784 a 1.3265097,1.3265097 0 0 1 -1.32651,1.32651 1.3265097,1.3265097 0 0 1 -1.32651,-1.32651 1.3265097,1.3265097 0 0 1 1.32651,-1.32651 1.3265097,1.3265097 0 0 1 1.32651,1.32651 z" /><path
           id="circle91"
           style="fill:#350b03"
           d="m 96.590933,178.05991 a 0.73466355,0.73466355 0 0 1 -0.734663,0.73466 0.73466355,0.73466355 0 0 1 -0.734664,-0.73466 0.73466355,0.73466355 0 0 1 0.734664,-0.73467 0.73466355,0.73466355 0 0 1 0.734663,0.73467 z" /><path
           id="circle92"
           style="display:inline;fill:#350b03"
           d="m 103.88859,177.61911 a 0.73466355,0.73466355 0 0 1 -0.73467,0.73466 0.73466355,0.73466355 0 0 1 -0.73466,-0.73466 0.73466355,0.73466355 0 0 1 0.73466,-0.73466 0.73466355,0.73466355 0 0 1 0.73467,0.73466 z" /><path
           style="fill:#000000;fill-opacity:1;fill-rule:evenodd;stroke:none"
           d="m 80.866593,144.36505 c -0.0231,-0.0346 -0.04618,-0.0693 -0.06927,-0.1039 -0.02886,-0.13853 -0.05772,-0.27706 -0.08658,-0.41559 0.150077,-0.19048 0.300149,-0.38095 0.450221,-0.57143 0.236661,-0.12699 0.47331,-0.25397 0.709964,-0.38096 0.230889,-0.052 0.461767,-0.10389 0.692647,-0.15584 0.265522,0.026 0.531024,0.052 0.796546,0.0779 0.25975,0.15007 0.519484,0.30014 0.779229,0.45021 0.09524,0.1472 0.190477,0.29439 0.285716,0.44158 0.04906,0.1241 0.09812,0.24819 0.147187,0.37229 -0.228002,-0.2078 -0.455987,-0.41558 -0.683989,-0.62338 -0.210685,-0.11256 -0.421358,-0.22511 -0.632041,-0.33767 -0.202025,-0.0577 -0.404043,-0.11544 -0.606065,-0.17316 -0.248206,0.0577 -0.496398,0.11544 -0.744596,0.17316 -0.161621,0.075 -0.323236,0.15008 -0.484854,0.22511 -0.08658,0.0808 -0.173162,0.16162 -0.259744,0.24243 -0.06349,0.1443 -0.126985,0.2886 -0.190477,0.43291 -0.03463,0.11544 -0.06927,0.23088 -0.103896,0.34632 z"
           id="path92"
           transform="translate(13.475998,33.722975)"
           sodipodi:nodetypes="sccccccccccccccccss"
           inkscape:connector-curvature="0" /><path
           style="fill:#000000;fill-opacity:1;fill-rule:evenodd;stroke:none"
           d="m 80.866593,144.36505 c -0.0231,-0.0346 -0.04618,-0.0693 -0.06927,-0.1039 -0.02886,-0.13853 -0.05772,-0.27706 -0.08658,-0.41559 0.150077,-0.19048 0.300149,-0.38095 0.450221,-0.57143 0.236661,-0.12699 0.47331,-0.25397 0.709964,-0.38096 0.230889,-0.052 0.461767,-0.10389 0.692647,-0.15584 0.25975,0.0404 0.519486,0.0808 0.77923,0.12121 0.173165,0.13276 0.346324,0.26552 0.519486,0.39827 0.06927,0.13276 0.138527,0.26552 0.207793,0.39828 0.0404,0.12698 0.08081,0.25397 0.121213,0.38095 -0.173164,-0.17894 -0.346323,-0.35787 -0.519485,-0.5368 -0.138533,-0.12699 -0.277059,-0.25397 -0.415589,-0.38096 -0.202025,-0.0577 -0.404043,-0.11544 -0.606065,-0.17316 -0.248206,0.0577 -0.496398,0.11544 -0.744596,0.17316 -0.161621,0.075 -0.323236,0.15008 -0.484854,0.22511 -0.08658,0.0808 -0.173162,0.16162 -0.259744,0.24243 -0.06349,0.1443 -0.126985,0.2886 -0.190477,0.43291 -0.03463,0.11544 -0.06927,0.23088 -0.103896,0.34632 z"
           id="path93"
           transform="translate(20.818061,33.272754)"
           inkscape:connector-curvature="0" /><path
           style="fill:none;stroke:#e2836a;stroke-width:0.565;stroke-linecap:butt;stroke-linejoin:miter;stroke-dasharray:none;stroke-opacity:0.633803"
           d="m 87.55064,145.17891 c 0.11544,0.0462 0.145845,0.0583 0.346323,0.13853 0.139328,0.19804 0.08113,0.11532 0.240691,0.34212 0.0053,0.19458 0.0054,0.19562 0.008,0.2935 -0.03675,0.0652 -0.07346,0.13037 -0.1102,0.19556 -0.08637,-0.0402 -0.04617,0.0462 -0.06927,0.0693 -0.06765,0.0887 -0.103055,0.13509 -0.171068,0.22424 -0.115459,0.10707 -0.08943,0.0829 -0.23736,0.22011 -0.09081,-0.10424 -0.09712,-0.11149 -0.145704,-0.16726 0,0.0231 0,0.0462 0,0.0693 -0.0017,-5.1e-4 -0.02011,-0.006 -0.04057,-0.0123 -0.119252,-0.0288 -0.161856,-0.039 -0.236486,-0.057 -0.01432,-0.01 -0.09071,-0.0614 -0.126286,-0.0855 -0.06199,-0.093 -0.137802,-0.20682 -0.220054,-0.33027"
           id="path94"
           transform="translate(13.738742,33.413745)"
           sodipodi:nodetypes="ccscccccccsccc"
           inkscape:connector-curvature="0" /><path
           style="fill:#f17769;fill-opacity:1;fill-rule:evenodd;stroke:none"
           d="m 81.455341,147.32612 c 0.854265,0.46176 1.708531,0.92353 2.562796,1.38529 0.761929,0.0924 1.523826,0.18471 2.285738,0.27706 0.554128,-0.0924 1.108234,-0.18471 1.662354,-0.27706 0.623395,-0.34633 1.246764,-0.69265 1.870146,-1.03897 0.230889,-0.4156 0.461767,-0.83118 0.692648,-1.24677 -0.334786,0.30016 -0.669558,0.6003 -1.004338,0.90045 -0.45023,0.21934 -0.900443,0.43867 -1.350663,0.65801 -0.600305,0.0924 -1.200589,0.18471 -1.800884,0.27706 -0.577218,-0.0231 -1.154411,-0.0462 -1.731618,-0.0693 -0.438685,-0.10389 -0.877353,-0.20779 -1.31603,-0.31169 -0.392507,-0.16162 -0.785,-0.32323 -1.177502,-0.48485 -0.230886,-0.0231 -0.461764,-0.0462 -0.692647,-0.0693 z"
           id="path95"
           transform="translate(13.622931,33.82093)"
           inkscape:connector-curvature="0" /><path
           style="fill:#d6866b;fill-opacity:1;fill-rule:evenodd;stroke:#d5856a;stroke-width:0.165;stroke-linecap:butt;stroke-linejoin:miter;stroke-dasharray:none;stroke-opacity:1"
           d="m 101.67744,144.63077 c 0.14693,0.049 0.29386,0.0979 0.4408,0.14693 0.11428,0.17959 0.22856,0.35917 0.34284,0.53876 0,0.11428 0,0.22856 0,0.34284 -0.16326,-0.14694 -0.32652,-0.29387 -0.48978,-0.4408 -0.0979,-0.19591 -0.19591,-0.39182 -0.29386,-0.58773 z"
           id="path96"
           transform="translate(-9.8924205,34.788896)"
           inkscape:connector-curvature="0" /><path
           style="fill:url(#linearGradient133);fill-rule:evenodd;stroke:#651900;stroke-width:0.264583px;stroke-linecap:butt;stroke-linejoin:miter;stroke-opacity:1"
           d="m 82.32115,149.95818 c -0.346323,0.0115 -0.692647,0.0231 -1.038971,0.0346 -0.323241,-0.2078 -0.64647,-0.41559 -0.969706,-0.62338 -0.277063,-0.35788 -0.554117,-0.71574 -0.831175,-1.07361 -0.196255,-0.69266 -0.392501,-1.38529 -0.588751,-2.07794 0,-0.57722 0,-1.15441 0,-1.73162 0.05772,-0.7042 0.115441,-1.40838 0.173162,-2.11257 0.196252,-0.6234 0.392499,-1.24677 0.588751,-1.87015 0.24243,-0.47332 0.484851,-0.94662 0.727279,-1.41993 0.565673,-0.60031 1.131323,-1.20059 1.696987,-1.80088 0.565671,-0.38097 1.131324,-0.76191 1.696984,-1.14287 0.600308,-0.33479 1.20059,-0.66956 1.800884,-1.00434 0.600308,-0.12699 1.200589,-0.25397 1.800884,-0.38095 0.658029,0.0693 1.316029,0.13852 1.974046,0.20779 0.600305,0.23089 1.200589,0.46176 1.800883,0.69265 0.484863,0.32324 0.969706,0.64647 1.45456,0.9697 0.300152,0.4156 0.600292,0.83118 0.900441,1.24677 0.126987,0.38096 0.253971,0.76191 0.380955,1.14287 -0.01154,0.41559 -0.0231,0.83117 -0.03463,1.24676 -0.173165,0.33479 -0.346324,0.66956 -0.519486,1.00434 -0.161621,0.25398 -0.323236,0.50794 -0.484854,0.76191 -0.103899,0.24244 -0.207793,0.48486 -0.31169,0.72728 -0.09235,0.19626 -0.184705,0.3925 -0.277058,0.58875 -0.0231,0.0462 -0.04618,0.0924 -0.06927,0.13853 -0.115443,0.0693 -0.230883,0.13853 -0.346323,0.2078 -0.0231,-0.12699 -0.04618,-0.25397 -0.06927,-0.38096 -0.150076,-0.17317 -0.300148,-0.34632 -0.45022,-0.51948 -0.0231,-0.18472 -0.04618,-0.36942 -0.06927,-0.55412 -0.03463,-0.16162 -0.06927,-0.32324 -0.103897,-0.48486 -0.230888,0.1039 -0.461766,0.2078 -0.692647,0.31169 -0.369419,0.0115 -0.738825,0.0231 -1.108236,0.0346 -0.207799,-0.0231 -0.415589,-0.0462 -0.623383,-0.0693 -0.178912,-0.0231 -0.357864,-0.0462 -0.536804,-0.0693 0.225117,-0.16163 0.45022,-0.32324 0.675332,-0.48486 0.12699,-0.10389 0.253971,-0.20779 0.380958,-0.31169 0.09235,-0.12699 0.184706,-0.25397 0.277058,-0.38095 0.05772,-0.13853 0.115441,-0.27706 0.173162,-0.41559 -0.01154,-0.15008 -0.0231,-0.30015 -0.03463,-0.45022 -0.184708,0.16162 -0.369411,0.32323 -0.554117,0.48485 -0.288607,0.25398 -0.577207,0.50794 -0.865809,0.76191 -0.438684,0.19626 -0.877353,0.3925 -1.316029,0.58875 -0.404054,0.0924 -0.808091,0.18471 -1.212133,0.27706 -0.53104,0.0808 -1.062062,0.16162 -1.593091,0.24243 -0.369419,0.0115 -0.738822,0.0231 -1.108236,0.0346 -0.196224,0.0462 -0.392495,0.0924 -0.58875,0.13854 0.380967,-0.4156 0.761913,-0.83118 1.142869,-1.24677 0.126987,-0.19626 0.253971,-0.3925 0.380955,-0.58876 0.04618,-0.17316 0.09235,-0.34632 0.138531,-0.51948 -0.323242,0.3117 -0.646473,0.62338 -0.969706,0.93507 -0.219345,0.25398 -0.438677,0.50795 -0.658016,0.76192 -0.28861,0.20779 -0.577207,0.41559 -0.865809,0.62338 -0.242433,0.25397 -0.484855,0.50794 -0.727279,0.76191 -0.161624,0.25398 -0.323236,0.50794 -0.484854,0.76191 -0.196255,0.39251 -0.392502,0.785 -0.588751,1.17751 -0.03463,0.25397 -0.06927,0.50793 -0.103897,0.76191 0.05772,0.34633 0.115441,0.69264 0.173162,1.03897 0.115443,0.39251 0.230883,0.785 0.346324,1.1775 0.115443,0.15007 0.230883,0.30015 0.346323,0.45022 0.184709,0.19625 0.369412,0.3925 0.554117,0.58875 0.173167,0.13853 0.346324,0.27706 0.519486,0.41559 0.138533,0.0577 0.277061,0.11544 0.415589,0.17316 0.09235,0.0808 0.184705,0.16162 0.277058,0.24243 z"
           id="path97-1"
           transform="translate(13.669478,33.690804)"
           sodipodi:nodetypes="ccccccccccccccccccccccccccccccccccccccccccccccccccccccccccccccc"
           inkscape:connector-curvature="0" /><path
           id="circle97"
           style="fill:#ffffff;stroke:#ffffff;stroke-width:0.165;stroke-linecap:round;stroke-linejoin:round"
           d="m 96.538829,178.08997 a 0.13852949,0.13852949 0 0 1 -0.13853,0.13853 0.13852949,0.13852949 0 0 1 -0.138529,-0.13853 0.13852949,0.13852949 0 0 1 0.138529,-0.13853 0.13852949,0.13852949 0 0 1 0.13853,0.13853 z" /><path
           id="circle98"
           style="fill:#ffffff;stroke:#ffffff;stroke-width:0.165;stroke-linecap:round;stroke-linejoin:round"
           d="m 103.88089,177.61699 a 0.13852949,0.13852949 0 0 1 -0.13853,0.13853 0.13852949,0.13852949 0 0 1 -0.13853,-0.13853 0.13852949,0.13852949 0 0 1 0.13853,-0.13853 0.13852949,0.13852949 0 0 1 0.13853,0.13853 z" /></g></g></g></svg>
