<?xml version="1.0" encoding="UTF-8" standalone="no"?>
<!-- Created with Inkscape (http://www.inkscape.org/) -->

<svg
   width="186.0385"
   height="216.23128"
   viewBox="0 0 49.222685 57.211192"
   version="1.1"
   id="svg1517"
   inkscape:version="1.3.2 (091e20ef0f, 2023-11-25)"
   sodipodi:docname="LRHomeInnerDoorFrame.svg"
   xml:space="preserve"
   xmlns:inkscape="http://www.inkscape.org/namespaces/inkscape"
   xmlns:sodipodi="http://sodipodi.sourceforge.net/DTD/sodipodi-0.dtd"
   xmlns:xlink="http://www.w3.org/1999/xlink"
   xmlns="http://www.w3.org/2000/svg"
   xmlns:svg="http://www.w3.org/2000/svg"><sodipodi:namedview
     id="namedview1519"
     pagecolor="#505050"
     bordercolor="#eeeeee"
     borderopacity="1"
     inkscape:showpageshadow="0"
     inkscape:pageopacity="0"
     inkscape:pagecheckerboard="0"
     inkscape:deskcolor="#505050"
     inkscape:document-units="mm"
     showgrid="false"
     inkscape:zoom="1.4142135"
     inkscape:cx="185.96909"
     inkscape:cy="103.9447"
     inkscape:window-width="1366"
     inkscape:window-height="706"
     inkscape:window-x="-8"
     inkscape:window-y="-8"
     inkscape:window-maximized="1"
     inkscape:current-layer="svg1517" /><defs
     id="defs1514"><linearGradient
       id="linearGradient10"
       inkscape:collect="always"><stop
         style="stop-color:#521a02;stop-opacity:1;"
         offset="0"
         id="stop6" /><stop
         style="stop-color:#9a3409;stop-opacity:1;"
         offset="0.1398305"
         id="stop7" /><stop
         style="stop-color:#621e01;stop-opacity:1;"
         offset="0.29999998"
         id="stop8" /><stop
         style="stop-color:#a34117;stop-opacity:1;"
         offset="0.90084743"
         id="stop9" /><stop
         style="stop-color:#441602;stop-opacity:1;"
         offset="1"
         id="stop10" /></linearGradient><linearGradient
       id="linearGradient49"
       inkscape:collect="always"><stop
         style="stop-color:#521a02;stop-opacity:1;"
         offset="0"
         id="stop49" /><stop
         style="stop-color:#9a3409;stop-opacity:1;"
         offset="0.24830508"
         id="stop124" /><stop
         style="stop-color:#621e01;stop-opacity:1;"
         offset="0.49661016"
         id="stop122" /><stop
         style="stop-color:#a34117;stop-opacity:1;"
         offset="0.74830508"
         id="stop123" /><stop
         style="stop-color:#441602;stop-opacity:1;"
         offset="1"
         id="stop50" /></linearGradient><linearGradient
       inkscape:collect="always"
       xlink:href="#linearGradient10"
       id="linearGradient208"
       gradientUnits="userSpaceOnUse"
       x1="7.9824505"
       y1="104.6085"
       x2="7.7828884"
       y2="167.47029" /><radialGradient
       inkscape:collect="always"
       xlink:href="#linearGradient49"
       id="radialGradient208"
       gradientUnits="userSpaceOnUse"
       gradientTransform="matrix(1,0,0,2.3138956,0,-150.68589)"
       cx="6.5855212"
       cy="114.68635"
       fx="6.5855212"
       fy="114.68635"
       r="1.1391388" /><radialGradient
       inkscape:collect="always"
       xlink:href="#linearGradient49"
       id="radialGradient209"
       gradientUnits="userSpaceOnUse"
       gradientTransform="matrix(1,0,0,1.7498529,0,-102.76401)"
       cx="7.7611113"
       cy="137.04555"
       fx="7.7611113"
       fy="137.04555"
       r="1.1291103" /><radialGradient
       inkscape:collect="always"
       xlink:href="#linearGradient49"
       id="radialGradient232"
       gradientUnits="userSpaceOnUse"
       gradientTransform="matrix(1,0,0,2.3138956,1.5852285,-143.25979)"
       cx="6.5855212"
       cy="114.68635"
       fx="6.5855212"
       fy="114.68635"
       r="1.1391388" /><radialGradient
       inkscape:collect="always"
       xlink:href="#linearGradient49"
       id="radialGradient233"
       gradientUnits="userSpaceOnUse"
       gradientTransform="matrix(1,0,0,1.7498529,-0.99076784,-86.769336)"
       cx="7.7611113"
       cy="137.04555"
       fx="7.7611113"
       fy="137.04555"
       r="1.1291103" /><radialGradient
       inkscape:collect="always"
       xlink:href="#linearGradient49"
       id="radialGradient235"
       gradientUnits="userSpaceOnUse"
       gradientTransform="matrix(1,0,0,2.3138956,0,-150.68589)"
       cx="6.5855212"
       cy="114.68635"
       fx="6.5855212"
       fy="114.68635"
       r="1.1391388" /><radialGradient
       inkscape:collect="always"
       xlink:href="#linearGradient49"
       id="radialGradient236"
       gradientUnits="userSpaceOnUse"
       gradientTransform="matrix(1,0,0,1.7498529,0.39630714,-99.050961)"
       cx="7.7611113"
       cy="137.04555"
       fx="7.7611113"
       fy="137.04555"
       r="1.1291103" /><linearGradient
       inkscape:collect="always"
       xlink:href="#linearGradient10"
       id="linearGradient12"
       gradientUnits="userSpaceOnUse"
       x1="7.9824505"
       y1="104.6085"
       x2="7.7828884"
       y2="167.47029" /><linearGradient
       inkscape:collect="always"
       xlink:href="#linearGradient10"
       id="linearGradient13"
       gradientUnits="userSpaceOnUse"
       x1="7.9824505"
       y1="104.6085"
       x2="7.7828884"
       y2="167.47029" /></defs><g
     id="g5"
     transform="translate(-26.586119,-17.436585)"><g
       id="g232"
       transform="matrix(-1.2516857,0,0,-0.86837999,81.002342,164.7538)"><path
         id="path231"
         style="fill:url(#linearGradient12);stroke:#421f05;stroke-width:0.282665;stroke-linejoin:round"
         d="m 4.5899091,104.05704 3.0135501,0.0107 2.9148368,0.0543 c 0,0 -0.366999,10.83604 -0.340672,16.15208 0.02636,5.32308 0.523036,10.59186 0.498903,15.91501 -0.02434,5.36897 -0.675383,10.6459 -0.648574,16.01479 0.02648,5.30242 0.798245,15.76534 0.798245,15.76534 l -3.5623541,-1.6439 -2.6739348,1.74364 c 0,0 0.1995613,-10.64031 0.1995613,-15.9649 0,-5.32459 -0.1167515,-10.6449 -0.1995613,-15.9649 -0.083384,-5.35689 -0.2993419,-16.06468 -0.2993419,-16.06468 z"
         sodipodi:nodetypes="cccssscccsscc" /><ellipse
         style="opacity:0.808594;fill:url(#radialGradient232);stroke:#421f05;stroke-width:0.282665;stroke-linejoin:round;stroke-opacity:1"
         id="ellipse231"
         cx="8.1707497"
         cy="122.11245"
         rx="0.99780625"
         ry="2.4945157" /><ellipse
         style="opacity:0.792969;fill:url(#radialGradient233);stroke:#421f05;stroke-width:0.282665;stroke-linejoin:round;stroke-opacity:1"
         id="ellipse232"
         cx="6.7703433"
         cy="153.04022"
         rx="0.98777783"
         ry="1.8344445" /></g><g
       id="g235"
       transform="matrix(-1.2516857,0,0,-0.86837999,40.314018,164.7538)"><path
         id="path233"
         style="fill:url(#linearGradient13);stroke:#421f05;stroke-width:0.282665;stroke-linejoin:round"
         d="m 4.5899091,103.90469 3.0135501,0.16303 2.9148368,0.0162 c 0,0 -0.366999,10.87413 -0.340672,16.19017 0.02636,5.32308 0.523036,10.59186 0.498903,15.91501 -0.02434,5.36897 -0.675383,10.6459 -0.648574,16.01479 0.02648,5.30242 0.798245,15.76534 0.798245,15.76534 L 7.2638439,166.32536 4.5899091,168.069 c 0,0 0.1995613,-10.64031 0.1995613,-15.9649 0,-5.32459 -0.1167515,-10.6449 -0.1995613,-15.9649 -0.083384,-5.35689 -0.2993419,-16.06468 -0.2993419,-16.06468 z"
         sodipodi:nodetypes="cccssscccsscc" /><ellipse
         style="opacity:0.808594;fill:url(#radialGradient235);stroke:#421f05;stroke-width:0.282665;stroke-linejoin:round;stroke-opacity:1"
         id="ellipse233"
         cx="6.5855212"
         cy="114.68635"
         rx="0.99780625"
         ry="2.4945157" /><ellipse
         style="opacity:0.792969;fill:url(#radialGradient236);stroke:#421f05;stroke-width:0.282665;stroke-linejoin:round;stroke-opacity:1"
         id="ellipse234"
         cx="8.1574183"
         cy="140.75859"
         rx="0.98777783"
         ry="1.8344445" /></g><g
       id="g208"
       transform="matrix(0,-1.2546243,0.75590888,0,-51.360614,31.196713)"><path
         id="path206"
         style="fill:url(#linearGradient208);stroke:#421f05;stroke-width:0.282665;stroke-linejoin:round"
         d="m 4.5899091,104.20938 3.0135501,1.22943 2.9148368,-1.08832 c 0,0 -0.366999,10.60753 -0.340672,15.92357 0.02636,5.32308 0.523036,10.59186 0.498903,15.91501 -0.02434,5.36897 -0.675383,10.6459 -0.648574,16.01479 0.02648,5.30242 0.798245,15.76534 0.798245,15.76534 L 7.2638439,166.32536 4.5899091,168.069 c 0,0 0.1995613,-10.64031 0.1995613,-15.9649 0,-5.32459 -0.1167515,-10.6449 -0.1995613,-15.9649 -0.083384,-5.35689 -0.2993419,-16.06468 -0.2993419,-16.06468 z"
         sodipodi:nodetypes="cccssscccsscc" /><ellipse
         style="opacity:0.808594;fill:url(#radialGradient208);stroke:#421f05;stroke-width:0.282665;stroke-linejoin:round;stroke-opacity:1"
         id="ellipse207"
         cx="6.5855212"
         cy="114.68635"
         rx="0.99780625"
         ry="2.4945157" /><ellipse
         style="opacity:0.792969;fill:url(#radialGradient209);stroke:#421f05;stroke-width:0.282665;stroke-linejoin:round;stroke-opacity:1"
         id="ellipse208"
         cx="7.7611113"
         cy="137.04555"
         rx="0.98777783"
         ry="1.8344445" /></g></g></svg>
