<?xml version="1.0" encoding="UTF-8" standalone="no"?>
<!-- Created with Inkscape (http://www.inkscape.org/) -->

<svg
   width="592.59912"
   height="55.020878"
   viewBox="0 0 167.24464 15.528115"
   version="1.1"
   id="svg1"
   inkscape:version="1.3 (0e150ed6c4, 2023-07-21)"
   sodipodi:docname="gameVolcanoDino.svg"
   xml:space="preserve"
   xmlns:inkscape="http://www.inkscape.org/namespaces/inkscape"
   xmlns:sodipodi="http://sodipodi.sourceforge.net/DTD/sodipodi-0.dtd"
   xmlns:xlink="http://www.w3.org/1999/xlink"
   xmlns="http://www.w3.org/2000/svg"
   xmlns:svg="http://www.w3.org/2000/svg"
   xmlns:rdf="http://www.w3.org/1999/02/22-rdf-syntax-ns#"
   xmlns:cc="http://creativecommons.org/ns#"
   xmlns:dc="http://purl.org/dc/elements/1.1/"><metadata
     id="metadata585"><rdf:RDF><cc:Work
         rdf:about=""><dc:format>image/svg+xml</dc:format><dc:type
           rdf:resource="http://purl.org/dc/dcmitype/StillImage" /></cc:Work></rdf:RDF></metadata><sodipodi:namedview
     id="namedview1"
     pagecolor="#505050"
     bordercolor="#eeeeee"
     borderopacity="1"
     inkscape:showpageshadow="0"
     inkscape:pageopacity="1"
     inkscape:pagecheckerboard="0"
     inkscape:deskcolor="#141414"
     inkscape:document-units="px"
     inkscape:zoom="0.90509671"
     inkscape:cx="1977.6892"
     inkscape:cy="1147.9436"
     inkscape:window-width="1280"
     inkscape:window-height="961"
     inkscape:window-x="-8"
     inkscape:window-y="-8"
     inkscape:window-maximized="1"
     inkscape:current-layer="layer1"
     showgrid="false"
     units="px" /><defs
     id="defs1"><linearGradient
       id="swatch2"
       inkscape:swatch="solid"><stop
         style="stop-color:#000000;stop-opacity:1;"
         offset="0"
         id="stop2-3" /></linearGradient><radialGradient
       id="SVGID_503_"
       cx="185.65041"
       cy="444.57419"
       r="116.5745"
       gradientUnits="userSpaceOnUse">&#10;				<stop
   offset="0.0018"
   style="stop-color:#8B8B8B"
   id="stop3687" />&#10;				<stop
   offset="1"
   style="stop-color:#8B8B8B;stop-opacity:0"
   id="stop3688" />&#10;			</radialGradient><radialGradient
       id="SVGID_504_"
       cx="185.93649"
       cy="429.24411"
       r="117.0899"
       gradientUnits="userSpaceOnUse">&#10;				<stop
   offset="0.0166"
   style="stop-color:#BABABA"
   id="stop3689" />&#10;				<stop
   offset="1"
   style="stop-color:#BABABA;stop-opacity:0"
   id="stop3690" />&#10;			</radialGradient><linearGradient
       id="SVGID_505_"
       gradientUnits="userSpaceOnUse"
       x1="176.5654"
       y1="432.12299"
       x2="188.2478"
       y2="420.4407"
       gradientTransform="matrix(0.50642749,0,0,0.50642749,-7.726433,53.13303)">&#10;			<stop
   offset="0"
   style="stop-color:#8B8B8B"
   id="stop3704" />&#10;			<stop
   offset="0.0707"
   style="stop-color:#8B8B8B;stop-opacity:0.8587"
   id="stop3705" />&#10;			<stop
   offset="0.5"
   style="stop-color:#8B8B8B;stop-opacity:0"
   id="stop3706" />&#10;			<stop
   offset="1"
   style="stop-color:#8B8B8B"
   id="stop3707" />&#10;		</linearGradient><radialGradient
       inkscape:collect="always"
       xlink:href="#SVGID_503_"
       id="radialGradient2213"
       gradientUnits="userSpaceOnUse"
       cx="185.65041"
       cy="444.57419"
       r="116.5745" /><radialGradient
       inkscape:collect="always"
       xlink:href="#SVGID_504_"
       id="radialGradient2214"
       gradientUnits="userSpaceOnUse"
       cx="185.93649"
       cy="429.24411"
       r="117.0899" /><linearGradient
       inkscape:collect="always"
       xlink:href="#SVGID_505_"
       id="linearGradient2214"
       gradientUnits="userSpaceOnUse"
       gradientTransform="matrix(0.50642749,0,0,0.50642749,-107.43274,130.44726)"
       x1="176.5654"
       y1="432.12299"
       x2="188.2478"
       y2="420.4407" /></defs><g
     inkscape:label="Layer 1"
     inkscape:groupmode="layer"
     id="layer1"
     transform="translate(96.89196,-341.52722)"><path
       fill="#8b8b8b"
       d="m -96.891963,354.12919 24.707584,-12.60194 c 39.276491,0 78.553487,0 117.829977,0 l 24.70708,12.60194 z"
       id="path1995"
       style="stroke-width:0.506427" /><g
       id="g2112"
       transform="matrix(0.50642749,0,0,0.50642749,-107.43274,130.44726)">&#10;			<rect
   x="20.813999"
   y="441.686"
   fill="#bababa"
   width="329.672"
   height="5.7779999"
   id="rect1995" />&#10;			<radialGradient
   id="radialGradient2112"
   cx="185.65041"
   cy="444.57419"
   r="116.5745"
   gradientUnits="userSpaceOnUse">&#10;				<stop
   offset="0.0018"
   style="stop-color:#8B8B8B"
   id="stop2111" />&#10;				<stop
   offset="1"
   style="stop-color:#8B8B8B;stop-opacity:0"
   id="stop2112" />&#10;			</radialGradient>&#10;			<rect
   x="20.813999"
   y="441.686"
   fill="url(#SVGID_503_)"
   width="329.672"
   height="5.7779999"
   id="rect2112"
   style="fill:url(#radialGradient2213)" />&#10;		</g><g
       id="g2135"
       transform="matrix(0.50642749,0,0,0.50642749,-107.43274,130.44726)">&#10;			<radialGradient
   id="radialGradient2114"
   cx="185.93649"
   cy="429.24411"
   r="117.0899"
   gradientUnits="userSpaceOnUse">&#10;				<stop
   offset="0.0166"
   style="stop-color:#BABABA"
   id="stop2113" />&#10;				<stop
   offset="1"
   style="stop-color:#BABABA;stop-opacity:0"
   id="stop2114" />&#10;			</radialGradient>&#10;			<path
   fill="url(#SVGID_504_)"
   d="m 20.814,441.686 48.788,-24.884 c 77.556,0 155.113,0 232.669,0 l 48.787,24.884 z"
   id="path2135"
   style="fill:url(#radialGradient2214)" />&#10;		</g><g
       id="g2148"
       transform="matrix(0.50642749,0,0,0.50642749,-107.43274,130.44726)">&#10;			<path
   fill="#454545"
   d="m 318.01,427.662 c -2.049,-0.162 -4.516,0.156 -5.512,0.711 -0.996,0.557 -0.141,1.139 1.906,1.301 2.049,0.162 4.516,-0.156 5.512,-0.711 0.996,-0.557 0.141,-1.139 -1.906,-1.301 z"
   id="path2136" />&#10;			<path
   fill="#454545"
   d="m 302.064,418.866 c -2.049,-0.162 -4.516,0.156 -5.512,0.711 -0.996,0.557 -0.141,1.139 1.906,1.301 2.049,0.162 4.516,-0.156 5.512,-0.711 0.997,-0.557 0.141,-1.139 -1.906,-1.301 z"
   id="path2137" />&#10;			<path
   fill="#454545"
   d="m 187.588,418.866 c -0.704,-0.056 -1.457,-0.055 -2.184,-0.008 -1.387,0.092 -0.088,2.074 0.582,2.037 1.455,-0.08 2.826,-0.35 3.508,-0.729 0.997,-0.556 0.142,-1.138 -1.906,-1.3 z"
   id="path2138" />&#10;			<path
   fill="#454545"
   d="m 130.35,418.866 c -2.049,-0.162 -4.516,0.156 -5.512,0.711 -0.995,0.557 -0.141,1.139 1.907,1.301 2.048,0.162 4.515,-0.156 5.511,-0.711 0.996,-0.557 0.142,-1.139 -1.906,-1.301 z"
   id="path2139" />&#10;			<path
   fill="#454545"
   d="m 112.171,436.457 c -2.049,-0.162 -4.516,0.156 -5.512,0.711 -0.995,0.557 -0.141,1.139 1.907,1.301 2.048,0.162 4.515,-0.156 5.511,-0.711 0.996,-0.557 0.142,-1.139 -1.906,-1.301 z"
   id="path2140" />&#10;			<path
   fill="#454545"
   d="m 244.827,436.457 c -2.049,-0.162 -4.516,0.156 -5.512,0.711 -0.994,0.557 -0.141,1.139 1.908,1.301 2.047,0.162 4.514,-0.156 5.51,-0.711 0.996,-0.557 0.142,-1.139 -1.906,-1.301 z"
   id="path2142" />&#10;			<path
   fill="#454545"
   d="m 244.827,418.866 c -2.049,-0.162 -4.516,0.156 -5.512,0.711 -0.994,0.557 -0.141,1.139 1.908,1.301 2.047,0.162 4.514,-0.156 5.51,-0.711 0.996,-0.557 0.142,-1.139 -1.906,-1.301 z"
   id="path2143" />&#10;			<path
   fill="#454545"
   d="m 73.112,418.866 c -2.048,-0.162 -4.516,0.156 -5.511,0.711 -0.996,0.557 -0.142,1.139 1.907,1.301 2.048,0.162 4.515,-0.156 5.511,-0.711 0.995,-0.557 0.141,-1.139 -1.907,-1.301 z"
   id="path2144" />&#10;			<path
   fill="#454545"
   d="m 55.677,427.661 c -2.048,-0.162 -4.516,0.156 -5.511,0.711 -0.996,0.557 -0.142,1.139 1.907,1.301 2.048,0.162 4.515,-0.156 5.511,-0.711 0.995,-0.557 0.141,-1.139 -1.907,-1.301 z"
   id="path2145" />&#10;			<path
   fill="#454545"
   d="m 38.241,436.457 c -2.048,-0.162 -4.516,0.156 -5.511,0.711 -0.996,0.557 -0.142,1.139 1.907,1.301 2.048,0.162 4.515,-0.156 5.511,-0.711 0.995,-0.557 0.141,-1.139 -1.907,-1.301 z"
   id="path2146" />&#10;			<path
   fill="#454545"
   d="m 186.098,436.457 c -2.049,-0.162 -4.516,0.156 -5.512,0.711 -0.995,0.557 -0.141,1.139 1.907,1.301 2.048,0.162 4.515,-0.156 5.511,-0.711 0.996,-0.557 0.142,-1.139 -1.906,-1.301 z"
   id="path2147" />&#10;			<path
   fill="#454545"
   d="m 333.955,436.458 c -2.049,-0.162 -4.516,0.156 -5.512,0.711 -0.996,0.557 -0.141,1.139 1.906,1.301 2.049,0.162 4.516,-0.156 5.512,-0.711 0.996,-0.557 0.141,-1.139 -1.906,-1.301 z"
   id="path2148" />&#10;		</g><path
       opacity="0.5"
       fill="#454545"
       d="m -9.5945,347.54614 c 0,0.37678 -2.44554,0.68267 -5.46233,0.68267 -3.01678,0 -5.46232,-0.30589 -5.46232,-0.68267 0,-0.37526 2.44554,-0.68114 5.46232,-0.68114 3.01679,0 5.46233,0.30537 5.46233,0.68114 z"
       id="path2150"
       style="stroke-width:0.506427" /><path
       fill="#bababa"
       d="m -19.61467,347.68642 c 0,-2.32703 1.74464,-5.43042 3.99672,-5.88772 v 2.19485 h 1.12326 v -2.19435 c 2.25158,0.45731 3.99622,3.56019 3.99622,5.88722 0,0 -1.36837,0.40109 -4.55734,0.40109 -3.18898,0 -4.55886,-0.40109 -4.55886,-0.40109 z"
       id="path2151"
       style="stroke-width:0.506427" /><path
       fill="url(#SVGID_505_)"
       d="m -19.61467,347.68642 c 0,-2.32703 1.74464,-5.43042 3.99672,-5.88772 v 2.19485 h 1.12326 v -2.19435 c 2.25158,0.45731 3.99622,3.56019 3.99622,5.88722 0,0 -1.36837,0.40109 -4.55734,0.40109 -3.18898,0 -4.55886,-0.40109 -4.55886,-0.40109 z"
       id="path2152"
       style="fill:url(#linearGradient2214);stroke-width:0.506427" /></g></svg>
