<?xml version="1.0" encoding="UTF-8" standalone="no"?>
<!-- Created with Inkscape (http://www.inkscape.org/) -->

<svg
   width="592.59912"
   height="424.68188"
   viewBox="0 0 167.24464 119.85467"
   version="1.1"
   id="svg1"
   inkscape:version="1.3 (0e150ed6c4, 2023-07-21)"
   sodipodi:docname="gameVolcanoDino.svg"
   xml:space="preserve"
   xmlns:inkscape="http://www.inkscape.org/namespaces/inkscape"
   xmlns:sodipodi="http://sodipodi.sourceforge.net/DTD/sodipodi-0.dtd"
   xmlns="http://www.w3.org/2000/svg"
   xmlns:svg="http://www.w3.org/2000/svg"
   xmlns:rdf="http://www.w3.org/1999/02/22-rdf-syntax-ns#"
   xmlns:cc="http://creativecommons.org/ns#"
   xmlns:dc="http://purl.org/dc/elements/1.1/"><metadata
     id="metadata585"><rdf:RDF><cc:Work
         rdf:about=""><dc:format>image/svg+xml</dc:format><dc:type
           rdf:resource="http://purl.org/dc/dcmitype/StillImage" /></cc:Work></rdf:RDF></metadata><sodipodi:namedview
     id="namedview1"
     pagecolor="#505050"
     bordercolor="#eeeeee"
     borderopacity="1"
     inkscape:showpageshadow="0"
     inkscape:pageopacity="1"
     inkscape:pagecheckerboard="0"
     inkscape:deskcolor="#d1d1d1"
     inkscape:document-units="px"
     inkscape:zoom="0.64"
     inkscape:cx="457.8125"
     inkscape:cy="462.5"
     inkscape:window-width="1280"
     inkscape:window-height="961"
     inkscape:window-x="-8"
     inkscape:window-y="-8"
     inkscape:window-maximized="1"
     inkscape:current-layer="layer1"
     showgrid="false"
     units="px" /><defs
     id="defs1"><linearGradient
       id="swatch2"
       inkscape:swatch="solid"><stop
         style="stop-color:#000000;stop-opacity:1;"
         offset="0"
         id="stop2-3" /></linearGradient><linearGradient
       id="SVGID_496_"
       gradientUnits="userSpaceOnUse"
       x1="49.7495"
       y1="543.13568"
       x2="57.938"
       y2="543.13568"
       gradientTransform="matrix(0.50642749,0,0,0.50642749,-7.726433,53.13303)">&#10;			<stop
   offset="0"
   style="stop-color:#454545;stop-opacity:0"
   id="stop3662" />&#10;			<stop
   offset="0.8587"
   style="stop-color:#454545;stop-opacity:0.8587"
   id="stop3663" />&#10;			<stop
   offset="1"
   style="stop-color:#454545"
   id="stop3664" />&#10;		</linearGradient><linearGradient
       id="SVGID_497_"
       gradientUnits="userSpaceOnUse"
       x1="32.3452"
       y1="547.51758"
       x2="40.533699"
       y2="547.51758">&#10;				<stop
   offset="0"
   style="stop-color:#8B8B8B;stop-opacity:0"
   id="stop3669" />&#10;				<stop
   offset="0.8519"
   style="stop-color:#8B8B8B;stop-opacity:0.8534"
   id="stop3670" />&#10;				<stop
   offset="0.9982"
   style="stop-color:#8B8B8B"
   id="stop3671" />&#10;			</linearGradient><linearGradient
       id="SVGID_498_"
       gradientUnits="userSpaceOnUse"
       x1="106.2744"
       y1="547.51758"
       x2="114.4629"
       y2="547.51758">&#10;				<stop
   offset="0"
   style="stop-color:#8B8B8B;stop-opacity:0"
   id="stop3672" />&#10;				<stop
   offset="0.8519"
   style="stop-color:#8B8B8B;stop-opacity:0.8534"
   id="stop3673" />&#10;				<stop
   offset="0.9982"
   style="stop-color:#8B8B8B"
   id="stop3674" />&#10;			</linearGradient><linearGradient
       id="SVGID_499_"
       gradientUnits="userSpaceOnUse"
       x1="180.20171"
       y1="547.51758"
       x2="188.38921"
       y2="547.51758">&#10;				<stop
   offset="0"
   style="stop-color:#8B8B8B;stop-opacity:0"
   id="stop3675" />&#10;				<stop
   offset="0.8519"
   style="stop-color:#8B8B8B;stop-opacity:0.8534"
   id="stop3676" />&#10;				<stop
   offset="0.9982"
   style="stop-color:#8B8B8B"
   id="stop3677" />&#10;			</linearGradient><linearGradient
       id="SVGID_500_"
       gradientUnits="userSpaceOnUse"
       x1="238.9312"
       y1="547.51758"
       x2="247.1187"
       y2="547.51758">&#10;				<stop
   offset="0"
   style="stop-color:#8B8B8B;stop-opacity:0"
   id="stop3678" />&#10;				<stop
   offset="0.8519"
   style="stop-color:#8B8B8B;stop-opacity:0.8534"
   id="stop3679" />&#10;				<stop
   offset="0.9982"
   style="stop-color:#8B8B8B"
   id="stop3680" />&#10;			</linearGradient><linearGradient
       id="SVGID_501_"
       gradientUnits="userSpaceOnUse"
       x1="328.05859"
       y1="547.51758"
       x2="336.24609"
       y2="547.51758">&#10;				<stop
   offset="0.0018"
   style="stop-color:#8B8B8B"
   id="stop3681" />&#10;				<stop
   offset="0.1481"
   style="stop-color:#8B8B8B;stop-opacity:0.8534"
   id="stop3682" />&#10;				<stop
   offset="1"
   style="stop-color:#8B8B8B;stop-opacity:0"
   id="stop3683" />&#10;			</linearGradient><linearGradient
       id="SVGID_502_"
       gradientUnits="userSpaceOnUse"
       x1="312.11331"
       y1="543.13568"
       x2="320.30081"
       y2="543.13568"
       gradientTransform="matrix(0.50642749,0,0,0.50642749,-7.726433,53.13303)">&#10;			<stop
   offset="0"
   style="stop-color:#454545"
   id="stop3684" />&#10;			<stop
   offset="0.1413"
   style="stop-color:#454545;stop-opacity:0.8587"
   id="stop3685" />&#10;			<stop
   offset="1"
   style="stop-color:#454545;stop-opacity:0"
   id="stop3686" />&#10;		</linearGradient><radialGradient
       id="SVGID_503_"
       cx="185.65041"
       cy="444.57419"
       r="116.5745"
       gradientUnits="userSpaceOnUse">&#10;				<stop
   offset="0.0018"
   style="stop-color:#8B8B8B"
   id="stop3687" />&#10;				<stop
   offset="1"
   style="stop-color:#8B8B8B;stop-opacity:0"
   id="stop3688" />&#10;			</radialGradient><radialGradient
       id="SVGID_504_"
       cx="185.93649"
       cy="429.24411"
       r="117.0899"
       gradientUnits="userSpaceOnUse">&#10;				<stop
   offset="0.0166"
   style="stop-color:#BABABA"
   id="stop3689" />&#10;				<stop
   offset="1"
   style="stop-color:#BABABA;stop-opacity:0"
   id="stop3690" />&#10;			</radialGradient><linearGradient
       id="SVGID_505_"
       gradientUnits="userSpaceOnUse"
       x1="176.5654"
       y1="432.12299"
       x2="188.2478"
       y2="420.4407"
       gradientTransform="matrix(0.50642749,0,0,0.50642749,-7.726433,53.13303)">&#10;			<stop
   offset="0"
   style="stop-color:#8B8B8B"
   id="stop3704" />&#10;			<stop
   offset="0.0707"
   style="stop-color:#8B8B8B;stop-opacity:0.8587"
   id="stop3705" />&#10;			<stop
   offset="0.5"
   style="stop-color:#8B8B8B;stop-opacity:0"
   id="stop3706" />&#10;			<stop
   offset="1"
   style="stop-color:#8B8B8B"
   id="stop3707" />&#10;		</linearGradient></defs><g
     inkscape:label="Layer 1"
     inkscape:groupmode="layer"
     id="layer1"
     transform="translate(-2.8143482,-264.21301)"><g
       id="g1889"><path
         fill="#8b8b8b"
         d="m 21.614963,276.76027 -4.146628,-0.0106 V 379.164 c 0,-0.0147 0.337787,0.47047 2.04698,0.47047 1.709192,0 2.099648,-0.42185 2.099648,-0.42185 z"
         id="path2791-5"
         style="stroke-width:0.506427" /><path
         fill="#8b8b8b"
         d="m 154.4676,276.76027 -4.14713,-0.0106 V 379.164 c 0,-0.0147 0.33829,0.47047 2.04749,0.47047 1.70919,0 2.09964,-0.42185 2.09964,-0.42185 z"
         id="path3662"
         style="stroke-width:0.506427" /><path
         fill="url(#SVGID_496_)"
         d="m 21.614963,276.76027 -4.146628,-0.0106 V 379.164 c 0,-0.0147 0.337787,0.47047 2.04698,0.47047 1.709192,0 2.099648,-0.42185 2.099648,-0.42185 z"
         id="path3664"
         style="fill:url(#SVGID_496_);stroke-width:0.506427" /><g
         id="g3683"
         transform="matrix(0.50642749,0,0,0.50642749,-7.726433,53.13303)">&#10;			<path
   fill="#bababa"
   d="m 40.534,441.589 -8.188,-0.021 V 652.54 c 0,-0.029 0.667,0.929 4.042,0.929 3.375,0 4.146,-0.833 4.146,-0.833 z"
   id="path3665" />&#10;			<path
   fill="#bababa"
   d="m 336.246,441.589 -8.188,-0.021 V 652.54 c 0,-0.029 0.666,0.929 4.041,0.929 3.375,0 4.146,-0.833 4.146,-0.833 V 441.589 Z"
   id="path3666" />&#10;			<path
   fill="#bababa"
   d="m 188.39,441.589 -8.188,-0.021 V 652.54 c 0,-0.029 0.666,0.929 4.041,0.929 3.375,0 4.146,-0.833 4.146,-0.833 V 441.589 Z"
   id="path3667" />&#10;			<path
   fill="#bababa"
   d="m 114.462,441.589 -8.188,-0.021 V 652.54 c 0,-0.029 0.666,0.929 4.041,0.929 3.375,0 4.146,-0.833 4.146,-0.833 V 441.589 Z"
   id="path3668" />&#10;			<path
   fill="#bababa"
   d="m 247.119,441.589 -8.188,-0.021 V 652.54 c 0,-0.029 0.666,0.929 4.041,0.929 3.375,0 4.146,-0.833 4.146,-0.833 V 441.589 Z"
   id="path3669" />&#10;			<linearGradient
   id="linearGradient892-1"
   gradientUnits="userSpaceOnUse"
   x1="32.3452"
   y1="547.51758"
   x2="40.533699"
   y2="547.51758">&#10;				<stop
   offset="0"
   style="stop-color:#8B8B8B;stop-opacity:0"
   id="stop890" />&#10;				<stop
   offset="0.8519"
   style="stop-color:#8B8B8B;stop-opacity:0.8534"
   id="stop891" />&#10;				<stop
   offset="0.9982"
   style="stop-color:#8B8B8B"
   id="stop892" />&#10;			</linearGradient>&#10;			<path
   fill="url(#SVGID_497_)"
   d="m 40.534,441.589 -8.188,-0.021 V 652.54 c 0,-0.029 0.667,0.929 4.042,0.929 3.375,0 4.146,-0.833 4.146,-0.833 z"
   id="path3671"
   style="fill:url(#SVGID_497_)" />&#10;			<linearGradient
   id="linearGradient895"
   gradientUnits="userSpaceOnUse"
   x1="106.2744"
   y1="547.51758"
   x2="114.4629"
   y2="547.51758">&#10;				<stop
   offset="0"
   style="stop-color:#8B8B8B;stop-opacity:0"
   id="stop893" />&#10;				<stop
   offset="0.8519"
   style="stop-color:#8B8B8B;stop-opacity:0.8534"
   id="stop894" />&#10;				<stop
   offset="0.9982"
   style="stop-color:#8B8B8B"
   id="stop895" />&#10;			</linearGradient>&#10;			<path
   fill="url(#SVGID_498_)"
   d="m 114.463,441.589 -8.188,-0.021 V 652.54 c 0,-0.029 0.667,0.929 4.042,0.929 3.375,0 4.146,-0.833 4.146,-0.833 z"
   id="path3674"
   style="fill:url(#SVGID_498_)" />&#10;			<linearGradient
   id="linearGradient898"
   gradientUnits="userSpaceOnUse"
   x1="180.20171"
   y1="547.51758"
   x2="188.38921"
   y2="547.51758">&#10;				<stop
   offset="0"
   style="stop-color:#8B8B8B;stop-opacity:0"
   id="stop896" />&#10;				<stop
   offset="0.8519"
   style="stop-color:#8B8B8B;stop-opacity:0.8534"
   id="stop897-9" />&#10;				<stop
   offset="0.9982"
   style="stop-color:#8B8B8B"
   id="stop898-3" />&#10;			</linearGradient>&#10;			<path
   fill="url(#SVGID_499_)"
   d="m 188.389,441.589 -8.188,-0.021 V 652.54 c 0,-0.029 0.666,0.929 4.041,0.929 3.375,0 4.146,-0.833 4.146,-0.833 V 441.589 Z"
   id="path3677"
   style="fill:url(#SVGID_499_)" />&#10;			<linearGradient
   id="linearGradient901-2"
   gradientUnits="userSpaceOnUse"
   x1="238.9312"
   y1="547.51758"
   x2="247.1187"
   y2="547.51758">&#10;				<stop
   offset="0"
   style="stop-color:#8B8B8B;stop-opacity:0"
   id="stop899-5" />&#10;				<stop
   offset="0.8519"
   style="stop-color:#8B8B8B;stop-opacity:0.8534"
   id="stop900-9" />&#10;				<stop
   offset="0.9982"
   style="stop-color:#8B8B8B"
   id="stop901-1" />&#10;			</linearGradient>&#10;			<path
   fill="url(#SVGID_500_)"
   d="m 247.119,441.589 -8.188,-0.021 V 652.54 c 0,-0.029 0.666,0.929 4.041,0.929 3.375,0 4.146,-0.833 4.146,-0.833 V 441.589 Z"
   id="path3680"
   style="fill:url(#SVGID_500_)" />&#10;			<linearGradient
   id="linearGradient904"
   gradientUnits="userSpaceOnUse"
   x1="328.05859"
   y1="547.51758"
   x2="336.24609"
   y2="547.51758">&#10;				<stop
   offset="0.0018"
   style="stop-color:#8B8B8B"
   id="stop902-9" />&#10;				<stop
   offset="0.1481"
   style="stop-color:#8B8B8B;stop-opacity:0.8534"
   id="stop903-7" />&#10;				<stop
   offset="1"
   style="stop-color:#8B8B8B;stop-opacity:0"
   id="stop904-1" />&#10;			</linearGradient>&#10;			<path
   fill="url(#SVGID_501_)"
   d="m 336.246,441.589 -8.188,-0.021 V 652.54 c 0,-0.029 0.666,0.929 4.041,0.929 3.375,0 4.146,-0.833 4.146,-0.833 V 441.589 Z"
   id="path3683"
   style="fill:url(#SVGID_501_)" />&#10;		</g><path
         fill="url(#SVGID_502_)"
         d="m 154.4828,276.76027 -4.14663,-0.0106 V 379.164 c 0,-0.0147 0.33728,0.47047 2.04647,0.47047 1.70919,0 2.09965,-0.42185 2.09965,-0.42185 V 276.76027 Z"
         id="path3686"
         style="fill:url(#SVGID_502_);stroke-width:0.506427" /><path
         fill="#8b8b8b"
         d="m 2.814349,276.81496 24.707584,-12.60194 c 39.276491,0 78.553487,0 117.829977,0 l 24.70708,12.60194 z"
         id="path3687"
         style="stroke-width:0.506427" /><g
         id="g3688"
         transform="matrix(0.50642749,0,0,0.50642749,-7.726433,53.13303)">&#10;			<rect
   x="20.813999"
   y="441.686"
   fill="#bababa"
   width="329.672"
   height="5.7779999"
   id="rect3687" />&#10;			<radialGradient
   id="radialGradient909"
   cx="185.65041"
   cy="444.57419"
   r="116.5745"
   gradientUnits="userSpaceOnUse">&#10;				<stop
   offset="0.0018"
   style="stop-color:#8B8B8B"
   id="stop908" />&#10;				<stop
   offset="1"
   style="stop-color:#8B8B8B;stop-opacity:0"
   id="stop909" />&#10;			</radialGradient>&#10;			<rect
   x="20.813999"
   y="441.686"
   fill="url(#SVGID_503_)"
   width="329.672"
   height="5.7779999"
   id="rect3688"
   style="fill:url(#SVGID_503_)" />&#10;		</g><g
         id="g3690"
         transform="matrix(0.50642749,0,0,0.50642749,-7.726433,53.13303)">&#10;			<radialGradient
   id="radialGradient911"
   cx="185.93649"
   cy="429.24411"
   r="117.0899"
   gradientUnits="userSpaceOnUse">&#10;				<stop
   offset="0.0166"
   style="stop-color:#BABABA"
   id="stop910" />&#10;				<stop
   offset="1"
   style="stop-color:#BABABA;stop-opacity:0"
   id="stop911" />&#10;			</radialGradient>&#10;			<path
   fill="url(#SVGID_504_)"
   d="m 20.814,441.686 48.788,-24.884 c 77.556,0 155.113,0 232.669,0 l 48.787,24.884 z"
   id="path3690"
   style="fill:url(#SVGID_504_)" />&#10;		</g><g
         id="g3702"
         transform="matrix(0.50642749,0,0,0.50642749,-7.726433,53.13303)">&#10;			<path
   fill="#454545"
   d="m 318.01,427.662 c -2.049,-0.162 -4.516,0.156 -5.512,0.711 -0.996,0.557 -0.141,1.139 1.906,1.301 2.049,0.162 4.516,-0.156 5.512,-0.711 0.996,-0.557 0.141,-1.139 -1.906,-1.301 z"
   id="path3691" />&#10;			<path
   fill="#454545"
   d="m 302.064,418.866 c -2.049,-0.162 -4.516,0.156 -5.512,0.711 -0.996,0.557 -0.141,1.139 1.906,1.301 2.049,0.162 4.516,-0.156 5.512,-0.711 0.997,-0.557 0.141,-1.139 -1.906,-1.301 z"
   id="path3692" />&#10;			<path
   fill="#454545"
   d="m 187.588,418.866 c -0.704,-0.056 -1.457,-0.055 -2.184,-0.008 -1.387,0.092 -0.088,2.074 0.582,2.037 1.455,-0.08 2.826,-0.35 3.508,-0.729 0.997,-0.556 0.142,-1.138 -1.906,-1.3 z"
   id="path3693" />&#10;			<path
   fill="#454545"
   d="m 130.35,418.866 c -2.049,-0.162 -4.516,0.156 -5.512,0.711 -0.995,0.557 -0.141,1.139 1.907,1.301 2.048,0.162 4.515,-0.156 5.511,-0.711 0.996,-0.557 0.142,-1.139 -1.906,-1.301 z"
   id="path3694" />&#10;			<path
   fill="#454545"
   d="m 112.171,436.457 c -2.049,-0.162 -4.516,0.156 -5.512,0.711 -0.995,0.557 -0.141,1.139 1.907,1.301 2.048,0.162 4.515,-0.156 5.511,-0.711 0.996,-0.557 0.142,-1.139 -1.906,-1.301 z"
   id="path3695" />&#10;			<path
   fill="#454545"
   d="m 244.827,436.457 c -2.049,-0.162 -4.516,0.156 -5.512,0.711 -0.994,0.557 -0.141,1.139 1.908,1.301 2.047,0.162 4.514,-0.156 5.51,-0.711 0.996,-0.557 0.142,-1.139 -1.906,-1.301 z"
   id="path3696" />&#10;			<path
   fill="#454545"
   d="m 244.827,418.866 c -2.049,-0.162 -4.516,0.156 -5.512,0.711 -0.994,0.557 -0.141,1.139 1.908,1.301 2.047,0.162 4.514,-0.156 5.51,-0.711 0.996,-0.557 0.142,-1.139 -1.906,-1.301 z"
   id="path3697" />&#10;			<path
   fill="#454545"
   d="m 73.112,418.866 c -2.048,-0.162 -4.516,0.156 -5.511,0.711 -0.996,0.557 -0.142,1.139 1.907,1.301 2.048,0.162 4.515,-0.156 5.511,-0.711 0.995,-0.557 0.141,-1.139 -1.907,-1.301 z"
   id="path3698" />&#10;			<path
   fill="#454545"
   d="m 55.677,427.661 c -2.048,-0.162 -4.516,0.156 -5.511,0.711 -0.996,0.557 -0.142,1.139 1.907,1.301 2.048,0.162 4.515,-0.156 5.511,-0.711 0.995,-0.557 0.141,-1.139 -1.907,-1.301 z"
   id="path3699" />&#10;			<path
   fill="#454545"
   d="m 38.241,436.457 c -2.048,-0.162 -4.516,0.156 -5.511,0.711 -0.996,0.557 -0.142,1.139 1.907,1.301 2.048,0.162 4.515,-0.156 5.511,-0.711 0.995,-0.557 0.141,-1.139 -1.907,-1.301 z"
   id="path3700" />&#10;			<path
   fill="#454545"
   d="m 186.098,436.457 c -2.049,-0.162 -4.516,0.156 -5.512,0.711 -0.995,0.557 -0.141,1.139 1.907,1.301 2.048,0.162 4.515,-0.156 5.511,-0.711 0.996,-0.557 0.142,-1.139 -1.906,-1.301 z"
   id="path3701" />&#10;			<path
   fill="#454545"
   d="m 333.955,436.458 c -2.049,-0.162 -4.516,0.156 -5.512,0.711 -0.996,0.557 -0.141,1.139 1.906,1.301 2.049,0.162 4.516,-0.156 5.512,-0.711 0.996,-0.557 0.141,-1.139 -1.906,-1.301 z"
   id="path3702" />&#10;		</g><path
         opacity="0.5"
         fill="#454545"
         d="m 90.111812,270.23191 c 0,0.37678 -2.44554,0.68267 -5.46233,0.68267 -3.01678,0 -5.46232,-0.30589 -5.46232,-0.68267 0,-0.37526 2.44554,-0.68114 5.46232,-0.68114 3.01679,0 5.46233,0.30537 5.46233,0.68114 z"
         id="path3703"
         style="stroke-width:0.506427" /><path
         fill="#bababa"
         d="m 80.091642,270.37219 c 0,-2.32703 1.74464,-5.43042 3.99672,-5.88772 v 2.19485 h 1.12326 v -2.19435 c 2.25158,0.45731 3.99622,3.56019 3.99622,5.88722 0,0 -1.36837,0.40109 -4.55734,0.40109 -3.18898,0 -4.55886,-0.40109 -4.55886,-0.40109 z"
         id="path3704"
         style="stroke-width:0.506427" /><path
         fill="url(#SVGID_505_)"
         d="m 80.091642,270.37219 c 0,-2.32703 1.74464,-5.43042 3.99672,-5.88772 v 2.19485 h 1.12326 v -2.19435 c 2.25158,0.45731 3.99622,3.56019 3.99622,5.88722 0,0 -1.36837,0.40109 -4.55734,0.40109 -3.18898,0 -4.55886,-0.40109 -4.55886,-0.40109 z"
         id="path3707"
         style="fill:url(#SVGID_505_);stroke-width:0.506427" /></g></g></svg>
