<?xml version="1.0" encoding="UTF-8" standalone="no"?>
<!-- Created with Inkscape (http://www.inkscape.org/) -->

<svg
   width="592.59912"
   height="55.781555"
   viewBox="0 0 167.24464 15.742795"
   version="1.1"
   id="svg1"
   inkscape:version="1.3 (0e150ed6c4, 2023-07-21)"
   sodipodi:docname="gameVolcanoDino.svg"
   xml:space="preserve"
   xmlns:inkscape="http://www.inkscape.org/namespaces/inkscape"
   xmlns:sodipodi="http://sodipodi.sourceforge.net/DTD/sodipodi-0.dtd"
   xmlns="http://www.w3.org/2000/svg"
   xmlns:svg="http://www.w3.org/2000/svg"
   xmlns:rdf="http://www.w3.org/1999/02/22-rdf-syntax-ns#"
   xmlns:cc="http://creativecommons.org/ns#"
   xmlns:dc="http://purl.org/dc/elements/1.1/"><metadata
     id="metadata585"><rdf:RDF><cc:Work
         rdf:about=""><dc:format>image/svg+xml</dc:format><dc:type
           rdf:resource="http://purl.org/dc/dcmitype/StillImage" /></cc:Work></rdf:RDF></metadata><sodipodi:namedview
     id="namedview1"
     pagecolor="#505050"
     bordercolor="#eeeeee"
     borderopacity="1"
     inkscape:showpageshadow="0"
     inkscape:pageopacity="1"
     inkscape:pagecheckerboard="0"
     inkscape:deskcolor="#d1d1d1"
     inkscape:document-units="px"
     inkscape:zoom="0.64"
     inkscape:cx="457.8125"
     inkscape:cy="462.5"
     inkscape:window-width="1280"
     inkscape:window-height="961"
     inkscape:window-x="-8"
     inkscape:window-y="-8"
     inkscape:window-maximized="1"
     inkscape:current-layer="layer1"
     showgrid="false"
     units="px" /><defs
     id="defs1"><linearGradient
       id="swatch2"
       inkscape:swatch="solid"><stop
         style="stop-color:#000000;stop-opacity:1;"
         offset="0"
         id="stop2-3" /></linearGradient><linearGradient
       id="SVGID_250_"
       gradientUnits="userSpaceOnUse"
       x1="20.813999"
       y1="643.82031"
       x2="351.05859"
       y2="643.82031">&#10;				<stop
   offset="0"
   style="stop-color:#454545"
   id="stop1860" />&#10;				<stop
   offset="0.0545"
   style="stop-color:#454545;stop-opacity:0.8911"
   id="stop1861" />&#10;				<stop
   offset="0.5"
   style="stop-color:#454545;stop-opacity:0"
   id="stop1862" />&#10;				<stop
   offset="0.9293"
   style="stop-color:#454545;stop-opacity:0.8587"
   id="stop1863" />&#10;				<stop
   offset="1"
   style="stop-color:#454545"
   id="stop1864" />&#10;			</linearGradient><linearGradient
       id="SVGID_251_"
       gradientUnits="userSpaceOnUse"
       x1="20.813999"
       y1="659.57422"
       x2="350.4863"
       y2="659.57422">&#10;					<stop
   offset="0.0018"
   style="stop-color:#8B8B8B"
   id="stop1865" />&#10;					<stop
   offset="0.0751"
   style="stop-color:#8B8B8B;stop-opacity:0.8529"
   id="stop1866" />&#10;					<stop
   offset="0.5"
   style="stop-color:#8B8B8B;stop-opacity:0"
   id="stop1867" />&#10;					<stop
   offset="0.9265"
   style="stop-color:#8B8B8B;stop-opacity:0.8531"
   id="stop1868" />&#10;					<stop
   offset="1"
   style="stop-color:#8B8B8B"
   id="stop1869" />&#10;				</linearGradient></defs><g
     inkscape:label="Layer 1"
     inkscape:groupmode="layer"
     id="layer1"
     transform="translate(-2.7516699,-185.55563)"><g
       id="g1882"
       transform="matrix(0.50642749,0,0,0.50642749,-7.7891115,-134.19154)">&#10;		<g
   id="g1870">&#10;			<path
   fill="#8b8b8b"
   d="m 20.814,656.686 48.788,-24.884 c 77.556,0 155.113,0 232.669,0 l 48.787,24.884 z"
   id="path1860" />&#10;			<linearGradient
   id="linearGradient5-6"
   gradientUnits="userSpaceOnUse"
   x1="20.813999"
   y1="643.82031"
   x2="351.05859"
   y2="643.82031">&#10;				<stop
   offset="0"
   style="stop-color:#454545"
   id="stop1" />&#10;				<stop
   offset="0.0545"
   style="stop-color:#454545;stop-opacity:0.8911"
   id="stop2" />&#10;				<stop
   offset="0.5"
   style="stop-color:#454545;stop-opacity:0"
   id="stop3" />&#10;				<stop
   offset="0.9293"
   style="stop-color:#454545;stop-opacity:0.8587"
   id="stop4" />&#10;				<stop
   offset="1"
   style="stop-color:#454545"
   id="stop5" />&#10;			</linearGradient>&#10;			<path
   fill="url(#SVGID_250_)"
   d="m 20.814,656.262 48.788,-24.884 c 77.556,0 155.113,0 232.669,0 l 48.787,24.884 z"
   id="path1864"
   style="fill:url(#SVGID_250_)" />&#10;			<g
   id="g1869">&#10;				<rect
   x="20.813999"
   y="656.68597"
   fill="#bababa"
   width="329.672"
   height="5.7779999"
   id="rect1864" />&#10;				<linearGradient
   id="linearGradient10-0"
   gradientUnits="userSpaceOnUse"
   x1="20.813999"
   y1="659.57422"
   x2="350.4863"
   y2="659.57422">&#10;					<stop
   offset="0.0018"
   style="stop-color:#8B8B8B"
   id="stop6-52" />&#10;					<stop
   offset="0.0751"
   style="stop-color:#8B8B8B;stop-opacity:0.8529"
   id="stop7-4" />&#10;					<stop
   offset="0.5"
   style="stop-color:#8B8B8B;stop-opacity:0"
   id="stop8-1" />&#10;					<stop
   offset="0.9265"
   style="stop-color:#8B8B8B;stop-opacity:0.8531"
   id="stop9-3" />&#10;					<stop
   offset="1"
   style="stop-color:#8B8B8B"
   id="stop10-3" />&#10;				</linearGradient>&#10;				<rect
   x="20.813999"
   y="656.68597"
   fill="url(#SVGID_251_)"
   width="329.672"
   height="5.7779999"
   id="rect1869"
   style="fill:url(#SVGID_251_)" />&#10;			</g>&#10;		</g>&#10;		<g
   id="g1881">&#10;			<g
   id="g1872">&#10;				<path
   opacity="0.5"
   fill="#454545"
   d="m 317.371,642.918 c -2.637,-0.162 -5.811,0.156 -7.092,0.711 -1.281,0.557 -0.182,1.139 2.453,1.301 2.635,0.162 5.809,-0.156 7.09,-0.711 1.282,-0.557 0.182,-1.139 -2.451,-1.301 z"
   id="path1870" />&#10;				<path
   opacity="0.5"
   fill="#454545"
   d="m 301.217,634.122 c -2.635,-0.162 -5.809,0.156 -7.09,0.711 -1.281,0.557 -0.184,1.139 2.451,1.301 2.637,0.162 5.811,-0.156 7.092,-0.711 1.281,-0.557 0.18,-1.139 -2.453,-1.301 z"
   id="path1871" />&#10;				<path
   opacity="0.5"
   fill="#454545"
   d="m 333.34,651.714 c -2.637,-0.162 -5.811,0.156 -7.092,0.711 -1.281,0.557 -0.182,1.139 2.453,1.301 2.635,0.162 5.809,-0.156 7.09,-0.711 1.281,-0.557 0.182,-1.139 -2.451,-1.301 z"
   id="path1872" />&#10;			</g>&#10;			<g
   id="g1874">&#10;				<path
   opacity="0.5"
   fill="#454545"
   d="m 130.84,633.785 c -2.633,-0.214 -5.812,0.043 -7.104,0.572 -1.292,0.531 -0.205,1.135 2.426,1.349 2.633,0.214 5.812,-0.043 7.104,-0.572 1.292,-0.531 0.203,-1.135 -2.426,-1.349 z"
   id="path1873" />&#10;				<path
   opacity="0.5"
   fill="#454545"
   d="m 112.708,651.389 c -2.633,-0.214 -5.812,0.043 -7.104,0.572 -1.292,0.531 -0.204,1.135 2.427,1.349 2.633,0.214 5.812,-0.043 7.104,-0.572 1.29,-0.532 0.203,-1.135 -2.427,-1.349 z"
   id="path1874" />&#10;			</g>&#10;			<g
   id="g1876">&#10;				<path
   opacity="0.5"
   fill="#454545"
   d="m 222.912,633.869 c -2.633,-0.214 -5.812,0.043 -7.104,0.572 -1.292,0.531 -0.205,1.135 2.426,1.349 2.633,0.214 5.812,-0.043 7.104,-0.572 1.291,-0.531 0.203,-1.135 -2.426,-1.349 z"
   id="path1875" />&#10;				<path
   opacity="0.5"
   fill="#454545"
   d="m 245.365,651.473 c -2.633,-0.214 -5.812,0.043 -7.104,0.572 -1.292,0.531 -0.204,1.135 2.427,1.349 2.633,0.214 5.812,-0.043 7.104,-0.572 1.29,-0.532 0.203,-1.135 -2.427,-1.349 z"
   id="path1876" />&#10;			</g>&#10;			<g
   id="g1879">&#10;				<path
   opacity="0.5"
   fill="#454545"
   d="m 57.375,642.548 c -2.636,-0.162 -5.81,0.156 -7.091,0.711 -1.281,0.557 -0.183,1.139 2.452,1.301 2.636,0.162 5.81,-0.156 7.091,-0.711 1.281,-0.557 0.182,-1.139 -2.452,-1.301 z"
   id="path1877" />&#10;				<path
   opacity="0.5"
   fill="#454545"
   d="m 74.841,633.752 c -2.636,-0.162 -5.81,0.156 -7.091,0.711 -1.281,0.557 -0.183,1.139 2.452,1.301 2.636,0.162 5.81,-0.156 7.092,-0.711 1.281,-0.557 0.18,-1.139 -2.453,-1.301 z"
   id="path1878" />&#10;				<path
   opacity="0.5"
   fill="#454545"
   d="m 40.091,651.415 c -2.636,-0.162 -5.81,0.156 -7.092,0.711 -1.281,0.557 -0.182,1.139 2.453,1.301 2.636,0.162 5.81,-0.156 7.091,-0.711 1.281,-0.557 0.182,-1.139 -2.452,-1.301 z"
   id="path1879" />&#10;			</g>&#10;			<g
   id="g1880">&#10;				<path
   opacity="0.5"
   fill="#454545"
   d="m 186.679,651.473 c -2.633,-0.214 -5.812,0.043 -7.104,0.572 -1.292,0.531 -0.204,1.135 2.427,1.349 2.633,0.214 5.812,-0.043 7.104,-0.572 1.29,-0.532 0.203,-1.135 -2.427,-1.349 z"
   id="path1880" />&#10;			</g>&#10;		</g>&#10;	</g></g></svg>
