<?xml version="1.0" encoding="UTF-8" standalone="no"?>
<!-- Created with Inkscape (http://www.inkscape.org/) -->

<svg
   width="12.599854"
   height="158.6011"
   viewBox="0 0 3.5559587 44.760757"
   version="1.1"
   id="svg1"
   inkscape:version="1.3 (0e150ed6c4, 2023-07-21)"
   sodipodi:docname="gameVolcanoDino.svg"
   xml:space="preserve"
   xmlns:inkscape="http://www.inkscape.org/namespaces/inkscape"
   xmlns:sodipodi="http://sodipodi.sourceforge.net/DTD/sodipodi-0.dtd"
   xmlns:xlink="http://www.w3.org/1999/xlink"
   xmlns="http://www.w3.org/2000/svg"
   xmlns:svg="http://www.w3.org/2000/svg"
   xmlns:rdf="http://www.w3.org/1999/02/22-rdf-syntax-ns#"
   xmlns:cc="http://creativecommons.org/ns#"
   xmlns:dc="http://purl.org/dc/elements/1.1/"><metadata
     id="metadata585"><rdf:RDF><cc:Work
         rdf:about=""><dc:format>image/svg+xml</dc:format><dc:type
           rdf:resource="http://purl.org/dc/dcmitype/StillImage" /></cc:Work></rdf:RDF></metadata><sodipodi:namedview
     id="namedview1"
     pagecolor="#505050"
     bordercolor="#eeeeee"
     borderopacity="1"
     inkscape:showpageshadow="0"
     inkscape:pageopacity="1"
     inkscape:pagecheckerboard="0"
     inkscape:deskcolor="#141414"
     inkscape:document-units="px"
     inkscape:zoom="0.32000001"
     inkscape:cx="2162.5"
     inkscape:cy="-306.25"
     inkscape:window-width="1280"
     inkscape:window-height="961"
     inkscape:window-x="-8"
     inkscape:window-y="-8"
     inkscape:window-maximized="1"
     inkscape:current-layer="layer1"
     showgrid="false"
     units="px" /><defs
     id="defs1"><linearGradient
       id="linearGradient209"
       inkscape:collect="always"><stop
         style="stop-color:#949494;stop-opacity:1;"
         offset="0"
         id="stop247" /><stop
         style="stop-color:#b7b7b7;stop-opacity:1;"
         offset="0.5"
         id="stop250" /><stop
         style="stop-color:#949494;stop-opacity:1;"
         offset="1"
         id="stop248" /></linearGradient><linearGradient
       id="swatch2"
       inkscape:swatch="solid"><stop
         style="stop-color:#000000;stop-opacity:1;"
         offset="0"
         id="stop2-3" /></linearGradient><linearGradient
       id="SVGID_522_"
       gradientUnits="userSpaceOnUse"
       x1="179.7617"
       y1="356.46091"
       x2="182.37399"
       y2="356.46091"
       gradientTransform="matrix(1,0.0042,-0.0042,1,2.1033,-2.6067)">&#10;				<stop
   offset="0"
   style="stop-color:#8B8B8B"
   id="stop3772" />&#10;				<stop
   offset="0.5"
   style="stop-color:#8B8B8B;stop-opacity:0"
   id="stop3773" />&#10;				<stop
   offset="1"
   style="stop-color:#8B8B8B"
   id="stop3774" />&#10;			</linearGradient><linearGradient
       id="SVGID_523_"
       gradientUnits="userSpaceOnUse"
       x1="184.2236"
       y1="356.46481"
       x2="186.8877"
       y2="356.46481"
       gradientTransform="matrix(1,0.0042,-0.0042,1,2.1033,-2.6067)">&#10;				<stop
   offset="0"
   style="stop-color:#8B8B8B"
   id="stop3775" />&#10;				<stop
   offset="0.5"
   style="stop-color:#8B8B8B;stop-opacity:0"
   id="stop3776" />&#10;				<stop
   offset="1"
   style="stop-color:#8B8B8B"
   id="stop3777" />&#10;			</linearGradient><linearGradient
       id="SVGID_524_"
       gradientUnits="userSpaceOnUse"
       x1="182.7383"
       y1="350.4697"
       x2="184.2715"
       y2="350.4697"
       gradientTransform="matrix(1,0.0042,-0.0042,1,2.1033,-2.6067)">&#10;				<stop
   offset="0"
   style="stop-color:#8B8B8B"
   id="stop3778" />&#10;				<stop
   offset="0.5"
   style="stop-color:#8B8B8B;stop-opacity:0"
   id="stop3779" />&#10;				<stop
   offset="1"
   style="stop-color:#8B8B8B"
   id="stop3780" />&#10;			</linearGradient><linearGradient
       inkscape:collect="always"
       xlink:href="#SVGID_522_"
       id="linearGradient385"
       gradientUnits="userSpaceOnUse"
       gradientTransform="matrix(0.50619032,-0.01564214,0.01564214,0.50619032,517.66625,-273.4904)"
       x1="179.7617"
       y1="356.46091"
       x2="182.37399"
       y2="356.46091" /><linearGradient
       inkscape:collect="always"
       xlink:href="#SVGID_523_"
       id="linearGradient386"
       gradientUnits="userSpaceOnUse"
       gradientTransform="matrix(0.50619032,-0.01564214,0.01564214,0.50619032,517.66625,-273.4904)"
       x1="184.2236"
       y1="356.46481"
       x2="186.8877"
       y2="356.46481" /><linearGradient
       inkscape:collect="always"
       xlink:href="#SVGID_522_"
       id="linearGradient387"
       gradientUnits="userSpaceOnUse"
       gradientTransform="matrix(0.50619032,-0.01564214,0.01564214,0.50619032,14.791154,50.828873)"
       x1="179.7617"
       y1="356.46091"
       x2="182.37399"
       y2="356.46091" /><linearGradient
       inkscape:collect="always"
       xlink:href="#SVGID_523_"
       id="linearGradient388"
       gradientUnits="userSpaceOnUse"
       gradientTransform="matrix(0.50619032,-0.01564214,0.01564214,0.50619032,14.791154,50.828873)"
       x1="184.2236"
       y1="356.46481"
       x2="186.8877"
       y2="356.46481" /><linearGradient
       inkscape:collect="always"
       xlink:href="#SVGID_524_"
       id="linearGradient389"
       gradientUnits="userSpaceOnUse"
       gradientTransform="matrix(0.50630831,-0.01118999,0.01118999,0.50630831,16.32987,49.970619)"
       x1="182.7383"
       y1="350.4697"
       x2="184.2715"
       y2="350.4697" /><linearGradient
       inkscape:collect="always"
       xlink:href="#SVGID_522_"
       id="linearGradient390"
       gradientUnits="userSpaceOnUse"
       gradientTransform="matrix(0.50619032,-0.01564214,0.01564214,0.50619032,14.791154,50.828873)"
       x1="179.7617"
       y1="356.46091"
       x2="182.37399"
       y2="356.46091" /><linearGradient
       inkscape:collect="always"
       xlink:href="#SVGID_523_"
       id="linearGradient391"
       gradientUnits="userSpaceOnUse"
       gradientTransform="matrix(0.50619032,-0.01564214,0.01564214,0.50619032,14.791154,50.828873)"
       x1="184.2236"
       y1="356.46481"
       x2="186.8877"
       y2="356.46481" /><linearGradient
       inkscape:collect="always"
       xlink:href="#SVGID_524_"
       id="linearGradient392"
       gradientUnits="userSpaceOnUse"
       gradientTransform="matrix(0.50630831,-0.01118999,0.01118999,0.50630831,16.32987,49.970619)"
       x1="182.7383"
       y1="350.4697"
       x2="184.2715"
       y2="350.4697" /><linearGradient
       inkscape:collect="always"
       xlink:href="#SVGID_522_"
       id="linearGradient393"
       gradientUnits="userSpaceOnUse"
       gradientTransform="matrix(0.50619032,-0.01564214,0.01564214,0.50619032,14.791154,50.828873)"
       x1="179.7617"
       y1="356.46091"
       x2="182.37399"
       y2="356.46091" /><linearGradient
       inkscape:collect="always"
       xlink:href="#SVGID_523_"
       id="linearGradient394"
       gradientUnits="userSpaceOnUse"
       gradientTransform="matrix(0.50619032,-0.01564214,0.01564214,0.50619032,14.791154,50.828873)"
       x1="184.2236"
       y1="356.46481"
       x2="186.8877"
       y2="356.46481" /><linearGradient
       inkscape:collect="always"
       xlink:href="#SVGID_524_"
       id="linearGradient395"
       gradientUnits="userSpaceOnUse"
       gradientTransform="matrix(0.50630831,-0.01118999,0.01118999,0.50630831,16.32987,49.970619)"
       x1="182.7383"
       y1="350.4697"
       x2="184.2715"
       y2="350.4697" /><linearGradient
       inkscape:collect="always"
       xlink:href="#SVGID_522_"
       id="linearGradient396"
       gradientUnits="userSpaceOnUse"
       gradientTransform="matrix(0.50619032,-0.01564214,0.01564214,0.50619032,14.791154,50.828873)"
       x1="179.7617"
       y1="356.46091"
       x2="182.37399"
       y2="356.46091" /><linearGradient
       inkscape:collect="always"
       xlink:href="#SVGID_523_"
       id="linearGradient397"
       gradientUnits="userSpaceOnUse"
       gradientTransform="matrix(0.50619032,-0.01564214,0.01564214,0.50619032,14.791154,50.828873)"
       x1="184.2236"
       y1="356.46481"
       x2="186.8877"
       y2="356.46481" /><linearGradient
       inkscape:collect="always"
       xlink:href="#SVGID_524_"
       id="linearGradient398"
       gradientUnits="userSpaceOnUse"
       gradientTransform="matrix(0.50630831,-0.01118999,0.01118999,0.50630831,16.32987,49.970619)"
       x1="182.7383"
       y1="350.4697"
       x2="184.2715"
       y2="350.4697" /><linearGradient
       inkscape:collect="always"
       xlink:href="#SVGID_522_"
       id="linearGradient399"
       gradientUnits="userSpaceOnUse"
       gradientTransform="matrix(0.50619032,-0.01564214,0.01564214,0.50619032,14.791154,50.828873)"
       x1="179.7617"
       y1="356.46091"
       x2="182.37399"
       y2="356.46091" /><linearGradient
       inkscape:collect="always"
       xlink:href="#SVGID_523_"
       id="linearGradient400"
       gradientUnits="userSpaceOnUse"
       gradientTransform="matrix(0.50619032,-0.01564214,0.01564214,0.50619032,14.791154,50.828873)"
       x1="184.2236"
       y1="356.46481"
       x2="186.8877"
       y2="356.46481" /><linearGradient
       inkscape:collect="always"
       xlink:href="#SVGID_524_"
       id="linearGradient401"
       gradientUnits="userSpaceOnUse"
       gradientTransform="matrix(0.50630831,-0.01118999,0.01118999,0.50630831,16.32987,49.970619)"
       x1="182.7383"
       y1="350.4697"
       x2="184.2715"
       y2="350.4697" /><linearGradient
       inkscape:collect="always"
       xlink:href="#SVGID_522_"
       id="linearGradient402"
       gradientUnits="userSpaceOnUse"
       gradientTransform="matrix(0.50619032,-0.01564214,0.01564214,0.50619032,517.66625,-236.23709)"
       x1="179.7617"
       y1="356.46091"
       x2="182.37399"
       y2="356.46091" /><linearGradient
       inkscape:collect="always"
       xlink:href="#SVGID_523_"
       id="linearGradient403"
       gradientUnits="userSpaceOnUse"
       gradientTransform="matrix(0.50619032,-0.01564214,0.01564214,0.50619032,517.66625,-236.23709)"
       x1="184.2236"
       y1="356.46481"
       x2="186.8877"
       y2="356.46481" /><linearGradient
       inkscape:collect="always"
       xlink:href="#SVGID_524_"
       id="linearGradient405"
       gradientUnits="userSpaceOnUse"
       gradientTransform="matrix(0.50630831,-0.01118999,0.01118999,0.50630831,519.20497,-237.09534)"
       x1="182.7383"
       y1="350.4697"
       x2="184.2715"
       y2="350.4697" /><linearGradient
       inkscape:collect="always"
       xlink:href="#linearGradient209"
       id="linearGradient406"
       gradientUnits="userSpaceOnUse"
       gradientTransform="translate(-2.3775852,6.5870802)"
       x1="618.01617"
       y1="-61.930149"
       x2="618.77423"
       y2="-61.930149" /></defs><g
     inkscape:label="Layer 1"
     inkscape:groupmode="layer"
     id="layer1"
     transform="translate(-617.7796,144.81439)"><g
       id="g385"
       transform="translate(3.5277778,-46.412325)"><path
         fill-rule="evenodd"
         clip-rule="evenodd"
         fill="#bababa"
         d="m 615.46694,-98.36824 c 0.003,0.01 0.006,0.015 0.006,0.0206 0.002,0.2538 0.004,0.50864 0.003,0.76354 -0.0178,0.0133 -0.033,0.027 -0.0488,0.0387 -0.21419,0.1636 -0.35221,0.37469 -0.41402,0.63479 -0.0181,0.0761 -0.026,0.15394 -0.0263,0.23149 -0.004,0.52916 -0.008,1.05837 -0.0157,1.58715 -0.003,0.21699 0.0556,0.41358 0.17474,0.58928 0.0711,0.10595 0.16187,0.19398 0.26674,0.26529 0.009,0.005 0.0161,0.0101 0.0244,0.0159 10e-4,0.001 0.002,0.003 -5.4e-4,-9.9e-4 -0.005,0.26622 -0.0104,0.52686 -0.0159,0.78955 -0.0129,0.008 -0.0265,-0.004 -0.0408,-0.008 -0.17032,-0.0594 -0.32877,-0.14149 -0.47047,-0.25155 -0.2641,-0.20457 -0.45311,-0.46448 -0.56416,-0.78388 -0.0632,-0.18477 -0.0953,-0.37722 -0.0932,-0.57593 0.007,-0.54043 0.0112,-1.08178 0.0165,-1.62266 0.004,-0.35586 0.10872,-0.68487 0.30798,-0.98476 0.20791,-0.31337 0.48523,-0.5405 0.82929,-0.68534 0.0194,-0.009 0.04,-0.0151 0.061,-0.0229 z"
         id="path288"
         style="stroke-width:0.506427" /><path
         fill-rule="evenodd"
         clip-rule="evenodd"
         fill="#bababa"
         d="m 616.56136,-93.46443 c -0.008,-0.0575 9.6e-4,-0.56454 0.011,-0.78482 0.0108,-0.009 0.0241,-0.0211 0.0384,-0.0323 0.17501,-0.12472 0.30048,-0.28925 0.38275,-0.48622 0.0518,-0.12698 0.0776,-0.25812 0.0795,-0.39247 0.006,-0.3762 0.01,-0.75184 0.0126,-1.12845 10e-4,-0.1465 10e-4,-0.29395 0.004,-0.44099 0.002,-0.25244 -0.0754,-0.47369 -0.23116,-0.66636 -0.0662,-0.0808 -0.1431,-0.15004 -0.23173,-0.20621 -0.007,-0.004 -0.012,-0.009 -0.0171,-0.0121 -0.006,-0.0485 -0.01,-0.70555 -0.005,-0.78174 0.0132,-0.0126 0.0263,-0.002 0.0381,0.002 0.13841,0.0453 0.26626,0.1072 0.38807,0.18501 0.14361,0.0923 0.27173,0.20532 0.38174,0.33676 0.24292,0.294 0.37547,0.63443 0.39364,1.02196 0.002,0.0303 0.002,0.0597 0.001,0.0897 -0.003,0.52458 -0.008,1.04973 -0.0157,1.57448 -0.005,0.34525 -0.10074,0.66686 -0.28997,0.96387 -0.10566,0.16586 -0.23431,0.31176 -0.38595,0.43819 -0.15216,0.12595 -0.31792,0.22552 -0.49924,0.30029 -0.0175,0.007 -0.0365,0.0129 -0.055,0.0197 z"
         id="path289"
         style="stroke-width:0.506427" /><path
         fill-rule="evenodd"
         clip-rule="evenodd"
         fill="url(#SVGID_522_)"
         d="m 615.46694,-98.36823 c 0.003,0.01 0.006,0.015 0.006,0.0206 0.002,0.25379 0.004,0.50864 0.003,0.76353 -0.0178,0.0133 -0.033,0.027 -0.0488,0.0387 -0.21419,0.16359 -0.35221,0.37468 -0.41402,0.63478 -0.0181,0.0761 -0.026,0.15395 -0.0263,0.23149 -0.004,0.52917 -0.008,1.05837 -0.0157,1.58716 -0.003,0.21699 0.0556,0.41357 0.17474,0.58928 0.0711,0.10595 0.16187,0.19397 0.26674,0.26529 0.009,0.005 0.0161,0.0101 0.0244,0.0159 10e-4,0.001 0.002,0.003 -5.4e-4,-10e-4 -0.005,0.26623 -0.0104,0.52687 -0.0159,0.78955 -0.0129,0.008 -0.0265,-0.004 -0.0408,-0.008 -0.17032,-0.0594 -0.32877,-0.1415 -0.47047,-0.25155 -0.2641,-0.20458 -0.45311,-0.46448 -0.56416,-0.78389 -0.0632,-0.18476 -0.0953,-0.37721 -0.0932,-0.57593 0.007,-0.54042 0.0112,-1.08177 0.0165,-1.62265 0.004,-0.35586 0.10872,-0.68487 0.30798,-0.98477 0.20791,-0.31337 0.48523,-0.54049 0.82929,-0.68534 0.0194,-0.009 0.04,-0.0151 0.061,-0.0229 z"
         id="path290"
         style="fill:url(#linearGradient385);stroke-width:0.506427" /><path
         fill-rule="evenodd"
         clip-rule="evenodd"
         fill="url(#SVGID_523_)"
         d="m 616.56136,-93.46443 c -0.008,-0.0575 9.6e-4,-0.56454 0.011,-0.78481 0.0108,-0.009 0.0241,-0.0211 0.0384,-0.0323 0.17501,-0.12472 0.30048,-0.28926 0.38275,-0.48623 0.0518,-0.12698 0.0776,-0.25812 0.0795,-0.39247 0.006,-0.37619 0.01,-0.75183 0.0126,-1.12844 10e-4,-0.1465 10e-4,-0.29396 0.004,-0.441 0.002,-0.25244 -0.0754,-0.47369 -0.23116,-0.66635 -0.0662,-0.0808 -0.1431,-0.15004 -0.23173,-0.20622 -0.007,-0.004 -0.012,-0.009 -0.0171,-0.0121 -0.006,-0.0484 -0.01,-0.70555 -0.005,-0.78173 0.0132,-0.0126 0.0263,-0.002 0.0381,0.002 0.13841,0.0453 0.26626,0.1072 0.38807,0.18502 0.14361,0.0922 0.27173,0.20532 0.38174,0.33676 0.24292,0.29399 0.37547,0.63443 0.39364,1.02195 0.002,0.0303 0.002,0.0597 0.001,0.0897 -0.003,0.52457 -0.008,1.04972 -0.0157,1.57448 -0.005,0.34525 -0.10074,0.66686 -0.28997,0.96386 -0.10566,0.16587 -0.23431,0.31176 -0.38595,0.4382 -0.15216,0.12594 -0.31792,0.22551 -0.49924,0.30029 -0.0175,0.007 -0.0365,0.0129 -0.055,0.0197 z"
         id="path291"
         style="fill:url(#linearGradient386);stroke-width:0.506427" /><g
         id="g297"
         transform="translate(502.8751,-318.11039)"><g
           id="g294"
           transform="matrix(0.5061157,-0.01776783,0.01776783,0.5061157,13.772956,52.185536)">&#10;			<path
   fill-rule="evenodd"
   clip-rule="evenodd"
   fill="#bababa"
   d="m 182.971,349.755 c 0.005,0.019 0.011,0.03 0.01,0.041 -0.013,0.501 -0.028,1.004 -0.046,1.507 -0.036,0.025 -0.067,0.051 -0.099,0.073 -0.434,0.308 -0.721,0.715 -0.861,1.224 -0.041,0.149 -0.062,0.302 -0.068,0.455 -0.044,1.044 -0.09,2.088 -0.141,3.131 -0.021,0.428 0.081,0.82 0.304,1.175 0.133,0.214 0.306,0.394 0.508,0.542 0.017,0.011 0.031,0.021 0.047,0.033 0.002,0.003 0.004,0.007 -0.001,-0.002 -0.029,0.525 -0.057,1.039 -0.086,1.557 -0.026,0.014 -0.052,-0.009 -0.08,-0.019 -0.332,-0.129 -0.639,-0.302 -0.911,-0.529 -0.507,-0.422 -0.862,-0.948 -1.059,-1.586 -0.112,-0.369 -0.162,-0.751 -0.144,-1.143 0.051,-1.066 0.097,-2.134 0.145,-3.201 0.032,-0.702 0.262,-1.344 0.676,-1.922 0.432,-0.604 0.995,-1.033 1.684,-1.295 0.039,-0.017 0.08,-0.027 0.122,-0.041 z"
   id="path292" />&#10;			<path
   fill-rule="evenodd"
   clip-rule="evenodd"
   fill="#bababa"
   d="m 184.791,359.508 c -0.011,-0.114 0.041,-1.114 0.076,-1.548 0.022,-0.017 0.049,-0.04 0.078,-0.061 0.354,-0.234 0.613,-0.55 0.789,-0.933 0.111,-0.247 0.171,-0.504 0.184,-0.769 0.037,-0.742 0.071,-1.483 0.103,-2.226 0.013,-0.289 0.023,-0.58 0.038,-0.87 0.022,-0.498 -0.116,-0.94 -0.41,-1.331 -0.125,-0.164 -0.272,-0.306 -0.443,-0.423 -0.013,-0.008 -0.023,-0.018 -0.033,-0.025 -0.008,-0.096 0.03,-1.393 0.045,-1.543 0.027,-0.024 0.052,-0.002 0.075,0.006 0.27,0.099 0.518,0.23 0.753,0.392 0.277,0.192 0.522,0.424 0.73,0.691 0.459,0.597 0.697,1.278 0.706,2.044 0.001,0.06 -0.001,0.118 -0.004,0.177 -0.042,1.035 -0.088,2.071 -0.14,3.106 -0.033,0.681 -0.245,1.309 -0.639,1.882 -0.22,0.32 -0.484,0.599 -0.792,0.838 -0.309,0.238 -0.643,0.423 -1.006,0.558 -0.035,0.013 -0.073,0.023 -0.11,0.035 z"
   id="path293" />&#10;			<path
   fill-rule="evenodd"
   clip-rule="evenodd"
   fill="#bababa"
   d="m 184.528,351.797 c -0.222,0.197 -0.475,0.257 -0.746,0.155 -0.271,-0.102 -0.416,-0.309 -0.441,-0.601 -0.004,-0.047 0,-0.094 0.001,-0.141 0.06,-1.714 0.104,-3.43 0.13,-5.145 0.002,-0.052 0,-0.103 0.008,-0.153 0.043,-0.29 0.2,-0.493 0.479,-0.591 0.277,-0.097 0.529,-0.032 0.736,0.17 0.127,0.126 0.191,0.284 0.199,0.464 0.001,0.027 0.001,0.055 0.001,0.083 -0.027,1.734 -0.074,3.47 -0.133,5.204 -0.005,0.124 -0.025,0.241 -0.082,0.354 -0.039,0.076 -0.091,0.142 -0.152,0.201 z"
   id="path294" />&#10;		</g><path
           fill-rule="evenodd"
           clip-rule="evenodd"
           fill="url(#SVGID_522_)"
           d="m 112.59184,225.95104 c 0.003,0.01 0.006,0.015 0.006,0.0206 0.002,0.25379 0.004,0.50864 0.003,0.76353 -0.0178,0.0133 -0.033,0.027 -0.0488,0.0387 -0.21419,0.16359 -0.35221,0.37468 -0.41402,0.63478 -0.0181,0.0761 -0.026,0.15395 -0.0263,0.23149 -0.004,0.52917 -0.008,1.05837 -0.0157,1.58716 -0.003,0.21699 0.0556,0.41357 0.17474,0.58928 0.0711,0.10595 0.16187,0.19397 0.26674,0.26529 0.009,0.005 0.0161,0.0101 0.0244,0.0159 0.001,0.001 0.002,0.003 -5.4e-4,-0.001 -0.005,0.26623 -0.0104,0.52687 -0.0159,0.78955 -0.0129,0.008 -0.0265,-0.004 -0.0408,-0.008 -0.17032,-0.0594 -0.32877,-0.1415 -0.47047,-0.25155 -0.2641,-0.20458 -0.45311,-0.46448 -0.56416,-0.78389 -0.0632,-0.18476 -0.0953,-0.37721 -0.0932,-0.57593 0.007,-0.54042 0.0112,-1.08177 0.0165,-1.62265 0.004,-0.35586 0.10872,-0.68487 0.30798,-0.98477 0.20791,-0.31337 0.48523,-0.54049 0.82929,-0.68534 0.0194,-0.009 0.04,-0.0151 0.061,-0.0229 z"
           id="path295"
           style="fill:url(#linearGradient387);stroke-width:0.506427" /><path
           fill-rule="evenodd"
           clip-rule="evenodd"
           fill="url(#SVGID_523_)"
           d="m 113.68626,230.85484 c -0.008,-0.0575 9.6e-4,-0.56454 0.011,-0.78481 0.0108,-0.009 0.0241,-0.0211 0.0384,-0.0323 0.17501,-0.12472 0.30048,-0.28926 0.38275,-0.48623 0.0518,-0.12698 0.0776,-0.25812 0.0795,-0.39247 0.006,-0.37619 0.01,-0.75183 0.0126,-1.12844 0.001,-0.1465 0.001,-0.29396 0.004,-0.441 0.002,-0.25244 -0.0754,-0.47369 -0.23116,-0.66635 -0.0662,-0.0808 -0.1431,-0.15004 -0.23173,-0.20622 -0.007,-0.004 -0.012,-0.009 -0.0171,-0.0121 -0.006,-0.0484 -0.01,-0.70555 -0.005,-0.78173 0.0132,-0.0126 0.0263,-0.002 0.0381,0.002 0.13841,0.0453 0.26626,0.1072 0.38807,0.18502 0.14361,0.0922 0.27173,0.20532 0.38174,0.33676 0.24292,0.29399 0.37547,0.63443 0.39364,1.02195 0.002,0.0303 0.002,0.0597 10e-4,0.0897 -0.003,0.52457 -0.008,1.04972 -0.0157,1.57448 -0.005,0.34525 -0.10074,0.66686 -0.28997,0.96386 -0.10566,0.16587 -0.23431,0.31176 -0.38595,0.4382 -0.15216,0.12594 -0.31792,0.22551 -0.49924,0.30029 -0.0175,0.007 -0.0365,0.0129 -0.055,0.0197 z"
           id="path296"
           style="fill:url(#linearGradient388);stroke-width:0.506427" /><path
           fill-rule="evenodd"
           clip-rule="evenodd"
           fill="url(#SVGID_524_)"
           d="m 113.40214,226.95912 c -0.10976,0.10269 -0.23705,0.13643 -0.37561,0.0884 -0.13854,-0.048 -0.21471,-0.15089 -0.23125,-0.29838 -0.003,-0.0237 -0.002,-0.0476 -0.001,-0.0714 0.008,-0.86851 0.007,-1.73782 -0.003,-2.60639 3.2e-4,-0.0264 -0.002,-0.0521 0.002,-0.0776 0.0179,-0.14739 0.0947,-0.25225 0.23463,-0.30558 0.13894,-0.0528 0.26738,-0.0233 0.37486,0.0763 0.066,0.0621 0.10047,0.14123 0.10692,0.23225 8.7e-4,0.0137 7.6e-4,0.0278 0.002,0.042 0.009,0.87819 0.009,1.75767 0.002,2.63631 -8.7e-4,0.0628 -0.009,0.12233 -0.0368,0.1803 -0.0187,0.039 -0.0441,0.0731 -0.0743,0.10378 z"
           id="path297"
           style="fill:url(#linearGradient389);stroke-width:0.506427" /></g><g
         id="g303"
         transform="translate(502.8751,-311.9015)"><g
           id="g300"
           transform="matrix(0.5061157,-0.01776783,0.01776783,0.5061157,13.772956,52.185536)">&#10;			<path
   fill-rule="evenodd"
   clip-rule="evenodd"
   fill="#bababa"
   d="m 182.971,349.755 c 0.005,0.019 0.011,0.03 0.01,0.041 -0.013,0.501 -0.028,1.004 -0.046,1.507 -0.036,0.025 -0.067,0.051 -0.099,0.073 -0.434,0.308 -0.721,0.715 -0.861,1.224 -0.041,0.149 -0.062,0.302 -0.068,0.455 -0.044,1.044 -0.09,2.088 -0.141,3.131 -0.021,0.428 0.081,0.82 0.304,1.175 0.133,0.214 0.306,0.394 0.508,0.542 0.017,0.011 0.031,0.021 0.047,0.033 0.002,0.003 0.004,0.007 -0.001,-0.002 -0.029,0.525 -0.057,1.039 -0.086,1.557 -0.026,0.014 -0.052,-0.009 -0.08,-0.019 -0.332,-0.129 -0.639,-0.302 -0.911,-0.529 -0.507,-0.422 -0.862,-0.948 -1.059,-1.586 -0.112,-0.369 -0.162,-0.751 -0.144,-1.143 0.051,-1.066 0.097,-2.134 0.145,-3.201 0.032,-0.702 0.262,-1.344 0.676,-1.922 0.432,-0.604 0.995,-1.033 1.684,-1.295 0.039,-0.017 0.08,-0.027 0.122,-0.041 z"
   id="path298" />&#10;			<path
   fill-rule="evenodd"
   clip-rule="evenodd"
   fill="#bababa"
   d="m 184.791,359.508 c -0.011,-0.114 0.041,-1.114 0.076,-1.548 0.022,-0.017 0.049,-0.04 0.078,-0.061 0.354,-0.234 0.613,-0.55 0.789,-0.933 0.111,-0.247 0.171,-0.504 0.184,-0.769 0.037,-0.742 0.071,-1.483 0.103,-2.226 0.013,-0.289 0.023,-0.58 0.038,-0.87 0.022,-0.498 -0.116,-0.94 -0.41,-1.331 -0.125,-0.164 -0.272,-0.306 -0.443,-0.423 -0.013,-0.008 -0.023,-0.018 -0.033,-0.025 -0.008,-0.096 0.03,-1.393 0.045,-1.543 0.027,-0.024 0.052,-0.002 0.075,0.006 0.27,0.099 0.518,0.23 0.753,0.392 0.277,0.192 0.522,0.424 0.73,0.691 0.459,0.597 0.697,1.278 0.706,2.044 0.001,0.06 -0.001,0.118 -0.004,0.177 -0.042,1.035 -0.088,2.071 -0.14,3.106 -0.033,0.681 -0.245,1.309 -0.639,1.882 -0.22,0.32 -0.484,0.599 -0.792,0.838 -0.309,0.238 -0.643,0.423 -1.006,0.558 -0.035,0.013 -0.073,0.023 -0.11,0.035 z"
   id="path299" />&#10;			<path
   fill-rule="evenodd"
   clip-rule="evenodd"
   fill="#bababa"
   d="m 184.528,351.797 c -0.222,0.197 -0.475,0.257 -0.746,0.155 -0.271,-0.102 -0.416,-0.309 -0.441,-0.601 -0.004,-0.047 0,-0.094 0.001,-0.141 0.06,-1.714 0.104,-3.43 0.13,-5.145 0.002,-0.052 0,-0.103 0.008,-0.153 0.043,-0.29 0.2,-0.493 0.479,-0.591 0.277,-0.097 0.529,-0.032 0.736,0.17 0.127,0.126 0.191,0.284 0.199,0.464 0.001,0.027 0.001,0.055 0.001,0.083 -0.027,1.734 -0.074,3.47 -0.133,5.204 -0.005,0.124 -0.025,0.241 -0.082,0.354 -0.039,0.076 -0.091,0.142 -0.152,0.201 z"
   id="path300" />&#10;		</g><path
           fill-rule="evenodd"
           clip-rule="evenodd"
           fill="url(#SVGID_522_)"
           d="m 112.59184,225.95104 c 0.003,0.01 0.006,0.015 0.006,0.0206 0.002,0.25379 0.004,0.50864 0.003,0.76353 -0.0178,0.0133 -0.033,0.027 -0.0488,0.0387 -0.21419,0.16359 -0.35221,0.37468 -0.41402,0.63478 -0.0181,0.0761 -0.026,0.15395 -0.0263,0.23149 -0.004,0.52917 -0.008,1.05837 -0.0157,1.58716 -0.003,0.21699 0.0556,0.41357 0.17474,0.58928 0.0711,0.10595 0.16187,0.19397 0.26674,0.26529 0.009,0.005 0.0161,0.0101 0.0244,0.0159 0.001,0.001 0.002,0.003 -5.4e-4,-0.001 -0.005,0.26623 -0.0104,0.52687 -0.0159,0.78955 -0.0129,0.008 -0.0265,-0.004 -0.0408,-0.008 -0.17032,-0.0594 -0.32877,-0.1415 -0.47047,-0.25155 -0.2641,-0.20458 -0.45311,-0.46448 -0.56416,-0.78389 -0.0632,-0.18476 -0.0953,-0.37721 -0.0932,-0.57593 0.007,-0.54042 0.0112,-1.08177 0.0165,-1.62265 0.004,-0.35586 0.10872,-0.68487 0.30798,-0.98477 0.20791,-0.31337 0.48523,-0.54049 0.82929,-0.68534 0.0194,-0.009 0.04,-0.0151 0.061,-0.0229 z"
           id="path301"
           style="fill:url(#linearGradient390);stroke-width:0.506427" /><path
           fill-rule="evenodd"
           clip-rule="evenodd"
           fill="url(#SVGID_523_)"
           d="m 113.68626,230.85484 c -0.008,-0.0575 9.6e-4,-0.56454 0.011,-0.78481 0.0108,-0.009 0.0241,-0.0211 0.0384,-0.0323 0.17501,-0.12472 0.30048,-0.28926 0.38275,-0.48623 0.0518,-0.12698 0.0776,-0.25812 0.0795,-0.39247 0.006,-0.37619 0.01,-0.75183 0.0126,-1.12844 0.001,-0.1465 0.001,-0.29396 0.004,-0.441 0.002,-0.25244 -0.0754,-0.47369 -0.23116,-0.66635 -0.0662,-0.0808 -0.1431,-0.15004 -0.23173,-0.20622 -0.007,-0.004 -0.012,-0.009 -0.0171,-0.0121 -0.006,-0.0484 -0.01,-0.70555 -0.005,-0.78173 0.0132,-0.0126 0.0263,-0.002 0.0381,0.002 0.13841,0.0453 0.26626,0.1072 0.38807,0.18502 0.14361,0.0922 0.27173,0.20532 0.38174,0.33676 0.24292,0.29399 0.37547,0.63443 0.39364,1.02195 0.002,0.0303 0.002,0.0597 10e-4,0.0897 -0.003,0.52457 -0.008,1.04972 -0.0157,1.57448 -0.005,0.34525 -0.10074,0.66686 -0.28997,0.96386 -0.10566,0.16587 -0.23431,0.31176 -0.38595,0.4382 -0.15216,0.12594 -0.31792,0.22551 -0.49924,0.30029 -0.0175,0.007 -0.0365,0.0129 -0.055,0.0197 z"
           id="path302"
           style="fill:url(#linearGradient391);stroke-width:0.506427" /><path
           fill-rule="evenodd"
           clip-rule="evenodd"
           fill="url(#SVGID_524_)"
           d="m 113.40214,226.95912 c -0.10976,0.10269 -0.23705,0.13643 -0.37561,0.0884 -0.13854,-0.048 -0.21471,-0.15089 -0.23125,-0.29838 -0.003,-0.0237 -0.002,-0.0476 -0.001,-0.0714 0.008,-0.86851 0.007,-1.73782 -0.003,-2.60639 3.2e-4,-0.0264 -0.002,-0.0521 0.002,-0.0776 0.0179,-0.14739 0.0947,-0.25225 0.23463,-0.30558 0.13894,-0.0528 0.26738,-0.0233 0.37486,0.0763 0.066,0.0621 0.10047,0.14123 0.10692,0.23225 8.7e-4,0.0137 7.6e-4,0.0278 0.002,0.042 0.009,0.87819 0.009,1.75767 0.002,2.63631 -8.7e-4,0.0628 -0.009,0.12233 -0.0368,0.1803 -0.0187,0.039 -0.0441,0.0731 -0.0743,0.10378 z"
           id="path303"
           style="fill:url(#linearGradient392);stroke-width:0.506427" /></g><g
         id="g309"
         transform="translate(502.8751,-305.69261)"><g
           id="g306"
           transform="matrix(0.5061157,-0.01776783,0.01776783,0.5061157,13.772956,52.185536)">&#10;			<path
   fill-rule="evenodd"
   clip-rule="evenodd"
   fill="#bababa"
   d="m 182.971,349.755 c 0.005,0.019 0.011,0.03 0.01,0.041 -0.013,0.501 -0.028,1.004 -0.046,1.507 -0.036,0.025 -0.067,0.051 -0.099,0.073 -0.434,0.308 -0.721,0.715 -0.861,1.224 -0.041,0.149 -0.062,0.302 -0.068,0.455 -0.044,1.044 -0.09,2.088 -0.141,3.131 -0.021,0.428 0.081,0.82 0.304,1.175 0.133,0.214 0.306,0.394 0.508,0.542 0.017,0.011 0.031,0.021 0.047,0.033 0.002,0.003 0.004,0.007 -0.001,-0.002 -0.029,0.525 -0.057,1.039 -0.086,1.557 -0.026,0.014 -0.052,-0.009 -0.08,-0.019 -0.332,-0.129 -0.639,-0.302 -0.911,-0.529 -0.507,-0.422 -0.862,-0.948 -1.059,-1.586 -0.112,-0.369 -0.162,-0.751 -0.144,-1.143 0.051,-1.066 0.097,-2.134 0.145,-3.201 0.032,-0.702 0.262,-1.344 0.676,-1.922 0.432,-0.604 0.995,-1.033 1.684,-1.295 0.039,-0.017 0.08,-0.027 0.122,-0.041 z"
   id="path304" />&#10;			<path
   fill-rule="evenodd"
   clip-rule="evenodd"
   fill="#bababa"
   d="m 184.791,359.508 c -0.011,-0.114 0.041,-1.114 0.076,-1.548 0.022,-0.017 0.049,-0.04 0.078,-0.061 0.354,-0.234 0.613,-0.55 0.789,-0.933 0.111,-0.247 0.171,-0.504 0.184,-0.769 0.037,-0.742 0.071,-1.483 0.103,-2.226 0.013,-0.289 0.023,-0.58 0.038,-0.87 0.022,-0.498 -0.116,-0.94 -0.41,-1.331 -0.125,-0.164 -0.272,-0.306 -0.443,-0.423 -0.013,-0.008 -0.023,-0.018 -0.033,-0.025 -0.008,-0.096 0.03,-1.393 0.045,-1.543 0.027,-0.024 0.052,-0.002 0.075,0.006 0.27,0.099 0.518,0.23 0.753,0.392 0.277,0.192 0.522,0.424 0.73,0.691 0.459,0.597 0.697,1.278 0.706,2.044 0.001,0.06 -0.001,0.118 -0.004,0.177 -0.042,1.035 -0.088,2.071 -0.14,3.106 -0.033,0.681 -0.245,1.309 -0.639,1.882 -0.22,0.32 -0.484,0.599 -0.792,0.838 -0.309,0.238 -0.643,0.423 -1.006,0.558 -0.035,0.013 -0.073,0.023 -0.11,0.035 z"
   id="path305" />&#10;			<path
   fill-rule="evenodd"
   clip-rule="evenodd"
   fill="#bababa"
   d="m 184.528,351.797 c -0.222,0.197 -0.475,0.257 -0.746,0.155 -0.271,-0.102 -0.416,-0.309 -0.441,-0.601 -0.004,-0.047 0,-0.094 0.001,-0.141 0.06,-1.714 0.104,-3.43 0.13,-5.145 0.002,-0.052 0,-0.103 0.008,-0.153 0.043,-0.29 0.2,-0.493 0.479,-0.591 0.277,-0.097 0.529,-0.032 0.736,0.17 0.127,0.126 0.191,0.284 0.199,0.464 0.001,0.027 0.001,0.055 0.001,0.083 -0.027,1.734 -0.074,3.47 -0.133,5.204 -0.005,0.124 -0.025,0.241 -0.082,0.354 -0.039,0.076 -0.091,0.142 -0.152,0.201 z"
   id="path306" />&#10;		</g><path
           fill-rule="evenodd"
           clip-rule="evenodd"
           fill="url(#SVGID_522_)"
           d="m 112.59184,225.95104 c 0.003,0.01 0.006,0.015 0.006,0.0206 0.002,0.25379 0.004,0.50864 0.003,0.76353 -0.0178,0.0133 -0.033,0.027 -0.0488,0.0387 -0.21419,0.16359 -0.35221,0.37468 -0.41402,0.63478 -0.0181,0.0761 -0.026,0.15395 -0.0263,0.23149 -0.004,0.52917 -0.008,1.05837 -0.0157,1.58716 -0.003,0.21699 0.0556,0.41357 0.17474,0.58928 0.0711,0.10595 0.16187,0.19397 0.26674,0.26529 0.009,0.005 0.0161,0.0101 0.0244,0.0159 0.001,0.001 0.002,0.003 -5.4e-4,-0.001 -0.005,0.26623 -0.0104,0.52687 -0.0159,0.78955 -0.0129,0.008 -0.0265,-0.004 -0.0408,-0.008 -0.17032,-0.0594 -0.32877,-0.1415 -0.47047,-0.25155 -0.2641,-0.20458 -0.45311,-0.46448 -0.56416,-0.78389 -0.0632,-0.18476 -0.0953,-0.37721 -0.0932,-0.57593 0.007,-0.54042 0.0112,-1.08177 0.0165,-1.62265 0.004,-0.35586 0.10872,-0.68487 0.30798,-0.98477 0.20791,-0.31337 0.48523,-0.54049 0.82929,-0.68534 0.0194,-0.009 0.04,-0.0151 0.061,-0.0229 z"
           id="path307"
           style="fill:url(#linearGradient393);stroke-width:0.506427" /><path
           fill-rule="evenodd"
           clip-rule="evenodd"
           fill="url(#SVGID_523_)"
           d="m 113.68626,230.85484 c -0.008,-0.0575 9.6e-4,-0.56454 0.011,-0.78481 0.0108,-0.009 0.0241,-0.0211 0.0384,-0.0323 0.17501,-0.12472 0.30048,-0.28926 0.38275,-0.48623 0.0518,-0.12698 0.0776,-0.25812 0.0795,-0.39247 0.006,-0.37619 0.01,-0.75183 0.0126,-1.12844 0.001,-0.1465 0.001,-0.29396 0.004,-0.441 0.002,-0.25244 -0.0754,-0.47369 -0.23116,-0.66635 -0.0662,-0.0808 -0.1431,-0.15004 -0.23173,-0.20622 -0.007,-0.004 -0.012,-0.009 -0.0171,-0.0121 -0.006,-0.0484 -0.01,-0.70555 -0.005,-0.78173 0.0132,-0.0126 0.0263,-0.002 0.0381,0.002 0.13841,0.0453 0.26626,0.1072 0.38807,0.18502 0.14361,0.0922 0.27173,0.20532 0.38174,0.33676 0.24292,0.29399 0.37547,0.63443 0.39364,1.02195 0.002,0.0303 0.002,0.0597 10e-4,0.0897 -0.003,0.52457 -0.008,1.04972 -0.0157,1.57448 -0.005,0.34525 -0.10074,0.66686 -0.28997,0.96386 -0.10566,0.16587 -0.23431,0.31176 -0.38595,0.4382 -0.15216,0.12594 -0.31792,0.22551 -0.49924,0.30029 -0.0175,0.007 -0.0365,0.0129 -0.055,0.0197 z"
           id="path308"
           style="fill:url(#linearGradient394);stroke-width:0.506427" /><path
           fill-rule="evenodd"
           clip-rule="evenodd"
           fill="url(#SVGID_524_)"
           d="m 113.40214,226.95912 c -0.10976,0.10269 -0.23705,0.13643 -0.37561,0.0884 -0.13854,-0.048 -0.21471,-0.15089 -0.23125,-0.29838 -0.003,-0.0237 -0.002,-0.0476 -0.001,-0.0714 0.008,-0.86851 0.007,-1.73782 -0.003,-2.60639 3.2e-4,-0.0264 -0.002,-0.0521 0.002,-0.0776 0.0179,-0.14739 0.0947,-0.25225 0.23463,-0.30558 0.13894,-0.0528 0.26738,-0.0233 0.37486,0.0763 0.066,0.0621 0.10047,0.14123 0.10692,0.23225 8.7e-4,0.0137 7.6e-4,0.0278 0.002,0.042 0.009,0.87819 0.009,1.75767 0.002,2.63631 -8.7e-4,0.0628 -0.009,0.12233 -0.0368,0.1803 -0.0187,0.039 -0.0441,0.0731 -0.0743,0.10378 z"
           id="path309"
           style="fill:url(#linearGradient395);stroke-width:0.506427" /></g><g
         id="g315"
         transform="translate(502.8751,-299.48373)"><g
           id="g312"
           transform="matrix(0.5061157,-0.01776783,0.01776783,0.5061157,13.772956,52.185536)">&#10;			<path
   fill-rule="evenodd"
   clip-rule="evenodd"
   fill="#bababa"
   d="m 182.971,349.755 c 0.005,0.019 0.011,0.03 0.01,0.041 -0.013,0.501 -0.028,1.004 -0.046,1.507 -0.036,0.025 -0.067,0.051 -0.099,0.073 -0.434,0.308 -0.721,0.715 -0.861,1.224 -0.041,0.149 -0.062,0.302 -0.068,0.455 -0.044,1.044 -0.09,2.088 -0.141,3.131 -0.021,0.428 0.081,0.82 0.304,1.175 0.133,0.214 0.306,0.394 0.508,0.542 0.017,0.011 0.031,0.021 0.047,0.033 0.002,0.003 0.004,0.007 -0.001,-0.002 -0.029,0.525 -0.057,1.039 -0.086,1.557 -0.026,0.014 -0.052,-0.009 -0.08,-0.019 -0.332,-0.129 -0.639,-0.302 -0.911,-0.529 -0.507,-0.422 -0.862,-0.948 -1.059,-1.586 -0.112,-0.369 -0.162,-0.751 -0.144,-1.143 0.051,-1.066 0.097,-2.134 0.145,-3.201 0.032,-0.702 0.262,-1.344 0.676,-1.922 0.432,-0.604 0.995,-1.033 1.684,-1.295 0.039,-0.017 0.08,-0.027 0.122,-0.041 z"
   id="path310" />&#10;			<path
   fill-rule="evenodd"
   clip-rule="evenodd"
   fill="#bababa"
   d="m 184.791,359.508 c -0.011,-0.114 0.041,-1.114 0.076,-1.548 0.022,-0.017 0.049,-0.04 0.078,-0.061 0.354,-0.234 0.613,-0.55 0.789,-0.933 0.111,-0.247 0.171,-0.504 0.184,-0.769 0.037,-0.742 0.071,-1.483 0.103,-2.226 0.013,-0.289 0.023,-0.58 0.038,-0.87 0.022,-0.498 -0.116,-0.94 -0.41,-1.331 -0.125,-0.164 -0.272,-0.306 -0.443,-0.423 -0.013,-0.008 -0.023,-0.018 -0.033,-0.025 -0.008,-0.096 0.03,-1.393 0.045,-1.543 0.027,-0.024 0.052,-0.002 0.075,0.006 0.27,0.099 0.518,0.23 0.753,0.392 0.277,0.192 0.522,0.424 0.73,0.691 0.459,0.597 0.697,1.278 0.706,2.044 0.001,0.06 -0.001,0.118 -0.004,0.177 -0.042,1.035 -0.088,2.071 -0.14,3.106 -0.033,0.681 -0.245,1.309 -0.639,1.882 -0.22,0.32 -0.484,0.599 -0.792,0.838 -0.309,0.238 -0.643,0.423 -1.006,0.558 -0.035,0.013 -0.073,0.023 -0.11,0.035 z"
   id="path311" />&#10;			<path
   fill-rule="evenodd"
   clip-rule="evenodd"
   fill="#bababa"
   d="m 184.528,351.797 c -0.222,0.197 -0.475,0.257 -0.746,0.155 -0.271,-0.102 -0.416,-0.309 -0.441,-0.601 -0.004,-0.047 0,-0.094 0.001,-0.141 0.06,-1.714 0.104,-3.43 0.13,-5.145 0.002,-0.052 0,-0.103 0.008,-0.153 0.043,-0.29 0.2,-0.493 0.479,-0.591 0.277,-0.097 0.529,-0.032 0.736,0.17 0.127,0.126 0.191,0.284 0.199,0.464 0.001,0.027 0.001,0.055 0.001,0.083 -0.027,1.734 -0.074,3.47 -0.133,5.204 -0.005,0.124 -0.025,0.241 -0.082,0.354 -0.039,0.076 -0.091,0.142 -0.152,0.201 z"
   id="path312" />&#10;		</g><path
           fill-rule="evenodd"
           clip-rule="evenodd"
           fill="url(#SVGID_522_)"
           d="m 112.59184,225.95104 c 0.003,0.01 0.006,0.015 0.006,0.0206 0.002,0.25379 0.004,0.50864 0.003,0.76353 -0.0178,0.0133 -0.033,0.027 -0.0488,0.0387 -0.21419,0.16359 -0.35221,0.37468 -0.41402,0.63478 -0.0181,0.0761 -0.026,0.15395 -0.0263,0.23149 -0.004,0.52917 -0.008,1.05837 -0.0157,1.58716 -0.003,0.21699 0.0556,0.41357 0.17474,0.58928 0.0711,0.10595 0.16187,0.19397 0.26674,0.26529 0.009,0.005 0.0161,0.0101 0.0244,0.0159 0.001,0.001 0.002,0.003 -5.4e-4,-0.001 -0.005,0.26623 -0.0104,0.52687 -0.0159,0.78955 -0.0129,0.008 -0.0265,-0.004 -0.0408,-0.008 -0.17032,-0.0594 -0.32877,-0.1415 -0.47047,-0.25155 -0.2641,-0.20458 -0.45311,-0.46448 -0.56416,-0.78389 -0.0632,-0.18476 -0.0953,-0.37721 -0.0932,-0.57593 0.007,-0.54042 0.0112,-1.08177 0.0165,-1.62265 0.004,-0.35586 0.10872,-0.68487 0.30798,-0.98477 0.20791,-0.31337 0.48523,-0.54049 0.82929,-0.68534 0.0194,-0.009 0.04,-0.0151 0.061,-0.0229 z"
           id="path313"
           style="fill:url(#linearGradient396);stroke-width:0.506427" /><path
           fill-rule="evenodd"
           clip-rule="evenodd"
           fill="url(#SVGID_523_)"
           d="m 113.68626,230.85484 c -0.008,-0.0575 9.6e-4,-0.56454 0.011,-0.78481 0.0108,-0.009 0.0241,-0.0211 0.0384,-0.0323 0.17501,-0.12472 0.30048,-0.28926 0.38275,-0.48623 0.0518,-0.12698 0.0776,-0.25812 0.0795,-0.39247 0.006,-0.37619 0.01,-0.75183 0.0126,-1.12844 0.001,-0.1465 0.001,-0.29396 0.004,-0.441 0.002,-0.25244 -0.0754,-0.47369 -0.23116,-0.66635 -0.0662,-0.0808 -0.1431,-0.15004 -0.23173,-0.20622 -0.007,-0.004 -0.012,-0.009 -0.0171,-0.0121 -0.006,-0.0484 -0.01,-0.70555 -0.005,-0.78173 0.0132,-0.0126 0.0263,-0.002 0.0381,0.002 0.13841,0.0453 0.26626,0.1072 0.38807,0.18502 0.14361,0.0922 0.27173,0.20532 0.38174,0.33676 0.24292,0.29399 0.37547,0.63443 0.39364,1.02195 0.002,0.0303 0.002,0.0597 10e-4,0.0897 -0.003,0.52457 -0.008,1.04972 -0.0157,1.57448 -0.005,0.34525 -0.10074,0.66686 -0.28997,0.96386 -0.10566,0.16587 -0.23431,0.31176 -0.38595,0.4382 -0.15216,0.12594 -0.31792,0.22551 -0.49924,0.30029 -0.0175,0.007 -0.0365,0.0129 -0.055,0.0197 z"
           id="path314"
           style="fill:url(#linearGradient397);stroke-width:0.506427" /><path
           fill-rule="evenodd"
           clip-rule="evenodd"
           fill="url(#SVGID_524_)"
           d="m 113.40214,226.95912 c -0.10976,0.10269 -0.23705,0.13643 -0.37561,0.0884 -0.13854,-0.048 -0.21471,-0.15089 -0.23125,-0.29838 -0.003,-0.0237 -0.002,-0.0476 -0.001,-0.0714 0.008,-0.86851 0.007,-1.73782 -0.003,-2.60639 3.2e-4,-0.0264 -0.002,-0.0521 0.002,-0.0776 0.0179,-0.14739 0.0947,-0.25225 0.23463,-0.30558 0.13894,-0.0528 0.26738,-0.0233 0.37486,0.0763 0.066,0.0621 0.10047,0.14123 0.10692,0.23225 8.7e-4,0.0137 7.6e-4,0.0278 0.002,0.042 0.009,0.87819 0.009,1.75767 0.002,2.63631 -8.7e-4,0.0628 -0.009,0.12233 -0.0368,0.1803 -0.0187,0.039 -0.0441,0.0731 -0.0743,0.10378 z"
           id="path315"
           style="fill:url(#linearGradient398);stroke-width:0.506427" /></g><g
         id="g378"
         transform="translate(502.8751,-293.27485)"><g
           id="g376"
           transform="matrix(0.5061157,-0.01776783,0.01776783,0.5061157,13.772956,52.185536)">&#10;			<path
   fill-rule="evenodd"
   clip-rule="evenodd"
   fill="#bababa"
   d="m 182.971,349.755 c 0.005,0.019 0.011,0.03 0.01,0.041 -0.013,0.501 -0.028,1.004 -0.046,1.507 -0.036,0.025 -0.067,0.051 -0.099,0.073 -0.434,0.308 -0.721,0.715 -0.861,1.224 -0.041,0.149 -0.062,0.302 -0.068,0.455 -0.044,1.044 -0.09,2.088 -0.141,3.131 -0.021,0.428 0.081,0.82 0.304,1.175 0.133,0.214 0.306,0.394 0.508,0.542 0.017,0.011 0.031,0.021 0.047,0.033 0.002,0.003 0.004,0.007 -0.001,-0.002 -0.029,0.525 -0.057,1.039 -0.086,1.557 -0.026,0.014 -0.052,-0.009 -0.08,-0.019 -0.332,-0.129 -0.639,-0.302 -0.911,-0.529 -0.507,-0.422 -0.862,-0.948 -1.059,-1.586 -0.112,-0.369 -0.162,-0.751 -0.144,-1.143 0.051,-1.066 0.097,-2.134 0.145,-3.201 0.032,-0.702 0.262,-1.344 0.676,-1.922 0.432,-0.604 0.995,-1.033 1.684,-1.295 0.039,-0.017 0.08,-0.027 0.122,-0.041 z"
   id="path316" />&#10;			<path
   fill-rule="evenodd"
   clip-rule="evenodd"
   fill="#bababa"
   d="m 184.791,359.508 c -0.011,-0.114 0.041,-1.114 0.076,-1.548 0.022,-0.017 0.049,-0.04 0.078,-0.061 0.354,-0.234 0.613,-0.55 0.789,-0.933 0.111,-0.247 0.171,-0.504 0.184,-0.769 0.037,-0.742 0.071,-1.483 0.103,-2.226 0.013,-0.289 0.023,-0.58 0.038,-0.87 0.022,-0.498 -0.116,-0.94 -0.41,-1.331 -0.125,-0.164 -0.272,-0.306 -0.443,-0.423 -0.013,-0.008 -0.023,-0.018 -0.033,-0.025 -0.008,-0.096 0.03,-1.393 0.045,-1.543 0.027,-0.024 0.052,-0.002 0.075,0.006 0.27,0.099 0.518,0.23 0.753,0.392 0.277,0.192 0.522,0.424 0.73,0.691 0.459,0.597 0.697,1.278 0.706,2.044 0.001,0.06 -0.001,0.118 -0.004,0.177 -0.042,1.035 -0.088,2.071 -0.14,3.106 -0.033,0.681 -0.245,1.309 -0.639,1.882 -0.22,0.32 -0.484,0.599 -0.792,0.838 -0.309,0.238 -0.643,0.423 -1.006,0.558 -0.035,0.013 -0.073,0.023 -0.11,0.035 z"
   id="path317" />&#10;			<path
   fill-rule="evenodd"
   clip-rule="evenodd"
   fill="#bababa"
   d="m 184.528,351.797 c -0.222,0.197 -0.475,0.257 -0.746,0.155 -0.271,-0.102 -0.416,-0.309 -0.441,-0.601 -0.004,-0.047 0,-0.094 0.001,-0.141 0.06,-1.714 0.104,-3.43 0.13,-5.145 0.002,-0.052 0,-0.103 0.008,-0.153 0.043,-0.29 0.2,-0.493 0.479,-0.591 0.277,-0.097 0.529,-0.032 0.736,0.17 0.127,0.126 0.191,0.284 0.199,0.464 0.001,0.027 0.001,0.055 0.001,0.083 -0.027,1.734 -0.074,3.47 -0.133,5.204 -0.005,0.124 -0.025,0.241 -0.082,0.354 -0.039,0.076 -0.091,0.142 -0.152,0.201 z"
   id="path375" />&#10;		</g><path
           fill-rule="evenodd"
           clip-rule="evenodd"
           fill="url(#SVGID_522_)"
           d="m 112.59184,225.95104 c 0.003,0.01 0.006,0.015 0.006,0.0206 0.002,0.25379 0.004,0.50864 0.003,0.76353 -0.0178,0.0133 -0.033,0.027 -0.0488,0.0387 -0.21419,0.16359 -0.35221,0.37468 -0.41402,0.63478 -0.0181,0.0761 -0.026,0.15395 -0.0263,0.23149 -0.004,0.52917 -0.008,1.05837 -0.0157,1.58716 -0.003,0.21699 0.0556,0.41357 0.17474,0.58928 0.0711,0.10595 0.16187,0.19397 0.26674,0.26529 0.009,0.005 0.0161,0.0101 0.0244,0.0159 0.001,0.001 0.002,0.003 -5.4e-4,-0.001 -0.005,0.26623 -0.0104,0.52687 -0.0159,0.78955 -0.0129,0.008 -0.0265,-0.004 -0.0408,-0.008 -0.17032,-0.0594 -0.32877,-0.1415 -0.47047,-0.25155 -0.2641,-0.20458 -0.45311,-0.46448 -0.56416,-0.78389 -0.0632,-0.18476 -0.0953,-0.37721 -0.0932,-0.57593 0.007,-0.54042 0.0112,-1.08177 0.0165,-1.62265 0.004,-0.35586 0.10872,-0.68487 0.30798,-0.98477 0.20791,-0.31337 0.48523,-0.54049 0.82929,-0.68534 0.0194,-0.009 0.04,-0.0151 0.061,-0.0229 z"
           id="path376"
           style="fill:url(#linearGradient399);stroke-width:0.506427" /><path
           fill-rule="evenodd"
           clip-rule="evenodd"
           fill="url(#SVGID_523_)"
           d="m 113.68626,230.85484 c -0.008,-0.0575 9.6e-4,-0.56454 0.011,-0.78481 0.0108,-0.009 0.0241,-0.0211 0.0384,-0.0323 0.17501,-0.12472 0.30048,-0.28926 0.38275,-0.48623 0.0518,-0.12698 0.0776,-0.25812 0.0795,-0.39247 0.006,-0.37619 0.01,-0.75183 0.0126,-1.12844 0.001,-0.1465 0.001,-0.29396 0.004,-0.441 0.002,-0.25244 -0.0754,-0.47369 -0.23116,-0.66635 -0.0662,-0.0808 -0.1431,-0.15004 -0.23173,-0.20622 -0.007,-0.004 -0.012,-0.009 -0.0171,-0.0121 -0.006,-0.0484 -0.01,-0.70555 -0.005,-0.78173 0.0132,-0.0126 0.0263,-0.002 0.0381,0.002 0.13841,0.0453 0.26626,0.1072 0.38807,0.18502 0.14361,0.0922 0.27173,0.20532 0.38174,0.33676 0.24292,0.29399 0.37547,0.63443 0.39364,1.02195 0.002,0.0303 0.002,0.0597 10e-4,0.0897 -0.003,0.52457 -0.008,1.04972 -0.0157,1.57448 -0.005,0.34525 -0.10074,0.66686 -0.28997,0.96386 -0.10566,0.16587 -0.23431,0.31176 -0.38595,0.4382 -0.15216,0.12594 -0.31792,0.22551 -0.49924,0.30029 -0.0175,0.007 -0.0365,0.0129 -0.055,0.0197 z"
           id="path377"
           style="fill:url(#linearGradient400);stroke-width:0.506427" /><path
           fill-rule="evenodd"
           clip-rule="evenodd"
           fill="url(#SVGID_524_)"
           d="m 113.40214,226.95912 c -0.10976,0.10269 -0.23705,0.13643 -0.37561,0.0884 -0.13854,-0.048 -0.21471,-0.15089 -0.23125,-0.29838 -0.003,-0.0237 -0.002,-0.0476 -0.001,-0.0714 0.008,-0.86851 0.007,-1.73782 -0.003,-2.60639 3.2e-4,-0.0264 -0.002,-0.0521 0.002,-0.0776 0.0179,-0.14739 0.0947,-0.25225 0.23463,-0.30558 0.13894,-0.0528 0.26738,-0.0233 0.37486,0.0763 0.066,0.0621 0.10047,0.14123 0.10692,0.23225 8.7e-4,0.0137 7.6e-4,0.0278 0.002,0.042 0.009,0.87819 0.009,1.75767 0.002,2.63631 -8.7e-4,0.0628 -0.009,0.12233 -0.0368,0.1803 -0.0187,0.039 -0.0441,0.0731 -0.0743,0.10378 z"
           id="path378"
           style="fill:url(#linearGradient401);stroke-width:0.506427" /></g><g
         id="g381"
         transform="matrix(0.5061157,-0.01776783,0.01776783,0.5061157,516.64806,-234.88043)">&#10;			<path
   fill-rule="evenodd"
   clip-rule="evenodd"
   fill="#bababa"
   d="m 182.971,349.755 c 0.005,0.019 0.011,0.03 0.01,0.041 -0.013,0.501 -0.028,1.004 -0.046,1.507 -0.036,0.025 -0.067,0.051 -0.099,0.073 -0.434,0.308 -0.721,0.715 -0.861,1.224 -0.041,0.149 -0.062,0.302 -0.068,0.455 -0.044,1.044 -0.09,2.088 -0.141,3.131 -0.021,0.428 0.081,0.82 0.304,1.175 0.133,0.214 0.306,0.394 0.508,0.542 0.017,0.011 0.031,0.021 0.047,0.033 0.002,0.003 0.004,0.007 -0.001,-0.002 -0.029,0.525 -0.057,1.039 -0.086,1.557 -0.026,0.014 -0.052,-0.009 -0.08,-0.019 -0.332,-0.129 -0.639,-0.302 -0.911,-0.529 -0.507,-0.422 -0.862,-0.948 -1.059,-1.586 -0.112,-0.369 -0.162,-0.751 -0.144,-1.143 0.051,-1.066 0.097,-2.134 0.145,-3.201 0.032,-0.702 0.262,-1.344 0.676,-1.922 0.432,-0.604 0.995,-1.033 1.684,-1.295 0.039,-0.017 0.08,-0.027 0.122,-0.041 z"
   id="path379" />&#10;			<path
   fill-rule="evenodd"
   clip-rule="evenodd"
   fill="#bababa"
   d="m 184.791,359.508 c -0.011,-0.114 0.041,-1.114 0.076,-1.548 0.022,-0.017 0.049,-0.04 0.078,-0.061 0.354,-0.234 0.613,-0.55 0.789,-0.933 0.111,-0.247 0.171,-0.504 0.184,-0.769 0.037,-0.742 0.071,-1.483 0.103,-2.226 0.013,-0.289 0.023,-0.58 0.038,-0.87 0.022,-0.498 -0.116,-0.94 -0.41,-1.331 -0.125,-0.164 -0.272,-0.306 -0.443,-0.423 -0.013,-0.008 -0.023,-0.018 -0.033,-0.025 -0.008,-0.096 0.03,-1.393 0.045,-1.543 0.027,-0.024 0.052,-0.002 0.075,0.006 0.27,0.099 0.518,0.23 0.753,0.392 0.277,0.192 0.522,0.424 0.73,0.691 0.459,0.597 0.697,1.278 0.706,2.044 0.001,0.06 -0.001,0.118 -0.004,0.177 -0.042,1.035 -0.088,2.071 -0.14,3.106 -0.033,0.681 -0.245,1.309 -0.639,1.882 -0.22,0.32 -0.484,0.599 -0.792,0.838 -0.309,0.238 -0.643,0.423 -1.006,0.558 -0.035,0.013 -0.073,0.023 -0.11,0.035 z"
   id="path380" />&#10;			<path
   fill-rule="evenodd"
   clip-rule="evenodd"
   fill="#bababa"
   d="m 184.528,351.797 c -0.222,0.197 -0.475,0.257 -0.746,0.155 -0.271,-0.102 -0.416,-0.309 -0.441,-0.601 -0.004,-0.047 0,-0.094 0.001,-0.141 0.06,-1.714 0.104,-3.43 0.13,-5.145 0.002,-0.052 0,-0.103 0.008,-0.153 0.043,-0.29 0.2,-0.493 0.479,-0.591 0.277,-0.097 0.529,-0.032 0.736,0.17 0.127,0.126 0.191,0.284 0.199,0.464 0.001,0.027 0.001,0.055 0.001,0.083 -0.027,1.734 -0.074,3.47 -0.133,5.204 -0.005,0.124 -0.025,0.241 -0.082,0.354 -0.039,0.076 -0.091,0.142 -0.152,0.201 z"
   id="path381" />&#10;		</g><path
         fill-rule="evenodd"
         clip-rule="evenodd"
         fill="url(#SVGID_522_)"
         d="m 615.46694,-61.11492 c 0.003,0.01 0.006,0.015 0.006,0.0206 0.002,0.25379 0.004,0.50864 0.003,0.76353 -0.0178,0.0133 -0.033,0.027 -0.0488,0.0387 -0.21419,0.16359 -0.35221,0.37468 -0.41402,0.63478 -0.0181,0.0761 -0.026,0.15395 -0.0263,0.23149 -0.004,0.52917 -0.008,1.05837 -0.0157,1.58716 -0.003,0.21699 0.0556,0.41357 0.17474,0.58928 0.0711,0.10595 0.16187,0.19397 0.26674,0.26529 0.009,0.005 0.0161,0.0101 0.0244,0.0159 10e-4,10e-4 0.002,0.003 -5.4e-4,-10e-4 -0.005,0.26623 -0.0104,0.52687 -0.0159,0.78955 -0.0129,0.008 -0.0265,-0.004 -0.0408,-0.008 -0.17032,-0.0594 -0.32877,-0.1415 -0.47047,-0.25155 -0.2641,-0.20458 -0.45311,-0.46448 -0.56416,-0.78389 -0.0632,-0.18476 -0.0953,-0.37721 -0.0932,-0.57593 0.007,-0.54042 0.0112,-1.08177 0.0165,-1.62265 0.004,-0.35586 0.10872,-0.68487 0.30798,-0.98477 0.20791,-0.31337 0.48523,-0.54049 0.82929,-0.68534 0.0194,-0.009 0.04,-0.0151 0.061,-0.0229 z"
         id="path382"
         style="fill:url(#linearGradient402);stroke-width:0.506427" /><path
         fill-rule="evenodd"
         clip-rule="evenodd"
         fill="url(#SVGID_523_)"
         d="m 616.56136,-56.21112 c -0.008,-0.0575 9.6e-4,-0.56454 0.011,-0.78481 0.0108,-0.009 0.0241,-0.0211 0.0384,-0.0323 0.17501,-0.12472 0.30048,-0.28926 0.38275,-0.48623 0.0518,-0.12698 0.0776,-0.25812 0.0795,-0.39247 0.006,-0.37619 0.01,-0.75183 0.0126,-1.12844 10e-4,-0.1465 10e-4,-0.29396 0.004,-0.441 0.002,-0.25244 -0.0754,-0.47369 -0.23116,-0.66635 -0.0662,-0.0808 -0.1431,-0.15004 -0.23173,-0.20622 -0.007,-0.004 -0.012,-0.009 -0.0171,-0.0121 -0.006,-0.0484 -0.01,-0.70555 -0.005,-0.78173 0.0132,-0.0126 0.0263,-0.002 0.0381,0.002 0.13841,0.0453 0.26626,0.1072 0.38807,0.18502 0.14361,0.0922 0.27173,0.20532 0.38174,0.33676 0.24292,0.29399 0.37547,0.63443 0.39364,1.02195 0.002,0.0303 0.002,0.0597 0.001,0.0897 -0.003,0.52457 -0.008,1.04972 -0.0157,1.57448 -0.005,0.34525 -0.10074,0.66686 -0.28997,0.96386 -0.10566,0.16587 -0.23431,0.31176 -0.38595,0.4382 -0.15216,0.12594 -0.31792,0.22551 -0.49924,0.30029 -0.0175,0.007 -0.0365,0.0129 -0.055,0.0197 z"
         id="path383"
         style="fill:url(#linearGradient403);stroke-width:0.506427" /><path
         fill-rule="evenodd"
         clip-rule="evenodd"
         fill="url(#SVGID_524_)"
         d="m 616.27724,-60.10684 c -0.10976,0.10269 -0.23705,0.13643 -0.37561,0.0884 -0.13854,-0.048 -0.21471,-0.15089 -0.23125,-0.29838 -0.003,-0.0237 -0.002,-0.0476 -10e-4,-0.0714 0.008,-0.86851 0.007,-1.73782 -0.003,-2.60639 3.2e-4,-0.0264 -0.002,-0.0521 0.002,-0.0776 0.0179,-0.14739 0.0947,-0.25225 0.23463,-0.30558 0.13894,-0.0528 0.26738,-0.0233 0.37486,0.0763 0.066,0.0621 0.10047,0.14123 0.10692,0.23225 8.7e-4,0.0137 7.6e-4,0.0278 0.002,0.042 0.009,0.87819 0.009,1.75767 0.002,2.63631 -8.7e-4,0.0628 -0.009,0.12233 -0.0368,0.1803 -0.0187,0.039 -0.0441,0.0731 -0.0743,0.10378 z"
         id="path384"
         style="fill:url(#linearGradient405);stroke-width:0.506427" /><path
         style="fill:url(#linearGradient406);fill-rule:evenodd;stroke:none;stroke-width:0.169333;stroke-linecap:butt;stroke-linejoin:miter;stroke-dasharray:none;stroke-opacity:1"
         d="m 615.63858,-56.727656 0.0277,2.769856 c 0,0 0.0612,0.329012 0.37006,0.316115 0.30886,-0.0129 0.36031,-0.302334 0.36031,-0.302334 l -0.0138,-2.783637 c 0,0 -0.0582,-0.326693 -0.37213,-0.31695 -0.31397,0.0097 -0.37214,0.31695 -0.37214,0.31695 z"
         id="path385"
         sodipodi:nodetypes="cczcczc" /></g></g></svg>
