<?xml version="1.0" encoding="UTF-8" standalone="no"?>
<!-- Created with Inkscape (http://www.inkscape.org/) -->

<svg
   width="408.6355"
   height="487.38623"
   viewBox="0 0 115.32602 137.55123"
   version="1.1"
   id="svg1"
   inkscape:version="1.3 (0e150ed6c4, 2023-07-21)"
   sodipodi:docname="gameVolcanoDino.svg"
   xml:space="preserve"
   xmlns:inkscape="http://www.inkscape.org/namespaces/inkscape"
   xmlns:sodipodi="http://sodipodi.sourceforge.net/DTD/sodipodi-0.dtd"
   xmlns:xlink="http://www.w3.org/1999/xlink"
   xmlns="http://www.w3.org/2000/svg"
   xmlns:svg="http://www.w3.org/2000/svg"
   xmlns:rdf="http://www.w3.org/1999/02/22-rdf-syntax-ns#"
   xmlns:cc="http://creativecommons.org/ns#"
   xmlns:dc="http://purl.org/dc/elements/1.1/"><metadata
     id="metadata585"><rdf:RDF><cc:Work
         rdf:about=""><dc:format>image/svg+xml</dc:format><dc:type
           rdf:resource="http://purl.org/dc/dcmitype/StillImage" /></cc:Work></rdf:RDF></metadata><sodipodi:namedview
     id="namedview1"
     pagecolor="#505050"
     bordercolor="#eeeeee"
     borderopacity="1"
     inkscape:showpageshadow="0"
     inkscape:pageopacity="1"
     inkscape:pagecheckerboard="0"
     inkscape:deskcolor="#141414"
     inkscape:document-units="px"
     inkscape:zoom="0.32000003"
     inkscape:cx="4309.3746"
     inkscape:cy="1068.7499"
     inkscape:window-width="1280"
     inkscape:window-height="961"
     inkscape:window-x="-8"
     inkscape:window-y="-8"
     inkscape:window-maximized="1"
     inkscape:current-layer="layer1"
     showgrid="false"
     units="px" /><defs
     id="defs1"><linearGradient
       id="swatch2"
       inkscape:swatch="solid"><stop
         style="stop-color:#000000;stop-opacity:1;"
         offset="0"
         id="stop2-3" /></linearGradient><linearGradient
       id="linearGradient3962"
       inkscape:collect="always"><stop
         style="stop-color:#86ad51;stop-opacity:1;"
         offset="0"
         id="stop3963" /><stop
         style="stop-color:#fafcf7;stop-opacity:1;"
         offset="0.45219639"
         id="stop3964" /></linearGradient><linearGradient
       id="linearGradient4011"
       inkscape:collect="always"><stop
         style="stop-color:#fafcf7;stop-opacity:1;"
         offset="0.54780361"
         id="stop4011" /><stop
         style="stop-color:#86ad51;stop-opacity:1;"
         offset="1"
         id="stop4008" /></linearGradient><linearGradient
       id="linearGradient3951"
       inkscape:collect="always"><stop
         style="stop-color:#5fa300;stop-opacity:1;"
         offset="0"
         id="stop3960" /><stop
         style="stop-color:#83ad49;stop-opacity:1;"
         offset="0.5"
         id="stop3962" /><stop
         style="stop-color:#6b7958;stop-opacity:1;"
         offset="1"
         id="stop3961" /></linearGradient><linearGradient
       id="linearGradient1884-6"
       inkscape:collect="always"><stop
         style="stop-color:#a3ca6c;stop-opacity:1"
         offset="0"
         id="stop1902-5" /><stop
         style="stop-color:#cee3b2;stop-opacity:1;"
         offset="0.99741602"
         id="stop1903-5" /></linearGradient><linearGradient
       id="linearGradient3703"
       inkscape:collect="always"><stop
         style="stop-color:#758163;stop-opacity:1;"
         offset="0"
         id="stop3703" /><stop
         style="stop-color:#86a559;stop-opacity:1;"
         offset="0.5"
         id="stop3702" /><stop
         style="stop-color:#5fa300;stop-opacity:1;"
         offset="1"
         id="stop3701" /></linearGradient><linearGradient
       id="linearGradient4-3"
       inkscape:collect="always"><stop
         style="stop-color:#5fa300;stop-opacity:1;"
         offset="0"
         id="stop1876" /><stop
         style="stop-color:#86a559;stop-opacity:1;"
         offset="0.5"
         id="stop1878" /><stop
         style="stop-color:#758163;stop-opacity:1;"
         offset="1"
         id="stop1877" /></linearGradient><linearGradient
       id="linearGradient21-5"
       inkscape:collect="always"><stop
         style="stop-color:#6b7a56;stop-opacity:1;"
         offset="0"
         id="stop35-6" /><stop
         style="stop-color:#98ac7a;stop-opacity:1;"
         offset="0.5"
         id="stop37-5" /><stop
         style="stop-color:#668737;stop-opacity:1;"
         offset="1"
         id="stop36-6" /></linearGradient><linearGradient
       id="linearGradient37-7"
       inkscape:collect="always"><stop
         style="stop-color:#939b88;stop-opacity:1;"
         offset="0"
         id="stop38-9" /><stop
         style="stop-color:#4a5737;stop-opacity:1;"
         offset="0.18229167"
         id="stop40-9-8" /><stop
         style="stop-color:#6c844c;stop-opacity:1;"
         offset="0.59114581"
         id="stop41-6" /><stop
         style="stop-color:#86b93e;stop-opacity:1;"
         offset="0.80103362"
         id="stop39-8-1" /></linearGradient><linearGradient
       id="linearGradient41-8"
       inkscape:collect="always"><stop
         style="stop-color:#cde2b0;stop-opacity:1;"
         offset="0"
         id="stop42-2" /><stop
         style="stop-color:#cde2b0;stop-opacity:0;"
         offset="1"
         id="stop43-3" /></linearGradient><linearGradient
       id="linearGradient48-9"
       inkscape:collect="always"><stop
         style="stop-color:#c7d7b0;stop-opacity:1;"
         offset="0.328125"
         id="stop48-5" /><stop
         style="stop-color:#86b93e;stop-opacity:1;"
         offset="1"
         id="stop49-2" /></linearGradient><linearGradient
       id="linearGradient54-1"
       inkscape:collect="always"><stop
         style="stop-color:#6da322;stop-opacity:1;"
         offset="0"
         id="stop54-6" /><stop
         style="stop-color:#6da322;stop-opacity:0;"
         offset="1"
         id="stop55-4" /></linearGradient><linearGradient
       id="linearGradient2-2"
       inkscape:collect="always"><stop
         style="stop-color:#b2b9a4;stop-opacity:1;"
         offset="0"
         id="stop2-5" /><stop
         style="stop-color:#70a22b;stop-opacity:1;"
         offset="1"
         id="stop3-3" /></linearGradient><linearGradient
       id="linearGradient3862"
       inkscape:collect="always"><stop
         style="stop-color:#515e3f;stop-opacity:1;"
         offset="0.09173127"
         id="stop3938" /><stop
         style="stop-color:#9cab88;stop-opacity:0.186722;"
         offset="1"
         id="stop3894" /></linearGradient><linearGradient
       id="linearGradient9-6"
       inkscape:collect="always"><stop
         style="stop-color:#fefefe;stop-opacity:1;"
         offset="0.44010416"
         id="stop10-2-0" /><stop
         style="stop-color:#9fc866;stop-opacity:1;"
         offset="1"
         id="stop11-8" /></linearGradient><linearGradient
       id="linearGradient6-9"
       inkscape:collect="always"><stop
         style="stop-color:#4c573b;stop-opacity:1;"
         offset="0"
         id="stop6-2" /><stop
         style="stop-color:#7f935f;stop-opacity:1;"
         offset="0.46614584"
         id="stop9-0" /><stop
         style="stop-color:#82aa48;stop-opacity:1;"
         offset="0.78125"
         id="stop8-0" /><stop
         style="stop-color:#5c9709;stop-opacity:1;"
         offset="0.8671875"
         id="stop7-8" /></linearGradient><linearGradient
       id="linearGradient16-2"
       inkscape:collect="always"><stop
         style="stop-color:#9fc866;stop-opacity:1;"
         offset="0"
         id="stop16-9" /><stop
         style="stop-color:#fefefe;stop-opacity:1;"
         offset="0.38281247"
         id="stop15-0" /></linearGradient><linearGradient
       id="linearGradient17-6"
       inkscape:collect="always"><stop
         style="stop-color:#cde2b0;stop-opacity:0.55042017;"
         offset="0"
         id="stop17-2" /><stop
         style="stop-color:#cde2b0;stop-opacity:0;"
         offset="1"
         id="stop18-7" /></linearGradient><linearGradient
       id="linearGradient3715-9"
       inkscape:collect="always"><stop
         style="stop-color:#99a18f;stop-opacity:1;"
         offset="0"
         id="stop3856-9" /><stop
         style="stop-color:#4a5737;stop-opacity:1;"
         offset="0.37080103"
         id="stop3858-7" /><stop
         style="stop-color:#4a5737;stop-opacity:1;"
         offset="0.66214472"
         id="stop3859-5" /><stop
         style="stop-color:#767e6b;stop-opacity:1;"
         offset="0.77378064"
         id="stop5-7" /><stop
         style="stop-color:#5a910d;stop-opacity:1;"
         offset="0.96354169"
         id="stop3857-3" /></linearGradient><linearGradient
       id="linearGradient6423"
       inkscape:collect="always"><stop
         style="stop-color:#5fa300;stop-opacity:1;"
         offset="0.17931035"
         id="stop6423" /><stop
         style="stop-color:#9ccf74;stop-opacity:1;"
         offset="1"
         id="stop6424" /></linearGradient><linearGradient
       id="linearGradient83"
       inkscape:collect="always"><stop
         style="stop-color:#65a30d;stop-opacity:1;"
         offset="0"
         id="stop83-7" /><stop
         style="stop-color:#a0c46d;stop-opacity:1;"
         offset="0.71354169"
         id="stop85-2-9" /><stop
         style="stop-color:#dee6d3;stop-opacity:1;"
         offset="1"
         id="stop84-4" /></linearGradient><linearGradient
       id="linearGradient78"
       inkscape:collect="always"><stop
         style="stop-color:#c16f6b;stop-opacity:1;"
         offset="0.453125"
         id="stop78-6" /><stop
         style="stop-color:#bfd295;stop-opacity:1;"
         offset="1"
         id="stop79-2" /></linearGradient><linearGradient
       id="linearGradient110"
       inkscape:collect="always"><stop
         style="stop-color:#65a30d;stop-opacity:1;"
         offset="0.22395834"
         id="stop108-3" /><stop
         style="stop-color:#a0c46d;stop-opacity:1;"
         offset="0.41145834"
         id="stop109-2" /><stop
         style="stop-color:#dee6d3;stop-opacity:1;"
         offset="1"
         id="stop110-5" /></linearGradient><linearGradient
       id="linearGradient114"
       inkscape:collect="always"><stop
         style="stop-color:#65a30d;stop-opacity:1;"
         offset="0.18229167"
         id="stop112-5" /><stop
         style="stop-color:#a0c46d;stop-opacity:1;"
         offset="0.52864587"
         id="stop113-9" /><stop
         style="stop-color:#dee6d3;stop-opacity:1;"
         offset="1"
         id="stop114-1" /></linearGradient><linearGradient
       id="linearGradient120"
       inkscape:collect="always"><stop
         style="stop-color:#65a30d;stop-opacity:1;"
         offset="0"
         id="stop118-5" /><stop
         style="stop-color:#a0c46d;stop-opacity:1;"
         offset="0.35416669"
         id="stop119-3" /><stop
         style="stop-color:#dee6d3;stop-opacity:1;"
         offset="1"
         id="stop120-2" /></linearGradient><linearGradient
       id="linearGradient124"
       inkscape:collect="always"><stop
         style="stop-color:#65a30d;stop-opacity:1;"
         offset="0"
         id="stop122-4" /><stop
         style="stop-color:#a0c46d;stop-opacity:1;"
         offset="0.18489586"
         id="stop123-2" /><stop
         style="stop-color:#dee6d3;stop-opacity:1;"
         offset="1"
         id="stop124-0" /></linearGradient><linearGradient
       id="linearGradient128"
       inkscape:collect="always"><stop
         style="stop-color:#65a30d;stop-opacity:1;"
         offset="0"
         id="stop126-1" /><stop
         style="stop-color:#a0c46d;stop-opacity:1;"
         offset="0.19270836"
         id="stop127-2" /><stop
         style="stop-color:#dee6d3;stop-opacity:1;"
         offset="1"
         id="stop128-9" /></linearGradient><linearGradient
       id="linearGradient132"
       inkscape:collect="always"><stop
         style="stop-color:#65a30d;stop-opacity:1;"
         offset="0"
         id="stop130-8" /><stop
         style="stop-color:#a0c46d;stop-opacity:1;"
         offset="0.28906253"
         id="stop131-3" /><stop
         style="stop-color:#dee6d3;stop-opacity:1;"
         offset="1"
         id="stop132-0" /></linearGradient><linearGradient
       id="linearGradient99"
       inkscape:collect="always"><stop
         style="stop-color:#62a408;stop-opacity:1;"
         offset="0"
         id="stop99-4" /><stop
         style="stop-color:#8a9b71;stop-opacity:1;"
         offset="0.5"
         id="stop101-4" /><stop
         style="stop-color:#8a9b71;stop-opacity:1;"
         offset="0.70833331"
         id="stop102-7-7" /><stop
         style="stop-color:#687357;stop-opacity:1;"
         offset="1"
         id="stop100-3" /></linearGradient><linearGradient
       id="linearGradient90"
       inkscape:collect="always"><stop
         style="stop-color:#95b46a;stop-opacity:1;"
         offset="0.375"
         id="stop90-7" /><stop
         style="stop-color:#5fa300;stop-opacity:1;"
         offset="0.84635419"
         id="stop91-4" /></linearGradient><linearGradient
       id="linearGradient88"
       inkscape:collect="always"><stop
         style="stop-color:#7ea844;stop-opacity:1;"
         offset="0"
         id="stop88-2" /><stop
         style="stop-color:#89a265;stop-opacity:1;"
         offset="0.1953125"
         id="stop92-8" /><stop
         style="stop-color:#779055;stop-opacity:1;"
         offset="0.50390625"
         id="stop93-8" /><stop
         style="stop-color:#4a5737;stop-opacity:1;"
         offset="1"
         id="stop89-0" /></linearGradient><linearGradient
       id="linearGradient85"
       inkscape:collect="always"><stop
         style="stop-color:#5fa300;stop-opacity:1;"
         offset="0.29166666"
         id="stop86-2" /><stop
         style="stop-color:#8f9e78;stop-opacity:1;"
         offset="1"
         id="stop87-9" /></linearGradient><linearGradient
       id="linearGradient137"
       inkscape:collect="always"><stop
         style="stop-color:#a5ce6d;stop-opacity:1;"
         offset="0"
         id="stop137-3" /><stop
         style="stop-color:#5fa300;stop-opacity:1;"
         offset="1"
         id="stop138-2" /></linearGradient><linearGradient
       id="linearGradient140"
       inkscape:collect="always"><stop
         style="stop-color:#cde3ad;stop-opacity:1;"
         offset="0"
         id="stop139-7" /><stop
         style="stop-color:#5fa300;stop-opacity:1;"
         offset="1"
         id="stop140-4" /></linearGradient><linearGradient
       id="linearGradient93"
       inkscape:collect="always"><stop
         style="stop-color:#dce0d7;stop-opacity:1;"
         offset="0.27604166"
         id="stop94-6" /><stop
         style="stop-color:#dce0d7;stop-opacity:0;"
         offset="1"
         id="stop95-5" /></linearGradient><linearGradient
       id="linearGradient136"
       inkscape:collect="always"><stop
         style="stop-color:#65a30d;stop-opacity:1;"
         offset="0"
         id="stop134-8" /><stop
         style="stop-color:#a0c46d;stop-opacity:1;"
         offset="0.45833334"
         id="stop135-5" /><stop
         style="stop-color:#dee6d3;stop-opacity:1;"
         offset="1"
         id="stop136-0" /></linearGradient><linearGradient
       inkscape:collect="always"
       xlink:href="#linearGradient3962"
       id="linearGradient758"
       gradientUnits="userSpaceOnUse"
       x1="308.04712"
       y1="-58.790871"
       x2="316.32684"
       y2="-58.790871" /><linearGradient
       inkscape:collect="always"
       xlink:href="#linearGradient4011"
       id="linearGradient759"
       gradientUnits="userSpaceOnUse"
       x1="269.78668"
       y1="-58.932121"
       x2="277.60605"
       y2="-58.932121" /><linearGradient
       inkscape:collect="always"
       xlink:href="#linearGradient3951"
       id="linearGradient760"
       gradientUnits="userSpaceOnUse"
       x1="250.37889"
       y1="-117.16782"
       x2="291.44681"
       y2="-58.903774" /><linearGradient
       inkscape:collect="always"
       xlink:href="#linearGradient1884-6"
       id="linearGradient761"
       gradientUnits="userSpaceOnUse"
       gradientTransform="translate(11.912934,-6.7630723)"
       x1="388.30719"
       y1="-163.90359"
       x2="388.48901"
       y2="-157.98068" /><linearGradient
       inkscape:collect="always"
       xlink:href="#linearGradient1884-6"
       id="linearGradient762"
       gradientUnits="userSpaceOnUse"
       gradientTransform="matrix(0.66024849,0.22551699,-0.22551699,0.66024849,102.76457,-151.83492)"
       x1="388.30719"
       y1="-163.90359"
       x2="388.48901"
       y2="-157.98068" /><linearGradient
       inkscape:collect="always"
       xlink:href="#linearGradient3703"
       id="linearGradient763"
       gradientUnits="userSpaceOnUse"
       gradientTransform="rotate(6.9221824,458.11897,-16.234739)"
       x1="376.52261"
       y1="-165.40318"
       x2="380.42734"
       y2="-165.40318" /><linearGradient
       inkscape:collect="always"
       xlink:href="#linearGradient4-3"
       id="linearGradient764"
       gradientUnits="userSpaceOnUse"
       x1="356.75189"
       y1="-199.34155"
       x2="402.95279"
       y2="-199.34155" /><linearGradient
       inkscape:collect="always"
       xlink:href="#linearGradient21-5"
       id="linearGradient765"
       gradientUnits="userSpaceOnUse"
       x1="61.650116"
       y1="122.39757"
       x2="78.872948"
       y2="122.39757" /><linearGradient
       inkscape:collect="always"
       xlink:href="#linearGradient37-7"
       id="linearGradient766"
       gradientUnits="userSpaceOnUse"
       x1="73.607384"
       y1="115.69308"
       x2="95.17746"
       y2="139.07993" /><linearGradient
       inkscape:collect="always"
       xlink:href="#linearGradient41-8"
       id="linearGradient767"
       gradientUnits="userSpaceOnUse"
       x1="73.375717"
       y1="149.35979"
       x2="83.461639"
       y2="149.35979" /><radialGradient
       inkscape:collect="always"
       xlink:href="#linearGradient48-9"
       id="radialGradient767"
       gradientUnits="userSpaceOnUse"
       gradientTransform="matrix(2.5046095,0.60967887,-1.356826,5.5739497,162.23009,-960.60806)"
       cx="97.487137"
       cy="122.90784"
       fx="97.487137"
       fy="122.90784"
       r="17.609535" /><linearGradient
       inkscape:collect="always"
       xlink:href="#linearGradient54-1"
       id="linearGradient768"
       gradientUnits="userSpaceOnUse"
       gradientTransform="matrix(3.7795276,0,0,3.7795276,-136.22568,-686.22245)"
       x1="107.4343"
       y1="105.26353"
       x2="107.7549"
       y2="118.22491" /><linearGradient
       inkscape:collect="always"
       xlink:href="#linearGradient6423"
       id="linearGradient769"
       gradientUnits="userSpaceOnUse"
       gradientTransform="matrix(0.28222039,-0.00101976,0.00101976,0.28222039,440.0878,101.60378)"
       x1="218.01199"
       y1="-270.32278"
       x2="304.13062"
       y2="-270.32278" /><linearGradient
       inkscape:collect="always"
       xlink:href="#linearGradient83"
       id="linearGradient770"
       gradientUnits="userSpaceOnUse"
       x1="101.98186"
       y1="152.70299"
       x2="102.90197"
       y2="151.38008" /><radialGradient
       inkscape:collect="always"
       xlink:href="#linearGradient78"
       id="radialGradient770"
       gradientUnits="userSpaceOnUse"
       gradientTransform="matrix(1,0,0,0.64717236,0,52.821787)"
       cx="92.224876"
       cy="150.57275"
       fx="92.224876"
       fy="150.57275"
       r="1.2234232" /><linearGradient
       inkscape:collect="always"
       xlink:href="#linearGradient83"
       id="linearGradient771"
       gradientUnits="userSpaceOnUse"
       x1="90.519241"
       y1="148.04422"
       x2="91.921127"
       y2="148.27808" /><linearGradient
       inkscape:collect="always"
       xlink:href="#linearGradient110"
       id="linearGradient772"
       gradientUnits="userSpaceOnUse"
       x1="96.597839"
       y1="163.32439"
       x2="97.737961"
       y2="163.12561" /><linearGradient
       inkscape:collect="always"
       xlink:href="#linearGradient114"
       id="linearGradient773"
       gradientUnits="userSpaceOnUse"
       x1="90.48349"
       y1="163.55695"
       x2="91.094521"
       y2="163.55695" /><linearGradient
       inkscape:collect="always"
       xlink:href="#linearGradient83"
       id="linearGradient774"
       gradientUnits="userSpaceOnUse"
       x1="91.966858"
       y1="163.2926"
       x2="92.314308"
       y2="163.25752" /><linearGradient
       inkscape:collect="always"
       xlink:href="#linearGradient120"
       id="linearGradient775"
       gradientUnits="userSpaceOnUse"
       x1="87.468773"
       y1="159.84271"
       x2="87.577614"
       y2="159.94194" /><linearGradient
       inkscape:collect="always"
       xlink:href="#linearGradient124"
       id="linearGradient776"
       gradientUnits="userSpaceOnUse"
       x1="86.64669"
       y1="158.70758"
       x2="86.843506"
       y2="158.80679" /><linearGradient
       inkscape:collect="always"
       xlink:href="#linearGradient128"
       id="linearGradient777"
       gradientUnits="userSpaceOnUse"
       x1="83.777451"
       y1="156.85063"
       x2="83.989182"
       y2="156.85648" /><linearGradient
       inkscape:collect="always"
       xlink:href="#linearGradient132"
       id="linearGradient778"
       gradientUnits="userSpaceOnUse"
       x1="82.989868"
       y1="157.05716"
       x2="83.177528"
       y2="157.05716" /><linearGradient
       inkscape:collect="always"
       xlink:href="#linearGradient99"
       id="linearGradient779"
       gradientUnits="userSpaceOnUse"
       x1="92.651642"
       y1="157.41179"
       x2="97.736038"
       y2="149.6727" /><linearGradient
       inkscape:collect="always"
       xlink:href="#linearGradient90"
       id="linearGradient781"
       gradientUnits="userSpaceOnUse"
       x1="90.013596"
       y1="153.54594"
       x2="91.751823"
       y2="155.22974" /><linearGradient
       inkscape:collect="always"
       xlink:href="#linearGradient88"
       id="linearGradient782"
       gradientUnits="userSpaceOnUse"
       x1="90.82756"
       y1="151.94662"
       x2="94.429146"
       y2="153.25626" /><linearGradient
       inkscape:collect="always"
       xlink:href="#linearGradient85"
       id="linearGradient783"
       gradientUnits="userSpaceOnUse"
       x1="91.699692"
       y1="152.92258"
       x2="92.669289"
       y2="153.15643" /><linearGradient
       inkscape:collect="always"
       xlink:href="#linearGradient137"
       id="linearGradient784"
       gradientUnits="userSpaceOnUse"
       gradientTransform="translate(18.528858,-13.229166)"
       x1="60.757542"
       y1="162.88409"
       x2="68.755997"
       y2="162.88409" /><linearGradient
       inkscape:collect="always"
       xlink:href="#linearGradient140"
       id="linearGradient785"
       gradientUnits="userSpaceOnUse"
       gradientTransform="matrix(0.96150902,0,0,0.9405514,21.090737,-3.6332162)"
       x1="60.757542"
       y1="162.88409"
       x2="68.755997"
       y2="162.88409" /><radialGradient
       inkscape:collect="always"
       xlink:href="#linearGradient78"
       id="radialGradient785"
       gradientUnits="userSpaceOnUse"
       gradientTransform="matrix(1,0,0,1.08835,0,-13.246107)"
       cx="85.041504"
       cy="149.92769"
       fx="85.041504"
       fy="149.92769"
       r="2.0929379" /><linearGradient
       inkscape:collect="always"
       xlink:href="#linearGradient93"
       id="linearGradient786"
       gradientUnits="userSpaceOnUse"
       gradientTransform="translate(6.3844008,-14.382442)"
       x1="86.746429"
       y1="165.62172"
       x2="86.467697"
       y2="166.21806" /><linearGradient
       inkscape:collect="always"
       xlink:href="#linearGradient93"
       id="linearGradient787"
       gradientUnits="userSpaceOnUse"
       gradientTransform="translate(9.4087436,-16.998158)"
       x1="91.242615"
       y1="168.95331"
       x2="91.04377"
       y2="169.36673" /><linearGradient
       inkscape:collect="always"
       xlink:href="#linearGradient136"
       id="linearGradient788"
       gradientUnits="userSpaceOnUse"
       gradientTransform="translate(8.7477865,-15.436784)"
       x1="79.136337"
       y1="163.04852"
       x2="79.399734"
       y2="163.09813" /><linearGradient
       inkscape:collect="always"
       xlink:href="#linearGradient2-2"
       id="linearGradient789"
       gradientUnits="userSpaceOnUse"
       x1="81.932091"
       y1="157.54169"
       x2="85.269196"
       y2="160.00717" /><linearGradient
       inkscape:collect="always"
       xlink:href="#linearGradient2-2"
       id="linearGradient790"
       gradientUnits="userSpaceOnUse"
       x1="79.021706"
       y1="147.13632"
       x2="92.622688"
       y2="147.13632" /><radialGradient
       inkscape:collect="always"
       xlink:href="#linearGradient3862"
       id="radialGradient790"
       gradientUnits="userSpaceOnUse"
       gradientTransform="matrix(-0.37964642,0.93662462,-1.5936401,-0.64595756,-308.48193,-268.74406)"
       cx="-24.024137"
       cy="-173.80841"
       fx="-24.024137"
       fy="-173.80841"
       r="15.355734" /><linearGradient
       inkscape:collect="always"
       xlink:href="#linearGradient9-6"
       id="linearGradient791"
       gradientUnits="userSpaceOnUse"
       gradientTransform="translate(0.03522116,0.08805291)"
       x1="80.424004"
       y1="151.62003"
       x2="82.851585"
       y2="151.62003" /><linearGradient
       inkscape:collect="always"
       xlink:href="#linearGradient6-9"
       id="linearGradient792"
       gradientUnits="userSpaceOnUse"
       x1="81.607651"
       y1="144.74458"
       x2="90.43"
       y2="144.74458" /><linearGradient
       inkscape:collect="always"
       xlink:href="#linearGradient9-6"
       id="linearGradient793"
       gradientUnits="userSpaceOnUse"
       gradientTransform="translate(11.456357,-0.0996205)"
       x1="74.718704"
       y1="152.6855"
       x2="74.757339"
       y2="151.41754" /><linearGradient
       inkscape:collect="always"
       xlink:href="#linearGradient16-2"
       id="linearGradient794"
       gradientUnits="userSpaceOnUse"
       gradientTransform="translate(11.643083,-0.35825463)"
       x1="77.576317"
       y1="152.08273"
       x2="79.578659"
       y2="152.08273" /><linearGradient
       inkscape:collect="always"
       xlink:href="#linearGradient17-6"
       id="linearGradient795"
       gradientUnits="userSpaceOnUse"
       gradientTransform="translate(11.755218,-0.14943074)"
       x1="72.862228"
       y1="140.76376"
       x2="74.416512"
       y2="140.76376" /><linearGradient
       inkscape:collect="always"
       xlink:href="#linearGradient1884-6"
       id="linearGradient796"
       gradientUnits="userSpaceOnUse"
       x1="127.49465"
       y1="174.67155"
       x2="129.63937"
       y2="171.78342" /><linearGradient
       inkscape:collect="always"
       xlink:href="#linearGradient3715-9"
       id="linearGradient797"
       gradientUnits="userSpaceOnUse"
       gradientTransform="matrix(0.26458333,0,0,0.26458333,92.361973,274.82082)"
       x1="111.65858"
       y1="-397.98703"
       x2="124.69635"
       y2="-402.69839" /></defs><g
     inkscape:label="Layer 1"
     inkscape:groupmode="layer"
     id="layer1"
     transform="translate(-954.56323,194.13643)"><g
       id="g797"><g
         id="g679"
         inkscape:export-filename="..\..\Binary\Data\Sprites\Dino\LeftLeg.svg"
         inkscape:export-xdpi="96"
         inkscape:export-ydpi="96"
         transform="matrix(0.50471836,-0.0097506,0.0097506,0.50471836,899.23906,-27.503427)"
         inkscape:transform-center-x="-8.5048927"
         inkscape:transform-center-y="7.2692059"><path
           style="fill:url(#linearGradient758);fill-rule:evenodd;stroke:none;stroke-width:0.6;stroke-linecap:butt;stroke-linejoin:miter;stroke-dasharray:none;stroke-opacity:1"
           d="m 308.43088,-55.894872 7.57212,0.115037 c 0,0 -0.0503,-0.667516 -0.12409,-0.992744 -0.12297,-0.542152 -0.30401,-1.07312 -0.5274,-1.582187 -0.2232,-0.508625 -0.47971,-1.009027 -0.8066,-1.458094 -0.26695,-0.366726 -0.56342,-0.726561 -0.9307,-0.992744 -0.41581,-0.301352 -0.91088,-0.483211 -1.39605,-0.651489 -0.34125,-0.118361 -0.69781,-0.193147 -1.05479,-0.248186 -0.40996,-0.06321 -1.24093,-0.09307 -1.24093,-0.09307 z"
           id="path675"
           sodipodi:nodetypes="ccsssssscc" /><path
           style="fill:url(#linearGradient759);fill-rule:evenodd;stroke:none;stroke-width:0.7;stroke-linecap:butt;stroke-linejoin:miter;stroke-dasharray:none;stroke-opacity:1"
           d="m 276.6655,-56.059044 -6.48386,-0.09307 c 0,0 0.064,-0.520756 0.12409,-0.775582 0.0871,-0.369265 0.20677,-0.731057 0.34126,-1.085814 0.1887,-0.497772 0.38816,-0.995441 0.65148,-1.458094 0.21288,-0.374031 0.45267,-0.738538 0.74456,-1.054791 0.21912,-0.237403 0.48066,-0.43411 0.74456,-0.620465 0.26511,-0.187212 0.53195,-0.387324 0.83763,-0.496372 0.32509,-0.11597 1.02377,-0.155117 1.02377,-0.155117 l 2.57493,3.846885 z"
           id="path676"
           sodipodi:nodetypes="ccssssssccc" /><path
           style="fill:url(#linearGradient760);fill-rule:evenodd;stroke:none;stroke-width:0.6;stroke-linecap:butt;stroke-linejoin:miter;stroke-dasharray:none;stroke-opacity:1"
           d="m 256.1281,-118.38479 c -2.15109,0.17375 -4.29714,0.63707 -6.32875,1.36503 -1.44551,0.51795 -2.85484,1.20427 -4.09507,2.10958 -0.89774,0.6553 -1.75604,1.42328 -2.35777,2.35777 -0.57401,0.89143 -0.84867,1.95245 -1.11684,2.97823 -0.27522,1.05274 -0.53904,2.13913 -0.49637,3.22642 0.0566,1.44368 0.46535,2.87406 0.99274,4.21916 0.64238,1.63838 1.67516,3.097943 2.60596,4.591447 1.16511,1.869475 2.37167,3.720295 3.72279,5.460095 1.4201,1.828632 3.01555,3.515689 4.59144,5.211909 1.93119,2.078653 3.91424,4.110892 5.95647,6.080561 1.8125,1.7481 3.66148,3.461719 5.58419,5.087816 2.04709,1.731292 4.23422,3.290135 6.32875,4.963722 1.79169,1.431606 3.60323,2.840874 5.336,4.343258 0.55292,0.479404 1.26545,0.845217 1.61321,1.489117 0.0598,0.11069 0.009,0.258121 0.062,0.372279 0.14799,0.319606 0.46623,0.528636 0.68252,0.806605 0.10926,0.140414 0.31023,0.434325 0.31023,0.434325 0,0 -0.42069,0.369757 -0.68251,0.434326 -0.2418,0.05963 -0.49987,-0.01568 -0.74456,-0.06205 -0.63646,-0.120623 -1.23152,-0.407174 -1.8614,-0.558419 -0.44968,-0.107977 -0.90293,-0.229651 -1.36502,-0.248186 -0.20769,-0.0083 -0.45811,-0.06773 -0.62047,0.06205 -0.15326,0.122512 -0.16681,0.363165 -0.18614,0.558419 -0.0329,0.331868 0.0666,0.664245 0.1241,0.992745 0.11329,0.647453 0.23331,1.297644 0.43432,1.923442 0.30896,0.961855 0.75629,1.874472 1.17889,2.792094 0.19345,0.420061 0.62046,1.240931 0.62046,1.240931 l 32.45034,0.248186 c 0,0 0.44811,-0.811781 0.62047,-1.240931 0.33889,-0.843798 0.64079,-1.711889 0.8066,-2.605954 0.11339,-0.611417 0.20782,-1.245216 0.12409,-1.861396 -0.059,-0.434256 -0.16205,-0.897524 -0.43432,-1.240931 -0.16753,-0.211305 -0.43104,-0.336948 -0.68251,-0.434326 -0.45025,-0.174356 -0.94479,-0.225159 -1.42707,-0.248186 -1.07742,-0.05144 -2.15421,0.130487 -3.22642,0.248186 -0.72686,0.07979 -1.44396,0.23818 -2.17163,0.310233 -0.74208,0.07348 -1.48815,0.140561 -2.23368,0.124093 -0.83121,-0.01836 -1.65995,-0.122826 -2.48186,-0.248186 -0.70973,-0.108251 -1.43116,-0.199411 -2.10958,-0.434326 -0.52441,-0.181587 -1.02836,-0.435227 -1.48912,-0.744558 -0.36507,-0.245089 -0.72391,-0.520695 -0.99274,-0.868652 -0.42412,-0.548951 -0.52508,-1.298636 -0.9307,-1.861396 -0.46176,-0.640657 -1.08379,-1.151976 -1.67526,-1.675256 -0.62902,-0.5565 -1.26902,-1.112941 -1.98549,-1.551163 -0.54467,-0.333142 -1.12241,-0.634666 -1.7373,-0.806605 -0.36073,-0.100871 -1.11684,-0.124093 -1.11684,-0.124093 0,0 -3.93437,-7.776016 -5.77032,-11.726796 -1.4558,-3.132743 -2.8346,-6.301822 -4.15712,-9.493119 -0.9778,-2.359477 -1.87282,-4.752463 -2.7921,-7.135352 -0.56546,-1.465738 -1.1431,-2.927148 -1.67525,-4.405308 -0.36997,-1.02768 -0.63379,-2.09447 -1.05479,-3.10232 -0.57042,-1.36554 -1.18789,-2.72441 -1.98549,-3.97098 -0.85649,-1.33861 -1.81729,-2.6376 -2.97824,-3.72279 -1.08555,-1.01471 -2.32826,-1.88622 -3.66074,-2.54391 -0.97362,-0.48057 -2.0342,-0.79786 -3.10233,-0.99275 -0.79453,-0.14497 -1.61474,-0.18911 -2.41977,-0.12409 z"
           id="path677"
           sodipodi:nodetypes="ssssssssssssssssscsssssssssccssssssssssssssssscssssssssss" /><path
           style="fill:#8db754;fill-opacity:1;fill-rule:evenodd;stroke:none;stroke-width:1px;stroke-linecap:butt;stroke-linejoin:miter;stroke-opacity:1"
           d="m 309.38514,-62.059101 c 0,0 0.28964,1.010394 0.0329,2.566601 -0.24708,1.497632 -1.22846,2.939526 -1.22846,2.939526 0,0 0.78005,-1.967597 1.02006,-2.994368 0.17693,-0.756913 0.1755,-2.511759 0.1755,-2.511759 z"
           id="path678"
           sodipodi:nodetypes="cscsc" /><path
           style="fill:#8db754;fill-opacity:1;fill-rule:evenodd;stroke:none;stroke-width:0.4;stroke-linecap:butt;stroke-linejoin:miter;stroke-dasharray:none;stroke-opacity:1"
           d="m 276.58651,-67.010926 c 0,0 2.16286,1.073977 3.57569,1.009091 1.41283,-0.06489 4.45317,-1.711068 4.45317,-1.711068 0,0 -1.7545,1.424326 -2.76403,1.908499 -0.46101,0.221099 -1.01961,0.196311 -1.46977,0.438735 -0.26048,0.140278 -0.68004,0.570356 -0.68004,0.570356 0,0 0.32885,0.858334 0.63617,1.184585 0.35343,0.3752 0.86114,0.56958 1.3162,0.81166 0.37559,0.199805 0.8128,0.284408 1.16265,0.526483 0.13606,0.09415 0.35099,0.350988 0.35099,0.350988 0,0 -0.47015,-0.0089 -0.70198,-0.04387 -0.43142,-0.06504 -0.8489,-0.201961 -1.27233,-0.307114 -0.34425,-0.08549 -1.03103,-0.263241 -1.03103,-0.263241 0,0 -0.45629,0.370869 -0.72391,0.482608 -0.23423,0.0978 -0.49228,0.165045 -0.74585,0.153558 -0.32815,-0.01487 -0.63476,-0.172412 -0.94328,-0.285178 -0.38146,-0.139427 -0.73993,-0.336205 -1.11877,-0.482609 -0.25236,-0.09753 -0.50918,-0.183733 -0.76779,-0.263241 -0.15938,-0.049 -0.48261,-0.131621 -0.48261,-0.131621 l -0.10968,0.131621 c 0,0 0.10557,0.276727 0.15355,0.416798 0.10192,0.297541 0.17393,0.60523 0.28518,0.899408 0.1216,0.321529 0.28047,0.627714 0.4168,0.94328 0.14165,0.327891 0.27653,0.65867 0.4168,0.987155 0.13763,0.3223 0.4168,0.965217 0.4168,0.965217 l 0.46067,0.943281 c 0,0 -1.74905,-2.698528 -2.10593,-3.707313 -0.35688,-1.008785 -0.35099,-2.127866 -0.35099,-2.127866 0,0 0.51343,0.01202 0.76779,0.04387 0.26609,0.03332 0.53109,0.08267 0.78972,0.153557 0.31451,0.08621 0.61085,0.229361 0.92135,0.329051 0.20274,0.06509 0.40775,0.123468 0.61423,0.175495 0.23226,0.05852 0.46311,0.17134 0.70197,0.153557 0.16387,-0.0122 0.32274,-0.08617 0.46067,-0.175494 0.1302,-0.08432 0.2697,-0.185742 0.32906,-0.329052 0.0336,-0.08107 0.0377,-0.184011 0,-0.263241 -0.0648,-0.136115 -0.24571,-0.177291 -0.35099,-0.285178 -0.14199,-0.145501 -0.26047,-0.313245 -0.37293,-0.482609 -0.10687,-0.160937 -0.21125,-0.326063 -0.28518,-0.504545 -0.0523,-0.126206 -0.0748,-0.262777 -0.10968,-0.394862 -0.0231,-0.08745 -0.0212,-0.184533 -0.0658,-0.263241 -0.14266,-0.251969 -0.39716,-0.422604 -0.61423,-0.614229 -0.18751,-0.165528 -0.39806,-0.303081 -0.59229,-0.460672 -0.1934,-0.156919 -0.57037,-0.482609 -0.57037,-0.482609 z"
           id="path679"
           sodipodi:nodetypes="czcsscssscsscsssssccsssscczcsssssssssssssssc" /></g><g
         id="g684"
         inkscape:export-filename="..\..\Binary\Data\Sprites\Dino\LeftArm.svg"
         inkscape:export-xdpi="96"
         inkscape:export-ydpi="96"
         transform="matrix(0.48912115,-0.12488476,0.12488476,0.48912115,890.92869,25.801152)"
         inkscape:transform-center-x="-9.1291142"
         inkscape:transform-center-y="2.3160882"><path
           style="fill:url(#linearGradient761);fill-rule:evenodd;stroke:none;stroke-width:1px;stroke-linecap:butt;stroke-linejoin:miter;stroke-opacity:1"
           d="m 398.83356,-165.10263 0.30711,-4.34348 2.14981,-0.6581 c 0,0 0.26462,0.13239 0.39486,0.57035 0.071,0.23871 0.0484,0.49684 0.0439,0.74585 -0.006,0.30846 -0.022,0.61994 -0.0878,0.92135 -0.0759,0.34794 -0.1943,0.68928 -0.35098,1.00909 -0.15348,0.31327 -0.33366,0.62121 -0.57036,0.87747 -0.16275,0.1762 -0.36709,0.3114 -0.57036,0.43874 -0.22169,0.13889 -0.45226,0.27298 -0.70197,0.35098 -0.19741,0.0617 -0.61421,0.0877 -0.61421,0.0877 z"
           id="path680"
           sodipodi:nodetypes="cccssssssscc" /><path
           style="fill:url(#linearGradient762);fill-rule:evenodd;stroke:none;stroke-width:0.697701px;stroke-linecap:butt;stroke-linejoin:miter;stroke-opacity:1"
           d="m 393.93659,-169.12121 1.1823,-2.79852 1.56782,0.0503 c 0,0 0.14485,0.14712 0.13209,0.46562 -0.007,0.17361 -0.0801,0.33895 -0.13925,0.50233 -0.0734,0.20237 -0.15438,0.40434 -0.26579,0.5885 -0.12862,0.2126 -0.28373,0.41129 -0.4593,0.58711 -0.17198,0.17223 -0.36039,0.33491 -0.57446,0.45072 -0.14719,0.0796 -0.3126,0.12281 -0.47553,0.16105 -0.17768,0.0417 -0.36016,0.0782 -0.54263,0.0734 -0.14423,-0.004 -0.42531,-0.0806 -0.42531,-0.0806 z"
           id="path681"
           sodipodi:nodetypes="cccssssssscc" /><path
           style="fill:url(#linearGradient763);fill-rule:evenodd;stroke:none;stroke-width:1px;stroke-linecap:butt;stroke-linejoin:miter;stroke-opacity:1"
           d="m 396.75343,-176.15844 -1.41796,2.53975 -0.33178,0.86245 -0.15156,0.60976 0.12662,0.41313 0.90531,0.55187 0.84992,0.27996 0.57023,-0.32852 0.40823,-0.67867 c 0,0 0.34134,-0.89841 0.36777,-1.11618 0.0264,-0.21776 0.82297,-1.54668 0.82297,-1.54668 l 0.36986,-1.59034 -0.15432,-0.54908 z"
           id="path682"
           sodipodi:nodetypes="cccccccccscccc" /><path
           style="fill:url(#linearGradient764);fill-rule:evenodd;stroke:none;stroke-width:1px;stroke-linecap:butt;stroke-linejoin:miter;stroke-opacity:1"
           d="m 362.59995,-229.69627 c 0.91821,-0.26243 1.92276,0.0372 2.85414,0.24819 0.68937,0.15615 1.44393,0.29033 1.98549,0.74456 0.80986,0.67927 1.09551,1.80848 1.61321,2.73004 0.34441,0.61308 0.73678,1.20645 0.99275,1.8614 0.3579,0.91577 0.54196,1.89202 0.74456,2.85414 0.26765,1.27099 0.55717,2.54956 0.62046,3.84689 0.0969,1.987 -0.0902,3.98719 -0.37228,5.95646 -0.18637,1.3013 -0.51558,2.58061 -0.86865,3.84689 -0.5621,2.01599 -1.14684,4.03896 -1.98549,5.95647 -0.37834,0.86504 -0.88382,1.66953 -1.36502,2.48186 -0.27487,0.46402 -1.12818,0.89225 -0.86865,1.36502 0.47772,0.87024 2.0034,-0.18773 2.97823,0 1.09367,0.21062 2.11662,0.72242 3.10233,1.24093 0.92395,0.48603 1.79859,1.07542 2.60595,1.7373 0.99526,0.81592 1.80635,1.83392 2.73005,2.73005 0.69309,0.6724 1.41649,1.31309 2.10958,1.98549 0.75575,0.7332 1.50303,1.47547 2.23368,2.23368 0.54836,0.56905 1.13813,1.24247 1.79935,1.67525 0.73337,0.48001 1.48033,0.60918 2.29572,0.9307 1.05103,0.41443 2.03791,0.9863 3.10233,1.36503 1.17237,0.41714 2.44974,0.51487 3.59869,0.99274 0.61584,0.25614 1.11429,0.75459 1.73731,0.99274 0.55321,0.21147 1.1609,0.50835 1.7373,0.37228 0.25778,-0.0609 0.37054,-0.4087 0.62047,-0.49637 0.39033,-0.13692 0.84011,-0.10221 1.24093,0 0.50222,0.12806 1.00127,0.37536 1.36502,0.74456 0.62332,0.63266 0.89253,1.54083 1.24093,2.35777 0.30788,0.72192 0.51261,1.4839 0.74456,2.23367 0.267,0.86306 0.56391,1.72079 0.74456,2.60596 0.13338,0.65351 0.14134,1.32712 0.24818,1.98549 0.0676,0.41639 0.33848,0.82887 0.24819,1.24093 -0.12042,0.54958 -0.53876,1.03271 -0.99274,1.36502 -0.52775,0.38631 -1.21001,0.56174 -1.8614,0.62047 -0.29131,0.0263 -0.60704,0.007 -0.86865,-0.1241 -0.36625,-0.18313 -0.72144,-0.48654 -0.86865,-0.86865 -0.29777,-0.77295 -0.006,-1.66387 0.12409,-2.48186 0.0743,-0.46574 0.30968,-0.89757 0.37228,-1.36502 0.0769,-0.57398 0.49262,-1.43286 0,-1.73731 -0.3934,-0.24313 -0.81367,0.44349 -1.24093,0.62047 -0.48339,0.20023 -0.96902,0.55346 -1.48912,0.49637 -0.29031,-0.0318 -0.9259,-0.58319 -0.99274,-0.74456 -0.15829,-0.38216 -0.18499,-0.87096 0,-1.24093 0.18499,-0.36997 1.15728,-0.36505 0.99274,-0.74456 -0.28403,-0.65514 -1.40323,0.26766 -2.10958,0.37228 -1.03029,0.15261 -2.06107,0.34859 -3.10233,0.37228 -1.11961,0.0255 -2.24346,-0.0791 -3.35051,-0.24818 -1.25965,-0.19242 -2.48234,-0.57705 -3.72279,-0.86866 -1.57246,-0.36967 -3.17767,-0.62262 -4.71554,-1.11683 -1.66008,-0.53348 -3.25213,-1.26418 -4.83963,-1.98549 -1.34734,-0.61219 -2.70102,-1.22569 -3.97098,-1.98549 -1.47727,-0.88382 -2.8903,-1.88388 -4.21916,-2.97823 -1.01627,-0.83693 -1.97456,-1.75046 -2.85414,-2.73005 -1.35977,-1.51439 -2.68169,-3.09078 -3.72279,-4.83963 -0.41678,-0.70012 -0.76753,-1.45064 -0.99275,-2.23368 -0.32339,-1.12438 -0.365,-2.31204 -0.49637,-3.4746 -0.11185,-0.98989 -0.21955,-1.98246 -0.24819,-2.97824 -0.0464,-1.61307 0.0518,-3.22751 0.1241,-4.83963 0.14487,-3.22979 0.19339,-6.47455 0.62046,-9.67926 0.30112,-2.25957 0.7843,-4.49669 1.36502,-6.70102 0.44321,-1.68236 0.87782,-3.38702 1.61321,-4.96372 0.16495,-0.35366 0.35649,-0.70535 0.62047,-0.99275 0.27981,-0.30464 0.59502,-0.63089 0.99274,-0.74456 z"
           id="path683"
           sodipodi:nodetypes="sssssssssssssssssssssssssssssssssssssssssssssssssssssssssssssss" /><path
           style="fill:none;fill-rule:evenodd;stroke:#6b9a2a;stroke-width:0.3;stroke-linecap:butt;stroke-linejoin:miter;stroke-dasharray:none;stroke-opacity:1"
           d="m 401.85956,-170.55833 c 0,0 -1.11391,1.06117 -1.77688,1.18458 -0.66297,0.12341 -1.86463,-0.41679 -1.86463,-0.41679"
           id="path684"
           sodipodi:nodetypes="czc" /></g><g
         id="g698"
         inkscape:export-filename="..\..\Binary\Data\Sprites\Dino\Tail.svg"
         inkscape:export-xdpi="96"
         inkscape:export-ydpi="96"
         transform="matrix(1.9033097,-0.1330277,0.1330277,1.9033097,822.37758,-380.71341)"
         inkscape:transform-center-x="9.3266183"
         inkscape:transform-center-y="-12.762666"><circle
           id="circle684"
           style="fill:#cde2b0;stroke:#000000;stroke-width:0.264583"
           cx="58.255802"
           cy="162.0878"
           r="0.0018619228" /><circle
           id="circle685"
           style="fill:#cde2b0;stroke:#000000;stroke-width:0.264583"
           cx="61.989246"
           cy="160.74939"
           r="0.0018619228" /><path
           style="fill:url(#linearGradient765);fill-rule:evenodd;stroke:none;stroke-width:0.264583px;stroke-linecap:butt;stroke-linejoin:miter;stroke-opacity:1"
           d="m 71.287633,114.92665 c -0.176104,0 -1.286217,0.29631 -1.901941,0.52832 -0.707575,0.26662 -1.396874,0.59314 -2.04283,0.98619 -0.551628,0.33565 -1.07188,0.728 -1.54973,1.1623 -0.528909,0.4807 -0.995988,1.02813 -1.444067,1.58495 -0.432954,0.53802 -0.851423,1.09301 -1.19752,1.69062 -0.350123,0.60456 -0.745509,1.17564 -0.986191,1.8315 -0.197238,0.53747 -0.287542,1.15699 -0.352212,1.72584 -0.06106,0.53711 -0.02772,1.08859 0.07044,1.62017 0.114608,0.62066 0.319366,1.23034 0.59876,1.79628 0.1946,0.39418 0.448186,0.76277 0.739645,1.09186 0.319997,0.36131 1.091856,0.95097 1.091856,0.95097 0,0 -0.476297,-0.5906 -0.669202,-0.91575 -0.225098,-0.37942 -0.425342,-0.77856 -0.563539,-1.19752 -0.13127,-0.39796 -0.228379,-0.81408 -0.246547,-1.23274 -0.01844,-0.42486 0.03322,-0.85657 0.140883,-1.26797 0.106543,-0.40714 0.241271,-0.80014 0.422657,-1.1799 0.172042,-0.3602 0.329841,-0.73862 0.545927,-1.07425 0.240248,-0.37316 0.589833,-0.70217 0.898139,-1.02141 0.359228,-0.37197 0.779227,-0.68217 1.19752,-0.9862 0.529527,-0.38488 1.076723,-0.75057 1.655395,-1.05663 0.395191,-0.20902 0.811116,-0.37967 1.232741,-0.52832 0.574912,-0.20269 1.158769,-0.39898 1.761056,-0.49309 0.62681,-0.0979 1.271334,-0.13978 1.901944,-0.0704 0.506671,0.0557 1.01865,0.16919 1.479288,0.38744 0.57723,0.2735 1.115438,0.65869 1.549731,1.12707 0.319,0.34404 0.553218,0.76697 0.739645,1.19752 0.178801,0.41293 0.227634,0.8708 0.352211,1.30319 0.16656,0.57811 0.528317,1.72583 0.528317,1.72583 l 1.479291,-6.23414 z"
           id="path685"
           sodipodi:nodetypes="csssssssssscssssssssssssssssccc" /><path
           style="fill:url(#linearGradient766);fill-rule:evenodd;stroke:none;stroke-width:0.264583px;stroke-linecap:butt;stroke-linejoin:miter;stroke-opacity:1"
           d="m 90.311335,161.4908 c 0.683539,0.0178 1.268727,-0.12092 1.897669,-0.3892 0.600097,-0.25597 1.190445,-0.5673 1.690616,-0.98619 0.47252,-0.39573 0.865726,-0.88944 1.19752,-1.40885 0.542946,-0.84997 0.922755,-1.79959 1.26796,-2.74725 0.366531,-1.00621 0.649408,-2.04664 0.84531,-3.09946 0.21157,-1.13702 0.273872,-2.2978 0.35221,-3.45168 0.09389,-1.38298 0.203567,-2.77136 0.140886,-4.1561 -0.0428,-0.94557 -0.07792,-1.91176 -0.352211,-2.81769 -0.289085,-0.95478 -0.704729,-1.90633 -1.338405,-2.67681 -0.414685,-0.50421 -0.985258,-0.86956 -1.549731,-1.19752 -0.52787,-0.3067 -1.096742,-0.56291 -1.690616,-0.70442 -0.938997,-0.22374 -1.925965,-0.28881 -2.888136,-0.21133 -0.505245,0.0407 -0.982456,0.25178 -1.479288,0.35221 -0.699983,0.14149 -1.401563,0.29331 -2.11327,0.35221 -0.444615,0.0368 -0.898031,0.0715 -1.338405,0 -0.36647,-0.0595 -0.75545,-0.13513 -1.056635,-0.35221 -0.190484,-0.13729 -0.313678,-0.35554 -0.422653,-0.56353 -0.103385,-0.19732 -0.169203,-0.41525 -0.211328,-0.63399 -0.07562,-0.39265 -0.07465,-0.79768 -0.07044,-1.19752 0.0062,-0.58886 0.07897,-1.17542 0.140883,-1.76105 0.09462,-0.89497 0.15416,-1.82797 0.202782,-2.72662 0.05583,-1.03191 0.104321,-2.01654 0.07899,-3.04965 -0.02188,-0.89231 0.0045,-1.78739 -0.07044,-2.67681 -0.05579,-0.66179 -0.122771,-1.32757 -0.281771,-1.97239 -0.268481,-1.08882 -0.571633,-2.19568 -1.127077,-3.1699 -0.454164,-0.79658 -1.122311,-1.45539 -1.761056,-2.11327 -0.56779,-0.5848 -1.159144,-1.15941 -1.831502,-1.62018 -0.632388,-0.43338 -1.336571,-0.75841 -2.042827,-1.05663 -0.684043,-0.28884 -1.378791,-0.59539 -2.113269,-0.70442 -0.859685,-0.12762 -1.740359,-0.003 -2.606368,0.0704 -0.496327,0.042 -1.391235,0.31699 -1.391235,0.31699 0,0 1.290863,0.17791 1.972384,0.40504 0.719227,0.2397 1.246286,0.37022 1.743448,0.75726 0.709412,0.55228 1.268294,1.29086 1.761059,2.04283 0.385665,0.58853 0.736458,1.22153 0.915749,1.90194 0.179889,0.68268 0.117392,1.40767 0.140886,2.11327 0.02501,0.75097 0.04669,1.50422 0,2.25415 -0.07058,1.13365 -0.204756,2.26648 -0.422654,3.38123 -0.261144,1.33599 -0.660965,2.64226 -1.056634,3.94477 -0.338849,1.11546 -0.80246,2.19111 -1.127078,3.31079 -0.363155,1.25261 -0.747991,2.51054 -0.915752,3.80389 -0.138971,1.0714 -0.110472,2.16072 -0.07044,3.24035 0.04545,1.22579 0.129575,2.45674 0.352211,3.663 0.128209,0.69465 0.327894,1.37692 0.563539,2.04283 0.333252,0.94174 0.718998,1.87035 1.19752,2.74725 0.648865,1.18906 1.376584,2.34936 2.254154,3.38123 0.893381,1.05046 1.945456,1.96476 3.029019,2.81769 1.437955,1.13189 2.93685,2.22091 4.578752,3.02902 0.779491,0.38365 1.693465,0.77522 2.51529,1.057 0.821828,0.28178 1.621885,0.43673 2.490384,0.45932 z"
           id="path686"
           sodipodi:nodetypes="ssssssssssssssssssssssssssssssscsssssssssssssssssss" /><path
           style="fill:url(#linearGradient767);fill-rule:evenodd;stroke:none;stroke-width:0.264583px;stroke-linecap:butt;stroke-linejoin:miter;stroke-opacity:1"
           d="m 73.569733,140.31547 c 0,0 -0.09386,1.89367 -0.04981,2.83918 0.04898,1.05131 0.298862,2.9388 0.348673,3.13805 0.04981,0.19924 0.704491,2.57225 1.245256,3.78557 0.529842,1.18882 1.151753,2.35338 1.9426,3.3871 0.741907,0.96975 1.684364,1.77134 2.590133,2.59013 0.779083,0.70427 2.440702,1.99241 2.440702,1.99241 l 1.145635,0.19924 -2.639944,-5.57874 -1.544116,-0.79697 -0.747154,-0.19924 -0.796965,-1.19544 -1.145635,-0.49811 -0.348673,-1.14563 -0.946394,-1.34488 0.04981,-0.54791 -0.846775,-1.69355 -0.04981,-0.79697 -0.09962,-1.9924 -0.398484,-0.99621 z"
           id="path687"
           sodipodi:nodetypes="csssssccccccccccccccc" /><path
           style="fill:#6da322;fill-opacity:1;fill-rule:evenodd;stroke:none;stroke-width:0.264583px;stroke-linecap:butt;stroke-linejoin:miter;stroke-opacity:1"
           d="m 85.026091,138.67173 c 0,0 -1.776303,0.85517 -2.615039,1.36978 -1.172159,0.71919 -3.36219,2.39089 -3.36219,2.39089 0,0 1.440016,-1.4457 3.187854,-2.56523 0.573148,-0.36711 1.768266,-1.02111 1.768266,-1.02111 l -1.569025,0.67244 -1.618832,0.62263 c 0,0 1.419705,-0.78438 2.166745,-1.09582 0.436156,-0.18184 0.875063,-0.3976 1.344877,-0.4483 0.232429,-0.0251 0.697344,0.0747 0.697344,0.0747 z"
           id="path697"
           sodipodi:nodetypes="cscscccssc" /><path
           style="fill:#6da322;fill-opacity:1;fill-rule:evenodd;stroke:none;stroke-width:0.264583px;stroke-linecap:butt;stroke-linejoin:miter;stroke-opacity:1"
           d="m 83.681214,138.41022 c -0.298861,0.0498 -2.486204,0.58455 -3.648599,1.09583 -0.950716,0.41817 -2.677303,1.59393 -2.677303,1.59393 0,0 1.441349,-1.18474 2.839185,-1.80562 1.771232,-0.78673 3.486717,-0.88414 3.486717,-0.88414 z"
           id="path698"
           sodipodi:nodetypes="cscsc" /></g><g
         id="g710"
         inkscape:export-filename="..\..\Binary\Data\Sprites\Dino\Body.svg"
         inkscape:export-xdpi="96"
         inkscape:export-ydpi="96"
         transform="matrix(0.4891545,-0.12475407,0.12475407,0.4891545,944.56524,5.1797863)"
         inkscape:transform-center-x="-3.4930492"
         inkscape:transform-center-y="-30.381839"><path
           style="fill:url(#radialGradient767);fill-rule:evenodd;stroke:none;stroke-width:0.999999px;stroke-linecap:butt;stroke-linejoin:miter;stroke-opacity:1"
           d="m 255.72997,-323.63523 c 0,0 -2.19534,-0.22073 -3.01214,0.37652 -1.45054,1.06066 -1.55969,3.23947 -2.2591,4.89474 -2.72163,6.44099 -5.16911,12.99734 -7.53036,19.57897 -2.14441,5.97713 -4.09928,12.0215 -6.02431,18.07287 -1.31192,4.12403 -2.67712,8.23646 -3.76519,12.42512 -0.74271,2.85917 -1.12014,5.80596 -1.88259,8.65992 -0.74786,2.79934 -1.49741,5.61879 -2.63563,8.2834 -1.2355,2.89236 -2.90694,5.58232 -4.51822,8.2834 -1.53371,2.5711 -3.48411,4.88973 -4.89474,7.53037 -0.90074,1.68616 -2.25911,5.27127 -2.25911,5.27127 l -38.40488,7.90688 c 0,0 -3.92959,2.29304 -5.64777,3.76517 -3.103,2.65863 -5.80545,5.78732 -8.28341,9.03643 -3.14639,4.12555 -6.0666,8.48712 -8.2834,13.17816 -2.20443,4.66488 -3.96665,9.60888 -4.89474,14.68422 -0.56485,3.08893 -0.87493,6.3126 -0.37652,9.41295 0.51061,3.1762 2.10279,6.08765 3.38868,9.03643 1.68265,3.85867 3.26456,7.82555 5.64777,11.29558 2.21295,3.22212 4.85078,6.2228 7.90689,8.65991 3.38355,2.69825 7.28402,4.77706 11.29554,6.40082 3.24496,1.31346 6.74605,1.8881 10.166,2.63562 3.48743,0.76225 6.99154,1.51684 10.54252,1.88258 4.37138,0.45022 8.7962,0.70855 13.17814,0.37644 4.19757,-0.31823 8.31872,-1.33262 12.42511,-2.25914 4.69238,-1.05872 9.50962,-1.87063 13.93118,-3.76516 3.77887,-1.61915 7.3359,-3.82802 10.54253,-6.40082 3.25406,-2.61086 6.06584,-5.76896 8.65992,-9.03643 2.1428,-2.69912 4.16303,-5.5499 5.64778,-8.65996 1.93221,-4.04742 3.21162,-8.41414 4.14168,-12.8016 0.99447,-4.69134 1.1822,-9.52309 1.50607,-14.3077 0.27968,-4.13417 0.88902,-8.31334 0.37644,-12.42513 -0.33902,-2.72005 -1.67301,-5.22916 -2.2591,-7.90688 -0.35301,-1.61261 -0.75303,-4.89472 -0.75303,-4.89472 0,0 3.16335,-2.17647 4.14172,-3.7652 1.22944,-1.99646 1.56589,-4.45417 1.88258,-6.77733 0.22035,-1.61662 0.32806,-3.29647 0,-4.89472 -0.192,-0.9363 -1.12955,-2.63565 -1.12955,-2.63565 0,0 2.49422,-8.73158 3.38865,-13.17812 1.02554,-5.09847 1.3245,-10.3214 2.2591,-15.43729 0.94681,-5.18249 2.48595,-10.24687 3.38869,-15.43722 0.67222,-3.86494 1.25453,-7.75721 1.50606,-11.67209 0.17688,-2.75546 0,-8.2834 0,-8.2834 0,0 -5.05474,-6.24801 -7.53037,-9.41295 -3.30969,-4.23123 -5.64914,-9.37893 -9.78946,-12.80164 -2.8119,-2.32451 -9.78951,-4.89462 -9.78951,-4.89462 z"
           id="path699"
           sodipodi:nodetypes="csssssssssccssssssssssssssssssssscssscsssscssc" /><path
           style="fill:#6da322;fill-opacity:1;fill-rule:evenodd;stroke:none;stroke-width:0.999999px;stroke-linecap:butt;stroke-linejoin:miter;stroke-opacity:1"
           d="m 246.0817,-293.37257 c 0,0 1.78711,5.08634 2.72976,7.53041 1.11266,2.88487 3.4828,8.42456 3.4828,8.42456 0,0 -2.8278,-4.93723 -3.85931,-7.57742 -1.05555,-2.70172 -2.35325,-8.37755 -2.35325,-8.37755 z"
           id="path700"
           sodipodi:nodetypes="cscsc" /><path
           style="fill:#6da322;fill-opacity:1;fill-rule:evenodd;stroke:none;stroke-width:0.999999px;stroke-linecap:butt;stroke-linejoin:miter;stroke-opacity:1"
           d="m 244.76389,-286.50109 c 0,0 1.27389,5.05206 2.07084,7.53037 0.8038,2.49971 2.72977,7.38917 2.72977,7.38917 0,0 -2.53009,-4.71439 -3.3416,-7.248 -0.794,-2.47896 -1.45901,-7.67154 -1.45901,-7.67154 z"
           id="path701"
           sodipodi:nodetypes="cscsc" /><path
           style="fill:url(#linearGradient768);fill-rule:evenodd;stroke:none;stroke-width:0.999999px;stroke-linecap:butt;stroke-linejoin:miter;stroke-opacity:1"
           d="m 253.3184,-300.92599 c 0,0 2.38416,11.89871 4.14168,17.69635 0.62219,2.05244 1.40187,4.05842 2.2591,6.0243 0.78524,1.80072 2.63565,3.76517 2.63565,5.27127 0,1.50607 1.16066,9.05053 1.88259,13.55464 0.44413,2.77103 0.9335,5.53606 1.50606,8.28344 0.44723,2.14575 0.19465,4.64451 1.50607,6.40078 1.21081,1.62156 3.24831,2.95604 5.27127,3.01217 1.12214,0.0302 3.01213,-1.50611 3.01213,-1.50611 0,0 1.12539,-10.81927 2.07088,-16.00199 1.09262,-5.98919 2.14239,-13.74164 3.38865,-18.63768 0.87568,-3.44016 1.58525,-5.89648 2.07084,-9.41295 0.25965,-1.88141 0.75307,-5.64779 0.75307,-5.64779 0,0 -4.51631,-0.46038 -6.77733,-0.37644 -2.90911,0.1081 -5.78306,1.57455 -8.65992,1.12955 -4.1062,-0.63515 -8.00387,-2.73577 -11.29557,-5.27127 -1.55316,-1.19633 -3.76517,-4.51827 -3.76517,-4.51827 z"
           id="path702"
           sodipodi:nodetypes="cssssssscssscsssc" /><path
           style="fill:#e0e2dd;fill-opacity:1;fill-rule:evenodd;stroke:none;stroke-width:1px;stroke-linecap:butt;stroke-linejoin:miter;stroke-opacity:1"
           d="m 239.1431,-279.65901 c 0,0 -1.92287,19.86971 -1.24093,29.78234 0.60586,8.80677 4.71554,26.05955 4.71554,26.05955 0,0 -5.81324,-17.13357 -6.45284,-26.05955 -0.71308,-9.95144 2.97823,-29.78234 2.97823,-29.78234 z"
           id="path703"
           sodipodi:nodetypes="cscsc" /><path
           style="fill:#e0e2dd;fill-opacity:1;fill-rule:evenodd;stroke:none;stroke-width:0.891939px;stroke-linecap:butt;stroke-linejoin:miter;stroke-opacity:1"
           d="m 272.90213,-264.97195 c 0,0 -2.17883,15.77422 -4.85259,23.22445 -2.37546,6.61906 -9.8549,18.83947 -9.8549,18.83947 0,0 9.10225,-11.69355 11.53457,-18.39569 2.71174,-7.47212 3.17292,-23.66823 3.17292,-23.66823 z"
           id="path710"
           sodipodi:nodetypes="cscsc" /></g><g
         id="g739"
         inkscape:transform-center-x="-6.1591261"
         inkscape:transform-center-y="8.5035578"
         transform="matrix(1.5346947,0.91879298,-0.91879298,1.5346947,271.4304,-664.3794)"><path
           fill="#8b9c73"
           d="m 525.60518,24.172588 c 0.37787,-0.654357 -2.3214,-1.299884 -5.76485,-0.360584 -3.44316,0.939346 -7.12648,-1.12496 -8.52015,-2.388686 -1.39344,-1.263399 -1.19002,-3.59274 -2.70188,-4.10597 -1.51185,-0.513229 -2.42273,0.386419 -4.0473,0.239686 -1.62457,-0.14673 -3.17291,-1.818877 -3.17291,-1.818877 0,0 -0.0362,-0.09801 -0.0933,-0.269006 -4e-5,2.77e-4 -4e-5,2.77e-4 -4e-5,2.77e-4 0.4645,1.665624 1.17912,4.360454 2.01887,5.563884 0.83999,1.203748 0.61573,5.493244 2.47718,8.052537 1.86172,2.559332 9.6182,6.131481 12.10787,5.494768 2.4894,-0.636759 7.19557,-3.312745 7.37541,-4.97323 0.17955,-1.660531 -0.17596,-4.805819 -0.17596,-4.805819 0.35752,-0.355284 0.49701,-0.62898 0.49701,-0.62898 z"
           id="path711"
           style="fill:url(#linearGradient769);stroke:none;stroke-width:0.282222;stroke-opacity:1"
           inkscape:export-filename="..\..\Binary\Data\Sprites\Dino\Jaw.svg"
           inkscape:export-xdpi="96"
           inkscape:export-ydpi="96" /><g
           id="g738"
           inkscape:export-filename="Head.svg"
           inkscape:export-xdpi="96"
           inkscape:export-ydpi="96"
           transform="matrix(1.0666597,-0.00385421,0.00385421,1.0666597,416.54661,-148.92751)"><path
             style="fill:url(#linearGradient770);fill-rule:evenodd;stroke:none;stroke-width:0.065;stroke-linecap:butt;stroke-linejoin:miter;stroke-dasharray:none;stroke-opacity:1"
             d="m 101.36385,152.10804 c 0,0 0.29108,-0.24013 0.43584,-0.36113 0.21246,-0.17758 0.40942,-0.37498 0.63508,-0.53545 0.12589,-0.0895 0.25522,-0.17881 0.39848,-0.2366 0.0672,-0.0271 0.1354,-0.0531 0.20547,-0.0716 0.0576,-0.0152 0.12784,-0.0155 0.18056,0.009 0.0323,0.0152 0.0473,0.0548 0.0623,0.0872 0.0287,0.0622 0.0459,0.1309 0.0498,0.19924 0.006,0.0961 -0.0135,0.19313 -0.0374,0.28641 -0.0397,0.15534 -0.1019,0.30526 -0.17434,0.4483 -0.0978,0.19312 -0.22006,0.37377 -0.34867,0.54791 -0.0875,0.11843 -0.18802,0.22671 -0.28641,0.33622 -0.0726,0.0808 -0.1422,0.16527 -0.22414,0.2366 -0.0539,0.0469 -0.17434,0.12452 -0.17434,0.12452 z"
             id="path712"
             sodipodi:nodetypes="csssssssssssscc" /><path
             style="fill:#ffffff;fill-opacity:1;fill-rule:evenodd;stroke:none;stroke-width:0.065;stroke-linecap:butt;stroke-linejoin:miter;stroke-dasharray:none;stroke-opacity:1"
             d="m 93.679488,150.40317 c 0,0 -0.003,-0.17038 -0.0088,-0.25535 -0.0079,-0.1148 -0.01948,-0.22942 -0.03522,-0.34341 -0.01874,-0.13575 -0.0404,-0.27133 -0.07044,-0.40504 -0.03138,-0.13965 -0.06383,-0.27998 -0.114469,-0.41385 -0.04505,-0.1191 -0.109303,-0.23005 -0.167299,-0.34341 -0.0622,-0.12158 -0.119243,-0.24654 -0.193717,-0.36102 -0.073,-0.1122 -0.158875,-0.21583 -0.246547,-0.31698 -0.07478,-0.0863 -0.152466,-0.17064 -0.237744,-0.24655 -0.05788,-0.0515 -0.120163,-0.0983 -0.184912,-0.14089 -0.04501,-0.0296 -0.140883,-0.0792 -0.140883,-0.0792 l -1.3296,3.07304 z"
             id="path713"
             sodipodi:nodetypes="csssssssssccc" /><path
             style="fill:url(#radialGradient770);fill-opacity:1;fill-rule:evenodd;stroke:none;stroke-width:0.065;stroke-linecap:butt;stroke-linejoin:miter;stroke-dasharray:none;stroke-opacity:1"
             d="m 93.622253,150.2887 c 0,0 -0.0285,-0.11857 -0.04843,-0.1761 -0.02971,-0.0858 -0.0646,-0.17001 -0.105664,-0.25095 -0.04259,-0.0839 -0.0895,-0.16633 -0.145286,-0.24215 -0.04312,-0.0586 -0.0936,-0.1117 -0.145288,-0.1629 -0.05542,-0.0549 -0.114075,-0.1068 -0.176106,-0.15409 -0.07833,-0.0597 -0.16008,-0.11572 -0.246547,-0.1629 -0.08306,-0.0453 -0.169877,-0.0849 -0.259757,-0.11447 -0.07,-0.023 -0.143125,-0.0358 -0.215728,-0.0484 -0.05828,-0.0102 -0.117105,-0.0177 -0.176107,-0.022 -0.06295,-0.005 -0.189315,-0.004 -0.189315,-0.004 l -0.647189,1.51451 z"
             id="path714"
             sodipodi:nodetypes="csssssssssccc" /><path
             style="fill:#b0f05b;fill-opacity:1;fill-rule:evenodd;stroke:none;stroke-width:0.065;stroke-linecap:butt;stroke-linejoin:miter;stroke-dasharray:none;stroke-opacity:1"
             d="m 92.85875,150.23393 c -0.01516,-0.0307 -0.0362,-0.0587 -0.05915,-0.0841 -0.02856,-0.0317 -0.06146,-0.0597 -0.09651,-0.084 -0.04655,-0.0323 -0.09783,-0.0575 -0.149429,-0.0809 -0.04636,-0.021 -0.09416,-0.0393 -0.143205,-0.0529 -0.04885,-0.0135 -0.09883,-0.0253 -0.149432,-0.028 -0.05301,-0.003 -0.106358,0.004 -0.158768,0.0125 -0.06013,0.01 -0.119935,0.0236 -0.177451,0.0436 -0.05174,0.018 -0.102204,0.0407 -0.149429,0.0685 -0.03774,0.0222 -0.07683,0.045 -0.105846,0.0778 -0.09546,0.10786 -0.211696,0.37669 -0.211696,0.37669 l 1.450724,-0.0903 c 0,0 -0.02525,-0.10911 -0.04981,-0.15889 z"
             id="path715"
             sodipodi:nodetypes="ssssssssssccs" /><path
             style="fill:url(#linearGradient771);fill-rule:evenodd;stroke:none;stroke-width:0.065;stroke-linecap:butt;stroke-linejoin:miter;stroke-dasharray:none;stroke-opacity:1"
             d="m 91.548608,150.16543 c 0,0 0.150629,-0.35654 0.220133,-0.53712 0.124395,-0.32319 0.242689,-0.64886 0.352211,-0.97739 0.08544,-0.25631 0.175107,-0.51206 0.237741,-0.77487 0.04419,-0.18541 0.07449,-0.37426 0.09686,-0.56354 0.01588,-0.13436 0.02948,-0.26978 0.0264,-0.40504 -0.0018,-0.0797 -0.01159,-0.15939 -0.0264,-0.23774 -0.01468,-0.0777 -0.02733,-0.15774 -0.06164,-0.22894 -0.03007,-0.0624 -0.07222,-0.12048 -0.123272,-0.1673 -0.04563,-0.0419 -0.101601,-0.0725 -0.158496,-0.0969 -0.07261,-0.0312 -0.150593,-0.0512 -0.228938,-0.0616 -0.07274,-0.01 -0.146781,-0.002 -0.220131,0 -0.108718,0.003 -0.217803,0.005 -0.325797,0.0176 -0.160061,0.0191 -0.31862,0.051 -0.475486,0.0881 -0.13379,0.0316 -0.266134,0.07 -0.396237,0.11447 -0.14339,0.049 -0.282616,0.10944 -0.422653,0.1673 -0.191986,0.0793 -0.381227,0.16514 -0.572344,0.24654 -0.16701,0.0711 -0.341168,0.12697 -0.501902,0.21133 -0.144911,0.0761 -0.41385,0.26416 -0.41385,0.26416 z"
             id="path716"
             sodipodi:nodetypes="cssssssssssssssssscc" /><path
             style="fill:url(#linearGradient772);fill-rule:evenodd;stroke:none;stroke-width:0.065;stroke-linecap:butt;stroke-linejoin:miter;stroke-dasharray:none;stroke-opacity:1"
             d="m 96.634926,162.42109 c 0,0 0.06795,0.41081 0.103354,0.61598 0.03355,0.19446 0.06179,0.39 0.103352,0.58291 0.03534,0.16402 0.07679,0.32683 0.124023,0.48783 0.02085,0.0711 0.04193,0.1424 0.07028,0.21084 0.01887,0.0456 0.03531,0.0938 0.06615,0.13229 0.01778,0.0222 0.03898,0.0455 0.06615,0.0538 0.01455,0.004 0.03111,0.001 0.04547,-0.004 0.01406,-0.005 0.02584,-0.0152 0.03721,-0.0248 0.02307,-0.0196 0.04544,-0.0409 0.06201,-0.0662 0.0362,-0.0552 0.05512,-0.12015 0.07855,-0.1819 0.03757,-0.099 0.07072,-0.1998 0.09922,-0.30179 0.04607,-0.16483 0.0803,-0.33279 0.115755,-0.50023 0.0378,-0.17847 0.07136,-0.35783 0.103352,-0.53743 0.03135,-0.17598 0.08682,-0.52917 0.08682,-0.52917 l 0.04961,-0.20671 z"
             id="path717"
             sodipodi:nodetypes="csssssssssssssccc" /><path
             style="fill:url(#linearGradient773);fill-rule:evenodd;stroke:none;stroke-width:0.065;stroke-linecap:butt;stroke-linejoin:miter;stroke-dasharray:none;stroke-opacity:1"
             d="m 90.527528,161.75569 0.02339,0.11109 c 0,0 -0.01109,0.25719 -0.0117,0.38587 -8.86e-4,0.18713 0.0058,0.37423 0.0117,0.56126 0.0073,0.23005 0.01401,0.46022 0.02923,0.68989 0.01721,0.25968 0.03486,0.51975 0.07016,0.77759 0.02043,0.14921 0.05226,0.29666 0.08185,0.44433 0.02351,0.11731 0.03688,0.23773 0.076,0.3508 0.02622,0.0758 0.05392,0.1547 0.105238,0.21632 0.02943,0.0353 0.06649,0.0706 0.111086,0.0818 0.02673,0.007 0.05522,-0.005 0.08185,-0.0117 0.03042,-0.008 0.06299,-0.0156 0.0877,-0.0351 0.03183,-0.0251 0.04866,-0.065 0.07016,-0.0994 0.04716,-0.0754 0.09012,-0.15366 0.128622,-0.23386 0.05294,-0.11028 0.100319,-0.2235 0.140316,-0.3391 0.05891,-0.17026 0.100538,-0.34605 0.146164,-0.52034 0.07111,-0.27161 0.139123,-0.54415 0.198781,-0.81851 0.04386,-0.20168 0.08482,-0.40416 0.11693,-0.60804 0.01986,-0.12607 0.04677,-0.38002 0.04677,-0.38002 z"
             id="path718"
             sodipodi:nodetypes="ccsssssssssssssssscc" /><path
             style="fill:url(#linearGradient774);fill-rule:evenodd;stroke:none;stroke-width:0.065;stroke-linecap:butt;stroke-linejoin:miter;stroke-dasharray:none;stroke-opacity:1"
             d="m 93.409864,162.61513 c 0,0 -0.076,0.30572 -0.122777,0.45603 -0.05897,0.18951 -0.123597,0.37758 -0.198782,0.56127 -0.0611,0.14927 -0.192936,0.4151 -0.204628,0.43848 -0.0117,0.0234 -0.137919,0.27785 -0.257247,0.36834 -0.0329,0.025 -0.07579,0.0374 -0.11693,0.0409 -0.03543,0.003 -0.0733,-0.002 -0.105238,-0.0175 -0.03097,-0.0152 -0.05558,-0.0424 -0.076,-0.0702 -0.04852,-0.066 -0.07635,-0.14548 -0.105238,-0.22216 -0.03502,-0.0929 -0.06086,-0.18942 -0.08185,-0.28649 -0.03081,-0.14251 -0.04647,-0.28794 -0.06431,-0.43264 -0.01222,-0.0991 -0.0221,-0.19856 -0.02923,-0.29817 -0.02465,-0.34441 -0.04677,-1.03483 -0.04677,-1.03483 z"
             id="path719"
             sodipodi:nodetypes="cssssssssssscc" /><path
             style="fill:url(#linearGradient775);fill-rule:evenodd;stroke:none;stroke-width:0.065;stroke-linecap:butt;stroke-linejoin:miter;stroke-dasharray:none;stroke-opacity:1"
             d="m 88.11584,160.16252 c 0,0 -0.15358,0.0653 -0.230939,0.0965 -0.09698,0.0392 -0.193346,0.0802 -0.292325,0.11401 -0.06537,0.0223 -0.131085,0.0448 -0.198784,0.0585 -0.04229,0.009 -0.08547,0.0147 -0.128622,0.0146 -0.03336,-7e-5 -0.06866,10e-4 -0.09939,-0.0117 -0.0185,-0.008 -0.03608,-0.021 -0.04677,-0.038 -0.01119,-0.0178 -0.01463,-0.0404 -0.01461,-0.0614 2.4e-5,-0.0251 0.0088,-0.0496 0.01754,-0.0731 0.01483,-0.0401 0.03647,-0.0774 0.05846,-0.11401 0.02811,-0.0468 0.06055,-0.091 0.09354,-0.13447 0.04349,-0.0574 0.08899,-0.11335 0.137395,-0.16663 0.05096,-0.0561 0.106609,-0.10776 0.16078,-0.16077 0.04532,-0.0443 0.137392,-0.13155 0.137392,-0.13155 z"
             id="path720"
             sodipodi:nodetypes="csssssssssssscc" /><path
             style="fill:url(#linearGradient776);fill-rule:evenodd;stroke:none;stroke-width:0.065;stroke-linecap:butt;stroke-linejoin:miter;stroke-dasharray:none;stroke-opacity:1"
             d="m 87.019616,157.93792 c 0,0 -0.152371,0.21549 -0.222168,0.3274 -0.09978,0.15998 -0.192078,0.32465 -0.280633,0.49111 -0.08269,0.15543 -0.164836,0.3116 -0.23386,0.47356 -0.03819,0.0896 -0.07976,0.17938 -0.09939,0.27479 -0.01337,0.065 -0.02356,0.13347 -0.01169,0.19878 0.0069,0.0378 0.01912,0.0786 0.04677,0.10524 0.03024,0.0291 0.07592,0.0378 0.11693,0.0468 0.07434,0.0163 0.152113,0.0173 0.228015,0.0117 0.09911,-0.007 0.195665,-0.0354 0.292325,-0.0585 0.10624,-0.0254 0.211861,-0.0539 0.315714,-0.0877 0.09499,-0.0309 0.189712,-0.0638 0.280633,-0.10524 0.123006,-0.056 0.356637,-0.19294 0.356637,-0.19294 z"
             id="path721"
             sodipodi:nodetypes="cssssssssssscc" /><path
             style="fill:url(#linearGradient777);fill-rule:evenodd;stroke:none;stroke-width:0.065;stroke-linecap:butt;stroke-linejoin:miter;stroke-dasharray:none;stroke-opacity:1"
             d="m 84.679067,156.2778 c 0,0 -0.135887,0.29448 -0.210839,0.43821 -0.06362,0.122 -0.12927,0.24322 -0.202573,0.35967 -0.04481,0.0712 -0.08957,0.14319 -0.144693,0.20671 -0.03834,0.0442 -0.07737,0.0909 -0.128158,0.11989 -0.0212,0.0121 -0.04604,0.0237 -0.07028,0.0207 -0.02697,-0.003 -0.0524,-0.0208 -0.07028,-0.0413 -0.03048,-0.0349 -0.04259,-0.0832 -0.05374,-0.12816 -0.01864,-0.0752 -0.01853,-0.15406 -0.02066,-0.23151 -0.0022,-0.0813 0.0054,-0.16261 0.0083,-0.24391 0.0027,-0.0744 0.0062,-0.1488 0.0083,-0.22324 0.0021,-0.0744 0.0041,-0.22325 0.0041,-0.22325 z"
             id="path722"
             sodipodi:nodetypes="csssssssssscc" /><path
             style="fill:url(#linearGradient778);fill-rule:evenodd;stroke:none;stroke-width:0.065;stroke-linecap:butt;stroke-linejoin:miter;stroke-dasharray:none;stroke-opacity:1"
             d="m 82.989866,156.50524 c 0,0 0.0026,0.31708 0.0088,0.47548 0.0058,0.14691 0.0062,0.29464 0.0264,0.44027 0.01319,0.0952 0.0222,0.19408 0.06163,0.28177 0.05339,0.11873 0.110522,0.12402 0.12328,0.11448 0.07381,-0.0552 0.09963,-0.0919 0.129016,-0.13793 0.05233,-0.0819 0.06748,-0.16147 0.108729,-0.2495 0.0548,-0.11698 0.09195,-0.24147 0.140883,-0.36102 0.03387,-0.0828 0.07452,-0.16273 0.105664,-0.24654 0.06435,-0.17316 0.167302,-0.52832 0.167302,-0.52832 z"
             id="path723"
             sodipodi:nodetypes="csssssssscc" /><path
             style="fill:url(#linearGradient779);fill-rule:evenodd;stroke:none;stroke-width:0.1;stroke-linecap:butt;stroke-linejoin:miter;stroke-dasharray:none;stroke-opacity:1"
             d="m 79.895635,146.8406 c 0,0 -0.640957,0.27108 -0.896585,0.49811 -0.275642,0.2448 -0.500097,0.55869 -0.647533,0.89658 -0.135435,0.31038 -0.151292,0.66098 -0.19924,0.99621 -0.05427,0.37946 -0.083,0.76267 -0.09962,1.14563 -0.01728,0.39811 -0.03287,0.79832 0,1.19545 0.04165,0.50325 0.133782,1.00267 0.24905,1.49431 0.09112,0.38863 0.230458,0.76436 0.348673,1.14563 0.09797,0.31598 0.09553,0.68544 0.29886,0.9464 0.563586,0.72331 1.169487,1.12599 2.341081,1.44449 1.171594,0.3185 3.550527,-0.59475 4.532734,-0.0996 0.982207,0.49515 1.363618,2.5083 1.842978,3.18786 0.47936,0.67956 0.521188,0.70649 0.846776,0.9962 0.402508,0.35815 0.871654,0.63901 1.344877,0.89659 0.476803,0.25952 0.987273,0.45359 1.494305,0.64753 0.490397,0.18758 0.979127,0.3968 1.494309,0.4981 0.489829,0.0963 0.995139,0.0934 1.494308,0.0996 0.398797,0.005 0.799623,-9.4e-4 1.195446,-0.0498 0.487992,-0.0602 0.962669,-0.20084 1.444495,-0.29887 0.414808,-0.0844 0.824011,-0.20734 1.245257,-0.24905 0.346975,-0.0344 0.712376,-0.0671 1.054822,-0.0484 0.314994,0.0172 0.625169,0.005 0.937582,0.0484 0.35912,0.0503 0.71592,0.14876 1.04602,0.29886 0.12615,0.0574 0.27285,0.11027 0.34883,0.22616 0.0196,0.0299 0.0219,0.0702 0.0176,0.10567 -0.005,0.0444 -0.0528,0.12327 -0.0528,0.12327 0,0 0.32032,0.0153 0.47548,-0.0176 0.2474,-0.0524 0.50369,-0.12794 0.70442,-0.28177 0.13978,-0.10712 0.26892,-0.25323 0.31699,-0.42265 0.0531,-0.18713 -0.0176,-0.51071 -0.0528,-0.58115 -0.0352,-0.0704 -0.28343,-0.47404 -0.45787,-0.68682 -0.13684,-0.16692 -0.30084,-0.30979 -0.45788,-0.45787 -0.15429,-0.14548 -0.47548,-0.42265 -0.47548,-0.42265 0,0 0.1139,-0.62292 0.1761,-0.93336 0.0778,-0.38834 0.18255,-0.77145 0.24655,-1.1623 0.14803,-0.90395 0.2491,-1.81616 0.31699,-2.72964 0.0266,-0.35729 0.0373,-0.71598 0.0352,-1.07425 -0.002,-0.26442 0.0149,-0.53284 -0.0352,-0.79248 -0.0471,-0.24427 -0.12082,-0.48975 -0.24655,-0.70442 -0.13452,-0.22968 -0.31936,-0.43387 -0.52831,-0.59876 -0.33396,-0.26354 -0.73443,-0.43503 -1.12708,-0.59876 -0.601497,-0.25082 -1.236806,-0.41407 -1.866723,-0.58115 -0.63328,-0.16797 -1.272621,-0.31903 -1.919552,-0.42265 -0.920501,-0.14744 -1.851754,-0.22863 -2.782472,-0.28177 -0.445448,-0.0254 -0.892649,-0.0369 -1.338406,-0.0176 -0.294696,0.0128 -0.880528,0.088 -0.880528,0.088 0,0 -0.03236,-0.22717 -0.07044,-0.3346 -0.08597,-0.2425 -0.214892,-0.46924 -0.352214,-0.68681 -0.216821,-0.34353 -0.450409,-0.68334 -0.739642,-0.96859 -0.322661,-0.31822 -0.701774,-0.5794 -1.091856,-0.81008 -0.266797,-0.15777 -0.552828,-0.28483 -0.84531,-0.38743 -0.205551,-0.0721 -0.633979,-0.1585 -0.633979,-0.1585 0,0 -0.03768,-0.31864 -0.07044,-0.47548 -0.07338,-0.35127 -0.130121,-0.7138 -0.281771,-1.03903 -0.208514,-0.44719 -0.476336,-0.88754 -0.845307,-1.21513 -0.308313,-0.27373 -0.706426,-0.43476 -1.091856,-0.58115 -0.327427,-0.12436 -0.67333,-0.20765 -1.021413,-0.24655 -0.408413,-0.0456 -0.82822,-0.0548 -1.232741,0.0176 -0.398409,0.0713 -0.793241,0.20429 -1.144688,0.40505 -0.412462,0.23561 -0.766311,0.56983 -1.091856,0.91575 -0.385416,0.40954 -0.738379,0.86021 -1.003803,1.35601 -0.12429,0.23217 -0.267788,0.74326 -0.267788,0.74326 z"
             id="path724"
             sodipodi:nodetypes="csssssssszzzssssssssssssscsssssscsssssssssssscssssscsssssssssc" /><path
             style="fill:url(#linearGradient781);fill-rule:evenodd;stroke:none;stroke-width:0.065;stroke-linecap:butt;stroke-linejoin:miter;stroke-dasharray:none;stroke-opacity:1"
             d="m 90.380692,152.76803 c -0.06726,0.0295 -0.108086,0.10119 -0.149432,0.16188 -0.08048,0.11814 -0.137479,0.25185 -0.186787,0.38603 -0.03994,0.10867 -0.06381,0.22282 -0.08717,0.33622 -0.02203,0.10694 -0.04408,0.21472 -0.04981,0.32376 -0.0046,0.0872 2.24e-4,0.1751 0.01246,0.26151 0.01256,0.0887 0.02817,0.17863 0.06226,0.2615 0.04252,0.10336 0.09981,0.20311 0.174334,0.28641 0.07695,0.086 0.169933,0.16172 0.273958,0.21169 0.127045,0.061 0.272616,0.0725 0.410935,0.0996 0.164763,0.0323 0.330542,0.0642 0.498102,0.0747 0.178184,0.0112 0.358951,0.0143 0.535461,-0.0125 0.119501,-0.0182 0.233949,-0.0615 0.34867,-0.0996 0.122192,-0.0406 0.361125,-0.13698 0.361125,-0.13698 l -1.979956,-2.1543 c 0,0 -0.155711,-0.0299 -0.22415,8e-5 z"
             id="path725"
             sodipodi:nodetypes="sssssssssssssccs" /><path
             style="fill:url(#linearGradient782);fill-rule:evenodd;stroke:none;stroke-width:0.065;stroke-linecap:butt;stroke-linejoin:miter;stroke-dasharray:none;stroke-opacity:1"
             d="m 94.900971,153.02953 c 0,0 -0.2231,-0.36228 -0.361124,-0.52301 -0.130086,-0.15148 -0.288488,-0.27619 -0.435841,-0.41093 -0.216992,-0.19842 -0.418134,-0.41804 -0.659984,-0.58527 -0.219914,-0.15206 -0.458142,-0.28327 -0.709795,-0.37358 -0.211478,-0.0759 -0.435444,-0.12903 -0.659988,-0.13698 -0.217656,-0.008 -0.438976,0.0245 -0.647533,0.0872 -0.136887,0.0412 -0.266577,0.10827 -0.38603,0.18679 -0.100828,0.0663 -0.194558,0.14574 -0.273954,0.2366 -0.075,0.0858 -0.138918,0.18296 -0.186788,0.2864 -0.0673,0.14541 -0.10604,0.30354 -0.13698,0.46075 -0.03222,0.16372 -0.05527,0.33133 -0.04981,0.4981 0.0083,0.25235 0.05752,0.50373 0.124526,0.74716 0.04848,0.17613 0.113972,0.34899 0.199242,0.51055 0.09619,0.18226 0.203925,0.36386 0.348671,0.51055 0.131841,0.13361 0.291348,0.2429 0.460745,0.32377 0.109081,0.0521 0.228578,0.0859 0.348673,0.0996 0.161052,0.0184 0.323799,-0.016 0.485648,-0.0249 0.07058,-0.004 0.211693,-0.0125 0.211693,-0.0125 z"
             id="path726"
             sodipodi:nodetypes="cssssssssssssssssscc" /><path
             style="fill:url(#linearGradient783);fill-rule:evenodd;stroke:none;stroke-width:0.065;stroke-linecap:butt;stroke-linejoin:miter;stroke-dasharray:none;stroke-opacity:1"
             d="m 93.655715,153.10424 c 0,0 -0.14004,-0.22299 -0.224145,-0.32376 -0.120363,-0.14422 -0.24377,-0.29194 -0.398483,-0.39848 -0.14232,-0.098 -0.306967,-0.16451 -0.473197,-0.2117 -0.120852,-0.0343 -0.248449,-0.061 -0.373576,-0.0498 -0.121595,0.0109 -0.244482,0.0485 -0.348673,0.11207 -0.07014,0.0428 -0.124452,0.10903 -0.174336,0.17434 -0.04063,0.0532 -0.07184,0.11344 -0.09962,0.17434 -0.0365,0.08 -0.06739,0.16335 -0.08717,0.24905 -0.01598,0.0692 -0.02578,0.14065 -0.0249,0.21169 0.0011,0.088 0.01359,0.17672 0.03736,0.2615 0.02561,0.0913 0.07352,0.17486 0.112072,0.26151 0.02416,0.0543 0.04389,0.11106 0.07471,0.16188 0.05984,0.0987 0.122566,0.20065 0.211694,0.27396 0.05018,0.0413 0.111515,0.0706 0.174336,0.0872 0.07636,0.0202 0.15765,0.0104 0.236598,0.0125 0.05809,0.002 0.174337,0 0.174337,0 z"
             id="path727"
             sodipodi:nodetypes="cssssssssssssssscc" /><path
             style="fill:#8cb059;fill-opacity:1;fill-rule:evenodd;stroke:none;stroke-width:0.065;stroke-linecap:butt;stroke-linejoin:miter;stroke-dasharray:none;stroke-opacity:1"
             d="m 101.51328,160.02787 c 0,0 -1.721101,-0.34287 -2.590132,-0.29886 -0.869031,0.044 -1.751679,0.43508 -2.552774,0.56036 -0.801095,0.12528 -2.241462,0.2117 -2.241462,0.2117 0,0 0.892243,-0.10089 1.332425,-0.18679 0.835926,-0.16313 1.640578,-0.46769 2.478059,-0.62263 0.546765,-0.10116 1.100167,-0.20399 1.656191,-0.19924 0.578203,0.005 1.228493,-0.0704 1.718453,0.2366 0.10145,0.0636 0.19924,0.29886 0.19924,0.29886 z"
             id="path728"
             sodipodi:nodetypes="czzcssssc" /><path
             style="fill:#81b637;fill-opacity:1;fill-rule:evenodd;stroke:none;stroke-width:0.065;stroke-linecap:butt;stroke-linejoin:miter;stroke-dasharray:none;stroke-opacity:1"
             d="m 79.529386,153.03595 c 0,0 0.791082,0.86748 1.356013,1.1623 0.564931,0.29482 1.972387,0.51071 1.972387,0.51071 0,0 -1.542583,-0.11197 -2.113269,-0.42266 -0.570686,-0.31069 -1.215131,-1.25035 -1.215131,-1.25035 z"
             id="path729"
             sodipodi:nodetypes="czczc" /><ellipse
             style="fill:url(#linearGradient784);fill-opacity:1;fill-rule:evenodd;stroke:none;stroke-width:0.1;stroke-dasharray:none;stroke-opacity:1"
             id="ellipse729"
             cx="83.285629"
             cy="149.65492"
             rx="3.9492254"
             ry="4.5280013" /><ellipse
             style="fill:url(#linearGradient785);fill-opacity:1;fill-rule:evenodd;stroke:none;stroke-width:0.0950972;stroke-dasharray:none;stroke-opacity:1"
             id="ellipse730"
             cx="83.354958"
             cy="149.56766"
             rx="3.7972159"
             ry="4.2588181" /><ellipse
             style="fill:#ffffff;fill-opacity:1;fill-rule:evenodd;stroke:none;stroke-width:0.0748797;stroke-dasharray:none;stroke-opacity:1"
             id="ellipse731"
             cx="83.535789"
             cy="149.39935"
             rx="3.8077512"
             ry="4.1599622" /><ellipse
             style="fill:url(#radialGradient785);fill-opacity:1;fill-rule:evenodd;stroke:none;stroke-width:0.0761586;stroke-dasharray:none;stroke-opacity:1"
             id="ellipse732"
             cx="85.041504"
             cy="149.92769"
             rx="2.0548587"
             ry="2.2397697" /><ellipse
             style="fill:#b0f05b;fill-opacity:1;fill-rule:evenodd;stroke:none;stroke-width:0.07568;stroke-dasharray:none;stroke-opacity:1"
             id="ellipse733"
             cx="85.340881"
             cy="149.99812"
             rx="1.0865161"
             ry="1.1657636" /><ellipse
             style="fill:#ffffff;fill-opacity:1;fill-rule:evenodd;stroke:none;stroke-width:0.0649999;stroke-dasharray:none;stroke-opacity:1"
             id="ellipse734"
             cx="84.451546"
             cy="149.38176"
             rx="0.48429099"
             ry="0.30818516" /><ellipse
             style="fill:#ffffff;fill-opacity:1;fill-rule:evenodd;stroke:none;stroke-width:0.0649999;stroke-dasharray:none;stroke-opacity:1"
             id="ellipse735"
             cx="84.19619"
             cy="150.09499"
             rx="0.24654813"
             ry="0.15849523" /><path
             style="fill:url(#linearGradient786);fill-rule:evenodd;stroke:none;stroke-width:0.065;stroke-linecap:butt;stroke-linejoin:miter;stroke-dasharray:none;stroke-opacity:1"
             d="m 94.62172,152.59765 c 0,0 -0.140389,-0.17342 -0.214974,-0.25632 -0.108859,-0.12099 -0.219643,-0.24075 -0.338998,-0.3514 -0.175841,-0.16302 -0.35675,-0.3225 -0.553971,-0.45888 -0.148741,-0.10285 -0.307934,-0.19115 -0.471289,-0.26872 -0.134773,-0.064 -0.275003,-0.11717 -0.417544,-0.16123 -0.114966,-0.0355 -0.232268,-0.0657 -0.351401,-0.0827 -0.07923,-0.0113 -0.159746,-0.0122 -0.239779,-0.0124 -0.08829,-2.1e-4 -0.176647,0.004 -0.264583,0.0124 -0.08308,0.007 -0.166114,0.0174 -0.248047,0.0331 -0.05023,0.01 -0.100105,0.0217 -0.148828,0.0372 -0.05778,0.0184 -0.169498,0.0661 -0.169498,0.0661 z"
             id="path735"
             sodipodi:nodetypes="csssssssssscc" /><path
             style="fill:url(#linearGradient787);fill-rule:evenodd;stroke:none;stroke-width:0.065;stroke-linecap:butt;stroke-linejoin:miter;stroke-dasharray:none;stroke-opacity:1"
             d="m 97.705162,151.04533 c 0,0 1.2957,0.30967 1.926497,0.5209 0.2873,0.0962 0.567081,0.21464 0.843361,0.33899 0.17983,0.0809 0.3566,0.16914 0.52917,0.26459 0.12987,0.0718 0.25922,0.14573 0.38034,0.23151 0.0959,0.0679 0.19126,0.13867 0.27285,0.22324 0.0601,0.0623 0.11196,0.13286 0.15709,0.2067 0.0399,0.0652 0.0692,0.13641 0.0992,0.20671 0.0277,0.065 0.0744,0.19844 0.0744,0.19844 0,0 -0.57966,-0.34455 -0.87643,-0.50436 -0.51873,-0.27933 -1.05216,-0.53048 -1.579232,-0.79375 -0.382621,-0.19112 -0.764603,-0.38357 -1.149284,-0.57051 -0.225085,-0.10938 -0.677992,-0.32246 -0.677992,-0.32246 z"
             id="path736"
             sodipodi:nodetypes="cssssssscsssc" /><path
             style="fill:#5fa300;fill-opacity:1;fill-rule:evenodd;stroke:none;stroke-width:0.065;stroke-linecap:butt;stroke-linejoin:miter;stroke-dasharray:none;stroke-opacity:1"
             d="m 90.721761,151.55078 c 0,0 -0.144253,0.28574 -0.190169,0.43821 -0.05004,0.16617 -0.08149,0.33934 -0.09095,0.51263 -0.009,0.16549 0.0084,0.33221 0.03307,0.4961 0.03031,0.20163 0.07713,0.40153 0.14056,0.59531 0.05494,0.16784 0.118625,0.33476 0.206706,0.48783 0.08247,0.14333 0.188457,0.27269 0.297656,0.39687 0.09396,0.10684 0.200207,0.20244 0.305925,0.29766 0.09596,0.0864 0.297656,0.24804 0.297656,0.24804 0,0 -0.229627,-0.0442 -0.330729,-0.0992 -0.149415,-0.0813 -0.271466,-0.20739 -0.388607,-0.33072 -0.112371,-0.11831 -0.215019,-0.24791 -0.297656,-0.38861 -0.101904,-0.1735 -0.179751,-0.36192 -0.239779,-0.55397 -0.0545,-0.17438 -0.08635,-0.35597 -0.107487,-0.53744 -0.0185,-0.15887 -0.0216,-0.31968 -0.01654,-0.47955 0.0045,-0.14116 0.0076,-0.28453 0.04134,-0.42168 0.03334,-0.13568 0.09182,-0.26507 0.157096,-0.38861 0.05107,-0.0967 0.181908,-0.27287 0.181908,-0.27287 z"
             id="path737"
             sodipodi:nodetypes="cssssssscssssssssc" /><path
             style="fill:url(#linearGradient788);fill-rule:evenodd;stroke:none;stroke-width:0.065;stroke-linecap:butt;stroke-linejoin:miter;stroke-dasharray:none;stroke-opacity:1"
             d="m 88.350093,147.05006 -0.413389,-0.0931 c 0,0 0.0068,0.15199 0.0058,0.22801 -9.81e-4,0.0761 -0.0088,0.15196 -0.01169,0.22801 -0.0031,0.0818 -0.0037,0.16371 -0.0058,0.24556 -0.0018,0.0682 -0.0014,0.13653 -0.0058,0.20463 -0.0025,0.0391 -0.0081,0.0779 -0.0117,0.11693 -0.0042,0.0448 -0.008,0.0896 -0.01169,0.13447 -0.0042,0.0506 -0.0117,0.15201 -0.0117,0.15201 0,0 0.0405,-0.0536 0.05846,-0.0819 0.02991,-0.0472 0.05747,-0.0959 0.08185,-0.14617 0.03776,-0.0778 0.06694,-0.15952 0.09939,-0.2397 0.02987,-0.0738 0.06025,-0.14743 0.0877,-0.22217 0.03336,-0.0908 0.06866,-0.18128 0.09354,-0.27479 0.01837,-0.069 0.03883,-0.18768 0.03883,-0.18768 z"
             id="path738"
             sodipodi:nodetypes="ccsssssscssssscc" /></g></g><g
         id="g753"
         inkscape:transform-center-x="1.1043717"
         inkscape:transform-center-y="10.876352"
         transform="matrix(1.7883347,0.03643508,-0.03643508,1.7883347,144.69212,-214.70359)"><g
           id="g742"
           inkscape:export-filename="..\..\Binary\Data\Sprites\Dino\RightThigh.svg"
           inkscape:export-xdpi="96"
           inkscape:export-ydpi="96"
           transform="matrix(0.28222223,0,0,0.28222223,484.04726,98.202281)"><g
             id="g741"
             inkscape:export-filename="RightThigh.svg"
             inkscape:export-xdpi="96"
             inkscape:export-ydpi="96"
             transform="matrix(3.7795276,0,0,3.7795276,-336.65384,-725.40654)"><path
               style="fill:url(#linearGradient789);fill-rule:evenodd;stroke:none;stroke-width:0.264583px;stroke-linecap:butt;stroke-linejoin:miter;stroke-opacity:1"
               d="m 82.544837,154.76044 c 0,0 -0.51533,1.57805 -0.672439,2.39089 -0.117261,0.60668 -0.304097,1.23404 -0.199242,1.84298 0.04221,0.24516 0.134585,0.51088 0.323768,0.67243 0.197734,0.16885 0.489891,0.18639 0.747152,0.22415 0.484609,0.0711 0.984745,0.0708 1.469403,0 0.574371,-0.0839 1.139228,-0.26006 1.668642,-0.4981 0.445438,-0.20028 0.898849,-0.42778 1.245257,-0.77206 0.243421,-0.24192 0.547912,-0.87168 0.547912,-0.87168 l 0.249052,-0.79696 z"
               id="path739"
               sodipodi:nodetypes="csssssssccc" /><path
               style="fill:none;fill-rule:evenodd;stroke:#5fa300;stroke-width:0.264583px;stroke-linecap:butt;stroke-linejoin:miter;stroke-opacity:1"
               d="m 87.666032,157.45019 c 0,0 -1.349139,0.1543 -2.017312,0.0747 -0.548048,-0.0653 -1.038852,-0.0772 -1.59393,-0.44829 -0.656923,-0.4392 -1.270161,-1.27016 -1.270161,-1.27016"
               id="path740"
               sodipodi:nodetypes="cssc" /><path
               style="fill:url(#linearGradient790);fill-rule:evenodd;stroke:none;stroke-width:0.264583px;stroke-linecap:butt;stroke-linejoin:miter;stroke-opacity:1"
               d="m 87.974153,157.25095 c 0.830161,-1.51655 1.696882,-4.31509 2.390891,-6.52515 0.684114,-2.17855 1.354247,-4.37472 1.743358,-6.62476 0.232848,-1.34645 0.471029,-2.7235 0.348673,-4.08444 -0.07393,-0.82236 -0.117483,-1.75781 -0.647533,-2.39089 -0.424346,-0.50683 -1.134576,-0.79022 -1.793169,-0.84678 -0.806693,-0.0693 -1.630299,0.25981 -2.341083,0.64754 -1.789867,0.97637 -3.310806,1.6196 -4.893855,2.72711 -1.012331,0.70823 -2.240912,1.51008 -2.976163,2.50296 -0.216707,0.29264 -0.345922,0.64675 -0.448291,0.99621 -0.127401,0.43491 -0.184757,0.89193 -0.199242,1.34488 -0.01917,0.59949 0.03605,1.20418 0.149431,1.79316 0.364379,1.89274 0.959682,3.74661 1.693548,5.52894 0.557046,1.35289 1.103208,2.76321 2.042221,3.8852 0.364498,0.43552 0.821272,0.82607 1.344877,1.04602 0.571533,0.24008 1.223073,0.2514 1.842979,0.24905 0.587015,-0.002 1.57708,0.0547 1.743358,-0.24905 z"
               id="path741"
               sodipodi:nodetypes="sssssssssssssssss" /></g><ellipse
             style="opacity:0.382353;fill:url(#radialGradient790);fill-rule:evenodd;stroke:none;stroke-width:0.293742;stroke-dasharray:none;stroke-opacity:1"
             id="ellipse741"
             cx="-12.836457"
             cy="-176.91078"
             rx="22.553131"
             ry="18.042505" /></g><g
           id="g752"
           inkscape:export-filename="..\..\Binary\Data\Sprites\Dino\RightFeet.svg"
           inkscape:export-xdpi="96"
           inkscape:export-ydpi="96"
           transform="matrix(1.0666667,0,0,1.0666667,385.8618,-84.926658)"
           inkscape:transform-center-x="5.6158113"
           inkscape:transform-center-y="27.026092"><path
             style="fill:url(#linearGradient791);fill-rule:evenodd;stroke:none;stroke-width:0.264583px;stroke-linecap:butt;stroke-linejoin:miter;stroke-opacity:1"
             d="m 80.607673,152.48323 h 2.042218 c 0,0 0.129598,-0.53093 0.09962,-0.79697 -0.02176,-0.19311 -0.05707,-0.41542 -0.199239,-0.54791 -0.176859,-0.16481 -0.456998,-0.22526 -0.697344,-0.19924 -0.243723,0.0264 -0.458388,0.19272 -0.647534,0.34867 -0.182073,0.15012 -0.344323,0.33607 -0.448294,0.54791 -0.0976,0.19886 -0.149427,0.64754 -0.149427,0.64754 z"
             id="path743"
             sodipodi:nodetypes="ccsssssc" /><path
             style="fill:url(#linearGradient792);fill-rule:evenodd;stroke:none;stroke-width:0.264583px;stroke-linecap:butt;stroke-linejoin:miter;stroke-opacity:1"
             d="m 90.142938,137.82395 c 0,0 -1.975737,-0.59988 -2.958579,-0.91575 -0.388803,-0.12496 -0.76077,-0.31288 -1.162298,-0.38743 -0.25421,-0.0472 -0.774864,-0.0352 -0.774864,-0.0352 0,0 -0.460704,0.2211 -0.59876,0.42265 -0.136774,0.19968 -0.176107,0.4931 -0.176107,0.70442 0,0.21133 -0.03339,1.03302 -0.03522,1.54973 -0.0027,0.75147 -0.0052,1.50377 0.03522,2.25416 0.04124,0.76526 0.124313,1.52796 0.211328,2.28938 0.0592,0.51799 0.119475,1.03653 0.211325,1.54973 0.05721,0.31964 0.211328,0.95097 0.211328,0.95097 0,0 -0.357496,0.25376 -0.563538,0.31699 -0.135152,0.0415 -0.288496,-0.009 -0.422654,0.0352 -0.105107,0.0349 -0.228078,0.0792 -0.28177,0.17611 -0.0626,0.11295 0,0.38743 0,0.38743 0,0 0.271317,0.51046 0.387434,0.77486 0.106089,0.24156 0.253449,0.47734 0.281768,0.73965 0.02549,0.23606 -0.01521,0.48489 -0.105664,0.70442 -0.08319,0.20192 -0.248328,0.35997 -0.387432,0.52832 -0.142873,0.17291 -0.283665,0.35181 -0.457875,0.4931 -0.106338,0.0862 -0.35221,0.21132 -0.35221,0.21132 0,0 -0.320281,-0.15169 -0.493099,-0.1761 -0.186363,-0.0263 -0.391984,-0.0422 -0.563539,0.0352 -0.105937,0.0478 -0.181387,0.15031 -0.246546,0.24655 -0.05013,0.074 -0.105664,0.24654 -0.105664,0.24654 0,0 0.297229,-0.03 0.422653,0.0352 0.162702,0.0846 0.289782,0.25021 0.352213,0.42265 0.06794,0.18767 0.03197,0.40175 0,0.59876 -0.02974,0.18324 -0.176106,0.52832 -0.176106,0.52832 0,0 0.537793,0.10227 0.810088,0.10566 0.22428,0.003 0.449291,-0.0263 0.6692,-0.0704 0.120176,-0.0241 0.234808,-0.0704 0.352213,-0.10567 0.117403,-0.0352 0.229883,-0.0979 0.352211,-0.10566 0.07127,-0.005 0.150579,-0.002 0.211328,0.0352 0.135843,0.0839 0.281768,0.38744 0.281768,0.38744 0,0 0.354296,-0.027 0.528317,0 0.267839,0.0416 0.504186,0.23245 0.774867,0.24654 0.347211,0.0181 0.68636,-0.11847 1.021413,-0.21132 0.239739,-0.0664 0.459768,-0.20147 0.704424,-0.24655 0.415816,-0.0766 1.26796,-0.0352 1.26796,-0.0352 0,0 -0.03485,-0.35182 -0.03522,-0.52832 -3.9e-4,-0.18821 -0.01035,-0.38093 0.03522,-0.56354 0.03434,-0.13764 0.07245,-0.29058 0.176107,-0.38743 0.0733,-0.0685 0.182047,-0.0948 0.281768,-0.10567 0.08253,-0.009 0.246549,0.0352 0.246549,0.0352 0,0 -0.169529,-0.21074 -0.28177,-0.28177 -0.294965,-0.18666 -0.63864,-0.31973 -0.986192,-0.35222 -0.22485,-0.021 -0.443386,0.10294 -0.6692,0.10567 -0.17765,0.002 -0.373919,0.0175 -0.52832,-0.0704 -0.246994,-0.1406 -0.386019,-0.42319 -0.528318,-0.66921 -0.126622,-0.21891 -0.281768,-0.70442 -0.281768,-0.70442 0,0 0.378382,-0.001 0.563539,-0.0352 0.157094,-0.0287 0.371169,-0.007 0.457875,-0.14088 0.0514,-0.0795 0.0088,-0.19801 -0.03522,-0.28178 -0.06582,-0.12512 -0.239165,-0.16374 -0.316989,-0.28176 -0.122628,-0.18597 -0.180431,-0.41338 -0.211328,-0.63398 -0.03749,-0.26767 0.02453,-0.54002 0.03522,-0.81009 0.01301,-0.32868 -0.02194,-0.66225 0.03522,-0.98619 0.07936,-0.44972 0.23976,-0.88474 0.422653,-1.30319 0.26945,-0.61648 0.697869,-1.15317 0.986192,-1.76106 0.3569,-0.75247 0.656336,-1.5332 0.915752,-2.32459 0.200471,-0.61157 0.410223,-1.2285 0.493096,-1.86673 0.03175,-0.2445 10e-7,-0.73966 10e-7,-0.73966 z"
             id="path744"
             sodipodi:nodetypes="csscsssssscssscssssscssscssscssssscsssscsssscssssscsssssssssssc" /><path
             style="fill:url(#linearGradient793);fill-rule:evenodd;stroke:none;stroke-width:0.264583px;stroke-linecap:butt;stroke-linejoin:miter;stroke-opacity:1"
             d="m 86.204914,153.38283 c 0,0 0.593919,-0.22191 0.783226,-0.32322 0.189307,-0.10131 0.328098,-0.16663 0.405043,-0.26416 0.07695,-0.0975 0.08188,-0.0905 0.08805,-0.24655 0.0062,-0.15601 -0.05592,-0.44009 -0.176104,-0.65159 -0.120185,-0.2115 -0.324071,-0.44942 -0.545928,-0.56354 -0.221857,-0.11412 -0.489681,-0.1128 -0.704424,-0.10566 -0.214743,0.007 -0.405401,0.0473 -0.563538,0.12327 -0.158137,0.076 -0.283143,0.19152 -0.369822,0.29938 -0.08668,0.10786 -0.123667,0.20988 -0.158496,0.31699 -0.03483,0.10711 -0.04767,0.21651 -0.05283,0.31699 -0.0052,0.10048 -0.006,0.18909 0.01762,0.28177 0.02362,0.0927 0.04812,0.1756 0.123275,0.26416 0.07516,0.0886 0.197122,0.15071 0.3346,0.22894 0.137478,0.0782 0.26048,0.12862 0.356118,0.17289 0.117228,0.0601 0.335164,0.13328 0.46321,0.15033 z"
             id="path746"
             sodipodi:nodetypes="czzzzzzzzzzzzzzc" /><path
             style="fill:url(#linearGradient794);fill-rule:evenodd;stroke:none;stroke-width:0.264583px;stroke-linecap:butt;stroke-linejoin:miter;stroke-opacity:1"
             d="m 89.297256,152.50939 1.917695,0.0747 c 0,0 0.03014,-0.44742 -0.0366,-0.64464 -0.132318,-0.39099 -0.284773,-0.55221 -0.457096,-0.69885 -0.158442,-0.13482 -0.314488,-0.21882 -0.50829,-0.29447 -0.127541,-0.0498 -0.293446,-0.0946 -0.429299,-0.0776 -0.121625,0.0152 -0.241039,0.0839 -0.323768,0.17434 -0.128016,0.13995 -0.18601,0.33721 -0.224147,0.52301 -0.03005,0.14638 -0.01169,0.29931 0,0.44829 0.01249,0.15919 0.03509,0.31689 0.03509,0.31689 z"
             id="path751"
             sodipodi:nodetypes="ccssssssscc" /><path
             style="fill:url(#linearGradient795);fill-rule:evenodd;stroke:none;stroke-width:0.264583px;stroke-linecap:butt;stroke-linejoin:miter;stroke-opacity:1"
             d="m 86.072106,136.77894 c -0.308493,-0.19978 -0.77734,0.0979 -1.046017,0.34867 -0.223145,0.20829 -0.2839,0.54847 -0.34867,0.84677 -0.09519,0.43839 0,1.14564 -0.04981,1.34488 -0.04981,0.19924 0.01672,1.66382 0.09962,2.49051 0.05202,0.51876 0.207409,1.02443 0.24905,1.54412 0.01591,0.1986 -0.05318,0.40571 0,0.59772 0.05169,0.1866 0.298862,0.4981 0.298862,0.4981 0,0 0.233443,-1.1574 0.29886,-1.74335 0.10515,-0.94186 0.149432,-2.63995 0.149432,-2.83919 0,-0.19924 0.408582,-1.37996 0.448294,-2.09203 0.01858,-0.33321 0.180493,-0.8148 -0.09962,-0.9962 z"
             id="path752"
             sodipodi:nodetypes="ssssssscssss" /></g></g><g
         id="g757"
         transform="matrix(1.4103052,1.2850383,-1.2850383,1.4103052,1068.9429,-516.45441)"
         inkscape:transform-center-x="4.7970488"
         inkscape:transform-center-y="31.114265"
         inkscape:export-filename="..\..\Binary\Data\Sprites\Dino\RightArm.svg"
         inkscape:export-xdpi="96"
         inkscape:export-ydpi="96"><path
           style="fill:#cde2b0;fill-opacity:1;fill-rule:evenodd;stroke:none;stroke-width:0.264583px;stroke-linecap:butt;stroke-linejoin:miter;stroke-opacity:1"
           d="m 129.46818,176.53341 c 0,0 -0.005,0.68526 -0.0661,1.02142 -0.0582,0.31806 -0.28617,0.95537 -0.28617,0.95537 0,0 0.13434,0.0291 0.36982,-0.0748 0.62509,-0.27581 1.02582,-1.58495 1.02582,-1.58495 l -0.10566,-0.26416 z"
           id="path754"
           sodipodi:nodetypes="cscsccc" /><path
           style="fill:#cde2b0;fill-opacity:1;fill-rule:evenodd;stroke:none;stroke-width:0.264583px;stroke-linecap:butt;stroke-linejoin:miter;stroke-opacity:1"
           d="m 130.757,175.75203 c 0,0 0.36317,0.58114 0.49181,0.89766 0.1214,0.29969 0.27064,0.95988 0.27064,0.95988 0,0 0.129,-0.0474 0.27208,-0.26142 0.37979,-0.56794 0.0162,-1.88788 0.0162,-1.88788 l -0.23081,-0.16634 z"
           id="path755"
           sodipodi:nodetypes="cscsccc" /><path
           style="fill:url(#linearGradient796);fill-rule:evenodd;stroke:none;stroke-width:0.0529167;stroke-linecap:butt;stroke-linejoin:miter;stroke-dasharray:none;stroke-opacity:1"
           d="m 123.79243,170.99971 0.65665,2.03565 c 0,0 0.25499,0.40905 0.42683,0.57457 0.24378,0.23482 0.51826,0.46137 0.83724,0.57458 0.51221,0.18179 1.08217,0.15327 1.62523,0.13133 0.47642,-0.0192 1.41182,-0.22983 1.41182,-0.22983 0,0 -0.10974,0.30337 -0.0985,0.45966 0.0113,0.15715 0.0305,0.35979 0.16417,0.44325 0.13994,0.0874 0.33566,0.002 0.49249,-0.0493 0.1026,-0.0335 0.27908,-0.16417 0.27908,-0.16417 0,0 -0.18215,0.71871 -0.24624,1.08349 -0.0305,0.17381 -0.0706,0.34892 -0.0657,0.52533 0.002,0.0611 -0.004,0.13183 0.0328,0.18058 0.14342,0.18918 0.40686,0.2685 0.64024,0.31191 0.18899,0.0352 0.39731,0.0251 0.57458,-0.0493 0.093,-0.039 0.18356,-0.10733 0.22983,-0.197 0.0832,-0.16113 0.0589,-0.36067 0.0493,-0.54174 -0.004,-0.0836 -0.0493,-0.24625 -0.0493,-0.24625 l -0.0164,-0.21341 c 0,0 0.0487,0.21311 0.11491,0.2955 0.0742,0.0923 0.18148,0.16516 0.2955,0.19699 0.12134,0.0339 0.25916,0.0266 0.37758,-0.0164 0.11008,-0.04 0.2125,-0.11707 0.27908,-0.21341 0.065,-0.094 0.0959,-0.2141 0.0985,-0.32833 0.004,-0.1579 -0.0654,-0.30968 -0.11492,-0.45967 -0.10761,-0.32619 -0.2245,-0.6534 -0.39399,-0.95215 -0.14474,-0.25511 -0.31169,-0.50494 -0.52533,-0.70591 -0.35707,-0.33591 -0.78857,-0.59373 -1.23123,-0.80441 -0.2594,-0.12345 -0.5462,-0.17835 -0.82083,-0.26266 -0.0927,-0.0285 -0.27908,-0.0821 -0.27908,-0.0821 0,0 -0.21515,-0.23351 -0.32833,-0.34475 -0.26515,-0.26061 -0.53191,-0.52116 -0.82082,-0.75516 -0.19823,-0.16054 -0.39576,-0.329 -0.62383,-0.44324 -0.1439,-0.0721 -0.45966,-0.14775 -0.45966,-0.14775 l -1.34615,-0.41041 z"
           id="path756"
           sodipodi:nodetypes="ccssscssscsssssssccsssssssssscsssccc" /><path
           style="fill:url(#linearGradient797);fill-rule:evenodd;stroke:none;stroke-width:0.079375;stroke-linecap:butt;stroke-linejoin:miter;stroke-dasharray:none;stroke-opacity:1"
           d="m 121.45213,163.61423 c -0.0696,0.16251 -0.61043,0.73982 -0.64326,1.47293 -0.0328,0.73311 0.38921,2.7473 1.08437,4.28474 0.69517,1.53744 2.62346,3.66819 2.62346,3.66819 0,0 -0.43384,-0.97915 -0.37147,-1.48585 0.0322,-0.26115 0.17155,-0.52542 0.37147,-0.69649 0.28637,-0.24505 0.69327,-0.33053 1.06795,-0.37146 0.26337,-0.0288 0.78936,0.0929 0.78936,0.0929 0,0 -0.94451,-1.54896 -1.48585,-2.27521 -0.83025,-1.11382 -1.93174,-2.01864 -2.6931,-3.18064 -0.30728,-0.46898 -0.74293,-1.50907 -0.74293,-1.50907 z"
           id="path757"
           sodipodi:nodetypes="czzcssscssc" /></g></g></g></svg>
