<?xml version="1.0" encoding="UTF-8" standalone="no"?>
<!-- Created with Inkscape (http://www.inkscape.org/) -->

<svg
   width="14.793701"
   height="72.906128"
   viewBox="0 0 4.1751113 20.57573"
   version="1.1"
   id="svg1"
   inkscape:version="1.3 (0e150ed6c4, 2023-07-21)"
   sodipodi:docname="gameVolcanoDino.svg"
   xml:space="preserve"
   xmlns:inkscape="http://www.inkscape.org/namespaces/inkscape"
   xmlns:sodipodi="http://sodipodi.sourceforge.net/DTD/sodipodi-0.dtd"
   xmlns="http://www.w3.org/2000/svg"
   xmlns:svg="http://www.w3.org/2000/svg"
   xmlns:rdf="http://www.w3.org/1999/02/22-rdf-syntax-ns#"
   xmlns:cc="http://creativecommons.org/ns#"
   xmlns:dc="http://purl.org/dc/elements/1.1/"><metadata
     id="metadata585"><rdf:RDF><cc:Work
         rdf:about=""><dc:format>image/svg+xml</dc:format><dc:type
           rdf:resource="http://purl.org/dc/dcmitype/StillImage" /></cc:Work></rdf:RDF></metadata><sodipodi:namedview
     id="namedview1"
     pagecolor="#505050"
     bordercolor="#eeeeee"
     borderopacity="1"
     inkscape:showpageshadow="0"
     inkscape:pageopacity="1"
     inkscape:pagecheckerboard="0"
     inkscape:deskcolor="#141414"
     inkscape:document-units="px"
     inkscape:zoom="0.90509676"
     inkscape:cx="4193.4743"
     inkscape:cy="1132.4756"
     inkscape:window-width="1280"
     inkscape:window-height="961"
     inkscape:window-x="-8"
     inkscape:window-y="-8"
     inkscape:window-maximized="1"
     inkscape:current-layer="layer1"
     showgrid="false"
     units="px" /><defs
     id="defs1"><linearGradient
       id="swatch2"
       inkscape:swatch="solid"><stop
         style="stop-color:#000000;stop-opacity:1;"
         offset="0"
         id="stop2-3" /></linearGradient></defs><g
     inkscape:label="Layer 1"
     inkscape:groupmode="layer"
     id="layer1"
     transform="translate(-1097.7017,-297.37723)"><path
       d="m 1101.5363,299.43753 q 0,0.68222 -0.4504,4.58452 -0.4502,3.90228 -0.7913,7.54534 h -1.0642 q -0.3002,-3.64306 -0.7505,-7.54534 -0.4366,-3.9023 -0.4366,-4.58452 0,-0.77773 0.4912,-1.30987 0.4912,-0.53213 1.2553,-0.53213 0.7641,0 1.2553,0.53213 0.4912,0.51849 0.4912,1.30987 z m 0.1222,16.45513 q 0,0.76409 -0.5594,1.30987 -0.5457,0.53213 -1.3098,0.53213 -0.7641,0 -1.3235,-0.53213 -0.5458,-0.54578 -0.5458,-1.30987 0,-0.76409 0.5458,-1.30986 0.5594,-0.55942 1.3235,-0.55942 0.7641,0 1.3098,0.55942 0.5594,0.54577 0.5594,1.30986 z"
       id="text634"
       style="font-size:18.0622px;line-height:125%;font-family:Georgia;-inkscape-font-specification:Georgia;letter-spacing:0px;word-spacing:0px;fill:#fffdfd;stroke:#f8f4f4;stroke-width:0.436621px"
       aria-label="!" /></g></svg>
