<?xml version="1.0" encoding="UTF-8" standalone="no"?>
<!-- Created with Inkscape (http://www.inkscape.org/) -->

<svg
   width="128"
   height="63.999996"
   viewBox="0 0 36.124445 18.062221"
   version="1.1"
   id="svg1"
   inkscape:version="1.3 (0e150ed6c4, 2023-07-21)"
   sodipodi:docname="gameVolcanoDino.svg"
   xml:space="preserve"
   xmlns:inkscape="http://www.inkscape.org/namespaces/inkscape"
   xmlns:sodipodi="http://sodipodi.sourceforge.net/DTD/sodipodi-0.dtd"
   xmlns:xlink="http://www.w3.org/1999/xlink"
   xmlns="http://www.w3.org/2000/svg"
   xmlns:svg="http://www.w3.org/2000/svg"
   xmlns:rdf="http://www.w3.org/1999/02/22-rdf-syntax-ns#"
   xmlns:cc="http://creativecommons.org/ns#"
   xmlns:dc="http://purl.org/dc/elements/1.1/"><metadata
     id="metadata585"><rdf:RDF><cc:Work
         rdf:about=""><dc:format>image/svg+xml</dc:format><dc:type
           rdf:resource="http://purl.org/dc/dcmitype/StillImage" /></cc:Work></rdf:RDF></metadata><sodipodi:namedview
     id="namedview1"
     pagecolor="#505050"
     bordercolor="#eeeeee"
     borderopacity="1"
     inkscape:showpageshadow="0"
     inkscape:pageopacity="1"
     inkscape:pagecheckerboard="0"
     inkscape:deskcolor="#141414"
     inkscape:document-units="px"
     inkscape:zoom="0.22627418"
     inkscape:cx="3955.3784"
     inkscape:cy="2633.9726"
     inkscape:window-width="1280"
     inkscape:window-height="961"
     inkscape:window-x="-8"
     inkscape:window-y="-8"
     inkscape:window-maximized="1"
     inkscape:current-layer="layer1"
     showgrid="false"
     units="px" /><defs
     id="defs1"><inkscape:path-effect
       effect="spiro"
       id="path-effect687"
       is_visible="true"
       lpeversion="1" /><inkscape:path-effect
       effect="spiro"
       id="path-effect683"
       is_visible="true"
       lpeversion="1" /><inkscape:path-effect
       effect="spiro"
       id="path-effect679"
       is_visible="true"
       lpeversion="1" /><inkscape:path-effect
       effect="spiro"
       id="path-effect675"
       is_visible="true"
       lpeversion="1" /><inkscape:path-effect
       effect="spiro"
       id="path-effect669"
       is_visible="true"
       lpeversion="1" /><inkscape:path-effect
       effect="spiro"
       id="path-effect665"
       is_visible="true"
       lpeversion="1" /><inkscape:path-effect
       effect="spiro"
       id="path-effect661"
       is_visible="true"
       lpeversion="1" /><inkscape:path-effect
       effect="spiro"
       id="path-effect655"
       is_visible="true"
       lpeversion="1" /><inkscape:path-effect
       effect="spiro"
       id="path-effect652"
       is_visible="true"
       lpeversion="1" /><inkscape:path-effect
       effect="spiro"
       id="path-effect650"
       is_visible="true"
       lpeversion="1" /><inkscape:path-effect
       effect="spiro"
       id="path-effect647"
       is_visible="true"
       lpeversion="1" /><inkscape:path-effect
       effect="spiro"
       id="path-effect642"
       is_visible="true"
       lpeversion="1" /><inkscape:path-effect
       effect="spiro"
       id="path-effect638"
       is_visible="true"
       lpeversion="1" /><inkscape:path-effect
       effect="spiro"
       id="path-effect634"
       is_visible="true"
       lpeversion="1" /><inkscape:path-effect
       effect="spiro"
       id="path-effect630"
       is_visible="true"
       lpeversion="1" /><inkscape:path-effect
       effect="spiro"
       id="path-effect627"
       is_visible="true"
       lpeversion="1" /><inkscape:path-effect
       effect="spiro"
       id="path-effect623"
       is_visible="true"
       lpeversion="1" /><linearGradient
       id="linearGradient1529"
       inkscape:collect="always"><stop
         style="stop-color:#d37445;stop-opacity:1;"
         offset="0"
         id="stop1529" /><stop
         style="stop-color:#441602;stop-opacity:1;"
         offset="1"
         id="stop1528" /></linearGradient><linearGradient
       id="swatch2"
       inkscape:swatch="solid"><stop
         style="stop-color:#000000;stop-opacity:1;"
         offset="0"
         id="stop2-3" /></linearGradient><linearGradient
       inkscape:collect="always"
       xlink:href="#linearGradient1529"
       id="linearGradient322"
       gradientUnits="userSpaceOnUse"
       gradientTransform="matrix(1.3333333,0,0,1.3333333,-155.67312,-148.70142)"
       x1="810.72736"
       y1="678.18024"
       x2="810.72736"
       y2="696.664" /><linearGradient
       inkscape:collect="always"
       xlink:href="#linearGradient1529"
       id="linearGradient323"
       gradientUnits="userSpaceOnUse"
       gradientTransform="matrix(1.3541666,0,0,1.3541666,-208.97191,-163.10119)"
       x1="810.72736"
       y1="678.18024"
       x2="810.72736"
       y2="696.664" /></defs><g
     inkscape:label="Layer 1"
     inkscape:groupmode="layer"
     id="layer1"
     transform="translate(-870.67487,-800.64694)"><g
       id="g687"
       transform="matrix(0.49230782,0,0,0.49230782,442.03482,429.18125)"
       inkscape:export-filename="..\..\Binary\Data\Sprites\VolcanoDino\GroundFlat.svg"
       inkscape:export-xdpi="96"
       inkscape:export-ydpi="96"><path
         id="path323"
         style="fill:url(#linearGradient323);fill-rule:evenodd;stroke-width:0.166732"
         d="m 906.40532,754.77857 c -0.92866,0.39421 -1.94963,1.92915 -2.7622,1.92915 -0.81259,0 -2.32192,-0.32898 -2.78625,-0.39467 -0.46435,-0.0657 -2.43798,-0.52529 -3.13449,-0.65668 -0.69651,-0.13141 -1.16052,-0.26312 -1.16052,-0.26312 l -2.20572,0.7888 c 0,0 -0.11632,0.32837 -1.16109,0.59118 -1.04475,0.26281 -1.39298,0.32842 -1.97339,0.39412 -0.58042,0.0657 -1.04471,0.19696 -1.97339,-0.13156 -0.92866,-0.3285 -1.16052,-0.52569 -1.16052,-0.52569 0,0 -1.97371,-0.91979 -2.43806,-0.91979 -0.46433,0 -1.50873,-0.131 -1.50873,-0.131 l -1.74163,0.32807 c 0,0 -0.34798,0.32874 -0.81231,0.46017 -0.46435,0.13139 -2.08983,0.26255 -2.08983,0.26255 0,0 -0.46438,-0.52547 -1.27697,-0.59117 -0.8126,-0.0657 -2.54219,-0.42323 -2.54219,-0.42323 0,0 -0.70788,0.29179 -1.52048,0.62029 -0.8126,0.32853 -2.40158,-1.23687 -2.40158,-1.23687 l -1.08111,-0.33736 v 36.68664 h 36.68888 v -36.68888 z"
         sodipodi:nodetypes="csssccssscsccscscscccccc" /><path
         style="fill:#000000;fill-opacity:0.354054;fill-rule:evenodd;stroke:none;stroke-width:0.282222px;stroke-linecap:butt;stroke-linejoin:miter;stroke-opacity:1"
         d="m 908.31548,795.24009 c 1.45708,-0.59629 3.1658,-0.54476 4.5843,0.13824 0.47671,0.22953 0.92025,0.52567 1.40605,0.73527 0.32539,0.14039 0.66797,0.24089 1.01763,0.29854 l 0.63147,0.54293 0.9877,0.80282 1.27262,0.29084 1.4826,-0.0356 1.25945,-0.29027 1.23392,-0.14412 0.0772,0.005 -1.26891,-0.35154 -1.28067,-0.10814 -1.4253,-0.16856 -1.14343,-0.46716 -0.41114,-0.0497 -1.56356,-0.10683 -1.32648,-0.19254 -1.26412,-0.26083 c -0.50939,-0.007 -1.01881,-0.0119 -1.52824,-0.0143 -0.49794,-0.002 -0.99588,-0.002 -1.49382,0 l -0.69953,-0.32049 -0.54773,-0.30314 z"
         id="path594"
         inkscape:path-effect="#path-effect623"
         inkscape:original-d="m 908.31548,795.24009 c 1.52782,0.0115 3.06532,-0.0578 4.5843,0.13824 0.54473,0.0806 0.88521,0.58731 1.40605,0.73527 0.28827,0.0827 0.84459,0.42282 1.01763,0.29854 -0.37054,-0.13726 0.45084,0.45105 0.63147,0.54293 0.36911,0.21829 0.68142,0.58012 0.9877,0.80282 0.45422,-0.10313 0.75739,0.53526 1.27262,0.29084 0.49391,-0.0218 0.99476,0.0354 1.4826,-0.0356 0.43867,-0.15222 0.88605,-0.0773 1.25945,-0.29027 0.40066,-0.0833 0.94244,0.20147 1.23392,-0.14412 0.23981,0.0533 0.46053,-0.0322 0.0772,0.005 -0.42321,-0.0564 -0.7891,-0.37625 -1.26891,-0.35154 -0.37175,-0.24936 -0.85358,-0.0591 -1.28067,-0.10814 -0.45375,-0.18506 -0.92904,-0.16977 -1.4253,-0.16856 -0.30095,-0.26552 -0.75279,-0.40913 -1.14343,-0.46716 -0.20568,-0.0483 -0.6742,0.10109 -0.41114,-0.0497 -0.4896,-0.2372 -1.04518,-0.0234 -1.56356,-0.10683 -0.31666,-0.36976 -0.91417,-0.0262 -1.32648,-0.19254 -0.37735,-0.26609 -0.87268,0.004 -1.26412,-0.26083 -0.50518,-0.0481 -1.01903,0.002 -1.52824,-0.0143 -0.49772,-4.2e-4 -0.99767,5.7e-4 -1.49382,0 -0.17623,-0.25454 -0.50412,-0.0959 -0.69953,-0.32049 -0.20305,0.002 -0.36467,-0.21703 -0.54773,-0.30314 z"
         transform="matrix(-1,0,0,1,1813.8879,-35.235032)" /><path
         style="fill:#000000;fill-opacity:0.354054;fill-rule:evenodd;stroke:none;stroke-width:0.282222px;stroke-linecap:butt;stroke-linejoin:miter;stroke-opacity:1"
         d="m 940.27645,794.77236 -1.38448,0.43148 -1.52691,1.18883 -0.36265,1.65372 v 3.58589 c -0.0522,0.50629 -0.16896,1.00589 -0.34654,1.48288 -0.12028,0.32308 -0.26838,0.6358 -0.44212,0.93357 l -0.32716,0.76834 -0.2787,0.94882 -0.16312,0.0944 -0.46916,0.9169 -0.17199,0.6974 -0.29644,0.90605 -0.3111,0.11153 h 0.62363 l 0.17383,-0.0664 0.44979,-1.02499 0.16351,-0.54095 0.25151,-0.70359 0.74594,-0.98847 0.43169,-0.92799 0.48092,-0.72306 0.0856,-0.72205 0.18665,-0.50939 -0.007,-2.52398 0.1559,-0.77277 0.16213,-0.42165 0.23124,-1.06474 0.28024,-0.46104 c 0.22431,-0.39575 0.46567,-0.78182 0.7232,-1.1568 0.13004,-0.18935 0.2642,-0.37587 0.40235,-0.55938 l 0.53945,-0.55263 z"
         id="path601"
         inkscape:path-effect="#path-effect627"
         inkscape:original-d="m 940.27645,794.77236 c -0.51559,-0.0724 -1.01637,0.0463 -1.38448,0.43148 -0.53202,0.36604 -1.04248,0.76309 -1.52691,1.18883 -0.26025,0.51654 -0.0166,1.16737 -0.36265,1.65372 -0.002,1.19335 0.002,2.39171 0,3.58589 -0.27579,0.45927 -0.081,1.01778 -0.34654,1.48288 -0.17814,0.31925 -0.0869,0.8478 -0.44212,0.93357 0.0705,0.34451 -0.114,0.67153 -0.32716,0.76834 0.11947,0.37976 -0.45117,0.53072 -0.2787,0.94882 -0.0222,0.25311 -0.22747,0.36774 -0.16312,0.0944 -0.24983,0.30496 0.0394,0.92171 -0.46916,0.9169 -0.007,0.2928 0.0882,0.63854 -0.17199,0.6974 0.0412,0.26779 -0.18626,0.87346 -0.29644,0.90605 -0.0888,-0.35484 -0.11561,0.25069 -0.3111,0.11153 -0.13536,0.27611 0.73567,0.25125 0.62363,0 0.14377,-0.4245 0.13779,0.03 0.17383,-0.0664 0.19481,-0.36235 0.0249,-0.80634 0.44979,-1.02499 -0.0312,-0.27589 -0.009,-0.46654 0.16351,-0.54095 0.12512,-0.20285 0.078,-0.64134 0.25151,-0.70359 0.34479,-0.18688 0.27398,-0.80847 0.74594,-0.98847 0.14372,-0.29485 0.31457,-0.58609 0.43169,-0.92799 0.13977,-0.2459 0.33142,-0.45576 0.48092,-0.72306 -0.24157,-0.11896 0.35254,-0.43929 0.0856,-0.72205 -0.0904,-0.32952 0.32856,-0.14456 0.18665,-0.50939 -0.0118,-0.84116 -0.008,-1.68325 -0.007,-2.52398 0.12464,-0.30942 0.18608,-0.42277 0.1559,-0.77277 -0.10254,-0.27359 0.3322,-0.0627 0.16213,-0.42165 -0.0919,-0.41716 0.14104,-0.72457 0.23124,-1.06474 0.14048,-0.19826 -0.004,-0.42711 0.28024,-0.46104 0.31427,-0.34601 0.29569,-0.897 0.7232,-1.1568 0.29303,-0.18122 9e-5,-0.55302 0.40235,-0.55938 0.193,-0.17102 0.35741,-0.3706 0.53945,-0.55263 z"
         transform="matrix(-1,0,0,1,1813.8879,-35.235032)" /><path
         style="fill:#000000;fill-opacity:0.354054;fill-rule:evenodd;stroke:none;stroke-width:0.282222px;stroke-linecap:butt;stroke-linejoin:miter;stroke-opacity:1"
         d="m 941.83553,825.64197 -1.55908,-1.55905 v -1.40588 l 0.12438,-1.08878 0.18744,-0.59873 v -1.27202 l -0.31346,-0.81486 -0.16228,-0.89719 -0.17744,-1.45184 -0.31481,-0.59335 -0.59109,-0.60815 -0.46772,-0.77955 -0.3118,-1.01372 0.1559,-0.3115 0.14129,0.23874 0.29533,0.24939 0.22062,0.2563 0.43411,0.73669 0.59114,1.04788 0.4926,0.90568 0.15043,0.31021 0.16898,0.23076 c 0.0841,0.19852 0.13688,0.41022 0.15593,0.62496 0.0305,0.34373 -0.0266,0.69488 -0.16449,1.01122 l 0.009,3.97649 0.3465,0.54743 0.28939,0.57723 0.14223,0.14114 c 0.12935,0.31289 0.15734,0.65726 0.15734,0.99584 v 0.54466 z"
         id="path602"
         inkscape:path-effect="#path-effect630"
         inkscape:original-d="m 941.83553,825.64197 c -0.58519,-0.434 -1.3967,-0.76635 -1.55908,-1.55905 -0.0456,-0.46582 0.0205,-0.93685 0,-1.40588 0.0245,-0.358 -0.11103,-0.79784 0.12438,-1.08878 0.29063,-0.0459 0.16188,-0.39167 0.18744,-0.59873 -8.8e-4,-0.42365 0.001,-0.85121 0,-1.27202 -0.27413,-0.1914 -0.0965,-0.56435 -0.31346,-0.81486 0.0737,-0.34609 -0.0466,-0.62393 -0.16228,-0.89719 -0.0926,-0.47728 -0.16113,-0.96647 -0.17744,-1.45184 -0.28317,-0.1195 -0.27254,-0.38472 -0.31481,-0.59335 -0.37046,0.006 -0.1388,-0.62382 -0.59109,-0.60815 -0.0466,-0.38766 -0.6405,-0.34676 -0.46772,-0.77955 -0.38124,-0.21693 -0.33681,-0.62651 -0.3118,-1.01372 -0.0385,-0.16568 0.0198,-0.60998 0.1559,-0.3115 -0.0541,0.12142 0.37603,0.0774 0.14129,0.23874 0.21916,-0.0362 0.51113,-0.008 0.29533,0.24939 0.13035,0.0837 0.21626,0.0515 0.22062,0.2563 0.21093,0.21316 0.20427,0.52657 0.43411,0.73669 0.10512,0.34373 0.35395,0.74073 0.59114,1.04788 -0.009,0.36935 0.54097,0.49697 0.4926,0.90568 0.0293,0.12553 0.29588,0.0382 0.15043,0.31021 0.004,0.16069 0.26687,-0.005 0.16898,0.23076 0.24624,0.12924 0.13266,0.40227 0.15593,0.62496 0.0564,0.35533 -0.0738,0.67777 -0.16449,1.01122 0.0193,1.32511 0.003,2.65105 0.009,3.97649 -0.0788,0.29469 0.43998,0.21516 0.3465,0.54743 0.22228,0.18263 -0.0131,0.59295 0.28939,0.57723 -0.0672,0.23465 0.22884,0.46268 0.14223,0.14114 0.16577,0.31362 0.17602,0.65218 0.15734,0.99584 0,0.18155 0,0.36311 0,0.54466 z"
         transform="matrix(-1,0,0,1,1813.8879,-35.235032)" /><path
         style="fill:#000000;fill-opacity:0.354054;fill-rule:evenodd;stroke:none;stroke-width:0.282222px;stroke-linecap:butt;stroke-linejoin:miter;stroke-opacity:1"
         d="m 908.62728,825.48607 2.19155,-1.95239 1.57956,-2.43836 0.43841,-2.27873 v -2.84084 l -0.57195,-1.95803 -0.29264,-0.46224 -0.53859,-1.63332 -0.007,-2.70759 -0.46058,-2.12555 -0.3118,-0.62363 0.3118,0.46773 0.31183,1.21274 v 1.74949 l 0.29578,1.02928 0.39471,0.73726 0.55999,1.00595 c 0.12383,0.57898 0.22679,1.16242 0.3086,1.74882 0.0656,0.47005 0.11758,0.942 0.1559,1.41506 l 0.1541,1.39168 c 0.0726,0.44389 0.12522,0.89103 0.15769,1.33964 0.0593,0.81933 0.0512,1.64352 -0.0241,2.46153 l -0.71301,1.73501 -1.12789,1.64027 -1.2387,1.05724 -0.92726,0.029 h -0.64628 z"
         id="path603"
         inkscape:path-effect="#path-effect634"
         inkscape:original-d="m 908.62728,825.48607 c 0.8187,-0.54444 1.62422,-1.13365 2.19155,-1.95239 0.63269,-0.74025 1.05033,-1.62778 1.57956,-2.43836 0.26643,-0.725 0.34185,-1.52316 0.43841,-2.27873 0,-0.94694 0,-1.89389 0,-2.84084 -0.37669,-0.62838 -0.19057,-1.34442 -0.57195,-1.95803 -0.39253,0.0568 -0.0434,-0.74667 -0.29264,-0.46224 -0.37108,-0.5135 -0.21745,-1.10351 -0.53859,-1.63332 -0.005,-0.90144 0.009,-1.80577 -0.007,-2.70759 -0.37164,-0.66571 -0.29597,-1.40936 -0.46058,-2.12555 -0.25974,0.0183 -0.19616,-0.45543 -0.3118,-0.62363 -0.0124,-0.3846 0.43657,0.2733 0.3118,0.46773 0.47687,0.24411 0.27888,0.77747 0.31183,1.21274 0.003,0.58315 -0.005,1.16743 0,1.74949 0.0995,0.45722 0.49411,0.50864 0.29578,1.02928 0.22118,0.22551 0.34325,0.45214 0.39471,0.73726 0.4245,0.11681 0.24969,0.8732 0.55999,1.00595 -0.12276,0.6587 0.2736,1.16588 0.3086,1.74882 0.0488,0.4698 0.2305,0.91457 0.1559,1.41506 -0.0349,0.47842 0.0484,0.93665 0.1541,1.39168 0.16578,0.42142 0.17932,0.87475 0.15769,1.33964 -0.0114,0.82025 0.0254,1.64604 -0.0241,2.46153 -0.34073,0.58149 -0.3012,1.18033 -0.71301,1.73501 -0.33439,0.58971 -0.7328,1.10634 -1.12789,1.64027 -0.30141,0.51355 -1.0259,0.63094 -1.2387,1.05724 -0.27069,0.0852 -0.6221,-4.7e-4 -0.92726,0.029 -0.21543,0 -0.43085,0 -0.64628,0 z"
         transform="matrix(-1,0,0,1,1813.8879,-35.235032)" /><path
         style="fill:#000000;fill-opacity:0.354054;fill-rule:evenodd;stroke:none;stroke-width:0.282222px;stroke-linecap:butt;stroke-linejoin:miter;stroke-opacity:1"
         d="m 933.41653,824.39472 -2.25348,-0.30445 -2.42374,-0.94281 -1.6253,-1.65642 -1.11936,-1.77764 -0.30489,-1.16287 -0.4178,-2.0687 -0.58623,-2.14312 -1.15793,-2.00088 -1.02478,-1.35112 -0.69296,-1.32903 -0.71019,-1.63321 0.27026,-0.62665 1.17518,1.33811 0.88391,1.7066 0.62351,1.48506 0.63328,1.09379 0.3959,0.72851 0.94448,2.08478 0.53427,1.62242 0.29486,1.20933 0.63654,1.83064 0.62363,0.93543 1.55908,1.48111 2.02678,0.38976 0.53013,0.1556 c 0.36372,0.12127 0.69494,0.33859 0.951,0.62396 0.0869,0.0968 0.16523,0.20129 0.23385,0.3118 z"
         id="path604"
         inkscape:path-effect="#path-effect638"
         inkscape:original-d="m 933.41653,824.39472 c -0.76179,-0.006 -1.57011,0.12434 -2.25348,-0.30445 -0.78118,-0.38471 -1.64539,-0.5639 -2.42374,-0.94281 -0.67825,-0.40332 -1.34365,-0.88664 -1.6253,-1.65642 -0.38998,-0.59524 -0.9759,-1.03617 -1.11936,-1.77764 0.40104,0.43662 -0.25091,-0.87587 -0.30489,-1.16287 -0.0675,-0.69797 -0.2631,-1.37455 -0.4178,-2.0687 -0.2098,-0.69862 -0.10709,-1.52273 -0.58623,-2.14312 -0.25375,-0.75437 -0.84867,-1.30824 -1.15793,-2.00088 -0.47607,-0.2708 -0.7714,-0.84508 -1.02478,-1.35112 -0.46142,-0.0394 -0.63101,-0.81549 -0.69296,-1.32903 -0.43246,-0.47651 -0.10696,-1.22117 -0.71019,-1.63321 0.16548,-0.41734 -0.46757,-0.79225 0.27026,-0.62665 0.52548,0.29325 0.76239,0.91967 1.17518,1.33811 0.0433,0.69497 0.80162,1.09892 0.88391,1.7066 0.22273,0.49673 0.37641,0.99386 0.62351,1.48506 0.26573,0.31292 0.47435,0.92154 0.63328,1.09379 0.0369,-0.36632 0.12432,0.68302 0.3959,0.72851 0.39725,0.65053 0.62133,1.39478 0.94448,2.08478 0.52876,0.50489 0.25306,1.15613 0.53427,1.62242 0.019,0.42831 0.54203,0.6745 0.29486,1.20933 0.32601,0.58709 0.10213,1.38427 0.63654,1.83064 0.009,0.44592 0.88596,0.31443 0.62363,0.93543 0.51985,0.51673 0.97384,1.16593 1.55908,1.48111 0.52571,0.19684 1.36262,0.26331 2.02678,0.38976 0.20036,-0.0321 0.96231,10e-4 0.53013,0.1556 0.44511,0.21183 0.65658,0.18544 0.951,0.62396 0.0779,0.10393 0.1559,0.20787 0.23385,0.3118 z"
         transform="matrix(-1,0,0,1,1813.8879,-35.235032)" /><path
         style="fill:#000000;fill-opacity:0.354054;fill-rule:evenodd;stroke:none;stroke-width:0.282222px;stroke-linecap:butt;stroke-linejoin:miter;stroke-opacity:1"
         d="m 929.98657,794.61643 c -0.20673,1.56722 -0.7636,3.08727 -1.6182,4.41715 -0.19119,0.29751 -0.39703,0.58561 -0.61653,0.86289 l -0.89751,1.147 -0.49583,0.52395 -0.73732,0.68849 -0.88924,0.74758 -0.23462,0.23137 -0.27932,0.2683 0.80629,-0.73421 0.51891,-0.74692 0.54571,-0.85748 -0.0176,-0.28867 0.7569,-0.5987 0.54523,-0.90894 c 0.22222,-0.24639 0.41518,-0.51914 0.57356,-0.8107 0.14942,-0.27506 0.26805,-0.56683 0.35298,-0.86812 l 0.37921,-0.7743 0.27376,-0.95635 0.24901,-0.33259 0.161,-0.23019 0.62363,-0.77956 z"
         id="path605"
         inkscape:path-effect="#path-effect642"
         inkscape:original-d="m 929.98657,794.61643 c -0.498,1.48667 -0.93897,2.9995 -1.6182,4.41715 -0.15313,0.32642 -0.26024,0.70948 -0.61653,0.86289 -0.34421,0.34296 -0.63116,0.74355 -0.89751,1.147 0.16998,0.35034 -0.25977,0.42704 -0.49583,0.52395 -0.34372,0.11372 -0.48224,0.46673 -0.73732,0.68849 -0.34494,0.19174 -0.63004,0.4538 -0.88924,0.74758 -0.18265,0.0181 -0.21548,0.0502 -0.23462,0.23137 -0.148,0.0265 -0.32921,0.67466 -0.27932,0.2683 0.25914,-0.25114 0.48661,-0.55632 0.80629,-0.73421 0.46935,-0.081 0.12093,-0.59407 0.51891,-0.74692 0.30135,-0.20798 0.2674,-0.59972 0.54571,-0.85748 0.17358,-0.22139 -0.28264,-0.095 -0.0176,-0.28867 0.24183,-0.21516 0.54484,-0.29613 0.7569,-0.5987 0.26636,-0.24778 0.55215,-0.51863 0.54523,-0.90894 0.0915,-0.34341 0.48477,-0.46611 0.57356,-0.8107 0.0931,-0.33128 0.41029,-0.50983 0.35298,-0.86812 0.28617,-0.17395 0.22638,-0.52408 0.37921,-0.7743 0.24196,-0.27847 0.1957,-0.62703 0.27376,-0.95635 0.009,-0.19299 0.30379,-0.0318 0.24901,-0.33259 -0.0173,-0.15214 0.26741,0.002 0.161,-0.23019 0.23916,-0.23741 0.46031,-0.4731 0.62363,-0.77956 z"
         transform="matrix(-1,0,0,1,1813.8879,-35.235032)" /><path
         style="fill:#000000;fill-opacity:0.354054;fill-rule:evenodd;stroke:none;stroke-width:0.282222px;stroke-linecap:butt;stroke-linejoin:miter;stroke-opacity:1"
         d="m 914.08405,798.67005 -0.4715,0.7395 -0.003,1.05496 0.16244,0.23232 0.16565,0.66029 0.34376,0.62402 0.19783,0.97424 0.0723,0.70138 -0.0105,0.7941 -0.26775,0.56854 -0.18952,0.97827 -0.15593,0.62362 -0.13959,-0.89505 c -0.0516,-0.22279 -0.10899,-0.44423 -0.17221,-0.664 -0.0524,-0.18207 -0.10872,-0.363 -0.16898,-0.54261 l -0.13699,-0.66636 -0.17648,-0.87665 -0.14189,-0.45468 -0.16556,-0.37944 0.003,-1.87531 0.14923,-0.74191 0.18551,-0.39656 0.29609,-0.30277 0.54542,-0.15797 c 0.0131,9.9e-4 0.0261,0.002 0.0392,0.002 0.0131,3.5e-4 0.0263,3.7e-4 0.0395,7e-5 z"
         id="path606"
         inkscape:path-effect="#path-effect647"
         inkscape:original-d="m 914.08405,798.67005 c -0.14667,0.24605 -0.4555,0.44372 -0.4715,0.7395 0.005,0.35122 0.009,0.70397 -0.003,1.05496 -0.0493,0.14862 -0.002,0.30027 0.16244,0.23232 0.0205,0.24223 -0.0709,0.50575 0.16565,0.66029 -1.3e-4,0.24401 0.0498,0.65105 0.34376,0.62402 0.32026,0.22868 -0.0764,0.73236 0.19783,0.97424 0.17823,0.18075 0.0416,0.46888 0.0723,0.70138 -0.024,0.26465 0.0831,0.54068 -0.0105,0.7941 -0.36476,-0.10995 0.0592,0.50001 -0.26775,0.56854 -0.16034,0.30007 0.15839,0.76178 -0.18952,0.97827 -0.0794,0.18496 0.16219,0.70712 -0.15593,0.62362 -0.0168,-0.29482 0.0889,-0.64352 -0.13959,-0.89505 0.017,-0.25372 -0.29337,-0.37235 -0.17221,-0.664 0.0823,-0.23027 -0.067,-0.38258 -0.16898,-0.54261 0.13012,-0.27536 -0.27303,-0.379 -0.13699,-0.66636 -0.17113,-0.27188 -0.17684,-0.56554 -0.17648,-0.87665 -0.038,-0.10398 -0.10751,-0.52354 -0.14189,-0.45468 -0.0195,0.20981 -0.17781,-0.28523 -0.16556,-0.37944 0.0129,-0.62478 0.0159,-1.25108 0.003,-1.87531 0.11933,-0.23586 0.2164,-0.46942 0.14923,-0.74191 0.0354,-0.15689 0.21389,-0.22979 0.18551,-0.39656 0.24472,0.10183 0.0726,-0.2516 0.29609,-0.30277 -0.0911,-0.30465 0.37548,-0.13643 0.54542,-0.15797 l 0.0392,0.002 z"
         transform="matrix(-1,0,0,1,1813.8879,-35.235032)" /><path
         style="fill:#000000;fill-opacity:0.354054;fill-rule:evenodd;stroke:none;stroke-width:0.282222px;stroke-linecap:butt;stroke-linejoin:miter;stroke-opacity:1"
         d="m 929.83067,802.41181 c 0.21136,0.7948 0.23101,1.63989 0.0568,2.44365 -0.16559,0.76402 -0.49989,1.479 -0.81447,2.19467 -0.28808,0.65537 -0.56158,1.31714 -0.82025,1.98466 0.007,0.34932 0.0134,0.69867 0.0189,1.04802 0.008,0.53667 0.015,1.07338 0.0196,1.6101 l -0.64325,0.69695 -0.21004,-0.49835 -0.0698,-0.87983 -0.35089,-1.58317 -0.007,-1.32787 0.46955,-0.96981 0.49543,-1.05303 0.29675,-0.85966 0.62365,-1.09137 0.3118,-0.77951 0.62363,-0.93545 z"
         id="path607"
         inkscape:path-effect="#path-effect650"
         inkscape:original-d="m 929.83067,802.41181 c 0.008,0.8149 -0.0293,1.63161 0.0568,2.44365 0.0812,0.8203 -0.43693,1.51589 -0.81447,2.19467 -0.32786,0.63636 -0.60415,1.30234 -0.82025,1.98466 -0.006,0.34823 0.0327,0.69795 0.0189,1.04802 0.009,0.5366 -0.0197,1.07513 0.0196,1.6101 -0.15328,0.26102 -0.40899,0.5198 -0.64325,0.69695 -0.0435,-0.1517 0.0708,-0.4276 -0.21004,-0.49835 -0.2319,-0.24094 -0.26078,-0.63901 -0.0698,-0.87983 -0.0605,-0.54155 -0.46027,-1.01943 -0.35089,-1.58317 0.0225,-0.44254 -0.006,-0.88634 -0.007,-1.32787 0.0717,-0.35735 0.32366,-0.64171 0.46955,-0.96981 0.18275,-0.3411 0.4025,-0.67355 0.49543,-1.05303 -0.10476,-0.34524 -0.0236,-0.67267 0.29675,-0.85966 0.212,-0.34888 0.60986,-0.66931 0.62365,-1.09137 -0.0728,-0.32824 0.5197,-0.39562 0.3118,-0.77951 0.20788,-0.31181 0.41575,-0.62364 0.62363,-0.93545 z"
         transform="matrix(-1,0,0,1,1813.8879,-35.235032)" /><path
         style="fill:#000000;fill-opacity:0.354054;fill-rule:evenodd;stroke:none;stroke-width:0.282222px;stroke-linecap:butt;stroke-linejoin:miter;stroke-opacity:1"
         d="m 920.47624,813.63714 -1.50333,2.65039 -0.0731,1.14249 -0.69638,0.80136 -0.33198,0.82836 -0.20158,0.50187 -0.44217,0.17304 -0.18146,0.76241 v -0.48207 l -0.007,-1.46833 0.46535,-0.73868 0.81993,-1.0708 0.25967,-0.22433 c 0.0931,-0.0977 0.20727,-0.17506 0.33247,-0.2253 0.0987,-0.0396 0.2042,-0.0624 0.31048,-0.0671 l 0.25612,-0.28738 0.057,-0.73687 0.29891,-0.20023 0.34286,-0.25723 0.27392,-1.0432 z"
         id="path608"
         inkscape:path-effect="#path-effect652"
         inkscape:original-d="m 920.47624,813.63714 c -0.52206,0.87067 -1.08173,1.72461 -1.50333,2.65039 -0.1978,0.36177 0.0504,0.7698 -0.0731,1.14249 -0.18261,0.312 -0.65021,0.38987 -0.69638,0.80136 -0.10081,0.27741 -0.10043,0.62048 -0.33198,0.82836 -0.25054,0.0875 -0.18658,0.31589 -0.20158,0.50187 -0.169,0.009 -0.37521,-0.0673 -0.44217,0.17304 -0.0819,0.22724 -0.31233,0.55227 -0.18146,0.76241 0.10537,-0.11221 -0.0404,-0.32183 0,-0.48207 -0.004,-0.48935 0.008,-0.9795 -0.007,-1.46833 -0.1037,-0.35123 0.34832,-0.46253 0.46535,-0.73868 0.26673,-0.3603 0.48165,-0.77211 0.81993,-1.0708 0.19614,0.0841 0.39217,0.0123 0.25967,-0.22433 0.0176,-0.21455 0.46644,0.1041 0.33247,-0.2253 -0.11755,-0.26157 0.43402,-0.45906 0.31048,-0.0671 0.006,0.28757 0.2028,-0.20912 0.25612,-0.28738 0.20832,-0.22257 -0.0925,-0.51144 0.057,-0.73687 0.14913,-0.01 0.4408,0.0764 0.29891,-0.20023 -0.0659,-0.29296 0.44781,0.079 0.34286,-0.25723 -0.0539,-0.36196 0.18811,-0.6986 0.27392,-1.0432 z"
         transform="matrix(-1,0,0,1,1813.8879,-35.235032)" /></g><g
       id="g688"
       transform="matrix(0.49999979,0,0,0.50000007,435.05541,423.23603)"
       inkscape:export-filename="..\..\Binary\Data\Sprites\VolcanoDino\GroundFlat2.svg"
       inkscape:export-xdpi="96"
       inkscape:export-ydpi="96"><path
         id="path322"
         style="fill:url(#linearGradient322);fill-rule:evenodd;stroke-width:0.164167"
         d="m 907.36374,754.82174 v 36.12444 h 36.12446 v -36.12444 c 0,0 -0.28683,0.0428 -0.42944,0.0689 -0.16145,0.0295 -0.32529,0.0513 -0.48229,0.0992 -0.50733,0.1547 -1.47227,0.60358 -1.47227,0.60358 l -2.039,0.85604 c -0.8908,0.2452 -1.8054,0.40411 -2.7268,0.47349 -0.9276,0.0698 -1.8617,0.0492 -2.7853,-0.0617 l -3.1971,-1.26779 -1.9893,0.16095 -3.02893,0.9514 -2.31896,-0.01 -2.47441,-0.55122 -1.82507,-0.66145 c -0.5738,0.10887 -1.14385,0.23763 -1.70877,0.38585 -0.66723,0.17505 -1.32756,0.37694 -1.97831,0.60578 l -2.24345,0.11024 -2.1332,-0.11024 -1.46348,-0.57822 -0.83247,-0.63419 -0.72332,-0.36635 z"
         sodipodi:nodetypes="ccccssccscccccccsccccccc" /><path
         style="fill:#000000;fill-opacity:0.451351;fill-rule:evenodd;stroke:none;stroke-width:0.282222px;stroke-linecap:butt;stroke-linejoin:miter;stroke-opacity:1"
         d="m 880.25218,793.68101 -1.32464,0.698 c -0.34991,0.39965 -0.59905,0.88685 -0.71822,1.4045 -0.15126,0.65705 -0.0902,1.36125 0.17198,1.98244 v 2.46315 l -0.46773,1.55908 -0.50841,2.14323 -0.27114,1.28673 -0.77953,1.24725 -0.46772,1.24726 0.28287,0.39019 0.49362,-0.0343 1.06598,-0.77841 0.18433,-0.35698 0.30314,-1.4832 0.32208,-0.97718 0.27606,-1.94266 c 0.0761,-0.61 0.14615,-1.22075 0.21025,-1.83213 0.0526,-0.50179 0.10119,-1.004 0.14573,-1.50657 l -0.01,-1.92451 0.63397,-1.32339 0.30148,-1.01522 0.1559,-1.24725 z"
         id="path609"
         inkscape:path-effect="#path-effect655"
         inkscape:original-d="m 880.25218,793.68101 c -0.60486,-0.21645 -0.95336,0.32482 -1.32464,0.698 -0.31827,0.40937 -0.68196,0.87281 -0.71822,1.4045 -0.073,0.67443 0.23446,1.3099 0.17198,1.98244 -0.009,0.82105 0.017,1.64292 0,2.46315 -0.33708,0.4513 -0.0137,1.17254 -0.46773,1.55908 -0.17784,0.71246 -0.27476,1.44141 -0.50841,2.14323 -0.10855,0.46629 -0.35519,0.78191 -0.27114,1.28673 -0.47341,0.30135 -0.41447,0.86652 -0.77953,1.24725 0.0219,0.46458 -0.48964,0.78268 -0.46772,1.24726 -0.40163,0.27426 -0.048,0.68968 0.28287,0.39019 0.14341,-0.0714 0.96605,-0.18254 0.49362,-0.0343 0.39147,-0.31123 0.87544,-0.2922 1.06598,-0.77841 0.0888,-0.13085 -0.0866,-0.4493 0.18433,-0.35698 -0.23528,-0.60313 0.45978,-0.90254 0.30314,-1.4832 0.13938,-0.31641 0.41227,-0.56895 0.32208,-0.97718 0.0515,-0.64986 0.12406,-1.31667 0.27606,-1.94266 -0.02,-0.62754 0.17842,-1.20872 0.21025,-1.83213 0.0324,-0.50915 -0.1711,-1.10051 0.14573,-1.50657 -0.0144,-0.64105 -0.0102,-1.28487 -0.01,-1.92451 0.18146,-0.45292 0.52171,-0.84341 0.63397,-1.32339 -0.22638,-0.47144 0.45151,-0.56568 0.30148,-1.01522 0.5154,-0.30325 0.27628,-0.78005 0.1559,-1.24725 z"
         transform="matrix(-1,0,0,1,1813.8879,-34.952582)" /><path
         style="fill:#000000;fill-opacity:0.359459;fill-rule:evenodd;stroke:none;stroke-width:0.282222px;stroke-linecap:butt;stroke-linejoin:miter;stroke-opacity:1"
         d="m 896.15472,793.68101 0.77953,0.3118 1.05237,1.48112 c 0.096,0.40642 0.16121,0.82011 0.19488,1.23636 0.0359,0.4444 0.0359,0.8917 0,1.3361 l 0.44582,1.26295 0.3632,0.96429 c 0.0687,0.38456 0.22361,0.75347 0.45001,1.07183 0.17298,0.24324 0.38733,0.457 0.63105,0.62931 l 0.32598,0.60517 0.89912,1.00359 0.3682,0.33657 0.26785,0.0866 0.53829,0.42327 0.57832,0.48668 0.28742,0.18029 0.30151,0.27712 0.36231,0.11903 0.4915,0.3538 0.57137,0.12249 0.53174,0.33563 -0.70967,-0.1514 -0.46771,-0.62364 -0.39753,-0.53495 -0.45999,-0.40049 -0.38975,-0.1559 -0.69851,-0.63673 -0.54874,-0.45462 -0.97104,-1.36519 -0.57844,-1.50053 -0.32674,-0.6398 -0.30649,-1.48352 c -0.008,-0.3683 -0.06,-0.73566 -0.15591,-1.09135 -0.1095,-0.40627 -0.27566,-0.79723 -0.49218,-1.15801 l -0.28736,-0.86877 -0.34648,-0.63397 -0.0244,-0.16123 -0.87635,-0.45208 -1.28285,-0.31338 z"
         id="path610"
         inkscape:path-effect="#path-effect661"
         inkscape:original-d="m 896.15472,793.68101 c -0.12898,0.6781 0.41859,0.41797 0.77953,0.3118 0.50091,0.38167 0.81037,0.91017 1.05237,1.48112 0.29381,0.3569 0.18502,0.81353 0.19488,1.23636 0.009,0.44554 -0.0137,0.89446 0,1.3361 0.35223,0.30735 -0.009,0.95882 0.44582,1.26295 -0.0689,0.34829 0.44596,0.55715 0.3632,0.96429 0.26795,0.28123 0.2804,0.68718 0.45001,1.07183 0.13239,0.34543 0.25742,0.67229 0.63105,0.62931 -0.12838,0.35277 0.24783,0.27754 0.32598,0.60517 0.43881,0.0693 0.62617,0.72444 0.89912,1.00359 0.0718,0.18428 0.42814,-0.049 0.3682,0.33657 0.14476,0.43439 0.0647,-0.30213 0.26785,0.0866 -0.0451,0.26652 0.57025,0.21017 0.53829,0.42327 0.2504,0.13286 0.46181,0.19961 0.57832,0.48668 0.19211,-0.0528 0.0798,0.21403 0.28742,0.18029 -0.11452,0.3058 0.43702,-0.0689 0.30151,0.27712 0.14169,0.13096 0.32071,0.38996 0.36231,0.11903 0.2277,0.13421 0.40633,0.21198 0.4915,0.3538 0.15876,0.0363 0.48051,0.35431 0.57137,0.12249 0.1371,0.0682 0.6275,0.45926 0.53174,0.33563 -0.42583,0.13994 -0.32724,-0.2448 -0.70967,-0.1514 -0.15127,-0.33668 -0.31412,-0.31048 -0.46771,-0.62364 -0.28539,-0.17234 0.005,-0.53887 -0.39753,-0.53495 -0.1637,-0.23435 -0.38283,-0.24963 -0.45999,-0.40049 -0.11421,-0.0653 -0.0998,-0.28067 -0.38975,-0.1559 -0.20865,-0.26893 -0.59438,-0.4109 -0.69851,-0.63673 -0.32213,0.0651 -0.77299,-0.16548 -0.54874,-0.45462 -0.34147,-0.433 -0.84889,-0.83796 -0.97104,-1.36519 -0.0926,-0.55837 -0.34029,-1.01116 -0.57844,-1.50053 -0.0303,0.5393 -0.11408,-0.54132 -0.32674,-0.6398 -0.38454,-0.41581 0.0723,-1.05417 -0.30649,-1.48352 -0.0422,-0.36536 0.10487,-0.77805 -0.15591,-1.09135 -0.32634,-0.38225 0.06,-0.99214 -0.49218,-1.15801 0.12297,-0.46646 -0.39011,-0.46936 -0.28736,-0.86877 -0.27106,-0.15416 -0.29538,-0.4164 -0.34648,-0.63397 -0.22478,0.0801 -0.24083,-0.2266 -0.0244,-0.16123 -0.26519,-0.22474 -0.85812,-0.0929 -0.87635,-0.45208 -0.55944,0.20726 -0.72448,-0.56124 -1.28285,-0.31338 z"
         transform="matrix(-1,0,0,1,1813.8879,-34.952582)" /><path
         style="fill:#000000;fill-opacity:0.408108;fill-rule:evenodd;stroke:none;stroke-width:0.282222px;stroke-linecap:butt;stroke-linejoin:miter;stroke-opacity:1"
         d="m 895.37517,825.48607 c -0.40122,-0.75568 -0.44443,-1.69195 -0.11451,-2.48137 0.18577,-0.4445 0.48018,-0.83712 0.81609,-1.18245 0.19292,-0.19833 0.4003,-0.38258 0.61997,-0.5508 l 0.75576,-0.58162 1.66448,-0.81643 0.93084,-0.74071 0.37963,-0.43384 1.0182,-1.61003 0.5211,-0.86231 0.52257,-1.49136 0.21862,-0.70459 0.16456,-1.25664 -0.48149,-1.00769 -0.1858,-0.6851 0.35721,0.40584 -0.21202,1.44596 c -0.11387,0.23634 -0.22855,0.47229 -0.34402,0.70785 -0.21728,0.44323 -0.43738,0.88508 -0.6603,1.3255 l -0.51412,1.00947 -0.15593,0.62362 -0.10455,0.18788 -1.06895,1.28982 -0.94027,0.76998 -1.01224,0.55893 -0.57122,0.282 -0.76175,0.44117 -0.29937,1.61422 -0.23576,0.54295 -0.22366,0.55299 -0.42411,0.69793 -0.13362,0.58353 0.007,1.0535 0.46773,0.3118 z"
         id="path611"
         inkscape:path-effect="#path-effect665"
         inkscape:original-d="m 895.37517,825.48607 c 0.40417,-0.81516 -0.44651,-1.65022 -0.11451,-2.48137 0.15804,-0.46444 0.31923,-1.00856 0.81609,-1.18245 0.29299,-0.10041 0.44114,-0.38882 0.61997,-0.5508 0.36687,0.051 0.49928,-0.99778 0.75576,-0.58162 0.4639,-0.42124 1.05619,-0.65609 1.66448,-0.81643 0.32101,-0.3051 0.86141,-0.44836 0.93084,-0.74071 0.19541,-0.11245 0.23566,-0.86424 0.37963,-0.43384 0.50692,-0.44839 0.37279,-1.24209 1.0182,-1.61003 0.48004,-0.17147 0.13833,-0.79181 0.5211,-0.86231 0.32184,-0.46626 0.15633,-1.05873 0.52257,-1.49136 0.10966,-0.27922 -0.0254,-0.64029 0.21862,-0.70459 0.26128,-0.32507 0.11824,-0.83236 0.16456,-1.25664 -0.25688,-0.12829 -0.20483,-0.69443 -0.48149,-1.00769 -0.008,-0.20011 0.13253,-1.06384 -0.1858,-0.6851 0.23151,0.2394 0.0979,0.36586 0.35721,0.40584 0.0651,0.54594 -0.0919,0.9768 -0.21202,1.44596 -0.32604,0.005 -0.1781,0.56883 -0.34402,0.70785 -0.35158,0.30002 -0.53584,0.86028 -0.6603,1.3255 -0.3933,0.2532 -0.003,0.82355 -0.51412,1.00947 0.13658,0.39115 -0.29748,0.23884 -0.15593,0.62362 -0.13621,0.18331 -0.26003,0.15492 -0.10455,0.18788 -0.30133,0.4988 -0.52815,1.00908 -1.06895,1.28982 -0.20377,0.40384 -0.47909,0.77223 -0.94027,0.76998 -0.15932,0.3961 -0.94358,0.29885 -1.01224,0.55893 0.42214,0.0136 -0.53503,0.10239 -0.57122,0.282 -0.45297,-0.10959 -0.32194,0.38606 -0.76175,0.44117 -0.0898,0.51572 -0.17486,1.08829 -0.29937,1.61422 -0.10175,0.24659 -0.0387,0.48057 -0.23576,0.54295 -0.13401,0.14102 -0.10989,0.47149 -0.22366,0.55299 -0.37089,0.068 -0.10084,0.66766 -0.42411,0.69793 0.20688,0.32867 -0.35315,0.16585 -0.13362,0.58353 0.0174,0.34969 -2.2e-4,0.71091 0.007,1.0535 0.13428,0.13378 0.31209,0.20787 0.46773,0.3118 z"
         transform="matrix(-1,0,0,1,1813.8879,-34.952582)" /><path
         style="fill:#000000;fill-opacity:0.408108;fill-rule:evenodd;stroke:none;stroke-width:0.282222px;stroke-linecap:butt;stroke-linejoin:miter;stroke-opacity:1"
         d="m 891.94521,799.44957 -2.87517,2.76133 c -0.3788,0.76298 -0.74792,1.53077 -1.10726,2.30311 -0.35255,0.75775 -0.6962,1.52119 -0.96976,2.3109 -0.35291,1.01877 -0.58835,2.07881 -1.00801,3.07195 -0.35044,0.82934 -0.82775,1.60493 -1.41021,2.29149 l -1.29041,0.92282 -2.33837,0.90496 -1.62929,0.86826 -1.55906,0.77953 -0.31182,1.1099 v 1.22871 l 1.55908,-1.24726 1.87422,-1.00596 1.55574,-1.33264 0.82876,-0.53805 0.88622,-1.09899 0.37899,-0.47546 0.85518,-1.2426 1.03989,-1.4235 c 0.38319,-0.73533 0.79488,-1.45581 1.23385,-2.15927 0.39674,-0.63579 0.81576,-1.25768 1.25603,-1.86415 l 1.0808,-2.22916 0.94582,-2.45097 0.38115,-1.48495"
         id="path618"
         inkscape:path-effect="#path-effect669"
         inkscape:original-d="m 891.94521,799.44957 c -1.10528,0.74988 -2.12495,1.64796 -2.87517,2.76133 -0.28238,0.80968 -0.95657,1.45298 -1.10726,2.30311 -0.11101,0.84022 -0.75598,1.49514 -0.96976,2.3109 -0.24849,1.05322 -0.72604,2.0297 -1.00801,3.07195 -0.22765,0.87812 -1.05156,1.44283 -1.41021,2.29149 -0.51796,0.28154 -0.61875,0.95921 -1.29041,0.92282 -0.745,0.43137 -1.55646,0.76775 -2.33837,0.90496 -0.47157,0.41606 -1.02276,0.60856 -1.62929,0.86826 -0.41658,0.34111 -1.38879,0.34355 -1.55906,0.77953 -0.45497,0.0419 -0.27488,0.75475 -0.31182,1.1099 0.003,0.4061 -0.004,0.84352 0,1.22871 0.45894,-0.51109 0.98792,-0.96591 1.55908,-1.24726 0.51767,-0.47455 1.18569,-0.72223 1.87422,-1.00596 0.67888,-0.22439 1.26221,-0.8325 1.55574,-1.33264 0.33258,-0.17258 0.45357,-0.44397 0.82876,-0.53805 0.13583,-0.47242 0.70721,-0.68062 0.88622,-1.09899 0.0644,-0.58469 0.29049,0.084 0.37899,-0.47546 0.24068,-0.41582 0.84908,-0.65138 0.85518,-1.2426 0.33731,-0.59471 0.40483,-1.13559 1.03989,-1.4235 0.27286,-0.77196 0.8945,-1.41853 1.23385,-2.15927 0.29956,-0.69844 0.8065,-1.30918 1.25603,-1.86415 0.32572,-0.74415 0.82641,-1.42658 1.0808,-2.22916 0.46324,-0.78063 0.59531,-1.68246 0.94582,-2.45097 0.0254,-0.49339 0.33781,-0.9635 0.38115,-1.48495"
         transform="matrix(-1,0,0,1,1813.8879,-34.952582)" /><path
         style="fill:#000000;fill-opacity:0.408108;fill-rule:evenodd;stroke:none;stroke-width:0.282222px;stroke-linecap:butt;stroke-linejoin:miter;stroke-opacity:1"
         d="m 874.01589,811.61033 c -0.27152,0.58322 -0.48721,1.19242 -0.64314,1.81656 -0.34781,1.39215 -0.39465,2.85869 -0.13639,4.2702 l -0.14491,1.009 c -0.16362,0.38729 -0.32153,0.777 -0.47366,1.16895 -0.16475,0.42448 -0.32272,0.85159 -0.47382,1.28111 l 10e-4,1.05589 0.31916,1.1498 0.19881,0.40531 0.26155,0.62757 v 0.12622 -1.52937 c -0.12789,-0.36241 -0.18373,-0.75009 -0.16334,-1.13386 0.0241,-0.45273 0.15469,-0.89945 0.37834,-1.29381 l 0.44168,-0.92664 0.11051,-1.32492 0.16827,-0.73087 0.1212,-0.90237 0.0347,-0.81581 v -4.25296 z"
         id="path619"
         inkscape:path-effect="#path-effect675"
         inkscape:original-d="m 874.01589,811.61033 c -0.31932,0.5639 -0.55109,1.17285 -0.64314,1.81656 -0.23853,1.41121 -0.11066,2.84622 -0.13639,4.2702 0.0737,0.35628 -0.2189,0.65595 -0.14491,1.009 -0.21192,0.33406 -0.41188,0.76567 -0.47366,1.16895 -0.0434,0.45074 -0.58867,0.76559 -0.47382,1.28111 0.006,0.35195 -0.005,0.70548 10e-4,1.05589 0.24635,0.26971 0.12504,1.12189 0.31916,1.1498 0.0615,-0.38856 0.17035,0.4005 0.19881,0.40531 0.087,0.2313 0.23093,0.42243 0.26155,0.62757 v 0.12622 c -0.002,-0.50964 0.003,-1.0225 0,-1.52937 -0.3329,-0.26314 -0.0832,-0.76355 -0.16334,-1.13386 -0.13985,-0.52725 0.38942,-0.82595 0.37834,-1.29381 0.32461,-0.21978 0.37536,-0.56904 0.44168,-0.92664 0.25775,-0.38751 0.0913,-0.88776 0.11051,-1.32492 0.0785,-0.24399 0.23149,-0.43508 0.16827,-0.73087 0.0265,-0.30437 -0.0798,-0.6417 0.1212,-0.90237 0.0911,-0.25779 0.01,-0.54409 0.0347,-0.81581 v -4.25296 z"
         sodipodi:nodetypes="scccccccccccccccccccs"
         transform="matrix(-1,0,0,1,1813.8879,-34.952582)" /><path
         style="fill:#000000;fill-opacity:0.354054;fill-rule:evenodd;stroke:none;stroke-width:0.282222px;stroke-linecap:butt;stroke-linejoin:miter;stroke-opacity:1"
         d="m 895.687,803.97089 -0.27888,1.28465 -0.033,0.66868 v 0.54117 l 0.16206,0.63277 -0.006,1.39404 -0.1559,0.3118 -0.15317,0.317 -0.30164,0.19506 -0.17126,0.21512 -0.20173,0.18161 -0.14273,-0.54143 -0.12082,-0.54709 v -1.53525 l 0.1508,-0.58556 0.19251,-0.58684 0.30043,-0.7372 0.15154,-0.43804 0.14017,-0.14687 0.46773,-0.62362 z"
         id="path620"
         inkscape:path-effect="#path-effect679"
         inkscape:original-d="m 895.687,803.97089 c -0.0777,0.43094 -0.0959,0.8803 -0.27888,1.28465 -0.0784,0.21499 -0.0181,0.44546 -0.033,0.66868 0.01,0.18059 -0.0216,0.36215 0,0.54117 0.11743,0.19155 0.21089,0.40108 0.16206,0.63277 -0.0134,0.46439 -0.003,0.92939 -0.006,1.39404 0.0278,0.14981 0.0617,0.39317 -0.1559,0.3118 -0.049,0.12468 0.12009,0.38851 -0.15317,0.317 -0.15719,-0.0283 -0.44345,-0.052 -0.30164,0.19506 0.0821,0.22681 -0.25444,-0.006 -0.17126,0.21512 0.0757,0.1633 -0.0476,0.32537 -0.20173,0.18161 -0.22006,-0.1117 -0.0158,-0.37273 -0.14273,-0.54143 -0.10928,-0.17416 -0.15194,-0.33632 -0.12082,-0.54709 2e-4,-0.51163 -2.8e-4,-1.02448 0,-1.53525 0.0381,-0.19807 0.1811,-0.37827 0.1508,-0.58556 0.0831,-0.1948 0.17829,-0.37531 0.19251,-0.58684 0.11281,-0.24095 0.30911,-0.46444 0.30043,-0.7372 0.10963,-0.12787 0.12332,-0.30379 0.15154,-0.43804 0.1455,0.0686 0.16782,-0.0299 0.14017,-0.14687 0.13415,-0.22346 0.31189,-0.41584 0.46773,-0.62362 z"
         transform="matrix(-1,0,0,1,1813.8879,-34.952582)" /><path
         style="fill:#000000;fill-opacity:0.354054;fill-rule:evenodd;stroke:none;stroke-width:0.282222px;stroke-linecap:butt;stroke-linejoin:miter;stroke-opacity:1"
         d="m 885.70892,823.45929 c 0.55389,-0.31242 1.01132,-0.79324 1.29574,-1.36202 0.21447,-0.42889 0.33125,-0.90627 0.33899,-1.38573 -0.22699,-0.47426 -0.36482,-0.99102 -0.40416,-1.51533 -0.0318,-0.42449 2.6e-4,-0.85076 0.0176,-1.27609 0.0185,-0.45369 0.0202,-0.90807 0.005,-1.36188 l -0.0733,-0.009 0.78868,0.88352 0.21524,0.60212 0.007,1.02086 -0.33098,0.85854 c -0.15045,0.30879 -0.19479,0.66808 -0.12393,1.00418 0.009,0.0409 0.0189,0.0815 0.0308,0.12161 l -0.38409,0.92309 -0.34862,0.56599 -0.40467,0.28292 -0.62854,0.64693 z"
         id="path621"
         inkscape:path-effect="#path-effect683"
         inkscape:original-d="m 885.70892,823.45929 c 0.46793,-0.41222 1.08458,-0.73443 1.29574,-1.36202 0.16788,-0.44396 0.33121,-0.90681 0.33899,-1.38573 -0.0447,-0.5279 -0.41538,-0.97544 -0.40416,-1.51533 10e-4,-0.42543 0.0317,-0.85033 0.0176,-1.27609 -7.9e-4,-0.45396 -0.005,-0.90798 0.005,-1.36188 0.11056,-0.19691 -0.32755,-0.14031 -0.0733,-0.009 0.29988,0.26162 0.43376,0.67929 0.78868,0.88352 0.11949,0.18579 -0.004,0.48466 0.21524,0.60212 0.004,0.34027 -0.009,0.68076 0.007,1.02086 -0.0753,0.2995 -0.37353,0.52831 -0.33098,0.85854 -0.0235,0.33626 0.1062,0.71023 -0.12393,1.00418 -0.0928,0.12586 0.098,-0.0439 0.0308,0.12161 -0.0368,0.33897 -0.25917,0.61469 -0.38409,0.92309 -0.11917,0.18968 -0.24081,0.42119 -0.34862,0.56599 -0.24667,-0.0805 -0.35562,0.0689 -0.40467,0.28292 -0.15991,0.25939 -0.43007,0.42097 -0.62854,0.64693 z"
         transform="matrix(-1,0,0,1,1813.8879,-34.952582)" /><path
         style="fill:#000000;fill-opacity:0.354054;fill-rule:evenodd;stroke:none;stroke-width:0.282222px;stroke-linecap:butt;stroke-linejoin:miter;stroke-opacity:1"
         d="m 886.64437,793.83691 c -0.62562,0.21804 -1.18947,0.61039 -1.61133,1.12125 -0.19561,0.23687 -0.3611,0.49858 -0.49125,0.77684 -0.0513,0.46695 -0.16176,0.92736 -0.32788,1.36677 -0.17359,0.45918 -0.40798,0.89533 -0.69511,1.29349 l -0.18211,0.62943 -0.27818,0.42488 -0.15593,0.3118 c 0.002,0.13055 0.002,0.26111 0,0.39166 -0.002,0.17049 -0.007,0.34094 -0.0155,0.51125 l 0.16289,-0.54616 0.30888,-0.63227 0.28043,-0.15858 0.18971,-0.17378 0.30685,-0.40858 0.31336,-0.72104 0.36703,-0.63392 0.0334,-0.58122 0.0706,-0.0521 0.16514,-0.11339 0.46803,-0.62142 0.32726,-0.66636 0.30257,-0.62054 0.34841,-0.66188 0.11281,-0.23613 z"
         id="path622"
         inkscape:path-effect="#path-effect687"
         inkscape:original-d="m 886.64437,793.83691 c -0.56205,0.33159 -1.21168,0.57662 -1.61133,1.12125 -0.177,0.24797 -0.39271,0.4848 -0.49125,0.77684 -0.077,0.46201 -0.18743,0.91963 -0.32788,1.36677 -0.15113,0.47174 -0.5025,0.84479 -0.69511,1.29349 0.0202,0.22479 -0.18107,0.41312 -0.18211,0.62943 -0.19261,0.0968 -0.0665,0.33166 -0.27818,0.42488 -0.0123,0.14111 0.0845,0.40312 -0.15593,0.3118 -0.0184,0.12379 0.0107,0.26093 0,0.39166 -0.004,0.1705 0.0114,0.34255 -0.0155,0.51125 0.3028,0.19765 0.12554,-0.37794 0.16289,-0.54616 0.10388,-0.21885 0.44913,-0.32816 0.30888,-0.63227 0.0449,-0.1122 0.24765,0.0295 0.28043,-0.15858 0.094,-0.0634 0.28412,0.0286 0.18971,-0.17378 0.14656,-0.11206 0.46229,-0.14414 0.30685,-0.40858 0.11224,-0.23771 0.46668,-0.38949 0.31336,-0.72104 1.5e-4,-0.23773 0.28758,-0.49516 0.36703,-0.63392 -0.20179,0.0329 0.0244,-0.42925 0.0334,-0.58122 0.0213,-0.11949 0.0714,-0.25626 0.0706,-0.0521 0.0211,0.21142 0.2596,0.019 0.16514,-0.11339 0.11863,-0.27357 0.58957,-0.2622 0.46803,-0.62142 -0.0795,-0.30426 0.41359,-0.35202 0.32726,-0.66636 0.15976,-0.2038 0.10455,-0.4594 0.30257,-0.62054 0.005,-0.23942 0.30069,-0.39998 0.34841,-0.66188 0.037,-0.079 0.0738,-0.1581 0.11281,-0.23613 z"
         transform="matrix(-1,0,0,1,1813.8879,-34.952582)" /></g></g></svg>
